solid 
 facet normal -1.000000e+00  0.000000e+00  0.000000e+00
   outer loop
     vertex  1.287000e+02  1.245000e+01  6.200000e+00
     vertex  1.287000e+02  1.445000e+01 -8.000000e-01
     vertex  1.287000e+02  1.245000e+01 -8.000000e-01
   endloop
 endfacet
 facet normal -1.000000e+00  0.000000e+00  0.000000e+00
   outer loop
     vertex  1.287000e+02  1.245000e+01  6.200000e+00
     vertex  1.287000e+02  1.445000e+01  6.200000e+00
     vertex  1.287000e+02  1.445000e+01 -8.000000e-01
   endloop
 endfacet
 facet normal  1.000000e+00  0.000000e+00  0.000000e+00
   outer loop
     vertex  1.334000e+02  1.245000e+01  6.200000e+00
     vertex  1.334000e+02  1.245000e+01 -8.000000e-01
     vertex  1.334000e+02  1.445000e+01 -8.000000e-01
   endloop
 endfacet
 facet normal  1.000000e+00 -0.000000e+00  0.000000e+00
   outer loop
     vertex  1.334000e+02  1.245000e+01  6.200000e+00
     vertex  1.334000e+02  1.445000e+01 -8.000000e-01
     vertex  1.334000e+02  1.445000e+01  6.200000e+00
   endloop
 endfacet
 facet normal  0.000000e+00 -1.000000e+00 -0.000000e+00
   outer loop
     vertex  1.334000e+02  1.245000e+01  6.200000e+00
     vertex  1.287000e+02  1.245000e+01 -8.000000e-01
     vertex  1.334000e+02  1.245000e+01 -8.000000e-01
   endloop
 endfacet
 facet normal -0.000000e+00 -1.000000e+00  0.000000e+00
   outer loop
     vertex  1.334000e+02  1.245000e+01  6.200000e+00
     vertex  1.287000e+02  1.245000e+01  6.200000e+00
     vertex  1.287000e+02  1.245000e+01 -8.000000e-01
   endloop
 endfacet
 facet normal  0.000000e+00  1.000000e+00  0.000000e+00
   outer loop
     vertex  1.334000e+02  1.445000e+01  6.200000e+00
     vertex  1.334000e+02  1.445000e+01 -8.000000e-01
     vertex  1.287000e+02  1.445000e+01 -8.000000e-01
   endloop
 endfacet
 facet normal  0.000000e+00  1.000000e+00  0.000000e+00
   outer loop
     vertex  1.334000e+02  1.445000e+01  6.200000e+00
     vertex  1.287000e+02  1.445000e+01 -8.000000e-01
     vertex  1.287000e+02  1.445000e+01  6.200000e+00
   endloop
 endfacet
 facet normal -0.000000e+00  0.000000e+00 -1.000000e+00
   outer loop
     vertex  1.334000e+02  1.445000e+01 -8.000000e-01
     vertex  1.287000e+02  1.245000e+01 -8.000000e-01
     vertex  1.287000e+02  1.445000e+01 -8.000000e-01
   endloop
 endfacet
 facet normal  0.000000e+00 -0.000000e+00 -1.000000e+00
   outer loop
     vertex  1.334000e+02  1.445000e+01 -8.000000e-01
     vertex  1.334000e+02  1.245000e+01 -8.000000e-01
     vertex  1.287000e+02  1.245000e+01 -8.000000e-01
   endloop
 endfacet
 facet normal  0.000000e+00  0.000000e+00  1.000000e+00
   outer loop
     vertex  1.334000e+02  1.445000e+01  6.200000e+00
     vertex  1.287000e+02  1.445000e+01  6.200000e+00
     vertex  1.287000e+02  1.245000e+01  6.200000e+00
   endloop
 endfacet
 facet normal  0.000000e+00  0.000000e+00  1.000000e+00
   outer loop
     vertex  1.334000e+02  1.445000e+01  6.200000e+00
     vertex  1.287000e+02  1.245000e+01  6.200000e+00
     vertex  1.334000e+02  1.245000e+01  6.200000e+00
   endloop
 endfacet
 facet normal -1.000000e+00  0.000000e+00  0.000000e+00
   outer loop
     vertex  1.287000e+02  2.155000e+01  6.200000e+00
     vertex  1.287000e+02  2.355000e+01 -8.000000e-01
     vertex  1.287000e+02  2.155000e+01 -8.000000e-01
   endloop
 endfacet
 facet normal -1.000000e+00  0.000000e+00  0.000000e+00
   outer loop
     vertex  1.287000e+02  2.155000e+01  6.200000e+00
     vertex  1.287000e+02  2.355000e+01  6.200000e+00
     vertex  1.287000e+02  2.355000e+01 -8.000000e-01
   endloop
 endfacet
 facet normal  1.000000e+00  0.000000e+00  0.000000e+00
   outer loop
     vertex  1.334000e+02  2.155000e+01  6.200000e+00
     vertex  1.334000e+02  2.155000e+01 -8.000000e-01
     vertex  1.334000e+02  2.355000e+01 -8.000000e-01
   endloop
 endfacet
 facet normal  1.000000e+00 -0.000000e+00  0.000000e+00
   outer loop
     vertex  1.334000e+02  2.155000e+01  6.200000e+00
     vertex  1.334000e+02  2.355000e+01 -8.000000e-01
     vertex  1.334000e+02  2.355000e+01  6.200000e+00
   endloop
 endfacet
 facet normal  0.000000e+00 -1.000000e+00 -0.000000e+00
   outer loop
     vertex  1.334000e+02  2.155000e+01  6.200000e+00
     vertex  1.287000e+02  2.155000e+01 -8.000000e-01
     vertex  1.334000e+02  2.155000e+01 -8.000000e-01
   endloop
 endfacet
 facet normal -0.000000e+00 -1.000000e+00  0.000000e+00
   outer loop
     vertex  1.334000e+02  2.155000e+01  6.200000e+00
     vertex  1.287000e+02  2.155000e+01  6.200000e+00
     vertex  1.287000e+02  2.155000e+01 -8.000000e-01
   endloop
 endfacet
 facet normal  0.000000e+00  1.000000e+00  0.000000e+00
   outer loop
     vertex  1.334000e+02  2.355000e+01  6.200000e+00
     vertex  1.334000e+02  2.355000e+01 -8.000000e-01
     vertex  1.287000e+02  2.355000e+01 -8.000000e-01
   endloop
 endfacet
 facet normal  0.000000e+00  1.000000e+00  0.000000e+00
   outer loop
     vertex  1.334000e+02  2.355000e+01  6.200000e+00
     vertex  1.287000e+02  2.355000e+01 -8.000000e-01
     vertex  1.287000e+02  2.355000e+01  6.200000e+00
   endloop
 endfacet
 facet normal -0.000000e+00  0.000000e+00 -1.000000e+00
   outer loop
     vertex  1.334000e+02  2.355000e+01 -8.000000e-01
     vertex  1.287000e+02  2.155000e+01 -8.000000e-01
     vertex  1.287000e+02  2.355000e+01 -8.000000e-01
   endloop
 endfacet
 facet normal  0.000000e+00 -0.000000e+00 -1.000000e+00
   outer loop
     vertex  1.334000e+02  2.355000e+01 -8.000000e-01
     vertex  1.334000e+02  2.155000e+01 -8.000000e-01
     vertex  1.287000e+02  2.155000e+01 -8.000000e-01
   endloop
 endfacet
 facet normal  0.000000e+00  0.000000e+00  1.000000e+00
   outer loop
     vertex  1.334000e+02  2.355000e+01  6.200000e+00
     vertex  1.287000e+02  2.355000e+01  6.200000e+00
     vertex  1.287000e+02  2.155000e+01  6.200000e+00
   endloop
 endfacet
 facet normal  0.000000e+00  0.000000e+00  1.000000e+00
   outer loop
     vertex  1.334000e+02  2.355000e+01  6.200000e+00
     vertex  1.287000e+02  2.155000e+01  6.200000e+00
     vertex  1.334000e+02  2.155000e+01  6.200000e+00
   endloop
 endfacet
endsolid
