solid 
 facet normal  4.664756e-19 -8.715574e-02  9.961947e-01
   outer loop
     vertex  1.320000e+02  1.727068e+01  6.836193e+00
     vertex  1.320000e+02  1.800000e+01  6.900000e+00
     vertex  1.278000e+02  1.800000e+01  6.900000e+00
   endloop
 endfacet
 facet normal  0.000000e+00 -8.715574e-02  9.961947e-01
   outer loop
     vertex  1.320000e+02  1.727068e+01  6.836193e+00
     vertex  1.278000e+02  1.800000e+01  6.900000e+00
     vertex  1.278000e+02  1.727068e+01  6.836193e+00
   endloop
 endfacet
 facet normal  0.000000e+00 -2.588190e-01  9.659258e-01
   outer loop
     vertex  1.320000e+02  1.656352e+01  6.646709e+00
     vertex  1.278000e+02  1.727068e+01  6.836193e+00
     vertex  1.278000e+02  1.656352e+01  6.646709e+00
   endloop
 endfacet
 facet normal  2.755805e-18 -2.588190e-01  9.659258e-01
   outer loop
     vertex  1.320000e+02  1.656352e+01  6.646709e+00
     vertex  1.320000e+02  1.727068e+01  6.836193e+00
     vertex  1.278000e+02  1.727068e+01  6.836193e+00
   endloop
 endfacet
 facet normal  0.000000e+00 -4.226183e-01  9.063078e-01
   outer loop
     vertex  1.320000e+02  1.590000e+01  6.337307e+00
     vertex  1.278000e+02  1.656352e+01  6.646709e+00
     vertex  1.278000e+02  1.590000e+01  6.337307e+00
   endloop
 endfacet
 facet normal -6.936124e-19 -4.226183e-01  9.063078e-01
   outer loop
     vertex  1.320000e+02  1.590000e+01  6.337307e+00
     vertex  1.320000e+02  1.656352e+01  6.646709e+00
     vertex  1.278000e+02  1.656352e+01  6.646709e+00
   endloop
 endfacet
 facet normal  0.000000e+00 -5.735764e-01  8.191520e-01
   outer loop
     vertex  1.320000e+02  1.530029e+01  5.917387e+00
     vertex  1.278000e+02  1.590000e+01  6.337307e+00
     vertex  1.278000e+02  1.530029e+01  5.917387e+00
   endloop
 endfacet
 facet normal  4.996645e-18 -5.735764e-01  8.191520e-01
   outer loop
     vertex  1.320000e+02  1.530029e+01  5.917387e+00
     vertex  1.320000e+02  1.590000e+01  6.337307e+00
     vertex  1.278000e+02  1.590000e+01  6.337307e+00
   endloop
 endfacet
 facet normal  0.000000e+00 -7.071068e-01  7.071068e-01
   outer loop
     vertex  1.320000e+02  1.478261e+01  5.399708e+00
     vertex  1.278000e+02  1.530029e+01  5.917387e+00
     vertex  1.278000e+02  1.478261e+01  5.399708e+00
   endloop
 endfacet
 facet normal  6.436328e-18 -7.071068e-01  7.071068e-01
   outer loop
     vertex  1.320000e+02  1.478261e+01  5.399708e+00
     vertex  1.320000e+02  1.530029e+01  5.917387e+00
     vertex  1.278000e+02  1.530029e+01  5.917387e+00
   endloop
 endfacet
 facet normal  0.000000e+00 -8.191520e-01  5.735764e-01
   outer loop
     vertex  1.320000e+02  1.436269e+01  4.800000e+00
     vertex  1.278000e+02  1.478261e+01  5.399708e+00
     vertex  1.278000e+02  1.436269e+01  4.800000e+00
   endloop
 endfacet
 facet normal  4.405067e-18 -8.191520e-01  5.735764e-01
   outer loop
     vertex  1.320000e+02  1.436269e+01  4.800000e+00
     vertex  1.320000e+02  1.478261e+01  5.399708e+00
     vertex  1.278000e+02  1.478261e+01  5.399708e+00
   endloop
 endfacet
 facet normal -3.687012e-18 -9.063078e-01  4.226183e-01
   outer loop
     vertex  1.320000e+02  1.405329e+01  4.136485e+00
     vertex  1.320000e+02  1.436269e+01  4.800000e+00
     vertex  1.278000e+02  1.436269e+01  4.800000e+00
   endloop
 endfacet
 facet normal  0.000000e+00 -9.063078e-01  4.226183e-01
   outer loop
     vertex  1.320000e+02  1.405329e+01  4.136485e+00
     vertex  1.278000e+02  1.436269e+01  4.800000e+00
     vertex  1.278000e+02  1.405329e+01  4.136485e+00
   endloop
 endfacet
 facet normal  0.000000e+00 -9.659258e-01  2.588190e-01
   outer loop
     vertex  1.320000e+02  1.405329e+01  4.136485e+00
     vertex  1.278000e+02  1.405329e+01  4.136485e+00
     vertex  1.278000e+02  1.386381e+01  3.429322e+00
   endloop
 endfacet
 facet normal  0.000000e+00 -9.659258e-01  2.588190e-01
   outer loop
     vertex  1.320000e+02  1.386381e+01  3.429322e+00
     vertex  1.320000e+02  1.405329e+01  4.136485e+00
     vertex  1.278000e+02  1.386381e+01  3.429322e+00
   endloop
 endfacet
 facet normal -1.000086e-19 -9.961947e-01  8.715574e-02
   outer loop
     vertex  1.320000e+02  1.380000e+01  2.700000e+00
     vertex  1.320000e+02  1.386381e+01  3.429322e+00
     vertex  1.278000e+02  1.386381e+01  3.429322e+00
   endloop
 endfacet
 facet normal  0.000000e+00 -9.961947e-01  8.715574e-02
   outer loop
     vertex  1.320000e+02  1.380000e+01  2.700000e+00
     vertex  1.278000e+02  1.386381e+01  3.429322e+00
     vertex  1.278000e+02  1.380000e+01  2.700000e+00
   endloop
 endfacet
 facet normal -8.881949e-20 -9.961947e-01 -8.715574e-02
   outer loop
     vertex  1.320000e+02  1.386381e+01  1.970678e+00
     vertex  1.320000e+02  1.380000e+01  2.700000e+00
     vertex  1.278000e+02  1.380000e+01  2.700000e+00
   endloop
 endfacet
 facet normal -0.000000e+00 -9.961947e-01 -8.715574e-02
   outer loop
     vertex  1.320000e+02  1.386381e+01  1.970678e+00
     vertex  1.278000e+02  1.380000e+01  2.700000e+00
     vertex  1.278000e+02  1.386381e+01  1.970678e+00
   endloop
 endfacet
 facet normal -0.000000e+00 -9.659258e-01 -2.588190e-01
   outer loop
     vertex  1.320000e+02  1.386381e+01  1.970678e+00
     vertex  1.278000e+02  1.386381e+01  1.970678e+00
     vertex  1.278000e+02  1.405329e+01  1.263515e+00
   endloop
 endfacet
 facet normal -0.000000e+00 -9.659258e-01 -2.588190e-01
   outer loop
     vertex  1.320000e+02  1.405329e+01  1.263515e+00
     vertex  1.320000e+02  1.386381e+01  1.970678e+00
     vertex  1.278000e+02  1.405329e+01  1.263515e+00
   endloop
 endfacet
 facet normal -1.944770e-18 -9.063078e-01 -4.226183e-01
   outer loop
     vertex  1.320000e+02  1.436269e+01  6.000000e-01
     vertex  1.320000e+02  1.405329e+01  1.263515e+00
     vertex  1.278000e+02  1.405329e+01  1.263515e+00
   endloop
 endfacet
 facet normal -0.000000e+00 -9.063078e-01 -4.226183e-01
   outer loop
     vertex  1.320000e+02  1.436269e+01  6.000000e-01
     vertex  1.278000e+02  1.405329e+01  1.263515e+00
     vertex  1.278000e+02  1.436269e+01  6.000000e-01
   endloop
 endfacet
 facet normal  4.114884e-18 -8.191520e-01 -5.735764e-01
   outer loop
     vertex  1.320000e+02  1.478261e+01  2.920393e-04
     vertex  1.320000e+02  1.436269e+01  6.000000e-01
     vertex  1.278000e+02  1.436269e+01  6.000000e-01
   endloop
 endfacet
 facet normal -0.000000e+00 -8.191520e-01 -5.735764e-01
   outer loop
     vertex  1.320000e+02  1.478261e+01  2.920393e-04
     vertex  1.278000e+02  1.436269e+01  6.000000e-01
     vertex  1.278000e+02  1.478261e+01  2.920393e-04
   endloop
 endfacet
 facet normal -1.329797e-18 -7.071068e-01 -7.071068e-01
   outer loop
     vertex  1.320000e+02  1.530029e+01 -5.173867e-01
     vertex  1.320000e+02  1.478261e+01  2.920393e-04
     vertex  1.278000e+02  1.478261e+01  2.920393e-04
   endloop
 endfacet
 facet normal -0.000000e+00 -7.071068e-01 -7.071068e-01
   outer loop
     vertex  1.320000e+02  1.530029e+01 -5.173867e-01
     vertex  1.278000e+02  1.478261e+01  2.920393e-04
     vertex  1.278000e+02  1.530029e+01 -5.173867e-01
   endloop
 endfacet
 facet normal  2.900594e-18 -5.735764e-01 -8.191520e-01
   outer loop
     vertex  1.320000e+02  1.590000e+01 -9.373067e-01
     vertex  1.320000e+02  1.530029e+01 -5.173867e-01
     vertex  1.278000e+02  1.530029e+01 -5.173867e-01
   endloop
 endfacet
 facet normal -0.000000e+00 -5.735764e-01 -8.191520e-01
   outer loop
     vertex  1.320000e+02  1.590000e+01 -9.373067e-01
     vertex  1.278000e+02  1.530029e+01 -5.173867e-01
     vertex  1.278000e+02  1.590000e+01 -9.373067e-01
   endloop
 endfacet
 facet normal  2.792238e-18 -4.226183e-01 -9.063078e-01
   outer loop
     vertex  1.320000e+02  1.656352e+01 -1.246709e+00
     vertex  1.320000e+02  1.590000e+01 -9.373067e-01
     vertex  1.278000e+02  1.590000e+01 -9.373067e-01
   endloop
 endfacet
 facet normal -0.000000e+00 -4.226183e-01 -9.063078e-01
   outer loop
     vertex  1.320000e+02  1.656352e+01 -1.246709e+00
     vertex  1.278000e+02  1.590000e+01 -9.373067e-01
     vertex  1.278000e+02  1.656352e+01 -1.246709e+00
   endloop
 endfacet
 facet normal  3.938486e-18 -2.588190e-01 -9.659258e-01
   outer loop
     vertex  1.320000e+02  1.727068e+01 -1.436193e+00
     vertex  1.320000e+02  1.656352e+01 -1.246709e+00
     vertex  1.278000e+02  1.656352e+01 -1.246709e+00
   endloop
 endfacet
 facet normal -0.000000e+00 -2.588190e-01 -9.659258e-01
   outer loop
     vertex  1.320000e+02  1.727068e+01 -1.436193e+00
     vertex  1.278000e+02  1.656352e+01 -1.246709e+00
     vertex  1.278000e+02  1.727068e+01 -1.436193e+00
   endloop
 endfacet
 facet normal -0.000000e+00 -8.715574e-02 -9.961947e-01
   outer loop
     vertex  1.320000e+02  1.727068e+01 -1.436193e+00
     vertex  1.278000e+02  1.727068e+01 -1.436193e+00
     vertex  1.278000e+02  1.800000e+01 -1.500000e+00
   endloop
 endfacet
 facet normal -0.000000e+00 -8.715574e-02 -9.961947e-01
   outer loop
     vertex  1.320000e+02  1.800000e+01 -1.500000e+00
     vertex  1.320000e+02  1.727068e+01 -1.436193e+00
     vertex  1.278000e+02  1.800000e+01 -1.500000e+00
   endloop
 endfacet
 facet normal  0.000000e+00  8.715574e-02 -9.961947e-01
   outer loop
     vertex  1.320000e+02  1.872932e+01 -1.436193e+00
     vertex  1.278000e+02  1.800000e+01 -1.500000e+00
     vertex  1.278000e+02  1.872932e+01 -1.436193e+00
   endloop
 endfacet
 facet normal -1.127900e-18  8.715574e-02 -9.961947e-01
   outer loop
     vertex  1.320000e+02  1.872932e+01 -1.436193e+00
     vertex  1.320000e+02  1.800000e+01 -1.500000e+00
     vertex  1.278000e+02  1.800000e+01 -1.500000e+00
   endloop
 endfacet
 facet normal  0.000000e+00  2.588190e-01 -9.659258e-01
   outer loop
     vertex  1.320000e+02  1.943648e+01 -1.246709e+00
     vertex  1.278000e+02  1.872932e+01 -1.436193e+00
     vertex  1.278000e+02  1.943648e+01 -1.246709e+00
   endloop
 endfacet
 facet normal  2.755805e-18  2.588190e-01 -9.659258e-01
   outer loop
     vertex  1.320000e+02  1.943648e+01 -1.246709e+00
     vertex  1.320000e+02  1.872932e+01 -1.436193e+00
     vertex  1.278000e+02  1.872932e+01 -1.436193e+00
   endloop
 endfacet
 facet normal  0.000000e+00  4.226183e-01 -9.063078e-01
   outer loop
     vertex  1.320000e+02  2.010000e+01 -9.373067e-01
     vertex  1.278000e+02  1.943648e+01 -1.246709e+00
     vertex  1.278000e+02  2.010000e+01 -9.373067e-01
   endloop
 endfacet
 facet normal  3.626859e-19  4.226183e-01 -9.063078e-01
   outer loop
     vertex  1.320000e+02  2.010000e+01 -9.373067e-01
     vertex  1.320000e+02  1.943648e+01 -1.246709e+00
     vertex  1.278000e+02  1.943648e+01 -1.246709e+00
   endloop
 endfacet
 facet normal  0.000000e+00  5.735764e-01 -8.191520e-01
   outer loop
     vertex  1.320000e+02  2.069971e+01 -5.173867e-01
     vertex  1.278000e+02  2.010000e+01 -9.373067e-01
     vertex  1.278000e+02  2.069971e+01 -5.173867e-01
   endloop
 endfacet
 facet normal -4.948487e-18  5.735764e-01 -8.191520e-01
   outer loop
     vertex  1.320000e+02  2.069971e+01 -5.173867e-01
     vertex  1.320000e+02  2.010000e+01 -9.373067e-01
     vertex  1.278000e+02  2.010000e+01 -9.373067e-01
   endloop
 endfacet
 facet normal  0.000000e+00  7.071068e-01 -7.071068e-01
   outer loop
     vertex  1.320000e+02  2.121739e+01  2.920393e-04
     vertex  1.278000e+02  2.069971e+01 -5.173867e-01
     vertex  1.278000e+02  2.121739e+01  2.920393e-04
   endloop
 endfacet
 facet normal  0.000000e+00  8.191520e-01 -5.735764e-01
   outer loop
     vertex  1.320000e+02  2.121739e+01  2.920393e-04
     vertex  1.278000e+02  2.121739e+01  2.920393e-04
     vertex  1.278000e+02  2.163731e+01  6.000000e-01
   endloop
 endfacet
 facet normal -6.510402e-18  7.071068e-01 -7.071068e-01
   outer loop
     vertex  1.320000e+02  2.121739e+01  2.920393e-04
     vertex  1.320000e+02  2.069971e+01 -5.173867e-01
     vertex  1.278000e+02  2.069971e+01 -5.173867e-01
   endloop
 endfacet
 facet normal  0.000000e+00  9.063078e-01 -4.226183e-01
   outer loop
     vertex  1.320000e+02  2.163731e+01  6.000000e-01
     vertex  1.278000e+02  2.163731e+01  6.000000e-01
     vertex  1.278000e+02  2.194671e+01  1.263515e+00
   endloop
 endfacet
 facet normal  0.000000e+00  8.191520e-01 -5.735764e-01
   outer loop
     vertex  1.320000e+02  2.163731e+01  6.000000e-01
     vertex  1.320000e+02  2.121739e+01  2.920393e-04
     vertex  1.278000e+02  2.163731e+01  6.000000e-01
   endloop
 endfacet
 facet normal  0.000000e+00  9.659258e-01 -2.588190e-01
   outer loop
     vertex  1.320000e+02  2.194671e+01  1.263515e+00
     vertex  1.278000e+02  2.194671e+01  1.263515e+00
     vertex  1.278000e+02  2.213619e+01  1.970678e+00
   endloop
 endfacet
 facet normal  0.000000e+00  9.063078e-01 -4.226183e-01
   outer loop
     vertex  1.320000e+02  2.194671e+01  1.263515e+00
     vertex  1.320000e+02  2.163731e+01  6.000000e-01
     vertex  1.278000e+02  2.194671e+01  1.263515e+00
   endloop
 endfacet
 facet normal  0.000000e+00  9.659258e-01 -2.588190e-01
   outer loop
     vertex  1.320000e+02  2.213619e+01  1.970678e+00
     vertex  1.320000e+02  2.194671e+01  1.263515e+00
     vertex  1.278000e+02  2.213619e+01  1.970678e+00
   endloop
 endfacet
 facet normal  0.000000e+00  9.961947e-01 -8.715574e-02
   outer loop
     vertex  1.320000e+02  2.220000e+01  2.700000e+00
     vertex  1.278000e+02  2.213619e+01  1.970678e+00
     vertex  1.278000e+02  2.220000e+01  2.700000e+00
   endloop
 endfacet
 facet normal  0.000000e+00  9.961947e-01  8.715574e-02
   outer loop
     vertex  1.320000e+02  2.220000e+01  2.700000e+00
     vertex  1.278000e+02  2.220000e+01  2.700000e+00
     vertex  1.278000e+02  2.213619e+01  3.429322e+00
   endloop
 endfacet
 facet normal  1.116710e-18  9.961947e-01 -8.715574e-02
   outer loop
     vertex  1.320000e+02  2.220000e+01  2.700000e+00
     vertex  1.320000e+02  2.213619e+01  1.970678e+00
     vertex  1.278000e+02  2.213619e+01  1.970678e+00
   endloop
 endfacet
 facet normal  0.000000e+00  9.659258e-01  2.588190e-01
   outer loop
     vertex  1.320000e+02  2.213619e+01  3.429322e+00
     vertex  1.278000e+02  2.213619e+01  3.429322e+00
     vertex  1.278000e+02  2.194671e+01  4.136485e+00
   endloop
 endfacet
 facet normal  0.000000e+00  9.961947e-01  8.715574e-02
   outer loop
     vertex  1.320000e+02  2.213619e+01  3.429322e+00
     vertex  1.320000e+02  2.220000e+01  2.700000e+00
     vertex  1.278000e+02  2.213619e+01  3.429322e+00
   endloop
 endfacet
 facet normal  0.000000e+00  9.659258e-01  2.588190e-01
   outer loop
     vertex  1.320000e+02  2.194671e+01  4.136485e+00
     vertex  1.320000e+02  2.213619e+01  3.429322e+00
     vertex  1.278000e+02  2.194671e+01  4.136485e+00
   endloop
 endfacet
 facet normal  0.000000e+00  9.063078e-01  4.226183e-01
   outer loop
     vertex  1.320000e+02  2.163731e+01  4.800000e+00
     vertex  1.278000e+02  2.194671e+01  4.136485e+00
     vertex  1.278000e+02  2.163731e+01  4.800000e+00
   endloop
 endfacet
 facet normal  0.000000e+00  8.191520e-01  5.735764e-01
   outer loop
     vertex  1.320000e+02  2.163731e+01  4.800000e+00
     vertex  1.278000e+02  2.163731e+01  4.800000e+00
     vertex  1.278000e+02  2.121739e+01  5.399708e+00
   endloop
 endfacet
 facet normal -1.774492e-18  9.063078e-01  4.226183e-01
   outer loop
     vertex  1.320000e+02  2.163731e+01  4.800000e+00
     vertex  1.320000e+02  2.194671e+01  4.136485e+00
     vertex  1.278000e+02  2.194671e+01  4.136485e+00
   endloop
 endfacet
 facet normal  0.000000e+00  8.191520e-01  5.735764e-01
   outer loop
     vertex  1.320000e+02  2.121739e+01  5.399708e+00
     vertex  1.320000e+02  2.163731e+01  4.800000e+00
     vertex  1.278000e+02  2.121739e+01  5.399708e+00
   endloop
 endfacet
 facet normal  0.000000e+00  7.071068e-01  7.071068e-01
   outer loop
     vertex  1.320000e+02  2.069971e+01  5.917387e+00
     vertex  1.278000e+02  2.121739e+01  5.399708e+00
     vertex  1.278000e+02  2.069971e+01  5.917387e+00
   endloop
 endfacet
 facet normal -6.436328e-18  7.071068e-01  7.071068e-01
   outer loop
     vertex  1.320000e+02  2.069971e+01  5.917387e+00
     vertex  1.320000e+02  2.121739e+01  5.399708e+00
     vertex  1.278000e+02  2.121739e+01  5.399708e+00
   endloop
 endfacet
 facet normal  7.947470e-18  5.735764e-01  8.191520e-01
   outer loop
     vertex  1.320000e+02  2.010000e+01  6.337307e+00
     vertex  1.320000e+02  2.069971e+01  5.917387e+00
     vertex  1.278000e+02  2.069971e+01  5.917387e+00
   endloop
 endfacet
 facet normal  0.000000e+00  5.735764e-01  8.191520e-01
   outer loop
     vertex  1.320000e+02  2.010000e+01  6.337307e+00
     vertex  1.278000e+02  2.069971e+01  5.917387e+00
     vertex  1.278000e+02  2.010000e+01  6.337307e+00
   endloop
 endfacet
 facet normal  3.733443e-18  4.226183e-01  9.063078e-01
   outer loop
     vertex  1.320000e+02  1.943648e+01  6.646709e+00
     vertex  1.320000e+02  2.010000e+01  6.337307e+00
     vertex  1.278000e+02  2.010000e+01  6.337307e+00
   endloop
 endfacet
 facet normal  0.000000e+00  4.226183e-01  9.063078e-01
   outer loop
     vertex  1.320000e+02  1.943648e+01  6.646709e+00
     vertex  1.278000e+02  2.010000e+01  6.337307e+00
     vertex  1.278000e+02  1.943648e+01  6.646709e+00
   endloop
 endfacet
 facet normal  0.000000e+00  2.588190e-01  9.659258e-01
   outer loop
     vertex  1.320000e+02  1.943648e+01  6.646709e+00
     vertex  1.278000e+02  1.943648e+01  6.646709e+00
     vertex  1.278000e+02  1.872932e+01  6.836193e+00
   endloop
 endfacet
 facet normal  0.000000e+00  2.588190e-01  9.659258e-01
   outer loop
     vertex  1.320000e+02  1.872932e+01  6.836193e+00
     vertex  1.320000e+02  1.943648e+01  6.646709e+00
     vertex  1.278000e+02  1.872932e+01  6.836193e+00
   endloop
 endfacet
 facet normal  8.721273e-19  8.715574e-02  9.961947e-01
   outer loop
     vertex  1.320000e+02  1.800000e+01  6.900000e+00
     vertex  1.320000e+02  1.872932e+01  6.836193e+00
     vertex  1.278000e+02  1.872932e+01  6.836193e+00
   endloop
 endfacet
 facet normal  0.000000e+00  8.715574e-02  9.961947e-01
   outer loop
     vertex  1.320000e+02  1.800000e+01  6.900000e+00
     vertex  1.278000e+02  1.872932e+01  6.836193e+00
     vertex  1.278000e+02  1.800000e+01  6.900000e+00
   endloop
 endfacet
 facet normal  1.000000e+00  0.000000e+00  0.000000e+00
   outer loop
     vertex  1.320000e+02  2.045134e+01  6.430796e-01
     vertex  1.320000e+02  2.069971e+01 -5.173867e-01
     vertex  1.320000e+02  2.121739e+01  2.920393e-04
   endloop
 endfacet
 facet normal  1.000000e+00 -0.000000e+00  0.000000e+00
   outer loop
     vertex  1.320000e+02  2.005692e+01  2.486578e-01
     vertex  1.320000e+02  2.069971e+01 -5.173867e-01
     vertex  1.320000e+02  2.045134e+01  6.430796e-01
   endloop
 endfacet
 facet normal  1.000000e+00  0.000000e+00  0.000000e+00
   outer loop
     vertex  1.320000e+02  2.077128e+01  1.100000e+00
     vertex  1.320000e+02  2.121739e+01  2.920393e-04
     vertex  1.320000e+02  2.163731e+01  6.000000e-01
   endloop
 endfacet
 facet normal  1.000000e+00  0.000000e+00  0.000000e+00
   outer loop
     vertex  1.320000e+02  2.077128e+01  1.100000e+00
     vertex  1.320000e+02  2.045134e+01  6.430796e-01
     vertex  1.320000e+02  2.121739e+01  2.920393e-04
   endloop
 endfacet
 facet normal  1.000000e+00  0.000000e+00  0.000000e+00
   outer loop
     vertex  1.320000e+02  1.960000e+01 -7.128129e-02
     vertex  1.320000e+02  2.010000e+01 -9.373067e-01
     vertex  1.320000e+02  2.069971e+01 -5.173867e-01
   endloop
 endfacet
 facet normal  1.000000e+00 -0.000000e+00  0.000000e+00
   outer loop
     vertex  1.320000e+02  1.960000e+01 -7.128129e-02
     vertex  1.320000e+02  2.069971e+01 -5.173867e-01
     vertex  1.320000e+02  2.005692e+01  2.486578e-01
   endloop
 endfacet
 facet normal  1.000000e+00  0.000000e+00  0.000000e+00
   outer loop
     vertex  1.320000e+02  2.100702e+01  1.605536e+00
     vertex  1.320000e+02  2.163731e+01  6.000000e-01
     vertex  1.320000e+02  2.194671e+01  1.263515e+00
   endloop
 endfacet
 facet normal  1.000000e+00  0.000000e+00  0.000000e+00
   outer loop
     vertex  1.320000e+02  2.100702e+01  1.605536e+00
     vertex  1.320000e+02  2.077128e+01  1.100000e+00
     vertex  1.320000e+02  2.163731e+01  6.000000e-01
   endloop
 endfacet
 facet normal  1.000000e+00  0.000000e+00  0.000000e+00
   outer loop
     vertex  1.320000e+02  1.909446e+01 -3.070164e-01
     vertex  1.320000e+02  1.943648e+01 -1.246709e+00
     vertex  1.320000e+02  2.010000e+01 -9.373067e-01
   endloop
 endfacet
 facet normal  1.000000e+00 -0.000000e+00  0.000000e+00
   outer loop
     vertex  1.320000e+02  1.909446e+01 -3.070164e-01
     vertex  1.320000e+02  2.010000e+01 -9.373067e-01
     vertex  1.320000e+02  1.960000e+01 -7.128129e-02
   endloop
 endfacet
 facet normal  1.000000e+00  0.000000e+00  0.000000e+00
   outer loop
     vertex  1.320000e+02  2.115138e+01  2.144326e+00
     vertex  1.320000e+02  2.194671e+01  1.263515e+00
     vertex  1.320000e+02  2.213619e+01  1.970678e+00
   endloop
 endfacet
 facet normal  1.000000e+00  0.000000e+00  0.000000e+00
   outer loop
     vertex  1.320000e+02  2.115138e+01  2.144326e+00
     vertex  1.320000e+02  2.100702e+01  1.605536e+00
     vertex  1.320000e+02  2.194671e+01  1.263515e+00
   endloop
 endfacet
 facet normal  1.000000e+00 -0.000000e+00  0.000000e+00
   outer loop
     vertex  1.320000e+02  1.855567e+01 -4.513848e-01
     vertex  1.320000e+02  1.943648e+01 -1.246709e+00
     vertex  1.320000e+02  1.909446e+01 -3.070164e-01
   endloop
 endfacet
 facet normal  1.000000e+00  0.000000e+00  0.000000e+00
   outer loop
     vertex  1.320000e+02  1.855567e+01 -4.513848e-01
     vertex  1.320000e+02  1.872932e+01 -1.436193e+00
     vertex  1.320000e+02  1.943648e+01 -1.246709e+00
   endloop
 endfacet
 facet normal  1.000000e+00  0.000000e+00  0.000000e+00
   outer loop
     vertex  1.320000e+02  2.120000e+01  2.700000e+00
     vertex  1.320000e+02  2.213619e+01  1.970678e+00
     vertex  1.320000e+02  2.220000e+01  2.700000e+00
   endloop
 endfacet
 facet normal  1.000000e+00 -0.000000e+00  0.000000e+00
   outer loop
     vertex  1.320000e+02  2.120000e+01  2.700000e+00
     vertex  1.320000e+02  2.220000e+01  2.700000e+00
     vertex  1.320000e+02  2.213619e+01  3.429322e+00
   endloop
 endfacet
 facet normal  1.000000e+00  0.000000e+00  0.000000e+00
   outer loop
     vertex  1.320000e+02  2.120000e+01  2.700000e+00
     vertex  1.320000e+02  2.115138e+01  2.144326e+00
     vertex  1.320000e+02  2.213619e+01  1.970678e+00
   endloop
 endfacet
 facet normal  1.000000e+00 -0.000000e+00  0.000000e+00
   outer loop
     vertex  1.320000e+02  1.800000e+01 -5.000000e-01
     vertex  1.320000e+02  1.872932e+01 -1.436193e+00
     vertex  1.320000e+02  1.855567e+01 -4.513848e-01
   endloop
 endfacet
 facet normal  1.000000e+00  0.000000e+00  0.000000e+00
   outer loop
     vertex  1.320000e+02  1.800000e+01 -5.000000e-01
     vertex  1.320000e+02  1.727068e+01 -1.436193e+00
     vertex  1.320000e+02  1.800000e+01 -1.500000e+00
   endloop
 endfacet
 facet normal  1.000000e+00  0.000000e+00  0.000000e+00
   outer loop
     vertex  1.320000e+02  1.800000e+01 -5.000000e-01
     vertex  1.320000e+02  1.800000e+01 -1.500000e+00
     vertex  1.320000e+02  1.872932e+01 -1.436193e+00
   endloop
 endfacet
 facet normal  1.000000e+00 -0.000000e+00  0.000000e+00
   outer loop
     vertex  1.320000e+02  2.115138e+01  3.255674e+00
     vertex  1.320000e+02  2.120000e+01  2.700000e+00
     vertex  1.320000e+02  2.213619e+01  3.429322e+00
   endloop
 endfacet
 facet normal  1.000000e+00  0.000000e+00  0.000000e+00
   outer loop
     vertex  1.320000e+02  1.744433e+01 -4.513848e-01
     vertex  1.320000e+02  1.727068e+01 -1.436193e+00
     vertex  1.320000e+02  1.800000e+01 -5.000000e-01
   endloop
 endfacet
 facet normal  1.000000e+00  0.000000e+00  0.000000e+00
   outer loop
     vertex  1.320000e+02  2.100702e+01  3.794464e+00
     vertex  1.320000e+02  2.115138e+01  3.255674e+00
     vertex  1.320000e+02  2.213619e+01  3.429322e+00
   endloop
 endfacet
 facet normal  1.000000e+00 -0.000000e+00  0.000000e+00
   outer loop
     vertex  1.320000e+02  2.100702e+01  3.794464e+00
     vertex  1.320000e+02  2.213619e+01  3.429322e+00
     vertex  1.320000e+02  2.194671e+01  4.136485e+00
   endloop
 endfacet
 facet normal  1.000000e+00  0.000000e+00  0.000000e+00
   outer loop
     vertex  1.320000e+02  1.690554e+01 -3.070164e-01
     vertex  1.320000e+02  1.727068e+01 -1.436193e+00
     vertex  1.320000e+02  1.744433e+01 -4.513848e-01
   endloop
 endfacet
 facet normal  1.000000e+00  0.000000e+00  0.000000e+00
   outer loop
     vertex  1.320000e+02  1.690554e+01 -3.070164e-01
     vertex  1.320000e+02  1.656352e+01 -1.246709e+00
     vertex  1.320000e+02  1.727068e+01 -1.436193e+00
   endloop
 endfacet
 facet normal  1.000000e+00  0.000000e+00  0.000000e+00
   outer loop
     vertex  1.320000e+02  2.077128e+01  4.300000e+00
     vertex  1.320000e+02  2.100702e+01  3.794464e+00
     vertex  1.320000e+02  2.194671e+01  4.136485e+00
   endloop
 endfacet
 facet normal  1.000000e+00 -0.000000e+00  0.000000e+00
   outer loop
     vertex  1.320000e+02  2.077128e+01  4.300000e+00
     vertex  1.320000e+02  2.194671e+01  4.136485e+00
     vertex  1.320000e+02  2.163731e+01  4.800000e+00
   endloop
 endfacet
 facet normal  1.000000e+00  0.000000e+00  0.000000e+00
   outer loop
     vertex  1.320000e+02  1.640000e+01 -7.128129e-02
     vertex  1.320000e+02  1.590000e+01 -9.373067e-01
     vertex  1.320000e+02  1.656352e+01 -1.246709e+00
   endloop
 endfacet
 facet normal  1.000000e+00  0.000000e+00  0.000000e+00
   outer loop
     vertex  1.320000e+02  1.640000e+01 -7.128129e-02
     vertex  1.320000e+02  1.656352e+01 -1.246709e+00
     vertex  1.320000e+02  1.690554e+01 -3.070164e-01
   endloop
 endfacet
 facet normal  1.000000e+00  0.000000e+00  0.000000e+00
   outer loop
     vertex  1.320000e+02  2.121739e+01  5.399708e+00
     vertex  1.320000e+02  2.077128e+01  4.300000e+00
     vertex  1.320000e+02  2.163731e+01  4.800000e+00
   endloop
 endfacet
 facet normal  1.000000e+00 -0.000000e+00  0.000000e+00
   outer loop
     vertex  1.320000e+02  1.530029e+01 -5.173867e-01
     vertex  1.320000e+02  1.590000e+01 -9.373067e-01
     vertex  1.320000e+02  1.640000e+01 -7.128129e-02
   endloop
 endfacet
 facet normal  1.000000e+00 -0.000000e+00  0.000000e+00
   outer loop
     vertex  1.320000e+02  2.045134e+01  4.756920e+00
     vertex  1.320000e+02  2.077128e+01  4.300000e+00
     vertex  1.320000e+02  2.121739e+01  5.399708e+00
   endloop
 endfacet
 facet normal  1.000000e+00  0.000000e+00  0.000000e+00
   outer loop
     vertex  1.320000e+02  1.594308e+01  2.486578e-01
     vertex  1.320000e+02  1.530029e+01 -5.173867e-01
     vertex  1.320000e+02  1.640000e+01 -7.128129e-02
   endloop
 endfacet
 facet normal  1.000000e+00  0.000000e+00  0.000000e+00
   outer loop
     vertex  1.320000e+02  2.069971e+01  5.917387e+00
     vertex  1.320000e+02  2.045134e+01  4.756920e+00
     vertex  1.320000e+02  2.121739e+01  5.399708e+00
   endloop
 endfacet
 facet normal  1.000000e+00  0.000000e+00  0.000000e+00
   outer loop
     vertex  1.320000e+02  2.069971e+01  5.917387e+00
     vertex  1.320000e+02  2.005692e+01  5.151342e+00
     vertex  1.320000e+02  2.045134e+01  4.756920e+00
   endloop
 endfacet
 facet normal  1.000000e+00 -0.000000e+00  0.000000e+00
   outer loop
     vertex  1.320000e+02  1.478261e+01  2.920393e-04
     vertex  1.320000e+02  1.530029e+01 -5.173867e-01
     vertex  1.320000e+02  1.594308e+01  2.486578e-01
   endloop
 endfacet
 facet normal  1.000000e+00  0.000000e+00  0.000000e+00
   outer loop
     vertex  1.320000e+02  1.478261e+01  2.920393e-04
     vertex  1.320000e+02  1.594308e+01  2.486578e-01
     vertex  1.320000e+02  1.554866e+01  6.430796e-01
   endloop
 endfacet
 facet normal  1.000000e+00 -0.000000e+00  0.000000e+00
   outer loop
     vertex  1.320000e+02  1.960000e+01  5.471281e+00
     vertex  1.320000e+02  2.005692e+01  5.151342e+00
     vertex  1.320000e+02  2.069971e+01  5.917387e+00
   endloop
 endfacet
 facet normal  1.000000e+00  0.000000e+00  0.000000e+00
   outer loop
     vertex  1.320000e+02  2.010000e+01  6.337307e+00
     vertex  1.320000e+02  1.960000e+01  5.471281e+00
     vertex  1.320000e+02  2.069971e+01  5.917387e+00
   endloop
 endfacet
 facet normal  1.000000e+00  0.000000e+00  0.000000e+00
   outer loop
     vertex  1.320000e+02  1.436269e+01  6.000000e-01
     vertex  1.320000e+02  1.554866e+01  6.430796e-01
     vertex  1.320000e+02  1.522872e+01  1.100000e+00
   endloop
 endfacet
 facet normal  1.000000e+00 -0.000000e+00  0.000000e+00
   outer loop
     vertex  1.320000e+02  1.436269e+01  6.000000e-01
     vertex  1.320000e+02  1.478261e+01  2.920393e-04
     vertex  1.320000e+02  1.554866e+01  6.430796e-01
   endloop
 endfacet
 facet normal  1.000000e+00  0.000000e+00  0.000000e+00
   outer loop
     vertex  1.320000e+02  1.943648e+01  6.646709e+00
     vertex  1.320000e+02  1.960000e+01  5.471281e+00
     vertex  1.320000e+02  2.010000e+01  6.337307e+00
   endloop
 endfacet
 facet normal  1.000000e+00  0.000000e+00  0.000000e+00
   outer loop
     vertex  1.320000e+02  1.943648e+01  6.646709e+00
     vertex  1.320000e+02  1.909446e+01  5.707016e+00
     vertex  1.320000e+02  1.960000e+01  5.471281e+00
   endloop
 endfacet
 facet normal  1.000000e+00 -0.000000e+00  0.000000e+00
   outer loop
     vertex  1.320000e+02  1.405329e+01  1.263515e+00
     vertex  1.320000e+02  1.522872e+01  1.100000e+00
     vertex  1.320000e+02  1.499298e+01  1.605536e+00
   endloop
 endfacet
 facet normal  1.000000e+00  0.000000e+00  0.000000e+00
   outer loop
     vertex  1.320000e+02  1.405329e+01  1.263515e+00
     vertex  1.320000e+02  1.436269e+01  6.000000e-01
     vertex  1.320000e+02  1.522872e+01  1.100000e+00
   endloop
 endfacet
 facet normal  1.000000e+00  0.000000e+00  0.000000e+00
   outer loop
     vertex  1.320000e+02  1.872932e+01  6.836193e+00
     vertex  1.320000e+02  1.909446e+01  5.707016e+00
     vertex  1.320000e+02  1.943648e+01  6.646709e+00
   endloop
 endfacet
 facet normal  1.000000e+00  0.000000e+00  0.000000e+00
   outer loop
     vertex  1.320000e+02  1.872932e+01  6.836193e+00
     vertex  1.320000e+02  1.855567e+01  5.851385e+00
     vertex  1.320000e+02  1.909446e+01  5.707016e+00
   endloop
 endfacet
 facet normal  1.000000e+00  0.000000e+00  0.000000e+00
   outer loop
     vertex  1.320000e+02  1.872932e+01  6.836193e+00
     vertex  1.320000e+02  1.800000e+01  5.900000e+00
     vertex  1.320000e+02  1.855567e+01  5.851385e+00
   endloop
 endfacet
 facet normal  1.000000e+00  0.000000e+00  0.000000e+00
   outer loop
     vertex  1.320000e+02  1.386381e+01  1.970678e+00
     vertex  1.320000e+02  1.484862e+01  2.144326e+00
     vertex  1.320000e+02  1.480000e+01  2.700000e+00
   endloop
 endfacet
 facet normal  1.000000e+00 -0.000000e+00  0.000000e+00
   outer loop
     vertex  1.320000e+02  1.386381e+01  1.970678e+00
     vertex  1.320000e+02  1.499298e+01  1.605536e+00
     vertex  1.320000e+02  1.484862e+01  2.144326e+00
   endloop
 endfacet
 facet normal  1.000000e+00  0.000000e+00  0.000000e+00
   outer loop
     vertex  1.320000e+02  1.386381e+01  1.970678e+00
     vertex  1.320000e+02  1.405329e+01  1.263515e+00
     vertex  1.320000e+02  1.499298e+01  1.605536e+00
   endloop
 endfacet
 facet normal  1.000000e+00  0.000000e+00  0.000000e+00
   outer loop
     vertex  1.320000e+02  1.800000e+01  6.900000e+00
     vertex  1.320000e+02  1.800000e+01  5.900000e+00
     vertex  1.320000e+02  1.872932e+01  6.836193e+00
   endloop
 endfacet
 facet normal  1.000000e+00  0.000000e+00  0.000000e+00
   outer loop
     vertex  1.320000e+02  1.380000e+01  2.700000e+00
     vertex  1.320000e+02  1.386381e+01  1.970678e+00
     vertex  1.320000e+02  1.480000e+01  2.700000e+00
   endloop
 endfacet
 facet normal  1.000000e+00  0.000000e+00  0.000000e+00
   outer loop
     vertex  1.320000e+02  1.727068e+01  6.836193e+00
     vertex  1.320000e+02  1.744433e+01  5.851385e+00
     vertex  1.320000e+02  1.800000e+01  5.900000e+00
   endloop
 endfacet
 facet normal  1.000000e+00  0.000000e+00  0.000000e+00
   outer loop
     vertex  1.320000e+02  1.727068e+01  6.836193e+00
     vertex  1.320000e+02  1.690554e+01  5.707016e+00
     vertex  1.320000e+02  1.744433e+01  5.851385e+00
   endloop
 endfacet
 facet normal  1.000000e+00 -0.000000e+00  0.000000e+00
   outer loop
     vertex  1.320000e+02  1.727068e+01  6.836193e+00
     vertex  1.320000e+02  1.800000e+01  5.900000e+00
     vertex  1.320000e+02  1.800000e+01  6.900000e+00
   endloop
 endfacet
 facet normal  1.000000e+00  0.000000e+00  0.000000e+00
   outer loop
     vertex  1.320000e+02  1.386381e+01  3.429322e+00
     vertex  1.320000e+02  1.480000e+01  2.700000e+00
     vertex  1.320000e+02  1.484862e+01  3.255674e+00
   endloop
 endfacet
 facet normal  1.000000e+00  0.000000e+00  0.000000e+00
   outer loop
     vertex  1.320000e+02  1.386381e+01  3.429322e+00
     vertex  1.320000e+02  1.380000e+01  2.700000e+00
     vertex  1.320000e+02  1.480000e+01  2.700000e+00
   endloop
 endfacet
 facet normal  1.000000e+00 -0.000000e+00  0.000000e+00
   outer loop
     vertex  1.320000e+02  1.656352e+01  6.646709e+00
     vertex  1.320000e+02  1.690554e+01  5.707016e+00
     vertex  1.320000e+02  1.727068e+01  6.836193e+00
   endloop
 endfacet
 facet normal  1.000000e+00  0.000000e+00  0.000000e+00
   outer loop
     vertex  1.320000e+02  1.405329e+01  4.136485e+00
     vertex  1.320000e+02  1.386381e+01  3.429322e+00
     vertex  1.320000e+02  1.484862e+01  3.255674e+00
   endloop
 endfacet
 facet normal  1.000000e+00  0.000000e+00  0.000000e+00
   outer loop
     vertex  1.320000e+02  1.405329e+01  4.136485e+00
     vertex  1.320000e+02  1.484862e+01  3.255674e+00
     vertex  1.320000e+02  1.499298e+01  3.794464e+00
   endloop
 endfacet
 facet normal  1.000000e+00  0.000000e+00  0.000000e+00
   outer loop
     vertex  1.320000e+02  1.436269e+01  4.800000e+00
     vertex  1.320000e+02  1.405329e+01  4.136485e+00
     vertex  1.320000e+02  1.499298e+01  3.794464e+00
   endloop
 endfacet
 facet normal  1.000000e+00  0.000000e+00  0.000000e+00
   outer loop
     vertex  1.320000e+02  1.436269e+01  4.800000e+00
     vertex  1.320000e+02  1.499298e+01  3.794464e+00
     vertex  1.320000e+02  1.522872e+01  4.300000e+00
   endloop
 endfacet
 facet normal  1.000000e+00 -0.000000e+00  0.000000e+00
   outer loop
     vertex  1.320000e+02  1.590000e+01  6.337307e+00
     vertex  1.320000e+02  1.690554e+01  5.707016e+00
     vertex  1.320000e+02  1.656352e+01  6.646709e+00
   endloop
 endfacet
 facet normal  1.000000e+00  0.000000e+00  0.000000e+00
   outer loop
     vertex  1.320000e+02  1.590000e+01  6.337307e+00
     vertex  1.320000e+02  1.640000e+01  5.471281e+00
     vertex  1.320000e+02  1.690554e+01  5.707016e+00
   endloop
 endfacet
 facet normal  1.000000e+00 -0.000000e+00  0.000000e+00
   outer loop
     vertex  1.320000e+02  1.530029e+01  5.917387e+00
     vertex  1.320000e+02  1.640000e+01  5.471281e+00
     vertex  1.320000e+02  1.590000e+01  6.337307e+00
   endloop
 endfacet
 facet normal  1.000000e+00  0.000000e+00  0.000000e+00
   outer loop
     vertex  1.320000e+02  1.530029e+01  5.917387e+00
     vertex  1.320000e+02  1.594308e+01  5.151342e+00
     vertex  1.320000e+02  1.640000e+01  5.471281e+00
   endloop
 endfacet
 facet normal  1.000000e+00  0.000000e+00  0.000000e+00
   outer loop
     vertex  1.320000e+02  1.478261e+01  5.399708e+00
     vertex  1.320000e+02  1.436269e+01  4.800000e+00
     vertex  1.320000e+02  1.522872e+01  4.300000e+00
   endloop
 endfacet
 facet normal  1.000000e+00 -0.000000e+00  0.000000e+00
   outer loop
     vertex  1.320000e+02  1.478261e+01  5.399708e+00
     vertex  1.320000e+02  1.594308e+01  5.151342e+00
     vertex  1.320000e+02  1.530029e+01  5.917387e+00
   endloop
 endfacet
 facet normal  1.000000e+00  0.000000e+00  0.000000e+00
   outer loop
     vertex  1.320000e+02  1.478261e+01  5.399708e+00
     vertex  1.320000e+02  1.554866e+01  4.756920e+00
     vertex  1.320000e+02  1.594308e+01  5.151342e+00
   endloop
 endfacet
 facet normal  1.000000e+00  0.000000e+00  0.000000e+00
   outer loop
     vertex  1.320000e+02  1.478261e+01  5.399708e+00
     vertex  1.320000e+02  1.522872e+01  4.300000e+00
     vertex  1.320000e+02  1.554866e+01  4.756920e+00
   endloop
 endfacet
 facet normal -1.000000e+00  0.000000e+00  0.000000e+00
   outer loop
     vertex  1.278000e+02  2.045134e+01  6.430796e-01
     vertex  1.278000e+02  2.121739e+01  2.920393e-04
     vertex  1.278000e+02  2.069971e+01 -5.173867e-01
   endloop
 endfacet
 facet normal -1.000000e+00  0.000000e+00  0.000000e+00
   outer loop
     vertex  1.278000e+02  2.005692e+01  2.486578e-01
     vertex  1.278000e+02  2.045134e+01  6.430796e-01
     vertex  1.278000e+02  2.069971e+01 -5.173867e-01
   endloop
 endfacet
 facet normal -1.000000e+00  0.000000e+00  0.000000e+00
   outer loop
     vertex  1.278000e+02  2.077128e+01  1.100000e+00
     vertex  1.278000e+02  2.163731e+01  6.000000e-01
     vertex  1.278000e+02  2.121739e+01  2.920393e-04
   endloop
 endfacet
 facet normal -1.000000e+00  0.000000e+00 -0.000000e+00
   outer loop
     vertex  1.278000e+02  2.077128e+01  1.100000e+00
     vertex  1.278000e+02  2.121739e+01  2.920393e-04
     vertex  1.278000e+02  2.045134e+01  6.430796e-01
   endloop
 endfacet
 facet normal -1.000000e+00  0.000000e+00  0.000000e+00
   outer loop
     vertex  1.278000e+02  1.960000e+01 -7.128129e-02
     vertex  1.278000e+02  2.069971e+01 -5.173867e-01
     vertex  1.278000e+02  2.010000e+01 -9.373067e-01
   endloop
 endfacet
 facet normal -1.000000e+00  0.000000e+00  0.000000e+00
   outer loop
     vertex  1.278000e+02  1.960000e+01 -7.128129e-02
     vertex  1.278000e+02  2.005692e+01  2.486578e-01
     vertex  1.278000e+02  2.069971e+01 -5.173867e-01
   endloop
 endfacet
 facet normal -1.000000e+00  0.000000e+00  0.000000e+00
   outer loop
     vertex  1.278000e+02  2.100702e+01  1.605536e+00
     vertex  1.278000e+02  2.194671e+01  1.263515e+00
     vertex  1.278000e+02  2.163731e+01  6.000000e-01
   endloop
 endfacet
 facet normal -1.000000e+00  0.000000e+00 -0.000000e+00
   outer loop
     vertex  1.278000e+02  2.100702e+01  1.605536e+00
     vertex  1.278000e+02  2.163731e+01  6.000000e-01
     vertex  1.278000e+02  2.077128e+01  1.100000e+00
   endloop
 endfacet
 facet normal -1.000000e+00  0.000000e+00  0.000000e+00
   outer loop
     vertex  1.278000e+02  1.909446e+01 -3.070164e-01
     vertex  1.278000e+02  2.010000e+01 -9.373067e-01
     vertex  1.278000e+02  1.943648e+01 -1.246709e+00
   endloop
 endfacet
 facet normal -1.000000e+00  0.000000e+00  0.000000e+00
   outer loop
     vertex  1.278000e+02  1.909446e+01 -3.070164e-01
     vertex  1.278000e+02  1.960000e+01 -7.128129e-02
     vertex  1.278000e+02  2.010000e+01 -9.373067e-01
   endloop
 endfacet
 facet normal -1.000000e+00  0.000000e+00  0.000000e+00
   outer loop
     vertex  1.278000e+02  2.115138e+01  2.144326e+00
     vertex  1.278000e+02  2.213619e+01  1.970678e+00
     vertex  1.278000e+02  2.194671e+01  1.263515e+00
   endloop
 endfacet
 facet normal -1.000000e+00  0.000000e+00 -0.000000e+00
   outer loop
     vertex  1.278000e+02  2.115138e+01  2.144326e+00
     vertex  1.278000e+02  2.194671e+01  1.263515e+00
     vertex  1.278000e+02  2.100702e+01  1.605536e+00
   endloop
 endfacet
 facet normal -1.000000e+00  0.000000e+00  0.000000e+00
   outer loop
     vertex  1.278000e+02  1.855567e+01 -4.513848e-01
     vertex  1.278000e+02  1.909446e+01 -3.070164e-01
     vertex  1.278000e+02  1.943648e+01 -1.246709e+00
   endloop
 endfacet
 facet normal -1.000000e+00  0.000000e+00  0.000000e+00
   outer loop
     vertex  1.278000e+02  1.855567e+01 -4.513848e-01
     vertex  1.278000e+02  1.943648e+01 -1.246709e+00
     vertex  1.278000e+02  1.872932e+01 -1.436193e+00
   endloop
 endfacet
 facet normal -1.000000e+00  0.000000e+00  0.000000e+00
   outer loop
     vertex  1.278000e+02  2.120000e+01  2.700000e+00
     vertex  1.278000e+02  2.220000e+01  2.700000e+00
     vertex  1.278000e+02  2.213619e+01  1.970678e+00
   endloop
 endfacet
 facet normal -1.000000e+00  0.000000e+00  0.000000e+00
   outer loop
     vertex  1.278000e+02  2.120000e+01  2.700000e+00
     vertex  1.278000e+02  2.213619e+01  3.429322e+00
     vertex  1.278000e+02  2.220000e+01  2.700000e+00
   endloop
 endfacet
 facet normal -1.000000e+00  0.000000e+00 -0.000000e+00
   outer loop
     vertex  1.278000e+02  2.120000e+01  2.700000e+00
     vertex  1.278000e+02  2.213619e+01  1.970678e+00
     vertex  1.278000e+02  2.115138e+01  2.144326e+00
   endloop
 endfacet
 facet normal -1.000000e+00  0.000000e+00  0.000000e+00
   outer loop
     vertex  1.278000e+02  1.800000e+01 -5.000000e-01
     vertex  1.278000e+02  1.855567e+01 -4.513848e-01
     vertex  1.278000e+02  1.872932e+01 -1.436193e+00
   endloop
 endfacet
 facet normal -1.000000e+00  0.000000e+00  0.000000e+00
   outer loop
     vertex  1.278000e+02  1.800000e+01 -5.000000e-01
     vertex  1.278000e+02  1.800000e+01 -1.500000e+00
     vertex  1.278000e+02  1.727068e+01 -1.436193e+00
   endloop
 endfacet
 facet normal -1.000000e+00  0.000000e+00 -0.000000e+00
   outer loop
     vertex  1.278000e+02  1.800000e+01 -5.000000e-01
     vertex  1.278000e+02  1.872932e+01 -1.436193e+00
     vertex  1.278000e+02  1.800000e+01 -1.500000e+00
   endloop
 endfacet
 facet normal -1.000000e+00  0.000000e+00  0.000000e+00
   outer loop
     vertex  1.278000e+02  2.115138e+01  3.255674e+00
     vertex  1.278000e+02  2.213619e+01  3.429322e+00
     vertex  1.278000e+02  2.120000e+01  2.700000e+00
   endloop
 endfacet
 facet normal -1.000000e+00  0.000000e+00 -0.000000e+00
   outer loop
     vertex  1.278000e+02  1.744433e+01 -4.513848e-01
     vertex  1.278000e+02  1.800000e+01 -5.000000e-01
     vertex  1.278000e+02  1.727068e+01 -1.436193e+00
   endloop
 endfacet
 facet normal -1.000000e+00  0.000000e+00  0.000000e+00
   outer loop
     vertex  1.278000e+02  2.100702e+01  3.794464e+00
     vertex  1.278000e+02  2.213619e+01  3.429322e+00
     vertex  1.278000e+02  2.115138e+01  3.255674e+00
   endloop
 endfacet
 facet normal -1.000000e+00  0.000000e+00  0.000000e+00
   outer loop
     vertex  1.278000e+02  2.100702e+01  3.794464e+00
     vertex  1.278000e+02  2.194671e+01  4.136485e+00
     vertex  1.278000e+02  2.213619e+01  3.429322e+00
   endloop
 endfacet
 facet normal -1.000000e+00  0.000000e+00  0.000000e+00
   outer loop
     vertex  1.278000e+02  1.690554e+01 -3.070164e-01
     vertex  1.278000e+02  1.744433e+01 -4.513848e-01
     vertex  1.278000e+02  1.727068e+01 -1.436193e+00
   endloop
 endfacet
 facet normal -1.000000e+00  0.000000e+00 -0.000000e+00
   outer loop
     vertex  1.278000e+02  1.690554e+01 -3.070164e-01
     vertex  1.278000e+02  1.727068e+01 -1.436193e+00
     vertex  1.278000e+02  1.656352e+01 -1.246709e+00
   endloop
 endfacet
 facet normal -1.000000e+00  0.000000e+00  0.000000e+00
   outer loop
     vertex  1.278000e+02  2.077128e+01  4.300000e+00
     vertex  1.278000e+02  2.194671e+01  4.136485e+00
     vertex  1.278000e+02  2.100702e+01  3.794464e+00
   endloop
 endfacet
 facet normal -1.000000e+00  0.000000e+00  0.000000e+00
   outer loop
     vertex  1.278000e+02  2.077128e+01  4.300000e+00
     vertex  1.278000e+02  2.163731e+01  4.800000e+00
     vertex  1.278000e+02  2.194671e+01  4.136485e+00
   endloop
 endfacet
 facet normal -1.000000e+00  0.000000e+00 -0.000000e+00
   outer loop
     vertex  1.278000e+02  1.640000e+01 -7.128129e-02
     vertex  1.278000e+02  1.656352e+01 -1.246709e+00
     vertex  1.278000e+02  1.590000e+01 -9.373067e-01
   endloop
 endfacet
 facet normal -1.000000e+00  0.000000e+00  0.000000e+00
   outer loop
     vertex  1.278000e+02  1.640000e+01 -7.128129e-02
     vertex  1.278000e+02  1.690554e+01 -3.070164e-01
     vertex  1.278000e+02  1.656352e+01 -1.246709e+00
   endloop
 endfacet
 facet normal -1.000000e+00  0.000000e+00 -0.000000e+00
   outer loop
     vertex  1.278000e+02  2.121739e+01  5.399708e+00
     vertex  1.278000e+02  2.163731e+01  4.800000e+00
     vertex  1.278000e+02  2.077128e+01  4.300000e+00
   endloop
 endfacet
 facet normal -1.000000e+00  0.000000e+00  0.000000e+00
   outer loop
     vertex  1.278000e+02  1.530029e+01 -5.173867e-01
     vertex  1.278000e+02  1.640000e+01 -7.128129e-02
     vertex  1.278000e+02  1.590000e+01 -9.373067e-01
   endloop
 endfacet
 facet normal -1.000000e+00  0.000000e+00  0.000000e+00
   outer loop
     vertex  1.278000e+02  2.045134e+01  4.756920e+00
     vertex  1.278000e+02  2.121739e+01  5.399708e+00
     vertex  1.278000e+02  2.077128e+01  4.300000e+00
   endloop
 endfacet
 facet normal -1.000000e+00  0.000000e+00 -0.000000e+00
   outer loop
     vertex  1.278000e+02  1.594308e+01  2.486578e-01
     vertex  1.278000e+02  1.640000e+01 -7.128129e-02
     vertex  1.278000e+02  1.530029e+01 -5.173867e-01
   endloop
 endfacet
 facet normal -1.000000e+00  0.000000e+00 -0.000000e+00
   outer loop
     vertex  1.278000e+02  2.069971e+01  5.917387e+00
     vertex  1.278000e+02  2.121739e+01  5.399708e+00
     vertex  1.278000e+02  2.045134e+01  4.756920e+00
   endloop
 endfacet
 facet normal -1.000000e+00  0.000000e+00  0.000000e+00
   outer loop
     vertex  1.278000e+02  2.069971e+01  5.917387e+00
     vertex  1.278000e+02  2.045134e+01  4.756920e+00
     vertex  1.278000e+02  2.005692e+01  5.151342e+00
   endloop
 endfacet
 facet normal -1.000000e+00  0.000000e+00  0.000000e+00
   outer loop
     vertex  1.278000e+02  1.478261e+01  2.920393e-04
     vertex  1.278000e+02  1.594308e+01  2.486578e-01
     vertex  1.278000e+02  1.530029e+01 -5.173867e-01
   endloop
 endfacet
 facet normal -1.000000e+00  0.000000e+00  0.000000e+00
   outer loop
     vertex  1.278000e+02  1.478261e+01  2.920393e-04
     vertex  1.278000e+02  1.554866e+01  6.430796e-01
     vertex  1.278000e+02  1.594308e+01  2.486578e-01
   endloop
 endfacet
 facet normal -1.000000e+00  0.000000e+00  0.000000e+00
   outer loop
     vertex  1.278000e+02  1.960000e+01  5.471281e+00
     vertex  1.278000e+02  2.069971e+01  5.917387e+00
     vertex  1.278000e+02  2.005692e+01  5.151342e+00
   endloop
 endfacet
 facet normal -1.000000e+00  0.000000e+00 -0.000000e+00
   outer loop
     vertex  1.278000e+02  2.010000e+01  6.337307e+00
     vertex  1.278000e+02  2.069971e+01  5.917387e+00
     vertex  1.278000e+02  1.960000e+01  5.471281e+00
   endloop
 endfacet
 facet normal -1.000000e+00  0.000000e+00  0.000000e+00
   outer loop
     vertex  1.278000e+02  1.436269e+01  6.000000e-01
     vertex  1.278000e+02  1.522872e+01  1.100000e+00
     vertex  1.278000e+02  1.554866e+01  6.430796e-01
   endloop
 endfacet
 facet normal -1.000000e+00  0.000000e+00  0.000000e+00
   outer loop
     vertex  1.278000e+02  1.436269e+01  6.000000e-01
     vertex  1.278000e+02  1.554866e+01  6.430796e-01
     vertex  1.278000e+02  1.478261e+01  2.920393e-04
   endloop
 endfacet
 facet normal -1.000000e+00  0.000000e+00  0.000000e+00
   outer loop
     vertex  1.278000e+02  1.943648e+01  6.646709e+00
     vertex  1.278000e+02  2.010000e+01  6.337307e+00
     vertex  1.278000e+02  1.960000e+01  5.471281e+00
   endloop
 endfacet
 facet normal -1.000000e+00  0.000000e+00 -0.000000e+00
   outer loop
     vertex  1.278000e+02  1.943648e+01  6.646709e+00
     vertex  1.278000e+02  1.960000e+01  5.471281e+00
     vertex  1.278000e+02  1.909446e+01  5.707016e+00
   endloop
 endfacet
 facet normal -1.000000e+00  0.000000e+00  0.000000e+00
   outer loop
     vertex  1.278000e+02  1.405329e+01  1.263515e+00
     vertex  1.278000e+02  1.499298e+01  1.605536e+00
     vertex  1.278000e+02  1.522872e+01  1.100000e+00
   endloop
 endfacet
 facet normal -1.000000e+00  0.000000e+00  0.000000e+00
   outer loop
     vertex  1.278000e+02  1.405329e+01  1.263515e+00
     vertex  1.278000e+02  1.522872e+01  1.100000e+00
     vertex  1.278000e+02  1.436269e+01  6.000000e-01
   endloop
 endfacet
 facet normal -1.000000e+00  0.000000e+00  0.000000e+00
   outer loop
     vertex  1.278000e+02  1.872932e+01  6.836193e+00
     vertex  1.278000e+02  1.943648e+01  6.646709e+00
     vertex  1.278000e+02  1.909446e+01  5.707016e+00
   endloop
 endfacet
 facet normal -1.000000e+00  0.000000e+00 -0.000000e+00
   outer loop
     vertex  1.278000e+02  1.872932e+01  6.836193e+00
     vertex  1.278000e+02  1.909446e+01  5.707016e+00
     vertex  1.278000e+02  1.855567e+01  5.851385e+00
   endloop
 endfacet
 facet normal -1.000000e+00  0.000000e+00  0.000000e+00
   outer loop
     vertex  1.278000e+02  1.872932e+01  6.836193e+00
     vertex  1.278000e+02  1.855567e+01  5.851385e+00
     vertex  1.278000e+02  1.800000e+01  5.900000e+00
   endloop
 endfacet
 facet normal -1.000000e+00  0.000000e+00  0.000000e+00
   outer loop
     vertex  1.278000e+02  1.386381e+01  1.970678e+00
     vertex  1.278000e+02  1.480000e+01  2.700000e+00
     vertex  1.278000e+02  1.484862e+01  2.144326e+00
   endloop
 endfacet
 facet normal -1.000000e+00  0.000000e+00  0.000000e+00
   outer loop
     vertex  1.278000e+02  1.386381e+01  1.970678e+00
     vertex  1.278000e+02  1.484862e+01  2.144326e+00
     vertex  1.278000e+02  1.499298e+01  1.605536e+00
   endloop
 endfacet
 facet normal -1.000000e+00  0.000000e+00  0.000000e+00
   outer loop
     vertex  1.278000e+02  1.386381e+01  1.970678e+00
     vertex  1.278000e+02  1.499298e+01  1.605536e+00
     vertex  1.278000e+02  1.405329e+01  1.263515e+00
   endloop
 endfacet
 facet normal -1.000000e+00  0.000000e+00  0.000000e+00
   outer loop
     vertex  1.278000e+02  1.800000e+01  6.900000e+00
     vertex  1.278000e+02  1.872932e+01  6.836193e+00
     vertex  1.278000e+02  1.800000e+01  5.900000e+00
   endloop
 endfacet
 facet normal -1.000000e+00  0.000000e+00  0.000000e+00
   outer loop
     vertex  1.278000e+02  1.380000e+01  2.700000e+00
     vertex  1.278000e+02  1.480000e+01  2.700000e+00
     vertex  1.278000e+02  1.386381e+01  1.970678e+00
   endloop
 endfacet
 facet normal -1.000000e+00  0.000000e+00  0.000000e+00
   outer loop
     vertex  1.278000e+02  1.727068e+01  6.836193e+00
     vertex  1.278000e+02  1.800000e+01  5.900000e+00
     vertex  1.278000e+02  1.744433e+01  5.851385e+00
   endloop
 endfacet
 facet normal -1.000000e+00  0.000000e+00 -0.000000e+00
   outer loop
     vertex  1.278000e+02  1.727068e+01  6.836193e+00
     vertex  1.278000e+02  1.744433e+01  5.851385e+00
     vertex  1.278000e+02  1.690554e+01  5.707016e+00
   endloop
 endfacet
 facet normal -1.000000e+00  0.000000e+00  0.000000e+00
   outer loop
     vertex  1.278000e+02  1.727068e+01  6.836193e+00
     vertex  1.278000e+02  1.800000e+01  6.900000e+00
     vertex  1.278000e+02  1.800000e+01  5.900000e+00
   endloop
 endfacet
 facet normal -1.000000e+00  0.000000e+00  0.000000e+00
   outer loop
     vertex  1.278000e+02  1.386381e+01  3.429322e+00
     vertex  1.278000e+02  1.484862e+01  3.255674e+00
     vertex  1.278000e+02  1.480000e+01  2.700000e+00
   endloop
 endfacet
 facet normal -1.000000e+00  0.000000e+00 -0.000000e+00
   outer loop
     vertex  1.278000e+02  1.386381e+01  3.429322e+00
     vertex  1.278000e+02  1.480000e+01  2.700000e+00
     vertex  1.278000e+02  1.380000e+01  2.700000e+00
   endloop
 endfacet
 facet normal -1.000000e+00  0.000000e+00  0.000000e+00
   outer loop
     vertex  1.278000e+02  1.656352e+01  6.646709e+00
     vertex  1.278000e+02  1.727068e+01  6.836193e+00
     vertex  1.278000e+02  1.690554e+01  5.707016e+00
   endloop
 endfacet
 facet normal -1.000000e+00  0.000000e+00 -0.000000e+00
   outer loop
     vertex  1.278000e+02  1.405329e+01  4.136485e+00
     vertex  1.278000e+02  1.484862e+01  3.255674e+00
     vertex  1.278000e+02  1.386381e+01  3.429322e+00
   endloop
 endfacet
 facet normal -1.000000e+00  0.000000e+00  0.000000e+00
   outer loop
     vertex  1.278000e+02  1.405329e+01  4.136485e+00
     vertex  1.278000e+02  1.499298e+01  3.794464e+00
     vertex  1.278000e+02  1.484862e+01  3.255674e+00
   endloop
 endfacet
 facet normal -1.000000e+00  0.000000e+00 -0.000000e+00
   outer loop
     vertex  1.278000e+02  1.436269e+01  4.800000e+00
     vertex  1.278000e+02  1.499298e+01  3.794464e+00
     vertex  1.278000e+02  1.405329e+01  4.136485e+00
   endloop
 endfacet
 facet normal -1.000000e+00  0.000000e+00  0.000000e+00
   outer loop
     vertex  1.278000e+02  1.436269e+01  4.800000e+00
     vertex  1.278000e+02  1.522872e+01  4.300000e+00
     vertex  1.278000e+02  1.499298e+01  3.794464e+00
   endloop
 endfacet
 facet normal -1.000000e+00  0.000000e+00  0.000000e+00
   outer loop
     vertex  1.278000e+02  1.590000e+01  6.337307e+00
     vertex  1.278000e+02  1.656352e+01  6.646709e+00
     vertex  1.278000e+02  1.690554e+01  5.707016e+00
   endloop
 endfacet
 facet normal -1.000000e+00  0.000000e+00  0.000000e+00
   outer loop
     vertex  1.278000e+02  1.590000e+01  6.337307e+00
     vertex  1.278000e+02  1.690554e+01  5.707016e+00
     vertex  1.278000e+02  1.640000e+01  5.471281e+00
   endloop
 endfacet
 facet normal -1.000000e+00  0.000000e+00  0.000000e+00
   outer loop
     vertex  1.278000e+02  1.530029e+01  5.917387e+00
     vertex  1.278000e+02  1.590000e+01  6.337307e+00
     vertex  1.278000e+02  1.640000e+01  5.471281e+00
   endloop
 endfacet
 facet normal -1.000000e+00  0.000000e+00  0.000000e+00
   outer loop
     vertex  1.278000e+02  1.530029e+01  5.917387e+00
     vertex  1.278000e+02  1.640000e+01  5.471281e+00
     vertex  1.278000e+02  1.594308e+01  5.151342e+00
   endloop
 endfacet
 facet normal -1.000000e+00  0.000000e+00 -0.000000e+00
   outer loop
     vertex  1.278000e+02  1.478261e+01  5.399708e+00
     vertex  1.278000e+02  1.522872e+01  4.300000e+00
     vertex  1.278000e+02  1.436269e+01  4.800000e+00
   endloop
 endfacet
 facet normal -1.000000e+00  0.000000e+00  0.000000e+00
   outer loop
     vertex  1.278000e+02  1.478261e+01  5.399708e+00
     vertex  1.278000e+02  1.530029e+01  5.917387e+00
     vertex  1.278000e+02  1.594308e+01  5.151342e+00
   endloop
 endfacet
 facet normal -1.000000e+00  0.000000e+00  0.000000e+00
   outer loop
     vertex  1.278000e+02  1.478261e+01  5.399708e+00
     vertex  1.278000e+02  1.594308e+01  5.151342e+00
     vertex  1.278000e+02  1.554866e+01  4.756920e+00
   endloop
 endfacet
 facet normal -1.000000e+00  0.000000e+00  0.000000e+00
   outer loop
     vertex  1.278000e+02  1.478261e+01  5.399708e+00
     vertex  1.278000e+02  1.554866e+01  4.756920e+00
     vertex  1.278000e+02  1.522872e+01  4.300000e+00
   endloop
 endfacet
 facet normal -8.186842e-20  8.715574e-02 -9.961947e-01
   outer loop
     vertex  1.320000e+02  1.744433e+01  5.851385e+00
     vertex  1.278000e+02  1.800000e+01  5.900000e+00
     vertex  1.320000e+02  1.800000e+01  5.900000e+00
   endloop
 endfacet
 facet normal  0.000000e+00  8.715574e-02 -9.961947e-01
   outer loop
     vertex  1.320000e+02  1.744433e+01  5.851385e+00
     vertex  1.278000e+02  1.744433e+01  5.851385e+00
     vertex  1.278000e+02  1.800000e+01  5.900000e+00
   endloop
 endfacet
 facet normal  0.000000e+00  2.588190e-01 -9.659258e-01
   outer loop
     vertex  1.320000e+02  1.690554e+01  5.707016e+00
     vertex  1.278000e+02  1.690554e+01  5.707016e+00
     vertex  1.278000e+02  1.744433e+01  5.851385e+00
   endloop
 endfacet
 facet normal  9.490015e-19  2.588190e-01 -9.659258e-01
   outer loop
     vertex  1.320000e+02  1.690554e+01  5.707016e+00
     vertex  1.278000e+02  1.744433e+01  5.851385e+00
     vertex  1.320000e+02  1.744433e+01  5.851385e+00
   endloop
 endfacet
 facet normal  0.000000e+00  4.226183e-01 -9.063078e-01
   outer loop
     vertex  1.320000e+02  1.640000e+01  5.471281e+00
     vertex  1.278000e+02  1.640000e+01  5.471281e+00
     vertex  1.278000e+02  1.690554e+01  5.707016e+00
   endloop
 endfacet
 facet normal  0.000000e+00  5.735764e-01 -8.191520e-01
   outer loop
     vertex  1.320000e+02  1.640000e+01  5.471281e+00
     vertex  1.278000e+02  1.594308e+01  5.151342e+00
     vertex  1.278000e+02  1.640000e+01  5.471281e+00
   endloop
 endfacet
 facet normal -2.798315e-18  4.226183e-01 -9.063078e-01
   outer loop
     vertex  1.320000e+02  1.640000e+01  5.471281e+00
     vertex  1.278000e+02  1.690554e+01  5.707016e+00
     vertex  1.320000e+02  1.690554e+01  5.707016e+00
   endloop
 endfacet
 facet normal  0.000000e+00  5.735764e-01 -8.191520e-01
   outer loop
     vertex  1.320000e+02  1.594308e+01  5.151342e+00
     vertex  1.278000e+02  1.594308e+01  5.151342e+00
     vertex  1.320000e+02  1.640000e+01  5.471281e+00
   endloop
 endfacet
 facet normal  0.000000e+00  7.071068e-01 -7.071068e-01
   outer loop
     vertex  1.320000e+02  1.554866e+01  4.756920e+00
     vertex  1.278000e+02  1.554866e+01  4.756920e+00
     vertex  1.278000e+02  1.594308e+01  5.151342e+00
   endloop
 endfacet
 facet normal -5.088517e-18  7.071068e-01 -7.071068e-01
   outer loop
     vertex  1.320000e+02  1.554866e+01  4.756920e+00
     vertex  1.278000e+02  1.594308e+01  5.151342e+00
     vertex  1.320000e+02  1.594308e+01  5.151342e+00
   endloop
 endfacet
 facet normal  0.000000e+00  8.191520e-01 -5.735764e-01
   outer loop
     vertex  1.320000e+02  1.522872e+01  4.300000e+00
     vertex  1.278000e+02  1.522872e+01  4.300000e+00
     vertex  1.278000e+02  1.554866e+01  4.756920e+00
   endloop
 endfacet
 facet normal  0.000000e+00  9.063078e-01 -4.226183e-01
   outer loop
     vertex  1.320000e+02  1.522872e+01  4.300000e+00
     vertex  1.278000e+02  1.499298e+01  3.794464e+00
     vertex  1.278000e+02  1.522872e+01  4.300000e+00
   endloop
 endfacet
 facet normal  2.096173e-18  8.191520e-01 -5.735764e-01
   outer loop
     vertex  1.320000e+02  1.522872e+01  4.300000e+00
     vertex  1.278000e+02  1.554866e+01  4.756920e+00
     vertex  1.320000e+02  1.554866e+01  4.756920e+00
   endloop
 endfacet
 facet normal  0.000000e+00  9.063078e-01 -4.226183e-01
   outer loop
     vertex  1.320000e+02  1.499298e+01  3.794464e+00
     vertex  1.278000e+02  1.499298e+01  3.794464e+00
     vertex  1.320000e+02  1.522872e+01  4.300000e+00
   endloop
 endfacet
 facet normal -2.949123e-18  9.659258e-01 -2.588190e-01
   outer loop
     vertex  1.320000e+02  1.484862e+01  3.255674e+00
     vertex  1.278000e+02  1.499298e+01  3.794464e+00
     vertex  1.320000e+02  1.499298e+01  3.794464e+00
   endloop
 endfacet
 facet normal  0.000000e+00  9.659258e-01 -2.588190e-01
   outer loop
     vertex  1.320000e+02  1.484862e+01  3.255674e+00
     vertex  1.278000e+02  1.484862e+01  3.255674e+00
     vertex  1.278000e+02  1.499298e+01  3.794464e+00
   endloop
 endfacet
 facet normal  0.000000e+00  9.961947e-01 -8.715574e-02
   outer loop
     vertex  1.320000e+02  1.484862e+01  3.255674e+00
     vertex  1.278000e+02  1.480000e+01  2.700000e+00
     vertex  1.278000e+02  1.484862e+01  3.255674e+00
   endloop
 endfacet
 facet normal  0.000000e+00  9.961947e-01 -8.715574e-02
   outer loop
     vertex  1.320000e+02  1.480000e+01  2.700000e+00
     vertex  1.278000e+02  1.480000e+01  2.700000e+00
     vertex  1.320000e+02  1.484862e+01  3.255674e+00
   endloop
 endfacet
 facet normal  0.000000e+00  9.961947e-01  8.715574e-02
   outer loop
     vertex  1.320000e+02  1.480000e+01  2.700000e+00
     vertex  1.278000e+02  1.484862e+01  2.144326e+00
     vertex  1.278000e+02  1.480000e+01  2.700000e+00
   endloop
 endfacet
 facet normal  0.000000e+00  9.961947e-01  8.715574e-02
   outer loop
     vertex  1.320000e+02  1.484862e+01  2.144326e+00
     vertex  1.278000e+02  1.484862e+01  2.144326e+00
     vertex  1.320000e+02  1.480000e+01  2.700000e+00
   endloop
 endfacet
 facet normal  2.742723e-18  9.659258e-01  2.588190e-01
   outer loop
     vertex  1.320000e+02  1.499298e+01  1.605536e+00
     vertex  1.278000e+02  1.484862e+01  2.144326e+00
     vertex  1.320000e+02  1.484862e+01  2.144326e+00
   endloop
 endfacet
 facet normal  0.000000e+00  9.659258e-01  2.588190e-01
   outer loop
     vertex  1.320000e+02  1.499298e+01  1.605536e+00
     vertex  1.278000e+02  1.499298e+01  1.605536e+00
     vertex  1.278000e+02  1.484862e+01  2.144326e+00
   endloop
 endfacet
 facet normal -1.719686e-18  9.063078e-01  4.226183e-01
   outer loop
     vertex  1.320000e+02  1.522872e+01  1.100000e+00
     vertex  1.278000e+02  1.499298e+01  1.605536e+00
     vertex  1.320000e+02  1.499298e+01  1.605536e+00
   endloop
 endfacet
 facet normal  0.000000e+00  9.063078e-01  4.226183e-01
   outer loop
     vertex  1.320000e+02  1.522872e+01  1.100000e+00
     vertex  1.278000e+02  1.522872e+01  1.100000e+00
     vertex  1.278000e+02  1.499298e+01  1.605536e+00
   endloop
 endfacet
 facet normal  0.000000e+00  8.191520e-01  5.735764e-01
   outer loop
     vertex  1.320000e+02  1.522872e+01  1.100000e+00
     vertex  1.278000e+02  1.554866e+01  6.430796e-01
     vertex  1.278000e+02  1.522872e+01  1.100000e+00
   endloop
 endfacet
 facet normal  0.000000e+00  8.191520e-01  5.735764e-01
   outer loop
     vertex  1.320000e+02  1.554866e+01  6.430796e-01
     vertex  1.278000e+02  1.554866e+01  6.430796e-01
     vertex  1.320000e+02  1.522872e+01  1.100000e+00
   endloop
 endfacet
 facet normal  6.042531e-19  7.071068e-01  7.071068e-01
   outer loop
     vertex  1.320000e+02  1.594308e+01  2.486578e-01
     vertex  1.278000e+02  1.554866e+01  6.430796e-01
     vertex  1.320000e+02  1.554866e+01  6.430796e-01
   endloop
 endfacet
 facet normal  0.000000e+00  7.071068e-01  7.071068e-01
   outer loop
     vertex  1.320000e+02  1.594308e+01  2.486578e-01
     vertex  1.278000e+02  1.594308e+01  2.486578e-01
     vertex  1.278000e+02  1.554866e+01  6.430796e-01
   endloop
 endfacet
 facet normal  3.249682e-18  5.735764e-01  8.191520e-01
   outer loop
     vertex  1.320000e+02  1.640000e+01 -7.128129e-02
     vertex  1.278000e+02  1.594308e+01  2.486578e-01
     vertex  1.320000e+02  1.594308e+01  2.486578e-01
   endloop
 endfacet
 facet normal  0.000000e+00  5.735764e-01  8.191520e-01
   outer loop
     vertex  1.320000e+02  1.640000e+01 -7.128129e-02
     vertex  1.278000e+02  1.640000e+01 -7.128129e-02
     vertex  1.278000e+02  1.594308e+01  2.486578e-01
   endloop
 endfacet
 facet normal -1.062864e-18  4.226183e-01  9.063078e-01
   outer loop
     vertex  1.320000e+02  1.690554e+01 -3.070164e-01
     vertex  1.278000e+02  1.640000e+01 -7.128129e-02
     vertex  1.320000e+02  1.640000e+01 -7.128129e-02
   endloop
 endfacet
 facet normal  0.000000e+00  4.226183e-01  9.063078e-01
   outer loop
     vertex  1.320000e+02  1.690554e+01 -3.070164e-01
     vertex  1.278000e+02  1.690554e+01 -3.070164e-01
     vertex  1.278000e+02  1.640000e+01 -7.128129e-02
   endloop
 endfacet
 facet normal  2.116061e-18  2.588190e-01  9.659258e-01
   outer loop
     vertex  1.320000e+02  1.744433e+01 -4.513848e-01
     vertex  1.278000e+02  1.690554e+01 -3.070164e-01
     vertex  1.320000e+02  1.690554e+01 -3.070164e-01
   endloop
 endfacet
 facet normal  0.000000e+00  2.588190e-01  9.659258e-01
   outer loop
     vertex  1.320000e+02  1.744433e+01 -4.513848e-01
     vertex  1.278000e+02  1.744433e+01 -4.513848e-01
     vertex  1.278000e+02  1.690554e+01 -3.070164e-01
   endloop
 endfacet
 facet normal  0.000000e+00  8.715574e-02  9.961947e-01
   outer loop
     vertex  1.320000e+02  1.744433e+01 -4.513848e-01
     vertex  1.278000e+02  1.800000e+01 -5.000000e-01
     vertex  1.278000e+02  1.744433e+01 -4.513848e-01
   endloop
 endfacet
 facet normal  0.000000e+00  8.715574e-02  9.961947e-01
   outer loop
     vertex  1.320000e+02  1.800000e+01 -5.000000e-01
     vertex  1.278000e+02  1.800000e+01 -5.000000e-01
     vertex  1.320000e+02  1.744433e+01 -4.513848e-01
   endloop
 endfacet
 facet normal  0.000000e+00 -8.715574e-02  9.961947e-01
   outer loop
     vertex  1.320000e+02  1.800000e+01 -5.000000e-01
     vertex  1.278000e+02  1.855567e+01 -4.513848e-01
     vertex  1.278000e+02  1.800000e+01 -5.000000e-01
   endloop
 endfacet
 facet normal  0.000000e+00 -8.715574e-02  9.961947e-01
   outer loop
     vertex  1.320000e+02  1.855567e+01 -4.513848e-01
     vertex  1.278000e+02  1.855567e+01 -4.513848e-01
     vertex  1.320000e+02  1.800000e+01 -5.000000e-01
   endloop
 endfacet
 facet normal -2.156584e-18 -2.588190e-01  9.659258e-01
   outer loop
     vertex  1.320000e+02  1.909446e+01 -3.070164e-01
     vertex  1.278000e+02  1.855567e+01 -4.513848e-01
     vertex  1.320000e+02  1.855567e+01 -4.513848e-01
   endloop
 endfacet
 facet normal  0.000000e+00 -2.588190e-01  9.659258e-01
   outer loop
     vertex  1.320000e+02  1.909446e+01 -3.070164e-01
     vertex  1.278000e+02  1.909446e+01 -3.070164e-01
     vertex  1.278000e+02  1.855567e+01 -4.513848e-01
   endloop
 endfacet
 facet normal  0.000000e+00 -4.226183e-01  9.063078e-01
   outer loop
     vertex  1.320000e+02  1.960000e+01 -7.128129e-02
     vertex  1.278000e+02  1.960000e+01 -7.128129e-02
     vertex  1.278000e+02  1.909446e+01 -3.070164e-01
   endloop
 endfacet
 facet normal  0.000000e+00 -5.735764e-01  8.191520e-01
   outer loop
     vertex  1.320000e+02  1.960000e+01 -7.128129e-02
     vertex  1.278000e+02  2.005692e+01  2.486578e-01
     vertex  1.278000e+02  1.960000e+01 -7.128129e-02
   endloop
 endfacet
 facet normal -1.035762e-18 -4.226183e-01  9.063078e-01
   outer loop
     vertex  1.320000e+02  1.960000e+01 -7.128129e-02
     vertex  1.278000e+02  1.909446e+01 -3.070164e-01
     vertex  1.320000e+02  1.909446e+01 -3.070164e-01
   endloop
 endfacet
 facet normal  0.000000e+00 -5.735764e-01  8.191520e-01
   outer loop
     vertex  1.320000e+02  2.005692e+01  2.486578e-01
     vertex  1.278000e+02  2.005692e+01  2.486578e-01
     vertex  1.320000e+02  1.960000e+01 -7.128129e-02
   endloop
 endfacet
 facet normal  2.274672e-18 -7.071068e-01  7.071068e-01
   outer loop
     vertex  1.320000e+02  2.045134e+01  6.430796e-01
     vertex  1.278000e+02  2.005692e+01  2.486578e-01
     vertex  1.320000e+02  2.005692e+01  2.486578e-01
   endloop
 endfacet
 facet normal  0.000000e+00 -7.071068e-01  7.071068e-01
   outer loop
     vertex  1.320000e+02  2.045134e+01  6.430796e-01
     vertex  1.278000e+02  2.045134e+01  6.430796e-01
     vertex  1.278000e+02  2.005692e+01  2.486578e-01
   endloop
 endfacet
 facet normal  0.000000e+00 -8.191520e-01  5.735764e-01
   outer loop
     vertex  1.320000e+02  2.045134e+01  6.430796e-01
     vertex  1.278000e+02  2.077128e+01  1.100000e+00
     vertex  1.278000e+02  2.045134e+01  6.430796e-01
   endloop
 endfacet
 facet normal  0.000000e+00 -9.063078e-01  4.226183e-01
   outer loop
     vertex  1.320000e+02  2.077128e+01  1.100000e+00
     vertex  1.278000e+02  2.100702e+01  1.605536e+00
     vertex  1.278000e+02  2.077128e+01  1.100000e+00
   endloop
 endfacet
 facet normal  0.000000e+00 -8.191520e-01  5.735764e-01
   outer loop
     vertex  1.320000e+02  2.077128e+01  1.100000e+00
     vertex  1.278000e+02  2.077128e+01  1.100000e+00
     vertex  1.320000e+02  2.045134e+01  6.430796e-01
   endloop
 endfacet
 facet normal  0.000000e+00 -9.659258e-01  2.588190e-01
   outer loop
     vertex  1.320000e+02  2.100702e+01  1.605536e+00
     vertex  1.278000e+02  2.115138e+01  2.144326e+00
     vertex  1.278000e+02  2.100702e+01  1.605536e+00
   endloop
 endfacet
 facet normal  0.000000e+00 -9.063078e-01  4.226183e-01
   outer loop
     vertex  1.320000e+02  2.100702e+01  1.605536e+00
     vertex  1.278000e+02  2.100702e+01  1.605536e+00
     vertex  1.320000e+02  2.077128e+01  1.100000e+00
   endloop
 endfacet
 facet normal  0.000000e+00 -9.659258e-01  2.588190e-01
   outer loop
     vertex  1.320000e+02  2.115138e+01  2.144326e+00
     vertex  1.278000e+02  2.115138e+01  2.144326e+00
     vertex  1.320000e+02  2.100702e+01  1.605536e+00
   endloop
 endfacet
 facet normal  0.000000e+00 -9.961947e-01  8.715574e-02
   outer loop
     vertex  1.320000e+02  2.120000e+01  2.700000e+00
     vertex  1.278000e+02  2.120000e+01  2.700000e+00
     vertex  1.278000e+02  2.115138e+01  2.144326e+00
   endloop
 endfacet
 facet normal -0.000000e+00 -9.961947e-01 -8.715574e-02
   outer loop
     vertex  1.320000e+02  2.120000e+01  2.700000e+00
     vertex  1.278000e+02  2.115138e+01  3.255674e+00
     vertex  1.278000e+02  2.120000e+01  2.700000e+00
   endloop
 endfacet
 facet normal -6.243469e-19 -9.961947e-01  8.715574e-02
   outer loop
     vertex  1.320000e+02  2.120000e+01  2.700000e+00
     vertex  1.278000e+02  2.115138e+01  2.144326e+00
     vertex  1.320000e+02  2.115138e+01  2.144326e+00
   endloop
 endfacet
 facet normal -0.000000e+00 -9.961947e-01 -8.715574e-02
   outer loop
     vertex  1.320000e+02  2.115138e+01  3.255674e+00
     vertex  1.278000e+02  2.115138e+01  3.255674e+00
     vertex  1.320000e+02  2.120000e+01  2.700000e+00
   endloop
 endfacet
 facet normal -0.000000e+00 -9.659258e-01 -2.588190e-01
   outer loop
     vertex  1.320000e+02  2.100702e+01  3.794464e+00
     vertex  1.278000e+02  2.100702e+01  3.794464e+00
     vertex  1.278000e+02  2.115138e+01  3.255674e+00
   endloop
 endfacet
 facet normal  2.949123e-18 -9.659258e-01 -2.588190e-01
   outer loop
     vertex  1.320000e+02  2.100702e+01  3.794464e+00
     vertex  1.278000e+02  2.115138e+01  3.255674e+00
     vertex  1.320000e+02  2.115138e+01  3.255674e+00
   endloop
 endfacet
 facet normal -0.000000e+00 -9.063078e-01 -4.226183e-01
   outer loop
     vertex  1.320000e+02  2.077128e+01  4.300000e+00
     vertex  1.278000e+02  2.077128e+01  4.300000e+00
     vertex  1.278000e+02  2.100702e+01  3.794464e+00
   endloop
 endfacet
 facet normal -0.000000e+00 -8.191520e-01 -5.735764e-01
   outer loop
     vertex  1.320000e+02  2.077128e+01  4.300000e+00
     vertex  1.278000e+02  2.045134e+01  4.756920e+00
     vertex  1.278000e+02  2.077128e+01  4.300000e+00
   endloop
 endfacet
 facet normal  3.766404e-19 -9.063078e-01 -4.226183e-01
   outer loop
     vertex  1.320000e+02  2.077128e+01  4.300000e+00
     vertex  1.278000e+02  2.100702e+01  3.794464e+00
     vertex  1.320000e+02  2.100702e+01  3.794464e+00
   endloop
 endfacet
 facet normal -0.000000e+00 -8.191520e-01 -5.735764e-01
   outer loop
     vertex  1.320000e+02  2.045134e+01  4.756920e+00
     vertex  1.278000e+02  2.045134e+01  4.756920e+00
     vertex  1.320000e+02  2.077128e+01  4.300000e+00
   endloop
 endfacet
 facet normal -0.000000e+00 -7.071068e-01 -7.071068e-01
   outer loop
     vertex  1.320000e+02  2.005692e+01  5.151342e+00
     vertex  1.278000e+02  2.005692e+01  5.151342e+00
     vertex  1.278000e+02  2.045134e+01  4.756920e+00
   endloop
 endfacet
 facet normal  6.042531e-19 -7.071068e-01 -7.071068e-01
   outer loop
     vertex  1.320000e+02  2.005692e+01  5.151342e+00
     vertex  1.278000e+02  2.045134e+01  4.756920e+00
     vertex  1.320000e+02  2.045134e+01  4.756920e+00
   endloop
 endfacet
 facet normal  5.208956e-18 -5.735764e-01 -8.191520e-01
   outer loop
     vertex  1.320000e+02  1.960000e+01  5.471281e+00
     vertex  1.278000e+02  2.005692e+01  5.151342e+00
     vertex  1.320000e+02  2.005692e+01  5.151342e+00
   endloop
 endfacet
 facet normal -0.000000e+00 -5.735764e-01 -8.191520e-01
   outer loop
     vertex  1.320000e+02  1.960000e+01  5.471281e+00
     vertex  1.278000e+02  1.960000e+01  5.471281e+00
     vertex  1.278000e+02  2.005692e+01  5.151342e+00
   endloop
 endfacet
 facet normal  6.636106e-19 -4.226183e-01 -9.063078e-01
   outer loop
     vertex  1.320000e+02  1.909446e+01  5.707016e+00
     vertex  1.278000e+02  1.960000e+01  5.471281e+00
     vertex  1.320000e+02  1.960000e+01  5.471281e+00
   endloop
 endfacet
 facet normal -0.000000e+00 -4.226183e-01 -9.063078e-01
   outer loop
     vertex  1.320000e+02  1.909446e+01  5.707016e+00
     vertex  1.278000e+02  1.909446e+01  5.707016e+00
     vertex  1.278000e+02  1.960000e+01  5.471281e+00
   endloop
 endfacet
 facet normal -0.000000e+00 -2.588190e-01 -9.659258e-01
   outer loop
     vertex  1.320000e+02  1.909446e+01  5.707016e+00
     vertex  1.278000e+02  1.855567e+01  5.851385e+00
     vertex  1.278000e+02  1.909446e+01  5.707016e+00
   endloop
 endfacet
 facet normal -0.000000e+00 -2.588190e-01 -9.659258e-01
   outer loop
     vertex  1.320000e+02  1.855567e+01  5.851385e+00
     vertex  1.278000e+02  1.855567e+01  5.851385e+00
     vertex  1.320000e+02  1.909446e+01  5.707016e+00
   endloop
 endfacet
 facet normal  2.513149e-19 -8.715574e-02 -9.961947e-01
   outer loop
     vertex  1.320000e+02  1.800000e+01  5.900000e+00
     vertex  1.278000e+02  1.855567e+01  5.851385e+00
     vertex  1.320000e+02  1.855567e+01  5.851385e+00
   endloop
 endfacet
 facet normal -0.000000e+00 -8.715574e-02 -9.961947e-01
   outer loop
     vertex  1.320000e+02  1.800000e+01  5.900000e+00
     vertex  1.278000e+02  1.800000e+01  5.900000e+00
     vertex  1.278000e+02  1.855567e+01  5.851385e+00
   endloop
 endfacet
endsolid
