<svg xmlns="http://www.w3.org/2000/svg" viewBox="-4 -4 138.254 68.254">
<style>
.board{fill:#294436;stroke:#111;stroke-width:.45} .screen{fill:#bed9e8;fill-opacity:.42;stroke:#277da1;stroke-width:.35}
.antenna{fill:#e63946;fill-opacity:.55;stroke:#9d0208;stroke-width:.3} .old{fill:#ffb703;fill-opacity:.45;stroke:#9c6500;stroke-width:.3}
.candidate{fill:#52b788;fill-opacity:.55;stroke:#1b4332;stroke-width:.3} .fpc{fill:#f72585;fill-opacity:.45;stroke:#9d174d;stroke-width:.3}
.power{fill:#9b5de5;fill-opacity:.45;stroke:#5a189a;stroke-width:.3} .hole{fill:#fff;stroke:#111;stroke-width:.25}
.label{font-family:sans-serif;font-size:1.55px;fill:#111} .title{font-family:sans-serif;font-size:2.1px;font-weight:bold;fill:#111}
</style>
<rect x="0" y="0" width="130.254" height="60.254" rx="5" class="board"/>
<rect x="33.600" y="8.844" width="62.800" height="42.820" class="screen"/><text x="34.300" y="11.044" class="label">Sharp panel</text>
<rect x="56.127" y="0.127" width="18.000" height="6.040" class="antenna"/><text x="56.827" y="2.327" class="label">ESP32 antenna</text>
<rect x="60.680" y="2.844" width="8.640" height="5.200" class="old"/><text x="61.380" y="5.044" class="label">FPC +Y conflict</text>
<rect x="60.680" y="52.464" width="8.640" height="5.200" class="fpc"/><text x="61.380" y="54.664" class="label">FPC -Y candidate</text>
<rect x="58.797" y="53.693" width="12.630" height="5.631" class="old"/><text x="59.497" y="55.893" class="label">USB original</text>
<rect x="71.765" y="54.116" width="2.164" height="4.334" class="old"/><text x="72.465" y="56.316" class="label">LED1</text>
<rect x="103.452" y="0.797" width="8.550" height="6.630" class="old"/><text x="104.152" y="2.997" class="label">KEY2</text>
<rect x="74.997" y="53.693" width="12.630" height="5.631" class="candidate"/><text x="75.697" y="55.893" class="label">USB +16.2 mm</text>
<rect x="89.025" y="54.302" width="3.950" height="1.986" class="candidate"/><text x="89.725" y="56.502" class="label">R1 CC1</text>
<rect x="89.025" y="56.580" width="3.950" height="1.986" class="candidate"/><text x="89.725" y="58.780" class="label">R2 CC2</text>
<rect x="102.700" y="-0.946" width="4.600" height="3.500" class="power"/><text x="103.400" y="1.254" class="label">Power A</text>
<rect x="127.700" y="39.954" width="3.500" height="4.600" class="power"/><text x="128.400" y="42.154" class="label">Power B</text>
<circle cx="5" cy="55.254" r="1.1" class="hole"/><circle cx="5" cy="5.254" r="1.1" class="hole"/>
<circle cx="125" cy="55.254" r="1.1" class="hole"/><circle cx="125" cy="5.254" r="1.1" class="hole"/>
<text x="2" y="-1" class="title">Cadenza L1 placement candidate — not frozen</text>
</svg>