solid 
 facet normal -1.000000e+00  0.000000e+00  0.000000e+00
   outer loop
     vertex  1.040750e+02  6.000000e+01  1.775000e+00
     vertex  1.040750e+02  6.120000e+01  9.250000e-01
     vertex  1.040750e+02  6.000000e+01  9.250000e-01
   endloop
 endfacet
 facet normal -1.000000e+00  0.000000e+00  0.000000e+00
   outer loop
     vertex  1.040750e+02  6.000000e+01  1.775000e+00
     vertex  1.040750e+02  6.120000e+01  1.775000e+00
     vertex  1.040750e+02  6.120000e+01  9.250000e-01
   endloop
 endfacet
 facet normal  1.000000e+00  0.000000e+00  0.000000e+00
   outer loop
     vertex  1.059250e+02  6.000000e+01  1.775000e+00
     vertex  1.059250e+02  6.000000e+01  9.250000e-01
     vertex  1.059250e+02  6.120000e+01  9.250000e-01
   endloop
 endfacet
 facet normal  1.000000e+00 -0.000000e+00  0.000000e+00
   outer loop
     vertex  1.059250e+02  6.000000e+01  1.775000e+00
     vertex  1.059250e+02  6.120000e+01  9.250000e-01
     vertex  1.059250e+02  6.120000e+01  1.775000e+00
   endloop
 endfacet
 facet normal  0.000000e+00 -1.000000e+00 -0.000000e+00
   outer loop
     vertex  1.059250e+02  6.000000e+01  1.775000e+00
     vertex  1.040750e+02  6.000000e+01  9.250000e-01
     vertex  1.059250e+02  6.000000e+01  9.250000e-01
   endloop
 endfacet
 facet normal -0.000000e+00 -1.000000e+00  0.000000e+00
   outer loop
     vertex  1.059250e+02  6.000000e+01  1.775000e+00
     vertex  1.040750e+02  6.000000e+01  1.775000e+00
     vertex  1.040750e+02  6.000000e+01  9.250000e-01
   endloop
 endfacet
 facet normal  0.000000e+00  1.000000e+00  0.000000e+00
   outer loop
     vertex  1.059250e+02  6.120000e+01  1.775000e+00
     vertex  1.059250e+02  6.120000e+01  9.250000e-01
     vertex  1.040750e+02  6.120000e+01  9.250000e-01
   endloop
 endfacet
 facet normal  0.000000e+00  1.000000e+00  0.000000e+00
   outer loop
     vertex  1.059250e+02  6.120000e+01  1.775000e+00
     vertex  1.040750e+02  6.120000e+01  9.250000e-01
     vertex  1.040750e+02  6.120000e+01  1.775000e+00
   endloop
 endfacet
 facet normal -0.000000e+00  0.000000e+00 -1.000000e+00
   outer loop
     vertex  1.059250e+02  6.120000e+01  9.250000e-01
     vertex  1.040750e+02  6.000000e+01  9.250000e-01
     vertex  1.040750e+02  6.120000e+01  9.250000e-01
   endloop
 endfacet
 facet normal  0.000000e+00 -0.000000e+00 -1.000000e+00
   outer loop
     vertex  1.059250e+02  6.120000e+01  9.250000e-01
     vertex  1.059250e+02  6.000000e+01  9.250000e-01
     vertex  1.040750e+02  6.000000e+01  9.250000e-01
   endloop
 endfacet
 facet normal  0.000000e+00  0.000000e+00  1.000000e+00
   outer loop
     vertex  1.059250e+02  6.120000e+01  1.775000e+00
     vertex  1.040750e+02  6.120000e+01  1.775000e+00
     vertex  1.040750e+02  6.000000e+01  1.775000e+00
   endloop
 endfacet
 facet normal  0.000000e+00  0.000000e+00  1.000000e+00
   outer loop
     vertex  1.059250e+02  6.120000e+01  1.775000e+00
     vertex  1.040750e+02  6.000000e+01  1.775000e+00
     vertex  1.059250e+02  6.000000e+01  1.775000e+00
   endloop
 endfacet
endsolid
