solid 
 facet normal -1.000000e+00  0.000000e+00  0.000000e+00
   outer loop
     vertex  1.027000e+02  5.770000e+01  2.200000e+00
     vertex  1.027000e+02  6.000000e+01  4.000000e-01
     vertex  1.027000e+02  5.770000e+01  4.000000e-01
   endloop
 endfacet
 facet normal -1.000000e+00  0.000000e+00  0.000000e+00
   outer loop
     vertex  1.027000e+02  5.770000e+01  2.200000e+00
     vertex  1.027000e+02  6.000000e+01  2.200000e+00
     vertex  1.027000e+02  6.000000e+01  4.000000e-01
   endloop
 endfacet
 facet normal  1.000000e+00  0.000000e+00  0.000000e+00
   outer loop
     vertex  1.073000e+02  5.770000e+01  2.200000e+00
     vertex  1.073000e+02  5.770000e+01  4.000000e-01
     vertex  1.073000e+02  6.000000e+01  4.000000e-01
   endloop
 endfacet
 facet normal  1.000000e+00 -0.000000e+00  0.000000e+00
   outer loop
     vertex  1.073000e+02  5.770000e+01  2.200000e+00
     vertex  1.073000e+02  6.000000e+01  4.000000e-01
     vertex  1.073000e+02  6.000000e+01  2.200000e+00
   endloop
 endfacet
 facet normal  0.000000e+00 -1.000000e+00 -0.000000e+00
   outer loop
     vertex  1.073000e+02  5.770000e+01  2.200000e+00
     vertex  1.027000e+02  5.770000e+01  4.000000e-01
     vertex  1.073000e+02  5.770000e+01  4.000000e-01
   endloop
 endfacet
 facet normal -0.000000e+00 -1.000000e+00  0.000000e+00
   outer loop
     vertex  1.073000e+02  5.770000e+01  2.200000e+00
     vertex  1.027000e+02  5.770000e+01  2.200000e+00
     vertex  1.027000e+02  5.770000e+01  4.000000e-01
   endloop
 endfacet
 facet normal  0.000000e+00  1.000000e+00  0.000000e+00
   outer loop
     vertex  1.073000e+02  6.000000e+01  2.200000e+00
     vertex  1.073000e+02  6.000000e+01  4.000000e-01
     vertex  1.027000e+02  6.000000e+01  4.000000e-01
   endloop
 endfacet
 facet normal  0.000000e+00  1.000000e+00  0.000000e+00
   outer loop
     vertex  1.073000e+02  6.000000e+01  2.200000e+00
     vertex  1.027000e+02  6.000000e+01  4.000000e-01
     vertex  1.027000e+02  6.000000e+01  2.200000e+00
   endloop
 endfacet
 facet normal -0.000000e+00  0.000000e+00 -1.000000e+00
   outer loop
     vertex  1.073000e+02  6.000000e+01  4.000000e-01
     vertex  1.027000e+02  5.770000e+01  4.000000e-01
     vertex  1.027000e+02  6.000000e+01  4.000000e-01
   endloop
 endfacet
 facet normal  0.000000e+00 -0.000000e+00 -1.000000e+00
   outer loop
     vertex  1.073000e+02  6.000000e+01  4.000000e-01
     vertex  1.073000e+02  5.770000e+01  4.000000e-01
     vertex  1.027000e+02  5.770000e+01  4.000000e-01
   endloop
 endfacet
 facet normal  0.000000e+00  0.000000e+00  1.000000e+00
   outer loop
     vertex  1.073000e+02  6.000000e+01  2.200000e+00
     vertex  1.027000e+02  6.000000e+01  2.200000e+00
     vertex  1.027000e+02  5.770000e+01  2.200000e+00
   endloop
 endfacet
 facet normal  0.000000e+00  0.000000e+00  1.000000e+00
   outer loop
     vertex  1.073000e+02  6.000000e+01  2.200000e+00
     vertex  1.027000e+02  5.770000e+01  2.200000e+00
     vertex  1.073000e+02  5.770000e+01  2.200000e+00
   endloop
 endfacet
endsolid
