solid 
 facet normal -1.000000e+00  0.000000e+00  0.000000e+00
   outer loop
     vertex -2.300000e+00 -1.150000e+00  1.800000e+00
     vertex -2.300000e+00  1.150000e+00  0.000000e+00
     vertex -2.300000e+00 -1.150000e+00  0.000000e+00
   endloop
 endfacet
 facet normal -1.000000e+00  0.000000e+00  0.000000e+00
   outer loop
     vertex -2.300000e+00 -1.150000e+00  1.800000e+00
     vertex -2.300000e+00  1.150000e+00  1.800000e+00
     vertex -2.300000e+00  1.150000e+00  0.000000e+00
   endloop
 endfacet
 facet normal  1.000000e+00  0.000000e+00  0.000000e+00
   outer loop
     vertex  2.300000e+00 -1.150000e+00  1.800000e+00
     vertex  2.300000e+00 -1.150000e+00  0.000000e+00
     vertex  2.300000e+00  1.150000e+00  0.000000e+00
   endloop
 endfacet
 facet normal  1.000000e+00 -0.000000e+00  0.000000e+00
   outer loop
     vertex  2.300000e+00 -1.150000e+00  1.800000e+00
     vertex  2.300000e+00  1.150000e+00  0.000000e+00
     vertex  2.300000e+00  1.150000e+00  1.800000e+00
   endloop
 endfacet
 facet normal  0.000000e+00 -1.000000e+00 -0.000000e+00
   outer loop
     vertex  2.300000e+00 -1.150000e+00  1.800000e+00
     vertex -2.300000e+00 -1.150000e+00  0.000000e+00
     vertex  2.300000e+00 -1.150000e+00  0.000000e+00
   endloop
 endfacet
 facet normal -0.000000e+00 -1.000000e+00  0.000000e+00
   outer loop
     vertex  2.300000e+00 -1.150000e+00  1.800000e+00
     vertex -2.300000e+00 -1.150000e+00  1.800000e+00
     vertex -2.300000e+00 -1.150000e+00  0.000000e+00
   endloop
 endfacet
 facet normal  0.000000e+00  1.000000e+00  0.000000e+00
   outer loop
     vertex  2.300000e+00  1.150000e+00  1.800000e+00
     vertex  2.300000e+00  1.150000e+00  0.000000e+00
     vertex -2.300000e+00  1.150000e+00  0.000000e+00
   endloop
 endfacet
 facet normal  0.000000e+00  1.000000e+00  0.000000e+00
   outer loop
     vertex  2.300000e+00  1.150000e+00  1.800000e+00
     vertex -2.300000e+00  1.150000e+00  0.000000e+00
     vertex -2.300000e+00  1.150000e+00  1.800000e+00
   endloop
 endfacet
 facet normal -0.000000e+00  0.000000e+00 -1.000000e+00
   outer loop
     vertex  2.300000e+00  1.150000e+00  0.000000e+00
     vertex -2.300000e+00 -1.150000e+00  0.000000e+00
     vertex -2.300000e+00  1.150000e+00  0.000000e+00
   endloop
 endfacet
 facet normal  0.000000e+00 -0.000000e+00 -1.000000e+00
   outer loop
     vertex  2.300000e+00  1.150000e+00  0.000000e+00
     vertex  2.300000e+00 -1.150000e+00  0.000000e+00
     vertex -2.300000e+00 -1.150000e+00  0.000000e+00
   endloop
 endfacet
 facet normal  0.000000e+00  0.000000e+00  1.000000e+00
   outer loop
     vertex  2.300000e+00  1.150000e+00  1.800000e+00
     vertex -2.300000e+00  1.150000e+00  1.800000e+00
     vertex -2.300000e+00 -1.150000e+00  1.800000e+00
   endloop
 endfacet
 facet normal  0.000000e+00  0.000000e+00  1.000000e+00
   outer loop
     vertex  2.300000e+00  1.150000e+00  1.800000e+00
     vertex -2.300000e+00 -1.150000e+00  1.800000e+00
     vertex  2.300000e+00 -1.150000e+00  1.800000e+00
   endloop
 endfacet
 facet normal -1.000000e+00  0.000000e+00  0.000000e+00
   outer loop
     vertex -9.250000e-01  1.150000e+00  1.375000e+00
     vertex -9.250000e-01  2.350000e+00  5.250000e-01
     vertex -9.250000e-01  1.150000e+00  5.250000e-01
   endloop
 endfacet
 facet normal -1.000000e+00  0.000000e+00  0.000000e+00
   outer loop
     vertex -9.250000e-01  1.150000e+00  1.375000e+00
     vertex -9.250000e-01  2.350000e+00  1.375000e+00
     vertex -9.250000e-01  2.350000e+00  5.250000e-01
   endloop
 endfacet
 facet normal  1.000000e+00  0.000000e+00  0.000000e+00
   outer loop
     vertex  9.250000e-01  1.150000e+00  1.375000e+00
     vertex  9.250000e-01  1.150000e+00  5.250000e-01
     vertex  9.250000e-01  2.350000e+00  5.250000e-01
   endloop
 endfacet
 facet normal  1.000000e+00 -0.000000e+00  0.000000e+00
   outer loop
     vertex  9.250000e-01  1.150000e+00  1.375000e+00
     vertex  9.250000e-01  2.350000e+00  5.250000e-01
     vertex  9.250000e-01  2.350000e+00  1.375000e+00
   endloop
 endfacet
 facet normal  0.000000e+00 -1.000000e+00 -0.000000e+00
   outer loop
     vertex  9.250000e-01  1.150000e+00  1.375000e+00
     vertex -9.250000e-01  1.150000e+00  5.250000e-01
     vertex  9.250000e-01  1.150000e+00  5.250000e-01
   endloop
 endfacet
 facet normal -0.000000e+00 -1.000000e+00  0.000000e+00
   outer loop
     vertex  9.250000e-01  1.150000e+00  1.375000e+00
     vertex -9.250000e-01  1.150000e+00  1.375000e+00
     vertex -9.250000e-01  1.150000e+00  5.250000e-01
   endloop
 endfacet
 facet normal  0.000000e+00  1.000000e+00  0.000000e+00
   outer loop
     vertex  9.250000e-01  2.350000e+00  1.375000e+00
     vertex  9.250000e-01  2.350000e+00  5.250000e-01
     vertex -9.250000e-01  2.350000e+00  5.250000e-01
   endloop
 endfacet
 facet normal  0.000000e+00  1.000000e+00  0.000000e+00
   outer loop
     vertex  9.250000e-01  2.350000e+00  1.375000e+00
     vertex -9.250000e-01  2.350000e+00  5.250000e-01
     vertex -9.250000e-01  2.350000e+00  1.375000e+00
   endloop
 endfacet
 facet normal -0.000000e+00  0.000000e+00 -1.000000e+00
   outer loop
     vertex  9.250000e-01  2.350000e+00  5.250000e-01
     vertex -9.250000e-01  1.150000e+00  5.250000e-01
     vertex -9.250000e-01  2.350000e+00  5.250000e-01
   endloop
 endfacet
 facet normal  0.000000e+00 -0.000000e+00 -1.000000e+00
   outer loop
     vertex  9.250000e-01  2.350000e+00  5.250000e-01
     vertex  9.250000e-01  1.150000e+00  5.250000e-01
     vertex -9.250000e-01  1.150000e+00  5.250000e-01
   endloop
 endfacet
 facet normal  0.000000e+00  0.000000e+00  1.000000e+00
   outer loop
     vertex  9.250000e-01  2.350000e+00  1.375000e+00
     vertex -9.250000e-01  2.350000e+00  1.375000e+00
     vertex -9.250000e-01  1.150000e+00  1.375000e+00
   endloop
 endfacet
 facet normal  0.000000e+00  0.000000e+00  1.000000e+00
   outer loop
     vertex  9.250000e-01  2.350000e+00  1.375000e+00
     vertex -9.250000e-01  1.150000e+00  1.375000e+00
     vertex  9.250000e-01  1.150000e+00  1.375000e+00
   endloop
 endfacet
endsolid
