M48
; DRILL file KiCad 10.0.4 date 2026-07-21T14:27:05
; FORMAT={-:-/ absolute / metric / decimal}
; #@! TF.CreationDate,2026-07-21T14:27:05+08:00
; #@! TF.GenerationSoftware,Kicad,Pcbnew,10.0.4
; #@! TF.FileFunction,Plated,1,4,PTH
FMAT,2
METRIC
; #@! TA.AperFunction,Plated,PTH,ViaDrill
T1C0.200
; #@! TA.AperFunction,Plated,PTH,ComponentDrill
T2C0.200
; #@! TA.AperFunction,Plated,PTH,ViaDrill
T3C0.250
; #@! TA.AperFunction,Plated,PTH,ViaDrill
T4C0.300
; #@! TA.AperFunction,Plated,PTH,ComponentDrill
T5C0.600
%
G90
G05
T1
X135.65Y-80.65
X138.0Y-88.5
T2
X63.635Y-93.635
X63.635Y-94.365
X64.365Y-93.635
X64.365Y-94.365
X127.025Y-106.0
X128.0Y-105.275
X128.0Y-106.0
X128.0Y-106.725
X128.975Y-106.0
X142.41Y-102.41
X142.41Y-103.59
X143.59Y-102.41
X143.59Y-103.59
X148.1Y-75.76
X148.1Y-77.16
X148.8Y-75.06
X148.8Y-76.46
X148.8Y-77.86
X149.5Y-75.76
X149.5Y-77.16
X150.2Y-75.06
X150.2Y-76.46
X150.2Y-77.86
X150.9Y-75.76
X150.9Y-77.16
T3
X85.0Y-69.5
X111.5Y-103.0
X111.5Y-106.5
X127.6Y-92.3
X129.75Y-82.75
X133.5Y-101.0
X139.25Y-98.5
X139.5Y-68.5
X139.5Y-102.5
T4
X56.874Y-56.268
X60.059Y-58.216
X62.562Y-95.363
X63.746Y-103.392
X65.048Y-96.911
X66.631Y-94.25
X68.276Y-90.198
X68.276Y-95.924
X73.361Y-98.877
X93.0Y-65.95
X93.724Y-100.771
X93.921Y-97.667
X95.137Y-73.869
X96.05Y-104.248
X96.313Y-66.313
X99.954Y-101.439
X100.0Y-111.0
X105.805Y-64.36
X106.457Y-98.944
X107.218Y-105.893
X107.437Y-53.727
X108.026Y-106.017
X108.67Y-54.861
X108.785Y-108.585
X109.403Y-54.281
X113.95Y-59.039
X113.959Y-98.0
X114.216Y-104.143
X114.257Y-69.923
X114.35Y-101.0
X114.971Y-70.887
X116.302Y-107.953
X117.228Y-59.824
X117.442Y-106.79
X117.891Y-65.949
X119.192Y-99.496
X119.225Y-102.963
X120.063Y-99.684
X121.989Y-94.253
X122.091Y-91.365
X122.5Y-109.5
X122.82Y-55.563
X122.898Y-51.414
X124.8Y-106.2
X124.946Y-108.536
X125.336Y-106.832
X125.406Y-57.635
X125.466Y-89.24
X125.567Y-71.812
X125.832Y-103.663
X125.877Y-77.499
X125.88Y-104.432
X126.233Y-86.733
X126.578Y-111.519
X127.098Y-78.805
X127.098Y-81.206
X127.196Y-87.981
X127.901Y-89.081
X128.247Y-50.804
X128.648Y-107.703
X128.874Y-79.741
X130.274Y-78.805
X130.674Y-106.327
X130.773Y-84.96
X131.861Y-95.156
X132.037Y-83.249
X133.389Y-88.416
X133.682Y-97.84
X134.05Y-107.953
X134.388Y-85.25
X134.648Y-99.046
X135.0Y-102.25
X136.352Y-81.228
X136.891Y-105.653
X137.103Y-107.058
X137.3Y-104.478
X137.901Y-72.376
X138.401Y-84.499
X139.077Y-83.98
X140.333Y-74.592
X140.586Y-98.804
X140.8Y-102.25
X141.205Y-106.107
X141.494Y-98.916
X141.725Y-105.275
X142.857Y-97.764
X142.925Y-106.875
X143.088Y-87.36
X143.117Y-99.954
X143.469Y-81.084
X144.269Y-74.895
X144.566Y-78.9
X144.909Y-101.632
X145.002Y-104.451
X146.177Y-104.552
X146.82Y-89.209
X147.601Y-84.766
X148.6Y-94.571
X148.883Y-93.073
X149.375Y-95.214
X149.986Y-98.43
X150.02Y-73.078
X150.365Y-85.28
X151.526Y-85.271
X152.089Y-97.687
X152.101Y-83.839
X152.342Y-77.139
X152.456Y-73.647
X152.715Y-75.371
X152.905Y-85.295
X152.98Y-71.975
X153.844Y-85.277
X154.891Y-83.459
X154.94Y-85.17
X156.522Y-80.17
X157.039Y-81.44
X157.093Y-82.71
X157.794Y-82.017
X157.803Y-77.771
X157.976Y-91.466
X158.545Y-69.332
X159.393Y-86.155
X161.19Y-81.228
X161.812Y-77.621
T5
X103.68Y-107.345G85X103.68Y-108.445
G05
X103.68Y-111.775G85X103.68Y-112.375
G05
X112.32Y-107.345G85X112.32Y-108.445
G05
X112.32Y-111.775G85X112.32Y-112.375
G05
M30
