%TF.GenerationSoftware,KiCad,Pcbnew,10.0.4*%
%TF.CreationDate,2026-07-22T13:08:43+08:00*%
%TF.ProjectId,Cadenza-L1-Screen-Only,43616465-6e7a-4612-9d4c-312d53637265,rev?*%
%TF.SameCoordinates,Original*%
%TF.FileFunction,Soldermask,Bot*%
%TF.FilePolarity,Negative*%
%FSLAX46Y46*%
G04 Gerber Fmt 4.6, Leading zero omitted, Abs format (unit mm)*
G04 Created by KiCad (PCBNEW 10.0.4) date 2026-07-22 13:08:43*
%MOMM*%
%LPD*%
G01*
G04 APERTURE LIST*
%ADD10C,2.000000*%
%ADD11C,1.524000*%
%ADD12O,1.400000X2.200000*%
%ADD13O,1.600000X1.000000*%
%ADD14C,0.700000*%
%ADD15R,2.000000X2.000000*%
%ADD16R,0.850000X0.650000*%
%ADD17R,1.600000X1.300000*%
G04 APERTURE END LIST*
D10*
%TO.C,SCREW3*%
X93125000Y-134725000D03*
%TD*%
D11*
%TO.C,SW1*%
X184022000Y-83925000D03*
X182022000Y-83925000D03*
X180022000Y-83925000D03*
D12*
X177872000Y-83925000D03*
X186172000Y-83925000D03*
%TD*%
D10*
%TO.C,SCREW2*%
X213125000Y-84725000D03*
%TD*%
%TO.C,SCREW1*%
X93125000Y-84725000D03*
%TD*%
D13*
%TO.C,USB1*%
X148900000Y-134101000D03*
X157350000Y-134101000D03*
X148900000Y-138141000D03*
X157350000Y-138141000D03*
D14*
X149625000Y-135291000D03*
X150625000Y-135291000D03*
X151625000Y-135291000D03*
X152625000Y-135291000D03*
X153625000Y-135291000D03*
X154625000Y-135291000D03*
X155625000Y-135291000D03*
X156625000Y-135291000D03*
X156625000Y-136941000D03*
X155625000Y-136941000D03*
X154625000Y-136941000D03*
X153625000Y-136941000D03*
X152625000Y-136941000D03*
X151625000Y-136941000D03*
X150625000Y-136941000D03*
X149625000Y-136941000D03*
%TD*%
D10*
%TO.C,SCREW4*%
X213125000Y-134725000D03*
%TD*%
D15*
%TO.C,KEY1*%
X201925000Y-83725000D03*
X207925000Y-83725000D03*
%TD*%
%TO.C,KEY2*%
X192725000Y-83725000D03*
X198725000Y-83725000D03*
%TD*%
%TO.C,KEY6*%
X112000000Y-110225000D03*
X106000000Y-110225000D03*
%TD*%
%TO.C,KEY3*%
X113525000Y-83725000D03*
X107525000Y-83725000D03*
%TD*%
%TO.C,KEY4*%
X104325000Y-83725000D03*
X98325000Y-83725000D03*
%TD*%
D16*
%TO.C,LED2*%
X204670000Y-125954500D03*
X204670000Y-127254500D03*
X203320000Y-127254500D03*
X203320000Y-125954500D03*
%TD*%
D17*
%TO.C,SW2*%
X209895000Y-106475000D03*
X209895000Y-110175000D03*
X209895000Y-112975000D03*
X198095000Y-112975000D03*
X198095000Y-110175000D03*
X198095000Y-106475000D03*
%TD*%
D15*
%TO.C,KEY5*%
X101500000Y-103675000D03*
X95500000Y-103675000D03*
%TD*%
M02*
