%TF.GenerationSoftware,KiCad,Pcbnew,10.0.4*%
%TF.CreationDate,2026-07-22T13:08:43+08:00*%
%TF.ProjectId,Cadenza-L1-Screen-Only,43616465-6e7a-4612-9d4c-312d53637265,rev?*%
%TF.SameCoordinates,Original*%
%TF.FileFunction,Profile,NP*%
%FSLAX46Y46*%
G04 Gerber Fmt 4.6, Leading zero omitted, Abs format (unit mm)*
G04 Created by KiCad (PCBNEW 10.0.4) date 2026-07-22 13:08:43*
%MOMM*%
%LPD*%
G01*
G04 APERTURE LIST*
%TA.AperFunction,Profile*%
%ADD10C,0.254000*%
%TD*%
%TA.AperFunction,Profile*%
%ADD11C,0.000000*%
%TD*%
G04 APERTURE END LIST*
D10*
X88125000Y-89725000D02*
X88125000Y-129725000D01*
X88125000Y-89725000D02*
G75*
G02*
X98125000Y-79725000I10000000J0D01*
G01*
X98125000Y-79725000D02*
X208125000Y-79725000D01*
X98125000Y-139725000D02*
G75*
G02*
X88125000Y-129725000I0J10000000D01*
G01*
X98125000Y-139725000D02*
X208125000Y-139725000D01*
X208125000Y-79725000D02*
G75*
G02*
X218125000Y-89725000I0J-10000000D01*
G01*
X218125000Y-89725000D02*
X218125000Y-129725000D01*
X218125000Y-129725000D02*
G75*
G02*
X208125000Y-139725000I-10000000J0D01*
G01*
D11*
%TA.AperFunction,Profile*%
%TO.C,U7*%
G36*
X103418114Y-90830706D02*
G01*
X103473294Y-90885886D01*
X103503157Y-90957982D01*
X103503157Y-91036018D01*
X103473294Y-91108114D01*
X103418114Y-91163294D01*
X103346018Y-91193157D01*
X103267982Y-91193157D01*
X103195886Y-91163294D01*
X103140706Y-91108114D01*
X103110843Y-91036018D01*
X103110843Y-90957982D01*
X103140706Y-90885886D01*
X103195886Y-90830706D01*
X103267982Y-90800843D01*
X103346018Y-90800843D01*
X103418114Y-90830706D01*
G37*
%TD.AperFunction*%
%TA.AperFunction,Profile*%
%TO.C,RST1*%
G36*
X171553073Y-82554948D02*
G01*
X171643505Y-82607159D01*
X171717341Y-82680995D01*
X171769552Y-82771427D01*
X171796578Y-82872290D01*
X171796578Y-82976710D01*
X171769552Y-83077573D01*
X171717341Y-83168005D01*
X171643505Y-83241841D01*
X171553073Y-83294052D01*
X171452210Y-83321078D01*
X171347790Y-83321078D01*
X171246927Y-83294052D01*
X171156495Y-83241841D01*
X171082659Y-83168005D01*
X171030448Y-83077573D01*
X171003422Y-82976710D01*
X171003422Y-82872290D01*
X171030448Y-82771427D01*
X171082659Y-82680995D01*
X171156495Y-82607159D01*
X171246927Y-82554948D01*
X171347790Y-82527922D01*
X171452210Y-82527922D01*
X171553073Y-82554948D01*
G37*
%TD.AperFunction*%
%TA.AperFunction,Profile*%
G36*
X173853073Y-82554948D02*
G01*
X173943505Y-82607159D01*
X174017341Y-82680995D01*
X174069552Y-82771427D01*
X174096578Y-82872290D01*
X174096578Y-82976710D01*
X174069552Y-83077573D01*
X174017341Y-83168005D01*
X173943505Y-83241841D01*
X173853073Y-83294052D01*
X173752210Y-83321078D01*
X173647790Y-83321078D01*
X173546927Y-83294052D01*
X173456495Y-83241841D01*
X173382659Y-83168005D01*
X173330448Y-83077573D01*
X173303422Y-82976710D01*
X173303422Y-82872290D01*
X173330448Y-82771427D01*
X173382659Y-82680995D01*
X173456495Y-82607159D01*
X173546927Y-82554948D01*
X173647790Y-82527922D01*
X173752210Y-82527922D01*
X173853073Y-82554948D01*
G37*
%TD.AperFunction*%
%TA.AperFunction,Profile*%
%TO.C,CARD1*%
G36*
X123853610Y-134173172D02*
G01*
X123989257Y-134251488D01*
X124100012Y-134362243D01*
X124178328Y-134497890D01*
X124218867Y-134649184D01*
X124218867Y-134805816D01*
X124178328Y-134957110D01*
X124100012Y-135092757D01*
X123989257Y-135203512D01*
X123853610Y-135281828D01*
X123702316Y-135322367D01*
X123545684Y-135322367D01*
X123394390Y-135281828D01*
X123258743Y-135203512D01*
X123147988Y-135092757D01*
X123069672Y-134957110D01*
X123029133Y-134805816D01*
X123029133Y-134649184D01*
X123069672Y-134497890D01*
X123147988Y-134362243D01*
X123258743Y-134251488D01*
X123394390Y-134173172D01*
X123545684Y-134132633D01*
X123702316Y-134132633D01*
X123853610Y-134173172D01*
G37*
%TD.AperFunction*%
%TA.AperFunction,Profile*%
G36*
X131853610Y-134173172D02*
G01*
X131989257Y-134251488D01*
X132100012Y-134362243D01*
X132178328Y-134497890D01*
X132218867Y-134649184D01*
X132218867Y-134805816D01*
X132178328Y-134957110D01*
X132100012Y-135092757D01*
X131989257Y-135203512D01*
X131853610Y-135281828D01*
X131702316Y-135322367D01*
X131545684Y-135322367D01*
X131394390Y-135281828D01*
X131258743Y-135203512D01*
X131147988Y-135092757D01*
X131069672Y-134957110D01*
X131029133Y-134805816D01*
X131029133Y-134649184D01*
X131069672Y-134497890D01*
X131147988Y-134362243D01*
X131258743Y-134251488D01*
X131394390Y-134173172D01*
X131545684Y-134132633D01*
X131702316Y-134132633D01*
X131853610Y-134173172D01*
G37*
%TD.AperFunction*%
%TA.AperFunction,Profile*%
%TO.C,BOOT1*%
G36*
X132703573Y-82555448D02*
G01*
X132794005Y-82607659D01*
X132867841Y-82681495D01*
X132920052Y-82771927D01*
X132947078Y-82872790D01*
X132947078Y-82977210D01*
X132920052Y-83078073D01*
X132867841Y-83168505D01*
X132794005Y-83242341D01*
X132703573Y-83294552D01*
X132602710Y-83321578D01*
X132498290Y-83321578D01*
X132397427Y-83294552D01*
X132306995Y-83242341D01*
X132233159Y-83168505D01*
X132180948Y-83078073D01*
X132153922Y-82977210D01*
X132153922Y-82872790D01*
X132180948Y-82771927D01*
X132233159Y-82681495D01*
X132306995Y-82607659D01*
X132397427Y-82555448D01*
X132498290Y-82528422D01*
X132602710Y-82528422D01*
X132703573Y-82555448D01*
G37*
%TD.AperFunction*%
%TA.AperFunction,Profile*%
G36*
X135003573Y-82555448D02*
G01*
X135094005Y-82607659D01*
X135167841Y-82681495D01*
X135220052Y-82771927D01*
X135247078Y-82872790D01*
X135247078Y-82977210D01*
X135220052Y-83078073D01*
X135167841Y-83168505D01*
X135094005Y-83242341D01*
X135003573Y-83294552D01*
X134902710Y-83321578D01*
X134798290Y-83321578D01*
X134697427Y-83294552D01*
X134606995Y-83242341D01*
X134533159Y-83168505D01*
X134480948Y-83078073D01*
X134453922Y-82977210D01*
X134453922Y-82872790D01*
X134480948Y-82771927D01*
X134533159Y-82681495D01*
X134606995Y-82607659D01*
X134697427Y-82555448D01*
X134798290Y-82528422D01*
X134902710Y-82528422D01*
X135003573Y-82555448D01*
G37*
%TD.AperFunction*%
%TA.AperFunction,Profile*%
%TO.C,SW2*%
G36*
X201976775Y-111486157D02*
G01*
X202084162Y-111548157D01*
X202171843Y-111635838D01*
X202233843Y-111743225D01*
X202265936Y-111863000D01*
X202265936Y-111987000D01*
X202233843Y-112106775D01*
X202171843Y-112214162D01*
X202084162Y-112301843D01*
X201976775Y-112363843D01*
X201857000Y-112395936D01*
X201733000Y-112395936D01*
X201613225Y-112363843D01*
X201505838Y-112301843D01*
X201418157Y-112214162D01*
X201356157Y-112106775D01*
X201324064Y-111987000D01*
X201324064Y-111863000D01*
X201356157Y-111743225D01*
X201418157Y-111635838D01*
X201505838Y-111548157D01*
X201613225Y-111486157D01*
X201733000Y-111454064D01*
X201857000Y-111454064D01*
X201976775Y-111486157D01*
G37*
%TD.AperFunction*%
%TA.AperFunction,Profile*%
G36*
X206376775Y-111486157D02*
G01*
X206484162Y-111548157D01*
X206571843Y-111635838D01*
X206633843Y-111743225D01*
X206665936Y-111863000D01*
X206665936Y-111987000D01*
X206633843Y-112106775D01*
X206571843Y-112214162D01*
X206484162Y-112301843D01*
X206376775Y-112363843D01*
X206257000Y-112395936D01*
X206133000Y-112395936D01*
X206013225Y-112363843D01*
X205905838Y-112301843D01*
X205818157Y-112214162D01*
X205756157Y-112106775D01*
X205724064Y-111987000D01*
X205724064Y-111863000D01*
X205756157Y-111743225D01*
X205818157Y-111635838D01*
X205905838Y-111548157D01*
X206013225Y-111486157D01*
X206133000Y-111454064D01*
X206257000Y-111454064D01*
X206376775Y-111486157D01*
G37*
%TD.AperFunction*%
%TD*%
G36*
X211356694Y-94743306D02*
G01*
X211375000Y-94787500D01*
X211375000Y-124662500D01*
X211356694Y-124706694D01*
X211312500Y-124725000D01*
X168437500Y-124725000D01*
X168393306Y-124706694D01*
X168375000Y-124662500D01*
X168375000Y-111863001D01*
X201324064Y-111863001D01*
X201324064Y-111986998D01*
X201324065Y-111987006D01*
X201356155Y-112106771D01*
X201356156Y-112106774D01*
X201418158Y-112214163D01*
X201418161Y-112214167D01*
X201505832Y-112301838D01*
X201505836Y-112301841D01*
X201613225Y-112363843D01*
X201613228Y-112363844D01*
X201732993Y-112395934D01*
X201733001Y-112395936D01*
X201856999Y-112395936D01*
X201857006Y-112395934D01*
X201976771Y-112363844D01*
X201976774Y-112363843D01*
X202084163Y-112301841D01*
X202084167Y-112301838D01*
X202171838Y-112214167D01*
X202171841Y-112214163D01*
X202233843Y-112106774D01*
X202233844Y-112106771D01*
X202265934Y-111987006D01*
X202265936Y-111986998D01*
X202265936Y-111863001D01*
X205724064Y-111863001D01*
X205724064Y-111986998D01*
X205724065Y-111987006D01*
X205756155Y-112106771D01*
X205756156Y-112106774D01*
X205818158Y-112214163D01*
X205818161Y-112214167D01*
X205905832Y-112301838D01*
X205905836Y-112301841D01*
X206013225Y-112363843D01*
X206013228Y-112363844D01*
X206132993Y-112395934D01*
X206133001Y-112395936D01*
X206256999Y-112395936D01*
X206257006Y-112395934D01*
X206376771Y-112363844D01*
X206376774Y-112363843D01*
X206484163Y-112301841D01*
X206484167Y-112301838D01*
X206571838Y-112214167D01*
X206571841Y-112214163D01*
X206633843Y-112106774D01*
X206633844Y-112106771D01*
X206665934Y-111987006D01*
X206665936Y-111986998D01*
X206665936Y-111863001D01*
X206665934Y-111862993D01*
X206633844Y-111743228D01*
X206633843Y-111743225D01*
X206571841Y-111635836D01*
X206571838Y-111635832D01*
X206484167Y-111548161D01*
X206484163Y-111548158D01*
X206376774Y-111486156D01*
X206376771Y-111486155D01*
X206257006Y-111454065D01*
X206256999Y-111454064D01*
X206133001Y-111454064D01*
X206132993Y-111454065D01*
X206013228Y-111486155D01*
X206013225Y-111486156D01*
X205905836Y-111548158D01*
X205905832Y-111548161D01*
X205818161Y-111635832D01*
X205818158Y-111635836D01*
X205756156Y-111743225D01*
X205756155Y-111743228D01*
X205724065Y-111862993D01*
X205724064Y-111863001D01*
X202265936Y-111863001D01*
X202265934Y-111862993D01*
X202233844Y-111743228D01*
X202233843Y-111743225D01*
X202171841Y-111635836D01*
X202171838Y-111635832D01*
X202084167Y-111548161D01*
X202084163Y-111548158D01*
X201976774Y-111486156D01*
X201976771Y-111486155D01*
X201857006Y-111454065D01*
X201856999Y-111454064D01*
X201733001Y-111454064D01*
X201732993Y-111454065D01*
X201613228Y-111486155D01*
X201613225Y-111486156D01*
X201505836Y-111548158D01*
X201505832Y-111548161D01*
X201418161Y-111635832D01*
X201418158Y-111635836D01*
X201356156Y-111743225D01*
X201356155Y-111743228D01*
X201324065Y-111862993D01*
X201324064Y-111863001D01*
X168375000Y-111863001D01*
X168375000Y-94787500D01*
X168393306Y-94743306D01*
X168437500Y-94725000D01*
X211312500Y-94725000D01*
X211356694Y-94743306D01*
G37*
G36*
X162106694Y-79743306D02*
G01*
X162125000Y-79787500D01*
X162125000Y-85695000D01*
X162106694Y-85739194D01*
X162062500Y-85757500D01*
X144187500Y-85757500D01*
X144143306Y-85739194D01*
X144125000Y-85695000D01*
X144125000Y-79787500D01*
X144143306Y-79743306D01*
X144187500Y-79725000D01*
X162062500Y-79725000D01*
X162106694Y-79743306D01*
G37*
M02*
