<?xml version="1.0" standalone="no"?>
 <!DOCTYPE svg PUBLIC "-//W3C//DTD SVG 1.1//EN" 
 "http://www.w3.org/Graphics/SVG/1.1/DTD/svg11.dtd"> 
<svg
  xmlns:svg="http://www.w3.org/2000/svg"
  xmlns="http://www.w3.org/2000/svg"
  xmlns:xlink="http://www.w3.org/1999/xlink"
  xmlns:inkscape="http://www.inkscape.org/namespaces/inkscape"
  version="1.1"
  width="297.0022mm" height="210.0072mm" viewBox="0.0000 0.0000 297.0022 210.0072">
<title>SVG Image created as Cadenza-L1-Screen-Only-NPTH-drl_map.svg date 2026-07-22T13:08:44 </title>
  <desc>Image generated by PCBNEW </desc>
<g style="fill:#000000; fill-opacity:1.0000;stroke:#000000; stroke-opacity:1.0000;
stroke-linecap:round; stroke-linejoin:round;"
 transform="translate(0 0) scale(1 1)">
</g>
<g style="fill:none; 
stroke:#000000; stroke-width:0.4890; stroke-opacity:1; 
stroke-linecap:round; stroke-linejoin:round;">
<path d="M23.3595 24.4971
L23.3595 101.5073
" />
<path d="M42.6121 5.2445 A19.2526 19.2526 0.0 0 0 23.3595 24.4971" />
<path d="M42.6121 5.2445
L254.3901 5.2445
" />
<path d="M23.3595 101.5073 A19.2526 19.2526 0.0 0 0 42.6121 120.7598" />
<path d="M42.6121 120.7598
L254.3901 120.7598
" />
<path d="M273.6427 24.4971 A19.2526 19.2526 0.0 0 0 254.3901 5.2445" />
<path d="M273.6427 24.4971
L273.6427 101.5073
" />
<path d="M254.3901 120.7598 A19.2526 19.2526 0.0 0 0 273.6427 101.5073" />
<path style="fill:#000000; fill-opacity:1.0000; stroke:none;fill-rule:evenodd;"
d="M 52.8027,26.6258
52.9089,26.7321
52.9664,26.8709
52.9664,27.0211
52.9089,27.1599
52.8027,27.2661
52.6639,27.3236
52.5136,27.3236
52.3748,27.2661
52.2686,27.1599
52.2111,27.0211
52.2111,26.8709
52.2686,26.7321
52.3748,26.6258
52.5136,26.5683
52.6639,26.5683
Z" /> 
<path style="fill:#000000; fill-opacity:1.0000; stroke:none;fill-rule:evenodd;"
d="M 183.9798,10.6929
184.1539,10.7934
184.2961,10.9356
184.3966,11.1097
184.4486,11.3038
184.4486,11.5049
184.3966,11.6991
184.2961,11.8732
184.1539,12.0153
183.9798,12.1158
183.7857,12.1679
183.5846,12.1679
183.3904,12.1158
183.2163,12.0153
183.0742,11.8732
182.9737,11.6991
182.9216,11.5049
182.9216,11.3038
182.9737,11.1097
183.0742,10.9356
183.2163,10.7934
183.3904,10.6929
183.5846,10.6408
183.7857,10.6408
Z" /> 
<path style="fill:#000000; fill-opacity:1.0000; stroke:none;fill-rule:evenodd;"
d="M 188.4079,10.6929
188.5820,10.7934
188.7242,10.9356
188.8247,11.1097
188.8767,11.3038
188.8767,11.5049
188.8247,11.6991
188.7242,11.8732
188.5820,12.0153
188.4079,12.1158
188.2137,12.1679
188.0127,12.1679
187.8185,12.1158
187.6444,12.0153
187.5023,11.8732
187.4017,11.6991
187.3497,11.5049
187.3497,11.3038
187.4017,11.1097
187.5023,10.9356
187.6444,10.7934
187.8185,10.6929
188.0127,10.6408
188.2137,10.6408
Z" /> 
<path style="fill:#000000; fill-opacity:1.0000; stroke:none;fill-rule:evenodd;"
d="M 92.1462,110.0711
92.4074,110.2219
92.6206,110.4351
92.7714,110.6963
92.8494,110.9876
92.8494,111.2891
92.7714,111.5804
92.6206,111.8416
92.4074,112.0548
92.1462,112.2056
91.8549,112.2836
91.5534,112.2836
91.2621,112.2056
91.0009,112.0548
90.7877,111.8416
90.6369,111.5804
90.5589,111.2891
90.5589,110.9876
90.6369,110.6963
90.7877,110.4351
91.0009,110.2219
91.2621,110.0711
91.5534,109.9931
91.8549,109.9931
Z" /> 
<path style="fill:#000000; fill-opacity:1.0000; stroke:none;fill-rule:evenodd;"
d="M 107.5482,110.0711
107.8094,110.2219
108.0226,110.4351
108.1734,110.6963
108.2515,110.9876
108.2515,111.2891
108.1734,111.5804
108.0226,111.8416
107.8094,112.0548
107.5482,112.2056
107.2570,112.2836
106.9554,112.2836
106.6641,112.2056
106.4030,112.0548
106.1897,111.8416
106.0390,111.5804
105.9609,111.2891
105.9609,110.9876
106.0390,110.6963
106.1897,110.4351
106.4030,110.2219
106.6641,110.0711
106.9554,109.9931
107.2570,109.9931
Z" /> 
<path style="fill:#000000; fill-opacity:1.0000; stroke:none;fill-rule:evenodd;"
d="M 109.1846,10.6938
109.3587,10.7944
109.5009,10.9365
109.6014,11.1106
109.6535,11.3048
109.6535,11.5058
109.6014,11.7000
109.5009,11.8741
109.3587,12.0163
109.1846,12.1168
108.9905,12.1688
108.7894,12.1688
108.5952,12.1168
108.4211,12.0163
108.2790,11.8741
108.1785,11.7000
108.1264,11.5058
108.1264,11.3048
108.1785,11.1106
108.2790,10.9365
108.4211,10.7944
108.5952,10.6938
108.7894,10.6418
108.9905,10.6418
Z" /> 
<path style="fill:#000000; fill-opacity:1.0000; stroke:none;fill-rule:evenodd;"
d="M 113.6127,10.6938
113.7868,10.7944
113.9290,10.9365
114.0295,11.1106
114.0815,11.3048
114.0815,11.5058
114.0295,11.7000
113.9290,11.8741
113.7868,12.0163
113.6127,12.1168
113.4185,12.1688
113.2175,12.1688
113.0233,12.1168
112.8492,12.0163
112.7071,11.8741
112.6065,11.7000
112.5545,11.5058
112.5545,11.3048
112.6065,11.1106
112.7071,10.9365
112.8492,10.7944
113.0233,10.6938
113.2175,10.6418
113.4185,10.6418
Z" /> 
<path style="fill:#000000; fill-opacity:1.0000; stroke:none;fill-rule:evenodd;"
d="M 242.5532,66.3928
242.7600,66.5122
242.9288,66.6810
243.0481,66.8878
243.1099,67.1184
243.1099,67.3571
243.0481,67.5877
242.9288,67.7944
242.7600,67.9632
242.5532,68.0826
242.3226,68.1444
242.0839,68.1444
241.8533,68.0826
241.6466,67.9632
241.4777,67.7944
241.3584,67.5877
241.2966,67.3571
241.2966,67.1184
241.3584,66.8878
241.4777,66.6810
241.6466,66.5122
241.8533,66.3928
242.0839,66.3310
242.3226,66.3310
Z" /> 
<path style="fill:#000000; fill-opacity:1.0000; stroke:none;fill-rule:evenodd;"
d="M 251.0243,66.3928
251.2311,66.5122
251.3999,66.6810
251.5193,66.8878
251.5811,67.1184
251.5811,67.3571
251.5193,67.5877
251.3999,67.7944
251.2311,67.9632
251.0243,68.0826
250.7938,68.1444
250.5550,68.1444
250.3244,68.0826
250.1177,67.9632
249.9489,67.7944
249.8295,67.5877
249.7677,67.3571
249.7677,67.1184
249.8295,66.8878
249.9489,66.6810
250.1177,66.5122
250.3244,66.3928
250.5550,66.3310
250.7938,66.3310
Z" /> 
</g>
<g style="fill:none; 
stroke:#000000; stroke-width:0.3851; stroke-opacity:1; 
stroke-linecap:round; stroke-linejoin:round;">
<path d="M31.0605 12.9455
L34.9110 16.7960
" />
<path d="M34.9110 12.9455
L31.0605 16.7960
" />
<path d="M31.0605 109.2083
L34.9110 113.0588
" />
<path d="M34.9110 109.2083
L31.0605 113.0588
" />
<path d="M262.0911 12.9455
L265.9417 16.7960
" />
<path d="M265.9417 12.9455
L262.0911 16.7960
" />
<path d="M262.0911 109.2083
L265.9417 113.0588
" />
<path d="M265.9417 109.2083
L262.0911 113.0588
" />
</g>
<g style="fill:none; 
stroke:#000000; stroke-width:0.2000; stroke-opacity:1; 
stroke-linecap:round; stroke-linejoin:round;">
<text x="25.1150" y="124.2043"
textLength="14.8667" font-size="2.6667" lengthAdjust="spacingAndGlyphs"
text-anchor="start" opacity="0" stroke-opacity="0">Drill Map:</text>
<g class="stroked-text"><desc>Drill Map:</desc>
<path d="M25.7228 124.1192
L25.7228 122.1192
" />
<path d="M25.7228 122.1192
L26.1990 122.1192
" />
<path d="M26.1990 122.1192
L26.4847 122.2144
" />
<path d="M26.4847 122.2144
L26.6752 122.4049
" />
<path d="M26.6752 122.4049
L26.7704 122.5953
" />
<path d="M26.7704 122.5953
L26.8656 122.9763
" />
<path d="M26.8656 122.9763
L26.8656 123.2620
" />
<path d="M26.8656 123.2620
L26.7704 123.6430
" />
<path d="M26.7704 123.6430
L26.6752 123.8334
" />
<path d="M26.6752 123.8334
L26.4847 124.0239
" />
<path d="M26.4847 124.0239
L26.1990 124.1192
" />
<path d="M26.1990 124.1192
L25.7228 124.1192
" />
<path d="M27.7228 124.1192
L27.7228 122.7858
" />
<path d="M27.7228 123.1668
L27.8180 122.9763
" />
<path d="M27.8180 122.9763
L27.9133 122.8811
" />
<path d="M27.9133 122.8811
L28.1037 122.7858
" />
<path d="M28.1037 122.7858
L28.2942 122.7858
" />
<path d="M28.9609 124.1192
L28.9609 122.7858
" />
<path d="M28.9609 122.1192
L28.8656 122.2144
" />
<path d="M28.8656 122.2144
L28.9609 122.3096
" />
<path d="M28.9609 122.3096
L29.0561 122.2144
" />
<path d="M29.0561 122.2144
L28.9609 122.1192
" />
<path d="M28.9609 122.1192
L28.9609 122.3096
" />
<path d="M30.1990 124.1192
L30.0085 124.0239
" />
<path d="M30.0085 124.0239
L29.9133 123.8334
" />
<path d="M29.9133 123.8334
L29.9133 122.1192
" />
<path d="M31.2466 124.1192
L31.0561 124.0239
" />
<path d="M31.0561 124.0239
L30.9609 123.8334
" />
<path d="M30.9609 123.8334
L30.9609 122.1192
" />
<path d="M33.5323 124.1192
L33.5323 122.1192
" />
<path d="M33.5323 122.1192
L34.1990 123.5477
" />
<path d="M34.1990 123.5477
L34.8656 122.1192
" />
<path d="M34.8656 122.1192
L34.8656 124.1192
" />
<path d="M36.6752 124.1192
L36.6752 123.0715
" />
<path d="M36.6752 123.0715
L36.5799 122.8811
" />
<path d="M36.5799 122.8811
L36.3894 122.7858
" />
<path d="M36.3894 122.7858
L36.0085 122.7858
" />
<path d="M36.0085 122.7858
L35.8180 122.8811
" />
<path d="M36.6752 124.0239
L36.4847 124.1192
" />
<path d="M36.4847 124.1192
L36.0085 124.1192
" />
<path d="M36.0085 124.1192
L35.8180 124.0239
" />
<path d="M35.8180 124.0239
L35.7228 123.8334
" />
<path d="M35.7228 123.8334
L35.7228 123.6430
" />
<path d="M35.7228 123.6430
L35.8180 123.4525
" />
<path d="M35.8180 123.4525
L36.0085 123.3573
" />
<path d="M36.0085 123.3573
L36.4847 123.3573
" />
<path d="M36.4847 123.3573
L36.6752 123.2620
" />
<path d="M37.6275 122.7858
L37.6275 124.7858
" />
<path d="M37.6275 122.8811
L37.8180 122.7858
" />
<path d="M37.8180 122.7858
L38.1990 122.7858
" />
<path d="M38.1990 122.7858
L38.3894 122.8811
" />
<path d="M38.3894 122.8811
L38.4847 122.9763
" />
<path d="M38.4847 122.9763
L38.5799 123.1668
" />
<path d="M38.5799 123.1668
L38.5799 123.7382
" />
<path d="M38.5799 123.7382
L38.4847 123.9287
" />
<path d="M38.4847 123.9287
L38.3894 124.0239
" />
<path d="M38.3894 124.0239
L38.1990 124.1192
" />
<path d="M38.1990 124.1192
L37.8180 124.1192
" />
<path d="M37.8180 124.1192
L37.6275 124.0239
" />
<path d="M39.4371 123.9287
L39.5323 124.0239
" />
<path d="M39.5323 124.0239
L39.4371 124.1192
" />
<path d="M39.4371 124.1192
L39.3418 124.0239
" />
<path d="M39.3418 124.0239
L39.4371 123.9287
" />
<path d="M39.4371 123.9287
L39.4371 124.1192
" />
<path d="M39.4371 122.8811
L39.5323 122.9763
" />
<path d="M39.5323 122.9763
L39.4371 123.0715
" />
<path d="M39.4371 123.0715
L39.3418 122.9763
" />
<path d="M39.3418 122.9763
L39.4371 122.8811
" />
<path d="M39.4371 122.8811
L39.4371 123.0715
" />
</g><path d="M21.1150 126.4043
L23.1150 128.4043
" />
<path d="M23.1150 126.4043
L21.1150 128.4043
" />
</g>
<g style="fill:none; 
stroke:#000000; stroke-width:0.2000; stroke-opacity:1; 
stroke-linecap:round; stroke-linejoin:round;">
<text x="25.1150" y="128.4043"
textLength="66.6762" font-size="2.6667" lengthAdjust="spacingAndGlyphs"
text-anchor="start" opacity="0" stroke-opacity="0">2.000mm / 0.0787" (4 holes) (not plated)</text>
<g class="stroked-text"><desc>2.000mm / 0.0787" (4 holes) (not plated)</desc>
<path d="M25.6275 126.5096
L25.7228 126.4144
" />
<path d="M25.7228 126.4144
L25.9133 126.3192
" />
<path d="M25.9133 126.3192
L26.3894 126.3192
" />
<path d="M26.3894 126.3192
L26.5799 126.4144
" />
<path d="M26.5799 126.4144
L26.6752 126.5096
" />
<path d="M26.6752 126.5096
L26.7704 126.7001
" />
<path d="M26.7704 126.7001
L26.7704 126.8906
" />
<path d="M26.7704 126.8906
L26.6752 127.1763
" />
<path d="M26.6752 127.1763
L25.5323 128.3192
" />
<path d="M25.5323 128.3192
L26.7704 128.3192
" />
<path d="M27.6275 128.1287
L27.7228 128.2239
" />
<path d="M27.7228 128.2239
L27.6275 128.3192
" />
<path d="M27.6275 128.3192
L27.5323 128.2239
" />
<path d="M27.5323 128.2239
L27.6275 128.1287
" />
<path d="M27.6275 128.1287
L27.6275 128.3192
" />
<path d="M28.9609 126.3192
L29.1513 126.3192
" />
<path d="M29.1513 126.3192
L29.3418 126.4144
" />
<path d="M29.3418 126.4144
L29.4371 126.5096
" />
<path d="M29.4371 126.5096
L29.5323 126.7001
" />
<path d="M29.5323 126.7001
L29.6275 127.0811
" />
<path d="M29.6275 127.0811
L29.6275 127.5572
" />
<path d="M29.6275 127.5572
L29.5323 127.9382
" />
<path d="M29.5323 127.9382
L29.4371 128.1287
" />
<path d="M29.4371 128.1287
L29.3418 128.2239
" />
<path d="M29.3418 128.2239
L29.1513 128.3192
" />
<path d="M29.1513 128.3192
L28.9609 128.3192
" />
<path d="M28.9609 128.3192
L28.7704 128.2239
" />
<path d="M28.7704 128.2239
L28.6752 128.1287
" />
<path d="M28.6752 128.1287
L28.5799 127.9382
" />
<path d="M28.5799 127.9382
L28.4847 127.5572
" />
<path d="M28.4847 127.5572
L28.4847 127.0811
" />
<path d="M28.4847 127.0811
L28.5799 126.7001
" />
<path d="M28.5799 126.7001
L28.6752 126.5096
" />
<path d="M28.6752 126.5096
L28.7704 126.4144
" />
<path d="M28.7704 126.4144
L28.9609 126.3192
" />
<path d="M30.8656 126.3192
L31.0561 126.3192
" />
<path d="M31.0561 126.3192
L31.2466 126.4144
" />
<path d="M31.2466 126.4144
L31.3418 126.5096
" />
<path d="M31.3418 126.5096
L31.4371 126.7001
" />
<path d="M31.4371 126.7001
L31.5323 127.0811
" />
<path d="M31.5323 127.0811
L31.5323 127.5572
" />
<path d="M31.5323 127.5572
L31.4371 127.9382
" />
<path d="M31.4371 127.9382
L31.3418 128.1287
" />
<path d="M31.3418 128.1287
L31.2466 128.2239
" />
<path d="M31.2466 128.2239
L31.0561 128.3192
" />
<path d="M31.0561 128.3192
L30.8656 128.3192
" />
<path d="M30.8656 128.3192
L30.6752 128.2239
" />
<path d="M30.6752 128.2239
L30.5799 128.1287
" />
<path d="M30.5799 128.1287
L30.4847 127.9382
" />
<path d="M30.4847 127.9382
L30.3894 127.5572
" />
<path d="M30.3894 127.5572
L30.3894 127.0811
" />
<path d="M30.3894 127.0811
L30.4847 126.7001
" />
<path d="M30.4847 126.7001
L30.5799 126.5096
" />
<path d="M30.5799 126.5096
L30.6752 126.4144
" />
<path d="M30.6752 126.4144
L30.8656 126.3192
" />
<path d="M32.7704 126.3192
L32.9609 126.3192
" />
<path d="M32.9609 126.3192
L33.1513 126.4144
" />
<path d="M33.1513 126.4144
L33.2466 126.5096
" />
<path d="M33.2466 126.5096
L33.3418 126.7001
" />
<path d="M33.3418 126.7001
L33.4371 127.0811
" />
<path d="M33.4371 127.0811
L33.4371 127.5572
" />
<path d="M33.4371 127.5572
L33.3418 127.9382
" />
<path d="M33.3418 127.9382
L33.2466 128.1287
" />
<path d="M33.2466 128.1287
L33.1513 128.2239
" />
<path d="M33.1513 128.2239
L32.9609 128.3192
" />
<path d="M32.9609 128.3192
L32.7704 128.3192
" />
<path d="M32.7704 128.3192
L32.5799 128.2239
" />
<path d="M32.5799 128.2239
L32.4847 128.1287
" />
<path d="M32.4847 128.1287
L32.3894 127.9382
" />
<path d="M32.3894 127.9382
L32.2942 127.5572
" />
<path d="M32.2942 127.5572
L32.2942 127.0811
" />
<path d="M32.2942 127.0811
L32.3894 126.7001
" />
<path d="M32.3894 126.7001
L32.4847 126.5096
" />
<path d="M32.4847 126.5096
L32.5799 126.4144
" />
<path d="M32.5799 126.4144
L32.7704 126.3192
" />
<path d="M34.2942 128.3192
L34.2942 126.9858
" />
<path d="M34.2942 127.1763
L34.3894 127.0811
" />
<path d="M34.3894 127.0811
L34.5799 126.9858
" />
<path d="M34.5799 126.9858
L34.8656 126.9858
" />
<path d="M34.8656 126.9858
L35.0561 127.0811
" />
<path d="M35.0561 127.0811
L35.1513 127.2715
" />
<path d="M35.1513 127.2715
L35.1513 128.3192
" />
<path d="M35.1513 127.2715
L35.2466 127.0811
" />
<path d="M35.2466 127.0811
L35.4371 126.9858
" />
<path d="M35.4371 126.9858
L35.7228 126.9858
" />
<path d="M35.7228 126.9858
L35.9132 127.0811
" />
<path d="M35.9132 127.0811
L36.0085 127.2715
" />
<path d="M36.0085 127.2715
L36.0085 128.3192
" />
<path d="M36.9609 128.3192
L36.9609 126.9858
" />
<path d="M36.9609 127.1763
L37.0561 127.0811
" />
<path d="M37.0561 127.0811
L37.2466 126.9858
" />
<path d="M37.2466 126.9858
L37.5323 126.9858
" />
<path d="M37.5323 126.9858
L37.7228 127.0811
" />
<path d="M37.7228 127.0811
L37.8180 127.2715
" />
<path d="M37.8180 127.2715
L37.8180 128.3192
" />
<path d="M37.8180 127.2715
L37.9132 127.0811
" />
<path d="M37.9132 127.0811
L38.1037 126.9858
" />
<path d="M38.1037 126.9858
L38.3894 126.9858
" />
<path d="M38.3894 126.9858
L38.5799 127.0811
" />
<path d="M38.5799 127.0811
L38.6752 127.2715
" />
<path d="M38.6752 127.2715
L38.6752 128.3192
" />
<path d="M42.5799 126.2239
L40.8656 128.7953
" />
<path d="M45.1513 126.3192
L45.3418 126.3192
" />
<path d="M45.3418 126.3192
L45.5323 126.4144
" />
<path d="M45.5323 126.4144
L45.6275 126.5096
" />
<path d="M45.6275 126.5096
L45.7228 126.7001
" />
<path d="M45.7228 126.7001
L45.8180 127.0811
" />
<path d="M45.8180 127.0811
L45.8180 127.5572
" />
<path d="M45.8180 127.5572
L45.7228 127.9382
" />
<path d="M45.7228 127.9382
L45.6275 128.1287
" />
<path d="M45.6275 128.1287
L45.5323 128.2239
" />
<path d="M45.5323 128.2239
L45.3418 128.3192
" />
<path d="M45.3418 128.3192
L45.1513 128.3192
" />
<path d="M45.1513 128.3192
L44.9609 128.2239
" />
<path d="M44.9609 128.2239
L44.8656 128.1287
" />
<path d="M44.8656 128.1287
L44.7704 127.9382
" />
<path d="M44.7704 127.9382
L44.6751 127.5572
" />
<path d="M44.6751 127.5572
L44.6751 127.0811
" />
<path d="M44.6751 127.0811
L44.7704 126.7001
" />
<path d="M44.7704 126.7001
L44.8656 126.5096
" />
<path d="M44.8656 126.5096
L44.9609 126.4144
" />
<path d="M44.9609 126.4144
L45.1513 126.3192
" />
<path d="M46.6751 128.1287
L46.7704 128.2239
" />
<path d="M46.7704 128.2239
L46.6751 128.3192
" />
<path d="M46.6751 128.3192
L46.5799 128.2239
" />
<path d="M46.5799 128.2239
L46.6751 128.1287
" />
<path d="M46.6751 128.1287
L46.6751 128.3192
" />
<path d="M48.0085 126.3192
L48.1990 126.3192
" />
<path d="M48.1990 126.3192
L48.3894 126.4144
" />
<path d="M48.3894 126.4144
L48.4847 126.5096
" />
<path d="M48.4847 126.5096
L48.5799 126.7001
" />
<path d="M48.5799 126.7001
L48.6751 127.0811
" />
<path d="M48.6751 127.0811
L48.6751 127.5572
" />
<path d="M48.6751 127.5572
L48.5799 127.9382
" />
<path d="M48.5799 127.9382
L48.4847 128.1287
" />
<path d="M48.4847 128.1287
L48.3894 128.2239
" />
<path d="M48.3894 128.2239
L48.1990 128.3192
" />
<path d="M48.1990 128.3192
L48.0085 128.3192
" />
<path d="M48.0085 128.3192
L47.8180 128.2239
" />
<path d="M47.8180 128.2239
L47.7228 128.1287
" />
<path d="M47.7228 128.1287
L47.6275 127.9382
" />
<path d="M47.6275 127.9382
L47.5323 127.5572
" />
<path d="M47.5323 127.5572
L47.5323 127.0811
" />
<path d="M47.5323 127.0811
L47.6275 126.7001
" />
<path d="M47.6275 126.7001
L47.7228 126.5096
" />
<path d="M47.7228 126.5096
L47.8180 126.4144
" />
<path d="M47.8180 126.4144
L48.0085 126.3192
" />
<path d="M49.3418 126.3192
L50.6751 126.3192
" />
<path d="M50.6751 126.3192
L49.8180 128.3192
" />
<path d="M51.7228 127.1763
L51.5323 127.0811
" />
<path d="M51.5323 127.0811
L51.4370 126.9858
" />
<path d="M51.4370 126.9858
L51.3418 126.7953
" />
<path d="M51.3418 126.7953
L51.3418 126.7001
" />
<path d="M51.3418 126.7001
L51.4370 126.5096
" />
<path d="M51.4370 126.5096
L51.5323 126.4144
" />
<path d="M51.5323 126.4144
L51.7228 126.3192
" />
<path d="M51.7228 126.3192
L52.1037 126.3192
" />
<path d="M52.1037 126.3192
L52.2942 126.4144
" />
<path d="M52.2942 126.4144
L52.3894 126.5096
" />
<path d="M52.3894 126.5096
L52.4847 126.7001
" />
<path d="M52.4847 126.7001
L52.4847 126.7953
" />
<path d="M52.4847 126.7953
L52.3894 126.9858
" />
<path d="M52.3894 126.9858
L52.2942 127.0811
" />
<path d="M52.2942 127.0811
L52.1037 127.1763
" />
<path d="M52.1037 127.1763
L51.7228 127.1763
" />
<path d="M51.7228 127.1763
L51.5323 127.2715
" />
<path d="M51.5323 127.2715
L51.4370 127.3668
" />
<path d="M51.4370 127.3668
L51.3418 127.5572
" />
<path d="M51.3418 127.5572
L51.3418 127.9382
" />
<path d="M51.3418 127.9382
L51.4370 128.1287
" />
<path d="M51.4370 128.1287
L51.5323 128.2239
" />
<path d="M51.5323 128.2239
L51.7228 128.3192
" />
<path d="M51.7228 128.3192
L52.1037 128.3192
" />
<path d="M52.1037 128.3192
L52.2942 128.2239
" />
<path d="M52.2942 128.2239
L52.3894 128.1287
" />
<path d="M52.3894 128.1287
L52.4847 127.9382
" />
<path d="M52.4847 127.9382
L52.4847 127.5572
" />
<path d="M52.4847 127.5572
L52.3894 127.3668
" />
<path d="M52.3894 127.3668
L52.2942 127.2715
" />
<path d="M52.2942 127.2715
L52.1037 127.1763
" />
<path d="M53.1513 126.3192
L54.4847 126.3192
" />
<path d="M54.4847 126.3192
L53.6275 128.3192
" />
<path d="M55.1513 126.3192
L55.1513 126.7001
" />
<path d="M55.9132 126.3192
L55.9132 126.7001
" />
<path d="M58.8656 129.0811
L58.7704 128.9858
" />
<path d="M58.7704 128.9858
L58.5799 128.7001
" />
<path d="M58.5799 128.7001
L58.4847 128.5096
" />
<path d="M58.4847 128.5096
L58.3894 128.2239
" />
<path d="M58.3894 128.2239
L58.2942 127.7477
" />
<path d="M58.2942 127.7477
L58.2942 127.3668
" />
<path d="M58.2942 127.3668
L58.3894 126.8906
" />
<path d="M58.3894 126.8906
L58.4847 126.6049
" />
<path d="M58.4847 126.6049
L58.5799 126.4144
" />
<path d="M58.5799 126.4144
L58.7704 126.1287
" />
<path d="M58.7704 126.1287
L58.8656 126.0334
" />
<path d="M60.4847 126.9858
L60.4847 128.3192
" />
<path d="M60.0085 126.2239
L59.5323 127.6525
" />
<path d="M59.5323 127.6525
L60.7704 127.6525
" />
<path d="M63.0561 128.3192
L63.0561 126.3192
" />
<path d="M63.9132 128.3192
L63.9132 127.2715
" />
<path d="M63.9132 127.2715
L63.8180 127.0811
" />
<path d="M63.8180 127.0811
L63.6275 126.9858
" />
<path d="M63.6275 126.9858
L63.3418 126.9858
" />
<path d="M63.3418 126.9858
L63.1513 127.0811
" />
<path d="M63.1513 127.0811
L63.0561 127.1763
" />
<path d="M65.1513 128.3192
L64.9609 128.2239
" />
<path d="M64.9609 128.2239
L64.8656 128.1287
" />
<path d="M64.8656 128.1287
L64.7704 127.9382
" />
<path d="M64.7704 127.9382
L64.7704 127.3668
" />
<path d="M64.7704 127.3668
L64.8656 127.1763
" />
<path d="M64.8656 127.1763
L64.9609 127.0811
" />
<path d="M64.9609 127.0811
L65.1513 126.9858
" />
<path d="M65.1513 126.9858
L65.4370 126.9858
" />
<path d="M65.4370 126.9858
L65.6275 127.0811
" />
<path d="M65.6275 127.0811
L65.7228 127.1763
" />
<path d="M65.7228 127.1763
L65.8180 127.3668
" />
<path d="M65.8180 127.3668
L65.8180 127.9382
" />
<path d="M65.8180 127.9382
L65.7228 128.1287
" />
<path d="M65.7228 128.1287
L65.6275 128.2239
" />
<path d="M65.6275 128.2239
L65.4370 128.3192
" />
<path d="M65.4370 128.3192
L65.1513 128.3192
" />
<path d="M66.9609 128.3192
L66.7704 128.2239
" />
<path d="M66.7704 128.2239
L66.6751 128.0334
" />
<path d="M66.6751 128.0334
L66.6751 126.3192
" />
<path d="M68.4847 128.2239
L68.2942 128.3192
" />
<path d="M68.2942 128.3192
L67.9132 128.3192
" />
<path d="M67.9132 128.3192
L67.7228 128.2239
" />
<path d="M67.7228 128.2239
L67.6275 128.0334
" />
<path d="M67.6275 128.0334
L67.6275 127.2715
" />
<path d="M67.6275 127.2715
L67.7228 127.0811
" />
<path d="M67.7228 127.0811
L67.9132 126.9858
" />
<path d="M67.9132 126.9858
L68.2942 126.9858
" />
<path d="M68.2942 126.9858
L68.4847 127.0811
" />
<path d="M68.4847 127.0811
L68.5799 127.2715
" />
<path d="M68.5799 127.2715
L68.5799 127.4620
" />
<path d="M68.5799 127.4620
L67.6275 127.6525
" />
<path d="M69.3418 128.2239
L69.5323 128.3192
" />
<path d="M69.5323 128.3192
L69.9132 128.3192
" />
<path d="M69.9132 128.3192
L70.1037 128.2239
" />
<path d="M70.1037 128.2239
L70.1989 128.0334
" />
<path d="M70.1989 128.0334
L70.1989 127.9382
" />
<path d="M70.1989 127.9382
L70.1037 127.7477
" />
<path d="M70.1037 127.7477
L69.9132 127.6525
" />
<path d="M69.9132 127.6525
L69.6275 127.6525
" />
<path d="M69.6275 127.6525
L69.4370 127.5572
" />
<path d="M69.4370 127.5572
L69.3418 127.3668
" />
<path d="M69.3418 127.3668
L69.3418 127.2715
" />
<path d="M69.3418 127.2715
L69.4370 127.0811
" />
<path d="M69.4370 127.0811
L69.6275 126.9858
" />
<path d="M69.6275 126.9858
L69.9132 126.9858
" />
<path d="M69.9132 126.9858
L70.1037 127.0811
" />
<path d="M70.8656 129.0811
L70.9608 128.9858
" />
<path d="M70.9608 128.9858
L71.1513 128.7001
" />
<path d="M71.1513 128.7001
L71.2466 128.5096
" />
<path d="M71.2466 128.5096
L71.3418 128.2239
" />
<path d="M71.3418 128.2239
L71.4370 127.7477
" />
<path d="M71.4370 127.7477
L71.4370 127.3668
" />
<path d="M71.4370 127.3668
L71.3418 126.8906
" />
<path d="M71.3418 126.8906
L71.2466 126.6049
" />
<path d="M71.2466 126.6049
L71.1513 126.4144
" />
<path d="M71.1513 126.4144
L70.9608 126.1287
" />
<path d="M70.9608 126.1287
L70.8656 126.0334
" />
<path d="M74.4847 129.0811
L74.3894 128.9858
" />
<path d="M74.3894 128.9858
L74.1989 128.7001
" />
<path d="M74.1989 128.7001
L74.1037 128.5096
" />
<path d="M74.1037 128.5096
L74.0085 128.2239
" />
<path d="M74.0085 128.2239
L73.9132 127.7477
" />
<path d="M73.9132 127.7477
L73.9132 127.3668
" />
<path d="M73.9132 127.3668
L74.0085 126.8906
" />
<path d="M74.0085 126.8906
L74.1037 126.6049
" />
<path d="M74.1037 126.6049
L74.1989 126.4144
" />
<path d="M74.1989 126.4144
L74.3894 126.1287
" />
<path d="M74.3894 126.1287
L74.4847 126.0334
" />
<path d="M75.2466 126.9858
L75.2466 128.3192
" />
<path d="M75.2466 127.1763
L75.3418 127.0811
" />
<path d="M75.3418 127.0811
L75.5323 126.9858
" />
<path d="M75.5323 126.9858
L75.8180 126.9858
" />
<path d="M75.8180 126.9858
L76.0085 127.0811
" />
<path d="M76.0085 127.0811
L76.1037 127.2715
" />
<path d="M76.1037 127.2715
L76.1037 128.3192
" />
<path d="M77.3418 128.3192
L77.1513 128.2239
" />
<path d="M77.1513 128.2239
L77.0561 128.1287
" />
<path d="M77.0561 128.1287
L76.9608 127.9382
" />
<path d="M76.9608 127.9382
L76.9608 127.3668
" />
<path d="M76.9608 127.3668
L77.0561 127.1763
" />
<path d="M77.0561 127.1763
L77.1513 127.0811
" />
<path d="M77.1513 127.0811
L77.3418 126.9858
" />
<path d="M77.3418 126.9858
L77.6275 126.9858
" />
<path d="M77.6275 126.9858
L77.8180 127.0811
" />
<path d="M77.8180 127.0811
L77.9132 127.1763
" />
<path d="M77.9132 127.1763
L78.0085 127.3668
" />
<path d="M78.0085 127.3668
L78.0085 127.9382
" />
<path d="M78.0085 127.9382
L77.9132 128.1287
" />
<path d="M77.9132 128.1287
L77.8180 128.2239
" />
<path d="M77.8180 128.2239
L77.6275 128.3192
" />
<path d="M77.6275 128.3192
L77.3418 128.3192
" />
<path d="M78.5799 126.9858
L79.3418 126.9858
" />
<path d="M78.8656 126.3192
L78.8656 128.0334
" />
<path d="M78.8656 128.0334
L78.9608 128.2239
" />
<path d="M78.9608 128.2239
L79.1513 128.3192
" />
<path d="M79.1513 128.3192
L79.3418 128.3192
" />
<path d="M81.5323 126.9858
L81.5323 128.9858
" />
<path d="M81.5323 127.0811
L81.7227 126.9858
" />
<path d="M81.7227 126.9858
L82.1037 126.9858
" />
<path d="M82.1037 126.9858
L82.2942 127.0811
" />
<path d="M82.2942 127.0811
L82.3894 127.1763
" />
<path d="M82.3894 127.1763
L82.4847 127.3668
" />
<path d="M82.4847 127.3668
L82.4847 127.9382
" />
<path d="M82.4847 127.9382
L82.3894 128.1287
" />
<path d="M82.3894 128.1287
L82.2942 128.2239
" />
<path d="M82.2942 128.2239
L82.1037 128.3192
" />
<path d="M82.1037 128.3192
L81.7227 128.3192
" />
<path d="M81.7227 128.3192
L81.5323 128.2239
" />
<path d="M83.6275 128.3192
L83.4370 128.2239
" />
<path d="M83.4370 128.2239
L83.3418 128.0334
" />
<path d="M83.3418 128.0334
L83.3418 126.3192
" />
<path d="M85.2466 128.3192
L85.2466 127.2715
" />
<path d="M85.2466 127.2715
L85.1513 127.0811
" />
<path d="M85.1513 127.0811
L84.9608 126.9858
" />
<path d="M84.9608 126.9858
L84.5799 126.9858
" />
<path d="M84.5799 126.9858
L84.3894 127.0811
" />
<path d="M85.2466 128.2239
L85.0561 128.3192
" />
<path d="M85.0561 128.3192
L84.5799 128.3192
" />
<path d="M84.5799 128.3192
L84.3894 128.2239
" />
<path d="M84.3894 128.2239
L84.2942 128.0334
" />
<path d="M84.2942 128.0334
L84.2942 127.8430
" />
<path d="M84.2942 127.8430
L84.3894 127.6525
" />
<path d="M84.3894 127.6525
L84.5799 127.5572
" />
<path d="M84.5799 127.5572
L85.0561 127.5572
" />
<path d="M85.0561 127.5572
L85.2466 127.4620
" />
<path d="M85.9132 126.9858
L86.6751 126.9858
" />
<path d="M86.1989 126.3192
L86.1989 128.0334
" />
<path d="M86.1989 128.0334
L86.2942 128.2239
" />
<path d="M86.2942 128.2239
L86.4846 128.3192
" />
<path d="M86.4846 128.3192
L86.6751 128.3192
" />
<path d="M88.1037 128.2239
L87.9132 128.3192
" />
<path d="M87.9132 128.3192
L87.5323 128.3192
" />
<path d="M87.5323 128.3192
L87.3418 128.2239
" />
<path d="M87.3418 128.2239
L87.2466 128.0334
" />
<path d="M87.2466 128.0334
L87.2466 127.2715
" />
<path d="M87.2466 127.2715
L87.3418 127.0811
" />
<path d="M87.3418 127.0811
L87.5323 126.9858
" />
<path d="M87.5323 126.9858
L87.9132 126.9858
" />
<path d="M87.9132 126.9858
L88.1037 127.0811
" />
<path d="M88.1037 127.0811
L88.1989 127.2715
" />
<path d="M88.1989 127.2715
L88.1989 127.4620
" />
<path d="M88.1989 127.4620
L87.2466 127.6525
" />
<path d="M89.9132 128.3192
L89.9132 126.3192
" />
<path d="M89.9132 128.2239
L89.7227 128.3192
" />
<path d="M89.7227 128.3192
L89.3418 128.3192
" />
<path d="M89.3418 128.3192
L89.1513 128.2239
" />
<path d="M89.1513 128.2239
L89.0561 128.1287
" />
<path d="M89.0561 128.1287
L88.9608 127.9382
" />
<path d="M88.9608 127.9382
L88.9608 127.3668
" />
<path d="M88.9608 127.3668
L89.0561 127.1763
" />
<path d="M89.0561 127.1763
L89.1513 127.0811
" />
<path d="M89.1513 127.0811
L89.3418 126.9858
" />
<path d="M89.3418 126.9858
L89.7227 126.9858
" />
<path d="M89.7227 126.9858
L89.9132 127.0811
" />
<path d="M90.6751 129.0811
L90.7704 128.9858
" />
<path d="M90.7704 128.9858
L90.9608 128.7001
" />
<path d="M90.9608 128.7001
L91.0561 128.5096
" />
<path d="M91.0561 128.5096
L91.1513 128.2239
" />
<path d="M91.1513 128.2239
L91.2466 127.7477
" />
<path d="M91.2466 127.7477
L91.2466 127.3668
" />
<path d="M91.2466 127.3668
L91.1513 126.8906
" />
<path d="M91.1513 126.8906
L91.0561 126.6049
" />
<path d="M91.0561 126.6049
L90.9608 126.4144
" />
<path d="M90.9608 126.4144
L90.7704 126.1287
" />
<path d="M90.7704 126.1287
L90.6751 126.0334
" />
</g></g> 
</svg>
