M48
; DRILL file KiCad 10.0.4 date 2026-07-22T13:08:44
; FORMAT={-:-/ absolute / metric / decimal}
; #@! TF.CreationDate,2026-07-22T13:08:44+08:00
; #@! TF.GenerationSoftware,Kicad,Pcbnew,10.0.4
; #@! TF.FileFunction,Plated,1,2,PTH
FMAT,2
METRIC
; #@! TA.AperFunction,Plated,PTH,ViaDrill
T1C0.300
; #@! TA.AperFunction,Plated,PTH,ViaDrill
T2C0.305
; #@! TA.AperFunction,Plated,PTH,ComponentDrill
T3C0.400
; #@! TA.AperFunction,Plated,PTH,ComponentDrill
T4C0.600
; #@! TA.AperFunction,Plated,PTH,ComponentDrill
T5C0.800
; #@! TA.AperFunction,Plated,PTH,ComponentDrill
T6C0.914
%
G90
G05
T1
X147.0Y-132.2
X150.5Y-130.9
X155.0Y-111.2
X156.0Y-111.2
X157.0Y-111.2
X158.0Y-111.2
X159.0Y-111.2
X159.4Y-131.8
X160.1Y-132.5
X163.2Y-119.5
X167.0Y-107.4
X171.3Y-109.5
X171.3Y-119.5
X178.2Y-95.5
X178.2Y-104.0
T2
X101.225Y-127.65
X104.55Y-92.675
X105.375Y-89.325
X105.375Y-97.875
X107.45Y-127.625
X108.375Y-128.45
X108.825Y-103.6
X109.5Y-86.35
X109.5Y-99.05
X110.625Y-86.35
X113.525Y-85.3
X113.525Y-96.9
X121.925Y-102.85
X124.224Y-125.275
X126.375Y-125.25
X127.566Y-97.885
X129.725Y-121.325
X130.325Y-119.175
X137.094Y-95.022
X138.679Y-127.854
X139.45Y-127.854
X140.75Y-96.925
X140.75Y-99.05
X141.654Y-112.682
X142.225Y-96.115
X142.475Y-91.8
X143.391Y-113.48
X144.024Y-114.309
X145.675Y-87.35
X146.259Y-89.575
X146.843Y-90.25
X148.078Y-88.975
X148.675Y-108.775
X148.7Y-88.241
X149.95Y-109.725
X150.239Y-124.575
X151.325Y-110.625
X152.5Y-107.4
X155.025Y-108.975
X155.645Y-138.269
X156.3Y-103.6
X157.575Y-109.575
X157.675Y-90.95
X158.85Y-108.175
X158.95Y-102.85
X159.025Y-99.675
X159.425Y-92.675
X162.529Y-134.721
X163.1Y-111.525
X163.775Y-112.65
X164.475Y-113.475
X165.175Y-114.3
X165.975Y-92.305
X167.15Y-91.035
X168.39Y-97.885
X171.175Y-102.85
X171.8Y-87.35
X174.65Y-85.632
X175.8Y-87.375
X176.725Y-96.7
X176.975Y-122.1
X176.975Y-123.375
X178.447Y-124.64
X180.022Y-86.343
X180.925Y-102.85
X182.3Y-96.7
X184.796Y-85.584
X186.425Y-124.675
X197.492Y-92.033
X200.603Y-134.713
T3
X149.625Y-135.291
X149.625Y-136.941
X150.625Y-135.291
X150.625Y-136.941
X151.625Y-135.291
X151.625Y-136.941
X152.625Y-135.291
X152.625Y-136.941
X153.625Y-135.291
X153.625Y-136.941
X154.625Y-135.291
X154.625Y-136.941
X155.625Y-135.291
X155.625Y-136.941
X156.625Y-135.291
X156.625Y-136.941
T6
X180.022Y-83.925
X182.022Y-83.925
X184.022Y-83.925
T4
X148.6Y-134.101G85X149.2Y-134.101
G05
X148.6Y-138.141G85X149.2Y-138.141
G05
X157.05Y-134.101G85X157.65Y-134.101
G05
X157.05Y-138.141G85X157.65Y-138.141
G05
T5
X177.872Y-84.325G85X177.872Y-83.525
G05
X186.172Y-84.325G85X186.172Y-83.525
G05
M30
