%TF.GenerationSoftware,KiCad,Pcbnew,10.0.4*%
%TF.CreationDate,2026-07-22T13:08:43+08:00*%
%TF.ProjectId,Cadenza-L1-Screen-Only,43616465-6e7a-4612-9d4c-312d53637265,rev?*%
%TF.SameCoordinates,Original*%
%TF.FileFunction,Paste,Top*%
%TF.FilePolarity,Positive*%
%FSLAX46Y46*%
G04 Gerber Fmt 4.6, Leading zero omitted, Abs format (unit mm)*
G04 Created by KiCad (PCBNEW 10.0.4) date 2026-07-22 13:08:43*
%MOMM*%
%LPD*%
G01*
G04 APERTURE LIST*
G04 Aperture macros list*
%AMRoundRect*
0 Rectangle with rounded corners*
0 $1 Rounding radius*
0 $2 $3 $4 $5 $6 $7 $8 $9 X,Y pos of 4 corners*
0 Add a 4 corners polygon primitive as box body*
4,1,4,$2,$3,$4,$5,$6,$7,$8,$9,$2,$3,0*
0 Add four circle primitives for the rounded corners*
1,1,$1+$1,$2,$3*
1,1,$1+$1,$4,$5*
1,1,$1+$1,$6,$7*
1,1,$1+$1,$8,$9*
0 Add four rect primitives between the rounded corners*
20,1,$1+$1,$2,$3,$4,$5,0*
20,1,$1+$1,$4,$5,$6,$7,0*
20,1,$1+$1,$6,$7,$8,$9,0*
20,1,$1+$1,$8,$9,$2,$3,0*%
%AMFreePoly0*
4,1,51,-0.042000,0.320500,-0.033000,0.287500,-0.022000,0.255000,-0.009000,0.223000,0.006000,0.192000,0.022500,0.162000,0.041500,0.133000,0.061500,0.105500,0.083500,0.079000,0.107000,0.054000,0.132000,0.030500,0.158500,0.008500,0.186500,-0.012000,0.215500,-0.030500,0.245500,-0.047500,0.276500,-0.062500,0.308000,-0.075500,0.340500,-0.086500,0.374000,-0.095500,0.407500,-0.102500,
0.407500,-0.355000,0.406500,-0.355000,0.365500,-0.348500,0.324500,-0.340500,0.284500,-0.330500,0.245000,-0.318000,0.206000,-0.304000,0.168000,-0.287500,0.130500,-0.269500,0.094000,-0.249000,0.059000,-0.227500,0.025000,-0.203500,-0.008000,-0.178500,-0.039500,-0.151500,-0.069500,-0.123000,-0.098000,-0.092500,-0.125000,-0.061000,-0.150500,-0.028500,-0.174000,0.006000,-0.196000,0.041000,
-0.216000,0.077500,-0.234500,0.114500,-0.250500,0.153000,-0.265000,0.191500,-0.277000,0.231500,-0.287500,0.271500,-0.295500,0.312000,-0.301500,0.353000,-0.300500,0.354500,-0.049000,0.354500,-0.042000,0.320500,-0.042000,0.320500,$1*%
%AMFreePoly1*
4,1,51,0.354500,0.301000,0.354500,0.049500,0.321000,0.042500,0.287500,0.033500,0.255000,0.022500,0.223000,0.009500,0.192000,-0.005500,0.162000,-0.022500,0.133500,-0.041000,0.105500,-0.061500,0.079000,-0.083500,0.054000,-0.107000,0.030500,-0.132000,0.008500,-0.158500,-0.012000,-0.186000,-0.030500,-0.215000,-0.047000,-0.245000,-0.062000,-0.276000,-0.075000,-0.308000,-0.086000,-0.340500,
-0.095000,-0.373500,-0.102500,-0.407500,-0.354500,-0.407500,-0.354500,-0.406000,-0.348500,-0.365000,-0.340500,-0.324500,-0.330000,-0.284500,-0.318000,-0.244500,-0.303500,-0.205500,-0.287500,-0.167500,-0.269000,-0.130000,-0.249000,-0.094000,-0.227000,-0.058500,-0.203500,-0.024500,-0.178000,0.008000,-0.151000,0.039500,-0.122500,0.070000,-0.092500,0.098500,-0.061000,0.125500,-0.028000,0.151000,
0.006000,0.174500,0.041000,0.196500,0.077500,0.216500,0.115000,0.234500,0.153000,0.251000,0.192000,0.265000,0.231500,0.277500,0.271500,0.287500,0.312500,0.296000,0.353500,0.302000,0.354500,0.301000,0.354500,0.301000,$1*%
%AMFreePoly2*
4,1,52,0.354500,0.406000,0.348500,0.365000,0.340500,0.324500,0.330000,0.284000,0.317500,0.244500,0.303500,0.205500,0.287000,0.167500,0.269000,0.130000,0.249000,0.094000,0.227000,0.058500,0.203500,0.024500,0.178000,-0.008500,0.151000,-0.040000,0.122500,-0.070000,0.092500,-0.098500,0.061000,-0.125500,0.028000,-0.151000,-0.006000,-0.174500,-0.041500,-0.196500,-0.077500,-0.216500,
-0.115000,-0.234500,-0.153000,-0.251000,-0.192000,-0.265000,-0.231500,-0.277500,-0.272000,-0.287500,-0.312500,-0.296000,-0.353500,-0.302000,-0.354500,-0.301000,-0.354500,-0.049500,-0.321000,-0.042500,-0.287500,-0.033500,-0.255000,-0.022500,-0.223500,-0.009500,-0.192500,0.005500,-0.162500,0.022500,-0.133500,0.041000,-0.105500,0.061500,-0.079000,0.083500,-0.054000,0.107000,-0.030500,0.132000,
-0.008500,0.158500,0.011500,0.186000,0.030500,0.215000,0.047000,0.245000,0.062000,0.276000,0.075000,0.308000,0.086000,0.340500,0.095000,0.373500,0.102000,0.407000,0.102000,0.407500,0.354500,0.407500,0.354500,0.406000,0.354500,0.406000,$1*%
%AMFreePoly3*
4,1,51,-0.365500,0.348500,-0.325000,0.340500,-0.284500,0.330500,-0.245000,0.318000,-0.206000,0.303500,-0.168000,0.287500,-0.130500,0.269500,-0.094000,0.249000,-0.059000,0.227500,-0.025000,0.203500,0.008000,0.178500,0.039500,0.151500,0.069500,0.122500,0.098000,0.092500,0.125000,0.061000,0.150500,0.028500,0.174000,-0.006000,0.196000,-0.041000,0.216000,-0.077500,0.234000,-0.114500,
0.250500,-0.153000,0.265000,-0.192000,0.277000,-0.231500,0.287500,-0.271500,0.295500,-0.312000,0.301500,-0.353500,0.300500,-0.354500,0.049000,-0.354500,0.042000,-0.320500,0.033000,-0.287500,0.022000,-0.255000,0.009000,-0.223000,-0.006000,-0.192000,-0.022500,-0.162000,-0.041500,-0.133000,-0.061500,-0.105500,-0.083500,-0.079000,-0.107000,-0.054000,-0.132000,-0.030500,-0.158500,-0.008500,
-0.186500,0.012000,-0.215500,0.030500,-0.245500,0.047500,-0.276500,0.062000,-0.308000,0.075500,-0.340500,0.086500,-0.374000,0.095500,-0.407500,0.102500,-0.407500,0.355000,-0.406500,0.355000,-0.365500,0.348500,-0.365500,0.348500,$1*%
G04 Aperture macros list end*
%ADD10C,0.000000*%
%ADD11R,1.410000X1.350000*%
%ADD12R,1.500000X0.900000*%
%ADD13R,0.900000X1.500000*%
%ADD14R,0.900000X0.900000*%
%ADD15R,1.350000X1.410000*%
%ADD16R,1.377000X1.132500*%
%ADD17R,0.520000X0.600000*%
%ADD18FreePoly0,180.000000*%
%ADD19FreePoly1,180.000000*%
%ADD20FreePoly2,180.000000*%
%ADD21FreePoly3,180.000000*%
%ADD22R,1.250000X1.000000*%
%ADD23R,3.500000X1.000000*%
%ADD24R,3.500000X1.500000*%
%ADD25R,1.132500X1.377000*%
%ADD26R,1.100000X0.600000*%
%ADD27RoundRect,0.060000X-0.090000X-0.340000X0.090000X-0.340000X0.090000X0.340000X-0.090000X0.340000X0*%
%ADD28R,0.300000X0.800000*%
%ADD29R,0.800000X0.800000*%
%ADD30R,1.450000X0.800000*%
%ADD31R,0.900000X1.000000*%
%ADD32O,1.745000X0.560000*%
%ADD33R,0.800000X2.200000*%
%ADD34R,2.350000X2.500000*%
%ADD35R,0.700000X1.600000*%
%ADD36R,1.200000X1.500000*%
%ADD37R,1.200000X2.200000*%
%ADD38R,1.600000X1.500000*%
%ADD39R,1.300000X2.720000*%
%ADD40R,0.600000X1.200000*%
%ADD41R,3.300000X2.400000*%
%ADD42R,0.600000X0.420000*%
%ADD43R,0.600000X0.250000*%
%ADD44R,0.250000X0.600000*%
%ADD45R,1.500000X1.500000*%
G04 APERTURE END LIST*
D10*
%TO.C,C26*%
G36*
X105915000Y-96066500D02*
G01*
X105920000Y-96476500D01*
X105470000Y-96476500D01*
X105470000Y-96926500D01*
X105910000Y-96926500D01*
X105915000Y-97346500D01*
X105865000Y-97396500D01*
X104715000Y-97396500D01*
X104665000Y-97346500D01*
X104665000Y-96066500D01*
X104715000Y-96016500D01*
X105865000Y-96016500D01*
X105915000Y-96066500D01*
G37*
G36*
X108075000Y-96066500D02*
G01*
X108075000Y-97346500D01*
X108025000Y-97396500D01*
X106875000Y-97396500D01*
X106825000Y-97346500D01*
X106820000Y-96936500D01*
X107270000Y-96936500D01*
X107270000Y-96486500D01*
X106830000Y-96486500D01*
X106825000Y-96066500D01*
X106875000Y-96016500D01*
X108025000Y-96016500D01*
X108075000Y-96066500D01*
G37*
%TO.C,C14*%
G36*
X139271000Y-85849500D02*
G01*
X139271000Y-86999500D01*
X139221000Y-87049500D01*
X138811000Y-87054500D01*
X138811000Y-86604500D01*
X138361000Y-86604500D01*
X138361000Y-87044500D01*
X137941000Y-87049500D01*
X137891000Y-86999500D01*
X137891000Y-85849500D01*
X137941000Y-85799500D01*
X139221000Y-85799500D01*
X139271000Y-85849500D01*
G37*
G36*
X138351000Y-88404500D02*
G01*
X138801000Y-88404500D01*
X138801000Y-87964500D01*
X139221000Y-87959500D01*
X139271000Y-88009500D01*
X139271000Y-89159500D01*
X139221000Y-89209500D01*
X137941000Y-89209500D01*
X137891000Y-89159500D01*
X137891000Y-88009500D01*
X137941000Y-87959500D01*
X138351000Y-87954500D01*
X138351000Y-88404500D01*
G37*
%TO.C,C2*%
G36*
X192745000Y-107935000D02*
G01*
X192750000Y-108345000D01*
X192300000Y-108345000D01*
X192300000Y-108795000D01*
X192740000Y-108795000D01*
X192745000Y-109215000D01*
X192695000Y-109265000D01*
X191545000Y-109265000D01*
X191495000Y-109215000D01*
X191495000Y-107935000D01*
X191545000Y-107885000D01*
X192695000Y-107885000D01*
X192745000Y-107935000D01*
G37*
G36*
X194905000Y-107935000D02*
G01*
X194905000Y-109215000D01*
X194855000Y-109265000D01*
X193705000Y-109265000D01*
X193655000Y-109215000D01*
X193650000Y-108805000D01*
X194100000Y-108805000D01*
X194100000Y-108355000D01*
X193660000Y-108355000D01*
X193655000Y-107935000D01*
X193705000Y-107885000D01*
X194855000Y-107885000D01*
X194905000Y-107935000D01*
G37*
%TO.C,C25*%
G36*
X105915000Y-93968000D02*
G01*
X105920000Y-94378000D01*
X105470000Y-94378000D01*
X105470000Y-94828000D01*
X105910000Y-94828000D01*
X105915000Y-95248000D01*
X105865000Y-95298000D01*
X104715000Y-95298000D01*
X104665000Y-95248000D01*
X104665000Y-93968000D01*
X104715000Y-93918000D01*
X105865000Y-93918000D01*
X105915000Y-93968000D01*
G37*
G36*
X108075000Y-93968000D02*
G01*
X108075000Y-95248000D01*
X108025000Y-95298000D01*
X106875000Y-95298000D01*
X106825000Y-95248000D01*
X106820000Y-94838000D01*
X107270000Y-94838000D01*
X107270000Y-94388000D01*
X106830000Y-94388000D01*
X106825000Y-93968000D01*
X106875000Y-93918000D01*
X108025000Y-93918000D01*
X108075000Y-93968000D01*
G37*
%TO.C,R3*%
G36*
X137788000Y-90386500D02*
G01*
X137788000Y-91536500D01*
X137738000Y-91586500D01*
X137328000Y-91591500D01*
X137328000Y-91141500D01*
X136878000Y-91141500D01*
X136878000Y-91581500D01*
X136458000Y-91586500D01*
X136408000Y-91536500D01*
X136408000Y-90386500D01*
X136458000Y-90336500D01*
X137738000Y-90336500D01*
X137788000Y-90386500D01*
G37*
G36*
X136878000Y-92931500D02*
G01*
X137328000Y-92931500D01*
X137328000Y-92491500D01*
X137738000Y-92486500D01*
X137788000Y-92536500D01*
X137788000Y-93686500D01*
X137738000Y-93736500D01*
X136458000Y-93736500D01*
X136408000Y-93686500D01*
X136408000Y-92536500D01*
X136458000Y-92486500D01*
X136878000Y-92486500D01*
X136878000Y-92931500D01*
G37*
%TO.C,C16*%
G36*
X126470000Y-82285000D02*
G01*
X126475000Y-82695000D01*
X126025000Y-82695000D01*
X126025000Y-83145000D01*
X126465000Y-83145000D01*
X126470000Y-83565000D01*
X126420000Y-83615000D01*
X125270000Y-83615000D01*
X125220000Y-83565000D01*
X125220000Y-82285000D01*
X125270000Y-82235000D01*
X126420000Y-82235000D01*
X126470000Y-82285000D01*
G37*
G36*
X128630000Y-82285000D02*
G01*
X128630000Y-83565000D01*
X128580000Y-83615000D01*
X127430000Y-83615000D01*
X127380000Y-83565000D01*
X127375000Y-83155000D01*
X127825000Y-83155000D01*
X127825000Y-82705000D01*
X127385000Y-82705000D01*
X127380000Y-82285000D01*
X127430000Y-82235000D01*
X128580000Y-82235000D01*
X128630000Y-82285000D01*
G37*
%TO.C,R5*%
G36*
X200665000Y-91375000D02*
G01*
X200665000Y-92525000D01*
X200615000Y-92575000D01*
X200195000Y-92575000D01*
X200195000Y-92130000D01*
X199745000Y-92130000D01*
X199745000Y-92570000D01*
X199335000Y-92575000D01*
X199285000Y-92525000D01*
X199285000Y-91375000D01*
X199335000Y-91325000D01*
X200615000Y-91325000D01*
X200665000Y-91375000D01*
G37*
G36*
X199745000Y-93920000D02*
G01*
X200195000Y-93920000D01*
X200195000Y-93480000D01*
X200615000Y-93475000D01*
X200665000Y-93525000D01*
X200665000Y-94675000D01*
X200615000Y-94725000D01*
X199335000Y-94725000D01*
X199285000Y-94675000D01*
X199285000Y-93525000D01*
X199335000Y-93475000D01*
X199745000Y-93470000D01*
X199745000Y-93920000D01*
G37*
%TO.C,C5*%
G36*
X198515000Y-93395000D02*
G01*
X198515000Y-94545000D01*
X198465000Y-94595000D01*
X198055000Y-94600000D01*
X198055000Y-94150000D01*
X197605000Y-94150000D01*
X197605000Y-94590000D01*
X197185000Y-94595000D01*
X197135000Y-94545000D01*
X197135000Y-93395000D01*
X197185000Y-93345000D01*
X198465000Y-93345000D01*
X198515000Y-93395000D01*
G37*
G36*
X197595000Y-95950000D02*
G01*
X198045000Y-95950000D01*
X198045000Y-95510000D01*
X198465000Y-95505000D01*
X198515000Y-95555000D01*
X198515000Y-96705000D01*
X198465000Y-96755000D01*
X197185000Y-96755000D01*
X197135000Y-96705000D01*
X197135000Y-95555000D01*
X197185000Y-95505000D01*
X197595000Y-95500000D01*
X197595000Y-95950000D01*
G37*
%TO.C,C10*%
G36*
X180550500Y-94527000D02*
G01*
X180555500Y-94937000D01*
X180105500Y-94937000D01*
X180105500Y-95387000D01*
X180545500Y-95387000D01*
X180550500Y-95807000D01*
X180500500Y-95857000D01*
X179350500Y-95857000D01*
X179300500Y-95807000D01*
X179300500Y-94527000D01*
X179350500Y-94477000D01*
X180500500Y-94477000D01*
X180550500Y-94527000D01*
G37*
G36*
X182710500Y-94527000D02*
G01*
X182710500Y-95807000D01*
X182660500Y-95857000D01*
X181510500Y-95857000D01*
X181460500Y-95807000D01*
X181455500Y-95397000D01*
X181905500Y-95397000D01*
X181905500Y-94947000D01*
X181465500Y-94947000D01*
X181460500Y-94527000D01*
X181510500Y-94477000D01*
X182660500Y-94477000D01*
X182710500Y-94527000D01*
G37*
%TO.C,C15*%
G36*
X132240000Y-89119500D02*
G01*
X132240000Y-90269500D01*
X132190000Y-90319500D01*
X131780000Y-90324500D01*
X131780000Y-89874500D01*
X131330000Y-89874500D01*
X131330000Y-90314500D01*
X130910000Y-90319500D01*
X130860000Y-90269500D01*
X130860000Y-89119500D01*
X130910000Y-89069500D01*
X132190000Y-89069500D01*
X132240000Y-89119500D01*
G37*
G36*
X131320000Y-91674500D02*
G01*
X131770000Y-91674500D01*
X131770000Y-91234500D01*
X132190000Y-91229500D01*
X132240000Y-91279500D01*
X132240000Y-92429500D01*
X132190000Y-92479500D01*
X130910000Y-92479500D01*
X130860000Y-92429500D01*
X130860000Y-91279500D01*
X130910000Y-91229500D01*
X131320000Y-91224500D01*
X131320000Y-91674500D01*
G37*
%TO.C,R12*%
G36*
X114975000Y-124280500D02*
G01*
X114975000Y-125430500D01*
X114925000Y-125480500D01*
X114505000Y-125480500D01*
X114505000Y-125035500D01*
X114055000Y-125035500D01*
X114055000Y-125475500D01*
X113645000Y-125480500D01*
X113595000Y-125430500D01*
X113595000Y-124280500D01*
X113645000Y-124230500D01*
X114925000Y-124230500D01*
X114975000Y-124280500D01*
G37*
G36*
X114055000Y-126825500D02*
G01*
X114505000Y-126825500D01*
X114505000Y-126385500D01*
X114925000Y-126380500D01*
X114975000Y-126430500D01*
X114975000Y-127580500D01*
X114925000Y-127630500D01*
X113645000Y-127630500D01*
X113595000Y-127580500D01*
X113595000Y-126430500D01*
X113645000Y-126380500D01*
X114055000Y-126375500D01*
X114055000Y-126825500D01*
G37*
%TO.C,R1*%
G36*
X144154000Y-134253000D02*
G01*
X144154000Y-134673000D01*
X143709000Y-134673000D01*
X143709000Y-135123000D01*
X144149000Y-135123000D01*
X144154000Y-135533000D01*
X144104000Y-135583000D01*
X142954000Y-135583000D01*
X142904000Y-135533000D01*
X142904000Y-134253000D01*
X142954000Y-134203000D01*
X144104000Y-134203000D01*
X144154000Y-134253000D01*
G37*
G36*
X146304000Y-134253000D02*
G01*
X146304000Y-135533000D01*
X146254000Y-135583000D01*
X145104000Y-135583000D01*
X145054000Y-135533000D01*
X145049000Y-135123000D01*
X145499000Y-135123000D01*
X145499000Y-134673000D01*
X145059000Y-134673000D01*
X145054000Y-134253000D01*
X145104000Y-134203000D01*
X146254000Y-134203000D01*
X146304000Y-134253000D01*
G37*
%TO.C,R11*%
G36*
X134439000Y-85852500D02*
G01*
X134439000Y-87002500D01*
X134389000Y-87052500D01*
X133969000Y-87052500D01*
X133969000Y-86607500D01*
X133519000Y-86607500D01*
X133519000Y-87047500D01*
X133109000Y-87052500D01*
X133059000Y-87002500D01*
X133059000Y-85852500D01*
X133109000Y-85802500D01*
X134389000Y-85802500D01*
X134439000Y-85852500D01*
G37*
G36*
X133519000Y-88397500D02*
G01*
X133969000Y-88397500D01*
X133969000Y-87957500D01*
X134389000Y-87952500D01*
X134439000Y-88002500D01*
X134439000Y-89152500D01*
X134389000Y-89202500D01*
X133109000Y-89202500D01*
X133059000Y-89152500D01*
X133059000Y-88002500D01*
X133109000Y-87952500D01*
X133519000Y-87947500D01*
X133519000Y-88397500D01*
G37*
%TO.C,C7*%
G36*
X188040000Y-86815000D02*
G01*
X188045000Y-87225000D01*
X187595000Y-87225000D01*
X187595000Y-87675000D01*
X188035000Y-87675000D01*
X188040000Y-88095000D01*
X187990000Y-88145000D01*
X186840000Y-88145000D01*
X186790000Y-88095000D01*
X186790000Y-86815000D01*
X186840000Y-86765000D01*
X187990000Y-86765000D01*
X188040000Y-86815000D01*
G37*
G36*
X190200000Y-86815000D02*
G01*
X190200000Y-88095000D01*
X190150000Y-88145000D01*
X189000000Y-88145000D01*
X188950000Y-88095000D01*
X188945000Y-87685000D01*
X189395000Y-87685000D01*
X189395000Y-87235000D01*
X188955000Y-87235000D01*
X188950000Y-86815000D01*
X189000000Y-86765000D01*
X190150000Y-86765000D01*
X190200000Y-86815000D01*
G37*
%TO.C,C18*%
G36*
X109209000Y-123546000D02*
G01*
X109214000Y-123956000D01*
X108764000Y-123956000D01*
X108764000Y-124406000D01*
X109204000Y-124406000D01*
X109209000Y-124826000D01*
X109159000Y-124876000D01*
X108009000Y-124876000D01*
X107959000Y-124826000D01*
X107959000Y-123546000D01*
X108009000Y-123496000D01*
X109159000Y-123496000D01*
X109209000Y-123546000D01*
G37*
G36*
X111369000Y-123546000D02*
G01*
X111369000Y-124826000D01*
X111319000Y-124876000D01*
X110169000Y-124876000D01*
X110119000Y-124826000D01*
X110114000Y-124416000D01*
X110564000Y-124416000D01*
X110564000Y-123966000D01*
X110124000Y-123966000D01*
X110119000Y-123546000D01*
X110169000Y-123496000D01*
X111319000Y-123496000D01*
X111369000Y-123546000D01*
G37*
%TO.C,C3*%
G36*
X202815000Y-91370500D02*
G01*
X202815000Y-92520500D01*
X202765000Y-92570500D01*
X202355000Y-92575500D01*
X202355000Y-92125500D01*
X201905000Y-92125500D01*
X201905000Y-92565500D01*
X201485000Y-92570500D01*
X201435000Y-92520500D01*
X201435000Y-91370500D01*
X201485000Y-91320500D01*
X202765000Y-91320500D01*
X202815000Y-91370500D01*
G37*
G36*
X201895000Y-93925500D02*
G01*
X202345000Y-93925500D01*
X202345000Y-93485500D01*
X202765000Y-93480500D01*
X202815000Y-93530500D01*
X202815000Y-94680500D01*
X202765000Y-94730500D01*
X201485000Y-94730500D01*
X201435000Y-94680500D01*
X201435000Y-93530500D01*
X201485000Y-93480500D01*
X201895000Y-93475500D01*
X201895000Y-93925500D01*
G37*
%TO.C,C13*%
G36*
X136862000Y-85849500D02*
G01*
X136862000Y-86999500D01*
X136812000Y-87049500D01*
X136402000Y-87054500D01*
X136402000Y-86604500D01*
X135952000Y-86604500D01*
X135952000Y-87044500D01*
X135532000Y-87049500D01*
X135482000Y-86999500D01*
X135482000Y-85849500D01*
X135532000Y-85799500D01*
X136812000Y-85799500D01*
X136862000Y-85849500D01*
G37*
G36*
X135942000Y-88404500D02*
G01*
X136392000Y-88404500D01*
X136392000Y-87964500D01*
X136812000Y-87959500D01*
X136862000Y-88009500D01*
X136862000Y-89159500D01*
X136812000Y-89209500D01*
X135532000Y-89209500D01*
X135482000Y-89159500D01*
X135482000Y-88009500D01*
X135532000Y-87959500D01*
X135942000Y-87954500D01*
X135942000Y-88404500D01*
G37*
%TO.C,R17*%
G36*
X132222000Y-118545500D02*
G01*
X132227000Y-118955500D01*
X131777000Y-118955500D01*
X131777000Y-119405500D01*
X132217000Y-119405500D01*
X132222000Y-119825500D01*
X132172000Y-119875500D01*
X131022000Y-119875500D01*
X130972000Y-119825500D01*
X130972000Y-118545500D01*
X131022000Y-118495500D01*
X132172000Y-118495500D01*
X132222000Y-118545500D01*
G37*
G36*
X134372000Y-118545500D02*
G01*
X134372000Y-119825500D01*
X134322000Y-119875500D01*
X133172000Y-119875500D01*
X133122000Y-119825500D01*
X133122000Y-119405500D01*
X133567000Y-119405500D01*
X133567000Y-118955500D01*
X133127000Y-118955500D01*
X133122000Y-118545500D01*
X133172000Y-118495500D01*
X134322000Y-118495500D01*
X134372000Y-118545500D01*
G37*
%TO.C,C17*%
G36*
X170350000Y-85077000D02*
G01*
X170355000Y-85487000D01*
X169905000Y-85487000D01*
X169905000Y-85937000D01*
X170345000Y-85937000D01*
X170350000Y-86357000D01*
X170300000Y-86407000D01*
X169150000Y-86407000D01*
X169100000Y-86357000D01*
X169100000Y-85077000D01*
X169150000Y-85027000D01*
X170300000Y-85027000D01*
X170350000Y-85077000D01*
G37*
G36*
X172510000Y-85077000D02*
G01*
X172510000Y-86357000D01*
X172460000Y-86407000D01*
X171310000Y-86407000D01*
X171260000Y-86357000D01*
X171255000Y-85947000D01*
X171705000Y-85947000D01*
X171705000Y-85497000D01*
X171265000Y-85497000D01*
X171260000Y-85077000D01*
X171310000Y-85027000D01*
X172460000Y-85027000D01*
X172510000Y-85077000D01*
G37*
%TO.C,C9*%
G36*
X180550500Y-92495000D02*
G01*
X180555500Y-92905000D01*
X180105500Y-92905000D01*
X180105500Y-93355000D01*
X180545500Y-93355000D01*
X180550500Y-93775000D01*
X180500500Y-93825000D01*
X179350500Y-93825000D01*
X179300500Y-93775000D01*
X179300500Y-92495000D01*
X179350500Y-92445000D01*
X180500500Y-92445000D01*
X180550500Y-92495000D01*
G37*
G36*
X182710500Y-92495000D02*
G01*
X182710500Y-93775000D01*
X182660500Y-93825000D01*
X181510500Y-93825000D01*
X181460500Y-93775000D01*
X181455500Y-93365000D01*
X181905500Y-93365000D01*
X181905500Y-92915000D01*
X181465500Y-92915000D01*
X181460500Y-92495000D01*
X181510500Y-92445000D01*
X182660500Y-92445000D01*
X182710500Y-92495000D01*
G37*
%TO.C,C12*%
G36*
X184548500Y-118054000D02*
G01*
X184553500Y-118464000D01*
X184103500Y-118464000D01*
X184103500Y-118914000D01*
X184543500Y-118914000D01*
X184548500Y-119334000D01*
X184498500Y-119384000D01*
X183348500Y-119384000D01*
X183298500Y-119334000D01*
X183298500Y-118054000D01*
X183348500Y-118004000D01*
X184498500Y-118004000D01*
X184548500Y-118054000D01*
G37*
G36*
X186708500Y-118054000D02*
G01*
X186708500Y-119334000D01*
X186658500Y-119384000D01*
X185508500Y-119384000D01*
X185458500Y-119334000D01*
X185453500Y-118924000D01*
X185903500Y-118924000D01*
X185903500Y-118474000D01*
X185463500Y-118474000D01*
X185458500Y-118054000D01*
X185508500Y-118004000D01*
X186658500Y-118004000D01*
X186708500Y-118054000D01*
G37*
%TO.C,R4*%
G36*
X192744000Y-110347500D02*
G01*
X192744000Y-110767500D01*
X192299000Y-110767500D01*
X192299000Y-111217500D01*
X192739000Y-111217500D01*
X192744000Y-111627500D01*
X192694000Y-111677500D01*
X191544000Y-111677500D01*
X191494000Y-111627500D01*
X191494000Y-110347500D01*
X191544000Y-110297500D01*
X192694000Y-110297500D01*
X192744000Y-110347500D01*
G37*
G36*
X194894000Y-110347500D02*
G01*
X194894000Y-111627500D01*
X194844000Y-111677500D01*
X193694000Y-111677500D01*
X193644000Y-111627500D01*
X193639000Y-111217500D01*
X194089000Y-111217500D01*
X194089000Y-110767500D01*
X193649000Y-110767500D01*
X193644000Y-110347500D01*
X193694000Y-110297500D01*
X194844000Y-110297500D01*
X194894000Y-110347500D01*
G37*
%TO.C,C4*%
G36*
X196857500Y-110352000D02*
G01*
X196862500Y-110762000D01*
X196412500Y-110762000D01*
X196412500Y-111212000D01*
X196852500Y-111212000D01*
X196857500Y-111632000D01*
X196807500Y-111682000D01*
X195657500Y-111682000D01*
X195607500Y-111632000D01*
X195607500Y-110352000D01*
X195657500Y-110302000D01*
X196807500Y-110302000D01*
X196857500Y-110352000D01*
G37*
G36*
X199017500Y-110352000D02*
G01*
X199017500Y-111632000D01*
X198967500Y-111682000D01*
X197817500Y-111682000D01*
X197767500Y-111632000D01*
X197762500Y-111222000D01*
X198212500Y-111222000D01*
X198212500Y-110772000D01*
X197772500Y-110772000D01*
X197767500Y-110352000D01*
X197817500Y-110302000D01*
X198967500Y-110302000D01*
X199017500Y-110352000D01*
G37*
%TO.C,C22*%
G36*
X168921000Y-105067500D02*
G01*
X168926000Y-105477500D01*
X168476000Y-105477500D01*
X168476000Y-105927500D01*
X168916000Y-105927500D01*
X168921000Y-106347500D01*
X168871000Y-106397500D01*
X167721000Y-106397500D01*
X167671000Y-106347500D01*
X167671000Y-105067500D01*
X167721000Y-105017500D01*
X168871000Y-105017500D01*
X168921000Y-105067500D01*
G37*
G36*
X171081000Y-105067500D02*
G01*
X171081000Y-106347500D01*
X171031000Y-106397500D01*
X169881000Y-106397500D01*
X169831000Y-106347500D01*
X169826000Y-105937500D01*
X170276000Y-105937500D01*
X170276000Y-105487500D01*
X169836000Y-105487500D01*
X169831000Y-105067500D01*
X169881000Y-105017500D01*
X171031000Y-105017500D01*
X171081000Y-105067500D01*
G37*
%TO.C,C24*%
G36*
X126087500Y-120642000D02*
G01*
X126092500Y-121052000D01*
X125642500Y-121052000D01*
X125642500Y-121502000D01*
X126082500Y-121502000D01*
X126087500Y-121922000D01*
X126037500Y-121972000D01*
X124887500Y-121972000D01*
X124837500Y-121922000D01*
X124837500Y-120642000D01*
X124887500Y-120592000D01*
X126037500Y-120592000D01*
X126087500Y-120642000D01*
G37*
G36*
X128247500Y-120642000D02*
G01*
X128247500Y-121922000D01*
X128197500Y-121972000D01*
X127047500Y-121972000D01*
X126997500Y-121922000D01*
X126992500Y-121512000D01*
X127442500Y-121512000D01*
X127442500Y-121062000D01*
X127002500Y-121062000D01*
X126997500Y-120642000D01*
X127047500Y-120592000D01*
X128197500Y-120592000D01*
X128247500Y-120642000D01*
G37*
%TO.C,C_DISP1*%
G36*
X169045000Y-108860000D02*
G01*
X169050000Y-109270000D01*
X168600000Y-109270000D01*
X168600000Y-109720000D01*
X169040000Y-109720000D01*
X169045000Y-110140000D01*
X168995000Y-110190000D01*
X167845000Y-110190000D01*
X167795000Y-110140000D01*
X167795000Y-108860000D01*
X167845000Y-108810000D01*
X168995000Y-108810000D01*
X169045000Y-108860000D01*
G37*
G36*
X171205000Y-108860000D02*
G01*
X171205000Y-110140000D01*
X171155000Y-110190000D01*
X170005000Y-110190000D01*
X169955000Y-110140000D01*
X169950000Y-109730000D01*
X170400000Y-109730000D01*
X170400000Y-109280000D01*
X169960000Y-109280000D01*
X169955000Y-108860000D01*
X170005000Y-108810000D01*
X171155000Y-108810000D01*
X171205000Y-108860000D01*
G37*
%TO.C,R16*%
G36*
X120000000Y-119785000D02*
G01*
X120000000Y-120205000D01*
X119555000Y-120205000D01*
X119555000Y-120655000D01*
X119995000Y-120655000D01*
X120000000Y-121065000D01*
X119950000Y-121115000D01*
X118800000Y-121115000D01*
X118750000Y-121065000D01*
X118750000Y-119785000D01*
X118800000Y-119735000D01*
X119950000Y-119735000D01*
X120000000Y-119785000D01*
G37*
G36*
X122150000Y-119785000D02*
G01*
X122150000Y-121065000D01*
X122100000Y-121115000D01*
X120950000Y-121115000D01*
X120900000Y-121065000D01*
X120895000Y-120655000D01*
X121345000Y-120655000D01*
X121345000Y-120205000D01*
X120905000Y-120205000D01*
X120900000Y-119785000D01*
X120950000Y-119735000D01*
X122100000Y-119735000D01*
X122150000Y-119785000D01*
G37*
%TO.C,R9*%
G36*
X176364500Y-88812000D02*
G01*
X176369500Y-89222000D01*
X175919500Y-89222000D01*
X175919500Y-89672000D01*
X176359500Y-89672000D01*
X176364500Y-90092000D01*
X176314500Y-90142000D01*
X175164500Y-90142000D01*
X175114500Y-90092000D01*
X175114500Y-88812000D01*
X175164500Y-88762000D01*
X176314500Y-88762000D01*
X176364500Y-88812000D01*
G37*
G36*
X178514500Y-88812000D02*
G01*
X178514500Y-90092000D01*
X178464500Y-90142000D01*
X177314500Y-90142000D01*
X177264500Y-90092000D01*
X177264500Y-89672000D01*
X177709500Y-89672000D01*
X177709500Y-89222000D01*
X177269500Y-89222000D01*
X177264500Y-88812000D01*
X177314500Y-88762000D01*
X178464500Y-88762000D01*
X178514500Y-88812000D01*
G37*
%TO.C,C1*%
G36*
X169064500Y-92541500D02*
G01*
X169064500Y-93691500D01*
X169014500Y-93741500D01*
X168604500Y-93746500D01*
X168604500Y-93296500D01*
X168154500Y-93296500D01*
X168154500Y-93736500D01*
X167734500Y-93741500D01*
X167684500Y-93691500D01*
X167684500Y-92541500D01*
X167734500Y-92491500D01*
X169014500Y-92491500D01*
X169064500Y-92541500D01*
G37*
G36*
X168144500Y-95096500D02*
G01*
X168594500Y-95096500D01*
X168594500Y-94656500D01*
X169014500Y-94651500D01*
X169064500Y-94701500D01*
X169064500Y-95851500D01*
X169014500Y-95901500D01*
X167734500Y-95901500D01*
X167684500Y-95851500D01*
X167684500Y-94701500D01*
X167734500Y-94651500D01*
X168144500Y-94646500D01*
X168144500Y-95096500D01*
G37*
%TO.C,C8*%
G36*
X180550500Y-90488500D02*
G01*
X180555500Y-90898500D01*
X180105500Y-90898500D01*
X180105500Y-91348500D01*
X180545500Y-91348500D01*
X180550500Y-91768500D01*
X180500500Y-91818500D01*
X179350500Y-91818500D01*
X179300500Y-91768500D01*
X179300500Y-90488500D01*
X179350500Y-90438500D01*
X180500500Y-90438500D01*
X180550500Y-90488500D01*
G37*
G36*
X182710500Y-90488500D02*
G01*
X182710500Y-91768500D01*
X182660500Y-91818500D01*
X181510500Y-91818500D01*
X181460500Y-91768500D01*
X181455500Y-91358500D01*
X181905500Y-91358500D01*
X181905500Y-90908500D01*
X181465500Y-90908500D01*
X181460500Y-90488500D01*
X181510500Y-90438500D01*
X182660500Y-90438500D01*
X182710500Y-90488500D01*
G37*
%TO.C,R7*%
G36*
X206861000Y-103114000D02*
G01*
X206861000Y-104264000D01*
X206811000Y-104314000D01*
X206391000Y-104314000D01*
X206391000Y-103869000D01*
X205941000Y-103869000D01*
X205941000Y-104309000D01*
X205531000Y-104314000D01*
X205481000Y-104264000D01*
X205481000Y-103114000D01*
X205531000Y-103064000D01*
X206811000Y-103064000D01*
X206861000Y-103114000D01*
G37*
G36*
X205941000Y-105659000D02*
G01*
X206391000Y-105659000D01*
X206391000Y-105219000D01*
X206811000Y-105214000D01*
X206861000Y-105264000D01*
X206861000Y-106414000D01*
X206811000Y-106464000D01*
X205531000Y-106464000D01*
X205481000Y-106414000D01*
X205481000Y-105264000D01*
X205531000Y-105214000D01*
X205941000Y-105209000D01*
X205941000Y-105659000D01*
G37*
%TO.C,C23*%
G36*
X126108000Y-118517000D02*
G01*
X126113000Y-118927000D01*
X125663000Y-118927000D01*
X125663000Y-119377000D01*
X126103000Y-119377000D01*
X126108000Y-119797000D01*
X126058000Y-119847000D01*
X124908000Y-119847000D01*
X124858000Y-119797000D01*
X124858000Y-118517000D01*
X124908000Y-118467000D01*
X126058000Y-118467000D01*
X126108000Y-118517000D01*
G37*
G36*
X128268000Y-118517000D02*
G01*
X128268000Y-119797000D01*
X128218000Y-119847000D01*
X127068000Y-119847000D01*
X127018000Y-119797000D01*
X127013000Y-119387000D01*
X127463000Y-119387000D01*
X127463000Y-118937000D01*
X127023000Y-118937000D01*
X127018000Y-118517000D01*
X127068000Y-118467000D01*
X128218000Y-118467000D01*
X128268000Y-118517000D01*
G37*
%TO.C,C6*%
G36*
X188040000Y-88867000D02*
G01*
X188045000Y-89277000D01*
X187595000Y-89277000D01*
X187595000Y-89727000D01*
X188035000Y-89727000D01*
X188040000Y-90147000D01*
X187990000Y-90197000D01*
X186840000Y-90197000D01*
X186790000Y-90147000D01*
X186790000Y-88867000D01*
X186840000Y-88817000D01*
X187990000Y-88817000D01*
X188040000Y-88867000D01*
G37*
G36*
X190200000Y-88867000D02*
G01*
X190200000Y-90147000D01*
X190150000Y-90197000D01*
X189000000Y-90197000D01*
X188950000Y-90147000D01*
X188945000Y-89737000D01*
X189395000Y-89737000D01*
X189395000Y-89287000D01*
X188955000Y-89287000D01*
X188950000Y-88867000D01*
X189000000Y-88817000D01*
X190150000Y-88817000D01*
X190200000Y-88867000D01*
G37*
%TO.C,C20*%
G36*
X164545000Y-118860000D02*
G01*
X164550000Y-119270000D01*
X164100000Y-119270000D01*
X164100000Y-119720000D01*
X164540000Y-119720000D01*
X164545000Y-120140000D01*
X164495000Y-120190000D01*
X163345000Y-120190000D01*
X163295000Y-120140000D01*
X163295000Y-118860000D01*
X163345000Y-118810000D01*
X164495000Y-118810000D01*
X164545000Y-118860000D01*
G37*
G36*
X166705000Y-118860000D02*
G01*
X166705000Y-120140000D01*
X166655000Y-120190000D01*
X165505000Y-120190000D01*
X165455000Y-120140000D01*
X165450000Y-119730000D01*
X165900000Y-119730000D01*
X165900000Y-119280000D01*
X165460000Y-119280000D01*
X165455000Y-118860000D01*
X165505000Y-118810000D01*
X166655000Y-118810000D01*
X166705000Y-118860000D01*
G37*
%TO.C,R2*%
G36*
X144154000Y-136531000D02*
G01*
X144159000Y-136941000D01*
X143709000Y-136941000D01*
X143709000Y-137391000D01*
X144149000Y-137391000D01*
X144154000Y-137811000D01*
X144104000Y-137861000D01*
X142954000Y-137861000D01*
X142904000Y-137811000D01*
X142904000Y-136531000D01*
X142954000Y-136481000D01*
X144104000Y-136481000D01*
X144154000Y-136531000D01*
G37*
G36*
X146304000Y-136531000D02*
G01*
X146304000Y-137811000D01*
X146254000Y-137861000D01*
X145104000Y-137861000D01*
X145054000Y-137811000D01*
X145054000Y-137391000D01*
X145499000Y-137391000D01*
X145499000Y-136941000D01*
X145059000Y-136941000D01*
X145054000Y-136531000D01*
X145104000Y-136481000D01*
X146254000Y-136481000D01*
X146304000Y-136531000D01*
G37*
%TO.C,R15*%
G36*
X107915000Y-88350000D02*
G01*
X107915000Y-89500000D01*
X107865000Y-89550000D01*
X107445000Y-89550000D01*
X107445000Y-89105000D01*
X106995000Y-89105000D01*
X106995000Y-89545000D01*
X106585000Y-89550000D01*
X106535000Y-89500000D01*
X106535000Y-88350000D01*
X106585000Y-88300000D01*
X107865000Y-88300000D01*
X107915000Y-88350000D01*
G37*
G36*
X106995000Y-90895000D02*
G01*
X107445000Y-90895000D01*
X107445000Y-90455000D01*
X107865000Y-90450000D01*
X107915000Y-90500000D01*
X107915000Y-91650000D01*
X107865000Y-91700000D01*
X106585000Y-91700000D01*
X106535000Y-91650000D01*
X106535000Y-90500000D01*
X106585000Y-90450000D01*
X106995000Y-90445000D01*
X106995000Y-90895000D01*
G37*
%TO.C,C19*%
G36*
X109184500Y-121488500D02*
G01*
X109189500Y-121898500D01*
X108739500Y-121898500D01*
X108739500Y-122348500D01*
X109179500Y-122348500D01*
X109184500Y-122768500D01*
X109134500Y-122818500D01*
X107984500Y-122818500D01*
X107934500Y-122768500D01*
X107934500Y-121488500D01*
X107984500Y-121438500D01*
X109134500Y-121438500D01*
X109184500Y-121488500D01*
G37*
G36*
X111344500Y-121488500D02*
G01*
X111344500Y-122768500D01*
X111294500Y-122818500D01*
X110144500Y-122818500D01*
X110094500Y-122768500D01*
X110089500Y-122358500D01*
X110539500Y-122358500D01*
X110539500Y-121908500D01*
X110099500Y-121908500D01*
X110094500Y-121488500D01*
X110144500Y-121438500D01*
X111294500Y-121438500D01*
X111344500Y-121488500D01*
G37*
%TO.C,R6*%
G36*
X176346500Y-90864000D02*
G01*
X176346500Y-91284000D01*
X175901500Y-91284000D01*
X175901500Y-91734000D01*
X176341500Y-91734000D01*
X176346500Y-92144000D01*
X176296500Y-92194000D01*
X175146500Y-92194000D01*
X175096500Y-92144000D01*
X175096500Y-90864000D01*
X175146500Y-90814000D01*
X176296500Y-90814000D01*
X176346500Y-90864000D01*
G37*
G36*
X178496500Y-90864000D02*
G01*
X178496500Y-92144000D01*
X178446500Y-92194000D01*
X177296500Y-92194000D01*
X177246500Y-92144000D01*
X177241500Y-91734000D01*
X177691500Y-91734000D01*
X177691500Y-91284000D01*
X177251500Y-91284000D01*
X177246500Y-90864000D01*
X177296500Y-90814000D01*
X178446500Y-90814000D01*
X178496500Y-90864000D01*
G37*
%TO.C,U5*%
G36*
X109963000Y-127065000D02*
G01*
X109363000Y-127065000D01*
X109363000Y-126815000D01*
X109963000Y-126815000D01*
X109963000Y-127065000D01*
G37*
G36*
X109963000Y-127565000D02*
G01*
X109363000Y-127565000D01*
X109363000Y-127315000D01*
X109963000Y-127315000D01*
X109963000Y-127565000D01*
G37*
G36*
X109963000Y-128065000D02*
G01*
X109363000Y-128065000D01*
X109363000Y-127815000D01*
X109963000Y-127815000D01*
X109963000Y-128065000D01*
G37*
G36*
X109963000Y-128563500D02*
G01*
X109363000Y-128563500D01*
X109363000Y-128313500D01*
X109963000Y-128313500D01*
X109963000Y-128563500D01*
G37*
G36*
X110536000Y-126490000D02*
G01*
X110286000Y-126490000D01*
X110286000Y-125890000D01*
X110536000Y-125890000D01*
X110536000Y-126490000D01*
G37*
G36*
X110536000Y-129490000D02*
G01*
X110286000Y-129490000D01*
X110286000Y-128890000D01*
X110536000Y-128890000D01*
X110536000Y-129490000D01*
G37*
G36*
X111036000Y-126490000D02*
G01*
X110786000Y-126490000D01*
X110786000Y-125890000D01*
X111036000Y-125890000D01*
X111036000Y-126490000D01*
G37*
G36*
X111036000Y-129490000D02*
G01*
X110786000Y-129490000D01*
X110786000Y-128890000D01*
X111036000Y-128890000D01*
X111036000Y-129490000D01*
G37*
G36*
X111536000Y-126490000D02*
G01*
X111286000Y-126490000D01*
X111286000Y-125890000D01*
X111536000Y-125890000D01*
X111536000Y-126490000D01*
G37*
G36*
X111536000Y-129490000D02*
G01*
X111286000Y-129490000D01*
X111286000Y-128890000D01*
X111536000Y-128890000D01*
X111536000Y-129490000D01*
G37*
G36*
X111763000Y-128290000D02*
G01*
X110563000Y-128290000D01*
X110563000Y-127090000D01*
X111763000Y-127090000D01*
X111763000Y-128290000D01*
G37*
G36*
X112036000Y-126490000D02*
G01*
X111786000Y-126490000D01*
X111786000Y-125890000D01*
X112036000Y-125890000D01*
X112036000Y-126490000D01*
G37*
G36*
X112036000Y-129490000D02*
G01*
X111786000Y-129490000D01*
X111786000Y-128890000D01*
X112036000Y-128890000D01*
X112036000Y-129490000D01*
G37*
G36*
X112963000Y-127063500D02*
G01*
X112363000Y-127063500D01*
X112363000Y-126813500D01*
X112963000Y-126813500D01*
X112963000Y-127063500D01*
G37*
G36*
X112963000Y-127563500D02*
G01*
X112363000Y-127563500D01*
X112363000Y-127313500D01*
X112963000Y-127313500D01*
X112963000Y-127563500D01*
G37*
G36*
X112963000Y-128063500D02*
G01*
X112363000Y-128063500D01*
X112363000Y-127813500D01*
X112963000Y-127813500D01*
X112963000Y-128063500D01*
G37*
G36*
X112963000Y-128563500D02*
G01*
X112363000Y-128563500D01*
X112363000Y-128313500D01*
X112963000Y-128313500D01*
X112963000Y-128563500D01*
G37*
%TO.C,R10*%
G36*
X130132500Y-89140000D02*
G01*
X130132500Y-90290000D01*
X130082500Y-90340000D01*
X129672500Y-90345000D01*
X129672500Y-89895000D01*
X129222500Y-89895000D01*
X129222500Y-90335000D01*
X128802500Y-90340000D01*
X128752500Y-90290000D01*
X128752500Y-89140000D01*
X128802500Y-89090000D01*
X130082500Y-89090000D01*
X130132500Y-89140000D01*
G37*
G36*
X129222500Y-91685000D02*
G01*
X129672500Y-91685000D01*
X129672500Y-91245000D01*
X130082500Y-91240000D01*
X130132500Y-91290000D01*
X130132500Y-92440000D01*
X130082500Y-92490000D01*
X128802500Y-92490000D01*
X128752500Y-92440000D01*
X128752500Y-91290000D01*
X128802500Y-91240000D01*
X129222500Y-91240000D01*
X129222500Y-91685000D01*
G37*
%TO.C,R8*%
G36*
X135375000Y-90386500D02*
G01*
X135375000Y-91536500D01*
X135325000Y-91586500D01*
X134905000Y-91586500D01*
X134905000Y-91141500D01*
X134455000Y-91141500D01*
X134455000Y-91581500D01*
X134045000Y-91586500D01*
X133995000Y-91536500D01*
X133995000Y-90386500D01*
X134045000Y-90336500D01*
X135325000Y-90336500D01*
X135375000Y-90386500D01*
G37*
G36*
X134455000Y-92931500D02*
G01*
X134905000Y-92931500D01*
X134905000Y-92491500D01*
X135325000Y-92486500D01*
X135375000Y-92536500D01*
X135375000Y-93686500D01*
X135325000Y-93736500D01*
X134045000Y-93736500D01*
X133995000Y-93686500D01*
X133995000Y-92536500D01*
X134045000Y-92486500D01*
X134455000Y-92481500D01*
X134455000Y-92931500D01*
G37*
%TO.C,R19*%
G36*
X152300000Y-123935000D02*
G01*
X152300000Y-124355000D01*
X151855000Y-124355000D01*
X151855000Y-124805000D01*
X152295000Y-124805000D01*
X152300000Y-125215000D01*
X152250000Y-125265000D01*
X151100000Y-125265000D01*
X151050000Y-125215000D01*
X151050000Y-123935000D01*
X151100000Y-123885000D01*
X152250000Y-123885000D01*
X152300000Y-123935000D01*
G37*
G36*
X154450000Y-123935000D02*
G01*
X154450000Y-125215000D01*
X154400000Y-125265000D01*
X153250000Y-125265000D01*
X153200000Y-125215000D01*
X153195000Y-124805000D01*
X153645000Y-124805000D01*
X153645000Y-124355000D01*
X153205000Y-124355000D01*
X153200000Y-123935000D01*
X153250000Y-123885000D01*
X154400000Y-123885000D01*
X154450000Y-123935000D01*
G37*
%TO.C,R18*%
G36*
X132222000Y-120670000D02*
G01*
X132227000Y-121080000D01*
X131777000Y-121080000D01*
X131777000Y-121530000D01*
X132217000Y-121530000D01*
X132222000Y-121950000D01*
X132172000Y-122000000D01*
X131022000Y-122000000D01*
X130972000Y-121950000D01*
X130972000Y-120670000D01*
X131022000Y-120620000D01*
X132172000Y-120620000D01*
X132222000Y-120670000D01*
G37*
G36*
X134372000Y-120670000D02*
G01*
X134372000Y-121950000D01*
X134322000Y-122000000D01*
X133172000Y-122000000D01*
X133122000Y-121950000D01*
X133122000Y-121530000D01*
X133567000Y-121530000D01*
X133567000Y-121080000D01*
X133127000Y-121080000D01*
X133122000Y-120670000D01*
X133172000Y-120620000D01*
X134322000Y-120620000D01*
X134372000Y-120670000D01*
G37*
%TO.C,L1*%
G36*
X194082000Y-91812500D02*
G01*
X194082000Y-92253000D01*
X193697000Y-92721500D01*
X193009500Y-92721500D01*
X192909500Y-92621500D01*
X192909500Y-91444500D01*
X193009500Y-91344500D01*
X193697000Y-91344500D01*
X194082000Y-91812500D01*
G37*
G36*
X195974500Y-91444500D02*
G01*
X195974500Y-92621500D01*
X195874500Y-92721500D01*
X195187000Y-92721500D01*
X194802000Y-92253000D01*
X194802000Y-91812500D01*
X195187000Y-91344500D01*
X195874500Y-91344500D01*
X195974500Y-91444500D01*
G37*
%TO.C,C11*%
G36*
X184548500Y-115920500D02*
G01*
X184553500Y-116330500D01*
X184103500Y-116330500D01*
X184103500Y-116780500D01*
X184543500Y-116780500D01*
X184548500Y-117200500D01*
X184498500Y-117250500D01*
X183348500Y-117250500D01*
X183298500Y-117200500D01*
X183298500Y-115920500D01*
X183348500Y-115870500D01*
X184498500Y-115870500D01*
X184548500Y-115920500D01*
G37*
G36*
X186708500Y-115920500D02*
G01*
X186708500Y-117200500D01*
X186658500Y-117250500D01*
X185508500Y-117250500D01*
X185458500Y-117200500D01*
X185453500Y-116790500D01*
X185903500Y-116790500D01*
X185903500Y-116340500D01*
X185463500Y-116340500D01*
X185458500Y-115920500D01*
X185508500Y-115870500D01*
X186658500Y-115870500D01*
X186708500Y-115920500D01*
G37*
%TO.C,C21*%
G36*
X169045000Y-118860000D02*
G01*
X169050000Y-119270000D01*
X168600000Y-119270000D01*
X168600000Y-119720000D01*
X169040000Y-119720000D01*
X169045000Y-120140000D01*
X168995000Y-120190000D01*
X167845000Y-120190000D01*
X167795000Y-120140000D01*
X167795000Y-118860000D01*
X167845000Y-118810000D01*
X168995000Y-118810000D01*
X169045000Y-118860000D01*
G37*
G36*
X171205000Y-118860000D02*
G01*
X171205000Y-120140000D01*
X171155000Y-120190000D01*
X170005000Y-120190000D01*
X169955000Y-120140000D01*
X169950000Y-119730000D01*
X170400000Y-119730000D01*
X170400000Y-119280000D01*
X169960000Y-119280000D01*
X169955000Y-118860000D01*
X170005000Y-118810000D01*
X171155000Y-118810000D01*
X171205000Y-118860000D01*
G37*
%TD*%
D11*
%TO.C,C26*%
X107370000Y-96706500D03*
X105370000Y-96706500D03*
%TD*%
D12*
%TO.C,U4*%
X144375000Y-87225000D03*
X144375000Y-88495000D03*
X144375000Y-89765000D03*
X144375000Y-91035000D03*
X144375000Y-92305000D03*
X144375000Y-93575000D03*
X144375000Y-94845000D03*
X144375000Y-96115000D03*
X144375000Y-97385000D03*
X144375000Y-98655000D03*
X144375000Y-99925000D03*
X144375000Y-101195000D03*
X144375000Y-102465000D03*
X144375000Y-103735000D03*
D13*
X146140000Y-105015000D03*
X147410000Y-105015000D03*
X148680000Y-105015000D03*
X149950000Y-105015000D03*
X151220000Y-105015000D03*
X152490000Y-105015000D03*
X153760000Y-105015000D03*
X155030000Y-105015000D03*
X156300000Y-105015000D03*
X157570000Y-105015000D03*
X158840000Y-105015000D03*
X160110000Y-104985000D03*
D12*
X161875000Y-103735000D03*
X161875000Y-102465000D03*
X161875000Y-101195000D03*
X161875000Y-99925000D03*
X161875000Y-98655000D03*
X161875000Y-97385000D03*
X161875000Y-96115000D03*
X161875000Y-94845000D03*
X161875000Y-93575000D03*
X161875000Y-92305000D03*
X161875000Y-91035000D03*
X161875000Y-89765000D03*
X161875000Y-88495000D03*
X161875000Y-87225000D03*
D14*
X150225000Y-93545000D03*
X150225000Y-94945000D03*
X150225000Y-96345000D03*
X151625000Y-93545000D03*
X151625000Y-94945000D03*
X151625000Y-96345000D03*
X153025000Y-93545000D03*
X153025000Y-94945000D03*
X153025000Y-96345000D03*
%TD*%
D15*
%TO.C,C14*%
X138581000Y-86504500D03*
X138581000Y-88504500D03*
%TD*%
D11*
%TO.C,C2*%
X194200000Y-108575000D03*
X192200000Y-108575000D03*
%TD*%
%TO.C,C25*%
X105370000Y-94608000D03*
X107370000Y-94608000D03*
%TD*%
D16*
%TO.C,R3*%
X137098000Y-91036500D03*
X137098000Y-93036500D03*
%TD*%
D11*
%TO.C,C16*%
X127925000Y-82925000D03*
X125925000Y-82925000D03*
%TD*%
D16*
%TO.C,R5*%
X199975000Y-94025000D03*
X199975000Y-92025000D03*
%TD*%
D17*
%TO.C,U7*%
X105379500Y-90097000D03*
X104557500Y-90097000D03*
D18*
X103817000Y-90545000D03*
D19*
X103764000Y-91502000D03*
D20*
X102859500Y-90492000D03*
D21*
X102806500Y-91449000D03*
D17*
X104557500Y-91897000D03*
X105379500Y-91897000D03*
X105379500Y-90997000D03*
%TD*%
D15*
%TO.C,C5*%
X197825000Y-96050000D03*
X197825000Y-94050000D03*
%TD*%
D22*
%TO.C,LED1*%
X160850000Y-136921000D03*
X160850000Y-134721000D03*
%TD*%
D11*
%TO.C,C10*%
X182005500Y-95167000D03*
X180005500Y-95167000D03*
%TD*%
D15*
%TO.C,C15*%
X131550000Y-91774500D03*
X131550000Y-89774500D03*
%TD*%
D16*
%TO.C,R12*%
X114285000Y-126930500D03*
X114285000Y-124930500D03*
%TD*%
D23*
%TO.C,H1*%
X214966000Y-92026000D03*
X214966000Y-94026000D03*
D24*
X209266000Y-96376000D03*
X209266000Y-89676000D03*
%TD*%
D25*
%TO.C,R1*%
X145604000Y-134893000D03*
X143604000Y-134893000D03*
%TD*%
D26*
%TO.C,U2*%
X175209500Y-93277000D03*
X175209500Y-94227000D03*
X175209500Y-95177000D03*
X177809500Y-95177000D03*
X177809500Y-93277000D03*
%TD*%
D27*
%TO.C,J_DISP1*%
X156875000Y-128500000D03*
D28*
X156375000Y-128500000D03*
X155875000Y-128500000D03*
X155375000Y-128500000D03*
X154875000Y-128500000D03*
X154375000Y-128500000D03*
X153875000Y-128500000D03*
X153375000Y-128500000D03*
X152875000Y-128500000D03*
X152375000Y-128500000D03*
D29*
X151575000Y-131400000D03*
X157675000Y-131400000D03*
%TD*%
D30*
%TO.C,RST1*%
X175925000Y-81924500D03*
X169175000Y-81924500D03*
D31*
X174650000Y-83974500D03*
X170450000Y-83974500D03*
%TD*%
D16*
%TO.C,R11*%
X133749000Y-88502500D03*
X133749000Y-86502500D03*
%TD*%
D11*
%TO.C,C7*%
X187495000Y-87455000D03*
X189495000Y-87455000D03*
%TD*%
%TO.C,C18*%
X110664000Y-124186000D03*
X108664000Y-124186000D03*
%TD*%
D15*
%TO.C,C3*%
X202125000Y-94025500D03*
X202125000Y-92025500D03*
%TD*%
%TO.C,C13*%
X136172000Y-86504500D03*
X136172000Y-88504500D03*
%TD*%
D32*
%TO.C,U3*%
X175437500Y-120830500D03*
X175437500Y-122100500D03*
X175437500Y-123370500D03*
X175437500Y-124640500D03*
X175437500Y-125910500D03*
X175437500Y-127180500D03*
X175437500Y-128450500D03*
X175437500Y-129720500D03*
X181182500Y-129720500D03*
X181182500Y-128450500D03*
X181182500Y-127180500D03*
X181182500Y-125910500D03*
X181182500Y-124640500D03*
X181182500Y-123370500D03*
X181182500Y-122100500D03*
X181182500Y-120830500D03*
%TD*%
D33*
%TO.C,CN1*%
X102475000Y-137085000D03*
X101225000Y-137085000D03*
D34*
X104855000Y-134515000D03*
X98845000Y-134515000D03*
%TD*%
D25*
%TO.C,R17*%
X131672000Y-119185500D03*
X133672000Y-119185500D03*
%TD*%
D11*
%TO.C,C17*%
X171805000Y-85717000D03*
X169805000Y-85717000D03*
%TD*%
D35*
%TO.C,CARD1*%
X130824000Y-123727500D03*
X129724000Y-123727500D03*
X128624000Y-123727500D03*
X127524000Y-123727500D03*
X126424000Y-123727500D03*
X125324000Y-123727500D03*
X124224000Y-123727500D03*
X123124000Y-123727500D03*
D36*
X120824000Y-124727500D03*
D37*
X120824000Y-134327500D03*
X136324000Y-134327500D03*
D38*
X135424000Y-124727500D03*
D35*
X122024000Y-123727500D03*
%TD*%
D11*
%TO.C,C9*%
X182005500Y-93135000D03*
X180005500Y-93135000D03*
%TD*%
%TO.C,C12*%
X186003500Y-118694000D03*
X184003500Y-118694000D03*
%TD*%
D25*
%TO.C,R4*%
X194194000Y-110987500D03*
X192194000Y-110987500D03*
%TD*%
D11*
%TO.C,C4*%
X198312500Y-110992000D03*
X196312500Y-110992000D03*
%TD*%
D39*
%TO.C,L2*%
X172857000Y-95179500D03*
X170157000Y-95179500D03*
%TD*%
D11*
%TO.C,C22*%
X168376000Y-105707500D03*
X170376000Y-105707500D03*
%TD*%
%TO.C,C24*%
X127542500Y-121282000D03*
X125542500Y-121282000D03*
%TD*%
D30*
%TO.C,BOOT1*%
X137075500Y-81925000D03*
X130325500Y-81925000D03*
D31*
X135800500Y-83975000D03*
X131600500Y-83975000D03*
%TD*%
D11*
%TO.C,C_DISP1*%
X168500000Y-109500000D03*
X170500000Y-109500000D03*
%TD*%
D25*
%TO.C,R16*%
X121450000Y-120425000D03*
X119450000Y-120425000D03*
%TD*%
%TO.C,R9*%
X175814500Y-89452000D03*
X177814500Y-89452000D03*
%TD*%
D15*
%TO.C,C1*%
X168374500Y-93196500D03*
X168374500Y-95196500D03*
%TD*%
D11*
%TO.C,C8*%
X182005500Y-91128500D03*
X180005500Y-91128500D03*
%TD*%
D16*
%TO.C,R7*%
X206171000Y-105764000D03*
X206171000Y-103764000D03*
%TD*%
D40*
%TO.C,U1*%
X192195000Y-103633500D03*
X193465000Y-103633500D03*
X194735000Y-103633500D03*
X196005000Y-103633500D03*
X196005000Y-97816500D03*
X194735000Y-97816500D03*
X193465000Y-97816500D03*
X192195000Y-97816500D03*
D41*
X194100000Y-100725000D03*
%TD*%
D11*
%TO.C,C23*%
X127563000Y-119157000D03*
X125563000Y-119157000D03*
%TD*%
%TO.C,C6*%
X187495000Y-89507000D03*
X189495000Y-89507000D03*
%TD*%
%TO.C,C20*%
X164000000Y-119500000D03*
X166000000Y-119500000D03*
%TD*%
D42*
%TO.C,Q1*%
X183126000Y-123381000D03*
X183126000Y-124031000D03*
X183126000Y-124681000D03*
X185026000Y-124681000D03*
X185026000Y-124031000D03*
X185026000Y-123381000D03*
%TD*%
D25*
%TO.C,R2*%
X143604000Y-137171000D03*
X145604000Y-137171000D03*
%TD*%
D16*
%TO.C,R15*%
X107225000Y-91000000D03*
X107225000Y-89000000D03*
%TD*%
D11*
%TO.C,C19*%
X110639500Y-122128500D03*
X108639500Y-122128500D03*
%TD*%
D25*
%TO.C,R6*%
X177796500Y-91504000D03*
X175796500Y-91504000D03*
%TD*%
D43*
%TO.C,U5*%
X112663000Y-128438500D03*
X112663000Y-127938500D03*
X112663000Y-127438500D03*
X112663000Y-126938500D03*
D44*
X111911000Y-126190000D03*
X111411000Y-126190000D03*
X110911000Y-126190000D03*
X110411000Y-126190000D03*
D43*
X109663000Y-126940000D03*
X109663000Y-127440000D03*
X109663000Y-127940000D03*
X109663000Y-128438500D03*
D44*
X110411000Y-129190000D03*
X110911000Y-129190000D03*
X111411000Y-129190000D03*
X111911000Y-129190000D03*
D45*
X111163000Y-127690000D03*
%TD*%
D16*
%TO.C,R10*%
X129442500Y-89790000D03*
X129442500Y-91790000D03*
%TD*%
%TO.C,R8*%
X134685000Y-93036500D03*
X134685000Y-91036500D03*
%TD*%
D25*
%TO.C,R19*%
X153750000Y-124575000D03*
X151750000Y-124575000D03*
%TD*%
%TO.C,R18*%
X131672000Y-121310000D03*
X133672000Y-121310000D03*
%TD*%
%TO.C,L1*%
X193476000Y-92033000D03*
X195408000Y-92033000D03*
%TD*%
D11*
%TO.C,C11*%
X186003500Y-116560500D03*
X184003500Y-116560500D03*
%TD*%
%TO.C,C21*%
X168500000Y-119500000D03*
X170500000Y-119500000D03*
%TD*%
M02*
