%TF.GenerationSoftware,KiCad,Pcbnew,10.0.4*%
%TF.CreationDate,2026-07-22T13:08:43+08:00*%
%TF.ProjectId,Cadenza-L1-Screen-Only,43616465-6e7a-4612-9d4c-312d53637265,rev?*%
%TF.SameCoordinates,Original*%
%TF.FileFunction,Legend,Top*%
%TF.FilePolarity,Positive*%
%FSLAX46Y46*%
G04 Gerber Fmt 4.6, Leading zero omitted, Abs format (unit mm)*
G04 Created by KiCad (PCBNEW 10.0.4) date 2026-07-22 13:08:43*
%MOMM*%
%LPD*%
G01*
G04 APERTURE LIST*
G04 Aperture macros list*
%AMRoundRect*
0 Rectangle with rounded corners*
0 $1 Rounding radius*
0 $2 $3 $4 $5 $6 $7 $8 $9 X,Y pos of 4 corners*
0 Add a 4 corners polygon primitive as box body*
4,1,4,$2,$3,$4,$5,$6,$7,$8,$9,$2,$3,0*
0 Add four circle primitives for the rounded corners*
1,1,$1+$1,$2,$3*
1,1,$1+$1,$4,$5*
1,1,$1+$1,$6,$7*
1,1,$1+$1,$8,$9*
0 Add four rect primitives between the rounded corners*
20,1,$1+$1,$2,$3,$4,$5,0*
20,1,$1+$1,$4,$5,$6,$7,0*
20,1,$1+$1,$6,$7,$8,$9,0*
20,1,$1+$1,$8,$9,$2,$3,0*%
%AMFreePoly0*
4,1,51,-0.042000,0.320500,-0.033000,0.287500,-0.022000,0.255000,-0.009000,0.223000,0.006000,0.192000,0.022500,0.162000,0.041500,0.133000,0.061500,0.105500,0.083500,0.079000,0.107000,0.054000,0.132000,0.030500,0.158500,0.008500,0.186500,-0.012000,0.215500,-0.030500,0.245500,-0.047500,0.276500,-0.062500,0.308000,-0.075500,0.340500,-0.086500,0.374000,-0.095500,0.407500,-0.102500,
0.407500,-0.355000,0.406500,-0.355000,0.365500,-0.348500,0.324500,-0.340500,0.284500,-0.330500,0.245000,-0.318000,0.206000,-0.304000,0.168000,-0.287500,0.130500,-0.269500,0.094000,-0.249000,0.059000,-0.227500,0.025000,-0.203500,-0.008000,-0.178500,-0.039500,-0.151500,-0.069500,-0.123000,-0.098000,-0.092500,-0.125000,-0.061000,-0.150500,-0.028500,-0.174000,0.006000,-0.196000,0.041000,
-0.216000,0.077500,-0.234500,0.114500,-0.250500,0.153000,-0.265000,0.191500,-0.277000,0.231500,-0.287500,0.271500,-0.295500,0.312000,-0.301500,0.353000,-0.300500,0.354500,-0.049000,0.354500,-0.042000,0.320500,-0.042000,0.320500,$1*%
%AMFreePoly1*
4,1,51,0.354500,0.301000,0.354500,0.049500,0.321000,0.042500,0.287500,0.033500,0.255000,0.022500,0.223000,0.009500,0.192000,-0.005500,0.162000,-0.022500,0.133500,-0.041000,0.105500,-0.061500,0.079000,-0.083500,0.054000,-0.107000,0.030500,-0.132000,0.008500,-0.158500,-0.012000,-0.186000,-0.030500,-0.215000,-0.047000,-0.245000,-0.062000,-0.276000,-0.075000,-0.308000,-0.086000,-0.340500,
-0.095000,-0.373500,-0.102500,-0.407500,-0.354500,-0.407500,-0.354500,-0.406000,-0.348500,-0.365000,-0.340500,-0.324500,-0.330000,-0.284500,-0.318000,-0.244500,-0.303500,-0.205500,-0.287500,-0.167500,-0.269000,-0.130000,-0.249000,-0.094000,-0.227000,-0.058500,-0.203500,-0.024500,-0.178000,0.008000,-0.151000,0.039500,-0.122500,0.070000,-0.092500,0.098500,-0.061000,0.125500,-0.028000,0.151000,
0.006000,0.174500,0.041000,0.196500,0.077500,0.216500,0.115000,0.234500,0.153000,0.251000,0.192000,0.265000,0.231500,0.277500,0.271500,0.287500,0.312500,0.296000,0.353500,0.302000,0.354500,0.301000,0.354500,0.301000,$1*%
%AMFreePoly2*
4,1,52,0.354500,0.406000,0.348500,0.365000,0.340500,0.324500,0.330000,0.284000,0.317500,0.244500,0.303500,0.205500,0.287000,0.167500,0.269000,0.130000,0.249000,0.094000,0.227000,0.058500,0.203500,0.024500,0.178000,-0.008500,0.151000,-0.040000,0.122500,-0.070000,0.092500,-0.098500,0.061000,-0.125500,0.028000,-0.151000,-0.006000,-0.174500,-0.041500,-0.196500,-0.077500,-0.216500,
-0.115000,-0.234500,-0.153000,-0.251000,-0.192000,-0.265000,-0.231500,-0.277500,-0.272000,-0.287500,-0.312500,-0.296000,-0.353500,-0.302000,-0.354500,-0.301000,-0.354500,-0.049500,-0.321000,-0.042500,-0.287500,-0.033500,-0.255000,-0.022500,-0.223500,-0.009500,-0.192500,0.005500,-0.162500,0.022500,-0.133500,0.041000,-0.105500,0.061500,-0.079000,0.083500,-0.054000,0.107000,-0.030500,0.132000,
-0.008500,0.158500,0.011500,0.186000,0.030500,0.215000,0.047000,0.245000,0.062000,0.276000,0.075000,0.308000,0.086000,0.340500,0.095000,0.373500,0.102000,0.407000,0.102000,0.407500,0.354500,0.407500,0.354500,0.406000,0.354500,0.406000,$1*%
%AMFreePoly3*
4,1,51,-0.365500,0.348500,-0.325000,0.340500,-0.284500,0.330500,-0.245000,0.318000,-0.206000,0.303500,-0.168000,0.287500,-0.130500,0.269500,-0.094000,0.249000,-0.059000,0.227500,-0.025000,0.203500,0.008000,0.178500,0.039500,0.151500,0.069500,0.122500,0.098000,0.092500,0.125000,0.061000,0.150500,0.028500,0.174000,-0.006000,0.196000,-0.041000,0.216000,-0.077500,0.234000,-0.114500,
0.250500,-0.153000,0.265000,-0.192000,0.277000,-0.231500,0.287500,-0.271500,0.295500,-0.312000,0.301500,-0.353500,0.300500,-0.354500,0.049000,-0.354500,0.042000,-0.320500,0.033000,-0.287500,0.022000,-0.255000,0.009000,-0.223000,-0.006000,-0.192000,-0.022500,-0.162000,-0.041500,-0.133000,-0.061500,-0.105500,-0.083500,-0.079000,-0.107000,-0.054000,-0.132000,-0.030500,-0.158500,-0.008500,
-0.186500,0.012000,-0.215500,0.030500,-0.245500,0.047500,-0.276500,0.062000,-0.308000,0.075500,-0.340500,0.086500,-0.374000,0.095500,-0.407500,0.102500,-0.407500,0.355000,-0.406500,0.355000,-0.365500,0.348500,-0.365500,0.348500,$1*%
G04 Aperture macros list end*
%ADD10C,0.150000*%
%ADD11C,0.152500*%
%ADD12C,0.254000*%
%ADD13C,0.000000*%
%ADD14C,0.152000*%
%ADD15C,0.240000*%
%ADD16C,0.100000*%
%ADD17C,0.120000*%
%ADD18C,0.300000*%
%ADD19C,0.200000*%
%ADD20R,1.410000X1.350000*%
%ADD21R,1.500000X0.900000*%
%ADD22R,0.900000X1.500000*%
%ADD23R,0.900000X0.900000*%
%ADD24C,2.000000*%
%ADD25R,1.350000X1.410000*%
%ADD26R,1.377000X1.132500*%
%ADD27R,0.520000X0.600000*%
%ADD28FreePoly0,180.000000*%
%ADD29FreePoly1,180.000000*%
%ADD30FreePoly2,180.000000*%
%ADD31FreePoly3,180.000000*%
%ADD32C,1.524000*%
%ADD33O,1.400000X2.200000*%
%ADD34R,1.250000X1.000000*%
%ADD35R,3.500000X1.000000*%
%ADD36R,3.500000X1.500000*%
%ADD37R,1.132500X1.377000*%
%ADD38R,1.100000X0.600000*%
%ADD39RoundRect,0.060000X-0.090000X-0.340000X0.090000X-0.340000X0.090000X0.340000X-0.090000X0.340000X0*%
%ADD40R,0.300000X0.800000*%
%ADD41R,0.800000X0.800000*%
%ADD42R,1.450000X0.800000*%
%ADD43R,0.900000X1.000000*%
%ADD44O,1.745000X0.560000*%
%ADD45R,0.800000X2.200000*%
%ADD46R,2.350000X2.500000*%
%ADD47R,0.700000X1.600000*%
%ADD48R,1.200000X1.500000*%
%ADD49R,1.200000X2.200000*%
%ADD50R,1.600000X1.500000*%
%ADD51R,1.300000X2.720000*%
%ADD52O,1.600000X1.000000*%
%ADD53C,0.700000*%
%ADD54R,0.600000X1.200000*%
%ADD55R,3.300000X2.400000*%
%ADD56R,0.600000X0.420000*%
%ADD57R,0.600000X0.250000*%
%ADD58R,0.250000X0.600000*%
%ADD59R,1.500000X1.500000*%
G04 APERTURE END LIST*
D10*
X167238095Y-108179830D02*
X167190476Y-108227450D01*
X167190476Y-108227450D02*
X167047619Y-108275069D01*
X167047619Y-108275069D02*
X166952381Y-108275069D01*
X166952381Y-108275069D02*
X166809524Y-108227450D01*
X166809524Y-108227450D02*
X166714286Y-108132211D01*
X166714286Y-108132211D02*
X166666667Y-108036973D01*
X166666667Y-108036973D02*
X166619048Y-107846497D01*
X166619048Y-107846497D02*
X166619048Y-107703640D01*
X166619048Y-107703640D02*
X166666667Y-107513164D01*
X166666667Y-107513164D02*
X166714286Y-107417926D01*
X166714286Y-107417926D02*
X166809524Y-107322688D01*
X166809524Y-107322688D02*
X166952381Y-107275069D01*
X166952381Y-107275069D02*
X167047619Y-107275069D01*
X167047619Y-107275069D02*
X167190476Y-107322688D01*
X167190476Y-107322688D02*
X167238095Y-107370307D01*
X167428572Y-108370307D02*
X168190476Y-108370307D01*
X168428572Y-108275069D02*
X168428572Y-107275069D01*
X168428572Y-107275069D02*
X168666667Y-107275069D01*
X168666667Y-107275069D02*
X168809524Y-107322688D01*
X168809524Y-107322688D02*
X168904762Y-107417926D01*
X168904762Y-107417926D02*
X168952381Y-107513164D01*
X168952381Y-107513164D02*
X169000000Y-107703640D01*
X169000000Y-107703640D02*
X169000000Y-107846497D01*
X169000000Y-107846497D02*
X168952381Y-108036973D01*
X168952381Y-108036973D02*
X168904762Y-108132211D01*
X168904762Y-108132211D02*
X168809524Y-108227450D01*
X168809524Y-108227450D02*
X168666667Y-108275069D01*
X168666667Y-108275069D02*
X168428572Y-108275069D01*
X169428572Y-108275069D02*
X169428572Y-107275069D01*
X169857143Y-108227450D02*
X170000000Y-108275069D01*
X170000000Y-108275069D02*
X170238095Y-108275069D01*
X170238095Y-108275069D02*
X170333333Y-108227450D01*
X170333333Y-108227450D02*
X170380952Y-108179830D01*
X170380952Y-108179830D02*
X170428571Y-108084592D01*
X170428571Y-108084592D02*
X170428571Y-107989354D01*
X170428571Y-107989354D02*
X170380952Y-107894116D01*
X170380952Y-107894116D02*
X170333333Y-107846497D01*
X170333333Y-107846497D02*
X170238095Y-107798878D01*
X170238095Y-107798878D02*
X170047619Y-107751259D01*
X170047619Y-107751259D02*
X169952381Y-107703640D01*
X169952381Y-107703640D02*
X169904762Y-107656021D01*
X169904762Y-107656021D02*
X169857143Y-107560783D01*
X169857143Y-107560783D02*
X169857143Y-107465545D01*
X169857143Y-107465545D02*
X169904762Y-107370307D01*
X169904762Y-107370307D02*
X169952381Y-107322688D01*
X169952381Y-107322688D02*
X170047619Y-107275069D01*
X170047619Y-107275069D02*
X170285714Y-107275069D01*
X170285714Y-107275069D02*
X170428571Y-107322688D01*
X170857143Y-108275069D02*
X170857143Y-107275069D01*
X170857143Y-107275069D02*
X171238095Y-107275069D01*
X171238095Y-107275069D02*
X171333333Y-107322688D01*
X171333333Y-107322688D02*
X171380952Y-107370307D01*
X171380952Y-107370307D02*
X171428571Y-107465545D01*
X171428571Y-107465545D02*
X171428571Y-107608402D01*
X171428571Y-107608402D02*
X171380952Y-107703640D01*
X171380952Y-107703640D02*
X171333333Y-107751259D01*
X171333333Y-107751259D02*
X171238095Y-107798878D01*
X171238095Y-107798878D02*
X170857143Y-107798878D01*
X172380952Y-108275069D02*
X171809524Y-108275069D01*
X172095238Y-108275069D02*
X172095238Y-107275069D01*
X172095238Y-107275069D02*
X172000000Y-107417926D01*
X172000000Y-107417926D02*
X171904762Y-107513164D01*
X171904762Y-107513164D02*
X171809524Y-107560783D01*
%TO.C,C26*%
D11*
X104406500Y-95955500D02*
X104406500Y-97457500D01*
X104559000Y-97610000D02*
X105969000Y-97610000D01*
X105969000Y-95803000D02*
X104559000Y-95803000D01*
X106771000Y-95803000D02*
X108181000Y-95803000D01*
X108181000Y-97610000D02*
X106771000Y-97610000D01*
X108333500Y-95955500D02*
X108333500Y-97457500D01*
X104406500Y-95955500D02*
G75*
G02*
X104559000Y-95803000I152500J0D01*
G01*
X104559000Y-97610000D02*
G75*
G02*
X104406500Y-97457500I0J152500D01*
G01*
X108181000Y-95803000D02*
G75*
G02*
X108333500Y-95955500I1J-152499D01*
G01*
X108333500Y-97457500D02*
G75*
G02*
X108181000Y-97610000I-152499J-1D01*
G01*
%TO.C,U4*%
D12*
X144125000Y-79725000D02*
X144125000Y-86544000D01*
X144125000Y-85764500D02*
X162142000Y-85764500D01*
X144125000Y-104416000D02*
X144125000Y-105264000D01*
X144125000Y-105264000D02*
X145459000Y-105264000D01*
X145886000Y-80880000D02*
X145886000Y-84563000D01*
X148172000Y-80880000D02*
X145886000Y-80880000D01*
X148172000Y-83039000D02*
X148172000Y-80880000D01*
X150458000Y-80880000D02*
X150458000Y-83039000D01*
X150458000Y-83039000D02*
X148172000Y-83039000D01*
X152998000Y-80880000D02*
X150458000Y-80880000D01*
X152998000Y-83039000D02*
X152998000Y-80880000D01*
X155538000Y-80880000D02*
X155538000Y-83039000D01*
X155538000Y-83039000D02*
X152998000Y-83039000D01*
X158390000Y-80880000D02*
X155538000Y-80880000D01*
X158390000Y-85764500D02*
X158390000Y-80880000D01*
X160422000Y-80880000D02*
X158187000Y-80880000D01*
X160422000Y-85764500D02*
X160422000Y-80880000D01*
X160791000Y-105264000D02*
X162142000Y-105264000D01*
X162125000Y-79725000D02*
X144125000Y-79725000D01*
X162142000Y-86544000D02*
X162142000Y-79737000D01*
X162142000Y-105264000D02*
X162142000Y-104416000D01*
D13*
G36*
X145596500Y-87020000D02*
G01*
X145596500Y-87020000D01*
G75*
G02*
X146653500Y-87020000I528500J0D01*
G01*
X146653500Y-87020000D01*
G75*
G02*
X145596500Y-87020000I-528500J0D01*
G01*
X145596500Y-87020000D01*
G37*
%TO.C,SCREW3*%
D11*
X91804000Y-136046000D02*
X91753500Y-136046000D01*
X91855000Y-133367500D02*
X91855000Y-133353500D01*
X93125000Y-134637500D02*
X91855000Y-133367500D01*
X93125000Y-134725000D02*
X91804000Y-136046000D01*
X93125000Y-134725000D02*
X94446000Y-133404000D01*
X93125000Y-134725000D02*
X94482000Y-136082000D01*
X94446000Y-133404000D02*
X94496500Y-133404000D01*
X95025000Y-134725000D02*
G75*
G02*
X91225000Y-134725000I-1900000J0D01*
G01*
X91225000Y-134725000D02*
G75*
G02*
X95025000Y-134725000I1900000J0D01*
G01*
%TO.C,C14*%
X137677500Y-87103500D02*
X137677500Y-85693500D01*
X137677500Y-87905500D02*
X137677500Y-89315500D01*
X137830000Y-85541000D02*
X139332000Y-85541000D01*
X137830000Y-89468000D02*
X139332000Y-89468000D01*
X139484500Y-85693500D02*
X139484500Y-87103500D01*
X139484500Y-89315500D02*
X139484500Y-87905500D01*
X137677500Y-85693500D02*
G75*
G02*
X137830000Y-85541000I152499J1D01*
G01*
X137830000Y-89468000D02*
G75*
G02*
X137677500Y-89315500I0J152500D01*
G01*
X139332000Y-85541000D02*
G75*
G02*
X139484500Y-85693500I1J-152499D01*
G01*
X139484500Y-89315500D02*
G75*
G02*
X139332000Y-89468000I-152500J0D01*
G01*
%TO.C,C2*%
X191236500Y-107824000D02*
X191236500Y-109326000D01*
X191389000Y-109478500D02*
X192799000Y-109478500D01*
X192799000Y-107671500D02*
X191389000Y-107671500D01*
X193601000Y-107671500D02*
X195011000Y-107671500D01*
X195011000Y-109478500D02*
X193601000Y-109478500D01*
X195163500Y-107824000D02*
X195163500Y-109326000D01*
X191236500Y-107824000D02*
G75*
G02*
X191389000Y-107671500I152500J0D01*
G01*
X191389000Y-109478500D02*
G75*
G02*
X191236500Y-109326000I0J152500D01*
G01*
X195011000Y-107671500D02*
G75*
G02*
X195163500Y-107824000I1J-152499D01*
G01*
X195163500Y-109326000D02*
G75*
G02*
X195011000Y-109478500I-152499J-1D01*
G01*
%TO.C,C25*%
X104406500Y-95359000D02*
X104406500Y-93857000D01*
X104559000Y-93704500D02*
X105969000Y-93704500D01*
X105969000Y-95511500D02*
X104559000Y-95511500D01*
X106771000Y-95511500D02*
X108181000Y-95511500D01*
X108181000Y-93704500D02*
X106771000Y-93704500D01*
X108333500Y-95359000D02*
X108333500Y-93857000D01*
X104406500Y-93857000D02*
G75*
G02*
X104559000Y-93704500I152499J1D01*
G01*
X104559000Y-95511500D02*
G75*
G02*
X104406500Y-95359000I-1J152499D01*
G01*
X108181000Y-93704500D02*
G75*
G02*
X108333500Y-93857000I0J-152500D01*
G01*
X108333500Y-95359000D02*
G75*
G02*
X108181000Y-95511500I-152500J0D01*
G01*
%TO.C,R3*%
X136181000Y-90275500D02*
X138015000Y-90275500D01*
X136181000Y-91560500D02*
X136181000Y-90275500D01*
X136181000Y-92512500D02*
X136181000Y-93797500D01*
X136181000Y-93797500D02*
X138015000Y-93797500D01*
X138015000Y-90275500D02*
X138015000Y-91560500D01*
X138015000Y-93797500D02*
X138015000Y-92512500D01*
%TO.C,C16*%
X124961500Y-82174000D02*
X124961500Y-83676000D01*
X125114000Y-83828500D02*
X126524000Y-83828500D01*
X126524000Y-82021500D02*
X125114000Y-82021500D01*
X127326000Y-82021500D02*
X128736000Y-82021500D01*
X128736000Y-83828500D02*
X127326000Y-83828500D01*
X128888500Y-82174000D02*
X128888500Y-83676000D01*
X124961500Y-82174000D02*
G75*
G02*
X125114000Y-82021500I152500J0D01*
G01*
X125114000Y-83828500D02*
G75*
G02*
X124961500Y-83676000I0J152500D01*
G01*
X128736000Y-82021500D02*
G75*
G02*
X128888500Y-82174000I1J-152499D01*
G01*
X128888500Y-83676000D02*
G75*
G02*
X128736000Y-83828500I-152499J-1D01*
G01*
%TO.C,R5*%
X199058000Y-91264000D02*
X199058000Y-92549000D01*
X199058000Y-94786000D02*
X199058000Y-93501000D01*
X200892000Y-91264000D02*
X199058000Y-91264000D01*
X200892000Y-92549000D02*
X200892000Y-91264000D01*
X200892000Y-93501000D02*
X200892000Y-94786000D01*
X200892000Y-94786000D02*
X199058000Y-94786000D01*
%TO.C,U7*%
D14*
X102207500Y-89597000D02*
X105807500Y-89597000D01*
X102207500Y-92397000D02*
X102207500Y-89597000D01*
X105857500Y-92397000D02*
X102207500Y-92397000D01*
X105857500Y-92397000D02*
X105857500Y-89597000D01*
D15*
X105526500Y-89197000D02*
G75*
G02*
X105287500Y-89197000I-119500J0D01*
G01*
X105287500Y-89197000D02*
G75*
G02*
X105526500Y-89197000I119500J0D01*
G01*
%TO.C,SW1*%
D12*
X177671000Y-81726000D02*
X186371000Y-81726000D01*
X177672000Y-82615500D02*
X177672000Y-81726000D01*
X177672000Y-86125000D02*
X177672000Y-85234500D01*
X182011000Y-81726000D02*
X182011000Y-77726000D01*
X184028000Y-77726000D02*
X182011000Y-77726000D01*
X184028000Y-81726000D02*
X184028000Y-77726000D01*
X186371000Y-81726000D02*
X186371000Y-82615500D01*
X186371000Y-85234500D02*
X186371000Y-86125000D01*
X186372000Y-86125000D02*
X177672000Y-86125000D01*
%TO.C,C5*%
D11*
X196921500Y-93239000D02*
X196921500Y-94649000D01*
X196921500Y-96861000D02*
X196921500Y-95451000D01*
X198576000Y-93086500D02*
X197074000Y-93086500D01*
X198576000Y-97013500D02*
X197074000Y-97013500D01*
X198728500Y-94649000D02*
X198728500Y-93239000D01*
X198728500Y-95451000D02*
X198728500Y-96861000D01*
X196921500Y-93239000D02*
G75*
G02*
X197074000Y-93086500I152500J0D01*
G01*
X197074000Y-97013500D02*
G75*
G02*
X196921500Y-96861000I-1J152499D01*
G01*
X198576000Y-93086500D02*
G75*
G02*
X198728500Y-93239000I0J-152500D01*
G01*
X198728500Y-96861000D02*
G75*
G02*
X198576000Y-97013500I-152499J-1D01*
G01*
%TO.C,LED1*%
D12*
X159890000Y-133841000D02*
X161790000Y-133841000D01*
X159900000Y-135321000D02*
X159890000Y-133841000D01*
X159900000Y-136321000D02*
X159900000Y-137571000D01*
X159900000Y-137571000D02*
X160250000Y-137921000D01*
X160250000Y-137921000D02*
X161450000Y-137921000D01*
X160350000Y-135521000D02*
X161350000Y-135521000D01*
X160855000Y-135521000D02*
X160855000Y-136021000D01*
X161790000Y-135181000D02*
X161790000Y-133841000D01*
X161800000Y-136321000D02*
X161800000Y-137571000D01*
X161800000Y-137571000D02*
X161450000Y-137921000D01*
%TO.C,SCREW2*%
D11*
X211804000Y-86046000D02*
X211753500Y-86046000D01*
X211855000Y-83367500D02*
X211855000Y-83353500D01*
X213125000Y-84637500D02*
X211855000Y-83367500D01*
X213125000Y-84725000D02*
X211804000Y-86046000D01*
X213125000Y-84725000D02*
X214446000Y-83404000D01*
X213125000Y-84725000D02*
X214482000Y-86082000D01*
X214446000Y-83404000D02*
X214496500Y-83404000D01*
X215025000Y-84725000D02*
G75*
G02*
X211225000Y-84725000I-1900000J0D01*
G01*
X211225000Y-84725000D02*
G75*
G02*
X215025000Y-84725000I1900000J0D01*
G01*
%TO.C,C10*%
X179042000Y-94416000D02*
X179042000Y-95918000D01*
X179194500Y-96070500D02*
X180604500Y-96070500D01*
X180604500Y-94263500D02*
X179194500Y-94263500D01*
X181406500Y-94263500D02*
X182816500Y-94263500D01*
X182816500Y-96070500D02*
X181406500Y-96070500D01*
X182969000Y-94416000D02*
X182969000Y-95918000D01*
X179042000Y-94416000D02*
G75*
G02*
X179194500Y-94263500I152500J0D01*
G01*
X179194500Y-96070500D02*
G75*
G02*
X179042000Y-95918000I0J152500D01*
G01*
X182816500Y-94263500D02*
G75*
G02*
X182969000Y-94416000I1J-152499D01*
G01*
X182969000Y-95918000D02*
G75*
G02*
X182816500Y-96070500I-152499J-1D01*
G01*
%TO.C,C15*%
X130646500Y-88963500D02*
X130646500Y-90373500D01*
X130646500Y-92585500D02*
X130646500Y-91175500D01*
X132301000Y-88811000D02*
X130799000Y-88811000D01*
X132301000Y-92738000D02*
X130799000Y-92738000D01*
X132453500Y-90373500D02*
X132453500Y-88963500D01*
X132453500Y-91175500D02*
X132453500Y-92585500D01*
X130646500Y-88963500D02*
G75*
G02*
X130799000Y-88811000I152500J0D01*
G01*
X130799000Y-92738000D02*
G75*
G02*
X130646500Y-92585500I-1J152499D01*
G01*
X132301000Y-88811000D02*
G75*
G02*
X132453500Y-88963500I0J-152500D01*
G01*
X132453500Y-92585500D02*
G75*
G02*
X132301000Y-92738000I-152499J-1D01*
G01*
%TO.C,R12*%
X113368000Y-124169500D02*
X113368000Y-125454500D01*
X113368000Y-127691500D02*
X113368000Y-126406500D01*
X115202000Y-124169500D02*
X113368000Y-124169500D01*
X115202000Y-125454500D02*
X115202000Y-124169500D01*
X115202000Y-126406500D02*
X115202000Y-127691500D01*
X115202000Y-127691500D02*
X113368000Y-127691500D01*
%TO.C,H1*%
D12*
X207641000Y-93190500D02*
X207641000Y-90657000D01*
X207641000Y-93190500D02*
X207641000Y-95395000D01*
X211218500Y-88978000D02*
X215312000Y-88978000D01*
X213813000Y-89929000D02*
X213813000Y-91247000D01*
X213813000Y-91247000D02*
X213813000Y-91295000D01*
X213813000Y-92757000D02*
X213813000Y-93295000D01*
X213813000Y-96075000D02*
X213813000Y-94757000D01*
X215312000Y-88978000D02*
X215312000Y-89929000D01*
X215312000Y-89929000D02*
X213813000Y-89929000D01*
X215312000Y-96075000D02*
X213813000Y-96075000D01*
X215312000Y-97026000D02*
X211318000Y-97026000D01*
X215312000Y-97026000D02*
X215312000Y-96075000D01*
X215126000Y-90746000D02*
G75*
G02*
X214506000Y-90746000I-310000J0D01*
G01*
X214506000Y-90746000D02*
G75*
G02*
X215126000Y-90746000I310000J0D01*
G01*
%TO.C,R1*%
D11*
X142843000Y-133976000D02*
X142843000Y-135810000D01*
X142843000Y-135810000D02*
X144128000Y-135810000D01*
X144128000Y-133976000D02*
X142843000Y-133976000D01*
X145080000Y-133976000D02*
X146365000Y-133976000D01*
X146365000Y-133976000D02*
X146365000Y-135810000D01*
X146365000Y-135810000D02*
X145080000Y-135810000D01*
%TO.C,U2*%
D16*
X175609500Y-92823000D02*
X175609500Y-92677000D01*
X175609500Y-93773000D02*
X175609500Y-93731000D01*
X175609500Y-94723000D02*
X175609500Y-94681000D01*
X175609500Y-95777000D02*
X175609500Y-95631000D01*
X177409500Y-92677000D02*
X175609500Y-92677000D01*
X177409500Y-92823000D02*
X177409500Y-92677000D01*
X177409500Y-94723000D02*
X177409500Y-93731000D01*
X177409500Y-95777000D02*
X175609500Y-95777000D01*
X177409500Y-95777000D02*
X177409500Y-95631000D01*
D13*
G36*
X175951500Y-93211000D02*
G01*
X175951500Y-93211000D01*
G75*
G02*
X176305500Y-93211000I177000J2000D01*
G01*
X176305500Y-93211000D01*
G75*
G02*
X175951500Y-93211000I-177000J-2000D01*
G01*
X175951500Y-93211000D01*
G37*
%TO.C,J_DISP1*%
D17*
X151125000Y-128000000D02*
X158125000Y-128000000D01*
X152225000Y-131800000D02*
X157025000Y-131800000D01*
D16*
X156875000Y-127550000D02*
X156525000Y-127000000D01*
X157225000Y-127000000D01*
X156875000Y-127550000D01*
G36*
X156875000Y-127550000D02*
G01*
X156525000Y-127000000D01*
X157225000Y-127000000D01*
X156875000Y-127550000D01*
G37*
%TO.C,RST1*%
D12*
X168750000Y-84424500D02*
X168750000Y-82555500D01*
X169769000Y-84424500D02*
X168750000Y-84424500D01*
X171050000Y-80724500D02*
X171050000Y-81824500D01*
X173969000Y-84424500D02*
X171131000Y-84419500D01*
X174050000Y-80724500D02*
X171050000Y-80724500D01*
X174050000Y-80724500D02*
X174050000Y-81824500D01*
X174932000Y-81824500D02*
X170168000Y-81824500D01*
X176350000Y-84424500D02*
X175331000Y-84424500D01*
X176350000Y-84424500D02*
X176350000Y-82555500D01*
%TO.C,R11*%
D11*
X132832000Y-85741500D02*
X132832000Y-87026500D01*
X132832000Y-89263500D02*
X132832000Y-87978500D01*
X134666000Y-85741500D02*
X132832000Y-85741500D01*
X134666000Y-87026500D02*
X134666000Y-85741500D01*
X134666000Y-87978500D02*
X134666000Y-89263500D01*
X134666000Y-89263500D02*
X132832000Y-89263500D01*
%TO.C,C7*%
X186531500Y-88206000D02*
X186531500Y-86704000D01*
X186684000Y-86551500D02*
X188094000Y-86551500D01*
X188094000Y-88358500D02*
X186684000Y-88358500D01*
X188896000Y-88358500D02*
X190306000Y-88358500D01*
X190306000Y-86551500D02*
X188896000Y-86551500D01*
X190458500Y-88206000D02*
X190458500Y-86704000D01*
X186531500Y-86704000D02*
G75*
G02*
X186684000Y-86551500I152499J1D01*
G01*
X186684000Y-88358500D02*
G75*
G02*
X186531500Y-88206000I-1J152499D01*
G01*
X190306000Y-86551500D02*
G75*
G02*
X190458500Y-86704000I0J-152500D01*
G01*
X190458500Y-88206000D02*
G75*
G02*
X190306000Y-88358500I-152500J0D01*
G01*
%TO.C,C18*%
X107700500Y-123435000D02*
X107700500Y-124937000D01*
X107853000Y-125089500D02*
X109263000Y-125089500D01*
X109263000Y-123282500D02*
X107853000Y-123282500D01*
X110065000Y-123282500D02*
X111475000Y-123282500D01*
X111475000Y-125089500D02*
X110065000Y-125089500D01*
X111627500Y-123435000D02*
X111627500Y-124937000D01*
X107700500Y-123435000D02*
G75*
G02*
X107853000Y-123282500I152500J0D01*
G01*
X107853000Y-125089500D02*
G75*
G02*
X107700500Y-124937000I0J152500D01*
G01*
X111475000Y-123282500D02*
G75*
G02*
X111627500Y-123435000I1J-152499D01*
G01*
X111627500Y-124937000D02*
G75*
G02*
X111475000Y-125089500I-152499J-1D01*
G01*
%TO.C,C3*%
X201221500Y-91214500D02*
X201221500Y-92624500D01*
X201221500Y-94836500D02*
X201221500Y-93426500D01*
X202876000Y-91062000D02*
X201374000Y-91062000D01*
X202876000Y-94989000D02*
X201374000Y-94989000D01*
X203028500Y-92624500D02*
X203028500Y-91214500D01*
X203028500Y-93426500D02*
X203028500Y-94836500D01*
X201221500Y-91214500D02*
G75*
G02*
X201374000Y-91062000I152500J0D01*
G01*
X201374000Y-94989000D02*
G75*
G02*
X201221500Y-94836500I-1J152499D01*
G01*
X202876000Y-91062000D02*
G75*
G02*
X203028500Y-91214500I0J-152500D01*
G01*
X203028500Y-94836500D02*
G75*
G02*
X202876000Y-94989000I-152499J-1D01*
G01*
%TO.C,C13*%
X135268500Y-87103500D02*
X135268500Y-85693500D01*
X135268500Y-87905500D02*
X135268500Y-89315500D01*
X135421000Y-85541000D02*
X136923000Y-85541000D01*
X135421000Y-89468000D02*
X136923000Y-89468000D01*
X137075500Y-85693500D02*
X137075500Y-87103500D01*
X137075500Y-89315500D02*
X137075500Y-87905500D01*
X135268500Y-85693500D02*
G75*
G02*
X135421000Y-85541000I152499J1D01*
G01*
X135421000Y-89468000D02*
G75*
G02*
X135268500Y-89315500I0J152500D01*
G01*
X136923000Y-85541000D02*
G75*
G02*
X137075500Y-85693500I1J-152499D01*
G01*
X137075500Y-89315500D02*
G75*
G02*
X136923000Y-89468000I-152500J0D01*
G01*
%TO.C,U3*%
X176538500Y-120199500D02*
X180081500Y-120199500D01*
X176538500Y-130351500D02*
X176538500Y-120199500D01*
X180081500Y-120199500D02*
X180081500Y-130351500D01*
X180081500Y-130351500D02*
X176538500Y-130351500D01*
D18*
X175588000Y-120098000D02*
G75*
G02*
X175287000Y-120098000I-150500J0D01*
G01*
X175287000Y-120098000D02*
G75*
G02*
X175588000Y-120098000I150500J0D01*
G01*
X177441000Y-120830500D02*
G75*
G02*
X177141000Y-120830500I-150000J0D01*
G01*
X177141000Y-120830500D02*
G75*
G02*
X177441000Y-120830500I150000J0D01*
G01*
%TO.C,CN1*%
D12*
X98100000Y-135996000D02*
X98100000Y-136635000D01*
X98100000Y-136635000D02*
X100594000Y-136635000D01*
X99540000Y-132070000D02*
X99540000Y-133020000D01*
X103106000Y-136635000D02*
X105600000Y-136635000D01*
X104210000Y-132070000D02*
X99540000Y-132070000D01*
X104210000Y-133110000D02*
X104210000Y-132070000D01*
X105600000Y-136635000D02*
X105600000Y-135996000D01*
D18*
X103550000Y-137130000D02*
G75*
G02*
X103250000Y-137130000I-150000J0D01*
G01*
X103250000Y-137130000D02*
G75*
G02*
X103550000Y-137130000I150000J0D01*
G01*
%TO.C,R17*%
D11*
X130911000Y-118268500D02*
X132196000Y-118268500D01*
X130911000Y-120102500D02*
X130911000Y-118268500D01*
X132196000Y-120102500D02*
X130911000Y-120102500D01*
X133148000Y-120102500D02*
X134433000Y-120102500D01*
X134433000Y-118268500D02*
X133148000Y-118268500D01*
X134433000Y-120102500D02*
X134433000Y-118268500D01*
%TO.C,C17*%
X168841500Y-84966000D02*
X168841500Y-86468000D01*
X168994000Y-86620500D02*
X170404000Y-86620500D01*
X170404000Y-84813500D02*
X168994000Y-84813500D01*
X171206000Y-84813500D02*
X172616000Y-84813500D01*
X172616000Y-86620500D02*
X171206000Y-86620500D01*
X172768500Y-84966000D02*
X172768500Y-86468000D01*
X168841500Y-84966000D02*
G75*
G02*
X168994000Y-84813500I152500J0D01*
G01*
X168994000Y-86620500D02*
G75*
G02*
X168841500Y-86468000I0J152500D01*
G01*
X172616000Y-84813500D02*
G75*
G02*
X172768500Y-84966000I1J-152499D01*
G01*
X172768500Y-86468000D02*
G75*
G02*
X172616000Y-86620500I-152499J-1D01*
G01*
%TO.C,CARD1*%
D12*
X121314000Y-125777500D02*
X121314000Y-132937500D01*
X121334000Y-138727500D02*
X121334000Y-135787500D01*
X121334000Y-138727500D02*
X136574000Y-138727500D01*
X133276000Y-123727500D02*
X131424000Y-123727500D01*
X133276000Y-123728000D02*
X134063500Y-123728000D01*
X134063500Y-123728000D02*
X134063500Y-125828500D01*
X134063500Y-125828500D02*
X134074000Y-125827500D01*
X136554000Y-125827500D02*
X134064000Y-125827500D01*
X136554000Y-132996500D02*
X136554000Y-125827500D01*
X136574000Y-138727500D02*
X136574000Y-135737500D01*
X131713500Y-124475500D02*
G75*
G02*
X131608500Y-124475500I-52500J0D01*
G01*
X131608500Y-124475500D02*
G75*
G02*
X131713500Y-124475500I52500J0D01*
G01*
%TO.C,C9*%
D11*
X179042000Y-92384000D02*
X179042000Y-93886000D01*
X179194500Y-94038500D02*
X180604500Y-94038500D01*
X180604500Y-92231500D02*
X179194500Y-92231500D01*
X181406500Y-92231500D02*
X182816500Y-92231500D01*
X182816500Y-94038500D02*
X181406500Y-94038500D01*
X182969000Y-92384000D02*
X182969000Y-93886000D01*
X179042000Y-92384000D02*
G75*
G02*
X179194500Y-92231500I152500J0D01*
G01*
X179194500Y-94038500D02*
G75*
G02*
X179042000Y-93886000I0J152500D01*
G01*
X182816500Y-92231500D02*
G75*
G02*
X182969000Y-92384000I1J-152499D01*
G01*
X182969000Y-93886000D02*
G75*
G02*
X182816500Y-94038500I-152499J-1D01*
G01*
%TO.C,C12*%
X183040000Y-117943000D02*
X183040000Y-119445000D01*
X183192500Y-119597500D02*
X184602500Y-119597500D01*
X184602500Y-117790500D02*
X183192500Y-117790500D01*
X185404500Y-117790500D02*
X186814500Y-117790500D01*
X186814500Y-119597500D02*
X185404500Y-119597500D01*
X186967000Y-117943000D02*
X186967000Y-119445000D01*
X183040000Y-117943000D02*
G75*
G02*
X183192500Y-117790500I152500J0D01*
G01*
X183192500Y-119597500D02*
G75*
G02*
X183040000Y-119445000I0J152500D01*
G01*
X186814500Y-117790500D02*
G75*
G02*
X186967000Y-117943000I1J-152499D01*
G01*
X186967000Y-119445000D02*
G75*
G02*
X186814500Y-119597500I-152499J-1D01*
G01*
%TO.C,R4*%
X191433000Y-110070500D02*
X191433000Y-111904500D01*
X191433000Y-111904500D02*
X192718000Y-111904500D01*
X192718000Y-110070500D02*
X191433000Y-110070500D01*
X193670000Y-110070500D02*
X194955000Y-110070500D01*
X194955000Y-110070500D02*
X194955000Y-111904500D01*
X194955000Y-111904500D02*
X193670000Y-111904500D01*
%TO.C,C4*%
X195349000Y-110241000D02*
X195349000Y-111743000D01*
X195501500Y-111895500D02*
X196911500Y-111895500D01*
X196911500Y-110088500D02*
X195501500Y-110088500D01*
X197713500Y-110088500D02*
X199123500Y-110088500D01*
X199123500Y-111895500D02*
X197713500Y-111895500D01*
X199276000Y-110241000D02*
X199276000Y-111743000D01*
X195349000Y-110241000D02*
G75*
G02*
X195501500Y-110088500I152500J0D01*
G01*
X195501500Y-111895500D02*
G75*
G02*
X195349000Y-111743000I0J152500D01*
G01*
X199123500Y-110088500D02*
G75*
G02*
X199276000Y-110241000I1J-152499D01*
G01*
X199276000Y-111743000D02*
G75*
G02*
X199123500Y-111895500I-152499J-1D01*
G01*
%TO.C,SCREW1*%
X91804000Y-86046000D02*
X91753500Y-86046000D01*
X91855000Y-83367500D02*
X91855000Y-83353500D01*
X93125000Y-84637500D02*
X91855000Y-83367500D01*
X93125000Y-84725000D02*
X91804000Y-86046000D01*
X93125000Y-84725000D02*
X94446000Y-83404000D01*
X93125000Y-84725000D02*
X94482000Y-86082000D01*
X94446000Y-83404000D02*
X94496500Y-83404000D01*
X95025000Y-84725000D02*
G75*
G02*
X91225000Y-84725000I-1900000J0D01*
G01*
X91225000Y-84725000D02*
G75*
G02*
X95025000Y-84725000I1900000J0D01*
G01*
%TO.C,L2*%
X169931000Y-93603500D02*
X173083000Y-93603500D01*
X169931000Y-93667000D02*
X169931000Y-93603500D01*
X169931000Y-96692000D02*
X169931000Y-96755500D01*
X169931000Y-96755500D02*
X173083000Y-96755500D01*
X173083000Y-93603500D02*
X173083000Y-93667000D01*
X173083000Y-96755500D02*
X173083000Y-96692000D01*
%TO.C,C22*%
X167412500Y-106458500D02*
X167412500Y-104956500D01*
X167565000Y-104804000D02*
X168975000Y-104804000D01*
X168975000Y-106611000D02*
X167565000Y-106611000D01*
X169777000Y-106611000D02*
X171187000Y-106611000D01*
X171187000Y-104804000D02*
X169777000Y-104804000D01*
X171339500Y-106458500D02*
X171339500Y-104956500D01*
X167412500Y-104956500D02*
G75*
G02*
X167565000Y-104804000I152499J1D01*
G01*
X167565000Y-106611000D02*
G75*
G02*
X167412500Y-106458500I-1J152499D01*
G01*
X171187000Y-104804000D02*
G75*
G02*
X171339500Y-104956500I0J-152500D01*
G01*
X171339500Y-106458500D02*
G75*
G02*
X171187000Y-106611000I-152500J0D01*
G01*
%TO.C,C24*%
X124579000Y-120531000D02*
X124579000Y-122033000D01*
X124731500Y-122185500D02*
X126141500Y-122185500D01*
X126141500Y-120378500D02*
X124731500Y-120378500D01*
X126943500Y-120378500D02*
X128353500Y-120378500D01*
X128353500Y-122185500D02*
X126943500Y-122185500D01*
X128506000Y-120531000D02*
X128506000Y-122033000D01*
X124579000Y-120531000D02*
G75*
G02*
X124731500Y-120378500I152500J0D01*
G01*
X124731500Y-122185500D02*
G75*
G02*
X124579000Y-122033000I0J152500D01*
G01*
X128353500Y-120378500D02*
G75*
G02*
X128506000Y-120531000I1J-152499D01*
G01*
X128506000Y-122033000D02*
G75*
G02*
X128353500Y-122185500I-152499J-1D01*
G01*
%TO.C,BOOT1*%
D12*
X129900500Y-84425000D02*
X129900500Y-82556000D01*
X130919500Y-84425000D02*
X129900500Y-84425000D01*
X132200500Y-80725000D02*
X132200500Y-81825000D01*
X135119500Y-84425000D02*
X132281500Y-84420000D01*
X135200500Y-80725000D02*
X132200500Y-80725000D01*
X135200500Y-80725000D02*
X135200500Y-81825000D01*
X136082500Y-81825000D02*
X131318500Y-81825000D01*
X137500500Y-84425000D02*
X136481500Y-84425000D01*
X137500500Y-84425000D02*
X137500500Y-82556000D01*
%TO.C,USB1*%
X147125000Y-133621000D02*
X148049500Y-133621000D01*
X147125000Y-138621000D02*
X147125000Y-133621000D01*
X147125000Y-138621000D02*
X148049500Y-138621000D01*
X149750500Y-133621000D02*
X156499500Y-133621000D01*
X149750500Y-138621000D02*
X156499500Y-138621000D01*
X158200500Y-133621000D02*
X159125000Y-133621000D01*
X158200500Y-138621000D02*
X159125000Y-138621000D01*
X159125000Y-138621000D02*
X159125000Y-133621000D01*
%TO.C,C_DISP1*%
D11*
X167536500Y-110251000D02*
X167536500Y-108749000D01*
X167689000Y-108596500D02*
X169099000Y-108596500D01*
X169099000Y-110403500D02*
X167689000Y-110403500D01*
X169901000Y-110403500D02*
X171311000Y-110403500D01*
X171311000Y-108596500D02*
X169901000Y-108596500D01*
X171463500Y-110251000D02*
X171463500Y-108749000D01*
X167536500Y-108749000D02*
G75*
G02*
X167689000Y-108596500I152499J1D01*
G01*
X167689000Y-110403500D02*
G75*
G02*
X167536500Y-110251000I-1J152499D01*
G01*
X171311000Y-108596500D02*
G75*
G02*
X171463500Y-108749000I0J-152500D01*
G01*
X171463500Y-110251000D02*
G75*
G02*
X171311000Y-110403500I-152500J0D01*
G01*
%TO.C,R16*%
X118689000Y-119508000D02*
X118689000Y-121342000D01*
X118689000Y-121342000D02*
X119974000Y-121342000D01*
X119974000Y-119508000D02*
X118689000Y-119508000D01*
X120926000Y-119508000D02*
X122211000Y-119508000D01*
X122211000Y-119508000D02*
X122211000Y-121342000D01*
X122211000Y-121342000D02*
X120926000Y-121342000D01*
%TO.C,R9*%
X175053500Y-88535000D02*
X176338500Y-88535000D01*
X175053500Y-90369000D02*
X175053500Y-88535000D01*
X176338500Y-90369000D02*
X175053500Y-90369000D01*
X177290500Y-90369000D02*
X178575500Y-90369000D01*
X178575500Y-88535000D02*
X177290500Y-88535000D01*
X178575500Y-90369000D02*
X178575500Y-88535000D01*
%TO.C,C1*%
X167471000Y-93795500D02*
X167471000Y-92385500D01*
X167471000Y-94597500D02*
X167471000Y-96007500D01*
X167623500Y-92233000D02*
X169125500Y-92233000D01*
X167623500Y-96160000D02*
X169125500Y-96160000D01*
X169278000Y-92385500D02*
X169278000Y-93795500D01*
X169278000Y-96007500D02*
X169278000Y-94597500D01*
X167471000Y-92385500D02*
G75*
G02*
X167623500Y-92233000I152499J1D01*
G01*
X167623500Y-96160000D02*
G75*
G02*
X167471000Y-96007500I0J152500D01*
G01*
X169125500Y-92233000D02*
G75*
G02*
X169278000Y-92385500I1J-152499D01*
G01*
X169278000Y-96007500D02*
G75*
G02*
X169125500Y-96160000I-152500J0D01*
G01*
%TO.C,C8*%
X179042000Y-90377500D02*
X179042000Y-91879500D01*
X179194500Y-92032000D02*
X180604500Y-92032000D01*
X180604500Y-90225000D02*
X179194500Y-90225000D01*
X181406500Y-90225000D02*
X182816500Y-90225000D01*
X182816500Y-92032000D02*
X181406500Y-92032000D01*
X182969000Y-90377500D02*
X182969000Y-91879500D01*
X179042000Y-90377500D02*
G75*
G02*
X179194500Y-90225000I152500J0D01*
G01*
X179194500Y-92032000D02*
G75*
G02*
X179042000Y-91879500I0J152500D01*
G01*
X182816500Y-90225000D02*
G75*
G02*
X182969000Y-90377500I1J-152499D01*
G01*
X182969000Y-91879500D02*
G75*
G02*
X182816500Y-92032000I-152499J-1D01*
G01*
%TO.C,R7*%
X205254000Y-103003000D02*
X205254000Y-104288000D01*
X205254000Y-106525000D02*
X205254000Y-105240000D01*
X207088000Y-103003000D02*
X205254000Y-103003000D01*
X207088000Y-104288000D02*
X207088000Y-103003000D01*
X207088000Y-105240000D02*
X207088000Y-106525000D01*
X207088000Y-106525000D02*
X205254000Y-106525000D01*
%TO.C,U1*%
D12*
X191550000Y-98675000D02*
X196650000Y-98675000D01*
X191550000Y-99925000D02*
X191550000Y-98675000D01*
X191550000Y-101525000D02*
X191550000Y-102775000D01*
X196650000Y-98675000D02*
X196650000Y-102775000D01*
X196650000Y-102775000D02*
X191550000Y-102775000D01*
X191600000Y-99925000D02*
G75*
G02*
X191600000Y-101525000I-375000J-800000D01*
G01*
X191240000Y-103225000D02*
G75*
G02*
X190900000Y-103225000I-170000J0D01*
G01*
X190900000Y-103225000D02*
G75*
G02*
X191240000Y-103225000I170000J0D01*
G01*
%TO.C,C23*%
D11*
X124599500Y-118406000D02*
X124599500Y-119908000D01*
X124752000Y-120060500D02*
X126162000Y-120060500D01*
X126162000Y-118253500D02*
X124752000Y-118253500D01*
X126964000Y-118253500D02*
X128374000Y-118253500D01*
X128374000Y-120060500D02*
X126964000Y-120060500D01*
X128526500Y-118406000D02*
X128526500Y-119908000D01*
X124599500Y-118406000D02*
G75*
G02*
X124752000Y-118253500I152500J0D01*
G01*
X124752000Y-120060500D02*
G75*
G02*
X124599500Y-119908000I0J152500D01*
G01*
X128374000Y-118253500D02*
G75*
G02*
X128526500Y-118406000I1J-152499D01*
G01*
X128526500Y-119908000D02*
G75*
G02*
X128374000Y-120060500I-152499J-1D01*
G01*
%TO.C,C6*%
X186531500Y-90258000D02*
X186531500Y-88756000D01*
X186684000Y-88603500D02*
X188094000Y-88603500D01*
X188094000Y-90410500D02*
X186684000Y-90410500D01*
X188896000Y-90410500D02*
X190306000Y-90410500D01*
X190306000Y-88603500D02*
X188896000Y-88603500D01*
X190458500Y-90258000D02*
X190458500Y-88756000D01*
X186531500Y-88756000D02*
G75*
G02*
X186684000Y-88603500I152499J1D01*
G01*
X186684000Y-90410500D02*
G75*
G02*
X186531500Y-90258000I-1J152499D01*
G01*
X190306000Y-88603500D02*
G75*
G02*
X190458500Y-88756000I0J-152500D01*
G01*
X190458500Y-90258000D02*
G75*
G02*
X190306000Y-90410500I-152500J0D01*
G01*
%TO.C,C20*%
X163036500Y-120251000D02*
X163036500Y-118749000D01*
X163189000Y-118596500D02*
X164599000Y-118596500D01*
X164599000Y-120403500D02*
X163189000Y-120403500D01*
X165401000Y-120403500D02*
X166811000Y-120403500D01*
X166811000Y-118596500D02*
X165401000Y-118596500D01*
X166963500Y-120251000D02*
X166963500Y-118749000D01*
X163036500Y-118749000D02*
G75*
G02*
X163189000Y-118596500I152499J1D01*
G01*
X163189000Y-120403500D02*
G75*
G02*
X163036500Y-120251000I-1J152499D01*
G01*
X166811000Y-118596500D02*
G75*
G02*
X166963500Y-118749000I0J-152500D01*
G01*
X166963500Y-120251000D02*
G75*
G02*
X166811000Y-120403500I-152500J0D01*
G01*
%TO.C,Q1*%
D19*
X184776000Y-122931000D02*
X183376000Y-122931000D01*
X184776000Y-125131000D02*
X183376000Y-125131000D01*
X182982500Y-122937000D02*
G75*
G02*
X182985000Y-122937000I1250J125002D01*
G01*
%TO.C,R2*%
D11*
X142843000Y-136254000D02*
X144128000Y-136254000D01*
X142843000Y-138088000D02*
X142843000Y-136254000D01*
X144128000Y-138088000D02*
X142843000Y-138088000D01*
X145080000Y-138088000D02*
X146365000Y-138088000D01*
X146365000Y-136254000D02*
X145080000Y-136254000D01*
X146365000Y-138088000D02*
X146365000Y-136254000D01*
%TO.C,R15*%
X106308000Y-88239000D02*
X106308000Y-89524000D01*
X106308000Y-91761000D02*
X106308000Y-90476000D01*
X108142000Y-88239000D02*
X106308000Y-88239000D01*
X108142000Y-89524000D02*
X108142000Y-88239000D01*
X108142000Y-90476000D02*
X108142000Y-91761000D01*
X108142000Y-91761000D02*
X106308000Y-91761000D01*
%TO.C,C19*%
X107676000Y-121377500D02*
X107676000Y-122879500D01*
X107828500Y-123032000D02*
X109238500Y-123032000D01*
X109238500Y-121225000D02*
X107828500Y-121225000D01*
X110040500Y-121225000D02*
X111450500Y-121225000D01*
X111450500Y-123032000D02*
X110040500Y-123032000D01*
X111603000Y-121377500D02*
X111603000Y-122879500D01*
X107676000Y-121377500D02*
G75*
G02*
X107828500Y-121225000I152500J0D01*
G01*
X107828500Y-123032000D02*
G75*
G02*
X107676000Y-122879500I0J152500D01*
G01*
X111450500Y-121225000D02*
G75*
G02*
X111603000Y-121377500I1J-152499D01*
G01*
X111603000Y-122879500D02*
G75*
G02*
X111450500Y-123032000I-152499J-1D01*
G01*
%TO.C,R6*%
X175035500Y-90587000D02*
X175035500Y-92421000D01*
X175035500Y-92421000D02*
X176320500Y-92421000D01*
X176320500Y-90587000D02*
X175035500Y-90587000D01*
X177272500Y-90587000D02*
X178557500Y-90587000D01*
X178557500Y-90587000D02*
X178557500Y-92421000D01*
X178557500Y-92421000D02*
X177272500Y-92421000D01*
%TO.C,U5*%
D12*
X109663000Y-126584000D02*
X109663000Y-126190000D01*
X109663000Y-129190000D02*
X109663000Y-128794500D01*
X109663000Y-129190000D02*
X110055000Y-129190000D01*
X110055000Y-126190000D02*
X109663000Y-126190000D01*
X112267000Y-129190000D02*
X112663000Y-129190000D01*
X112663000Y-126190000D02*
X112267000Y-126190000D01*
X112663000Y-126582500D02*
X112663000Y-126190000D01*
X112663000Y-129190000D02*
X112663000Y-128794500D01*
X113062000Y-128979000D02*
G75*
G02*
X112953000Y-128979000I-54500J0D01*
G01*
X112953000Y-128979000D02*
G75*
G02*
X113062000Y-128979000I54500J0D01*
G01*
%TO.C,R10*%
D11*
X128525500Y-89029000D02*
X130359500Y-89029000D01*
X128525500Y-90314000D02*
X128525500Y-89029000D01*
X128525500Y-91266000D02*
X128525500Y-92551000D01*
X128525500Y-92551000D02*
X130359500Y-92551000D01*
X130359500Y-89029000D02*
X130359500Y-90314000D01*
X130359500Y-92551000D02*
X130359500Y-91266000D01*
%TO.C,R8*%
X133768000Y-90275500D02*
X133768000Y-91560500D01*
X133768000Y-93797500D02*
X133768000Y-92512500D01*
X135602000Y-90275500D02*
X133768000Y-90275500D01*
X135602000Y-91560500D02*
X135602000Y-90275500D01*
X135602000Y-92512500D02*
X135602000Y-93797500D01*
X135602000Y-93797500D02*
X133768000Y-93797500D01*
%TO.C,SCREW4*%
X211804000Y-136046000D02*
X211753500Y-136046000D01*
X211855000Y-133367500D02*
X211855000Y-133353500D01*
X213125000Y-134637500D02*
X211855000Y-133367500D01*
X213125000Y-134725000D02*
X211804000Y-136046000D01*
X213125000Y-134725000D02*
X214446000Y-133404000D01*
X213125000Y-134725000D02*
X214482000Y-136082000D01*
X214446000Y-133404000D02*
X214496500Y-133404000D01*
X215025000Y-134725000D02*
G75*
G02*
X211225000Y-134725000I-1900000J0D01*
G01*
X211225000Y-134725000D02*
G75*
G02*
X215025000Y-134725000I1900000J0D01*
G01*
%TO.C,R19*%
X150989000Y-123658000D02*
X150989000Y-125492000D01*
X150989000Y-125492000D02*
X152274000Y-125492000D01*
X152274000Y-123658000D02*
X150989000Y-123658000D01*
X153226000Y-123658000D02*
X154511000Y-123658000D01*
X154511000Y-123658000D02*
X154511000Y-125492000D01*
X154511000Y-125492000D02*
X153226000Y-125492000D01*
%TO.C,R18*%
X130911000Y-120393000D02*
X132196000Y-120393000D01*
X130911000Y-122227000D02*
X130911000Y-120393000D01*
X132196000Y-122227000D02*
X130911000Y-122227000D01*
X133148000Y-122227000D02*
X134433000Y-122227000D01*
X134433000Y-120393000D02*
X133148000Y-120393000D01*
X134433000Y-122227000D02*
X134433000Y-120393000D01*
%TO.C,L1*%
D12*
X192496500Y-91271000D02*
X192496500Y-92668000D01*
X192496500Y-92668000D02*
X192496500Y-92795000D01*
X192496500Y-92795000D02*
X192750500Y-93049000D01*
X192750500Y-91017000D02*
X192496500Y-91271000D01*
X192750500Y-93049000D02*
X194020500Y-93049000D01*
X192877500Y-91017000D02*
X192750500Y-91017000D01*
X194020500Y-91017000D02*
X192877500Y-91017000D01*
X194782500Y-93049000D02*
X195925500Y-93049000D01*
X195925500Y-93049000D02*
X196052500Y-93049000D01*
X196052500Y-91017000D02*
X194782500Y-91017000D01*
X196052500Y-93049000D02*
X196306500Y-92795000D01*
X196306500Y-91271000D02*
X196052500Y-91017000D01*
X196306500Y-91398000D02*
X196306500Y-91271000D01*
X196306500Y-92795000D02*
X196306500Y-91398000D01*
%TO.C,C11*%
D11*
X183040000Y-115809500D02*
X183040000Y-117311500D01*
X183192500Y-117464000D02*
X184602500Y-117464000D01*
X184602500Y-115657000D02*
X183192500Y-115657000D01*
X185404500Y-115657000D02*
X186814500Y-115657000D01*
X186814500Y-117464000D02*
X185404500Y-117464000D01*
X186967000Y-115809500D02*
X186967000Y-117311500D01*
X183040000Y-115809500D02*
G75*
G02*
X183192500Y-115657000I152500J0D01*
G01*
X183192500Y-117464000D02*
G75*
G02*
X183040000Y-117311500I0J152500D01*
G01*
X186814500Y-115657000D02*
G75*
G02*
X186967000Y-115809500I1J-152499D01*
G01*
X186967000Y-117311500D02*
G75*
G02*
X186814500Y-117464000I-152499J-1D01*
G01*
%TO.C,C21*%
X167536500Y-120251000D02*
X167536500Y-118749000D01*
X167689000Y-118596500D02*
X169099000Y-118596500D01*
X169099000Y-120403500D02*
X167689000Y-120403500D01*
X169901000Y-120403500D02*
X171311000Y-120403500D01*
X171311000Y-118596500D02*
X169901000Y-118596500D01*
X171463500Y-120251000D02*
X171463500Y-118749000D01*
X167536500Y-118749000D02*
G75*
G02*
X167689000Y-118596500I152499J1D01*
G01*
X167689000Y-120403500D02*
G75*
G02*
X167536500Y-120251000I-1J152499D01*
G01*
X171311000Y-118596500D02*
G75*
G02*
X171463500Y-118749000I0J-152500D01*
G01*
X171463500Y-120251000D02*
G75*
G02*
X171311000Y-120403500I-152500J0D01*
G01*
%TD*%
%LPC*%
D20*
%TO.C,C26*%
X107370000Y-96706500D03*
X105370000Y-96706500D03*
%TD*%
D21*
%TO.C,U4*%
X144375000Y-87225000D03*
X144375000Y-88495000D03*
X144375000Y-89765000D03*
X144375000Y-91035000D03*
X144375000Y-92305000D03*
X144375000Y-93575000D03*
X144375000Y-94845000D03*
X144375000Y-96115000D03*
X144375000Y-97385000D03*
X144375000Y-98655000D03*
X144375000Y-99925000D03*
X144375000Y-101195000D03*
X144375000Y-102465000D03*
X144375000Y-103735000D03*
D22*
X146140000Y-105015000D03*
X147410000Y-105015000D03*
X148680000Y-105015000D03*
X149950000Y-105015000D03*
X151220000Y-105015000D03*
X152490000Y-105015000D03*
X153760000Y-105015000D03*
X155030000Y-105015000D03*
X156300000Y-105015000D03*
X157570000Y-105015000D03*
X158840000Y-105015000D03*
X160110000Y-104985000D03*
D21*
X161875000Y-103735000D03*
X161875000Y-102465000D03*
X161875000Y-101195000D03*
X161875000Y-99925000D03*
X161875000Y-98655000D03*
X161875000Y-97385000D03*
X161875000Y-96115000D03*
X161875000Y-94845000D03*
X161875000Y-93575000D03*
X161875000Y-92305000D03*
X161875000Y-91035000D03*
X161875000Y-89765000D03*
X161875000Y-88495000D03*
X161875000Y-87225000D03*
D23*
X150225000Y-93545000D03*
X150225000Y-94945000D03*
X150225000Y-96345000D03*
X151625000Y-93545000D03*
X151625000Y-94945000D03*
X151625000Y-96345000D03*
X153025000Y-93545000D03*
X153025000Y-94945000D03*
X153025000Y-96345000D03*
%TD*%
D24*
%TO.C,SCREW3*%
X93125000Y-134725000D03*
%TD*%
D25*
%TO.C,C14*%
X138581000Y-86504500D03*
X138581000Y-88504500D03*
%TD*%
D20*
%TO.C,C2*%
X194200000Y-108575000D03*
X192200000Y-108575000D03*
%TD*%
%TO.C,C25*%
X105370000Y-94608000D03*
X107370000Y-94608000D03*
%TD*%
D26*
%TO.C,R3*%
X137098000Y-91036500D03*
X137098000Y-93036500D03*
%TD*%
D20*
%TO.C,C16*%
X127925000Y-82925000D03*
X125925000Y-82925000D03*
%TD*%
D26*
%TO.C,R5*%
X199975000Y-94025000D03*
X199975000Y-92025000D03*
%TD*%
D27*
%TO.C,U7*%
X105379500Y-90097000D03*
X104557500Y-90097000D03*
D28*
X103817000Y-90545000D03*
D29*
X103764000Y-91502000D03*
D30*
X102859500Y-90492000D03*
D31*
X102806500Y-91449000D03*
D27*
X104557500Y-91897000D03*
X105379500Y-91897000D03*
X105379500Y-90997000D03*
%TD*%
D32*
%TO.C,SW1*%
X184022000Y-83925000D03*
X182022000Y-83925000D03*
X180022000Y-83925000D03*
D33*
X177872000Y-83925000D03*
X186172000Y-83925000D03*
%TD*%
D25*
%TO.C,C5*%
X197825000Y-96050000D03*
X197825000Y-94050000D03*
%TD*%
D34*
%TO.C,LED1*%
X160850000Y-136921000D03*
X160850000Y-134721000D03*
%TD*%
D24*
%TO.C,SCREW2*%
X213125000Y-84725000D03*
%TD*%
D20*
%TO.C,C10*%
X182005500Y-95167000D03*
X180005500Y-95167000D03*
%TD*%
D25*
%TO.C,C15*%
X131550000Y-91774500D03*
X131550000Y-89774500D03*
%TD*%
D26*
%TO.C,R12*%
X114285000Y-126930500D03*
X114285000Y-124930500D03*
%TD*%
D35*
%TO.C,H1*%
X214966000Y-92026000D03*
X214966000Y-94026000D03*
D36*
X209266000Y-96376000D03*
X209266000Y-89676000D03*
%TD*%
D37*
%TO.C,R1*%
X145604000Y-134893000D03*
X143604000Y-134893000D03*
%TD*%
D38*
%TO.C,U2*%
X175209500Y-93277000D03*
X175209500Y-94227000D03*
X175209500Y-95177000D03*
X177809500Y-95177000D03*
X177809500Y-93277000D03*
%TD*%
D39*
%TO.C,J_DISP1*%
X156875000Y-128500000D03*
D40*
X156375000Y-128500000D03*
X155875000Y-128500000D03*
X155375000Y-128500000D03*
X154875000Y-128500000D03*
X154375000Y-128500000D03*
X153875000Y-128500000D03*
X153375000Y-128500000D03*
X152875000Y-128500000D03*
X152375000Y-128500000D03*
D41*
X151575000Y-131400000D03*
X157675000Y-131400000D03*
%TD*%
D42*
%TO.C,RST1*%
X175925000Y-81924500D03*
X169175000Y-81924500D03*
D43*
X174650000Y-83974500D03*
X170450000Y-83974500D03*
%TD*%
D26*
%TO.C,R11*%
X133749000Y-88502500D03*
X133749000Y-86502500D03*
%TD*%
D20*
%TO.C,C7*%
X187495000Y-87455000D03*
X189495000Y-87455000D03*
%TD*%
%TO.C,C18*%
X110664000Y-124186000D03*
X108664000Y-124186000D03*
%TD*%
D25*
%TO.C,C3*%
X202125000Y-94025500D03*
X202125000Y-92025500D03*
%TD*%
%TO.C,C13*%
X136172000Y-86504500D03*
X136172000Y-88504500D03*
%TD*%
D44*
%TO.C,U3*%
X175437500Y-120830500D03*
X175437500Y-122100500D03*
X175437500Y-123370500D03*
X175437500Y-124640500D03*
X175437500Y-125910500D03*
X175437500Y-127180500D03*
X175437500Y-128450500D03*
X175437500Y-129720500D03*
X181182500Y-129720500D03*
X181182500Y-128450500D03*
X181182500Y-127180500D03*
X181182500Y-125910500D03*
X181182500Y-124640500D03*
X181182500Y-123370500D03*
X181182500Y-122100500D03*
X181182500Y-120830500D03*
%TD*%
D45*
%TO.C,CN1*%
X102475000Y-137085000D03*
X101225000Y-137085000D03*
D46*
X104855000Y-134515000D03*
X98845000Y-134515000D03*
%TD*%
D37*
%TO.C,R17*%
X131672000Y-119185500D03*
X133672000Y-119185500D03*
%TD*%
D20*
%TO.C,C17*%
X171805000Y-85717000D03*
X169805000Y-85717000D03*
%TD*%
D47*
%TO.C,CARD1*%
X130824000Y-123727500D03*
X129724000Y-123727500D03*
X128624000Y-123727500D03*
X127524000Y-123727500D03*
X126424000Y-123727500D03*
X125324000Y-123727500D03*
X124224000Y-123727500D03*
X123124000Y-123727500D03*
D48*
X120824000Y-124727500D03*
D49*
X120824000Y-134327500D03*
X136324000Y-134327500D03*
D50*
X135424000Y-124727500D03*
D47*
X122024000Y-123727500D03*
%TD*%
D20*
%TO.C,C9*%
X182005500Y-93135000D03*
X180005500Y-93135000D03*
%TD*%
%TO.C,C12*%
X186003500Y-118694000D03*
X184003500Y-118694000D03*
%TD*%
D37*
%TO.C,R4*%
X194194000Y-110987500D03*
X192194000Y-110987500D03*
%TD*%
D20*
%TO.C,C4*%
X198312500Y-110992000D03*
X196312500Y-110992000D03*
%TD*%
D24*
%TO.C,SCREW1*%
X93125000Y-84725000D03*
%TD*%
D51*
%TO.C,L2*%
X172857000Y-95179500D03*
X170157000Y-95179500D03*
%TD*%
D20*
%TO.C,C22*%
X168376000Y-105707500D03*
X170376000Y-105707500D03*
%TD*%
%TO.C,C24*%
X127542500Y-121282000D03*
X125542500Y-121282000D03*
%TD*%
D42*
%TO.C,BOOT1*%
X137075500Y-81925000D03*
X130325500Y-81925000D03*
D43*
X135800500Y-83975000D03*
X131600500Y-83975000D03*
%TD*%
D52*
%TO.C,USB1*%
X148900000Y-134101000D03*
X157350000Y-134101000D03*
X148900000Y-138141000D03*
X157350000Y-138141000D03*
D53*
X149625000Y-135291000D03*
X150625000Y-135291000D03*
X151625000Y-135291000D03*
X152625000Y-135291000D03*
X153625000Y-135291000D03*
X154625000Y-135291000D03*
X155625000Y-135291000D03*
X156625000Y-135291000D03*
X156625000Y-136941000D03*
X155625000Y-136941000D03*
X154625000Y-136941000D03*
X153625000Y-136941000D03*
X152625000Y-136941000D03*
X151625000Y-136941000D03*
X150625000Y-136941000D03*
X149625000Y-136941000D03*
%TD*%
D20*
%TO.C,C_DISP1*%
X168500000Y-109500000D03*
X170500000Y-109500000D03*
%TD*%
D37*
%TO.C,R16*%
X121450000Y-120425000D03*
X119450000Y-120425000D03*
%TD*%
%TO.C,R9*%
X175814500Y-89452000D03*
X177814500Y-89452000D03*
%TD*%
D25*
%TO.C,C1*%
X168374500Y-93196500D03*
X168374500Y-95196500D03*
%TD*%
D20*
%TO.C,C8*%
X182005500Y-91128500D03*
X180005500Y-91128500D03*
%TD*%
D26*
%TO.C,R7*%
X206171000Y-105764000D03*
X206171000Y-103764000D03*
%TD*%
D54*
%TO.C,U1*%
X192195000Y-103633500D03*
X193465000Y-103633500D03*
X194735000Y-103633500D03*
X196005000Y-103633500D03*
X196005000Y-97816500D03*
X194735000Y-97816500D03*
X193465000Y-97816500D03*
X192195000Y-97816500D03*
D55*
X194100000Y-100725000D03*
%TD*%
D20*
%TO.C,C23*%
X127563000Y-119157000D03*
X125563000Y-119157000D03*
%TD*%
%TO.C,C6*%
X187495000Y-89507000D03*
X189495000Y-89507000D03*
%TD*%
%TO.C,C20*%
X164000000Y-119500000D03*
X166000000Y-119500000D03*
%TD*%
D56*
%TO.C,Q1*%
X183126000Y-123381000D03*
X183126000Y-124031000D03*
X183126000Y-124681000D03*
X185026000Y-124681000D03*
X185026000Y-124031000D03*
X185026000Y-123381000D03*
%TD*%
D37*
%TO.C,R2*%
X143604000Y-137171000D03*
X145604000Y-137171000D03*
%TD*%
D26*
%TO.C,R15*%
X107225000Y-91000000D03*
X107225000Y-89000000D03*
%TD*%
D20*
%TO.C,C19*%
X110639500Y-122128500D03*
X108639500Y-122128500D03*
%TD*%
D37*
%TO.C,R6*%
X177796500Y-91504000D03*
X175796500Y-91504000D03*
%TD*%
D57*
%TO.C,U5*%
X112663000Y-128438500D03*
X112663000Y-127938500D03*
X112663000Y-127438500D03*
X112663000Y-126938500D03*
D58*
X111911000Y-126190000D03*
X111411000Y-126190000D03*
X110911000Y-126190000D03*
X110411000Y-126190000D03*
D57*
X109663000Y-126940000D03*
X109663000Y-127440000D03*
X109663000Y-127940000D03*
X109663000Y-128438500D03*
D58*
X110411000Y-129190000D03*
X110911000Y-129190000D03*
X111411000Y-129190000D03*
X111911000Y-129190000D03*
D59*
X111163000Y-127690000D03*
%TD*%
D26*
%TO.C,R10*%
X129442500Y-89790000D03*
X129442500Y-91790000D03*
%TD*%
%TO.C,R8*%
X134685000Y-93036500D03*
X134685000Y-91036500D03*
%TD*%
D24*
%TO.C,SCREW4*%
X213125000Y-134725000D03*
%TD*%
D37*
%TO.C,R19*%
X153750000Y-124575000D03*
X151750000Y-124575000D03*
%TD*%
%TO.C,R18*%
X131672000Y-121310000D03*
X133672000Y-121310000D03*
%TD*%
%TO.C,L1*%
X193476000Y-92033000D03*
X195408000Y-92033000D03*
%TD*%
D20*
%TO.C,C11*%
X186003500Y-116560500D03*
X184003500Y-116560500D03*
%TD*%
%TO.C,C21*%
X168500000Y-119500000D03*
X170500000Y-119500000D03*
%TD*%
%LPD*%
M02*
