solid 
 facet normal -1.000000e+00  0.000000e+00  0.000000e+00
   outer loop
     vertex  6.045000e+01  5.380000e+01 -5.040264e+00
     vertex  6.045000e+01  6.000000e+01 -7.040264e+00
     vertex  6.045000e+01  5.380000e+01 -7.040264e+00
   endloop
 endfacet
 facet normal -1.000000e+00  0.000000e+00  0.000000e+00
   outer loop
     vertex  6.045000e+01  5.380000e+01 -5.040264e+00
     vertex  6.045000e+01  6.000000e+01 -5.040264e+00
     vertex  6.045000e+01  6.000000e+01 -7.040264e+00
   endloop
 endfacet
 facet normal  1.000000e+00  0.000000e+00  0.000000e+00
   outer loop
     vertex  6.955000e+01  5.380000e+01 -5.040264e+00
     vertex  6.955000e+01  5.380000e+01 -7.040264e+00
     vertex  6.955000e+01  6.000000e+01 -7.040264e+00
   endloop
 endfacet
 facet normal  1.000000e+00 -0.000000e+00  0.000000e+00
   outer loop
     vertex  6.955000e+01  5.380000e+01 -5.040264e+00
     vertex  6.955000e+01  6.000000e+01 -7.040264e+00
     vertex  6.955000e+01  6.000000e+01 -5.040264e+00
   endloop
 endfacet
 facet normal  0.000000e+00 -1.000000e+00 -0.000000e+00
   outer loop
     vertex  6.955000e+01  5.380000e+01 -5.040264e+00
     vertex  6.045000e+01  5.380000e+01 -7.040264e+00
     vertex  6.955000e+01  5.380000e+01 -7.040264e+00
   endloop
 endfacet
 facet normal -0.000000e+00 -1.000000e+00  0.000000e+00
   outer loop
     vertex  6.955000e+01  5.380000e+01 -5.040264e+00
     vertex  6.045000e+01  5.380000e+01 -5.040264e+00
     vertex  6.045000e+01  5.380000e+01 -7.040264e+00
   endloop
 endfacet
 facet normal  0.000000e+00  1.000000e+00  0.000000e+00
   outer loop
     vertex  6.955000e+01  6.000000e+01 -5.040264e+00
     vertex  6.955000e+01  6.000000e+01 -7.040264e+00
     vertex  6.045000e+01  6.000000e+01 -7.040264e+00
   endloop
 endfacet
 facet normal  0.000000e+00  1.000000e+00  0.000000e+00
   outer loop
     vertex  6.955000e+01  6.000000e+01 -5.040264e+00
     vertex  6.045000e+01  6.000000e+01 -7.040264e+00
     vertex  6.045000e+01  6.000000e+01 -5.040264e+00
   endloop
 endfacet
 facet normal -0.000000e+00  0.000000e+00 -1.000000e+00
   outer loop
     vertex  6.955000e+01  6.000000e+01 -7.040264e+00
     vertex  6.045000e+01  5.380000e+01 -7.040264e+00
     vertex  6.045000e+01  6.000000e+01 -7.040264e+00
   endloop
 endfacet
 facet normal  0.000000e+00 -0.000000e+00 -1.000000e+00
   outer loop
     vertex  6.955000e+01  6.000000e+01 -7.040264e+00
     vertex  6.955000e+01  5.380000e+01 -7.040264e+00
     vertex  6.045000e+01  5.380000e+01 -7.040264e+00
   endloop
 endfacet
 facet normal  0.000000e+00  0.000000e+00  1.000000e+00
   outer loop
     vertex  6.955000e+01  6.000000e+01 -5.040264e+00
     vertex  6.045000e+01  6.000000e+01 -5.040264e+00
     vertex  6.045000e+01  5.380000e+01 -5.040264e+00
   endloop
 endfacet
 facet normal  0.000000e+00  0.000000e+00  1.000000e+00
   outer loop
     vertex  6.955000e+01  6.000000e+01 -5.040264e+00
     vertex  6.045000e+01  5.380000e+01 -5.040264e+00
     vertex  6.955000e+01  5.380000e+01 -5.040264e+00
   endloop
 endfacet
endsolid
