solid 
 facet normal -1.000000e+00  0.000000e+00  0.000000e+00
   outer loop
     vertex  0.000000e+00  0.000000e+00 -8.640264e+00
     vertex  0.000000e+00  6.000000e+01 -7.040264e+00
     vertex  0.000000e+00  6.000000e+01 -8.640264e+00
   endloop
 endfacet
 facet normal -1.000000e+00  0.000000e+00  0.000000e+00
   outer loop
     vertex  0.000000e+00  0.000000e+00 -7.040264e+00
     vertex  0.000000e+00  6.000000e+01 -7.040264e+00
     vertex  0.000000e+00  0.000000e+00 -8.640264e+00
   endloop
 endfacet
 facet normal  1.000000e+00  0.000000e+00  0.000000e+00
   outer loop
     vertex  1.300000e+02  0.000000e+00 -8.640264e+00
     vertex  1.300000e+02  6.000000e+01 -8.640264e+00
     vertex  1.300000e+02  6.000000e+01 -7.040264e+00
   endloop
 endfacet
 facet normal  1.000000e+00 -0.000000e+00  0.000000e+00
   outer loop
     vertex  1.300000e+02  0.000000e+00 -7.040264e+00
     vertex  1.300000e+02  0.000000e+00 -8.640264e+00
     vertex  1.300000e+02  6.000000e+01 -7.040264e+00
   endloop
 endfacet
 facet normal  0.000000e+00 -1.000000e+00  0.000000e+00
   outer loop
     vertex  1.300000e+02  0.000000e+00 -8.640264e+00
     vertex  0.000000e+00  0.000000e+00 -7.040264e+00
     vertex  0.000000e+00  0.000000e+00 -8.640264e+00
   endloop
 endfacet
 facet normal -0.000000e+00 -1.000000e+00 -0.000000e+00
   outer loop
     vertex  1.300000e+02  0.000000e+00 -7.040264e+00
     vertex  0.000000e+00  0.000000e+00 -7.040264e+00
     vertex  1.300000e+02  0.000000e+00 -8.640264e+00
   endloop
 endfacet
 facet normal  0.000000e+00  1.000000e+00  0.000000e+00
   outer loop
     vertex  1.300000e+02  6.000000e+01 -8.640264e+00
     vertex  0.000000e+00  6.000000e+01 -8.640264e+00
     vertex  0.000000e+00  6.000000e+01 -7.040264e+00
   endloop
 endfacet
 facet normal  0.000000e+00  1.000000e+00  0.000000e+00
   outer loop
     vertex  1.300000e+02  6.000000e+01 -7.040264e+00
     vertex  1.300000e+02  6.000000e+01 -8.640264e+00
     vertex  0.000000e+00  6.000000e+01 -7.040264e+00
   endloop
 endfacet
 facet normal  0.000000e+00  0.000000e+00 -1.000000e+00
   outer loop
     vertex  1.300000e+02  0.000000e+00 -8.640264e+00
     vertex  0.000000e+00  0.000000e+00 -8.640264e+00
     vertex  0.000000e+00  6.000000e+01 -8.640264e+00
   endloop
 endfacet
 facet normal -0.000000e+00 -0.000000e+00 -1.000000e+00
   outer loop
     vertex  1.300000e+02  6.000000e+01 -8.640264e+00
     vertex  1.300000e+02  0.000000e+00 -8.640264e+00
     vertex  0.000000e+00  6.000000e+01 -8.640264e+00
   endloop
 endfacet
 facet normal  0.000000e+00  0.000000e+00  1.000000e+00
   outer loop
     vertex  1.300000e+02  0.000000e+00 -7.040264e+00
     vertex  0.000000e+00  6.000000e+01 -7.040264e+00
     vertex  0.000000e+00  0.000000e+00 -7.040264e+00
   endloop
 endfacet
 facet normal  0.000000e+00  0.000000e+00  1.000000e+00
   outer loop
     vertex  1.300000e+02  6.000000e+01 -7.040264e+00
     vertex  0.000000e+00  6.000000e+01 -7.040264e+00
     vertex  1.300000e+02  0.000000e+00 -7.040264e+00
   endloop
 endfacet
endsolid
