solid 
 facet normal -1.000000e+00  0.000000e+00  0.000000e+00
   outer loop
     vertex  6.068000e+01  5.221000e+01 -3.840264e+00
     vertex  6.068000e+01  5.741000e+01 -5.940264e+00
     vertex  6.068000e+01  5.221000e+01 -5.940264e+00
   endloop
 endfacet
 facet normal -1.000000e+00  0.000000e+00  0.000000e+00
   outer loop
     vertex  6.068000e+01  5.221000e+01 -3.840264e+00
     vertex  6.068000e+01  5.741000e+01 -3.840264e+00
     vertex  6.068000e+01  5.741000e+01 -5.940264e+00
   endloop
 endfacet
 facet normal  1.000000e+00  0.000000e+00  0.000000e+00
   outer loop
     vertex  6.932000e+01  5.221000e+01 -3.840264e+00
     vertex  6.932000e+01  5.221000e+01 -5.940264e+00
     vertex  6.932000e+01  5.741000e+01 -5.940264e+00
   endloop
 endfacet
 facet normal  1.000000e+00 -0.000000e+00  0.000000e+00
   outer loop
     vertex  6.932000e+01  5.221000e+01 -3.840264e+00
     vertex  6.932000e+01  5.741000e+01 -5.940264e+00
     vertex  6.932000e+01  5.741000e+01 -3.840264e+00
   endloop
 endfacet
 facet normal  0.000000e+00 -1.000000e+00  0.000000e+00
   outer loop
     vertex  6.932000e+01  5.221000e+01 -5.940264e+00
     vertex  6.068000e+01  5.221000e+01 -3.840264e+00
     vertex  6.068000e+01  5.221000e+01 -5.940264e+00
   endloop
 endfacet
 facet normal -0.000000e+00 -1.000000e+00 -0.000000e+00
   outer loop
     vertex  6.932000e+01  5.221000e+01 -3.840264e+00
     vertex  6.068000e+01  5.221000e+01 -3.840264e+00
     vertex  6.932000e+01  5.221000e+01 -5.940264e+00
   endloop
 endfacet
 facet normal  0.000000e+00  1.000000e+00  0.000000e+00
   outer loop
     vertex  6.932000e+01  5.741000e+01 -5.940264e+00
     vertex  6.068000e+01  5.741000e+01 -5.940264e+00
     vertex  6.068000e+01  5.741000e+01 -3.840264e+00
   endloop
 endfacet
 facet normal  0.000000e+00  1.000000e+00  0.000000e+00
   outer loop
     vertex  6.932000e+01  5.741000e+01 -3.840264e+00
     vertex  6.932000e+01  5.741000e+01 -5.940264e+00
     vertex  6.068000e+01  5.741000e+01 -3.840264e+00
   endloop
 endfacet
 facet normal -0.000000e+00  0.000000e+00 -1.000000e+00
   outer loop
     vertex  6.932000e+01  5.741000e+01 -5.940264e+00
     vertex  6.068000e+01  5.221000e+01 -5.940264e+00
     vertex  6.068000e+01  5.741000e+01 -5.940264e+00
   endloop
 endfacet
 facet normal  0.000000e+00 -0.000000e+00 -1.000000e+00
   outer loop
     vertex  6.932000e+01  5.741000e+01 -5.940264e+00
     vertex  6.932000e+01  5.221000e+01 -5.940264e+00
     vertex  6.068000e+01  5.221000e+01 -5.940264e+00
   endloop
 endfacet
 facet normal  0.000000e+00  0.000000e+00  1.000000e+00
   outer loop
     vertex  6.932000e+01  5.741000e+01 -3.840264e+00
     vertex  6.068000e+01  5.741000e+01 -3.840264e+00
     vertex  6.068000e+01  5.221000e+01 -3.840264e+00
   endloop
 endfacet
 facet normal  0.000000e+00  0.000000e+00  1.000000e+00
   outer loop
     vertex  6.932000e+01  5.741000e+01 -3.840264e+00
     vertex  6.068000e+01  5.221000e+01 -3.840264e+00
     vertex  6.932000e+01  5.221000e+01 -3.840264e+00
   endloop
 endfacet
endsolid
