%TF.GenerationSoftware,KiCad,Pcbnew,10.0.4*%
%TF.CreationDate,2026-07-21T08:52:33+08:00*%
%TF.ProjectId,cadenza-d1-production-v38-candidate,63616465-6e7a-4612-9d64-312d70726f64,rev?*%
%TF.SameCoordinates,Original*%
%TF.FileFunction,Soldermask,Bot*%
%TF.FilePolarity,Negative*%
%FSLAX46Y46*%
G04 Gerber Fmt 4.6, Leading zero omitted, Abs format (unit mm)*
G04 Created by KiCad (PCBNEW 10.0.4) date 2026-07-21 08:52:33*
%MOMM*%
%LPD*%
G01*
G04 APERTURE LIST*
G04 Aperture macros list*
%AMRoundRect*
0 Rectangle with rounded corners*
0 $1 Rounding radius*
0 $2 $3 $4 $5 $6 $7 $8 $9 X,Y pos of 4 corners*
0 Add a 4 corners polygon primitive as box body*
4,1,4,$2,$3,$4,$5,$6,$7,$8,$9,$2,$3,0*
0 Add four circle primitives for the rounded corners*
1,1,$1+$1,$2,$3*
1,1,$1+$1,$4,$5*
1,1,$1+$1,$6,$7*
1,1,$1+$1,$8,$9*
0 Add four rect primitives between the rounded corners*
20,1,$1+$1,$2,$3,$4,$5,0*
20,1,$1+$1,$4,$5,$6,$7,0*
20,1,$1+$1,$6,$7,$8,$9,0*
20,1,$1+$1,$8,$9,$2,$3,0*%
%AMFreePoly0*
4,1,21,-0.300000,0.050000,-0.296194,0.069134,-0.285355,0.085355,-0.269134,0.096194,-0.250000,0.100000,0.250000,0.100000,0.269134,0.096194,0.285355,0.085355,0.296194,0.069134,0.300000,0.050000,0.300000,-0.050000,0.296194,-0.069134,0.285355,-0.085355,0.269134,-0.096194,0.250000,-0.100000,-0.250000,-0.100000,-0.269134,-0.096194,-0.285355,-0.085355,-0.296194,-0.069134,-0.300000,-0.050000,
-0.300000,0.050000,-0.300000,0.050000,$1*%
G04 Aperture macros list end*
%ADD10C,0.900000*%
%ADD11C,2.200000*%
%ADD12C,0.650000*%
%ADD13O,1.000000X2.100000*%
%ADD14O,1.000000X1.600000*%
%ADD15C,0.800000*%
%ADD16RoundRect,0.150000X-0.512500X-0.150000X0.512500X-0.150000X0.512500X0.150000X-0.512500X0.150000X0*%
%ADD17RoundRect,0.218750X-0.218750X-0.256250X0.218750X-0.256250X0.218750X0.256250X-0.218750X0.256250X0*%
%ADD18RoundRect,0.200000X-0.200000X-0.275000X0.200000X-0.275000X0.200000X0.275000X-0.200000X0.275000X0*%
%ADD19R,0.900000X1.000000*%
%ADD20RoundRect,0.225000X-0.225000X-0.250000X0.225000X-0.250000X0.225000X0.250000X-0.225000X0.250000X0*%
%ADD21R,1.500000X0.900000*%
%ADD22R,0.900000X1.500000*%
%ADD23C,0.600000*%
%ADD24R,3.900000X3.900000*%
%ADD25RoundRect,0.250000X-0.375000X-1.075000X0.375000X-1.075000X0.375000X1.075000X-0.375000X1.075000X0*%
%ADD26RoundRect,0.250000X-0.250000X-2.500000X0.250000X-2.500000X0.250000X2.500000X-0.250000X2.500000X0*%
%ADD27RoundRect,0.250000X-0.550000X-1.250000X0.550000X-1.250000X0.550000X1.250000X-0.550000X1.250000X0*%
%ADD28RoundRect,0.060000X-0.275000X-0.090000X0.275000X-0.090000X0.275000X0.090000X-0.275000X0.090000X0*%
%ADD29RoundRect,0.050000X-0.075000X-0.250000X0.075000X-0.250000X0.075000X0.250000X-0.075000X0.250000X0*%
%ADD30RoundRect,0.050000X-0.250000X-0.075000X0.250000X-0.075000X0.250000X0.075000X-0.250000X0.075000X0*%
%ADD31RoundRect,0.050000X-0.075000X-0.325000X0.075000X-0.325000X0.075000X0.325000X-0.075000X0.325000X0*%
%ADD32RoundRect,0.050000X-0.075000X-0.625000X0.075000X-0.625000X0.075000X0.625000X-0.075000X0.625000X0*%
%ADD33RoundRect,0.050000X-0.075000X-0.850000X0.075000X-0.850000X0.075000X0.850000X-0.075000X0.850000X0*%
%ADD34RoundRect,0.062500X-0.350000X-0.062500X0.350000X-0.062500X0.350000X0.062500X-0.350000X0.062500X0*%
%ADD35RoundRect,0.062500X-0.062500X-0.350000X0.062500X-0.350000X0.062500X0.350000X-0.062500X0.350000X0*%
%ADD36R,1.680000X1.680000*%
%ADD37FreePoly0,0.000000*%
%ADD38RoundRect,0.050000X0.050000X-0.212500X0.050000X0.212500X-0.050000X0.212500X-0.050000X-0.212500X0*%
%ADD39R,2.450000X1.950000*%
%ADD40R,1.230000X1.230000*%
G04 APERTURE END LIST*
D10*
%TO.C,SW1*%
X50600000Y-92000000D03*
X57400000Y-92000000D03*
%TD*%
D11*
%TO.C,H4*%
X161000000Y-109000000D03*
%TD*%
%TO.C,H3*%
X55000000Y-109000000D03*
%TD*%
D12*
%TO.C,J1*%
X105110000Y-108395000D03*
X110890000Y-108395000D03*
D13*
X103680000Y-107895000D03*
D14*
X103680000Y-112075000D03*
D13*
X112320000Y-107895000D03*
D14*
X112320000Y-112075000D03*
%TD*%
D15*
%TO.C,U6*%
X58000000Y-58700000D03*
%TD*%
D11*
%TO.C,H2*%
X120000000Y-49000000D03*
%TD*%
%TO.C,H1*%
X55000000Y-55000000D03*
%TD*%
D16*
%TO.C,U8*%
X114862500Y-100050000D03*
X114862500Y-101000000D03*
X114862500Y-101950000D03*
X117137500Y-101950000D03*
X117137500Y-101000000D03*
X117137500Y-100050000D03*
%TD*%
D17*
%TO.C,FB1*%
X131212500Y-84000000D03*
X132787500Y-84000000D03*
%TD*%
D18*
%TO.C,R5*%
X131175000Y-103600000D03*
X132825000Y-103600000D03*
%TD*%
%TO.C,R71*%
X105175000Y-100800000D03*
X106825000Y-100800000D03*
%TD*%
D19*
%TO.C,SW5*%
X91950000Y-105200000D03*
X96050000Y-105200000D03*
X91950000Y-106800000D03*
X96050000Y-106800000D03*
%TD*%
D18*
%TO.C,R7*%
X134675000Y-100800000D03*
X136325000Y-100800000D03*
%TD*%
D20*
%TO.C,C13*%
X118725000Y-93600000D03*
X120275000Y-93600000D03*
%TD*%
D21*
%TO.C,U1*%
X142250000Y-68740000D03*
X142250000Y-70010000D03*
X142250000Y-71280000D03*
X142250000Y-72550000D03*
X142250000Y-73820000D03*
X142250000Y-75090000D03*
X142250000Y-76360000D03*
X142250000Y-77630000D03*
X142250000Y-78900000D03*
X142250000Y-80170000D03*
X142250000Y-81440000D03*
X142250000Y-82710000D03*
X142250000Y-83980000D03*
X142250000Y-85250000D03*
D22*
X144015000Y-86500000D03*
X145285000Y-86500000D03*
X146555000Y-86500000D03*
X147825000Y-86500000D03*
X149095000Y-86500000D03*
X150365000Y-86500000D03*
X151635000Y-86500000D03*
X152905000Y-86500000D03*
X154175000Y-86500000D03*
X155445000Y-86500000D03*
X156715000Y-86500000D03*
X157985000Y-86500000D03*
D21*
X159750000Y-85250000D03*
X159750000Y-83980000D03*
X159750000Y-82710000D03*
X159750000Y-81440000D03*
X159750000Y-80170000D03*
X159750000Y-78900000D03*
X159750000Y-77630000D03*
X159750000Y-76360000D03*
X159750000Y-75090000D03*
X159750000Y-73820000D03*
X159750000Y-72550000D03*
X159750000Y-71280000D03*
X159750000Y-70010000D03*
X159750000Y-68740000D03*
D23*
X148100000Y-75760000D03*
X148100000Y-77160000D03*
X148800000Y-75060000D03*
X148800000Y-76460000D03*
X148800000Y-77860000D03*
X149500000Y-75760000D03*
D24*
X149500000Y-76460000D03*
D23*
X149500000Y-77160000D03*
X150200000Y-75060000D03*
X150200000Y-76460000D03*
X150200000Y-77860000D03*
X150900000Y-75760000D03*
X150900000Y-77160000D03*
%TD*%
D20*
%TO.C,C14*%
X122225000Y-88000000D03*
X123775000Y-88000000D03*
%TD*%
D18*
%TO.C,R4*%
X131175000Y-100800000D03*
X132825000Y-100800000D03*
%TD*%
D25*
%TO.C,L1*%
X130600000Y-94000000D03*
X133400000Y-94000000D03*
%TD*%
D18*
%TO.C,R40*%
X63175000Y-58000000D03*
X64825000Y-58000000D03*
%TD*%
D20*
%TO.C,C2*%
X138225000Y-98000000D03*
X139775000Y-98000000D03*
%TD*%
%TO.C,C11*%
X118725000Y-88000000D03*
X120275000Y-88000000D03*
%TD*%
D18*
%TO.C,R2*%
X99175000Y-102800000D03*
X100825000Y-102800000D03*
%TD*%
D20*
%TO.C,C22*%
X127725000Y-78800000D03*
X129275000Y-78800000D03*
%TD*%
D18*
%TO.C,R73*%
X108675000Y-98000000D03*
X110325000Y-98000000D03*
%TD*%
D20*
%TO.C,C80*%
X87225000Y-100800000D03*
X88775000Y-100800000D03*
%TD*%
D19*
%TO.C,SW4*%
X83950000Y-105200000D03*
X88050000Y-105200000D03*
X83950000Y-106800000D03*
X88050000Y-106800000D03*
%TD*%
D18*
%TO.C,R70*%
X105175000Y-98000000D03*
X106825000Y-98000000D03*
%TD*%
D26*
%TO.C,J4*%
X75000000Y-106500000D03*
X77000000Y-106500000D03*
D27*
X72600000Y-104250000D03*
X79400000Y-104250000D03*
%TD*%
D18*
%TO.C,R72*%
X105175000Y-103600000D03*
X106825000Y-103600000D03*
%TD*%
%TO.C,R10*%
X115175000Y-88000000D03*
X116825000Y-88000000D03*
%TD*%
%TO.C,R80*%
X87175000Y-98000000D03*
X88825000Y-98000000D03*
%TD*%
D28*
%TO.C,U4*%
X133260000Y-79500000D03*
X133260000Y-80000000D03*
X133260000Y-80500000D03*
X134740000Y-80500000D03*
X134740000Y-80000000D03*
X134740000Y-79500000D03*
%TD*%
D20*
%TO.C,C50*%
X69225000Y-92800000D03*
X70775000Y-92800000D03*
%TD*%
%TO.C,C70*%
X108725000Y-100800000D03*
X110275000Y-100800000D03*
%TD*%
D26*
%TO.C,J5*%
X61000000Y-106500000D03*
X63000000Y-106500000D03*
D27*
X58600000Y-104250000D03*
X65400000Y-104250000D03*
%TD*%
D18*
%TO.C,R20*%
X124175000Y-76000000D03*
X125825000Y-76000000D03*
%TD*%
D29*
%TO.C,U3*%
X127250000Y-93040000D03*
X127750000Y-93040000D03*
X128250000Y-93040000D03*
X128750000Y-93040000D03*
D30*
X129400000Y-93460000D03*
X129400000Y-93960000D03*
X129400000Y-94460000D03*
D31*
X129230000Y-94710000D03*
D30*
X129400000Y-94960000D03*
D32*
X128500000Y-94960000D03*
D33*
X128000000Y-94730000D03*
D32*
X127500000Y-94960000D03*
D30*
X126600000Y-94960000D03*
X126600000Y-94460000D03*
D31*
X126770000Y-94710000D03*
D30*
X126600000Y-93960000D03*
X126600000Y-93460000D03*
%TD*%
D20*
%TO.C,C40*%
X63225000Y-60800000D03*
X64775000Y-60800000D03*
%TD*%
%TO.C,C21*%
X127725000Y-76000000D03*
X129275000Y-76000000D03*
%TD*%
%TO.C,C10*%
X115225000Y-93600000D03*
X116775000Y-93600000D03*
%TD*%
%TO.C,C1*%
X134725000Y-103600000D03*
X136275000Y-103600000D03*
%TD*%
%TO.C,C30*%
X113225000Y-57000000D03*
X114775000Y-57000000D03*
%TD*%
%TO.C,C3*%
X138225000Y-100800000D03*
X139775000Y-100800000D03*
%TD*%
D25*
%TO.C,L2*%
X132600000Y-90000000D03*
X135400000Y-90000000D03*
%TD*%
D18*
%TO.C,R41*%
X69175000Y-90000000D03*
X70825000Y-90000000D03*
%TD*%
D20*
%TO.C,C20*%
X124225000Y-81600000D03*
X125775000Y-81600000D03*
%TD*%
D17*
%TO.C,FB2*%
X128212500Y-84000000D03*
X129787500Y-84000000D03*
%TD*%
D18*
%TO.C,R21*%
X124175000Y-78800000D03*
X125825000Y-78800000D03*
%TD*%
%TO.C,R1*%
X99175000Y-100000000D03*
X100825000Y-100000000D03*
%TD*%
D20*
%TO.C,C31*%
X113225000Y-59800000D03*
X114775000Y-59800000D03*
%TD*%
%TO.C,C51*%
X69225000Y-95600000D03*
X70775000Y-95600000D03*
%TD*%
D18*
%TO.C,R3*%
X131175000Y-98000000D03*
X132825000Y-98000000D03*
%TD*%
D20*
%TO.C,C12*%
X118725000Y-90800000D03*
X120275000Y-90800000D03*
%TD*%
D34*
%TO.C,U2*%
X141537500Y-102250000D03*
X141537500Y-102750000D03*
X141537500Y-103250000D03*
X141537500Y-103750000D03*
D35*
X142250000Y-104462500D03*
X142750000Y-104462500D03*
X143250000Y-104462500D03*
X143750000Y-104462500D03*
D34*
X144462500Y-103750000D03*
X144462500Y-103250000D03*
X144462500Y-102750000D03*
X144462500Y-102250000D03*
D35*
X143750000Y-101537500D03*
X143250000Y-101537500D03*
X142750000Y-101537500D03*
X142250000Y-101537500D03*
D36*
X143000000Y-103000000D03*
%TD*%
D18*
%TO.C,R11*%
X115175000Y-90800000D03*
X116825000Y-90800000D03*
%TD*%
%TO.C,R6*%
X134675000Y-98000000D03*
X136325000Y-98000000D03*
%TD*%
D37*
%TO.C,U7*%
X119100000Y-105000000D03*
X119100000Y-104600000D03*
X119100000Y-104200000D03*
X119100000Y-103800000D03*
X119100000Y-103400000D03*
X119100000Y-103000000D03*
X122900000Y-103000000D03*
X122900000Y-103400000D03*
X122900000Y-103800000D03*
X122900000Y-104200000D03*
X122900000Y-104600000D03*
X122900000Y-105000000D03*
D38*
X119875000Y-102812500D03*
X119875000Y-105187500D03*
D39*
X121000000Y-104000000D03*
D38*
X122125000Y-102812500D03*
X122125000Y-105187500D03*
%TD*%
D34*
%TO.C,U5*%
X62562500Y-93250000D03*
X62562500Y-93750000D03*
X62562500Y-94250000D03*
X62562500Y-94750000D03*
D35*
X63250000Y-95437500D03*
X63750000Y-95437500D03*
X64250000Y-95437500D03*
X64750000Y-95437500D03*
D34*
X65437500Y-94750000D03*
X65437500Y-94250000D03*
X65437500Y-93750000D03*
X65437500Y-93250000D03*
D35*
X64750000Y-92562500D03*
X64250000Y-92562500D03*
X63750000Y-92562500D03*
X63250000Y-92562500D03*
D40*
X64000000Y-94000000D03*
%TD*%
M02*
