%TF.GenerationSoftware,KiCad,Pcbnew,10.0.4*%
%TF.CreationDate,2026-07-21T08:52:33+08:00*%
%TF.ProjectId,cadenza-d1-production-v38-candidate,63616465-6e7a-4612-9d64-312d70726f64,rev?*%
%TF.SameCoordinates,Original*%
%TF.FileFunction,Soldermask,Top*%
%TF.FilePolarity,Negative*%
%FSLAX46Y46*%
G04 Gerber Fmt 4.6, Leading zero omitted, Abs format (unit mm)*
G04 Created by KiCad (PCBNEW 10.0.4) date 2026-07-21 08:52:33*
%MOMM*%
%LPD*%
G01*
G04 APERTURE LIST*
G04 Aperture macros list*
%AMRoundRect*
0 Rectangle with rounded corners*
0 $1 Rounding radius*
0 $2 $3 $4 $5 $6 $7 $8 $9 X,Y pos of 4 corners*
0 Add a 4 corners polygon primitive as box body*
4,1,4,$2,$3,$4,$5,$6,$7,$8,$9,$2,$3,0*
0 Add four circle primitives for the rounded corners*
1,1,$1+$1,$2,$3*
1,1,$1+$1,$4,$5*
1,1,$1+$1,$6,$7*
1,1,$1+$1,$8,$9*
0 Add four rect primitives between the rounded corners*
20,1,$1+$1,$2,$3,$4,$5,0*
20,1,$1+$1,$4,$5,$6,$7,0*
20,1,$1+$1,$6,$7,$8,$9,0*
20,1,$1+$1,$8,$9,$2,$3,0*%
G04 Aperture macros list end*
%ADD10C,0.900000*%
%ADD11RoundRect,0.250000X-0.375000X-1.000000X0.375000X-1.000000X0.375000X1.000000X-0.375000X1.000000X0*%
%ADD12C,2.200000*%
%ADD13RoundRect,0.060000X-0.090000X-0.440000X0.090000X-0.440000X0.090000X0.440000X-0.090000X0.440000X0*%
%ADD14R,0.800000X1.300000*%
%ADD15R,0.700000X1.200000*%
%ADD16R,1.000000X0.800000*%
%ADD17R,1.000000X1.200000*%
%ADD18R,1.000000X2.800000*%
%ADD19R,1.300000X1.900000*%
%ADD20R,0.900000X1.000000*%
%ADD21C,0.650000*%
%ADD22RoundRect,0.150000X-0.150000X-0.500000X0.150000X-0.500000X0.150000X0.500000X-0.150000X0.500000X0*%
%ADD23RoundRect,0.075000X-0.075000X-0.575000X0.075000X-0.575000X0.075000X0.575000X-0.075000X0.575000X0*%
%ADD24O,1.000000X2.100000*%
%ADD25O,1.000000X1.600000*%
%ADD26C,0.800000*%
%ADD27RoundRect,0.140000X-0.285000X-0.210000X0.285000X-0.210000X0.285000X0.210000X-0.285000X0.210000X0*%
%ADD28RoundRect,0.150000X-0.150000X-0.625000X0.150000X-0.625000X0.150000X0.625000X-0.150000X0.625000X0*%
%ADD29RoundRect,0.250000X-0.350000X-0.650000X0.350000X-0.650000X0.350000X0.650000X-0.350000X0.650000X0*%
G04 APERTURE END LIST*
D10*
%TO.C,SW1*%
X50600000Y-92000000D03*
X57400000Y-92000000D03*
D11*
X51500000Y-89250000D03*
X54000000Y-89250000D03*
X56500000Y-89250000D03*
%TD*%
D12*
%TO.C,H4*%
X161000000Y-109000000D03*
%TD*%
D13*
%TO.C,J2*%
X105750000Y-52750000D03*
X106250000Y-52750000D03*
X106750000Y-52750000D03*
X107250000Y-52750000D03*
X107750000Y-52750000D03*
X108250000Y-52750000D03*
X108750000Y-52750000D03*
X109250000Y-52750000D03*
X109750000Y-52750000D03*
X110250000Y-52750000D03*
D14*
X104700000Y-54650000D03*
X111300000Y-54650000D03*
%TD*%
D15*
%TO.C,J3*%
X153775000Y-96275000D03*
X152675000Y-96275000D03*
X151575000Y-96275000D03*
X150475000Y-96275000D03*
X149375000Y-96275000D03*
X148275000Y-96275000D03*
X147175000Y-96275000D03*
X146075000Y-96275000D03*
X145125000Y-96275000D03*
D16*
X144175000Y-106775000D03*
D17*
X144175000Y-100575000D03*
D18*
X144175000Y-110925000D03*
D17*
X155325000Y-96275000D03*
D19*
X157675000Y-111375000D03*
%TD*%
D12*
%TO.C,H3*%
X55000000Y-109000000D03*
%TD*%
D20*
%TO.C,SW2*%
X57950000Y-75200000D03*
X62050000Y-75200000D03*
X57950000Y-76800000D03*
X62050000Y-76800000D03*
%TD*%
D21*
%TO.C,J1*%
X105110000Y-108395000D03*
X110890000Y-108395000D03*
D22*
X104800000Y-107255000D03*
X105600000Y-107255000D03*
D23*
X106750000Y-107255000D03*
X107750000Y-107255000D03*
X108250000Y-107255000D03*
X109250000Y-107255000D03*
D22*
X110400000Y-107255000D03*
X111200000Y-107255000D03*
X111200000Y-107255000D03*
X110400000Y-107255000D03*
D23*
X109750000Y-107255000D03*
X108750000Y-107255000D03*
X107250000Y-107255000D03*
X106250000Y-107255000D03*
D22*
X105600000Y-107255000D03*
X104800000Y-107255000D03*
D24*
X103680000Y-107895000D03*
D25*
X103680000Y-112075000D03*
D24*
X112320000Y-107895000D03*
D25*
X112320000Y-112075000D03*
%TD*%
D26*
%TO.C,U6*%
X58000000Y-58700000D03*
D27*
X56650000Y-57150000D03*
X58000000Y-57150000D03*
X59350000Y-57150000D03*
X59350000Y-58850000D03*
X56650000Y-58850000D03*
%TD*%
D12*
%TO.C,H2*%
X120000000Y-49000000D03*
%TD*%
%TO.C,H1*%
X55000000Y-55000000D03*
%TD*%
D28*
%TO.C,J6*%
X157500000Y-80000000D03*
X158500000Y-80000000D03*
X159500000Y-80000000D03*
X160500000Y-80000000D03*
X161500000Y-80000000D03*
X162500000Y-80000000D03*
D29*
X156200000Y-83875000D03*
X163800000Y-83875000D03*
%TD*%
D20*
%TO.C,SW3*%
X57950000Y-65200000D03*
X62050000Y-65200000D03*
X57950000Y-66800000D03*
X62050000Y-66800000D03*
%TD*%
M02*
