solid 
 facet normal -1.000000e+00  0.000000e+00  0.000000e+00
   outer loop
     vertex  6.045000e+01  0.000000e+00 -5.040264e+00
     vertex  6.045000e+01  6.200000e+00 -7.040264e+00
     vertex  6.045000e+01  0.000000e+00 -7.040264e+00
   endloop
 endfacet
 facet normal -1.000000e+00  0.000000e+00  0.000000e+00
   outer loop
     vertex  6.045000e+01  0.000000e+00 -5.040264e+00
     vertex  6.045000e+01  6.200000e+00 -5.040264e+00
     vertex  6.045000e+01  6.200000e+00 -7.040264e+00
   endloop
 endfacet
 facet normal  1.000000e+00  0.000000e+00  0.000000e+00
   outer loop
     vertex  6.955000e+01  0.000000e+00 -5.040264e+00
     vertex  6.955000e+01  0.000000e+00 -7.040264e+00
     vertex  6.955000e+01  6.200000e+00 -7.040264e+00
   endloop
 endfacet
 facet normal  1.000000e+00 -0.000000e+00  0.000000e+00
   outer loop
     vertex  6.955000e+01  0.000000e+00 -5.040264e+00
     vertex  6.955000e+01  6.200000e+00 -7.040264e+00
     vertex  6.955000e+01  6.200000e+00 -5.040264e+00
   endloop
 endfacet
 facet normal  0.000000e+00 -1.000000e+00 -0.000000e+00
   outer loop
     vertex  6.955000e+01  0.000000e+00 -5.040264e+00
     vertex  6.045000e+01  0.000000e+00 -7.040264e+00
     vertex  6.955000e+01  0.000000e+00 -7.040264e+00
   endloop
 endfacet
 facet normal -0.000000e+00 -1.000000e+00  0.000000e+00
   outer loop
     vertex  6.955000e+01  0.000000e+00 -5.040264e+00
     vertex  6.045000e+01  0.000000e+00 -5.040264e+00
     vertex  6.045000e+01  0.000000e+00 -7.040264e+00
   endloop
 endfacet
 facet normal  0.000000e+00  1.000000e+00  0.000000e+00
   outer loop
     vertex  6.955000e+01  6.200000e+00 -5.040264e+00
     vertex  6.955000e+01  6.200000e+00 -7.040264e+00
     vertex  6.045000e+01  6.200000e+00 -7.040264e+00
   endloop
 endfacet
 facet normal  0.000000e+00  1.000000e+00  0.000000e+00
   outer loop
     vertex  6.955000e+01  6.200000e+00 -5.040264e+00
     vertex  6.045000e+01  6.200000e+00 -7.040264e+00
     vertex  6.045000e+01  6.200000e+00 -5.040264e+00
   endloop
 endfacet
 facet normal -0.000000e+00  0.000000e+00 -1.000000e+00
   outer loop
     vertex  6.955000e+01  6.200000e+00 -7.040264e+00
     vertex  6.045000e+01  0.000000e+00 -7.040264e+00
     vertex  6.045000e+01  6.200000e+00 -7.040264e+00
   endloop
 endfacet
 facet normal  0.000000e+00 -0.000000e+00 -1.000000e+00
   outer loop
     vertex  6.955000e+01  6.200000e+00 -7.040264e+00
     vertex  6.955000e+01  0.000000e+00 -7.040264e+00
     vertex  6.045000e+01  0.000000e+00 -7.040264e+00
   endloop
 endfacet
 facet normal  0.000000e+00  0.000000e+00  1.000000e+00
   outer loop
     vertex  6.955000e+01  6.200000e+00 -5.040264e+00
     vertex  6.045000e+01  6.200000e+00 -5.040264e+00
     vertex  6.045000e+01  0.000000e+00 -5.040264e+00
   endloop
 endfacet
 facet normal  0.000000e+00  0.000000e+00  1.000000e+00
   outer loop
     vertex  6.955000e+01  6.200000e+00 -5.040264e+00
     vertex  6.045000e+01  0.000000e+00 -5.040264e+00
     vertex  6.955000e+01  0.000000e+00 -5.040264e+00
   endloop
 endfacet
endsolid
