solid 
 facet normal -1.000000e+00  0.000000e+00  0.000000e+00
   outer loop
     vertex  3.280000e+01  7.790000e+00 -5.040264e+00
     vertex  3.280000e+01  5.221000e+01 -6.040264e+00
     vertex  3.280000e+01  7.790000e+00 -6.040264e+00
   endloop
 endfacet
 facet normal -1.000000e+00  0.000000e+00  0.000000e+00
   outer loop
     vertex  3.280000e+01  7.790000e+00 -5.040264e+00
     vertex  3.280000e+01  5.221000e+01 -5.040264e+00
     vertex  3.280000e+01  5.221000e+01 -6.040264e+00
   endloop
 endfacet
 facet normal  0.000000e+00 -1.000000e+00 -0.000000e+00
   outer loop
     vertex  9.720000e+01  7.790000e+00 -5.040264e+00
     vertex  3.280000e+01  7.790000e+00 -6.040264e+00
     vertex  9.720000e+01  7.790000e+00 -6.040264e+00
   endloop
 endfacet
 facet normal -0.000000e+00 -1.000000e+00  0.000000e+00
   outer loop
     vertex  9.720000e+01  7.790000e+00 -5.040264e+00
     vertex  3.280000e+01  7.790000e+00 -5.040264e+00
     vertex  3.280000e+01  7.790000e+00 -6.040264e+00
   endloop
 endfacet
 facet normal  0.000000e+00  0.000000e+00  1.000000e+00
   outer loop
     vertex  3.280000e+01  5.221000e+01 -5.040264e+00
     vertex  3.520000e+01  1.200000e+01 -5.040264e+00
     vertex  3.520000e+01  4.800000e+01 -5.040264e+00
   endloop
 endfacet
 facet normal  0.000000e+00  0.000000e+00  1.000000e+00
   outer loop
     vertex  3.280000e+01  5.221000e+01 -5.040264e+00
     vertex  3.280000e+01  7.790000e+00 -5.040264e+00
     vertex  3.520000e+01  1.200000e+01 -5.040264e+00
   endloop
 endfacet
 facet normal  0.000000e+00  0.000000e+00  1.000000e+00
   outer loop
     vertex  9.720000e+01  7.790000e+00 -5.040264e+00
     vertex  3.520000e+01  1.200000e+01 -5.040264e+00
     vertex  3.280000e+01  7.790000e+00 -5.040264e+00
   endloop
 endfacet
 facet normal  0.000000e+00  0.000000e+00  1.000000e+00
   outer loop
     vertex  9.480000e+01  1.200000e+01 -5.040264e+00
     vertex  3.520000e+01  1.200000e+01 -5.040264e+00
     vertex  9.720000e+01  7.790000e+00 -5.040264e+00
   endloop
 endfacet
 facet normal  0.000000e+00  0.000000e+00  1.000000e+00
   outer loop
     vertex  6.018000e+01  5.221000e+01 -5.040264e+00
     vertex  3.280000e+01  5.221000e+01 -5.040264e+00
     vertex  3.520000e+01  4.800000e+01 -5.040264e+00
   endloop
 endfacet
 facet normal  0.000000e+00  0.000000e+00  1.000000e+00
   outer loop
     vertex  6.018000e+01  5.221000e+01 -5.040264e+00
     vertex  3.520000e+01  4.800000e+01 -5.040264e+00
     vertex  6.018000e+01  5.080000e+01 -5.040264e+00
   endloop
 endfacet
 facet normal  0.000000e+00  0.000000e+00  1.000000e+00
   outer loop
     vertex  9.480000e+01  4.800000e+01 -5.040264e+00
     vertex  6.982000e+01  5.221000e+01 -5.040264e+00
     vertex  6.982000e+01  5.080000e+01 -5.040264e+00
   endloop
 endfacet
 facet normal  0.000000e+00  0.000000e+00  1.000000e+00
   outer loop
     vertex  9.720000e+01  5.221000e+01 -5.040264e+00
     vertex  9.480000e+01  4.800000e+01 -5.040264e+00
     vertex  9.480000e+01  1.200000e+01 -5.040264e+00
   endloop
 endfacet
 facet normal  0.000000e+00  0.000000e+00  1.000000e+00
   outer loop
     vertex  9.720000e+01  5.221000e+01 -5.040264e+00
     vertex  6.982000e+01  5.221000e+01 -5.040264e+00
     vertex  9.480000e+01  4.800000e+01 -5.040264e+00
   endloop
 endfacet
 facet normal  0.000000e+00  0.000000e+00  1.000000e+00
   outer loop
     vertex  9.720000e+01  5.221000e+01 -5.040264e+00
     vertex  9.480000e+01  1.200000e+01 -5.040264e+00
     vertex  9.720000e+01  7.790000e+00 -5.040264e+00
   endloop
 endfacet
 facet normal  0.000000e+00  0.000000e+00  1.000000e+00
   outer loop
     vertex  3.520000e+01  4.800000e+01 -5.040264e+00
     vertex  9.480000e+01  4.800000e+01 -5.040264e+00
     vertex  6.982000e+01  5.080000e+01 -5.040264e+00
   endloop
 endfacet
 facet normal  0.000000e+00  0.000000e+00  1.000000e+00
   outer loop
     vertex  3.520000e+01  4.800000e+01 -5.040264e+00
     vertex  6.982000e+01  5.080000e+01 -5.040264e+00
     vertex  6.018000e+01  5.080000e+01 -5.040264e+00
   endloop
 endfacet
 facet normal  0.000000e+00  1.000000e+00  0.000000e+00
   outer loop
     vertex  6.018000e+01  5.221000e+01 -5.040264e+00
     vertex  6.018000e+01  5.221000e+01 -6.040264e+00
     vertex  3.280000e+01  5.221000e+01 -6.040264e+00
   endloop
 endfacet
 facet normal  0.000000e+00  1.000000e+00  0.000000e+00
   outer loop
     vertex  6.018000e+01  5.221000e+01 -5.040264e+00
     vertex  3.280000e+01  5.221000e+01 -6.040264e+00
     vertex  3.280000e+01  5.221000e+01 -5.040264e+00
   endloop
 endfacet
 facet normal  0.000000e+00  0.000000e+00 -1.000000e+00
   outer loop
     vertex  3.280000e+01  5.221000e+01 -6.040264e+00
     vertex  3.520000e+01  4.800000e+01 -6.040264e+00
     vertex  3.520000e+01  1.200000e+01 -6.040264e+00
   endloop
 endfacet
 facet normal  0.000000e+00  0.000000e+00 -1.000000e+00
   outer loop
     vertex  3.280000e+01  5.221000e+01 -6.040264e+00
     vertex  3.520000e+01  1.200000e+01 -6.040264e+00
     vertex  3.280000e+01  7.790000e+00 -6.040264e+00
   endloop
 endfacet
 facet normal  0.000000e+00  0.000000e+00 -1.000000e+00
   outer loop
     vertex  9.720000e+01  7.790000e+00 -6.040264e+00
     vertex  3.280000e+01  7.790000e+00 -6.040264e+00
     vertex  3.520000e+01  1.200000e+01 -6.040264e+00
   endloop
 endfacet
 facet normal -0.000000e+00 -0.000000e+00 -1.000000e+00
   outer loop
     vertex  9.480000e+01  1.200000e+01 -6.040264e+00
     vertex  9.720000e+01  7.790000e+00 -6.040264e+00
     vertex  3.520000e+01  1.200000e+01 -6.040264e+00
   endloop
 endfacet
 facet normal -0.000000e+00  0.000000e+00 -1.000000e+00
   outer loop
     vertex  6.018000e+01  5.221000e+01 -6.040264e+00
     vertex  3.520000e+01  4.800000e+01 -6.040264e+00
     vertex  3.280000e+01  5.221000e+01 -6.040264e+00
   endloop
 endfacet
 facet normal  0.000000e+00 -0.000000e+00 -1.000000e+00
   outer loop
     vertex  6.018000e+01  5.221000e+01 -6.040264e+00
     vertex  6.018000e+01  5.080000e+01 -6.040264e+00
     vertex  3.520000e+01  4.800000e+01 -6.040264e+00
   endloop
 endfacet
 facet normal  0.000000e+00  0.000000e+00 -1.000000e+00
   outer loop
     vertex  9.480000e+01  4.800000e+01 -6.040264e+00
     vertex  6.982000e+01  5.080000e+01 -6.040264e+00
     vertex  6.982000e+01  5.221000e+01 -6.040264e+00
   endloop
 endfacet
 facet normal  0.000000e+00  0.000000e+00 -1.000000e+00
   outer loop
     vertex  9.720000e+01  5.221000e+01 -6.040264e+00
     vertex  9.480000e+01  1.200000e+01 -6.040264e+00
     vertex  9.480000e+01  4.800000e+01 -6.040264e+00
   endloop
 endfacet
 facet normal -0.000000e+00  0.000000e+00 -1.000000e+00
   outer loop
     vertex  9.720000e+01  5.221000e+01 -6.040264e+00
     vertex  9.480000e+01  4.800000e+01 -6.040264e+00
     vertex  6.982000e+01  5.221000e+01 -6.040264e+00
   endloop
 endfacet
 facet normal  0.000000e+00 -0.000000e+00 -1.000000e+00
   outer loop
     vertex  9.720000e+01  5.221000e+01 -6.040264e+00
     vertex  9.720000e+01  7.790000e+00 -6.040264e+00
     vertex  9.480000e+01  1.200000e+01 -6.040264e+00
   endloop
 endfacet
 facet normal  0.000000e+00  0.000000e+00 -1.000000e+00
   outer loop
     vertex  3.520000e+01  4.800000e+01 -6.040264e+00
     vertex  6.982000e+01  5.080000e+01 -6.040264e+00
     vertex  9.480000e+01  4.800000e+01 -6.040264e+00
   endloop
 endfacet
 facet normal  0.000000e+00  0.000000e+00 -1.000000e+00
   outer loop
     vertex  3.520000e+01  4.800000e+01 -6.040264e+00
     vertex  6.018000e+01  5.080000e+01 -6.040264e+00
     vertex  6.982000e+01  5.080000e+01 -6.040264e+00
   endloop
 endfacet
 facet normal  1.000000e+00  0.000000e+00  0.000000e+00
   outer loop
     vertex  9.720000e+01  7.790000e+00 -5.040264e+00
     vertex  9.720000e+01  7.790000e+00 -6.040264e+00
     vertex  9.720000e+01  5.221000e+01 -6.040264e+00
   endloop
 endfacet
 facet normal  1.000000e+00 -0.000000e+00  0.000000e+00
   outer loop
     vertex  9.720000e+01  7.790000e+00 -5.040264e+00
     vertex  9.720000e+01  5.221000e+01 -6.040264e+00
     vertex  9.720000e+01  5.221000e+01 -5.040264e+00
   endloop
 endfacet
 facet normal  1.000000e+00  0.000000e+00  0.000000e+00
   outer loop
     vertex  6.018000e+01  5.080000e+01 -5.040264e+00
     vertex  6.018000e+01  5.080000e+01 -6.040264e+00
     vertex  6.018000e+01  5.221000e+01 -6.040264e+00
   endloop
 endfacet
 facet normal  1.000000e+00 -0.000000e+00  0.000000e+00
   outer loop
     vertex  6.018000e+01  5.080000e+01 -5.040264e+00
     vertex  6.018000e+01  5.221000e+01 -6.040264e+00
     vertex  6.018000e+01  5.221000e+01 -5.040264e+00
   endloop
 endfacet
 facet normal  0.000000e+00  1.000000e+00  0.000000e+00
   outer loop
     vertex  6.982000e+01  5.080000e+01 -5.040264e+00
     vertex  6.982000e+01  5.080000e+01 -6.040264e+00
     vertex  6.018000e+01  5.080000e+01 -6.040264e+00
   endloop
 endfacet
 facet normal  0.000000e+00  1.000000e+00  0.000000e+00
   outer loop
     vertex  6.982000e+01  5.080000e+01 -5.040264e+00
     vertex  6.018000e+01  5.080000e+01 -6.040264e+00
     vertex  6.018000e+01  5.080000e+01 -5.040264e+00
   endloop
 endfacet
 facet normal -1.000000e+00  0.000000e+00  0.000000e+00
   outer loop
     vertex  6.982000e+01  5.080000e+01 -5.040264e+00
     vertex  6.982000e+01  5.221000e+01 -6.040264e+00
     vertex  6.982000e+01  5.080000e+01 -6.040264e+00
   endloop
 endfacet
 facet normal -1.000000e+00  0.000000e+00  0.000000e+00
   outer loop
     vertex  6.982000e+01  5.080000e+01 -5.040264e+00
     vertex  6.982000e+01  5.221000e+01 -5.040264e+00
     vertex  6.982000e+01  5.221000e+01 -6.040264e+00
   endloop
 endfacet
 facet normal  0.000000e+00  1.000000e+00  0.000000e+00
   outer loop
     vertex  9.720000e+01  5.221000e+01 -5.040264e+00
     vertex  9.720000e+01  5.221000e+01 -6.040264e+00
     vertex  6.982000e+01  5.221000e+01 -6.040264e+00
   endloop
 endfacet
 facet normal  0.000000e+00  1.000000e+00  0.000000e+00
   outer loop
     vertex  9.720000e+01  5.221000e+01 -5.040264e+00
     vertex  6.982000e+01  5.221000e+01 -6.040264e+00
     vertex  6.982000e+01  5.221000e+01 -5.040264e+00
   endloop
 endfacet
 facet normal  0.000000e+00  1.000000e+00  0.000000e+00
   outer loop
     vertex  9.480000e+01  1.200000e+01 -5.040264e+00
     vertex  9.480000e+01  1.200000e+01 -6.040264e+00
     vertex  3.520000e+01  1.200000e+01 -6.040264e+00
   endloop
 endfacet
 facet normal  0.000000e+00  1.000000e+00  0.000000e+00
   outer loop
     vertex  9.480000e+01  1.200000e+01 -5.040264e+00
     vertex  3.520000e+01  1.200000e+01 -6.040264e+00
     vertex  3.520000e+01  1.200000e+01 -5.040264e+00
   endloop
 endfacet
 facet normal -1.000000e+00  0.000000e+00  0.000000e+00
   outer loop
     vertex  9.480000e+01  1.200000e+01 -6.040264e+00
     vertex  9.480000e+01  4.800000e+01 -5.040264e+00
     vertex  9.480000e+01  4.800000e+01 -6.040264e+00
   endloop
 endfacet
 facet normal -1.000000e+00  0.000000e+00  0.000000e+00
   outer loop
     vertex  9.480000e+01  1.200000e+01 -5.040264e+00
     vertex  9.480000e+01  4.800000e+01 -5.040264e+00
     vertex  9.480000e+01  1.200000e+01 -6.040264e+00
   endloop
 endfacet
 facet normal  1.000000e+00  0.000000e+00  0.000000e+00
   outer loop
     vertex  3.520000e+01  1.200000e+01 -6.040264e+00
     vertex  3.520000e+01  4.800000e+01 -6.040264e+00
     vertex  3.520000e+01  4.800000e+01 -5.040264e+00
   endloop
 endfacet
 facet normal  1.000000e+00 -0.000000e+00  0.000000e+00
   outer loop
     vertex  3.520000e+01  1.200000e+01 -5.040264e+00
     vertex  3.520000e+01  1.200000e+01 -6.040264e+00
     vertex  3.520000e+01  4.800000e+01 -5.040264e+00
   endloop
 endfacet
 facet normal  0.000000e+00 -1.000000e+00 -0.000000e+00
   outer loop
     vertex  9.480000e+01  4.800000e+01 -5.040264e+00
     vertex  3.520000e+01  4.800000e+01 -6.040264e+00
     vertex  9.480000e+01  4.800000e+01 -6.040264e+00
   endloop
 endfacet
 facet normal -0.000000e+00 -1.000000e+00  0.000000e+00
   outer loop
     vertex  9.480000e+01  4.800000e+01 -5.040264e+00
     vertex  3.520000e+01  4.800000e+01 -5.040264e+00
     vertex  3.520000e+01  4.800000e+01 -6.040264e+00
   endloop
 endfacet
endsolid
