solid cadenza_rev_a_envelope
  facet normal 0 0 -1
    outer loop
      vertex 0 0 0
      vertex 122 74 0
      vertex 122 0 0
    endloop
  endfacet
  facet normal 0 0 -1
    outer loop
      vertex 0 0 0
      vertex 0 74 0
      vertex 122 74 0
    endloop
  endfacet
  facet normal 0 0 1
    outer loop
      vertex 0 0 19
      vertex 122 0 19
      vertex 122 74 19
    endloop
  endfacet
  facet normal 0 0 1
    outer loop
      vertex 0 0 19
      vertex 122 74 19
      vertex 0 74 19
    endloop
  endfacet
  facet normal 0 -1 0
    outer loop
      vertex 0 0 0
      vertex 122 0 0
      vertex 122 0 19
    endloop
  endfacet
  facet normal 0 -1 0
    outer loop
      vertex 0 0 0
      vertex 122 0 19
      vertex 0 0 19
    endloop
  endfacet
  facet normal 1 0 0
    outer loop
      vertex 122 0 0
      vertex 122 74 0
      vertex 122 74 19
    endloop
  endfacet
  facet normal 1 0 0
    outer loop
      vertex 122 0 0
      vertex 122 74 19
      vertex 122 0 19
    endloop
  endfacet
  facet normal 0 1 0
    outer loop
      vertex 122 74 0
      vertex 0 74 0
      vertex 0 74 19
    endloop
  endfacet
  facet normal 0 1 -0
    outer loop
      vertex 122 74 0
      vertex 0 74 19
      vertex 122 74 19
    endloop
  endfacet
  facet normal -1 0 0
    outer loop
      vertex 0 74 0
      vertex 0 0 0
      vertex 0 0 19
    endloop
  endfacet
  facet normal -1 0 0
    outer loop
      vertex 0 74 0
      vertex 0 0 19
      vertex 0 74 19
    endloop
  endfacet
endsolid cadenza_rev_a_envelope
