solid 
 facet normal  9.961947e-01  8.715574e-02 -2.724518e-19
   outer loop
     vertex  1.150529e+02  3.053831e+01 -2.500264e+00
     vertex  1.151000e+02  3.000000e+01 -2.500264e+00
     vertex  1.151000e+02  3.000000e+01 -8.000264e+00
   endloop
 endfacet
 facet normal  9.961947e-01  8.715574e-02  0.000000e+00
   outer loop
     vertex  1.150529e+02  3.053831e+01 -2.500264e+00
     vertex  1.151000e+02  3.000000e+01 -8.000264e+00
     vertex  1.150529e+02  3.053831e+01 -8.000264e+00
   endloop
 endfacet
 facet normal  9.659258e-01  2.588190e-01  0.000000e+00
   outer loop
     vertex  1.149130e+02  3.106026e+01 -2.500264e+00
     vertex  1.150529e+02  3.053831e+01 -8.000264e+00
     vertex  1.149130e+02  3.106026e+01 -8.000264e+00
   endloop
 endfacet
 facet normal  9.659258e-01  2.588190e-01  9.195769e-19
   outer loop
     vertex  1.149130e+02  3.106026e+01 -2.500264e+00
     vertex  1.150529e+02  3.053831e+01 -2.500264e+00
     vertex  1.150529e+02  3.053831e+01 -8.000264e+00
   endloop
 endfacet
 facet normal  9.063078e-01  4.226183e-01  0.000000e+00
   outer loop
     vertex  1.146847e+02  3.155000e+01 -2.500264e+00
     vertex  1.149130e+02  3.106026e+01 -8.000264e+00
     vertex  1.146847e+02  3.155000e+01 -8.000264e+00
   endloop
 endfacet
 facet normal  9.063078e-01  4.226183e-01 -1.024296e-18
   outer loop
     vertex  1.146847e+02  3.155000e+01 -2.500264e+00
     vertex  1.149130e+02  3.106026e+01 -2.500264e+00
     vertex  1.149130e+02  3.106026e+01 -8.000264e+00
   endloop
 endfacet
 facet normal  8.191520e-01  5.735764e-01  0.000000e+00
   outer loop
     vertex  1.143747e+02  3.199264e+01 -2.500264e+00
     vertex  1.146847e+02  3.155000e+01 -8.000264e+00
     vertex  1.143747e+02  3.199264e+01 -8.000264e+00
   endloop
 endfacet
 facet normal  8.191520e-01  5.735764e-01 -3.935698e-20
   outer loop
     vertex  1.143747e+02  3.199264e+01 -2.500264e+00
     vertex  1.146847e+02  3.155000e+01 -2.500264e+00
     vertex  1.146847e+02  3.155000e+01 -8.000264e+00
   endloop
 endfacet
 facet normal  7.071068e-01  7.071068e-01  0.000000e+00
   outer loop
     vertex  1.139926e+02  3.237474e+01 -2.500264e+00
     vertex  1.143747e+02  3.199264e+01 -8.000264e+00
     vertex  1.139926e+02  3.237474e+01 -8.000264e+00
   endloop
 endfacet
 facet normal  7.071068e-01  7.071068e-01 -1.257848e-18
   outer loop
     vertex  1.139926e+02  3.237474e+01 -2.500264e+00
     vertex  1.143747e+02  3.199264e+01 -2.500264e+00
     vertex  1.143747e+02  3.199264e+01 -8.000264e+00
   endloop
 endfacet
 facet normal  5.735764e-01  8.191520e-01  0.000000e+00
   outer loop
     vertex  1.135500e+02  3.268468e+01 -2.500264e+00
     vertex  1.139926e+02  3.237474e+01 -8.000264e+00
     vertex  1.135500e+02  3.268468e+01 -8.000264e+00
   endloop
 endfacet
 facet normal  5.735764e-01  8.191520e-01 -4.124598e-19
   outer loop
     vertex  1.135500e+02  3.268468e+01 -2.500264e+00
     vertex  1.139926e+02  3.237474e+01 -2.500264e+00
     vertex  1.139926e+02  3.237474e+01 -8.000264e+00
   endloop
 endfacet
 facet normal  4.226183e-01  9.063078e-01  2.322213e-18
   outer loop
     vertex  1.130603e+02  3.291305e+01 -2.500264e+00
     vertex  1.135500e+02  3.268468e+01 -2.500264e+00
     vertex  1.135500e+02  3.268468e+01 -8.000264e+00
   endloop
 endfacet
 facet normal  4.226183e-01  9.063078e-01  0.000000e+00
   outer loop
     vertex  1.130603e+02  3.291305e+01 -2.500264e+00
     vertex  1.135500e+02  3.268468e+01 -8.000264e+00
     vertex  1.130603e+02  3.291305e+01 -8.000264e+00
   endloop
 endfacet
 facet normal  2.588190e-01  9.659258e-01 -9.167584e-19
   outer loop
     vertex  1.125383e+02  3.305290e+01 -2.500264e+00
     vertex  1.130603e+02  3.291305e+01 -2.500264e+00
     vertex  1.130603e+02  3.291305e+01 -8.000264e+00
   endloop
 endfacet
 facet normal  2.588190e-01  9.659258e-01  0.000000e+00
   outer loop
     vertex  1.125383e+02  3.305290e+01 -2.500264e+00
     vertex  1.130603e+02  3.291305e+01 -8.000264e+00
     vertex  1.125383e+02  3.305290e+01 -8.000264e+00
   endloop
 endfacet
 facet normal  8.715574e-02  9.961947e-01 -1.674910e-19
   outer loop
     vertex  1.120000e+02  3.310000e+01 -2.500264e+00
     vertex  1.125383e+02  3.305290e+01 -2.500264e+00
     vertex  1.125383e+02  3.305290e+01 -8.000264e+00
   endloop
 endfacet
 facet normal  8.715574e-02  9.961947e-01  0.000000e+00
   outer loop
     vertex  1.120000e+02  3.310000e+01 -2.500264e+00
     vertex  1.125383e+02  3.305290e+01 -8.000264e+00
     vertex  1.120000e+02  3.310000e+01 -8.000264e+00
   endloop
 endfacet
 facet normal -8.715574e-02  9.961947e-01  2.783035e-19
   outer loop
     vertex  1.114617e+02  3.305290e+01 -2.500264e+00
     vertex  1.120000e+02  3.310000e+01 -2.500264e+00
     vertex  1.120000e+02  3.310000e+01 -8.000264e+00
   endloop
 endfacet
 facet normal -8.715574e-02  9.961947e-01  0.000000e+00
   outer loop
     vertex  1.114617e+02  3.305290e+01 -2.500264e+00
     vertex  1.120000e+02  3.310000e+01 -8.000264e+00
     vertex  1.114617e+02  3.305290e+01 -8.000264e+00
   endloop
 endfacet
 facet normal -2.588190e-01  9.659258e-01  1.913582e-18
   outer loop
     vertex  1.109397e+02  3.291305e+01 -2.500264e+00
     vertex  1.114617e+02  3.305290e+01 -2.500264e+00
     vertex  1.114617e+02  3.305290e+01 -8.000264e+00
   endloop
 endfacet
 facet normal -2.588190e-01  9.659258e-01  0.000000e+00
   outer loop
     vertex  1.109397e+02  3.291305e+01 -2.500264e+00
     vertex  1.114617e+02  3.305290e+01 -8.000264e+00
     vertex  1.109397e+02  3.291305e+01 -8.000264e+00
   endloop
 endfacet
 facet normal -4.226183e-01  9.063078e-01 -2.322213e-18
   outer loop
     vertex  1.104500e+02  3.268468e+01 -2.500264e+00
     vertex  1.109397e+02  3.291305e+01 -2.500264e+00
     vertex  1.109397e+02  3.291305e+01 -8.000264e+00
   endloop
 endfacet
 facet normal -4.226183e-01  9.063078e-01  0.000000e+00
   outer loop
     vertex  1.104500e+02  3.268468e+01 -2.500264e+00
     vertex  1.109397e+02  3.291305e+01 -8.000264e+00
     vertex  1.104500e+02  3.268468e+01 -8.000264e+00
   endloop
 endfacet
 facet normal -5.735764e-01  8.191520e-01  4.124598e-19
   outer loop
     vertex  1.100074e+02  3.237474e+01 -2.500264e+00
     vertex  1.104500e+02  3.268468e+01 -2.500264e+00
     vertex  1.104500e+02  3.268468e+01 -8.000264e+00
   endloop
 endfacet
 facet normal -5.735764e-01  8.191520e-01  0.000000e+00
   outer loop
     vertex  1.100074e+02  3.237474e+01 -2.500264e+00
     vertex  1.104500e+02  3.268468e+01 -8.000264e+00
     vertex  1.100074e+02  3.237474e+01 -8.000264e+00
   endloop
 endfacet
 facet normal -7.071068e-01  7.071068e-01  2.114126e-18
   outer loop
     vertex  1.096253e+02  3.199264e+01 -2.500264e+00
     vertex  1.100074e+02  3.237474e+01 -2.500264e+00
     vertex  1.100074e+02  3.237474e+01 -8.000264e+00
   endloop
 endfacet
 facet normal -7.071068e-01  7.071068e-01  0.000000e+00
   outer loop
     vertex  1.096253e+02  3.199264e+01 -2.500264e+00
     vertex  1.100074e+02  3.237474e+01 -8.000264e+00
     vertex  1.096253e+02  3.199264e+01 -8.000264e+00
   endloop
 endfacet
 facet normal -8.191520e-01  5.735764e-01  3.471490e-18
   outer loop
     vertex  1.093153e+02  3.155000e+01 -2.500264e+00
     vertex  1.096253e+02  3.199264e+01 -2.500264e+00
     vertex  1.096253e+02  3.199264e+01 -8.000264e+00
   endloop
 endfacet
 facet normal -8.191520e-01  5.735764e-01  0.000000e+00
   outer loop
     vertex  1.093153e+02  3.155000e+01 -2.500264e+00
     vertex  1.096253e+02  3.199264e+01 -8.000264e+00
     vertex  1.093153e+02  3.155000e+01 -8.000264e+00
   endloop
 endfacet
 facet normal -9.063078e-01  4.226183e-01 -1.351276e-18
   outer loop
     vertex  1.090870e+02  3.106026e+01 -2.500264e+00
     vertex  1.093153e+02  3.155000e+01 -2.500264e+00
     vertex  1.093153e+02  3.155000e+01 -8.000264e+00
   endloop
 endfacet
 facet normal -9.063078e-01  4.226183e-01  0.000000e+00
   outer loop
     vertex  1.090870e+02  3.106026e+01 -2.500264e+00
     vertex  1.093153e+02  3.155000e+01 -8.000264e+00
     vertex  1.090870e+02  3.106026e+01 -8.000264e+00
   endloop
 endfacet
 facet normal -9.659258e-01  2.588190e-01 -9.195769e-19
   outer loop
     vertex  1.089471e+02  3.053831e+01 -2.500264e+00
     vertex  1.090870e+02  3.106026e+01 -2.500264e+00
     vertex  1.090870e+02  3.106026e+01 -8.000264e+00
   endloop
 endfacet
 facet normal -9.659258e-01  2.588190e-01  0.000000e+00
   outer loop
     vertex  1.089471e+02  3.053831e+01 -2.500264e+00
     vertex  1.090870e+02  3.106026e+01 -8.000264e+00
     vertex  1.089471e+02  3.053831e+01 -8.000264e+00
   endloop
 endfacet
 facet normal -9.961947e-01  8.715574e-02  2.724518e-19
   outer loop
     vertex  1.089000e+02  3.000000e+01 -2.500264e+00
     vertex  1.089471e+02  3.053831e+01 -2.500264e+00
     vertex  1.089471e+02  3.053831e+01 -8.000264e+00
   endloop
 endfacet
 facet normal -9.961947e-01  8.715574e-02  0.000000e+00
   outer loop
     vertex  1.089000e+02  3.000000e+01 -2.500264e+00
     vertex  1.089471e+02  3.053831e+01 -8.000264e+00
     vertex  1.089000e+02  3.000000e+01 -8.000264e+00
   endloop
 endfacet
 facet normal -9.961947e-01 -8.715574e-02 -0.000000e+00
   outer loop
     vertex  1.089471e+02  2.946169e+01 -2.500264e+00
     vertex  1.089000e+02  3.000000e+01 -8.000264e+00
     vertex  1.089471e+02  2.946169e+01 -8.000264e+00
   endloop
 endfacet
 facet normal -9.961947e-01 -8.715574e-02 -2.724518e-19
   outer loop
     vertex  1.089471e+02  2.946169e+01 -2.500264e+00
     vertex  1.089000e+02  3.000000e+01 -2.500264e+00
     vertex  1.089000e+02  3.000000e+01 -8.000264e+00
   endloop
 endfacet
 facet normal -9.659258e-01 -2.588190e-01 -0.000000e+00
   outer loop
     vertex  1.089471e+02  2.946169e+01 -2.500264e+00
     vertex  1.089471e+02  2.946169e+01 -8.000264e+00
     vertex  1.090870e+02  2.893974e+01 -8.000264e+00
   endloop
 endfacet
 facet normal -9.659258e-01 -2.588190e-01 -0.000000e+00
   outer loop
     vertex  1.090870e+02  2.893974e+01 -2.500264e+00
     vertex  1.089471e+02  2.946169e+01 -2.500264e+00
     vertex  1.090870e+02  2.893974e+01 -8.000264e+00
   endloop
 endfacet
 facet normal -9.063078e-01 -4.226183e-01 -0.000000e+00
   outer loop
     vertex  1.093153e+02  2.845000e+01 -2.500264e+00
     vertex  1.090870e+02  2.893974e+01 -8.000264e+00
     vertex  1.093153e+02  2.845000e+01 -8.000264e+00
   endloop
 endfacet
 facet normal -9.063078e-01 -4.226183e-01  1.134427e-18
   outer loop
     vertex  1.093153e+02  2.845000e+01 -2.500264e+00
     vertex  1.090870e+02  2.893974e+01 -2.500264e+00
     vertex  1.090870e+02  2.893974e+01 -8.000264e+00
   endloop
 endfacet
 facet normal -8.191520e-01 -5.735764e-01 -0.000000e+00
   outer loop
     vertex  1.096253e+02  2.800736e+01 -2.500264e+00
     vertex  1.093153e+02  2.845000e+01 -8.000264e+00
     vertex  1.096253e+02  2.800736e+01 -8.000264e+00
   endloop
 endfacet
 facet normal -8.191520e-01 -5.735764e-01 -4.124598e-19
   outer loop
     vertex  1.096253e+02  2.800736e+01 -2.500264e+00
     vertex  1.093153e+02  2.845000e+01 -2.500264e+00
     vertex  1.093153e+02  2.845000e+01 -8.000264e+00
   endloop
 endfacet
 facet normal -7.071068e-01 -7.071068e-01 -0.000000e+00
   outer loop
     vertex  1.100074e+02  2.762526e+01 -2.500264e+00
     vertex  1.096253e+02  2.800736e+01 -8.000264e+00
     vertex  1.100074e+02  2.762526e+01 -8.000264e+00
   endloop
 endfacet
 facet normal -7.071068e-01 -7.071068e-01  1.310985e-18
   outer loop
     vertex  1.100074e+02  2.762526e+01 -2.500264e+00
     vertex  1.096253e+02  2.800736e+01 -2.500264e+00
     vertex  1.096253e+02  2.800736e+01 -8.000264e+00
   endloop
 endfacet
 facet normal -5.735764e-01 -8.191520e-01 -0.000000e+00
   outer loop
     vertex  1.104500e+02  2.731532e+01 -2.500264e+00
     vertex  1.100074e+02  2.762526e+01 -8.000264e+00
     vertex  1.104500e+02  2.731532e+01 -8.000264e+00
   endloop
 endfacet
 facet normal -5.735764e-01 -8.191520e-01 -1.168132e-19
   outer loop
     vertex  1.104500e+02  2.731532e+01 -2.500264e+00
     vertex  1.100074e+02  2.762526e+01 -2.500264e+00
     vertex  1.100074e+02  2.762526e+01 -8.000264e+00
   endloop
 endfacet
 facet normal -4.226183e-01 -9.063078e-01 -0.000000e+00
   outer loop
     vertex  1.109397e+02  2.708695e+01 -2.500264e+00
     vertex  1.104500e+02  2.731532e+01 -8.000264e+00
     vertex  1.109397e+02  2.708695e+01 -8.000264e+00
   endloop
 endfacet
 facet normal -2.588190e-01 -9.659258e-01 -0.000000e+00
   outer loop
     vertex  1.109397e+02  2.708695e+01 -2.500264e+00
     vertex  1.109397e+02  2.708695e+01 -8.000264e+00
     vertex  1.114617e+02  2.694710e+01 -8.000264e+00
   endloop
 endfacet
 facet normal -4.226183e-01 -9.063078e-01  2.322213e-18
   outer loop
     vertex  1.109397e+02  2.708695e+01 -2.500264e+00
     vertex  1.104500e+02  2.731532e+01 -2.500264e+00
     vertex  1.104500e+02  2.731532e+01 -8.000264e+00
   endloop
 endfacet
 facet normal -2.588190e-01 -9.659258e-01 -0.000000e+00
   outer loop
     vertex  1.114617e+02  2.694710e+01 -2.500264e+00
     vertex  1.109397e+02  2.708695e+01 -2.500264e+00
     vertex  1.114617e+02  2.694710e+01 -8.000264e+00
   endloop
 endfacet
 facet normal -8.715574e-02 -9.961947e-01 -0.000000e+00
   outer loop
     vertex  1.120000e+02  2.690000e+01 -2.500264e+00
     vertex  1.114617e+02  2.694710e+01 -8.000264e+00
     vertex  1.120000e+02  2.690000e+01 -8.000264e+00
   endloop
 endfacet
 facet normal  8.715574e-02 -9.961947e-01  0.000000e+00
   outer loop
     vertex  1.120000e+02  2.690000e+01 -2.500264e+00
     vertex  1.120000e+02  2.690000e+01 -8.000264e+00
     vertex  1.125383e+02  2.694710e+01 -8.000264e+00
   endloop
 endfacet
 facet normal -8.715574e-02 -9.961947e-01 -2.783035e-19
   outer loop
     vertex  1.120000e+02  2.690000e+01 -2.500264e+00
     vertex  1.114617e+02  2.694710e+01 -2.500264e+00
     vertex  1.114617e+02  2.694710e+01 -8.000264e+00
   endloop
 endfacet
 facet normal  8.715574e-02 -9.961947e-01  0.000000e+00
   outer loop
     vertex  1.125383e+02  2.694710e+01 -2.500264e+00
     vertex  1.120000e+02  2.690000e+01 -2.500264e+00
     vertex  1.125383e+02  2.694710e+01 -8.000264e+00
   endloop
 endfacet
 facet normal  2.588190e-01 -9.659258e-01  0.000000e+00
   outer loop
     vertex  1.130603e+02  2.708695e+01 -2.500264e+00
     vertex  1.125383e+02  2.694710e+01 -8.000264e+00
     vertex  1.130603e+02  2.708695e+01 -8.000264e+00
   endloop
 endfacet
 facet normal  2.588190e-01 -9.659258e-01 -8.576870e-19
   outer loop
     vertex  1.130603e+02  2.708695e+01 -2.500264e+00
     vertex  1.125383e+02  2.694710e+01 -2.500264e+00
     vertex  1.125383e+02  2.694710e+01 -8.000264e+00
   endloop
 endfacet
 facet normal  4.226183e-01 -9.063078e-01  0.000000e+00
   outer loop
     vertex  1.135500e+02  2.731532e+01 -2.500264e+00
     vertex  1.130603e+02  2.708695e+01 -8.000264e+00
     vertex  1.135500e+02  2.731532e+01 -8.000264e+00
   endloop
 endfacet
 facet normal  4.226183e-01 -9.063078e-01 -1.838523e-18
   outer loop
     vertex  1.135500e+02  2.731532e+01 -2.500264e+00
     vertex  1.130603e+02  2.708695e+01 -2.500264e+00
     vertex  1.130603e+02  2.708695e+01 -8.000264e+00
   endloop
 endfacet
 facet normal  5.735764e-01 -8.191520e-01  3.309594e-18
   outer loop
     vertex  1.139926e+02  2.762526e+01 -2.500264e+00
     vertex  1.135500e+02  2.731532e+01 -2.500264e+00
     vertex  1.135500e+02  2.731532e+01 -8.000264e+00
   endloop
 endfacet
 facet normal  5.735764e-01 -8.191520e-01  0.000000e+00
   outer loop
     vertex  1.139926e+02  2.762526e+01 -2.500264e+00
     vertex  1.135500e+02  2.731532e+01 -8.000264e+00
     vertex  1.139926e+02  2.762526e+01 -8.000264e+00
   endloop
 endfacet
 facet normal  7.071068e-01 -7.071068e-01 -1.310985e-18
   outer loop
     vertex  1.143747e+02  2.800736e+01 -2.500264e+00
     vertex  1.139926e+02  2.762526e+01 -2.500264e+00
     vertex  1.139926e+02  2.762526e+01 -8.000264e+00
   endloop
 endfacet
 facet normal  7.071068e-01 -7.071068e-01  0.000000e+00
   outer loop
     vertex  1.143747e+02  2.800736e+01 -2.500264e+00
     vertex  1.139926e+02  2.762526e+01 -8.000264e+00
     vertex  1.143747e+02  2.800736e+01 -8.000264e+00
   endloop
 endfacet
 facet normal  8.191520e-01 -5.735764e-01  3.471490e-18
   outer loop
     vertex  1.146847e+02  2.845000e+01 -2.500264e+00
     vertex  1.143747e+02  2.800736e+01 -2.500264e+00
     vertex  1.143747e+02  2.800736e+01 -8.000264e+00
   endloop
 endfacet
 facet normal  8.191520e-01 -5.735764e-01  0.000000e+00
   outer loop
     vertex  1.146847e+02  2.845000e+01 -2.500264e+00
     vertex  1.143747e+02  2.800736e+01 -8.000264e+00
     vertex  1.146847e+02  2.845000e+01 -8.000264e+00
   endloop
 endfacet
 facet normal  9.063078e-01 -4.226183e-01  0.000000e+00
   outer loop
     vertex  1.146847e+02  2.845000e+01 -2.500264e+00
     vertex  1.146847e+02  2.845000e+01 -8.000264e+00
     vertex  1.149130e+02  2.893974e+01 -8.000264e+00
   endloop
 endfacet
 facet normal  9.063078e-01 -4.226183e-01  0.000000e+00
   outer loop
     vertex  1.149130e+02  2.893974e+01 -2.500264e+00
     vertex  1.146847e+02  2.845000e+01 -2.500264e+00
     vertex  1.149130e+02  2.893974e+01 -8.000264e+00
   endloop
 endfacet
 facet normal  9.659258e-01 -2.588190e-01 -9.195769e-19
   outer loop
     vertex  1.150529e+02  2.946169e+01 -2.500264e+00
     vertex  1.149130e+02  2.893974e+01 -2.500264e+00
     vertex  1.149130e+02  2.893974e+01 -8.000264e+00
   endloop
 endfacet
 facet normal  9.659258e-01 -2.588190e-01  0.000000e+00
   outer loop
     vertex  1.150529e+02  2.946169e+01 -2.500264e+00
     vertex  1.149130e+02  2.893974e+01 -8.000264e+00
     vertex  1.150529e+02  2.946169e+01 -8.000264e+00
   endloop
 endfacet
 facet normal  9.961947e-01 -8.715574e-02  0.000000e+00
   outer loop
     vertex  1.150529e+02  2.946169e+01 -2.500264e+00
     vertex  1.150529e+02  2.946169e+01 -8.000264e+00
     vertex  1.151000e+02  3.000000e+01 -8.000264e+00
   endloop
 endfacet
 facet normal  9.961947e-01 -8.715574e-02  0.000000e+00
   outer loop
     vertex  1.151000e+02  3.000000e+01 -2.500264e+00
     vertex  1.150529e+02  2.946169e+01 -2.500264e+00
     vertex  1.151000e+02  3.000000e+01 -8.000264e+00
   endloop
 endfacet
 facet normal  0.000000e+00  0.000000e+00  1.000000e+00
   outer loop
     vertex  1.109397e+02  2.708695e+01 -2.500264e+00
     vertex  1.100074e+02  2.762526e+01 -2.500264e+00
     vertex  1.104500e+02  2.731532e+01 -2.500264e+00
   endloop
 endfacet
 facet normal  0.000000e+00  0.000000e+00  1.000000e+00
   outer loop
     vertex  1.090870e+02  2.893974e+01 -2.500264e+00
     vertex  1.093153e+02  2.845000e+01 -2.500264e+00
     vertex  1.096253e+02  2.800736e+01 -2.500264e+00
   endloop
 endfacet
 facet normal  0.000000e+00  0.000000e+00  1.000000e+00
   outer loop
     vertex  1.114617e+02  2.694710e+01 -2.500264e+00
     vertex  1.096253e+02  2.800736e+01 -2.500264e+00
     vertex  1.100074e+02  2.762526e+01 -2.500264e+00
   endloop
 endfacet
 facet normal  0.000000e+00  0.000000e+00  1.000000e+00
   outer loop
     vertex  1.114617e+02  2.694710e+01 -2.500264e+00
     vertex  1.100074e+02  2.762526e+01 -2.500264e+00
     vertex  1.109397e+02  2.708695e+01 -2.500264e+00
   endloop
 endfacet
 facet normal  0.000000e+00  0.000000e+00  1.000000e+00
   outer loop
     vertex  1.125383e+02  2.694710e+01 -2.500264e+00
     vertex  1.114617e+02  2.694710e+01 -2.500264e+00
     vertex  1.120000e+02  2.690000e+01 -2.500264e+00
   endloop
 endfacet
 facet normal  0.000000e+00  0.000000e+00  1.000000e+00
   outer loop
     vertex  1.089471e+02  3.053831e+01 -2.500264e+00
     vertex  1.089000e+02  3.000000e+01 -2.500264e+00
     vertex  1.089471e+02  2.946169e+01 -2.500264e+00
   endloop
 endfacet
 facet normal  0.000000e+00  0.000000e+00  1.000000e+00
   outer loop
     vertex  1.089471e+02  3.053831e+01 -2.500264e+00
     vertex  1.089471e+02  2.946169e+01 -2.500264e+00
     vertex  1.090870e+02  2.893974e+01 -2.500264e+00
   endloop
 endfacet
 facet normal  0.000000e+00  0.000000e+00  1.000000e+00
   outer loop
     vertex  1.135500e+02  2.731532e+01 -2.500264e+00
     vertex  1.125383e+02  2.694710e+01 -2.500264e+00
     vertex  1.130603e+02  2.708695e+01 -2.500264e+00
   endloop
 endfacet
 facet normal  0.000000e+00  0.000000e+00  1.000000e+00
   outer loop
     vertex  1.143747e+02  2.800736e+01 -2.500264e+00
     vertex  1.135500e+02  2.731532e+01 -2.500264e+00
     vertex  1.139926e+02  2.762526e+01 -2.500264e+00
   endloop
 endfacet
 facet normal  0.000000e+00  0.000000e+00  1.000000e+00
   outer loop
     vertex  1.143747e+02  2.800736e+01 -2.500264e+00
     vertex  1.114617e+02  2.694710e+01 -2.500264e+00
     vertex  1.125383e+02  2.694710e+01 -2.500264e+00
   endloop
 endfacet
 facet normal  0.000000e+00  0.000000e+00  1.000000e+00
   outer loop
     vertex  1.143747e+02  2.800736e+01 -2.500264e+00
     vertex  1.125383e+02  2.694710e+01 -2.500264e+00
     vertex  1.135500e+02  2.731532e+01 -2.500264e+00
   endloop
 endfacet
 facet normal  0.000000e+00  0.000000e+00  1.000000e+00
   outer loop
     vertex  1.104500e+02  3.268468e+01 -2.500264e+00
     vertex  1.100074e+02  3.237474e+01 -2.500264e+00
     vertex  1.096253e+02  3.199264e+01 -2.500264e+00
   endloop
 endfacet
 facet normal  0.000000e+00  0.000000e+00  1.000000e+00
   outer loop
     vertex  1.149130e+02  2.893974e+01 -2.500264e+00
     vertex  1.143747e+02  2.800736e+01 -2.500264e+00
     vertex  1.146847e+02  2.845000e+01 -2.500264e+00
   endloop
 endfacet
 facet normal  0.000000e+00  0.000000e+00  1.000000e+00
   outer loop
     vertex  1.109397e+02  3.291305e+01 -2.500264e+00
     vertex  1.096253e+02  3.199264e+01 -2.500264e+00
     vertex  1.093153e+02  3.155000e+01 -2.500264e+00
   endloop
 endfacet
 facet normal  0.000000e+00  0.000000e+00  1.000000e+00
   outer loop
     vertex  1.109397e+02  3.291305e+01 -2.500264e+00
     vertex  1.104500e+02  3.268468e+01 -2.500264e+00
     vertex  1.096253e+02  3.199264e+01 -2.500264e+00
   endloop
 endfacet
 facet normal  0.000000e+00  0.000000e+00  1.000000e+00
   outer loop
     vertex  1.150529e+02  2.946169e+01 -2.500264e+00
     vertex  1.090870e+02  2.893974e+01 -2.500264e+00
     vertex  1.096253e+02  2.800736e+01 -2.500264e+00
   endloop
 endfacet
 facet normal  0.000000e+00  0.000000e+00  1.000000e+00
   outer loop
     vertex  1.150529e+02  2.946169e+01 -2.500264e+00
     vertex  1.096253e+02  2.800736e+01 -2.500264e+00
     vertex  1.114617e+02  2.694710e+01 -2.500264e+00
   endloop
 endfacet
 facet normal  0.000000e+00  0.000000e+00  1.000000e+00
   outer loop
     vertex  1.150529e+02  2.946169e+01 -2.500264e+00
     vertex  1.143747e+02  2.800736e+01 -2.500264e+00
     vertex  1.149130e+02  2.893974e+01 -2.500264e+00
   endloop
 endfacet
 facet normal  0.000000e+00  0.000000e+00  1.000000e+00
   outer loop
     vertex  1.150529e+02  2.946169e+01 -2.500264e+00
     vertex  1.114617e+02  2.694710e+01 -2.500264e+00
     vertex  1.143747e+02  2.800736e+01 -2.500264e+00
   endloop
 endfacet
 facet normal  0.000000e+00  0.000000e+00  1.000000e+00
   outer loop
     vertex  1.150529e+02  3.053831e+01 -2.500264e+00
     vertex  1.150529e+02  2.946169e+01 -2.500264e+00
     vertex  1.151000e+02  3.000000e+01 -2.500264e+00
   endloop
 endfacet
 facet normal  0.000000e+00  0.000000e+00  1.000000e+00
   outer loop
     vertex  1.150529e+02  3.053831e+01 -2.500264e+00
     vertex  1.089471e+02  3.053831e+01 -2.500264e+00
     vertex  1.090870e+02  2.893974e+01 -2.500264e+00
   endloop
 endfacet
 facet normal  0.000000e+00  0.000000e+00  1.000000e+00
   outer loop
     vertex  1.150529e+02  3.053831e+01 -2.500264e+00
     vertex  1.090870e+02  2.893974e+01 -2.500264e+00
     vertex  1.150529e+02  2.946169e+01 -2.500264e+00
   endloop
 endfacet
 facet normal  0.000000e+00  0.000000e+00  1.000000e+00
   outer loop
     vertex  1.125383e+02  3.305290e+01 -2.500264e+00
     vertex  1.120000e+02  3.310000e+01 -2.500264e+00
     vertex  1.114617e+02  3.305290e+01 -2.500264e+00
   endloop
 endfacet
 facet normal  0.000000e+00  0.000000e+00  1.000000e+00
   outer loop
     vertex  1.149130e+02  3.106026e+01 -2.500264e+00
     vertex  1.089471e+02  3.053831e+01 -2.500264e+00
     vertex  1.150529e+02  3.053831e+01 -2.500264e+00
   endloop
 endfacet
 facet normal  0.000000e+00  0.000000e+00  1.000000e+00
   outer loop
     vertex  1.130603e+02  3.291305e+01 -2.500264e+00
     vertex  1.125383e+02  3.305290e+01 -2.500264e+00
     vertex  1.114617e+02  3.305290e+01 -2.500264e+00
   endloop
 endfacet
 facet normal  0.000000e+00  0.000000e+00  1.000000e+00
   outer loop
     vertex  1.146847e+02  3.155000e+01 -2.500264e+00
     vertex  1.090870e+02  3.106026e+01 -2.500264e+00
     vertex  1.089471e+02  3.053831e+01 -2.500264e+00
   endloop
 endfacet
 facet normal  0.000000e+00  0.000000e+00  1.000000e+00
   outer loop
     vertex  1.146847e+02  3.155000e+01 -2.500264e+00
     vertex  1.089471e+02  3.053831e+01 -2.500264e+00
     vertex  1.149130e+02  3.106026e+01 -2.500264e+00
   endloop
 endfacet
 facet normal  0.000000e+00  0.000000e+00  1.000000e+00
   outer loop
     vertex  1.139926e+02  3.237474e+01 -2.500264e+00
     vertex  1.135500e+02  3.268468e+01 -2.500264e+00
     vertex  1.130603e+02  3.291305e+01 -2.500264e+00
   endloop
 endfacet
 facet normal  0.000000e+00  0.000000e+00  1.000000e+00
   outer loop
     vertex  1.143747e+02  3.199264e+01 -2.500264e+00
     vertex  1.090870e+02  3.106026e+01 -2.500264e+00
     vertex  1.146847e+02  3.155000e+01 -2.500264e+00
   endloop
 endfacet
 facet normal  0.000000e+00  0.000000e+00  1.000000e+00
   outer loop
     vertex  1.143747e+02  3.199264e+01 -2.500264e+00
     vertex  1.139926e+02  3.237474e+01 -2.500264e+00
     vertex  1.130603e+02  3.291305e+01 -2.500264e+00
   endloop
 endfacet
 facet normal  0.000000e+00  0.000000e+00  1.000000e+00
   outer loop
     vertex  1.143747e+02  3.199264e+01 -2.500264e+00
     vertex  1.114617e+02  3.305290e+01 -2.500264e+00
     vertex  1.109397e+02  3.291305e+01 -2.500264e+00
   endloop
 endfacet
 facet normal  0.000000e+00  0.000000e+00  1.000000e+00
   outer loop
     vertex  1.143747e+02  3.199264e+01 -2.500264e+00
     vertex  1.093153e+02  3.155000e+01 -2.500264e+00
     vertex  1.090870e+02  3.106026e+01 -2.500264e+00
   endloop
 endfacet
 facet normal  0.000000e+00  0.000000e+00  1.000000e+00
   outer loop
     vertex  1.143747e+02  3.199264e+01 -2.500264e+00
     vertex  1.109397e+02  3.291305e+01 -2.500264e+00
     vertex  1.093153e+02  3.155000e+01 -2.500264e+00
   endloop
 endfacet
 facet normal  0.000000e+00  0.000000e+00  1.000000e+00
   outer loop
     vertex  1.143747e+02  3.199264e+01 -2.500264e+00
     vertex  1.130603e+02  3.291305e+01 -2.500264e+00
     vertex  1.114617e+02  3.305290e+01 -2.500264e+00
   endloop
 endfacet
 facet normal  0.000000e+00  0.000000e+00 -1.000000e+00
   outer loop
     vertex  1.109397e+02  2.708695e+01 -8.000264e+00
     vertex  1.104500e+02  2.731532e+01 -8.000264e+00
     vertex  1.100074e+02  2.762526e+01 -8.000264e+00
   endloop
 endfacet
 facet normal  0.000000e+00  0.000000e+00 -1.000000e+00
   outer loop
     vertex  1.090870e+02  2.893974e+01 -8.000264e+00
     vertex  1.096253e+02  2.800736e+01 -8.000264e+00
     vertex  1.093153e+02  2.845000e+01 -8.000264e+00
   endloop
 endfacet
 facet normal  0.000000e+00  0.000000e+00 -1.000000e+00
   outer loop
     vertex  1.114617e+02  2.694710e+01 -8.000264e+00
     vertex  1.100074e+02  2.762526e+01 -8.000264e+00
     vertex  1.096253e+02  2.800736e+01 -8.000264e+00
   endloop
 endfacet
 facet normal  0.000000e+00  0.000000e+00 -1.000000e+00
   outer loop
     vertex  1.114617e+02  2.694710e+01 -8.000264e+00
     vertex  1.109397e+02  2.708695e+01 -8.000264e+00
     vertex  1.100074e+02  2.762526e+01 -8.000264e+00
   endloop
 endfacet
 facet normal -0.000000e+00  0.000000e+00 -1.000000e+00
   outer loop
     vertex  1.125383e+02  2.694710e+01 -8.000264e+00
     vertex  1.120000e+02  2.690000e+01 -8.000264e+00
     vertex  1.114617e+02  2.694710e+01 -8.000264e+00
   endloop
 endfacet
 facet normal  0.000000e+00 -0.000000e+00 -1.000000e+00
   outer loop
     vertex  1.089471e+02  3.053831e+01 -8.000264e+00
     vertex  1.089471e+02  2.946169e+01 -8.000264e+00
     vertex  1.089000e+02  3.000000e+01 -8.000264e+00
   endloop
 endfacet
 facet normal  0.000000e+00  0.000000e+00 -1.000000e+00
   outer loop
     vertex  1.089471e+02  3.053831e+01 -8.000264e+00
     vertex  1.090870e+02  2.893974e+01 -8.000264e+00
     vertex  1.089471e+02  2.946169e+01 -8.000264e+00
   endloop
 endfacet
 facet normal  0.000000e+00  0.000000e+00 -1.000000e+00
   outer loop
     vertex  1.135500e+02  2.731532e+01 -8.000264e+00
     vertex  1.130603e+02  2.708695e+01 -8.000264e+00
     vertex  1.125383e+02  2.694710e+01 -8.000264e+00
   endloop
 endfacet
 facet normal  0.000000e+00  0.000000e+00 -1.000000e+00
   outer loop
     vertex  1.143747e+02  2.800736e+01 -8.000264e+00
     vertex  1.139926e+02  2.762526e+01 -8.000264e+00
     vertex  1.135500e+02  2.731532e+01 -8.000264e+00
   endloop
 endfacet
 facet normal  0.000000e+00  0.000000e+00 -1.000000e+00
   outer loop
     vertex  1.143747e+02  2.800736e+01 -8.000264e+00
     vertex  1.125383e+02  2.694710e+01 -8.000264e+00
     vertex  1.114617e+02  2.694710e+01 -8.000264e+00
   endloop
 endfacet
 facet normal  0.000000e+00  0.000000e+00 -1.000000e+00
   outer loop
     vertex  1.143747e+02  2.800736e+01 -8.000264e+00
     vertex  1.135500e+02  2.731532e+01 -8.000264e+00
     vertex  1.125383e+02  2.694710e+01 -8.000264e+00
   endloop
 endfacet
 facet normal  0.000000e+00  0.000000e+00 -1.000000e+00
   outer loop
     vertex  1.104500e+02  3.268468e+01 -8.000264e+00
     vertex  1.096253e+02  3.199264e+01 -8.000264e+00
     vertex  1.100074e+02  3.237474e+01 -8.000264e+00
   endloop
 endfacet
 facet normal  0.000000e+00  0.000000e+00 -1.000000e+00
   outer loop
     vertex  1.149130e+02  2.893974e+01 -8.000264e+00
     vertex  1.146847e+02  2.845000e+01 -8.000264e+00
     vertex  1.143747e+02  2.800736e+01 -8.000264e+00
   endloop
 endfacet
 facet normal  0.000000e+00  0.000000e+00 -1.000000e+00
   outer loop
     vertex  1.109397e+02  3.291305e+01 -8.000264e+00
     vertex  1.093153e+02  3.155000e+01 -8.000264e+00
     vertex  1.096253e+02  3.199264e+01 -8.000264e+00
   endloop
 endfacet
 facet normal  0.000000e+00  0.000000e+00 -1.000000e+00
   outer loop
     vertex  1.109397e+02  3.291305e+01 -8.000264e+00
     vertex  1.096253e+02  3.199264e+01 -8.000264e+00
     vertex  1.104500e+02  3.268468e+01 -8.000264e+00
   endloop
 endfacet
 facet normal  0.000000e+00  0.000000e+00 -1.000000e+00
   outer loop
     vertex  1.150529e+02  2.946169e+01 -8.000264e+00
     vertex  1.096253e+02  2.800736e+01 -8.000264e+00
     vertex  1.090870e+02  2.893974e+01 -8.000264e+00
   endloop
 endfacet
 facet normal  0.000000e+00  0.000000e+00 -1.000000e+00
   outer loop
     vertex  1.150529e+02  2.946169e+01 -8.000264e+00
     vertex  1.114617e+02  2.694710e+01 -8.000264e+00
     vertex  1.096253e+02  2.800736e+01 -8.000264e+00
   endloop
 endfacet
 facet normal  0.000000e+00  0.000000e+00 -1.000000e+00
   outer loop
     vertex  1.150529e+02  2.946169e+01 -8.000264e+00
     vertex  1.149130e+02  2.893974e+01 -8.000264e+00
     vertex  1.143747e+02  2.800736e+01 -8.000264e+00
   endloop
 endfacet
 facet normal  0.000000e+00  0.000000e+00 -1.000000e+00
   outer loop
     vertex  1.150529e+02  2.946169e+01 -8.000264e+00
     vertex  1.143747e+02  2.800736e+01 -8.000264e+00
     vertex  1.114617e+02  2.694710e+01 -8.000264e+00
   endloop
 endfacet
 facet normal  0.000000e+00  0.000000e+00 -1.000000e+00
   outer loop
     vertex  1.150529e+02  3.053831e+01 -8.000264e+00
     vertex  1.151000e+02  3.000000e+01 -8.000264e+00
     vertex  1.150529e+02  2.946169e+01 -8.000264e+00
   endloop
 endfacet
 facet normal -0.000000e+00  0.000000e+00 -1.000000e+00
   outer loop
     vertex  1.150529e+02  3.053831e+01 -8.000264e+00
     vertex  1.090870e+02  2.893974e+01 -8.000264e+00
     vertex  1.089471e+02  3.053831e+01 -8.000264e+00
   endloop
 endfacet
 facet normal  0.000000e+00 -0.000000e+00 -1.000000e+00
   outer loop
     vertex  1.150529e+02  3.053831e+01 -8.000264e+00
     vertex  1.150529e+02  2.946169e+01 -8.000264e+00
     vertex  1.090870e+02  2.893974e+01 -8.000264e+00
   endloop
 endfacet
 facet normal  0.000000e+00  0.000000e+00 -1.000000e+00
   outer loop
     vertex  1.125383e+02  3.305290e+01 -8.000264e+00
     vertex  1.114617e+02  3.305290e+01 -8.000264e+00
     vertex  1.120000e+02  3.310000e+01 -8.000264e+00
   endloop
 endfacet
 facet normal  0.000000e+00 -0.000000e+00 -1.000000e+00
   outer loop
     vertex  1.149130e+02  3.106026e+01 -8.000264e+00
     vertex  1.150529e+02  3.053831e+01 -8.000264e+00
     vertex  1.089471e+02  3.053831e+01 -8.000264e+00
   endloop
 endfacet
 facet normal  0.000000e+00  0.000000e+00 -1.000000e+00
   outer loop
     vertex  1.130603e+02  3.291305e+01 -8.000264e+00
     vertex  1.114617e+02  3.305290e+01 -8.000264e+00
     vertex  1.125383e+02  3.305290e+01 -8.000264e+00
   endloop
 endfacet
 facet normal  0.000000e+00  0.000000e+00 -1.000000e+00
   outer loop
     vertex  1.146847e+02  3.155000e+01 -8.000264e+00
     vertex  1.089471e+02  3.053831e+01 -8.000264e+00
     vertex  1.090870e+02  3.106026e+01 -8.000264e+00
   endloop
 endfacet
 facet normal  0.000000e+00 -0.000000e+00 -1.000000e+00
   outer loop
     vertex  1.146847e+02  3.155000e+01 -8.000264e+00
     vertex  1.149130e+02  3.106026e+01 -8.000264e+00
     vertex  1.089471e+02  3.053831e+01 -8.000264e+00
   endloop
 endfacet
 facet normal  0.000000e+00  0.000000e+00 -1.000000e+00
   outer loop
     vertex  1.139926e+02  3.237474e+01 -8.000264e+00
     vertex  1.130603e+02  3.291305e+01 -8.000264e+00
     vertex  1.135500e+02  3.268468e+01 -8.000264e+00
   endloop
 endfacet
 facet normal  0.000000e+00 -0.000000e+00 -1.000000e+00
   outer loop
     vertex  1.143747e+02  3.199264e+01 -8.000264e+00
     vertex  1.146847e+02  3.155000e+01 -8.000264e+00
     vertex  1.090870e+02  3.106026e+01 -8.000264e+00
   endloop
 endfacet
 facet normal  0.000000e+00  0.000000e+00 -1.000000e+00
   outer loop
     vertex  1.143747e+02  3.199264e+01 -8.000264e+00
     vertex  1.130603e+02  3.291305e+01 -8.000264e+00
     vertex  1.139926e+02  3.237474e+01 -8.000264e+00
   endloop
 endfacet
 facet normal  0.000000e+00  0.000000e+00 -1.000000e+00
   outer loop
     vertex  1.143747e+02  3.199264e+01 -8.000264e+00
     vertex  1.109397e+02  3.291305e+01 -8.000264e+00
     vertex  1.114617e+02  3.305290e+01 -8.000264e+00
   endloop
 endfacet
 facet normal  0.000000e+00  0.000000e+00 -1.000000e+00
   outer loop
     vertex  1.143747e+02  3.199264e+01 -8.000264e+00
     vertex  1.090870e+02  3.106026e+01 -8.000264e+00
     vertex  1.093153e+02  3.155000e+01 -8.000264e+00
   endloop
 endfacet
 facet normal -0.000000e+00  0.000000e+00 -1.000000e+00
   outer loop
     vertex  1.143747e+02  3.199264e+01 -8.000264e+00
     vertex  1.093153e+02  3.155000e+01 -8.000264e+00
     vertex  1.109397e+02  3.291305e+01 -8.000264e+00
   endloop
 endfacet
 facet normal  0.000000e+00  0.000000e+00 -1.000000e+00
   outer loop
     vertex  1.143747e+02  3.199264e+01 -8.000264e+00
     vertex  1.114617e+02  3.305290e+01 -8.000264e+00
     vertex  1.130603e+02  3.291305e+01 -8.000264e+00
   endloop
 endfacet
 facet normal  9.961947e-01  8.715574e-02 -9.269934e-19
   outer loop
     vertex  1.208633e+02  3.156283e+01 -3.800264e+00
     vertex  1.210000e+02  3.000000e+01 -3.800264e+00
     vertex  1.210000e+02  3.000000e+01 -9.300264e+00
   endloop
 endfacet
 facet normal  9.961947e-01  8.715574e-02  0.000000e+00
   outer loop
     vertex  1.208633e+02  3.156283e+01 -3.800264e+00
     vertex  1.210000e+02  3.000000e+01 -9.300264e+00
     vertex  1.208633e+02  3.156283e+01 -9.300264e+00
   endloop
 endfacet
 facet normal  9.659258e-01  2.588190e-01  0.000000e+00
   outer loop
     vertex  1.204572e+02  3.307818e+01 -3.800264e+00
     vertex  1.208633e+02  3.156283e+01 -9.300264e+00
     vertex  1.204572e+02  3.307818e+01 -9.300264e+00
   endloop
 endfacet
 facet normal  9.659258e-01  2.588190e-01  6.156103e-18
   outer loop
     vertex  1.204572e+02  3.307818e+01 -3.800264e+00
     vertex  1.208633e+02  3.156283e+01 -3.800264e+00
     vertex  1.208633e+02  3.156283e+01 -9.300264e+00
   endloop
 endfacet
 facet normal  9.063078e-01  4.226183e-01  0.000000e+00
   outer loop
     vertex  1.197942e+02  3.450000e+01 -3.800264e+00
     vertex  1.204572e+02  3.307818e+01 -9.300264e+00
     vertex  1.197942e+02  3.450000e+01 -9.300264e+00
   endloop
 endfacet
 facet normal  9.063078e-01  4.226183e-01 -1.350010e-18
   outer loop
     vertex  1.197942e+02  3.450000e+01 -3.800264e+00
     vertex  1.204572e+02  3.307818e+01 -3.800264e+00
     vertex  1.204572e+02  3.307818e+01 -9.300264e+00
   endloop
 endfacet
 facet normal  8.191520e-01  5.735764e-01  0.000000e+00
   outer loop
     vertex  1.188944e+02  3.578509e+01 -3.800264e+00
     vertex  1.197942e+02  3.450000e+01 -9.300264e+00
     vertex  1.188944e+02  3.578509e+01 -9.300264e+00
   endloop
 endfacet
 facet normal  8.191520e-01  5.735764e-01  1.077204e-17
   outer loop
     vertex  1.188944e+02  3.578509e+01 -3.800264e+00
     vertex  1.197942e+02  3.450000e+01 -3.800264e+00
     vertex  1.197942e+02  3.450000e+01 -9.300264e+00
   endloop
 endfacet
 facet normal  7.071068e-01  7.071068e-01  0.000000e+00
   outer loop
     vertex  1.177851e+02  3.689440e+01 -3.800264e+00
     vertex  1.188944e+02  3.578509e+01 -9.300264e+00
     vertex  1.177851e+02  3.689440e+01 -9.300264e+00
   endloop
 endfacet
 facet normal  7.071068e-01  7.071068e-01 -1.144751e-17
   outer loop
     vertex  1.177851e+02  3.689440e+01 -3.800264e+00
     vertex  1.188944e+02  3.578509e+01 -3.800264e+00
     vertex  1.188944e+02  3.578509e+01 -9.300264e+00
   endloop
 endfacet
 facet normal  5.735764e-01  8.191520e-01  1.077204e-17
   outer loop
     vertex  1.165000e+02  3.779423e+01 -3.800264e+00
     vertex  1.177851e+02  3.689440e+01 -3.800264e+00
     vertex  1.177851e+02  3.689440e+01 -9.300264e+00
   endloop
 endfacet
 facet normal  5.735764e-01  8.191520e-01  0.000000e+00
   outer loop
     vertex  1.165000e+02  3.779423e+01 -3.800264e+00
     vertex  1.177851e+02  3.689440e+01 -9.300264e+00
     vertex  1.165000e+02  3.779423e+01 -9.300264e+00
   endloop
 endfacet
 facet normal  4.226183e-01  9.063078e-01  4.212635e-18
   outer loop
     vertex  1.150782e+02  3.845723e+01 -3.800264e+00
     vertex  1.165000e+02  3.779423e+01 -3.800264e+00
     vertex  1.165000e+02  3.779423e+01 -9.300264e+00
   endloop
 endfacet
 facet normal  4.226183e-01  9.063078e-01  0.000000e+00
   outer loop
     vertex  1.150782e+02  3.845723e+01 -3.800264e+00
     vertex  1.165000e+02  3.779423e+01 -9.300264e+00
     vertex  1.150782e+02  3.845723e+01 -9.300264e+00
   endloop
 endfacet
 facet normal  2.588190e-01  9.659258e-01  0.000000e+00
   outer loop
     vertex  1.150782e+02  3.845723e+01 -3.800264e+00
     vertex  1.150782e+02  3.845723e+01 -9.300264e+00
     vertex  1.135628e+02  3.886327e+01 -9.300264e+00
   endloop
 endfacet
 facet normal  2.588190e-01  9.659258e-01  0.000000e+00
   outer loop
     vertex  1.135628e+02  3.886327e+01 -3.800264e+00
     vertex  1.150782e+02  3.845723e+01 -3.800264e+00
     vertex  1.135628e+02  3.886327e+01 -9.300264e+00
   endloop
 endfacet
 facet normal  8.715574e-02  9.961947e-01 -1.201709e-18
   outer loop
     vertex  1.120000e+02  3.900000e+01 -3.800264e+00
     vertex  1.135628e+02  3.886327e+01 -3.800264e+00
     vertex  1.135628e+02  3.886327e+01 -9.300264e+00
   endloop
 endfacet
 facet normal  8.715574e-02  9.961947e-01  0.000000e+00
   outer loop
     vertex  1.120000e+02  3.900000e+01 -3.800264e+00
     vertex  1.135628e+02  3.886327e+01 -9.300264e+00
     vertex  1.120000e+02  3.900000e+01 -9.300264e+00
   endloop
 endfacet
 facet normal -8.715574e-02  9.961947e-01  1.201709e-18
   outer loop
     vertex  1.104372e+02  3.886327e+01 -3.800264e+00
     vertex  1.120000e+02  3.900000e+01 -3.800264e+00
     vertex  1.120000e+02  3.900000e+01 -9.300264e+00
   endloop
 endfacet
 facet normal -8.715574e-02  9.961947e-01  0.000000e+00
   outer loop
     vertex  1.104372e+02  3.886327e+01 -3.800264e+00
     vertex  1.120000e+02  3.900000e+01 -9.300264e+00
     vertex  1.104372e+02  3.886327e+01 -9.300264e+00
   endloop
 endfacet
 facet normal -2.588190e-01  9.659258e-01 -6.103812e-18
   outer loop
     vertex  1.089218e+02  3.845723e+01 -3.800264e+00
     vertex  1.104372e+02  3.886327e+01 -3.800264e+00
     vertex  1.104372e+02  3.886327e+01 -9.300264e+00
   endloop
 endfacet
 facet normal -2.588190e-01  9.659258e-01  0.000000e+00
   outer loop
     vertex  1.089218e+02  3.845723e+01 -3.800264e+00
     vertex  1.104372e+02  3.886327e+01 -9.300264e+00
     vertex  1.089218e+02  3.845723e+01 -9.300264e+00
   endloop
 endfacet
 facet normal -4.226183e-01  9.063078e-01 -4.212635e-18
   outer loop
     vertex  1.075000e+02  3.779423e+01 -3.800264e+00
     vertex  1.089218e+02  3.845723e+01 -3.800264e+00
     vertex  1.089218e+02  3.845723e+01 -9.300264e+00
   endloop
 endfacet
 facet normal -4.226183e-01  9.063078e-01  0.000000e+00
   outer loop
     vertex  1.075000e+02  3.779423e+01 -3.800264e+00
     vertex  1.089218e+02  3.845723e+01 -9.300264e+00
     vertex  1.075000e+02  3.779423e+01 -9.300264e+00
   endloop
 endfacet
 facet normal -5.735764e-01  8.191520e-01 -1.077204e-17
   outer loop
     vertex  1.062149e+02  3.689440e+01 -3.800264e+00
     vertex  1.075000e+02  3.779423e+01 -3.800264e+00
     vertex  1.075000e+02  3.779423e+01 -9.300264e+00
   endloop
 endfacet
 facet normal -5.735764e-01  8.191520e-01  0.000000e+00
   outer loop
     vertex  1.062149e+02  3.689440e+01 -3.800264e+00
     vertex  1.075000e+02  3.779423e+01 -9.300264e+00
     vertex  1.062149e+02  3.689440e+01 -9.300264e+00
   endloop
 endfacet
 facet normal -7.071068e-01  7.071068e-01 -1.367247e-18
   outer loop
     vertex  1.051056e+02  3.578509e+01 -3.800264e+00
     vertex  1.062149e+02  3.689440e+01 -3.800264e+00
     vertex  1.062149e+02  3.689440e+01 -9.300264e+00
   endloop
 endfacet
 facet normal -7.071068e-01  7.071068e-01  0.000000e+00
   outer loop
     vertex  1.051056e+02  3.578509e+01 -3.800264e+00
     vertex  1.062149e+02  3.689440e+01 -9.300264e+00
     vertex  1.051056e+02  3.578509e+01 -9.300264e+00
   endloop
 endfacet
 facet normal -8.191520e-01  5.735764e-01  0.000000e+00
   outer loop
     vertex  1.051056e+02  3.578509e+01 -3.800264e+00
     vertex  1.051056e+02  3.578509e+01 -9.300264e+00
     vertex  1.042058e+02  3.450000e+01 -9.300264e+00
   endloop
 endfacet
 facet normal -8.191520e-01  5.735764e-01  0.000000e+00
   outer loop
     vertex  1.042058e+02  3.450000e+01 -3.800264e+00
     vertex  1.051056e+02  3.578509e+01 -3.800264e+00
     vertex  1.042058e+02  3.450000e+01 -9.300264e+00
   endloop
 endfacet
 facet normal -9.063078e-01  4.226183e-01  1.350010e-18
   outer loop
     vertex  1.035428e+02  3.307818e+01 -3.800264e+00
     vertex  1.042058e+02  3.450000e+01 -3.800264e+00
     vertex  1.042058e+02  3.450000e+01 -9.300264e+00
   endloop
 endfacet
 facet normal -9.063078e-01  4.226183e-01  0.000000e+00
   outer loop
     vertex  1.035428e+02  3.307818e+01 -3.800264e+00
     vertex  1.042058e+02  3.450000e+01 -9.300264e+00
     vertex  1.035428e+02  3.307818e+01 -9.300264e+00
   endloop
 endfacet
 facet normal -9.659258e-01  2.588190e-01 -6.068068e-18
   outer loop
     vertex  1.031367e+02  3.156283e+01 -3.800264e+00
     vertex  1.035428e+02  3.307818e+01 -3.800264e+00
     vertex  1.035428e+02  3.307818e+01 -9.300264e+00
   endloop
 endfacet
 facet normal -9.659258e-01  2.588190e-01  0.000000e+00
   outer loop
     vertex  1.031367e+02  3.156283e+01 -3.800264e+00
     vertex  1.035428e+02  3.307818e+01 -9.300264e+00
     vertex  1.031367e+02  3.156283e+01 -9.300264e+00
   endloop
 endfacet
 facet normal -9.961947e-01  8.715574e-02  0.000000e+00
   outer loop
     vertex  1.031367e+02  3.156283e+01 -3.800264e+00
     vertex  1.031367e+02  3.156283e+01 -9.300264e+00
     vertex  1.030000e+02  3.000000e+01 -9.300264e+00
   endloop
 endfacet
 facet normal -9.961947e-01  8.715574e-02  0.000000e+00
   outer loop
     vertex  1.030000e+02  3.000000e+01 -3.800264e+00
     vertex  1.031367e+02  3.156283e+01 -3.800264e+00
     vertex  1.030000e+02  3.000000e+01 -9.300264e+00
   endloop
 endfacet
 facet normal -9.961947e-01 -8.715574e-02 -9.269934e-19
   outer loop
     vertex  1.031367e+02  2.843717e+01 -3.800264e+00
     vertex  1.030000e+02  3.000000e+01 -3.800264e+00
     vertex  1.030000e+02  3.000000e+01 -9.300264e+00
   endloop
 endfacet
 facet normal -9.961947e-01 -8.715574e-02 -0.000000e+00
   outer loop
     vertex  1.031367e+02  2.843717e+01 -3.800264e+00
     vertex  1.030000e+02  3.000000e+01 -9.300264e+00
     vertex  1.031367e+02  2.843717e+01 -9.300264e+00
   endloop
 endfacet
 facet normal -9.659258e-01 -2.588190e-01  6.156103e-18
   outer loop
     vertex  1.035428e+02  2.692182e+01 -3.800264e+00
     vertex  1.031367e+02  2.843717e+01 -3.800264e+00
     vertex  1.031367e+02  2.843717e+01 -9.300264e+00
   endloop
 endfacet
 facet normal -9.659258e-01 -2.588190e-01 -0.000000e+00
   outer loop
     vertex  1.035428e+02  2.692182e+01 -3.800264e+00
     vertex  1.031367e+02  2.843717e+01 -9.300264e+00
     vertex  1.035428e+02  2.692182e+01 -9.300264e+00
   endloop
 endfacet
 facet normal -9.063078e-01 -4.226183e-01 -0.000000e+00
   outer loop
     vertex  1.042058e+02  2.550000e+01 -3.800264e+00
     vertex  1.035428e+02  2.692182e+01 -9.300264e+00
     vertex  1.042058e+02  2.550000e+01 -9.300264e+00
   endloop
 endfacet
 facet normal -9.063078e-01 -4.226183e-01 -1.442718e-18
   outer loop
     vertex  1.042058e+02  2.550000e+01 -3.800264e+00
     vertex  1.035428e+02  2.692182e+01 -3.800264e+00
     vertex  1.035428e+02  2.692182e+01 -9.300264e+00
   endloop
 endfacet
 facet normal -8.191520e-01 -5.735764e-01 -0.000000e+00
   outer loop
     vertex  1.051056e+02  2.421491e+01 -3.800264e+00
     vertex  1.042058e+02  2.550000e+01 -9.300264e+00
     vertex  1.051056e+02  2.421491e+01 -9.300264e+00
   endloop
 endfacet
 facet normal -8.191520e-01 -5.735764e-01  1.077204e-17
   outer loop
     vertex  1.051056e+02  2.421491e+01 -3.800264e+00
     vertex  1.042058e+02  2.550000e+01 -3.800264e+00
     vertex  1.042058e+02  2.550000e+01 -9.300264e+00
   endloop
 endfacet
 facet normal -7.071068e-01 -7.071068e-01 -0.000000e+00
   outer loop
     vertex  1.062149e+02  2.310560e+01 -3.800264e+00
     vertex  1.051056e+02  2.421491e+01 -9.300264e+00
     vertex  1.062149e+02  2.310560e+01 -9.300264e+00
   endloop
 endfacet
 facet normal -5.735764e-01 -8.191520e-01 -0.000000e+00
   outer loop
     vertex  1.062149e+02  2.310560e+01 -3.800264e+00
     vertex  1.062149e+02  2.310560e+01 -9.300264e+00
     vertex  1.075000e+02  2.220577e+01 -9.300264e+00
   endloop
 endfacet
 facet normal -7.071068e-01 -7.071068e-01 -4.987842e-18
   outer loop
     vertex  1.062149e+02  2.310560e+01 -3.800264e+00
     vertex  1.051056e+02  2.421491e+01 -3.800264e+00
     vertex  1.051056e+02  2.421491e+01 -9.300264e+00
   endloop
 endfacet
 facet normal -4.226183e-01 -9.063078e-01 -0.000000e+00
   outer loop
     vertex  1.075000e+02  2.220577e+01 -3.800264e+00
     vertex  1.075000e+02  2.220577e+01 -9.300264e+00
     vertex  1.089218e+02  2.154277e+01 -9.300264e+00
   endloop
 endfacet
 facet normal -5.735764e-01 -8.191520e-01 -0.000000e+00
   outer loop
     vertex  1.075000e+02  2.220577e+01 -3.800264e+00
     vertex  1.062149e+02  2.310560e+01 -3.800264e+00
     vertex  1.075000e+02  2.220577e+01 -9.300264e+00
   endloop
 endfacet
 facet normal -4.226183e-01 -9.063078e-01 -0.000000e+00
   outer loop
     vertex  1.089218e+02  2.154277e+01 -3.800264e+00
     vertex  1.075000e+02  2.220577e+01 -3.800264e+00
     vertex  1.089218e+02  2.154277e+01 -9.300264e+00
   endloop
 endfacet
 facet normal -2.588190e-01 -9.659258e-01 -0.000000e+00
   outer loop
     vertex  1.104372e+02  2.113673e+01 -3.800264e+00
     vertex  1.089218e+02  2.154277e+01 -9.300264e+00
     vertex  1.104372e+02  2.113673e+01 -9.300264e+00
   endloop
 endfacet
 facet normal -2.588190e-01 -9.659258e-01  5.980032e-18
   outer loop
     vertex  1.104372e+02  2.113673e+01 -3.800264e+00
     vertex  1.089218e+02  2.154277e+01 -3.800264e+00
     vertex  1.089218e+02  2.154277e+01 -9.300264e+00
   endloop
 endfacet
 facet normal -8.715574e-02 -9.961947e-01 -0.000000e+00
   outer loop
     vertex  1.120000e+02  2.100000e+01 -3.800264e+00
     vertex  1.104372e+02  2.113673e+01 -9.300264e+00
     vertex  1.120000e+02  2.100000e+01 -9.300264e+00
   endloop
 endfacet
 facet normal -8.715574e-02 -9.961947e-01 -1.201709e-18
   outer loop
     vertex  1.120000e+02  2.100000e+01 -3.800264e+00
     vertex  1.104372e+02  2.113673e+01 -3.800264e+00
     vertex  1.104372e+02  2.113673e+01 -9.300264e+00
   endloop
 endfacet
 facet normal  8.715574e-02 -9.961947e-01  0.000000e+00
   outer loop
     vertex  1.135628e+02  2.113673e+01 -3.800264e+00
     vertex  1.120000e+02  2.100000e+01 -9.300264e+00
     vertex  1.135628e+02  2.113673e+01 -9.300264e+00
   endloop
 endfacet
 facet normal  8.715574e-02 -9.961947e-01  9.269934e-19
   outer loop
     vertex  1.135628e+02  2.113673e+01 -3.800264e+00
     vertex  1.120000e+02  2.100000e+01 -3.800264e+00
     vertex  1.120000e+02  2.100000e+01 -9.300264e+00
   endloop
 endfacet
 facet normal  2.588190e-01 -9.659258e-01  0.000000e+00
   outer loop
     vertex  1.150782e+02  2.154277e+01 -3.800264e+00
     vertex  1.135628e+02  2.113673e+01 -9.300264e+00
     vertex  1.150782e+02  2.154277e+01 -9.300264e+00
   endloop
 endfacet
 facet normal  2.588190e-01 -9.659258e-01 -6.103812e-18
   outer loop
     vertex  1.150782e+02  2.154277e+01 -3.800264e+00
     vertex  1.135628e+02  2.113673e+01 -3.800264e+00
     vertex  1.135628e+02  2.113673e+01 -9.300264e+00
   endloop
 endfacet
 facet normal  4.226183e-01 -9.063078e-01  0.000000e+00
   outer loop
     vertex  1.165000e+02  2.220577e+01 -3.800264e+00
     vertex  1.150782e+02  2.154277e+01 -9.300264e+00
     vertex  1.165000e+02  2.220577e+01 -9.300264e+00
   endloop
 endfacet
 facet normal  5.735764e-01 -8.191520e-01  0.000000e+00
   outer loop
     vertex  1.165000e+02  2.220577e+01 -3.800264e+00
     vertex  1.165000e+02  2.220577e+01 -9.300264e+00
     vertex  1.177851e+02  2.310560e+01 -9.300264e+00
   endloop
 endfacet
 facet normal  4.226183e-01 -9.063078e-01 -4.166281e-18
   outer loop
     vertex  1.165000e+02  2.220577e+01 -3.800264e+00
     vertex  1.150782e+02  2.154277e+01 -3.800264e+00
     vertex  1.150782e+02  2.154277e+01 -9.300264e+00
   endloop
 endfacet
 facet normal  7.071068e-01 -7.071068e-01  0.000000e+00
   outer loop
     vertex  1.177851e+02  2.310560e+01 -3.800264e+00
     vertex  1.177851e+02  2.310560e+01 -9.300264e+00
     vertex  1.188944e+02  2.421491e+01 -9.300264e+00
   endloop
 endfacet
 facet normal  5.735764e-01 -8.191520e-01  0.000000e+00
   outer loop
     vertex  1.177851e+02  2.310560e+01 -3.800264e+00
     vertex  1.165000e+02  2.220577e+01 -3.800264e+00
     vertex  1.177851e+02  2.310560e+01 -9.300264e+00
   endloop
 endfacet
 facet normal  7.071068e-01 -7.071068e-01  0.000000e+00
   outer loop
     vertex  1.188944e+02  2.421491e+01 -3.800264e+00
     vertex  1.177851e+02  2.310560e+01 -3.800264e+00
     vertex  1.188944e+02  2.421491e+01 -9.300264e+00
   endloop
 endfacet
 facet normal  8.191520e-01 -5.735764e-01  1.106090e-17
   outer loop
     vertex  1.197942e+02  2.550000e+01 -3.800264e+00
     vertex  1.188944e+02  2.421491e+01 -3.800264e+00
     vertex  1.188944e+02  2.421491e+01 -9.300264e+00
   endloop
 endfacet
 facet normal  8.191520e-01 -5.735764e-01  0.000000e+00
   outer loop
     vertex  1.197942e+02  2.550000e+01 -3.800264e+00
     vertex  1.188944e+02  2.421491e+01 -9.300264e+00
     vertex  1.197942e+02  2.550000e+01 -9.300264e+00
   endloop
 endfacet
 facet normal  9.063078e-01 -4.226183e-01  0.000000e+00
   outer loop
     vertex  1.197942e+02  2.550000e+01 -3.800264e+00
     vertex  1.197942e+02  2.550000e+01 -9.300264e+00
     vertex  1.204572e+02  2.692182e+01 -9.300264e+00
   endloop
 endfacet
 facet normal  9.063078e-01 -4.226183e-01  0.000000e+00
   outer loop
     vertex  1.204572e+02  2.692182e+01 -3.800264e+00
     vertex  1.197942e+02  2.550000e+01 -3.800264e+00
     vertex  1.204572e+02  2.692182e+01 -9.300264e+00
   endloop
 endfacet
 facet normal  9.659258e-01 -2.588190e-01 -6.156103e-18
   outer loop
     vertex  1.208633e+02  2.843717e+01 -3.800264e+00
     vertex  1.204572e+02  2.692182e+01 -3.800264e+00
     vertex  1.204572e+02  2.692182e+01 -9.300264e+00
   endloop
 endfacet
 facet normal  9.659258e-01 -2.588190e-01  0.000000e+00
   outer loop
     vertex  1.208633e+02  2.843717e+01 -3.800264e+00
     vertex  1.204572e+02  2.692182e+01 -9.300264e+00
     vertex  1.208633e+02  2.843717e+01 -9.300264e+00
   endloop
 endfacet
 facet normal  9.961947e-01 -8.715574e-02 -7.999324e-20
   outer loop
     vertex  1.210000e+02  3.000000e+01 -3.800264e+00
     vertex  1.208633e+02  2.843717e+01 -3.800264e+00
     vertex  1.208633e+02  2.843717e+01 -9.300264e+00
   endloop
 endfacet
 facet normal  9.961947e-01 -8.715574e-02  0.000000e+00
   outer loop
     vertex  1.210000e+02  3.000000e+01 -3.800264e+00
     vertex  1.208633e+02  2.843717e+01 -9.300264e+00
     vertex  1.210000e+02  3.000000e+01 -9.300264e+00
   endloop
 endfacet
 facet normal  0.000000e+00  0.000000e+00  1.000000e+00
   outer loop
     vertex  1.042058e+02  2.550000e+01 -3.800264e+00
     vertex  1.051056e+02  2.421491e+01 -3.800264e+00
     vertex  1.062149e+02  2.310560e+01 -3.800264e+00
   endloop
 endfacet
 facet normal  0.000000e+00  0.000000e+00  1.000000e+00
   outer loop
     vertex  1.042058e+02  2.550000e+01 -3.800264e+00
     vertex  1.062149e+02  2.310560e+01 -3.800264e+00
     vertex  1.075000e+02  2.220577e+01 -3.800264e+00
   endloop
 endfacet
 facet normal  0.000000e+00  0.000000e+00  1.000000e+00
   outer loop
     vertex  1.035428e+02  2.692182e+01 -3.800264e+00
     vertex  1.075000e+02  2.220577e+01 -3.800264e+00
     vertex  1.089218e+02  2.154277e+01 -3.800264e+00
   endloop
 endfacet
 facet normal  0.000000e+00  0.000000e+00  1.000000e+00
   outer loop
     vertex  1.035428e+02  2.692182e+01 -3.800264e+00
     vertex  1.042058e+02  2.550000e+01 -3.800264e+00
     vertex  1.075000e+02  2.220577e+01 -3.800264e+00
   endloop
 endfacet
 facet normal  0.000000e+00  0.000000e+00  1.000000e+00
   outer loop
     vertex  1.030000e+02  3.000000e+01 -3.800264e+00
     vertex  1.031367e+02  2.843717e+01 -3.800264e+00
     vertex  1.035428e+02  2.692182e+01 -3.800264e+00
   endloop
 endfacet
 facet normal  0.000000e+00  0.000000e+00  1.000000e+00
   outer loop
     vertex  1.030000e+02  3.000000e+01 -3.800264e+00
     vertex  1.035428e+02  2.692182e+01 -3.800264e+00
     vertex  1.089218e+02  2.154277e+01 -3.800264e+00
   endloop
 endfacet
 facet normal  0.000000e+00  0.000000e+00  1.000000e+00
   outer loop
     vertex  1.150782e+02  2.154277e+01 -3.800264e+00
     vertex  1.089218e+02  2.154277e+01 -3.800264e+00
     vertex  1.104372e+02  2.113673e+01 -3.800264e+00
   endloop
 endfacet
 facet normal  0.000000e+00  0.000000e+00  1.000000e+00
   outer loop
     vertex  1.150782e+02  2.154277e+01 -3.800264e+00
     vertex  1.104372e+02  2.113673e+01 -3.800264e+00
     vertex  1.120000e+02  2.100000e+01 -3.800264e+00
   endloop
 endfacet
 facet normal  0.000000e+00  0.000000e+00  1.000000e+00
   outer loop
     vertex  1.150782e+02  2.154277e+01 -3.800264e+00
     vertex  1.120000e+02  2.100000e+01 -3.800264e+00
     vertex  1.135628e+02  2.113673e+01 -3.800264e+00
   endloop
 endfacet
 facet normal  0.000000e+00  0.000000e+00  1.000000e+00
   outer loop
     vertex  1.042058e+02  3.450000e+01 -3.800264e+00
     vertex  1.035428e+02  3.307818e+01 -3.800264e+00
     vertex  1.031367e+02  3.156283e+01 -3.800264e+00
   endloop
 endfacet
 facet normal  0.000000e+00  0.000000e+00  1.000000e+00
   outer loop
     vertex  1.051056e+02  3.578509e+01 -3.800264e+00
     vertex  1.031367e+02  3.156283e+01 -3.800264e+00
     vertex  1.030000e+02  3.000000e+01 -3.800264e+00
   endloop
 endfacet
 facet normal  0.000000e+00  0.000000e+00  1.000000e+00
   outer loop
     vertex  1.051056e+02  3.578509e+01 -3.800264e+00
     vertex  1.042058e+02  3.450000e+01 -3.800264e+00
     vertex  1.031367e+02  3.156283e+01 -3.800264e+00
   endloop
 endfacet
 facet normal  0.000000e+00  0.000000e+00  1.000000e+00
   outer loop
     vertex  1.188944e+02  2.421491e+01 -3.800264e+00
     vertex  1.150782e+02  2.154277e+01 -3.800264e+00
     vertex  1.165000e+02  2.220577e+01 -3.800264e+00
   endloop
 endfacet
 facet normal  0.000000e+00  0.000000e+00  1.000000e+00
   outer loop
     vertex  1.188944e+02  2.421491e+01 -3.800264e+00
     vertex  1.165000e+02  2.220577e+01 -3.800264e+00
     vertex  1.177851e+02  2.310560e+01 -3.800264e+00
   endloop
 endfacet
 facet normal  0.000000e+00  0.000000e+00  1.000000e+00
   outer loop
     vertex  1.075000e+02  3.779423e+01 -3.800264e+00
     vertex  1.062149e+02  3.689440e+01 -3.800264e+00
     vertex  1.051056e+02  3.578509e+01 -3.800264e+00
   endloop
 endfacet
 facet normal  0.000000e+00  0.000000e+00  1.000000e+00
   outer loop
     vertex  1.075000e+02  3.779423e+01 -3.800264e+00
     vertex  1.051056e+02  3.578509e+01 -3.800264e+00
     vertex  1.030000e+02  3.000000e+01 -3.800264e+00
   endloop
 endfacet
 facet normal  0.000000e+00  0.000000e+00  1.000000e+00
   outer loop
     vertex  1.204572e+02  2.692182e+01 -3.800264e+00
     vertex  1.188944e+02  2.421491e+01 -3.800264e+00
     vertex  1.197942e+02  2.550000e+01 -3.800264e+00
   endloop
 endfacet
 facet normal  0.000000e+00  0.000000e+00  1.000000e+00
   outer loop
     vertex  1.208633e+02  2.843717e+01 -3.800264e+00
     vertex  1.089218e+02  2.154277e+01 -3.800264e+00
     vertex  1.150782e+02  2.154277e+01 -3.800264e+00
   endloop
 endfacet
 facet normal  0.000000e+00  0.000000e+00  1.000000e+00
   outer loop
     vertex  1.208633e+02  2.843717e+01 -3.800264e+00
     vertex  1.150782e+02  2.154277e+01 -3.800264e+00
     vertex  1.188944e+02  2.421491e+01 -3.800264e+00
   endloop
 endfacet
 facet normal  0.000000e+00  0.000000e+00  1.000000e+00
   outer loop
     vertex  1.208633e+02  2.843717e+01 -3.800264e+00
     vertex  1.188944e+02  2.421491e+01 -3.800264e+00
     vertex  1.204572e+02  2.692182e+01 -3.800264e+00
   endloop
 endfacet
 facet normal  0.000000e+00  0.000000e+00  1.000000e+00
   outer loop
     vertex  1.104372e+02  3.886327e+01 -3.800264e+00
     vertex  1.089218e+02  3.845723e+01 -3.800264e+00
     vertex  1.075000e+02  3.779423e+01 -3.800264e+00
   endloop
 endfacet
 facet normal  0.000000e+00  0.000000e+00  1.000000e+00
   outer loop
     vertex  1.104372e+02  3.886327e+01 -3.800264e+00
     vertex  1.030000e+02  3.000000e+01 -3.800264e+00
     vertex  1.089218e+02  2.154277e+01 -3.800264e+00
   endloop
 endfacet
 facet normal  0.000000e+00  0.000000e+00  1.000000e+00
   outer loop
     vertex  1.104372e+02  3.886327e+01 -3.800264e+00
     vertex  1.075000e+02  3.779423e+01 -3.800264e+00
     vertex  1.030000e+02  3.000000e+01 -3.800264e+00
   endloop
 endfacet
 facet normal  0.000000e+00  0.000000e+00  1.000000e+00
   outer loop
     vertex  1.104372e+02  3.886327e+01 -3.800264e+00
     vertex  1.089218e+02  2.154277e+01 -3.800264e+00
     vertex  1.208633e+02  2.843717e+01 -3.800264e+00
   endloop
 endfacet
 facet normal  0.000000e+00  0.000000e+00  1.000000e+00
   outer loop
     vertex  1.135628e+02  3.886327e+01 -3.800264e+00
     vertex  1.120000e+02  3.900000e+01 -3.800264e+00
     vertex  1.104372e+02  3.886327e+01 -3.800264e+00
   endloop
 endfacet
 facet normal  0.000000e+00  0.000000e+00  1.000000e+00
   outer loop
     vertex  1.150782e+02  3.845723e+01 -3.800264e+00
     vertex  1.210000e+02  3.000000e+01 -3.800264e+00
     vertex  1.208633e+02  3.156283e+01 -3.800264e+00
   endloop
 endfacet
 facet normal  0.000000e+00  0.000000e+00  1.000000e+00
   outer loop
     vertex  1.150782e+02  3.845723e+01 -3.800264e+00
     vertex  1.208633e+02  2.843717e+01 -3.800264e+00
     vertex  1.210000e+02  3.000000e+01 -3.800264e+00
   endloop
 endfacet
 facet normal  0.000000e+00  0.000000e+00  1.000000e+00
   outer loop
     vertex  1.150782e+02  3.845723e+01 -3.800264e+00
     vertex  1.104372e+02  3.886327e+01 -3.800264e+00
     vertex  1.208633e+02  2.843717e+01 -3.800264e+00
   endloop
 endfacet
 facet normal  0.000000e+00  0.000000e+00  1.000000e+00
   outer loop
     vertex  1.150782e+02  3.845723e+01 -3.800264e+00
     vertex  1.135628e+02  3.886327e+01 -3.800264e+00
     vertex  1.104372e+02  3.886327e+01 -3.800264e+00
   endloop
 endfacet
 facet normal  0.000000e+00  0.000000e+00  1.000000e+00
   outer loop
     vertex  1.197942e+02  3.450000e+01 -3.800264e+00
     vertex  1.150782e+02  3.845723e+01 -3.800264e+00
     vertex  1.208633e+02  3.156283e+01 -3.800264e+00
   endloop
 endfacet
 facet normal  0.000000e+00  0.000000e+00  1.000000e+00
   outer loop
     vertex  1.197942e+02  3.450000e+01 -3.800264e+00
     vertex  1.208633e+02  3.156283e+01 -3.800264e+00
     vertex  1.204572e+02  3.307818e+01 -3.800264e+00
   endloop
 endfacet
 facet normal  0.000000e+00  0.000000e+00  1.000000e+00
   outer loop
     vertex  1.197942e+02  3.450000e+01 -3.800264e+00
     vertex  1.165000e+02  3.779423e+01 -3.800264e+00
     vertex  1.150782e+02  3.845723e+01 -3.800264e+00
   endloop
 endfacet
 facet normal  0.000000e+00  0.000000e+00  1.000000e+00
   outer loop
     vertex  1.188944e+02  3.578509e+01 -3.800264e+00
     vertex  1.165000e+02  3.779423e+01 -3.800264e+00
     vertex  1.197942e+02  3.450000e+01 -3.800264e+00
   endloop
 endfacet
 facet normal  0.000000e+00  0.000000e+00  1.000000e+00
   outer loop
     vertex  1.188944e+02  3.578509e+01 -3.800264e+00
     vertex  1.177851e+02  3.689440e+01 -3.800264e+00
     vertex  1.165000e+02  3.779423e+01 -3.800264e+00
   endloop
 endfacet
 facet normal  0.000000e+00  0.000000e+00 -1.000000e+00
   outer loop
     vertex  1.042058e+02  2.550000e+01 -9.300264e+00
     vertex  1.062149e+02  2.310560e+01 -9.300264e+00
     vertex  1.051056e+02  2.421491e+01 -9.300264e+00
   endloop
 endfacet
 facet normal  0.000000e+00  0.000000e+00 -1.000000e+00
   outer loop
     vertex  1.042058e+02  2.550000e+01 -9.300264e+00
     vertex  1.075000e+02  2.220577e+01 -9.300264e+00
     vertex  1.062149e+02  2.310560e+01 -9.300264e+00
   endloop
 endfacet
 facet normal  0.000000e+00  0.000000e+00 -1.000000e+00
   outer loop
     vertex  1.035428e+02  2.692182e+01 -9.300264e+00
     vertex  1.089218e+02  2.154277e+01 -9.300264e+00
     vertex  1.075000e+02  2.220577e+01 -9.300264e+00
   endloop
 endfacet
 facet normal  0.000000e+00  0.000000e+00 -1.000000e+00
   outer loop
     vertex  1.035428e+02  2.692182e+01 -9.300264e+00
     vertex  1.075000e+02  2.220577e+01 -9.300264e+00
     vertex  1.042058e+02  2.550000e+01 -9.300264e+00
   endloop
 endfacet
 facet normal  0.000000e+00  0.000000e+00 -1.000000e+00
   outer loop
     vertex  1.030000e+02  3.000000e+01 -9.300264e+00
     vertex  1.035428e+02  2.692182e+01 -9.300264e+00
     vertex  1.031367e+02  2.843717e+01 -9.300264e+00
   endloop
 endfacet
 facet normal  0.000000e+00  0.000000e+00 -1.000000e+00
   outer loop
     vertex  1.030000e+02  3.000000e+01 -9.300264e+00
     vertex  1.089218e+02  2.154277e+01 -9.300264e+00
     vertex  1.035428e+02  2.692182e+01 -9.300264e+00
   endloop
 endfacet
 facet normal -0.000000e+00  0.000000e+00 -1.000000e+00
   outer loop
     vertex  1.150782e+02  2.154277e+01 -9.300264e+00
     vertex  1.104372e+02  2.113673e+01 -9.300264e+00
     vertex  1.089218e+02  2.154277e+01 -9.300264e+00
   endloop
 endfacet
 facet normal  0.000000e+00  0.000000e+00 -1.000000e+00
   outer loop
     vertex  1.150782e+02  2.154277e+01 -9.300264e+00
     vertex  1.120000e+02  2.100000e+01 -9.300264e+00
     vertex  1.104372e+02  2.113673e+01 -9.300264e+00
   endloop
 endfacet
 facet normal  0.000000e+00  0.000000e+00 -1.000000e+00
   outer loop
     vertex  1.150782e+02  2.154277e+01 -9.300264e+00
     vertex  1.135628e+02  2.113673e+01 -9.300264e+00
     vertex  1.120000e+02  2.100000e+01 -9.300264e+00
   endloop
 endfacet
 facet normal  0.000000e+00  0.000000e+00 -1.000000e+00
   outer loop
     vertex  1.042058e+02  3.450000e+01 -9.300264e+00
     vertex  1.031367e+02  3.156283e+01 -9.300264e+00
     vertex  1.035428e+02  3.307818e+01 -9.300264e+00
   endloop
 endfacet
 facet normal  0.000000e+00  0.000000e+00 -1.000000e+00
   outer loop
     vertex  1.051056e+02  3.578509e+01 -9.300264e+00
     vertex  1.030000e+02  3.000000e+01 -9.300264e+00
     vertex  1.031367e+02  3.156283e+01 -9.300264e+00
   endloop
 endfacet
 facet normal  0.000000e+00  0.000000e+00 -1.000000e+00
   outer loop
     vertex  1.051056e+02  3.578509e+01 -9.300264e+00
     vertex  1.031367e+02  3.156283e+01 -9.300264e+00
     vertex  1.042058e+02  3.450000e+01 -9.300264e+00
   endloop
 endfacet
 facet normal  0.000000e+00  0.000000e+00 -1.000000e+00
   outer loop
     vertex  1.188944e+02  2.421491e+01 -9.300264e+00
     vertex  1.165000e+02  2.220577e+01 -9.300264e+00
     vertex  1.150782e+02  2.154277e+01 -9.300264e+00
   endloop
 endfacet
 facet normal  0.000000e+00  0.000000e+00 -1.000000e+00
   outer loop
     vertex  1.188944e+02  2.421491e+01 -9.300264e+00
     vertex  1.177851e+02  2.310560e+01 -9.300264e+00
     vertex  1.165000e+02  2.220577e+01 -9.300264e+00
   endloop
 endfacet
 facet normal  0.000000e+00  0.000000e+00 -1.000000e+00
   outer loop
     vertex  1.075000e+02  3.779423e+01 -9.300264e+00
     vertex  1.051056e+02  3.578509e+01 -9.300264e+00
     vertex  1.062149e+02  3.689440e+01 -9.300264e+00
   endloop
 endfacet
 facet normal  0.000000e+00  0.000000e+00 -1.000000e+00
   outer loop
     vertex  1.075000e+02  3.779423e+01 -9.300264e+00
     vertex  1.030000e+02  3.000000e+01 -9.300264e+00
     vertex  1.051056e+02  3.578509e+01 -9.300264e+00
   endloop
 endfacet
 facet normal  0.000000e+00  0.000000e+00 -1.000000e+00
   outer loop
     vertex  1.204572e+02  2.692182e+01 -9.300264e+00
     vertex  1.197942e+02  2.550000e+01 -9.300264e+00
     vertex  1.188944e+02  2.421491e+01 -9.300264e+00
   endloop
 endfacet
 facet normal  0.000000e+00  0.000000e+00 -1.000000e+00
   outer loop
     vertex  1.208633e+02  2.843717e+01 -9.300264e+00
     vertex  1.150782e+02  2.154277e+01 -9.300264e+00
     vertex  1.089218e+02  2.154277e+01 -9.300264e+00
   endloop
 endfacet
 facet normal  0.000000e+00  0.000000e+00 -1.000000e+00
   outer loop
     vertex  1.208633e+02  2.843717e+01 -9.300264e+00
     vertex  1.188944e+02  2.421491e+01 -9.300264e+00
     vertex  1.150782e+02  2.154277e+01 -9.300264e+00
   endloop
 endfacet
 facet normal  0.000000e+00  0.000000e+00 -1.000000e+00
   outer loop
     vertex  1.208633e+02  2.843717e+01 -9.300264e+00
     vertex  1.204572e+02  2.692182e+01 -9.300264e+00
     vertex  1.188944e+02  2.421491e+01 -9.300264e+00
   endloop
 endfacet
 facet normal  0.000000e+00  0.000000e+00 -1.000000e+00
   outer loop
     vertex  1.104372e+02  3.886327e+01 -9.300264e+00
     vertex  1.075000e+02  3.779423e+01 -9.300264e+00
     vertex  1.089218e+02  3.845723e+01 -9.300264e+00
   endloop
 endfacet
 facet normal  0.000000e+00  0.000000e+00 -1.000000e+00
   outer loop
     vertex  1.104372e+02  3.886327e+01 -9.300264e+00
     vertex  1.089218e+02  2.154277e+01 -9.300264e+00
     vertex  1.030000e+02  3.000000e+01 -9.300264e+00
   endloop
 endfacet
 facet normal  0.000000e+00  0.000000e+00 -1.000000e+00
   outer loop
     vertex  1.104372e+02  3.886327e+01 -9.300264e+00
     vertex  1.030000e+02  3.000000e+01 -9.300264e+00
     vertex  1.075000e+02  3.779423e+01 -9.300264e+00
   endloop
 endfacet
 facet normal  0.000000e+00 -0.000000e+00 -1.000000e+00
   outer loop
     vertex  1.104372e+02  3.886327e+01 -9.300264e+00
     vertex  1.208633e+02  2.843717e+01 -9.300264e+00
     vertex  1.089218e+02  2.154277e+01 -9.300264e+00
   endloop
 endfacet
 facet normal  0.000000e+00  0.000000e+00 -1.000000e+00
   outer loop
     vertex  1.135628e+02  3.886327e+01 -9.300264e+00
     vertex  1.104372e+02  3.886327e+01 -9.300264e+00
     vertex  1.120000e+02  3.900000e+01 -9.300264e+00
   endloop
 endfacet
 facet normal  0.000000e+00  0.000000e+00 -1.000000e+00
   outer loop
     vertex  1.150782e+02  3.845723e+01 -9.300264e+00
     vertex  1.208633e+02  3.156283e+01 -9.300264e+00
     vertex  1.210000e+02  3.000000e+01 -9.300264e+00
   endloop
 endfacet
 facet normal  0.000000e+00  0.000000e+00 -1.000000e+00
   outer loop
     vertex  1.150782e+02  3.845723e+01 -9.300264e+00
     vertex  1.210000e+02  3.000000e+01 -9.300264e+00
     vertex  1.208633e+02  2.843717e+01 -9.300264e+00
   endloop
 endfacet
 facet normal -0.000000e+00 -0.000000e+00 -1.000000e+00
   outer loop
     vertex  1.150782e+02  3.845723e+01 -9.300264e+00
     vertex  1.208633e+02  2.843717e+01 -9.300264e+00
     vertex  1.104372e+02  3.886327e+01 -9.300264e+00
   endloop
 endfacet
 facet normal  0.000000e+00  0.000000e+00 -1.000000e+00
   outer loop
     vertex  1.150782e+02  3.845723e+01 -9.300264e+00
     vertex  1.104372e+02  3.886327e+01 -9.300264e+00
     vertex  1.135628e+02  3.886327e+01 -9.300264e+00
   endloop
 endfacet
 facet normal -0.000000e+00 -0.000000e+00 -1.000000e+00
   outer loop
     vertex  1.197942e+02  3.450000e+01 -9.300264e+00
     vertex  1.208633e+02  3.156283e+01 -9.300264e+00
     vertex  1.150782e+02  3.845723e+01 -9.300264e+00
   endloop
 endfacet
 facet normal  0.000000e+00  0.000000e+00 -1.000000e+00
   outer loop
     vertex  1.197942e+02  3.450000e+01 -9.300264e+00
     vertex  1.204572e+02  3.307818e+01 -9.300264e+00
     vertex  1.208633e+02  3.156283e+01 -9.300264e+00
   endloop
 endfacet
 facet normal  0.000000e+00  0.000000e+00 -1.000000e+00
   outer loop
     vertex  1.197942e+02  3.450000e+01 -9.300264e+00
     vertex  1.150782e+02  3.845723e+01 -9.300264e+00
     vertex  1.165000e+02  3.779423e+01 -9.300264e+00
   endloop
 endfacet
 facet normal -0.000000e+00 -0.000000e+00 -1.000000e+00
   outer loop
     vertex  1.188944e+02  3.578509e+01 -9.300264e+00
     vertex  1.197942e+02  3.450000e+01 -9.300264e+00
     vertex  1.165000e+02  3.779423e+01 -9.300264e+00
   endloop
 endfacet
 facet normal  0.000000e+00  0.000000e+00 -1.000000e+00
   outer loop
     vertex  1.188944e+02  3.578509e+01 -9.300264e+00
     vertex  1.165000e+02  3.779423e+01 -9.300264e+00
     vertex  1.177851e+02  3.689440e+01 -9.300264e+00
   endloop
 endfacet
endsolid
