solid 
 facet normal -1.000000e+00  0.000000e+00  0.000000e+00
   outer loop
     vertex  1.277000e+02  1.570000e+01  2.200000e+00
     vertex  1.277000e+02  2.030000e+01  4.000000e-01
     vertex  1.277000e+02  1.570000e+01  4.000000e-01
   endloop
 endfacet
 facet normal -1.000000e+00  0.000000e+00  0.000000e+00
   outer loop
     vertex  1.277000e+02  1.570000e+01  2.200000e+00
     vertex  1.277000e+02  2.030000e+01  2.200000e+00
     vertex  1.277000e+02  2.030000e+01  4.000000e-01
   endloop
 endfacet
 facet normal  1.000000e+00  0.000000e+00  0.000000e+00
   outer loop
     vertex  1.300000e+02  1.570000e+01  2.200000e+00
     vertex  1.300000e+02  1.570000e+01  4.000000e-01
     vertex  1.300000e+02  2.030000e+01  4.000000e-01
   endloop
 endfacet
 facet normal  1.000000e+00 -0.000000e+00  0.000000e+00
   outer loop
     vertex  1.300000e+02  1.570000e+01  2.200000e+00
     vertex  1.300000e+02  2.030000e+01  4.000000e-01
     vertex  1.300000e+02  2.030000e+01  2.200000e+00
   endloop
 endfacet
 facet normal  0.000000e+00 -1.000000e+00 -0.000000e+00
   outer loop
     vertex  1.300000e+02  1.570000e+01  2.200000e+00
     vertex  1.277000e+02  1.570000e+01  4.000000e-01
     vertex  1.300000e+02  1.570000e+01  4.000000e-01
   endloop
 endfacet
 facet normal -0.000000e+00 -1.000000e+00  0.000000e+00
   outer loop
     vertex  1.300000e+02  1.570000e+01  2.200000e+00
     vertex  1.277000e+02  1.570000e+01  2.200000e+00
     vertex  1.277000e+02  1.570000e+01  4.000000e-01
   endloop
 endfacet
 facet normal  0.000000e+00  1.000000e+00  0.000000e+00
   outer loop
     vertex  1.300000e+02  2.030000e+01  2.200000e+00
     vertex  1.300000e+02  2.030000e+01  4.000000e-01
     vertex  1.277000e+02  2.030000e+01  4.000000e-01
   endloop
 endfacet
 facet normal  0.000000e+00  1.000000e+00  0.000000e+00
   outer loop
     vertex  1.300000e+02  2.030000e+01  2.200000e+00
     vertex  1.277000e+02  2.030000e+01  4.000000e-01
     vertex  1.277000e+02  2.030000e+01  2.200000e+00
   endloop
 endfacet
 facet normal -0.000000e+00  0.000000e+00 -1.000000e+00
   outer loop
     vertex  1.300000e+02  2.030000e+01  4.000000e-01
     vertex  1.277000e+02  1.570000e+01  4.000000e-01
     vertex  1.277000e+02  2.030000e+01  4.000000e-01
   endloop
 endfacet
 facet normal  0.000000e+00 -0.000000e+00 -1.000000e+00
   outer loop
     vertex  1.300000e+02  2.030000e+01  4.000000e-01
     vertex  1.300000e+02  1.570000e+01  4.000000e-01
     vertex  1.277000e+02  1.570000e+01  4.000000e-01
   endloop
 endfacet
 facet normal  0.000000e+00  0.000000e+00  1.000000e+00
   outer loop
     vertex  1.300000e+02  2.030000e+01  2.200000e+00
     vertex  1.277000e+02  2.030000e+01  2.200000e+00
     vertex  1.277000e+02  1.570000e+01  2.200000e+00
   endloop
 endfacet
 facet normal  0.000000e+00  0.000000e+00  1.000000e+00
   outer loop
     vertex  1.300000e+02  2.030000e+01  2.200000e+00
     vertex  1.277000e+02  1.570000e+01  2.200000e+00
     vertex  1.300000e+02  1.570000e+01  2.200000e+00
   endloop
 endfacet
endsolid
