<?xml version="1.0" standalone="no"?>
 <!DOCTYPE svg PUBLIC "-//W3C//DTD SVG 1.1//EN" 
 "http://www.w3.org/Graphics/SVG/1.1/DTD/svg11.dtd"> 
<svg
  xmlns:svg="http://www.w3.org/2000/svg"
  xmlns="http://www.w3.org/2000/svg"
  xmlns:xlink="http://www.w3.org/1999/xlink"
  xmlns:inkscape="http://www.inkscape.org/namespaces/inkscape"
  version="1.1"
  width="297.0022mm" height="210.0072mm" viewBox="0.0000 0.0000 297.0022 210.0072">
<title>SVG Image created as power-copper.svg date 2026-07-21T12:23:47 </title>
  <desc>Image generated by PCBNEW </desc>
<g style="fill:#000000; fill-opacity:1.0000;stroke:#000000; stroke-opacity:1.0000;
stroke-linecap:round; stroke-linejoin:round;"
 transform="translate(0 0) scale(1 1)">
</g>
<g style="fill:none; 
stroke:#CE7D2C; stroke-width:1.0000; stroke-opacity:1; 
stroke-linecap:round; stroke-linejoin:round;">
<path d="M103.6800 107.3450
L103.6800 108.4450
" />
<path d="M103.6800 111.7750
L103.6800 112.3750
" />
<path d="M112.3200 107.3450
L112.3200 108.4450
" />
<path d="M112.3200 111.7750
L112.3200 112.3750
" />
</g>
<g style="fill:#CE7D2C; fill-opacity:1.0000; stroke:none;">
<circle cx="148.1000" cy="75.7600" r="0.3000" /> 
<circle cx="148.1000" cy="77.1600" r="0.3000" /> 
<circle cx="148.8000" cy="75.0600" r="0.3000" /> 
<circle cx="148.8000" cy="76.4600" r="0.3000" /> 
<circle cx="148.8000" cy="77.8600" r="0.3000" /> 
<circle cx="149.5000" cy="75.7600" r="0.3000" /> 
<circle cx="149.5000" cy="77.1600" r="0.3000" /> 
<circle cx="150.2000" cy="75.0600" r="0.3000" /> 
<circle cx="150.2000" cy="76.4600" r="0.3000" /> 
<circle cx="150.2000" cy="77.8600" r="0.3000" /> 
<circle cx="150.9000" cy="75.7600" r="0.3000" /> 
<circle cx="150.9000" cy="77.1600" r="0.3000" /> 
<circle cx="142.4100" cy="102.4100" r="0.2500" /> 
<circle cx="142.4100" cy="103.5900" r="0.2500" /> 
<circle cx="143.5900" cy="102.4100" r="0.2500" /> 
<circle cx="143.5900" cy="103.5900" r="0.2500" /> 
<circle cx="127.0250" cy="106.0000" r="0.2500" /> 
<circle cx="128.0000" cy="105.2750" r="0.2500" /> 
<circle cx="128.0000" cy="106.0000" r="0.2500" /> 
<circle cx="128.0000" cy="106.7250" r="0.2500" /> 
<circle cx="128.9750" cy="106.0000" r="0.2500" /> 
<circle cx="63.6350" cy="93.6350" r="0.2500" /> 
<circle cx="63.6350" cy="94.3650" r="0.2500" /> 
<circle cx="64.3650" cy="93.6350" r="0.2500" /> 
<circle cx="64.3650" cy="94.3650" r="0.2500" /> 
<circle cx="124.6425" cy="90.5661" r="0.3000" /> 
<circle cx="125.8273" cy="93.3421" r="0.3000" /> 
<circle cx="133.7120" cy="81.1061" r="0.3000" /> 
<circle cx="125.4064" cy="57.6353" r="0.3000" /> 
<circle cx="150.3650" cy="85.2804" r="0.3000" /> 
<circle cx="122.8198" cy="55.5632" r="0.3000" /> 
<circle cx="147.6007" cy="84.7656" r="0.3000" /> 
<circle cx="143.0880" cy="87.3604" r="0.3000" /> 
<circle cx="107.4372" cy="53.7275" r="0.3000" /> 
<circle cx="128.2469" cy="50.8040" r="0.3000" /> 
<circle cx="152.9050" cy="85.2948" r="0.3000" /> 
<circle cx="122.8978" cy="51.4139" r="0.3000" /> 
<circle cx="151.5256" cy="85.2713" r="0.3000" /> 
<circle cx="131.1292" cy="82.8864" r="0.3000" /> 
<circle cx="108.6699" cy="54.8606" r="0.3000" /> 
<circle cx="125.8773" cy="77.4991" r="0.3000" /> 
<circle cx="109.4030" cy="54.2812" r="0.3000" /> 
<circle cx="152.4390" cy="97.3367" r="0.3000" /> 
<circle cx="157.9820" cy="81.2092" r="0.3000" /> 
<circle cx="148.8082" cy="91.1869" r="0.3000" /> 
<circle cx="155.1459" cy="83.7140" r="0.3000" /> 
<circle cx="150.1580" cy="93.0742" r="0.3000" /> 
<circle cx="144.5091" cy="105.8602" r="0.3000" /> 
<circle cx="146.7338" cy="80.5407" r="0.3000" /> 
<circle cx="137.1028" cy="106.3727" r="0.3000" /> 
<circle cx="63.0711" cy="59.4891" r="0.3000" /> 
<circle cx="136.1149" cy="97.0575" r="0.3000" /> 
<circle cx="157.5220" cy="83.4589" r="0.3000" /> 
<circle cx="149.3750" cy="97.3366" r="0.3000" /> 
<circle cx="150.4880" cy="90.2020" r="0.3000" /> 
<circle cx="146.1998" cy="94.8088" r="0.3000" /> 
<circle cx="152.0993" cy="91.0790" r="0.3000" /> 
<circle cx="153.4770" cy="84.2384" r="0.3000" /> 
<circle cx="141.4936" cy="98.9162" r="0.3000" /> 
<circle cx="137.3004" cy="104.4776" r="0.3000" /> 
<circle cx="114.2163" cy="104.1434" r="0.3000" /> 
<circle cx="98.8412" cy="101.5642" r="0.3000" /> 
<circle cx="108.0258" cy="106.0172" r="0.3000" /> 
<circle cx="107.2177" cy="105.8928" r="0.3000" /> 
<circle cx="109.8394" cy="108.6692" r="0.3000" /> 
<circle cx="56.8739" cy="56.2677" r="0.3000" /> 
<circle cx="157.5441" cy="76.9665" r="0.3000" /> 
<circle cx="139.6092" cy="73.5440" r="0.3000" /> 
<circle cx="144.9942" cy="81.2695" r="0.3000" /> 
<circle cx="140.2146" cy="74.6833" r="0.3000" /> 
<circle cx="141.0364" cy="75.5430" r="0.3000" /> 
<circle cx="144.5813" cy="80.4054" r="0.3000" /> 
<circle cx="161.8105" cy="77.6225" r="0.3000" /> 
<circle cx="152.2155" cy="83.4589" r="0.3000" /> 
<circle cx="140.6636" cy="85.4366" r="0.3000" /> 
<circle cx="129.1389" cy="103.7644" r="0.3000" /> 
<circle cx="138.2348" cy="85.6018" r="0.3000" /> 
<circle cx="116.9388" cy="97.7195" r="0.3000" /> 
<circle cx="105.7752" cy="65.1745" r="0.3000" /> 
<circle cx="126.7500" cy="78.6250" r="0.3000" /> 
<circle cx="117.0845" cy="75.0490" r="0.3000" /> 
<circle cx="128.2125" cy="82.1410" r="0.3000" /> 
<circle cx="126.7500" cy="75.6669" r="0.3000" /> 
<circle cx="134.0072" cy="99.4971" r="0.3000" /> 
<circle cx="131.8464" cy="104.3467" r="0.3000" /> 
<circle cx="125.3189" cy="106.8491" r="0.3000" /> 
<circle cx="137.3480" cy="82.0886" r="0.3000" /> 
<circle cx="106.4566" cy="101.8035" r="0.3000" /> 
<circle cx="141.1821" cy="87.9941" r="0.3000" /> 
<circle cx="99.6161" cy="104.0777" r="0.3000" /> 
<circle cx="128.1509" cy="103.0578" r="0.3000" /> 
<circle cx="105.7726" cy="73.9524" r="0.3000" /> 
<circle cx="99.3812" cy="97.8111" r="0.3000" /> 
<circle cx="143.4689" cy="81.0841" r="0.3000" /> 
<circle cx="145.0016" cy="104.4512" r="0.3000" /> 
<circle cx="142.9255" cy="106.8749" r="0.3000" /> 
<circle cx="124.9457" cy="108.5357" r="0.3000" /> 
<circle cx="105.4842" cy="98.9482" r="0.3000" /> 
<circle cx="136.7768" cy="85.7077" r="0.3000" /> 
<circle cx="153.8442" cy="85.2775" r="0.3000" /> 
<circle cx="134.0501" cy="107.9527" r="0.3000" /> 
<circle cx="128.6476" cy="107.7032" r="0.3000" /> 
<circle cx="157.8035" cy="77.7708" r="0.3000" /> 
<circle cx="128.8738" cy="79.7414" r="0.3000" /> 
<circle cx="157.8035" cy="72.9476" r="0.3000" /> 
<circle cx="98.8952" cy="62.6308" r="0.3000" /> 
<circle cx="149.6500" cy="71.8433" r="0.3000" /> 
<circle cx="138.3367" cy="72.2408" r="0.3000" /> 
<circle cx="158.5450" cy="69.3319" r="0.3000" /> 
<circle cx="146.1766" cy="104.5520" r="0.3000" /> 
<circle cx="141.5168" cy="97.1068" r="0.3000" /> 
<circle cx="123.1383" cy="81.0879" r="0.3000" /> 
<circle cx="141.5957" cy="105.1465" r="0.3000" /> 
<circle cx="99.0618" cy="66.2177" r="0.3000" /> 
<circle cx="117.7500" cy="88.0972" r="0.3000" /> 
<circle cx="98.5351" cy="87.1583" r="0.3000" /> 
<circle cx="92.5431" cy="63.9695" r="0.3000" /> 
<circle cx="99.1398" cy="109.1065" r="0.3000" /> 
<circle cx="128.8568" cy="112.5859" r="0.3000" /> 
<circle cx="95.8659" cy="68.2370" r="0.3000" /> 
<circle cx="100.0000" cy="111.0000" r="0.3000" /> 
<circle cx="93.0000" cy="65.9497" r="0.3000" /> 
<circle cx="116.3021" cy="107.9527" r="0.3000" /> 
<circle cx="130.6743" cy="106.3269" r="0.3000" /> 
<circle cx="115.1243" cy="92.2362" r="0.3000" /> 
<circle cx="116.2983" cy="88.9157" r="0.3000" /> 
<circle cx="117.4463" cy="92.2362" r="0.3000" /> 
<circle cx="119.8556" cy="78.6877" r="0.3000" /> 
<circle cx="125.8250" cy="75.0704" r="0.3000" /> 
<circle cx="132.3832" cy="79.1719" r="0.3000" /> 
<circle cx="135.4769" cy="80.9278" r="0.3000" /> 
<circle cx="134.0339" cy="87.6015" r="0.3000" /> 
<circle cx="82.2946" cy="93.6776" r="0.3000" /> 
<circle cx="129.0789" cy="84.7966" r="0.3000" /> 
<circle cx="66.3554" cy="93.7639" r="0.3000" /> 
<circle cx="63.7461" cy="103.3920" r="0.3000" /> 
<circle cx="124.8000" cy="106.2000" r="0.3000" /> 
<circle cx="122.5000" cy="109.5000" r="0.3000" /> 
<circle cx="134.6475" cy="99.0460" r="0.3000" /> 
<circle cx="144.9086" cy="101.6318" r="0.3000" /> 
<circle cx="133.6816" cy="97.8399" r="0.3000" /> 
<circle cx="143.1166" cy="99.9541" r="0.3000" /> 
</g>
<g style="fill:none; 
stroke:#CE7D2C; stroke-width:0.2000; stroke-opacity:1; 
stroke-linecap:round; stroke-linejoin:round;">
<path d="M125.8273 91.7509
L125.8273 93.3421
" />
<path d="M124.6425 90.5661
L124.6425 90.1756
" />
<path d="M124.6425 90.5661
L125.8273 91.7509
" />
<path d="M124.6425 90.1756
L133.7120 81.1061
" />
<path d="M125.4064 57.6353
L150.3650 82.5939
" />
<path d="M150.3650 82.5939
L150.3650 85.2804
" />
<path d="M122.8198 55.5632
L122.8198 55.8288
" />
<path d="M147.6007 80.6097
L147.6007 84.7656
" />
<path d="M122.8198 55.8288
L147.6007 80.6097
" />
<path d="M109.7750 53.7275
L143.0880 87.0405
" />
<path d="M143.0880 87.0405
L143.0880 87.3604
" />
<path d="M107.4372 53.7275
L109.7750 53.7275
" />
<path d="M152.9050 76.8999
L152.9050 85.2948
" />
<path d="M128.2469 50.8040
L128.2469 54.1690
" />
<path d="M145.7492 71.6713
L147.6764 71.6713
" />
<path d="M128.2469 54.1690
L145.7492 71.6713
" />
<path d="M147.6764 71.6713
L152.9050 76.8999
" />
<path d="M151.5256 85.2713
L151.5256 82.9743
" />
<path d="M151.5256 82.9743
L122.8978 54.3465
" />
<path d="M122.8978 54.3465
L122.8978 51.4139
" />
</g>
<g style="fill:none; 
stroke:#CE7D2C; stroke-width:0.5000; stroke-opacity:1; 
stroke-linecap:round; stroke-linejoin:round;">
<path d="M131.1292 82.8864
L126.8553 82.8864
" />
<path d="M126.8553 82.8864
L108.6699 64.7010
" />
<path d="M108.6699 64.7010
L108.6699 54.8606
" />
</g>
<g style="fill:none; 
stroke:#CE7D2C; stroke-width:0.2000; stroke-opacity:1; 
stroke-linecap:round; stroke-linejoin:round;">
<path d="M125.8773 77.4991
L109.4030 61.0248
" />
<path d="M109.4030 61.0248
L109.4030 54.2812
" />
<path d="M158.0737 81.3009
L157.9820 81.2092
" />
<path d="M158.0737 91.7020
L158.0737 81.3009
" />
<path d="M152.4390 97.3367
L158.0737 91.7020
" />
<path d="M148.8082 91.1017
L148.8082 91.1869
" />
<path d="M155.1459 83.7140
L155.1459 84.7640
" />
<path d="M155.1459 84.7640
L148.8082 91.1017
" />
</g>
<g style="fill:none; 
stroke:#CE7D2C; stroke-width:0.5000; stroke-opacity:1; 
stroke-linecap:round; stroke-linejoin:round;">
<path d="M144.2999 104.1606
L144.2999 104.7418
" />
<path d="M144.5091 102.2246
L144.5091 103.9514
" />
<path d="M144.2999 104.7418
L144.5076 104.9495
" />
<path d="M137.1028 106.3727
L136.1149 105.3848
" />
<path d="M146.7338 80.5407
L144.2069 83.0676
" />
<path d="M144.5091 105.5098
L144.5091 105.8602
" />
<path d="M144.5080 105.6840
L144.5080 105.5080
" />
<path d="M144.5091 103.9514
L144.2999 104.1606
" />
<path d="M144.2069 83.0676
L144.2069 101.9224
" />
<path d="M144.2069 101.9224
L144.5091 102.2246
" />
<path d="M136.1149 105.3848
L136.1149 97.0575
" />
<path d="M144.5076 104.9495
L144.5076 105.5083
" />
</g>
<g style="fill:none; 
stroke:#CE7D2C; stroke-width:0.2000; stroke-opacity:1; 
stroke-linecap:round; stroke-linejoin:round;">
<path d="M157.5220 89.1896
L157.5220 83.4589
" />
<path d="M149.3750 97.3366
L157.5220 89.1896
" />
<path d="M152.0993 91.0790
L149.9296 91.0790
" />
<path d="M149.9296 91.0790
L146.1998 94.8088
" />
</g>
<g style="fill:none; 
stroke:#CE7D2C; stroke-width:0.5000; stroke-opacity:1; 
stroke-linecap:round; stroke-linejoin:round;">
<path d="M141.4936 98.9162
L137.3004 103.1094
" />
<path d="M137.3004 103.1094
L137.3004 104.4776
" />
</g>
<g style="fill:none; 
stroke:#CE7D2C; stroke-width:0.2000; stroke-opacity:1; 
stroke-linecap:round; stroke-linejoin:round;">
<path d="M144.6653 81.2695
L140.2146 76.8188
" />
<path d="M140.2146 76.8188
L140.2146 74.6833
" />
<path d="M144.9942 81.2695
L144.6653 81.2695
" />
<path d="M144.5813 80.4054
L144.5813 79.0879
" />
<path d="M144.5813 79.0879
L141.0364 75.5430
" />
<path d="M136.7046 105.1843
L136.7046 99.8663
" />
<path d="M132.3494 106.9749
L137.3024 106.9749
" />
<path d="M141.7532 86.5262
L140.6636 85.4366
" />
<path d="M141.7532 94.8177
L141.7532 86.5262
" />
<path d="M129.1389 103.7644
L132.3494 106.9749
" />
<path d="M137.3024 106.9749
L137.6551 106.6222
" />
<path d="M136.7046 99.8663
L141.7532 94.8177
" />
<path d="M137.6551 106.1348
L136.7046 105.1843
" />
<path d="M137.6551 106.6222
L137.6551 106.1348
" />
</g>
<g style="fill:none; 
stroke:#CE7D2C; stroke-width:0.5000; stroke-opacity:1; 
stroke-linecap:round; stroke-linejoin:round;">
<path d="M126.7500 80.6785
L128.2125 82.1410
" />
<path d="M107.2101 65.1746
L105.7752 65.1746
" />
<path d="M126.7500 75.6669
L126.7500 78.6250
" />
<path d="M105.7752 65.1746
L105.7752 65.1745
" />
<path d="M117.0845 75.0490
L107.2101 65.1746
" />
<path d="M126.7500 78.6250
L126.7500 80.6785
" />
</g>
<g style="fill:none; 
stroke:#CE7D2C; stroke-width:0.2000; stroke-opacity:1; 
stroke-linecap:round; stroke-linejoin:round;">
<path d="M131.8464 104.3467
L134.0072 102.1859
" />
<path d="M134.0072 102.1859
L134.0072 99.4971
" />
<path d="M137.3480 93.0348
L137.3480 82.0886
" />
<path d="M125.3189 106.8491
L125.4178 106.7502
" />
<path d="M125.4178 104.9650
L137.3480 93.0348
" />
<path d="M125.4178 106.7502
L125.4178 104.9650
" />
<path d="M141.1820 87.9941
L141.1820 91.1364
" />
<path d="M129.2606 103.0578
L128.1509 103.0578
" />
<path d="M141.1820 91.1364
L129.2606 103.0578
" />
<path d="M99.3812 80.3438
L105.7726 73.9524
" />
<path d="M99.3812 97.8111
L99.3812 80.3438
" />
<path d="M143.0183 106.4288
L142.9255 106.5216
" />
<path d="M145.0644 106.1261
L144.7617 106.4288
" />
<path d="M142.9255 106.5216
L142.9255 106.8749
" />
<path d="M144.7617 106.4288
L143.0183 106.4288
" />
<path d="M143.6683 81.2835
L143.4689 81.0841
" />
<path d="M143.0183 106.4288
L143.0183 100.8326
" />
<path d="M145.0016 104.4512
L145.0644 104.5140
" />
<path d="M145.0644 104.5140
L145.0644 106.1261
" />
<path d="M143.0183 100.8326
L143.6683 100.1826
" />
<path d="M143.6683 100.1826
L143.6683 81.2835
" />
<path d="M105.4842 98.9482
L115.7503 98.9482
" />
<path d="M115.7503 98.9482
L123.5363 98.9482
" />
<path d="M116.0377 108.5357
L124.9457 108.5357
" />
<path d="M115.7503 108.2483
L116.0377 108.5357
" />
<path d="M115.7503 98.9482
L115.7503 108.2483
" />
<path d="M123.5363 98.9482
L136.7768 85.7077
" />
<path d="M133.9253 107.7032
L134.0501 107.8280
" />
<path d="M128.6476 107.7032
L133.9253 107.7032
" />
<path d="M145.6248 93.4969
L153.8442 85.2775
" />
<path d="M145.6248 105.4186
L145.6248 93.4969
" />
<path d="M145.8014 105.5952
L145.6248 105.4186
" />
<path d="M134.0501 107.8280
L143.3625 107.8280
" />
<path d="M145.8014 105.8864
L145.8014 105.5952
" />
<path d="M143.3625 107.8280
L144.2283 106.9622
" />
<path d="M134.0501 107.8280
L134.0501 107.9527
" />
<path d="M144.2283 106.9622
L144.7256 106.9622
" />
<path d="M144.7256 106.9622
L145.8014 105.8864
" />
<path d="M158.5449 69.3319
L158.5449 92.1837
" />
<path d="M158.5449 92.1837
L146.1766 104.5520
" />
</g>
<g style="fill:none; 
stroke:#CE7D2C; stroke-width:0.5000; stroke-opacity:1; 
stroke-linecap:round; stroke-linejoin:round;">
<path d="M121.5680 81.0879
L123.1383 81.0879
" />
<path d="M142.2605 97.8505
L141.5168 97.1068
" />
<path d="M117.7500 84.9059
L121.5680 81.0879
" />
<path d="M141.5957 99.8065
L142.2605 99.1417
" />
<path d="M141.5957 105.1465
L141.5957 99.8065
" />
<path d="M142.2605 99.1417
L142.2605 97.8505
" />
<path d="M117.7500 88.0972
L117.7500 84.9059
" />
<path d="M117.7500 84.9059
L99.0618 66.2177
" />
</g>
<g style="fill:none; 
stroke:#CE7D2C; stroke-width:0.2000; stroke-opacity:1; 
stroke-linecap:round; stroke-linejoin:round;">
<path d="M92.5431 63.9695
L98.5350 69.9614
" />
<path d="M98.5350 69.9614
L98.5350 87.1583
" />
<path d="M98.5350 87.1583
L98.5351 87.1583
" />
</g>
<g style="fill:none; 
stroke:#CE7D2C; stroke-width:0.5000; stroke-opacity:1; 
stroke-linecap:round; stroke-linejoin:round;">
<path d="M95.8659 105.8326
L95.8659 68.2370
" />
<path d="M99.1398 109.1065
L95.8659 105.8326
" />
<path d="M93.0000 65.9497
L93.0000 104.0000
" />
<path d="M93.0000 104.0000
L100.0000 111.0000
" />
</g>
<g style="fill:none; 
stroke:#CE7D2C; stroke-width:0.2000; stroke-opacity:1; 
stroke-linecap:round; stroke-linejoin:round;">
<path d="M130.4628 106.5384
L130.6743 106.3269
" />
<path d="M127.6173 107.9527
L129.0316 106.5384
" />
<path d="M116.3021 107.9527
L127.6173 107.9527
" />
<path d="M129.0316 106.5384
L130.4628 106.5384
" />
<path d="M117.4463 90.0637
L116.2983 88.9157
" />
<path d="M117.4463 92.2362
L117.4463 90.0637
" />
<path d="M128.2817 75.0704
L125.8250 75.0704
" />
<path d="M132.3832 79.1719
L128.2817 75.0704
" />
</g>
<g style="fill:none; 
stroke:#CE7D2C; stroke-width:0.5000; stroke-opacity:1; 
stroke-linecap:round; stroke-linejoin:round;">
<path d="M134.0339 82.3708
L135.4769 80.9278
" />
<path d="M134.0339 87.6015
L134.0339 82.3708
" />
<path d="M100.7570 111.2467
L100.3017 111.7020
" />
<path d="M118.6440 95.2315
L108.1106 95.2315
" />
<path d="M108.1106 95.2315
L100.7570 102.5851
" />
<path d="M100.3017 111.7020
L99.6340 111.7020
" />
<path d="M99.6340 111.7020
L82.2946 94.3626
" />
<path d="M129.0789 84.7966
L118.6440 95.2315
" />
<path d="M82.2946 94.3626
L82.2946 93.6776
" />
<path d="M100.7570 102.5851
L100.7570 111.2467
" />
<path d="M63.7461 103.3920
L66.3554 100.7827
" />
<path d="M66.3554 100.7827
L66.3554 93.7639
" />
</g>
<g style="fill:none; 
stroke:#D0D2CD; stroke-width:0.1000; stroke-opacity:1; 
stroke-linecap:round; stroke-linejoin:round;">
<path d="M56.0000 50.0000 A6.0000 6.0000 0.0 0 0 50.0000 56.0000" />
<path d="M50.0000 108.0000
L50.0000 56.0000
" />
<path d="M56.0000 50.0000
L160.0000 50.0000
" />
<path d="M50.0000 108.0000 A6.0000 6.0000 0.0 0 0 56.0000 114.0000" />
<path d="M166.0000 56.0000 A6.0000 6.0000 0.0 0 0 160.0000 50.0000" />
<path d="M160.0000 114.0000
L56.0000 114.0000
" />
<path d="M166.0000 56.0000
L166.0000 108.0000
" />
<path d="M160.0000 114.0000 A6.0000 6.0000 0.0 0 0 166.0000 108.0000" />
</g>
<g style="fill:#FFFFFF; fill-opacity:1.0000; stroke:none;">
<circle cx="124.6425" cy="90.5661" r="0.1500" /> 
<circle cx="125.8273" cy="93.3421" r="0.1500" /> 
<circle cx="133.7120" cy="81.1061" r="0.1500" /> 
<circle cx="125.4064" cy="57.6353" r="0.1500" /> 
<circle cx="150.3650" cy="85.2804" r="0.1500" /> 
<circle cx="122.8198" cy="55.5632" r="0.1500" /> 
<circle cx="147.6007" cy="84.7656" r="0.1500" /> 
<circle cx="143.0880" cy="87.3604" r="0.1500" /> 
<circle cx="107.4372" cy="53.7275" r="0.1500" /> 
<circle cx="128.2469" cy="50.8040" r="0.1500" /> 
<circle cx="152.9050" cy="85.2948" r="0.1500" /> 
<circle cx="122.8978" cy="51.4139" r="0.1500" /> 
<circle cx="151.5256" cy="85.2713" r="0.1500" /> 
<circle cx="131.1292" cy="82.8864" r="0.1500" /> 
<circle cx="108.6699" cy="54.8606" r="0.1500" /> 
<circle cx="125.8773" cy="77.4991" r="0.1500" /> 
<circle cx="109.4030" cy="54.2812" r="0.1500" /> 
<circle cx="152.4390" cy="97.3367" r="0.1500" /> 
<circle cx="157.9820" cy="81.2092" r="0.1500" /> 
<circle cx="148.8082" cy="91.1869" r="0.1500" /> 
<circle cx="155.1459" cy="83.7140" r="0.1500" /> 
<circle cx="150.1580" cy="93.0742" r="0.1500" /> 
<circle cx="144.5091" cy="105.8602" r="0.1500" /> 
<circle cx="146.7338" cy="80.5407" r="0.1500" /> 
<circle cx="137.1028" cy="106.3727" r="0.1500" /> 
<circle cx="63.0711" cy="59.4891" r="0.1500" /> 
<circle cx="136.1149" cy="97.0575" r="0.1500" /> 
<circle cx="157.5220" cy="83.4589" r="0.1500" /> 
<circle cx="149.3750" cy="97.3366" r="0.1500" /> 
<circle cx="150.4880" cy="90.2020" r="0.1500" /> 
<circle cx="146.1998" cy="94.8088" r="0.1500" /> 
<circle cx="152.0993" cy="91.0790" r="0.1500" /> 
<circle cx="153.4770" cy="84.2384" r="0.1500" /> 
<circle cx="141.4936" cy="98.9162" r="0.1500" /> 
<circle cx="137.3004" cy="104.4776" r="0.1500" /> 
<circle cx="114.2163" cy="104.1434" r="0.1500" /> 
<circle cx="98.8412" cy="101.5642" r="0.1500" /> 
<circle cx="108.0258" cy="106.0172" r="0.1500" /> 
<circle cx="107.2177" cy="105.8928" r="0.1500" /> 
<circle cx="109.8394" cy="108.6692" r="0.1500" /> 
<circle cx="56.8739" cy="56.2677" r="0.1500" /> 
<circle cx="157.5441" cy="76.9665" r="0.1500" /> 
<circle cx="139.6092" cy="73.5440" r="0.1500" /> 
<circle cx="144.9942" cy="81.2695" r="0.1500" /> 
<circle cx="140.2146" cy="74.6833" r="0.1500" /> 
<circle cx="141.0364" cy="75.5430" r="0.1500" /> 
<circle cx="144.5813" cy="80.4054" r="0.1500" /> 
<circle cx="161.8105" cy="77.6225" r="0.1500" /> 
<circle cx="152.2155" cy="83.4589" r="0.1500" /> 
<circle cx="140.6636" cy="85.4366" r="0.1500" /> 
<circle cx="129.1389" cy="103.7644" r="0.1500" /> 
<circle cx="138.2348" cy="85.6018" r="0.1500" /> 
<circle cx="116.9388" cy="97.7195" r="0.1500" /> 
<circle cx="105.7752" cy="65.1745" r="0.1500" /> 
<circle cx="126.7500" cy="78.6250" r="0.1500" /> 
<circle cx="117.0845" cy="75.0490" r="0.1500" /> 
<circle cx="128.2125" cy="82.1410" r="0.1500" /> 
<circle cx="126.7500" cy="75.6669" r="0.1500" /> 
<circle cx="134.0072" cy="99.4971" r="0.1500" /> 
<circle cx="131.8464" cy="104.3467" r="0.1500" /> 
<circle cx="125.3189" cy="106.8491" r="0.1500" /> 
<circle cx="137.3480" cy="82.0886" r="0.1500" /> 
<circle cx="106.4566" cy="101.8035" r="0.1500" /> 
<circle cx="141.1821" cy="87.9941" r="0.1500" /> 
<circle cx="99.6161" cy="104.0777" r="0.1500" /> 
<circle cx="128.1509" cy="103.0578" r="0.1500" /> 
<circle cx="105.7726" cy="73.9524" r="0.1500" /> 
<circle cx="99.3812" cy="97.8111" r="0.1500" /> 
<circle cx="143.4689" cy="81.0841" r="0.1500" /> 
<circle cx="145.0016" cy="104.4512" r="0.1500" /> 
<circle cx="142.9255" cy="106.8749" r="0.1500" /> 
<circle cx="124.9457" cy="108.5357" r="0.1500" /> 
<circle cx="105.4842" cy="98.9482" r="0.1500" /> 
<circle cx="136.7768" cy="85.7077" r="0.1500" /> 
<circle cx="153.8442" cy="85.2775" r="0.1500" /> 
<circle cx="134.0501" cy="107.9527" r="0.1500" /> 
<circle cx="128.6476" cy="107.7032" r="0.1500" /> 
<circle cx="157.8035" cy="77.7708" r="0.1500" /> 
<circle cx="128.8738" cy="79.7414" r="0.1500" /> 
<circle cx="157.8035" cy="72.9476" r="0.1500" /> 
<circle cx="98.8952" cy="62.6308" r="0.1500" /> 
<circle cx="149.6500" cy="71.8433" r="0.1500" /> 
<circle cx="138.3367" cy="72.2408" r="0.1500" /> 
<circle cx="158.5450" cy="69.3319" r="0.1500" /> 
<circle cx="146.1766" cy="104.5520" r="0.1500" /> 
<circle cx="141.5168" cy="97.1068" r="0.1500" /> 
<circle cx="123.1383" cy="81.0879" r="0.1500" /> 
<circle cx="141.5957" cy="105.1465" r="0.1500" /> 
<circle cx="99.0618" cy="66.2177" r="0.1500" /> 
<circle cx="117.7500" cy="88.0972" r="0.1500" /> 
<circle cx="98.5351" cy="87.1583" r="0.1500" /> 
<circle cx="92.5431" cy="63.9695" r="0.1500" /> 
<circle cx="99.1398" cy="109.1065" r="0.1500" /> 
<circle cx="128.8568" cy="112.5859" r="0.1500" /> 
<circle cx="95.8659" cy="68.2370" r="0.1500" /> 
<circle cx="100.0000" cy="111.0000" r="0.1500" /> 
<circle cx="93.0000" cy="65.9497" r="0.1500" /> 
<circle cx="116.3021" cy="107.9527" r="0.1500" /> 
<circle cx="130.6743" cy="106.3269" r="0.1500" /> 
<circle cx="115.1243" cy="92.2362" r="0.1500" /> 
<circle cx="116.2983" cy="88.9157" r="0.1500" /> 
<circle cx="117.4463" cy="92.2362" r="0.1500" /> 
<circle cx="119.8556" cy="78.6877" r="0.1500" /> 
<circle cx="125.8250" cy="75.0704" r="0.1500" /> 
<circle cx="132.3832" cy="79.1719" r="0.1500" /> 
<circle cx="135.4769" cy="80.9278" r="0.1500" /> 
<circle cx="134.0339" cy="87.6015" r="0.1500" /> 
<circle cx="82.2946" cy="93.6776" r="0.1500" /> 
<circle cx="129.0789" cy="84.7966" r="0.1500" /> 
<circle cx="66.3554" cy="93.7639" r="0.1500" /> 
<circle cx="63.7461" cy="103.3920" r="0.1500" /> 
<circle cx="124.8000" cy="106.2000" r="0.1500" /> 
<circle cx="122.5000" cy="109.5000" r="0.1500" /> 
<circle cx="134.6475" cy="99.0460" r="0.1500" /> 
<circle cx="144.9086" cy="101.6318" r="0.1500" /> 
<circle cx="133.6816" cy="97.8399" r="0.1500" /> 
<circle cx="143.1166" cy="99.9541" r="0.1500" /> 
</g>
<g style="fill:#000000; fill-opacity:1.0000; stroke:none;">
<circle cx="50.6000" cy="92.0000" r="0.4500" /> 
<circle cx="57.4000" cy="92.0000" r="0.4500" /> 
<circle cx="161.0000" cy="109.0000" r="1.1000" /> 
<circle cx="55.0000" cy="109.0000" r="1.1000" /> 
</g>
<g style="fill:none; 
stroke:#FFFFFF; stroke-width:0.6000; stroke-opacity:1; 
stroke-linecap:round; stroke-linejoin:round;">
<path d="M103.6800 107.3450
L103.6800 108.4450
" />
</g>
<g style="fill:none; 
stroke:#FFFFFF; stroke-width:0.6000; stroke-opacity:1; 
stroke-linecap:round; stroke-linejoin:round;">
<path d="M103.6800 111.7750
L103.6800 112.3750
" />
</g>
<g style="fill:none; 
stroke:#FFFFFF; stroke-width:0.6000; stroke-opacity:1; 
stroke-linecap:round; stroke-linejoin:round;">
<path d="M112.3200 107.3450
L112.3200 108.4450
" />
</g>
<g style="fill:none; 
stroke:#FFFFFF; stroke-width:0.6000; stroke-opacity:1; 
stroke-linecap:round; stroke-linejoin:round;">
<path d="M112.3200 111.7750
L112.3200 112.3750
" />
</g>
<g style="fill:#000000; fill-opacity:1.0000; stroke:none;">
<circle cx="58.0000" cy="58.7000" r="0.4000" /> 
<circle cx="93.5000" cy="57.5000" r="1.1000" /> 
<circle cx="55.0000" cy="55.0000" r="1.1000" /> 
</g>
<g style="fill:#FFFFFF; fill-opacity:1.0000; stroke:none;">
<circle cx="148.1000" cy="75.7600" r="0.1000" /> 
</g>
<g style="fill:#FFFFFF; fill-opacity:1.0000; stroke:none;">
<circle cx="148.1000" cy="77.1600" r="0.1000" /> 
</g>
<g style="fill:#FFFFFF; fill-opacity:1.0000; stroke:none;">
<circle cx="148.8000" cy="75.0600" r="0.1000" /> 
</g>
<g style="fill:#FFFFFF; fill-opacity:1.0000; stroke:none;">
<circle cx="148.8000" cy="76.4600" r="0.1000" /> 
</g>
<g style="fill:#FFFFFF; fill-opacity:1.0000; stroke:none;">
<circle cx="148.8000" cy="77.8600" r="0.1000" /> 
</g>
<g style="fill:#FFFFFF; fill-opacity:1.0000; stroke:none;">
<circle cx="149.5000" cy="75.7600" r="0.1000" /> 
</g>
<g style="fill:#FFFFFF; fill-opacity:1.0000; stroke:none;">
<circle cx="149.5000" cy="77.1600" r="0.1000" /> 
</g>
<g style="fill:#FFFFFF; fill-opacity:1.0000; stroke:none;">
<circle cx="150.2000" cy="75.0600" r="0.1000" /> 
</g>
<g style="fill:#FFFFFF; fill-opacity:1.0000; stroke:none;">
<circle cx="150.2000" cy="76.4600" r="0.1000" /> 
</g>
<g style="fill:#FFFFFF; fill-opacity:1.0000; stroke:none;">
<circle cx="150.2000" cy="77.8600" r="0.1000" /> 
</g>
<g style="fill:#FFFFFF; fill-opacity:1.0000; stroke:none;">
<circle cx="150.9000" cy="75.7600" r="0.1000" /> 
</g>
<g style="fill:#FFFFFF; fill-opacity:1.0000; stroke:none;">
<circle cx="150.9000" cy="77.1600" r="0.1000" /> 
</g>
<g style="fill:#FFFFFF; fill-opacity:1.0000; stroke:none;">
<circle cx="142.4100" cy="102.4100" r="0.1000" /> 
</g>
<g style="fill:#FFFFFF; fill-opacity:1.0000; stroke:none;">
<circle cx="142.4100" cy="103.5900" r="0.1000" /> 
</g>
<g style="fill:#FFFFFF; fill-opacity:1.0000; stroke:none;">
<circle cx="143.5900" cy="102.4100" r="0.1000" /> 
</g>
<g style="fill:#FFFFFF; fill-opacity:1.0000; stroke:none;">
<circle cx="143.5900" cy="103.5900" r="0.1000" /> 
</g>
<g style="fill:#FFFFFF; fill-opacity:1.0000; stroke:none;">
<circle cx="127.0250" cy="106.0000" r="0.1000" /> 
</g>
<g style="fill:#FFFFFF; fill-opacity:1.0000; stroke:none;">
<circle cx="128.0000" cy="105.2750" r="0.1000" /> 
</g>
<g style="fill:#FFFFFF; fill-opacity:1.0000; stroke:none;">
<circle cx="128.0000" cy="106.0000" r="0.1000" /> 
</g>
<g style="fill:#FFFFFF; fill-opacity:1.0000; stroke:none;">
<circle cx="128.0000" cy="106.7250" r="0.1000" /> 
</g>
<g style="fill:#FFFFFF; fill-opacity:1.0000; stroke:none;">
<circle cx="128.9750" cy="106.0000" r="0.1000" /> 
</g>
<g style="fill:#FFFFFF; fill-opacity:1.0000; stroke:none;">
<circle cx="63.6350" cy="93.6350" r="0.1000" /> 
</g>
<g style="fill:#FFFFFF; fill-opacity:1.0000; stroke:none;">
<circle cx="63.6350" cy="94.3650" r="0.1000" /> 
</g>
<g style="fill:#FFFFFF; fill-opacity:1.0000; stroke:none;">
<circle cx="64.3650" cy="93.6350" r="0.1000" /> 
</g>
<g style="fill:#FFFFFF; fill-opacity:1.0000; stroke:none;">
<circle cx="64.3650" cy="94.3650" r="0.1000" /> 
</g> 
</svg>
