solid cadenza_d0
 facet normal 0.0 0.0 -2196.0
  outer loop
   vertex -61.0 19.0 0
   vertex 61.0 37.0 0
   vertex 61.0 19.0 0
  endloop
 endfacet
 facet normal 0.0 0.0 -2196.0
  outer loop
   vertex -61.0 19.0 0
   vertex -61.0 37.0 0
   vertex 61.0 37.0 0
  endloop
 endfacet
 facet normal 0.0 0.0 2196.0
  outer loop
   vertex -61.0 19.0 2
   vertex 61.0 19.0 2
   vertex 61.0 37.0 2
  endloop
 endfacet
 facet normal 0.0 0.0 2196.0
  outer loop
   vertex -61.0 19.0 2
   vertex 61.0 37.0 2
   vertex -61.0 37.0 2
  endloop
 endfacet
 facet normal 0.0 -244.0 0.0
  outer loop
   vertex -61.0 19.0 0
   vertex 61.0 19.0 0
   vertex 61.0 19.0 2
  endloop
 endfacet
 facet normal 0.0 -244.0 0.0
  outer loop
   vertex -61.0 19.0 0
   vertex 61.0 19.0 2
   vertex -61.0 19.0 2
  endloop
 endfacet
 facet normal 36.0 0.0 0.0
  outer loop
   vertex 61.0 19.0 0
   vertex 61.0 37.0 0
   vertex 61.0 37.0 2
  endloop
 endfacet
 facet normal 36.0 0.0 0.0
  outer loop
   vertex 61.0 19.0 0
   vertex 61.0 37.0 2
   vertex 61.0 19.0 2
  endloop
 endfacet
 facet normal 0.0 244.0 0.0
  outer loop
   vertex 61.0 37.0 0
   vertex -61.0 37.0 0
   vertex -61.0 37.0 2
  endloop
 endfacet
 facet normal 0.0 244.0 -0.0
  outer loop
   vertex 61.0 37.0 0
   vertex -61.0 37.0 2
   vertex 61.0 37.0 2
  endloop
 endfacet
 facet normal -36.0 0.0 0.0
  outer loop
   vertex -61.0 37.0 0
   vertex -61.0 19.0 0
   vertex -61.0 19.0 2
  endloop
 endfacet
 facet normal -36.0 0.0 0.0
  outer loop
   vertex -61.0 37.0 0
   vertex -61.0 19.0 2
   vertex -61.0 37.0 2
  endloop
 endfacet
 facet normal 0.0 0.0 -2196.0
  outer loop
   vertex -61.0 -37.0 0
   vertex 61.0 -19.0 0
   vertex 61.0 -37.0 0
  endloop
 endfacet
 facet normal 0.0 0.0 -2196.0
  outer loop
   vertex -61.0 -37.0 0
   vertex -61.0 -19.0 0
   vertex 61.0 -19.0 0
  endloop
 endfacet
 facet normal 0.0 0.0 2196.0
  outer loop
   vertex -61.0 -37.0 2
   vertex 61.0 -37.0 2
   vertex 61.0 -19.0 2
  endloop
 endfacet
 facet normal 0.0 0.0 2196.0
  outer loop
   vertex -61.0 -37.0 2
   vertex 61.0 -19.0 2
   vertex -61.0 -19.0 2
  endloop
 endfacet
 facet normal 0.0 -244.0 0.0
  outer loop
   vertex -61.0 -37.0 0
   vertex 61.0 -37.0 0
   vertex 61.0 -37.0 2
  endloop
 endfacet
 facet normal 0.0 -244.0 0.0
  outer loop
   vertex -61.0 -37.0 0
   vertex 61.0 -37.0 2
   vertex -61.0 -37.0 2
  endloop
 endfacet
 facet normal 36.0 0.0 0.0
  outer loop
   vertex 61.0 -37.0 0
   vertex 61.0 -19.0 0
   vertex 61.0 -19.0 2
  endloop
 endfacet
 facet normal 36.0 0.0 0.0
  outer loop
   vertex 61.0 -37.0 0
   vertex 61.0 -19.0 2
   vertex 61.0 -37.0 2
  endloop
 endfacet
 facet normal 0.0 244.0 0.0
  outer loop
   vertex 61.0 -19.0 0
   vertex -61.0 -19.0 0
   vertex -61.0 -19.0 2
  endloop
 endfacet
 facet normal 0.0 244.0 -0.0
  outer loop
   vertex 61.0 -19.0 0
   vertex -61.0 -19.0 2
   vertex 61.0 -19.0 2
  endloop
 endfacet
 facet normal -36.0 0.0 0.0
  outer loop
   vertex -61.0 -19.0 0
   vertex -61.0 -37.0 0
   vertex -61.0 -37.0 2
  endloop
 endfacet
 facet normal -36.0 0.0 0.0
  outer loop
   vertex -61.0 -19.0 0
   vertex -61.0 -37.0 2
   vertex -61.0 -19.0 2
  endloop
 endfacet
 facet normal 0.0 0.0 -1140.0
  outer loop
   vertex -61.0 -19.0 0
   vertex -31.0 19.0 0
   vertex -31.0 -19.0 0
  endloop
 endfacet
 facet normal 0.0 0.0 -1140.0
  outer loop
   vertex -61.0 -19.0 0
   vertex -61.0 19.0 0
   vertex -31.0 19.0 0
  endloop
 endfacet
 facet normal 0.0 0.0 1140.0
  outer loop
   vertex -61.0 -19.0 2
   vertex -31.0 -19.0 2
   vertex -31.0 19.0 2
  endloop
 endfacet
 facet normal 0.0 0.0 1140.0
  outer loop
   vertex -61.0 -19.0 2
   vertex -31.0 19.0 2
   vertex -61.0 19.0 2
  endloop
 endfacet
 facet normal 0.0 -60.0 0.0
  outer loop
   vertex -61.0 -19.0 0
   vertex -31.0 -19.0 0
   vertex -31.0 -19.0 2
  endloop
 endfacet
 facet normal 0.0 -60.0 0.0
  outer loop
   vertex -61.0 -19.0 0
   vertex -31.0 -19.0 2
   vertex -61.0 -19.0 2
  endloop
 endfacet
 facet normal 76.0 0.0 0.0
  outer loop
   vertex -31.0 -19.0 0
   vertex -31.0 19.0 0
   vertex -31.0 19.0 2
  endloop
 endfacet
 facet normal 76.0 0.0 0.0
  outer loop
   vertex -31.0 -19.0 0
   vertex -31.0 19.0 2
   vertex -31.0 -19.0 2
  endloop
 endfacet
 facet normal 0.0 60.0 0.0
  outer loop
   vertex -31.0 19.0 0
   vertex -61.0 19.0 0
   vertex -61.0 19.0 2
  endloop
 endfacet
 facet normal 0.0 60.0 -0.0
  outer loop
   vertex -31.0 19.0 0
   vertex -61.0 19.0 2
   vertex -31.0 19.0 2
  endloop
 endfacet
 facet normal -76.0 0.0 0.0
  outer loop
   vertex -61.0 19.0 0
   vertex -61.0 -19.0 0
   vertex -61.0 -19.0 2
  endloop
 endfacet
 facet normal -76.0 0.0 0.0
  outer loop
   vertex -61.0 19.0 0
   vertex -61.0 -19.0 2
   vertex -61.0 19.0 2
  endloop
 endfacet
 facet normal 0.0 0.0 -1140.0
  outer loop
   vertex 31.0 -19.0 0
   vertex 61.0 19.0 0
   vertex 61.0 -19.0 0
  endloop
 endfacet
 facet normal 0.0 0.0 -1140.0
  outer loop
   vertex 31.0 -19.0 0
   vertex 31.0 19.0 0
   vertex 61.0 19.0 0
  endloop
 endfacet
 facet normal 0.0 0.0 1140.0
  outer loop
   vertex 31.0 -19.0 2
   vertex 61.0 -19.0 2
   vertex 61.0 19.0 2
  endloop
 endfacet
 facet normal 0.0 0.0 1140.0
  outer loop
   vertex 31.0 -19.0 2
   vertex 61.0 19.0 2
   vertex 31.0 19.0 2
  endloop
 endfacet
 facet normal 0.0 -60.0 0.0
  outer loop
   vertex 31.0 -19.0 0
   vertex 61.0 -19.0 0
   vertex 61.0 -19.0 2
  endloop
 endfacet
 facet normal 0.0 -60.0 0.0
  outer loop
   vertex 31.0 -19.0 0
   vertex 61.0 -19.0 2
   vertex 31.0 -19.0 2
  endloop
 endfacet
 facet normal 76.0 0.0 0.0
  outer loop
   vertex 61.0 -19.0 0
   vertex 61.0 19.0 0
   vertex 61.0 19.0 2
  endloop
 endfacet
 facet normal 76.0 0.0 0.0
  outer loop
   vertex 61.0 -19.0 0
   vertex 61.0 19.0 2
   vertex 61.0 -19.0 2
  endloop
 endfacet
 facet normal 0.0 60.0 0.0
  outer loop
   vertex 61.0 19.0 0
   vertex 31.0 19.0 0
   vertex 31.0 19.0 2
  endloop
 endfacet
 facet normal 0.0 60.0 -0.0
  outer loop
   vertex 61.0 19.0 0
   vertex 31.0 19.0 2
   vertex 61.0 19.0 2
  endloop
 endfacet
 facet normal -76.0 0.0 0.0
  outer loop
   vertex 31.0 19.0 0
   vertex 31.0 -19.0 0
   vertex 31.0 -19.0 2
  endloop
 endfacet
 facet normal -76.0 0.0 0.0
  outer loop
   vertex 31.0 19.0 0
   vertex 31.0 -19.0 2
   vertex 31.0 19.0 2
  endloop
 endfacet
 facet normal 0.0 0.0 -212.0
  outer loop
   vertex -53.0 35.0 0
   vertex 53.0 37.0 0
   vertex 53.0 35.0 0
  endloop
 endfacet
 facet normal 0.0 0.0 -212.0
  outer loop
   vertex -53.0 35.0 0
   vertex -53.0 37.0 0
   vertex 53.0 37.0 0
  endloop
 endfacet
 facet normal 0.0 0.0 212.0
  outer loop
   vertex -53.0 35.0 9.5
   vertex 53.0 35.0 9.5
   vertex 53.0 37.0 9.5
  endloop
 endfacet
 facet normal 0.0 0.0 212.0
  outer loop
   vertex -53.0 35.0 9.5
   vertex 53.0 37.0 9.5
   vertex -53.0 37.0 9.5
  endloop
 endfacet
 facet normal 0.0 -1007.0 0.0
  outer loop
   vertex -53.0 35.0 0
   vertex 53.0 35.0 0
   vertex 53.0 35.0 9.5
  endloop
 endfacet
 facet normal 0.0 -1007.0 0.0
  outer loop
   vertex -53.0 35.0 0
   vertex 53.0 35.0 9.5
   vertex -53.0 35.0 9.5
  endloop
 endfacet
 facet normal 19.0 0.0 0.0
  outer loop
   vertex 53.0 35.0 0
   vertex 53.0 37.0 0
   vertex 53.0 37.0 9.5
  endloop
 endfacet
 facet normal 19.0 0.0 0.0
  outer loop
   vertex 53.0 35.0 0
   vertex 53.0 37.0 9.5
   vertex 53.0 35.0 9.5
  endloop
 endfacet
 facet normal 0.0 1007.0 0.0
  outer loop
   vertex 53.0 37.0 0
   vertex -53.0 37.0 0
   vertex -53.0 37.0 9.5
  endloop
 endfacet
 facet normal 0.0 1007.0 -0.0
  outer loop
   vertex 53.0 37.0 0
   vertex -53.0 37.0 9.5
   vertex 53.0 37.0 9.5
  endloop
 endfacet
 facet normal -19.0 0.0 0.0
  outer loop
   vertex -53.0 37.0 0
   vertex -53.0 35.0 0
   vertex -53.0 35.0 9.5
  endloop
 endfacet
 facet normal -19.0 0.0 0.0
  outer loop
   vertex -53.0 37.0 0
   vertex -53.0 35.0 9.5
   vertex -53.0 37.0 9.5
  endloop
 endfacet
 facet normal 0.0 0.0 -212.0
  outer loop
   vertex -53.0 -37.0 0
   vertex 53.0 -35.0 0
   vertex 53.0 -37.0 0
  endloop
 endfacet
 facet normal 0.0 0.0 -212.0
  outer loop
   vertex -53.0 -37.0 0
   vertex -53.0 -35.0 0
   vertex 53.0 -35.0 0
  endloop
 endfacet
 facet normal 0.0 0.0 212.0
  outer loop
   vertex -53.0 -37.0 9.5
   vertex 53.0 -37.0 9.5
   vertex 53.0 -35.0 9.5
  endloop
 endfacet
 facet normal 0.0 0.0 212.0
  outer loop
   vertex -53.0 -37.0 9.5
   vertex 53.0 -35.0 9.5
   vertex -53.0 -35.0 9.5
  endloop
 endfacet
 facet normal 0.0 -1007.0 0.0
  outer loop
   vertex -53.0 -37.0 0
   vertex 53.0 -37.0 0
   vertex 53.0 -37.0 9.5
  endloop
 endfacet
 facet normal 0.0 -1007.0 0.0
  outer loop
   vertex -53.0 -37.0 0
   vertex 53.0 -37.0 9.5
   vertex -53.0 -37.0 9.5
  endloop
 endfacet
 facet normal 19.0 0.0 0.0
  outer loop
   vertex 53.0 -37.0 0
   vertex 53.0 -35.0 0
   vertex 53.0 -35.0 9.5
  endloop
 endfacet
 facet normal 19.0 0.0 0.0
  outer loop
   vertex 53.0 -37.0 0
   vertex 53.0 -35.0 9.5
   vertex 53.0 -37.0 9.5
  endloop
 endfacet
 facet normal 0.0 1007.0 0.0
  outer loop
   vertex 53.0 -35.0 0
   vertex -53.0 -35.0 0
   vertex -53.0 -35.0 9.5
  endloop
 endfacet
 facet normal 0.0 1007.0 -0.0
  outer loop
   vertex 53.0 -35.0 0
   vertex -53.0 -35.0 9.5
   vertex 53.0 -35.0 9.5
  endloop
 endfacet
 facet normal -19.0 0.0 0.0
  outer loop
   vertex -53.0 -35.0 0
   vertex -53.0 -37.0 0
   vertex -53.0 -37.0 9.5
  endloop
 endfacet
 facet normal -19.0 0.0 0.0
  outer loop
   vertex -53.0 -35.0 0
   vertex -53.0 -37.0 9.5
   vertex -53.0 -35.0 9.5
  endloop
 endfacet
 facet normal 0.0 0.0 -112.0
  outer loop
   vertex -61.0 -28.0 0
   vertex -59.0 28.0 0
   vertex -59.0 -28.0 0
  endloop
 endfacet
 facet normal 0.0 0.0 -112.0
  outer loop
   vertex -61.0 -28.0 0
   vertex -61.0 28.0 0
   vertex -59.0 28.0 0
  endloop
 endfacet
 facet normal 0.0 0.0 112.0
  outer loop
   vertex -61.0 -28.0 9.5
   vertex -59.0 -28.0 9.5
   vertex -59.0 28.0 9.5
  endloop
 endfacet
 facet normal 0.0 0.0 112.0
  outer loop
   vertex -61.0 -28.0 9.5
   vertex -59.0 28.0 9.5
   vertex -61.0 28.0 9.5
  endloop
 endfacet
 facet normal 0.0 -19.0 0.0
  outer loop
   vertex -61.0 -28.0 0
   vertex -59.0 -28.0 0
   vertex -59.0 -28.0 9.5
  endloop
 endfacet
 facet normal 0.0 -19.0 0.0
  outer loop
   vertex -61.0 -28.0 0
   vertex -59.0 -28.0 9.5
   vertex -61.0 -28.0 9.5
  endloop
 endfacet
 facet normal 532.0 0.0 0.0
  outer loop
   vertex -59.0 -28.0 0
   vertex -59.0 28.0 0
   vertex -59.0 28.0 9.5
  endloop
 endfacet
 facet normal 532.0 0.0 0.0
  outer loop
   vertex -59.0 -28.0 0
   vertex -59.0 28.0 9.5
   vertex -59.0 -28.0 9.5
  endloop
 endfacet
 facet normal 0.0 19.0 0.0
  outer loop
   vertex -59.0 28.0 0
   vertex -61.0 28.0 0
   vertex -61.0 28.0 9.5
  endloop
 endfacet
 facet normal 0.0 19.0 -0.0
  outer loop
   vertex -59.0 28.0 0
   vertex -61.0 28.0 9.5
   vertex -59.0 28.0 9.5
  endloop
 endfacet
 facet normal -532.0 0.0 0.0
  outer loop
   vertex -61.0 28.0 0
   vertex -61.0 -28.0 0
   vertex -61.0 -28.0 9.5
  endloop
 endfacet
 facet normal -532.0 0.0 0.0
  outer loop
   vertex -61.0 28.0 0
   vertex -61.0 -28.0 9.5
   vertex -61.0 28.0 9.5
  endloop
 endfacet
 facet normal 0.0 0.0 -112.0
  outer loop
   vertex 59.0 -28.0 0
   vertex 61.0 28.0 0
   vertex 61.0 -28.0 0
  endloop
 endfacet
 facet normal 0.0 0.0 -112.0
  outer loop
   vertex 59.0 -28.0 0
   vertex 59.0 28.0 0
   vertex 61.0 28.0 0
  endloop
 endfacet
 facet normal 0.0 0.0 112.0
  outer loop
   vertex 59.0 -28.0 9.5
   vertex 61.0 -28.0 9.5
   vertex 61.0 28.0 9.5
  endloop
 endfacet
 facet normal 0.0 0.0 112.0
  outer loop
   vertex 59.0 -28.0 9.5
   vertex 61.0 28.0 9.5
   vertex 59.0 28.0 9.5
  endloop
 endfacet
 facet normal 0.0 -19.0 0.0
  outer loop
   vertex 59.0 -28.0 0
   vertex 61.0 -28.0 0
   vertex 61.0 -28.0 9.5
  endloop
 endfacet
 facet normal 0.0 -19.0 0.0
  outer loop
   vertex 59.0 -28.0 0
   vertex 61.0 -28.0 9.5
   vertex 59.0 -28.0 9.5
  endloop
 endfacet
 facet normal 532.0 0.0 0.0
  outer loop
   vertex 61.0 -28.0 0
   vertex 61.0 28.0 0
   vertex 61.0 28.0 9.5
  endloop
 endfacet
 facet normal 532.0 0.0 0.0
  outer loop
   vertex 61.0 -28.0 0
   vertex 61.0 28.0 9.5
   vertex 61.0 -28.0 9.5
  endloop
 endfacet
 facet normal 0.0 19.0 0.0
  outer loop
   vertex 61.0 28.0 0
   vertex 59.0 28.0 0
   vertex 59.0 28.0 9.5
  endloop
 endfacet
 facet normal 0.0 19.0 -0.0
  outer loop
   vertex 61.0 28.0 0
   vertex 59.0 28.0 9.5
   vertex 61.0 28.0 9.5
  endloop
 endfacet
 facet normal -532.0 0.0 0.0
  outer loop
   vertex 59.0 28.0 0
   vertex 59.0 -28.0 0
   vertex 59.0 -28.0 9.5
  endloop
 endfacet
 facet normal -532.0 0.0 0.0
  outer loop
   vertex 59.0 28.0 0
   vertex 59.0 -28.0 9.5
   vertex 59.0 28.0 9.5
  endloop
 endfacet
 facet normal 0.0 0.0 -101.12000000000009
  outer loop
   vertex -31.6 19.0 1.8
   vertex 31.6 20.6 1.8
   vertex 31.6 19.0 1.8
  endloop
 endfacet
 facet normal 0.0 0.0 -101.12000000000009
  outer loop
   vertex -31.6 19.0 1.8
   vertex -31.6 20.6 1.8
   vertex 31.6 20.6 1.8
  endloop
 endfacet
 facet normal 0.0 0.0 101.12000000000009
  outer loop
   vertex -31.6 19.0 3.8
   vertex 31.6 19.0 3.8
   vertex 31.6 20.6 3.8
  endloop
 endfacet
 facet normal 0.0 0.0 101.12000000000009
  outer loop
   vertex -31.6 19.0 3.8
   vertex 31.6 20.6 3.8
   vertex -31.6 20.6 3.8
  endloop
 endfacet
 facet normal 0.0 -126.39999999999999 0.0
  outer loop
   vertex -31.6 19.0 1.8
   vertex 31.6 19.0 1.8
   vertex 31.6 19.0 3.8
  endloop
 endfacet
 facet normal 0.0 -126.39999999999999 0.0
  outer loop
   vertex -31.6 19.0 1.8
   vertex 31.6 19.0 3.8
   vertex -31.6 19.0 3.8
  endloop
 endfacet
 facet normal 3.2000000000000024 0.0 0.0
  outer loop
   vertex 31.6 19.0 1.8
   vertex 31.6 20.6 1.8
   vertex 31.6 20.6 3.8
  endloop
 endfacet
 facet normal 3.2000000000000024 0.0 0.0
  outer loop
   vertex 31.6 19.0 1.8
   vertex 31.6 20.6 3.8
   vertex 31.6 19.0 3.8
  endloop
 endfacet
 facet normal 0.0 126.39999999999999 0.0
  outer loop
   vertex 31.6 20.6 1.8
   vertex -31.6 20.6 1.8
   vertex -31.6 20.6 3.8
  endloop
 endfacet
 facet normal 0.0 126.39999999999999 -0.0
  outer loop
   vertex 31.6 20.6 1.8
   vertex -31.6 20.6 3.8
   vertex 31.6 20.6 3.8
  endloop
 endfacet
 facet normal -3.2000000000000024 0.0 0.0
  outer loop
   vertex -31.6 20.6 1.8
   vertex -31.6 19.0 1.8
   vertex -31.6 19.0 3.8
  endloop
 endfacet
 facet normal -3.2000000000000024 0.0 0.0
  outer loop
   vertex -31.6 20.6 1.8
   vertex -31.6 19.0 3.8
   vertex -31.6 20.6 3.8
  endloop
 endfacet
 facet normal 0.0 0.0 -101.12000000000009
  outer loop
   vertex -31.6 -20.6 1.8
   vertex 31.6 -19.0 1.8
   vertex 31.6 -20.6 1.8
  endloop
 endfacet
 facet normal 0.0 0.0 -101.12000000000009
  outer loop
   vertex -31.6 -20.6 1.8
   vertex -31.6 -19.0 1.8
   vertex 31.6 -19.0 1.8
  endloop
 endfacet
 facet normal 0.0 0.0 101.12000000000009
  outer loop
   vertex -31.6 -20.6 3.8
   vertex 31.6 -20.6 3.8
   vertex 31.6 -19.0 3.8
  endloop
 endfacet
 facet normal 0.0 0.0 101.12000000000009
  outer loop
   vertex -31.6 -20.6 3.8
   vertex 31.6 -19.0 3.8
   vertex -31.6 -19.0 3.8
  endloop
 endfacet
 facet normal 0.0 -126.39999999999999 0.0
  outer loop
   vertex -31.6 -20.6 1.8
   vertex 31.6 -20.6 1.8
   vertex 31.6 -20.6 3.8
  endloop
 endfacet
 facet normal 0.0 -126.39999999999999 0.0
  outer loop
   vertex -31.6 -20.6 1.8
   vertex 31.6 -20.6 3.8
   vertex -31.6 -20.6 3.8
  endloop
 endfacet
 facet normal 3.2000000000000024 0.0 0.0
  outer loop
   vertex 31.6 -20.6 1.8
   vertex 31.6 -19.0 1.8
   vertex 31.6 -19.0 3.8
  endloop
 endfacet
 facet normal 3.2000000000000024 0.0 0.0
  outer loop
   vertex 31.6 -20.6 1.8
   vertex 31.6 -19.0 3.8
   vertex 31.6 -20.6 3.8
  endloop
 endfacet
 facet normal 0.0 126.39999999999999 0.0
  outer loop
   vertex 31.6 -19.0 1.8
   vertex -31.6 -19.0 1.8
   vertex -31.6 -19.0 3.8
  endloop
 endfacet
 facet normal 0.0 126.39999999999999 -0.0
  outer loop
   vertex 31.6 -19.0 1.8
   vertex -31.6 -19.0 3.8
   vertex 31.6 -19.0 3.8
  endloop
 endfacet
 facet normal -3.2000000000000024 0.0 0.0
  outer loop
   vertex -31.6 -19.0 1.8
   vertex -31.6 -20.6 1.8
   vertex -31.6 -20.6 3.8
  endloop
 endfacet
 facet normal -3.2000000000000024 0.0 0.0
  outer loop
   vertex -31.6 -19.0 1.8
   vertex -31.6 -20.6 3.8
   vertex -31.6 -19.0 3.8
  endloop
 endfacet
endsolid cadenza_d0
