solid cadenza_d0
 facet normal 0.0 0.0 -9028.0
  outer loop
   vertex -61.0 -37.0 9.5
   vertex 61.0 37.0 9.5
   vertex 61.0 -37.0 9.5
  endloop
 endfacet
 facet normal 0.0 0.0 -9028.0
  outer loop
   vertex -61.0 -37.0 9.5
   vertex -61.0 37.0 9.5
   vertex 61.0 37.0 9.5
  endloop
 endfacet
 facet normal 0.0 0.0 9028.0
  outer loop
   vertex -61.0 -37.0 11.5
   vertex 61.0 -37.0 11.5
   vertex 61.0 37.0 11.5
  endloop
 endfacet
 facet normal 0.0 0.0 9028.0
  outer loop
   vertex -61.0 -37.0 11.5
   vertex 61.0 37.0 11.5
   vertex -61.0 37.0 11.5
  endloop
 endfacet
 facet normal 0.0 -244.0 0.0
  outer loop
   vertex -61.0 -37.0 9.5
   vertex 61.0 -37.0 9.5
   vertex 61.0 -37.0 11.5
  endloop
 endfacet
 facet normal 0.0 -244.0 0.0
  outer loop
   vertex -61.0 -37.0 9.5
   vertex 61.0 -37.0 11.5
   vertex -61.0 -37.0 11.5
  endloop
 endfacet
 facet normal 148.0 0.0 0.0
  outer loop
   vertex 61.0 -37.0 9.5
   vertex 61.0 37.0 9.5
   vertex 61.0 37.0 11.5
  endloop
 endfacet
 facet normal 148.0 0.0 0.0
  outer loop
   vertex 61.0 -37.0 9.5
   vertex 61.0 37.0 11.5
   vertex 61.0 -37.0 11.5
  endloop
 endfacet
 facet normal 0.0 244.0 0.0
  outer loop
   vertex 61.0 37.0 9.5
   vertex -61.0 37.0 9.5
   vertex -61.0 37.0 11.5
  endloop
 endfacet
 facet normal 0.0 244.0 -0.0
  outer loop
   vertex 61.0 37.0 9.5
   vertex -61.0 37.0 11.5
   vertex 61.0 37.0 11.5
  endloop
 endfacet
 facet normal -148.0 0.0 0.0
  outer loop
   vertex -61.0 37.0 9.5
   vertex -61.0 -37.0 9.5
   vertex -61.0 -37.0 11.5
  endloop
 endfacet
 facet normal -148.0 0.0 0.0
  outer loop
   vertex -61.0 37.0 9.5
   vertex -61.0 -37.0 11.5
   vertex -61.0 37.0 11.5
  endloop
 endfacet
 facet normal 0.0 0.0 -336.0
  outer loop
   vertex -46.0 -34.0 11.5
   vertex -4.0 -26.0 11.5
   vertex -4.0 -34.0 11.5
  endloop
 endfacet
 facet normal 0.0 0.0 -336.0
  outer loop
   vertex -46.0 -34.0 11.5
   vertex -46.0 -26.0 11.5
   vertex -4.0 -26.0 11.5
  endloop
 endfacet
 facet normal 0.0 0.0 336.0
  outer loop
   vertex -46.0 -34.0 17.0
   vertex -4.0 -34.0 17.0
   vertex -4.0 -26.0 17.0
  endloop
 endfacet
 facet normal 0.0 0.0 336.0
  outer loop
   vertex -46.0 -34.0 17.0
   vertex -4.0 -26.0 17.0
   vertex -46.0 -26.0 17.0
  endloop
 endfacet
 facet normal 0.0 -231.0 0.0
  outer loop
   vertex -46.0 -34.0 11.5
   vertex -4.0 -34.0 11.5
   vertex -4.0 -34.0 17.0
  endloop
 endfacet
 facet normal 0.0 -231.0 0.0
  outer loop
   vertex -46.0 -34.0 11.5
   vertex -4.0 -34.0 17.0
   vertex -46.0 -34.0 17.0
  endloop
 endfacet
 facet normal 44.0 0.0 0.0
  outer loop
   vertex -4.0 -34.0 11.5
   vertex -4.0 -26.0 11.5
   vertex -4.0 -26.0 17.0
  endloop
 endfacet
 facet normal 44.0 0.0 0.0
  outer loop
   vertex -4.0 -34.0 11.5
   vertex -4.0 -26.0 17.0
   vertex -4.0 -34.0 17.0
  endloop
 endfacet
 facet normal 0.0 231.0 0.0
  outer loop
   vertex -4.0 -26.0 11.5
   vertex -46.0 -26.0 11.5
   vertex -46.0 -26.0 17.0
  endloop
 endfacet
 facet normal 0.0 231.0 -0.0
  outer loop
   vertex -4.0 -26.0 11.5
   vertex -46.0 -26.0 17.0
   vertex -4.0 -26.0 17.0
  endloop
 endfacet
 facet normal -44.0 0.0 0.0
  outer loop
   vertex -46.0 -26.0 11.5
   vertex -46.0 -34.0 11.5
   vertex -46.0 -34.0 17.0
  endloop
 endfacet
 facet normal -44.0 0.0 0.0
  outer loop
   vertex -46.0 -26.0 11.5
   vertex -46.0 -34.0 17.0
   vertex -46.0 -26.0 17.0
  endloop
 endfacet
 facet normal 0.0 0.0 -476.0
  outer loop
   vertex 8.0 -34.0 11.5
   vertex 42.0 -20.0 11.5
   vertex 42.0 -34.0 11.5
  endloop
 endfacet
 facet normal 0.0 0.0 -476.0
  outer loop
   vertex 8.0 -34.0 11.5
   vertex 8.0 -20.0 11.5
   vertex 42.0 -20.0 11.5
  endloop
 endfacet
 facet normal 0.0 0.0 476.0
  outer loop
   vertex 8.0 -34.0 17.0
   vertex 42.0 -34.0 17.0
   vertex 42.0 -20.0 17.0
  endloop
 endfacet
 facet normal 0.0 0.0 476.0
  outer loop
   vertex 8.0 -34.0 17.0
   vertex 42.0 -20.0 17.0
   vertex 8.0 -20.0 17.0
  endloop
 endfacet
 facet normal 0.0 -187.0 0.0
  outer loop
   vertex 8.0 -34.0 11.5
   vertex 42.0 -34.0 11.5
   vertex 42.0 -34.0 17.0
  endloop
 endfacet
 facet normal 0.0 -187.0 0.0
  outer loop
   vertex 8.0 -34.0 11.5
   vertex 42.0 -34.0 17.0
   vertex 8.0 -34.0 17.0
  endloop
 endfacet
 facet normal 77.0 0.0 0.0
  outer loop
   vertex 42.0 -34.0 11.5
   vertex 42.0 -20.0 11.5
   vertex 42.0 -20.0 17.0
  endloop
 endfacet
 facet normal 77.0 0.0 0.0
  outer loop
   vertex 42.0 -34.0 11.5
   vertex 42.0 -20.0 17.0
   vertex 42.0 -34.0 17.0
  endloop
 endfacet
 facet normal 0.0 187.0 0.0
  outer loop
   vertex 42.0 -20.0 11.5
   vertex 8.0 -20.0 11.5
   vertex 8.0 -20.0 17.0
  endloop
 endfacet
 facet normal 0.0 187.0 -0.0
  outer loop
   vertex 42.0 -20.0 11.5
   vertex 8.0 -20.0 17.0
   vertex 42.0 -20.0 17.0
  endloop
 endfacet
 facet normal -77.0 0.0 0.0
  outer loop
   vertex 8.0 -20.0 11.5
   vertex 8.0 -34.0 11.5
   vertex 8.0 -34.0 17.0
  endloop
 endfacet
 facet normal -77.0 0.0 0.0
  outer loop
   vertex 8.0 -20.0 11.5
   vertex 8.0 -34.0 17.0
   vertex 8.0 -20.0 17.0
  endloop
 endfacet
 facet normal 0.0 0.0 -600.0
  outer loop
   vertex -54.0 -25.0 11.5
   vertex -42.0 25.0 11.5
   vertex -42.0 -25.0 11.5
  endloop
 endfacet
 facet normal 0.0 0.0 -600.0
  outer loop
   vertex -54.0 -25.0 11.5
   vertex -54.0 25.0 11.5
   vertex -42.0 25.0 11.5
  endloop
 endfacet
 facet normal 0.0 0.0 600.0
  outer loop
   vertex -54.0 -25.0 17.0
   vertex -42.0 -25.0 17.0
   vertex -42.0 25.0 17.0
  endloop
 endfacet
 facet normal 0.0 0.0 600.0
  outer loop
   vertex -54.0 -25.0 17.0
   vertex -42.0 25.0 17.0
   vertex -54.0 25.0 17.0
  endloop
 endfacet
 facet normal 0.0 -66.0 0.0
  outer loop
   vertex -54.0 -25.0 11.5
   vertex -42.0 -25.0 11.5
   vertex -42.0 -25.0 17.0
  endloop
 endfacet
 facet normal 0.0 -66.0 0.0
  outer loop
   vertex -54.0 -25.0 11.5
   vertex -42.0 -25.0 17.0
   vertex -54.0 -25.0 17.0
  endloop
 endfacet
 facet normal 275.0 0.0 0.0
  outer loop
   vertex -42.0 -25.0 11.5
   vertex -42.0 25.0 11.5
   vertex -42.0 25.0 17.0
  endloop
 endfacet
 facet normal 275.0 0.0 0.0
  outer loop
   vertex -42.0 -25.0 11.5
   vertex -42.0 25.0 17.0
   vertex -42.0 -25.0 17.0
  endloop
 endfacet
 facet normal 0.0 66.0 0.0
  outer loop
   vertex -42.0 25.0 11.5
   vertex -54.0 25.0 11.5
   vertex -54.0 25.0 17.0
  endloop
 endfacet
 facet normal 0.0 66.0 -0.0
  outer loop
   vertex -42.0 25.0 11.5
   vertex -54.0 25.0 17.0
   vertex -42.0 25.0 17.0
  endloop
 endfacet
 facet normal -275.0 0.0 0.0
  outer loop
   vertex -54.0 25.0 11.5
   vertex -54.0 -25.0 11.5
   vertex -54.0 -25.0 17.0
  endloop
 endfacet
 facet normal -275.0 0.0 0.0
  outer loop
   vertex -54.0 25.0 11.5
   vertex -54.0 -25.0 17.0
   vertex -54.0 25.0 17.0
  endloop
 endfacet
 facet normal 0.0 0.0 -600.0
  outer loop
   vertex 42.0 -25.0 11.5
   vertex 54.0 25.0 11.5
   vertex 54.0 -25.0 11.5
  endloop
 endfacet
 facet normal 0.0 0.0 -600.0
  outer loop
   vertex 42.0 -25.0 11.5
   vertex 42.0 25.0 11.5
   vertex 54.0 25.0 11.5
  endloop
 endfacet
 facet normal 0.0 0.0 600.0
  outer loop
   vertex 42.0 -25.0 17.0
   vertex 54.0 -25.0 17.0
   vertex 54.0 25.0 17.0
  endloop
 endfacet
 facet normal 0.0 0.0 600.0
  outer loop
   vertex 42.0 -25.0 17.0
   vertex 54.0 25.0 17.0
   vertex 42.0 25.0 17.0
  endloop
 endfacet
 facet normal 0.0 -66.0 0.0
  outer loop
   vertex 42.0 -25.0 11.5
   vertex 54.0 -25.0 11.5
   vertex 54.0 -25.0 17.0
  endloop
 endfacet
 facet normal 0.0 -66.0 0.0
  outer loop
   vertex 42.0 -25.0 11.5
   vertex 54.0 -25.0 17.0
   vertex 42.0 -25.0 17.0
  endloop
 endfacet
 facet normal 275.0 0.0 0.0
  outer loop
   vertex 54.0 -25.0 11.5
   vertex 54.0 25.0 11.5
   vertex 54.0 25.0 17.0
  endloop
 endfacet
 facet normal 275.0 0.0 0.0
  outer loop
   vertex 54.0 -25.0 11.5
   vertex 54.0 25.0 17.0
   vertex 54.0 -25.0 17.0
  endloop
 endfacet
 facet normal 0.0 66.0 0.0
  outer loop
   vertex 54.0 25.0 11.5
   vertex 42.0 25.0 11.5
   vertex 42.0 25.0 17.0
  endloop
 endfacet
 facet normal 0.0 66.0 -0.0
  outer loop
   vertex 54.0 25.0 11.5
   vertex 42.0 25.0 17.0
   vertex 54.0 25.0 17.0
  endloop
 endfacet
 facet normal -275.0 0.0 0.0
  outer loop
   vertex 42.0 25.0 11.5
   vertex 42.0 -25.0 11.5
   vertex 42.0 -25.0 17.0
  endloop
 endfacet
 facet normal -275.0 0.0 0.0
  outer loop
   vertex 42.0 25.0 11.5
   vertex 42.0 -25.0 17.0
   vertex 42.0 25.0 17.0
  endloop
 endfacet
endsolid cadenza_d0
