<svg xmlns="http://www.w3.org/2000/svg" viewBox="0 0 716 120" width="2864" height="480">
  <rect width="100%" height="100%" fill="white"/>
  <g fill="black">
  <polygon points="17.608,4.200 50.392,4.200 56.440,10.500 50.392,16.800 17.608,16.800 11.560,10.500"/>
  <polygon points="57.070,11.508 63.370,17.556 63.370,49.542 57.070,55.590 50.770,49.542 50.770,17.556"/>
  <polygon points="57.070,64.410 63.370,70.458 63.370,102.444 57.070,108.492 50.770,102.444 50.770,70.458"/>
  <polygon points="17.608,103.200 50.392,103.200 56.440,109.500 50.392,115.800 17.608,115.800 11.560,109.500"/>
  <polygon points="10.930,64.410 17.230,70.458 17.230,102.444 10.930,108.492 4.630,102.444 4.630,70.458"/>
  <polygon points="10.930,11.508 17.230,17.556 17.230,49.542 10.930,55.590 4.630,49.542 4.630,17.556"/>
  <polygon points="125.070,11.508 131.370,17.556 131.370,49.542 125.070,55.590 118.770,49.542 118.770,17.556"/>
  <polygon points="125.070,64.410 131.370,70.458 131.370,102.444 125.070,108.492 118.770,102.444 118.770,70.458"/>
  <polygon points="153.608,4.200 186.392,4.200 192.440,10.500 186.392,16.800 153.608,16.800 147.560,10.500"/>
  <polygon points="193.070,11.508 199.370,17.556 199.370,49.542 193.070,55.590 186.770,49.542 186.770,17.556"/>
  <polygon points="153.608,103.200 186.392,103.200 192.440,109.500 186.392,115.800 153.608,115.800 147.560,109.500"/>
  <polygon points="146.930,64.410 153.230,70.458 153.230,102.444 146.930,108.492 140.630,102.444 140.630,70.458"/>
  <polygon points="153.608,53.700 186.392,53.700 192.440,60.000 186.392,66.300 153.608,66.300 147.560,60.000"/>
  <polygon points="221.608,4.200 254.392,4.200 260.440,10.500 254.392,16.800 221.608,16.800 215.560,10.500"/>
  <polygon points="261.070,11.508 267.370,17.556 267.370,49.542 261.070,55.590 254.770,49.542 254.770,17.556"/>
  <polygon points="261.070,64.410 267.370,70.458 267.370,102.444 261.070,108.492 254.770,102.444 254.770,70.458"/>
  <polygon points="221.608,103.200 254.392,103.200 260.440,109.500 254.392,115.800 221.608,115.800 215.560,109.500"/>
  <polygon points="221.608,53.700 254.392,53.700 260.440,60.000 254.392,66.300 221.608,66.300 215.560,60.000"/>
  <polygon points="329.070,11.508 335.370,17.556 335.370,49.542 329.070,55.590 322.770,49.542 322.770,17.556"/>
  <polygon points="329.070,64.410 335.370,70.458 335.370,102.444 329.070,108.492 322.770,102.444 322.770,70.458"/>
  <polygon points="282.930,11.508 289.230,17.556 289.230,49.542 282.930,55.590 276.630,49.542 276.630,17.556"/>
  <polygon points="289.608,53.700 322.392,53.700 328.440,60.000 322.392,66.300 289.608,66.300 283.560,60.000"/>
  <polygon points="357.608,4.200 390.392,4.200 396.440,10.500 390.392,16.800 357.608,16.800 351.560,10.500"/>
  <polygon points="397.070,64.410 403.370,70.458 403.370,102.444 397.070,108.492 390.770,102.444 390.770,70.458"/>
  <polygon points="357.608,103.200 390.392,103.200 396.440,109.500 390.392,115.800 357.608,115.800 351.560,109.500"/>
  <polygon points="350.930,11.508 357.230,17.556 357.230,49.542 350.930,55.590 344.630,49.542 344.630,17.556"/>
  <polygon points="357.608,53.700 390.392,53.700 396.440,60.000 390.392,66.300 357.608,66.300 351.560,60.000"/>
  <polygon points="425.608,4.200 458.392,4.200 464.440,10.500 458.392,16.800 425.608,16.800 419.560,10.500"/>
  <polygon points="465.070,64.410 471.370,70.458 471.370,102.444 465.070,108.492 458.770,102.444 458.770,70.458"/>
  <polygon points="425.608,103.200 458.392,103.200 464.440,109.500 458.392,115.800 425.608,115.800 419.560,109.500"/>
  <polygon points="418.930,64.410 425.230,70.458 425.230,102.444 418.930,108.492 412.630,102.444 412.630,70.458"/>
  <polygon points="418.930,11.508 425.230,17.556 425.230,49.542 418.930,55.590 412.630,49.542 412.630,17.556"/>
  <polygon points="425.608,53.700 458.392,53.700 464.440,60.000 458.392,66.300 425.608,66.300 419.560,60.000"/>
  <polygon points="493.608,4.200 526.392,4.200 532.440,10.500 526.392,16.800 493.608,16.800 487.560,10.500"/>
  <polygon points="533.070,11.508 539.370,17.556 539.370,49.542 533.070,55.590 526.770,49.542 526.770,17.556"/>
  <polygon points="533.070,64.410 539.370,70.458 539.370,102.444 533.070,108.492 526.770,102.444 526.770,70.458"/>
  <polygon points="561.608,4.200 594.392,4.200 600.440,10.500 594.392,16.800 561.608,16.800 555.560,10.500"/>
  <polygon points="601.070,11.508 607.370,17.556 607.370,49.542 601.070,55.590 594.770,49.542 594.770,17.556"/>
  <polygon points="601.070,64.410 607.370,70.458 607.370,102.444 601.070,108.492 594.770,102.444 594.770,70.458"/>
  <polygon points="561.608,103.200 594.392,103.200 600.440,109.500 594.392,115.800 561.608,115.800 555.560,109.500"/>
  <polygon points="554.930,64.410 561.230,70.458 561.230,102.444 554.930,108.492 548.630,102.444 548.630,70.458"/>
  <polygon points="554.930,11.508 561.230,17.556 561.230,49.542 554.930,55.590 548.630,49.542 548.630,17.556"/>
  <polygon points="561.608,53.700 594.392,53.700 600.440,60.000 594.392,66.300 561.608,66.300 555.560,60.000"/>
  <polygon points="629.608,4.200 662.392,4.200 668.440,10.500 662.392,16.800 629.608,16.800 623.560,10.500"/>
  <polygon points="669.070,11.508 675.370,17.556 675.370,49.542 669.070,55.590 662.770,49.542 662.770,17.556"/>
  <polygon points="669.070,64.410 675.370,70.458 675.370,102.444 669.070,108.492 662.770,102.444 662.770,70.458"/>
  <polygon points="629.608,103.200 662.392,103.200 668.440,109.500 662.392,115.800 629.608,115.800 623.560,109.500"/>
  <polygon points="622.930,11.508 629.230,17.556 629.230,49.542 622.930,55.590 616.630,49.542 616.630,17.556"/>
  <polygon points="629.608,53.700 662.392,53.700 668.440,60.000 662.392,66.300 629.608,66.300 623.560,60.000"/>
  <polygon points="694.136,36.300 701.864,36.300 704.900,39.336 704.900,47.064 701.864,50.100 694.136,50.100 691.100,47.064 691.100,39.336"/>
  <polygon points="694.136,69.900 701.864,69.900 704.900,72.936 704.900,80.664 701.864,83.700 694.136,83.700 691.100,80.664 691.100,72.936"/>
  </g>
</svg>
