M48
; DRILL file KiCad 10.0.4 date 2026-07-21T09:01:32
; FORMAT={-:-/ absolute / metric / decimal}
; #@! TF.CreationDate,2026-07-21T09:01:32+08:00
; #@! TF.GenerationSoftware,Kicad,Pcbnew,10.0.4
; #@! TF.FileFunction,Plated,1,4,PTH
FMAT,2
METRIC
; #@! TA.AperFunction,Plated,PTH,ViaDrill
T1C0.200
; #@! TA.AperFunction,Plated,PTH,ComponentDrill
T2C0.200
; #@! TA.AperFunction,Plated,PTH,ViaDrill
T3C0.300
; #@! TA.AperFunction,Plated,PTH,ComponentDrill
T4C0.600
%
G90
G05
T1
X102.4Y-102.0
X102.6Y-108.0
X104.0Y-100.4
X104.6Y-102.0
X105.0Y-98.8
X106.0Y-103.6
X106.4Y-109.2
X108.2Y-104.2
X109.6Y-98.2
X110.4Y-102.0
X113.2Y-100.8
X113.6Y-102.0
X114.6Y-103.0
X115.6Y-106.0
X117.0Y-106.0
X123.8Y-103.0
X123.8Y-103.8
X123.8Y-104.6
X135.0Y-58.8
X136.6Y-62.0
X138.0Y-64.2
X138.0Y-66.2
X139.4Y-62.6
X139.6Y-66.2
X139.6Y-67.0
X140.2Y-64.84
X140.8Y-54.277
X140.8Y-65.523
X141.0Y-68.6
X141.0Y-70.4
X141.0Y-72.4
X141.0Y-73.6
X146.6Y-73.6
X151.0Y-72.4
X151.4Y-71.0
X151.8Y-70.0
X152.4Y-68.0
X157.8Y-71.2
X158.4Y-68.0
T2
X63.635Y-93.635
X63.635Y-94.365
X64.365Y-93.635
X64.365Y-94.365
X120.025Y-104.0
X121.0Y-103.275
X121.0Y-104.0
X121.0Y-104.725
X121.975Y-104.0
X142.41Y-102.41
X142.41Y-103.59
X143.59Y-102.41
X143.59Y-103.59
X148.1Y-75.76
X148.1Y-77.16
X148.8Y-75.06
X148.8Y-76.46
X148.8Y-77.86
X149.5Y-75.76
X149.5Y-77.16
X150.2Y-75.06
X150.2Y-76.46
X150.2Y-77.86
X150.9Y-75.76
X150.9Y-77.16
T3
X55.722Y-57.475
X56.35Y-51.35
X59.85Y-58.85
X61.012Y-57.997
X66.814Y-94.257
X70.003Y-93.542
X73.645Y-91.507
X74.147Y-64.84
X75.226Y-92.213
X76.121Y-91.871
X78.438Y-101.485
X87.956Y-97.102
X99.418Y-105.914
X106.483Y-105.45
X107.218Y-105.893
X108.026Y-106.017
X108.5Y-102.5
X108.75Y-53.773
X110.358Y-54.243
X112.746Y-84.062
X113.5Y-98.5
X113.526Y-104.834
X113.77Y-55.194
X116.659Y-102.9
X116.775Y-93.176
X116.899Y-90.28
X118.35Y-103.8
X119.95Y-88.166
X120.775Y-93.6
X123.525Y-88.166
X123.681Y-94.94
X124.121Y-77.324
X125.43Y-81.45
X125.5Y-104.5
X128.05Y-100.655
X128.5Y-104.5
X128.736Y-75.292
X129.723Y-85.638
X129.775Y-78.8
X130.266Y-103.205
X131.7Y-95.444
X131.873Y-84.915
X132.043Y-51.134
X132.449Y-99.146
X133.347Y-100.169
X134.712Y-55.798
X134.74Y-81.0
X135.053Y-96.249
X135.603Y-94.683
X136.097Y-100.571
X137.378Y-101.485
X138.181Y-102.125
X138.628Y-56.424
X139.044Y-81.431
X139.321Y-100.571
X139.397Y-51.937
X140.446Y-82.83
X140.511Y-97.854
X140.982Y-79.79
X142.007Y-99.107
X142.286Y-100.614
X143.043Y-98.766
X143.513Y-84.847
X144.284Y-91.285
X144.51Y-97.334
X144.772Y-78.92
X145.5Y-71.0
X148.396Y-79.646
X148.579Y-81.53
X148.628Y-80.729
X150.5Y-71.5
X151.575Y-95.159
X152.931Y-83.46
X154.04Y-73.072
X154.215Y-95.167
X155.715Y-92.257
X157.318Y-84.594
X157.326Y-82.503
X158.126Y-84.919
X158.5Y-78.5
T4
X103.68Y-107.345G85X103.68Y-108.445
G05
X103.68Y-111.775G85X103.68Y-112.375
G05
X112.32Y-107.345G85X112.32Y-108.445
G05
X112.32Y-111.775G85X112.32Y-112.375
G05
M30
