%TF.GenerationSoftware,KiCad,Pcbnew,10.0.4*%
%TF.CreationDate,2026-07-21T09:01:32+08:00*%
%TF.ProjectId,cadenza-d1-production-v40-candidate,63616465-6e7a-4612-9d64-312d70726f64,rev?*%
%TF.SameCoordinates,Original*%
%TF.FileFunction,Copper,L2,Inr*%
%TF.FilePolarity,Positive*%
%FSLAX46Y46*%
G04 Gerber Fmt 4.6, Leading zero omitted, Abs format (unit mm)*
G04 Created by KiCad (PCBNEW 10.0.4) date 2026-07-21 09:01:32*
%MOMM*%
%LPD*%
G01*
G04 APERTURE LIST*
%TA.AperFunction,ComponentPad*%
%ADD10O,1.000000X2.100000*%
%TD*%
%TA.AperFunction,ComponentPad*%
%ADD11O,1.000000X1.600000*%
%TD*%
%TA.AperFunction,HeatsinkPad*%
%ADD12C,0.600000*%
%TD*%
%TA.AperFunction,HeatsinkPad*%
%ADD13C,0.500000*%
%TD*%
%TA.AperFunction,ViaPad*%
%ADD14C,0.600000*%
%TD*%
%TA.AperFunction,ViaPad*%
%ADD15C,0.500000*%
%TD*%
G04 APERTURE END LIST*
D10*
%TO.N,N/C*%
%TO.C,J1*%
X103680000Y-107895000D03*
D11*
X103680000Y-112075000D03*
D10*
X112320000Y-107895000D03*
D11*
X112320000Y-112075000D03*
%TD*%
D12*
%TO.N,/GND*%
%TO.C,U1*%
X148100000Y-75760000D03*
X148100000Y-77160000D03*
X148800000Y-75060000D03*
X148800000Y-76460000D03*
X148800000Y-77860000D03*
X149500000Y-75760000D03*
X149500000Y-77160000D03*
X150200000Y-75060000D03*
X150200000Y-76460000D03*
X150200000Y-77860000D03*
X150900000Y-75760000D03*
X150900000Y-77160000D03*
%TD*%
D13*
%TO.N,/GND*%
%TO.C,U2*%
X142410000Y-102410000D03*
X142410000Y-103590000D03*
X143590000Y-102410000D03*
X143590000Y-103590000D03*
%TD*%
%TO.N,/GND*%
%TO.C,U7*%
X120025000Y-104000000D03*
X121000000Y-103275000D03*
X121000000Y-104000000D03*
X121000000Y-104725000D03*
X121975000Y-104000000D03*
%TD*%
%TO.N,/GND*%
%TO.C,U5*%
X63635000Y-93635000D03*
X63635000Y-94365000D03*
X64365000Y-93635000D03*
X64365000Y-94365000D03*
%TD*%
D14*
%TO.N,/RUN_EN*%
X135603500Y-94682700D03*
X123681300Y-94940400D03*
%TO.N,/GND*%
X145500000Y-71000000D03*
X59850000Y-58850000D03*
X108500000Y-102500000D03*
X125430277Y-81450500D03*
X113769526Y-55193500D03*
X128735678Y-75291600D03*
X120775000Y-93600000D03*
X125500000Y-104500000D03*
X140511000Y-97854000D03*
X123525321Y-88166000D03*
X150500000Y-71500000D03*
X129775000Y-78800000D03*
X124120900Y-77324163D03*
X128500000Y-104500000D03*
X139320995Y-100570700D03*
X138180678Y-102125499D03*
X133346940Y-100169000D03*
X56350500Y-51350500D03*
X136096940Y-100570700D03*
X158500000Y-78500000D03*
X134740000Y-81000000D03*
X135053352Y-96249100D03*
X113500000Y-98500000D03*
X119950400Y-88166000D03*
X116659306Y-102900500D03*
X116898800Y-90280127D03*
X118350000Y-103800000D03*
X116775290Y-93176247D03*
D15*
%TO.N,/LCD_SCLK*%
X151800000Y-70000000D03*
D14*
X138627600Y-56424100D03*
D15*
X139600000Y-66200000D03*
%TO.N,/LCD_SI*%
X139600000Y-67000000D03*
X151400000Y-71000000D03*
D14*
X132043000Y-51134300D03*
D15*
%TO.N,/LCD_SCS*%
X151000000Y-72400000D03*
D14*
X134711900Y-55798500D03*
D15*
X136600000Y-62000000D03*
X141000000Y-70400000D03*
X135000000Y-58800000D03*
%TO.N,/LCD_EXTCOMIN*%
X140800000Y-54276900D03*
%TO.N,/LCD_DISP*%
X138000000Y-66200000D03*
X141000000Y-72400000D03*
D14*
X139396500Y-51936700D03*
D15*
X146600000Y-73600000D03*
X141000000Y-73600000D03*
X138000000Y-64200000D03*
X139400000Y-62600000D03*
D14*
%TO.N,/+5V_LCD*%
X108750000Y-53772800D03*
X112745700Y-84062200D03*
X131872900Y-84914600D03*
%TO.N,/LCD_EXTMODE*%
X110358400Y-54243000D03*
%TO.N,/SD_CS*%
X154215400Y-95167200D03*
%TO.N,/SD_CMD*%
X151575000Y-95158700D03*
%TO.N,/+3V3_MAIN*%
X140445700Y-82830400D03*
X144510200Y-97334500D03*
X61012300Y-57996600D03*
X87955900Y-97101600D03*
X148396000Y-79646400D03*
X131700300Y-95443900D03*
%TO.N,/SD_CLK*%
X155715400Y-92256600D03*
%TO.N,/SD_DAT0*%
X158126300Y-84918800D03*
%TO.N,/B_SW*%
X152931000Y-83460500D03*
%TO.N,/VBUS*%
X143043500Y-98765600D03*
X113525800Y-104834000D03*
X128050400Y-100654900D03*
%TO.N,/CC1*%
X99418000Y-105914100D03*
%TO.N,/USB_D+_CONN*%
X108025800Y-106017200D03*
%TO.N,/USB_D-_CONN*%
X107217700Y-105892800D03*
%TO.N,/CC2*%
X106483000Y-105449600D03*
%TO.N,/PDM_DATA_RAW*%
X55722000Y-57475300D03*
D15*
%TO.N,/PDM_CLK*%
X140800000Y-65523200D03*
X158400000Y-68000000D03*
X152400000Y-68000000D03*
D14*
%TO.N,/ENC_A*%
X148628400Y-80728600D03*
%TO.N,/ENC_B*%
X148579300Y-81530500D03*
%TO.N,/A_SW*%
X144772200Y-78919700D03*
%TO.N,/MENU_SW*%
X154039900Y-73071900D03*
%TO.N,/ITERM_SET*%
X142286200Y-100613800D03*
X130266000Y-103205200D03*
D15*
%TO.N,/I2C_SCL*%
X104600000Y-102000000D03*
X106400000Y-109200000D03*
X115600000Y-106000000D03*
X102600000Y-108000000D03*
D14*
%TO.N,/I2S_DIN*%
X143513500Y-84846900D03*
X73645000Y-91506700D03*
%TO.N,/CHG_N*%
X140981900Y-79790300D03*
X139044400Y-81431000D03*
D15*
%TO.N,/I2C_SDA*%
X104000000Y-100400000D03*
X102400000Y-102000000D03*
X117000000Y-106000000D03*
X105000000Y-98800000D03*
D14*
%TO.N,/I2S_BCLK*%
X144284000Y-91285500D03*
X76120700Y-91871000D03*
%TO.N,/I2S_LRCLK*%
X66813600Y-94256500D03*
X157318000Y-84593900D03*
%TO.N,/AMP_EN*%
X157325700Y-82503100D03*
X75225800Y-92213500D03*
D15*
%TO.N,/PDM_DATA*%
X141000000Y-68600000D03*
D14*
X74146700Y-64840400D03*
D15*
X140200000Y-64840400D03*
X157800000Y-71200000D03*
%TO.N,/GAUGE_SRP*%
X123800000Y-104600000D03*
X108200000Y-104200000D03*
%TO.N,/GAUGE_SRN*%
X109600000Y-98200000D03*
X113600000Y-102000000D03*
X123800000Y-103000000D03*
X113200000Y-100800000D03*
D14*
%TO.N,/VBAT*%
X137378300Y-101485200D03*
X78437600Y-101485200D03*
D15*
%TO.N,/GAUGE_BIN*%
X123800000Y-103800000D03*
X106000000Y-103600000D03*
D14*
%TO.N,/+5V_AUDIO*%
X129723300Y-85638300D03*
X70002700Y-93541900D03*
D15*
%TO.N,/VBAT_SENSE*%
X114600000Y-103000000D03*
X110400000Y-102000000D03*
D14*
%TO.N,/ILIM_SET*%
X142006900Y-99106900D03*
X132449100Y-99145800D03*
%TD*%
%TA.AperFunction,Conductor*%
%TO.N,/GND*%
G36*
X131435539Y-51019685D02*
G01*
X131481294Y-51072489D01*
X131492500Y-51124000D01*
X131492500Y-51206775D01*
X131530016Y-51346785D01*
X131530017Y-51346788D01*
X131602488Y-51472311D01*
X131602490Y-51472313D01*
X131602491Y-51472315D01*
X131704985Y-51574809D01*
X131704986Y-51574810D01*
X131704988Y-51574811D01*
X131830511Y-51647282D01*
X131830512Y-51647282D01*
X131830515Y-51647284D01*
X131970525Y-51684800D01*
X131970528Y-51684800D01*
X132115472Y-51684800D01*
X132115475Y-51684800D01*
X132255485Y-51647284D01*
X132381015Y-51574809D01*
X132483509Y-51472315D01*
X132555984Y-51346785D01*
X132593500Y-51206775D01*
X132593500Y-51124000D01*
X132613185Y-51056961D01*
X132665989Y-51011206D01*
X132717500Y-51000000D01*
X141626000Y-51000000D01*
X141693039Y-51019685D01*
X141738794Y-51072489D01*
X141750000Y-51124000D01*
X141750000Y-67250000D01*
X164876000Y-67250000D01*
X164943039Y-67269685D01*
X164988794Y-67322489D01*
X165000000Y-67374000D01*
X165000000Y-107948638D01*
X164980315Y-108015677D01*
X164963681Y-108036319D01*
X160036319Y-112963681D01*
X159974996Y-112997166D01*
X159948638Y-113000000D01*
X113036995Y-113000000D01*
X112969956Y-112980315D01*
X112924201Y-112927511D01*
X112914257Y-112858353D01*
X112933893Y-112807109D01*
X112985080Y-112730501D01*
X112985080Y-112730500D01*
X112985084Y-112730495D01*
X113041658Y-112593913D01*
X113070500Y-112448918D01*
X113070500Y-111701082D01*
X113070500Y-111701079D01*
X113041659Y-111556092D01*
X113041658Y-111556091D01*
X113041658Y-111556087D01*
X113041656Y-111556082D01*
X112985087Y-111419511D01*
X112985080Y-111419498D01*
X112902951Y-111296584D01*
X112902948Y-111296580D01*
X112798419Y-111192051D01*
X112798415Y-111192048D01*
X112675501Y-111109919D01*
X112675488Y-111109912D01*
X112538917Y-111053343D01*
X112538907Y-111053340D01*
X112393920Y-111024500D01*
X112393918Y-111024500D01*
X112246082Y-111024500D01*
X112246080Y-111024500D01*
X112101092Y-111053340D01*
X112101082Y-111053343D01*
X111964511Y-111109912D01*
X111964498Y-111109919D01*
X111841584Y-111192048D01*
X111841580Y-111192051D01*
X111737051Y-111296580D01*
X111737048Y-111296584D01*
X111654919Y-111419498D01*
X111654912Y-111419511D01*
X111598343Y-111556082D01*
X111598340Y-111556092D01*
X111569500Y-111701079D01*
X111569500Y-111701082D01*
X111569500Y-112448918D01*
X111569500Y-112448920D01*
X111569499Y-112448920D01*
X111598340Y-112593907D01*
X111598343Y-112593917D01*
X111654912Y-112730488D01*
X111654919Y-112730501D01*
X111706107Y-112807109D01*
X111726985Y-112873787D01*
X111708500Y-112941167D01*
X111656521Y-112987857D01*
X111603005Y-113000000D01*
X104396995Y-113000000D01*
X104329956Y-112980315D01*
X104284201Y-112927511D01*
X104274257Y-112858353D01*
X104293893Y-112807109D01*
X104345080Y-112730501D01*
X104345080Y-112730500D01*
X104345084Y-112730495D01*
X104401658Y-112593913D01*
X104430500Y-112448918D01*
X104430500Y-111701082D01*
X104430500Y-111701079D01*
X104401659Y-111556092D01*
X104401658Y-111556091D01*
X104401658Y-111556087D01*
X104401656Y-111556082D01*
X104345087Y-111419511D01*
X104345080Y-111419498D01*
X104262951Y-111296584D01*
X104262948Y-111296580D01*
X104158419Y-111192051D01*
X104158415Y-111192048D01*
X104035501Y-111109919D01*
X104035488Y-111109912D01*
X103898917Y-111053343D01*
X103898907Y-111053340D01*
X103753920Y-111024500D01*
X103753918Y-111024500D01*
X103606082Y-111024500D01*
X103606080Y-111024500D01*
X103461092Y-111053340D01*
X103461082Y-111053343D01*
X103324511Y-111109912D01*
X103324498Y-111109919D01*
X103201584Y-111192048D01*
X103201580Y-111192051D01*
X103097051Y-111296580D01*
X103097048Y-111296584D01*
X103014919Y-111419498D01*
X103014912Y-111419511D01*
X102958343Y-111556082D01*
X102958340Y-111556092D01*
X102929500Y-111701079D01*
X102929500Y-111701082D01*
X102929500Y-112448918D01*
X102929500Y-112448920D01*
X102929499Y-112448920D01*
X102958340Y-112593907D01*
X102958343Y-112593917D01*
X103014912Y-112730488D01*
X103014919Y-112730501D01*
X103066107Y-112807109D01*
X103086985Y-112873787D01*
X103068500Y-112941167D01*
X103016521Y-112987857D01*
X102963005Y-113000000D01*
X56051362Y-113000000D01*
X55984323Y-112980315D01*
X55963681Y-112963681D01*
X51893713Y-108893713D01*
X53649500Y-108893713D01*
X53649500Y-109106287D01*
X53682754Y-109316243D01*
X53707754Y-109393186D01*
X53748444Y-109518414D01*
X53844951Y-109707820D01*
X53969890Y-109879786D01*
X54120213Y-110030109D01*
X54292179Y-110155048D01*
X54292181Y-110155049D01*
X54292184Y-110155051D01*
X54481588Y-110251557D01*
X54683757Y-110317246D01*
X54893713Y-110350500D01*
X54893714Y-110350500D01*
X55106286Y-110350500D01*
X55106287Y-110350500D01*
X55316243Y-110317246D01*
X55518412Y-110251557D01*
X55707816Y-110155051D01*
X55729789Y-110139086D01*
X55879786Y-110030109D01*
X55879788Y-110030106D01*
X55879792Y-110030104D01*
X56030104Y-109879792D01*
X56030106Y-109879788D01*
X56030109Y-109879786D01*
X56155048Y-109707820D01*
X56155047Y-109707820D01*
X56155051Y-109707816D01*
X56251557Y-109518412D01*
X56317246Y-109316243D01*
X56350500Y-109106287D01*
X56350500Y-108893713D01*
X56317246Y-108683757D01*
X56251557Y-108481588D01*
X56155051Y-108292184D01*
X56155049Y-108292181D01*
X56155048Y-108292179D01*
X56030109Y-108120213D01*
X55879786Y-107969890D01*
X55830536Y-107934108D01*
X102099500Y-107934108D01*
X102099500Y-108065892D01*
X102114054Y-108120208D01*
X102133608Y-108193187D01*
X102166554Y-108250250D01*
X102199500Y-108307314D01*
X102292686Y-108400500D01*
X102406814Y-108466392D01*
X102534108Y-108500500D01*
X102534110Y-108500500D01*
X102665889Y-108500500D01*
X102665892Y-108500500D01*
X102784803Y-108468638D01*
X102854650Y-108470301D01*
X102912513Y-108509463D01*
X102938511Y-108564221D01*
X102958340Y-108663907D01*
X102958343Y-108663917D01*
X103014912Y-108800488D01*
X103014919Y-108800501D01*
X103097048Y-108923415D01*
X103097051Y-108923419D01*
X103201580Y-109027948D01*
X103201584Y-109027951D01*
X103324498Y-109110080D01*
X103324511Y-109110087D01*
X103461082Y-109166656D01*
X103461087Y-109166658D01*
X103461091Y-109166658D01*
X103461092Y-109166659D01*
X103606079Y-109195500D01*
X103606082Y-109195500D01*
X103753920Y-109195500D01*
X103851462Y-109176096D01*
X103898913Y-109166658D01*
X103977496Y-109134108D01*
X105899500Y-109134108D01*
X105899500Y-109265891D01*
X105933608Y-109393187D01*
X105966554Y-109450250D01*
X105999500Y-109507314D01*
X106092686Y-109600500D01*
X106206814Y-109666392D01*
X106334108Y-109700500D01*
X106334110Y-109700500D01*
X106465890Y-109700500D01*
X106465892Y-109700500D01*
X106593186Y-109666392D01*
X106707314Y-109600500D01*
X106800500Y-109507314D01*
X106866392Y-109393186D01*
X106900500Y-109265892D01*
X106900500Y-109134108D01*
X106866392Y-109006814D01*
X106800500Y-108892686D01*
X106707314Y-108799500D01*
X106650250Y-108766554D01*
X106593187Y-108733608D01*
X106529539Y-108716554D01*
X106465892Y-108699500D01*
X106334108Y-108699500D01*
X106206812Y-108733608D01*
X106092686Y-108799500D01*
X106092683Y-108799502D01*
X105999502Y-108892683D01*
X105999500Y-108892686D01*
X105933608Y-109006812D01*
X105899500Y-109134108D01*
X103977496Y-109134108D01*
X104035495Y-109110084D01*
X104158416Y-109027951D01*
X104262951Y-108923416D01*
X104345084Y-108800495D01*
X104388593Y-108695453D01*
X104432431Y-108641055D01*
X104498725Y-108618989D01*
X104566424Y-108636268D01*
X104610539Y-108680909D01*
X104649485Y-108748365D01*
X104756635Y-108855515D01*
X104887865Y-108931281D01*
X105034234Y-108970500D01*
X105034236Y-108970500D01*
X105185764Y-108970500D01*
X105185766Y-108970500D01*
X105332135Y-108931281D01*
X105463365Y-108855515D01*
X105570515Y-108748365D01*
X105646281Y-108617135D01*
X105685500Y-108470766D01*
X105685500Y-108319234D01*
X110314500Y-108319234D01*
X110314500Y-108470765D01*
X110353719Y-108617136D01*
X110362702Y-108632694D01*
X110429485Y-108748365D01*
X110536635Y-108855515D01*
X110667865Y-108931281D01*
X110814234Y-108970500D01*
X110814236Y-108970500D01*
X110965764Y-108970500D01*
X110965766Y-108970500D01*
X111112135Y-108931281D01*
X111243365Y-108855515D01*
X111350515Y-108748365D01*
X111389460Y-108680909D01*
X111440027Y-108632694D01*
X111508634Y-108619471D01*
X111573499Y-108645439D01*
X111611408Y-108695458D01*
X111654912Y-108800488D01*
X111654919Y-108800501D01*
X111737048Y-108923415D01*
X111737051Y-108923419D01*
X111841580Y-109027948D01*
X111841584Y-109027951D01*
X111964498Y-109110080D01*
X111964511Y-109110087D01*
X112101082Y-109166656D01*
X112101087Y-109166658D01*
X112101091Y-109166658D01*
X112101092Y-109166659D01*
X112246079Y-109195500D01*
X112246082Y-109195500D01*
X112393920Y-109195500D01*
X112491462Y-109176096D01*
X112538913Y-109166658D01*
X112675495Y-109110084D01*
X112798416Y-109027951D01*
X112902951Y-108923416D01*
X112922798Y-108893713D01*
X159649500Y-108893713D01*
X159649500Y-109106287D01*
X159682754Y-109316243D01*
X159707754Y-109393186D01*
X159748444Y-109518414D01*
X159844951Y-109707820D01*
X159969890Y-109879786D01*
X160120213Y-110030109D01*
X160292179Y-110155048D01*
X160292181Y-110155049D01*
X160292184Y-110155051D01*
X160481588Y-110251557D01*
X160683757Y-110317246D01*
X160893713Y-110350500D01*
X160893714Y-110350500D01*
X161106286Y-110350500D01*
X161106287Y-110350500D01*
X161316243Y-110317246D01*
X161518412Y-110251557D01*
X161707816Y-110155051D01*
X161729789Y-110139086D01*
X161879786Y-110030109D01*
X161879788Y-110030106D01*
X161879792Y-110030104D01*
X162030104Y-109879792D01*
X162030106Y-109879788D01*
X162030109Y-109879786D01*
X162155048Y-109707820D01*
X162155047Y-109707820D01*
X162155051Y-109707816D01*
X162251557Y-109518412D01*
X162317246Y-109316243D01*
X162350500Y-109106287D01*
X162350500Y-108893713D01*
X162317246Y-108683757D01*
X162251557Y-108481588D01*
X162155051Y-108292184D01*
X162155049Y-108292181D01*
X162155048Y-108292179D01*
X162030109Y-108120213D01*
X161879786Y-107969890D01*
X161707820Y-107844951D01*
X161518414Y-107748444D01*
X161518413Y-107748443D01*
X161518412Y-107748443D01*
X161316243Y-107682754D01*
X161316241Y-107682753D01*
X161316240Y-107682753D01*
X161154957Y-107657208D01*
X161106287Y-107649500D01*
X160893713Y-107649500D01*
X160845042Y-107657208D01*
X160683760Y-107682753D01*
X160481585Y-107748444D01*
X160292179Y-107844951D01*
X160120213Y-107969890D01*
X159969890Y-108120213D01*
X159844951Y-108292179D01*
X159748444Y-108481585D01*
X159682753Y-108683760D01*
X159664263Y-108800501D01*
X159649500Y-108893713D01*
X112922798Y-108893713D01*
X112985084Y-108800495D01*
X113041658Y-108663913D01*
X113051096Y-108616462D01*
X113070500Y-108518920D01*
X113070500Y-107271079D01*
X113041659Y-107126092D01*
X113041658Y-107126091D01*
X113041658Y-107126087D01*
X113041656Y-107126082D01*
X112985087Y-106989511D01*
X112985080Y-106989498D01*
X112902951Y-106866584D01*
X112902948Y-106866580D01*
X112798419Y-106762051D01*
X112798415Y-106762048D01*
X112675501Y-106679919D01*
X112675488Y-106679912D01*
X112538917Y-106623343D01*
X112538907Y-106623340D01*
X112393920Y-106594500D01*
X112393918Y-106594500D01*
X112246082Y-106594500D01*
X112246080Y-106594500D01*
X112101092Y-106623340D01*
X112101082Y-106623343D01*
X111964511Y-106679912D01*
X111964498Y-106679919D01*
X111841584Y-106762048D01*
X111841580Y-106762051D01*
X111737051Y-106866580D01*
X111737048Y-106866584D01*
X111654919Y-106989498D01*
X111654912Y-106989511D01*
X111598343Y-107126082D01*
X111598340Y-107126092D01*
X111569500Y-107271079D01*
X111569500Y-107961730D01*
X111549815Y-108028769D01*
X111497011Y-108074524D01*
X111427853Y-108084468D01*
X111364297Y-108055443D01*
X111356488Y-108047155D01*
X111356262Y-108047382D01*
X111243367Y-107934487D01*
X111243365Y-107934485D01*
X111177750Y-107896602D01*
X111112136Y-107858719D01*
X111038950Y-107839109D01*
X110965766Y-107819500D01*
X110814234Y-107819500D01*
X110667863Y-107858719D01*
X110536635Y-107934485D01*
X110536632Y-107934487D01*
X110429487Y-108041632D01*
X110429485Y-108041635D01*
X110353719Y-108172863D01*
X110314500Y-108319234D01*
X105685500Y-108319234D01*
X105646281Y-108172865D01*
X105570515Y-108041635D01*
X105463365Y-107934485D01*
X105397750Y-107896602D01*
X105332136Y-107858719D01*
X105258950Y-107839109D01*
X105185766Y-107819500D01*
X105034234Y-107819500D01*
X104887863Y-107858719D01*
X104756635Y-107934485D01*
X104756632Y-107934487D01*
X104643738Y-108047382D01*
X104641719Y-108045363D01*
X104596445Y-108078420D01*
X104526698Y-108082573D01*
X104465779Y-108048359D01*
X104433028Y-107986641D01*
X104430500Y-107961730D01*
X104430500Y-107271079D01*
X104401659Y-107126092D01*
X104401658Y-107126091D01*
X104401658Y-107126087D01*
X104401656Y-107126082D01*
X104345087Y-106989511D01*
X104345080Y-106989498D01*
X104262951Y-106866584D01*
X104262948Y-106866580D01*
X104158419Y-106762051D01*
X104158415Y-106762048D01*
X104035501Y-106679919D01*
X104035488Y-106679912D01*
X103898917Y-106623343D01*
X103898907Y-106623340D01*
X103753920Y-106594500D01*
X103753918Y-106594500D01*
X103606082Y-106594500D01*
X103606080Y-106594500D01*
X103461092Y-106623340D01*
X103461082Y-106623343D01*
X103324511Y-106679912D01*
X103324498Y-106679919D01*
X103201584Y-106762048D01*
X103201580Y-106762051D01*
X103097051Y-106866580D01*
X103097048Y-106866584D01*
X103014919Y-106989498D01*
X103014912Y-106989511D01*
X102958343Y-107126082D01*
X102958340Y-107126092D01*
X102929500Y-107271079D01*
X102929500Y-107408533D01*
X102909815Y-107475572D01*
X102857011Y-107521327D01*
X102787853Y-107531271D01*
X102773407Y-107528308D01*
X102718147Y-107513501D01*
X102665892Y-107499500D01*
X102534108Y-107499500D01*
X102406812Y-107533608D01*
X102292686Y-107599500D01*
X102292683Y-107599502D01*
X102199502Y-107692683D01*
X102199500Y-107692686D01*
X102133608Y-107806812D01*
X102123389Y-107844951D01*
X102099500Y-107934108D01*
X55830536Y-107934108D01*
X55707820Y-107844951D01*
X55518414Y-107748444D01*
X55518413Y-107748443D01*
X55518412Y-107748443D01*
X55316243Y-107682754D01*
X55316241Y-107682753D01*
X55316240Y-107682753D01*
X55154957Y-107657208D01*
X55106287Y-107649500D01*
X54893713Y-107649500D01*
X54845042Y-107657208D01*
X54683760Y-107682753D01*
X54481585Y-107748444D01*
X54292179Y-107844951D01*
X54120213Y-107969890D01*
X53969890Y-108120213D01*
X53844951Y-108292179D01*
X53748444Y-108481585D01*
X53682753Y-108683760D01*
X53664263Y-108800501D01*
X53649500Y-108893713D01*
X51893713Y-108893713D01*
X51036319Y-108036319D01*
X51002834Y-107974996D01*
X51000000Y-107948638D01*
X51000000Y-105841625D01*
X98867500Y-105841625D01*
X98867500Y-105986575D01*
X98905016Y-106126585D01*
X98905017Y-106126588D01*
X98977488Y-106252111D01*
X98977490Y-106252113D01*
X98977491Y-106252115D01*
X99079985Y-106354609D01*
X99079986Y-106354610D01*
X99079988Y-106354611D01*
X99205511Y-106427082D01*
X99205512Y-106427082D01*
X99205515Y-106427084D01*
X99345525Y-106464600D01*
X99345528Y-106464600D01*
X99490472Y-106464600D01*
X99490475Y-106464600D01*
X99630485Y-106427084D01*
X99756015Y-106354609D01*
X99858509Y-106252115D01*
X99930984Y-106126585D01*
X99968500Y-105986575D01*
X99968500Y-105841625D01*
X99930984Y-105701615D01*
X99918032Y-105679182D01*
X99858511Y-105576088D01*
X99858506Y-105576082D01*
X99756017Y-105473593D01*
X99756015Y-105473591D01*
X99630485Y-105401116D01*
X99540950Y-105377125D01*
X105932500Y-105377125D01*
X105932500Y-105522075D01*
X105953247Y-105599502D01*
X105970017Y-105662088D01*
X106042488Y-105787611D01*
X106042490Y-105787613D01*
X106042491Y-105787615D01*
X106144985Y-105890109D01*
X106144986Y-105890110D01*
X106144988Y-105890111D01*
X106270511Y-105962582D01*
X106270512Y-105962582D01*
X106270515Y-105962584D01*
X106410525Y-106000100D01*
X106410528Y-106000100D01*
X106555474Y-106000100D01*
X106555475Y-106000100D01*
X106555475Y-106000099D01*
X106563532Y-105999039D01*
X106563960Y-106002296D01*
X106618481Y-106003587D01*
X106676349Y-106042741D01*
X106700515Y-106089608D01*
X106704716Y-106105285D01*
X106704717Y-106105288D01*
X106777188Y-106230811D01*
X106777190Y-106230813D01*
X106777191Y-106230815D01*
X106879685Y-106333309D01*
X106879686Y-106333310D01*
X106879688Y-106333311D01*
X107005211Y-106405782D01*
X107005212Y-106405782D01*
X107005215Y-106405784D01*
X107145225Y-106443300D01*
X107145228Y-106443300D01*
X107290172Y-106443300D01*
X107290175Y-106443300D01*
X107430185Y-106405784D01*
X107478176Y-106378075D01*
X107546076Y-106361603D01*
X107612103Y-106384455D01*
X107627858Y-106397782D01*
X107687785Y-106457709D01*
X107687786Y-106457710D01*
X107687788Y-106457711D01*
X107813311Y-106530182D01*
X107813312Y-106530182D01*
X107813315Y-106530184D01*
X107953325Y-106567700D01*
X107953328Y-106567700D01*
X108098272Y-106567700D01*
X108098275Y-106567700D01*
X108238285Y-106530184D01*
X108363815Y-106457709D01*
X108466309Y-106355215D01*
X108538784Y-106229685D01*
X108576300Y-106089675D01*
X108576300Y-105944725D01*
X108573455Y-105934108D01*
X115099500Y-105934108D01*
X115099500Y-106065891D01*
X115133608Y-106193187D01*
X115154681Y-106229685D01*
X115199500Y-106307314D01*
X115292686Y-106400500D01*
X115406814Y-106466392D01*
X115534108Y-106500500D01*
X115534110Y-106500500D01*
X115665890Y-106500500D01*
X115665892Y-106500500D01*
X115793186Y-106466392D01*
X115907314Y-106400500D01*
X116000500Y-106307314D01*
X116066392Y-106193186D01*
X116100500Y-106065892D01*
X116100500Y-105934108D01*
X116499500Y-105934108D01*
X116499500Y-106065891D01*
X116533608Y-106193187D01*
X116554681Y-106229685D01*
X116599500Y-106307314D01*
X116692686Y-106400500D01*
X116806814Y-106466392D01*
X116934108Y-106500500D01*
X116934110Y-106500500D01*
X117065890Y-106500500D01*
X117065892Y-106500500D01*
X117193186Y-106466392D01*
X117307314Y-106400500D01*
X117400500Y-106307314D01*
X117466392Y-106193186D01*
X117500500Y-106065892D01*
X117500500Y-105934108D01*
X117466392Y-105806814D01*
X117400500Y-105692686D01*
X117307314Y-105599500D01*
X117218798Y-105548395D01*
X117193187Y-105533608D01*
X117113353Y-105512217D01*
X117065892Y-105499500D01*
X116934108Y-105499500D01*
X116806812Y-105533608D01*
X116692686Y-105599500D01*
X116692683Y-105599502D01*
X116599502Y-105692683D01*
X116599500Y-105692686D01*
X116533608Y-105806812D01*
X116499500Y-105934108D01*
X116100500Y-105934108D01*
X116066392Y-105806814D01*
X116000500Y-105692686D01*
X115907314Y-105599500D01*
X115818798Y-105548395D01*
X115793187Y-105533608D01*
X115713353Y-105512217D01*
X115665892Y-105499500D01*
X115534108Y-105499500D01*
X115406812Y-105533608D01*
X115292686Y-105599500D01*
X115292683Y-105599502D01*
X115199502Y-105692683D01*
X115199500Y-105692686D01*
X115133608Y-105806812D01*
X115099500Y-105934108D01*
X108573455Y-105934108D01*
X108538784Y-105804715D01*
X108528912Y-105787617D01*
X108466311Y-105679188D01*
X108466306Y-105679182D01*
X108363817Y-105576693D01*
X108363811Y-105576688D01*
X108238288Y-105504217D01*
X108238289Y-105504217D01*
X108220685Y-105499500D01*
X108098275Y-105466700D01*
X107953325Y-105466700D01*
X107854908Y-105493070D01*
X107813310Y-105504217D01*
X107813309Y-105504218D01*
X107765320Y-105531924D01*
X107697420Y-105548395D01*
X107631393Y-105525542D01*
X107615641Y-105512217D01*
X107555717Y-105452293D01*
X107555711Y-105452288D01*
X107430188Y-105379817D01*
X107430189Y-105379817D01*
X107403120Y-105372564D01*
X107290175Y-105342300D01*
X107145225Y-105342300D01*
X107145223Y-105342300D01*
X107137169Y-105343361D01*
X107136741Y-105340113D01*
X107082161Y-105338795D01*
X107024312Y-105299612D01*
X107000183Y-105252787D01*
X106995984Y-105237115D01*
X106977599Y-105205272D01*
X106923511Y-105111588D01*
X106923506Y-105111582D01*
X106821017Y-105009093D01*
X106821011Y-105009088D01*
X106695488Y-104936617D01*
X106695489Y-104936617D01*
X106684006Y-104933540D01*
X106555475Y-104899100D01*
X106410525Y-104899100D01*
X106281993Y-104933540D01*
X106270511Y-104936617D01*
X106144988Y-105009088D01*
X106144982Y-105009093D01*
X106042493Y-105111582D01*
X106042488Y-105111588D01*
X105970017Y-105237111D01*
X105969908Y-105237518D01*
X105932500Y-105377125D01*
X99540950Y-105377125D01*
X99490475Y-105363600D01*
X99345525Y-105363600D01*
X99216993Y-105398040D01*
X99205511Y-105401117D01*
X99079988Y-105473588D01*
X99079982Y-105473593D01*
X98977493Y-105576082D01*
X98977488Y-105576088D01*
X98905017Y-105701611D01*
X98905016Y-105701615D01*
X98867500Y-105841625D01*
X51000000Y-105841625D01*
X51000000Y-104761525D01*
X112975300Y-104761525D01*
X112975300Y-104906475D01*
X113002797Y-105009093D01*
X113012817Y-105046488D01*
X113085288Y-105172011D01*
X113085290Y-105172013D01*
X113085291Y-105172015D01*
X113187785Y-105274509D01*
X113187786Y-105274510D01*
X113187788Y-105274511D01*
X113313311Y-105346982D01*
X113313312Y-105346982D01*
X113313315Y-105346984D01*
X113453325Y-105384500D01*
X113453328Y-105384500D01*
X113598272Y-105384500D01*
X113598275Y-105384500D01*
X113738285Y-105346984D01*
X113863815Y-105274509D01*
X113933052Y-105205272D01*
X120731857Y-105205272D01*
X120731857Y-105205273D01*
X120787704Y-105237516D01*
X120787703Y-105237516D01*
X120927594Y-105275000D01*
X121072406Y-105275000D01*
X121212289Y-105237518D01*
X121268141Y-105205272D01*
X120999999Y-104937130D01*
X120731857Y-105205272D01*
X113933052Y-105205272D01*
X113966309Y-105172015D01*
X114038784Y-105046485D01*
X114076300Y-104906475D01*
X114076300Y-104761525D01*
X114038784Y-104621515D01*
X114026650Y-104600499D01*
X113966311Y-104495988D01*
X113966306Y-104495982D01*
X113950596Y-104480272D01*
X119756857Y-104480272D01*
X119756857Y-104480273D01*
X119812704Y-104512516D01*
X119812703Y-104512516D01*
X119952594Y-104550000D01*
X120097406Y-104550000D01*
X120237293Y-104512517D01*
X120237294Y-104512516D01*
X120274074Y-104491282D01*
X120341974Y-104474809D01*
X120408001Y-104497662D01*
X120451192Y-104552583D01*
X120457833Y-104622136D01*
X120455849Y-104630761D01*
X120450000Y-104652589D01*
X120450000Y-104797406D01*
X120487482Y-104937292D01*
X120519726Y-104993140D01*
X120806252Y-104706614D01*
X120814197Y-104702275D01*
X120819623Y-104695028D01*
X120844382Y-104685793D01*
X120867575Y-104673129D01*
X120876604Y-104673774D01*
X120885087Y-104670611D01*
X120910907Y-104676227D01*
X120911932Y-104676300D01*
X120900000Y-104705109D01*
X120900000Y-104744891D01*
X120915224Y-104781645D01*
X120943355Y-104809776D01*
X120980109Y-104825000D01*
X121019891Y-104825000D01*
X121056645Y-104809776D01*
X121084776Y-104781645D01*
X121100000Y-104744891D01*
X121100000Y-104705109D01*
X121086968Y-104673649D01*
X121149399Y-104678114D01*
X121193746Y-104706615D01*
X121480272Y-104993141D01*
X121512518Y-104937289D01*
X121550000Y-104797406D01*
X121550000Y-104652593D01*
X121549999Y-104652591D01*
X121544151Y-104630765D01*
X121545812Y-104560915D01*
X121584974Y-104503051D01*
X121649202Y-104475546D01*
X121718104Y-104487132D01*
X121725924Y-104491281D01*
X121762707Y-104512517D01*
X121762706Y-104512517D01*
X121902594Y-104550000D01*
X122047406Y-104550000D01*
X122187289Y-104512518D01*
X122243141Y-104480272D01*
X121956615Y-104193746D01*
X121952276Y-104185800D01*
X121945029Y-104180375D01*
X121935794Y-104155615D01*
X121923130Y-104132423D01*
X121923775Y-104123393D01*
X121920612Y-104114911D01*
X121926228Y-104089090D01*
X121926301Y-104088067D01*
X121955109Y-104100000D01*
X121994891Y-104100000D01*
X122031645Y-104084776D01*
X122059776Y-104056645D01*
X122075000Y-104019891D01*
X122075000Y-103999999D01*
X122187130Y-103999999D01*
X122455272Y-104268141D01*
X122487518Y-104212289D01*
X122525000Y-104072406D01*
X122525000Y-103927593D01*
X122487516Y-103787704D01*
X122455272Y-103731857D01*
X122187130Y-103999999D01*
X122075000Y-103999999D01*
X122075000Y-103980109D01*
X122059776Y-103943355D01*
X122031645Y-103915224D01*
X121994891Y-103900000D01*
X121955109Y-103900000D01*
X121923648Y-103913031D01*
X121928113Y-103850599D01*
X121956614Y-103806252D01*
X122243140Y-103519726D01*
X122187292Y-103487482D01*
X122187293Y-103487482D01*
X122047406Y-103450000D01*
X121902594Y-103450000D01*
X121762706Y-103487482D01*
X121762705Y-103487483D01*
X121725922Y-103508719D01*
X121658021Y-103525189D01*
X121591995Y-103502335D01*
X121548806Y-103447413D01*
X121542167Y-103377859D01*
X121544151Y-103369233D01*
X121550000Y-103347406D01*
X121550000Y-103202593D01*
X121512516Y-103062704D01*
X121480273Y-103006857D01*
X121480272Y-103006857D01*
X121193746Y-103293384D01*
X121185800Y-103297722D01*
X121180375Y-103304970D01*
X121155615Y-103314204D01*
X121132423Y-103326869D01*
X121123393Y-103326223D01*
X121114911Y-103329387D01*
X121089090Y-103323770D01*
X121088068Y-103323696D01*
X121100000Y-103294891D01*
X121100000Y-103255109D01*
X121084776Y-103218355D01*
X121056645Y-103190224D01*
X121019891Y-103175000D01*
X120980109Y-103175000D01*
X120943355Y-103190224D01*
X120915224Y-103218355D01*
X120900000Y-103255109D01*
X120900000Y-103294891D01*
X120913031Y-103326350D01*
X120850600Y-103321886D01*
X120806253Y-103293385D01*
X120519726Y-103006858D01*
X120487484Y-103062704D01*
X120487482Y-103062709D01*
X120450000Y-103202593D01*
X120450000Y-103347408D01*
X120455849Y-103369237D01*
X120454186Y-103439087D01*
X120415023Y-103496949D01*
X120350794Y-103524453D01*
X120281892Y-103512866D01*
X120274076Y-103508718D01*
X120237296Y-103487484D01*
X120237293Y-103487482D01*
X120097406Y-103450000D01*
X119952594Y-103450000D01*
X119812709Y-103487482D01*
X119812704Y-103487484D01*
X119756858Y-103519726D01*
X120043385Y-103806253D01*
X120047723Y-103814198D01*
X120054971Y-103819624D01*
X120064205Y-103844383D01*
X120076870Y-103867576D01*
X120076224Y-103876605D01*
X120079388Y-103885088D01*
X120073771Y-103910908D01*
X120073697Y-103911932D01*
X120044891Y-103900000D01*
X120005109Y-103900000D01*
X119968355Y-103915224D01*
X119940224Y-103943355D01*
X119925000Y-103980109D01*
X119925000Y-104019891D01*
X119940224Y-104056645D01*
X119968355Y-104084776D01*
X120005109Y-104100000D01*
X120044891Y-104100000D01*
X120076349Y-104086969D01*
X120071885Y-104149399D01*
X120043384Y-104193746D01*
X119756857Y-104480272D01*
X113950596Y-104480272D01*
X113863817Y-104393493D01*
X113863811Y-104393488D01*
X113738288Y-104321017D01*
X113738289Y-104321017D01*
X113726806Y-104317940D01*
X113598275Y-104283500D01*
X113453325Y-104283500D01*
X113324793Y-104317940D01*
X113313311Y-104321017D01*
X113187788Y-104393488D01*
X113187782Y-104393493D01*
X113085293Y-104495982D01*
X113085288Y-104495988D01*
X113012817Y-104621511D01*
X113010337Y-104630765D01*
X112975300Y-104761525D01*
X51000000Y-104761525D01*
X51000000Y-104134108D01*
X107699500Y-104134108D01*
X107699500Y-104265892D01*
X107714270Y-104321016D01*
X107733608Y-104393187D01*
X107733782Y-104393488D01*
X107799500Y-104507314D01*
X107892686Y-104600500D01*
X107991521Y-104657563D01*
X108006810Y-104666390D01*
X108006814Y-104666392D01*
X108134108Y-104700500D01*
X108134110Y-104700500D01*
X108265890Y-104700500D01*
X108265892Y-104700500D01*
X108393186Y-104666392D01*
X108507314Y-104600500D01*
X108600500Y-104507314D01*
X108666392Y-104393186D01*
X108700500Y-104265892D01*
X108700500Y-104134108D01*
X108666392Y-104006814D01*
X108666389Y-104006810D01*
X108666389Y-104006806D01*
X108651759Y-103981468D01*
X108651757Y-103981465D01*
X108626239Y-103937268D01*
X108620653Y-103927593D01*
X119475000Y-103927593D01*
X119475000Y-104072406D01*
X119512482Y-104212292D01*
X119544726Y-104268140D01*
X119812867Y-103999999D01*
X119544726Y-103731858D01*
X119512484Y-103787704D01*
X119512482Y-103787709D01*
X119475000Y-103927593D01*
X108620653Y-103927593D01*
X108600500Y-103892686D01*
X108507314Y-103799500D01*
X108450250Y-103766554D01*
X108393187Y-103733608D01*
X108329539Y-103716554D01*
X108265892Y-103699500D01*
X108134108Y-103699500D01*
X108006812Y-103733608D01*
X107892686Y-103799500D01*
X107892683Y-103799502D01*
X107799502Y-103892683D01*
X107799500Y-103892686D01*
X107733608Y-104006812D01*
X107712718Y-104084776D01*
X107699500Y-104134108D01*
X51000000Y-104134108D01*
X51000000Y-103534108D01*
X105499500Y-103534108D01*
X105499500Y-103665892D01*
X105516554Y-103729539D01*
X105533608Y-103793187D01*
X105548872Y-103819624D01*
X105599500Y-103907314D01*
X105692686Y-104000500D01*
X105772599Y-104046638D01*
X105806810Y-104066390D01*
X105806814Y-104066392D01*
X105934108Y-104100500D01*
X105934110Y-104100500D01*
X106065890Y-104100500D01*
X106065892Y-104100500D01*
X106193186Y-104066392D01*
X106307314Y-104000500D01*
X106400500Y-103907314D01*
X106466392Y-103793186D01*
X106500500Y-103665892D01*
X106500500Y-103534108D01*
X106466392Y-103406814D01*
X106400500Y-103292686D01*
X106307314Y-103199500D01*
X106250250Y-103166554D01*
X106193187Y-103133608D01*
X106104056Y-103109726D01*
X106065892Y-103099500D01*
X105934108Y-103099500D01*
X105806812Y-103133608D01*
X105692686Y-103199500D01*
X105692683Y-103199502D01*
X105599502Y-103292683D01*
X105599500Y-103292686D01*
X105533608Y-103406812D01*
X105508505Y-103500499D01*
X105499500Y-103534108D01*
X51000000Y-103534108D01*
X51000000Y-102934108D01*
X114099500Y-102934108D01*
X114099500Y-103065892D01*
X114111245Y-103109725D01*
X114133608Y-103193187D01*
X114139039Y-103202593D01*
X114199500Y-103307314D01*
X114292686Y-103400500D01*
X114406814Y-103466392D01*
X114534108Y-103500500D01*
X114534110Y-103500500D01*
X114665890Y-103500500D01*
X114665892Y-103500500D01*
X114793186Y-103466392D01*
X114907314Y-103400500D01*
X115000500Y-103307314D01*
X115066392Y-103193186D01*
X115100500Y-103065892D01*
X115100500Y-102934108D01*
X115066392Y-102806814D01*
X115059413Y-102794726D01*
X120731858Y-102794726D01*
X120999999Y-103062867D01*
X121128758Y-102934108D01*
X123299500Y-102934108D01*
X123299500Y-103065892D01*
X123311245Y-103109725D01*
X123333608Y-103193187D01*
X123339039Y-103202593D01*
X123399500Y-103307314D01*
X123399502Y-103307316D01*
X123404505Y-103312319D01*
X123437990Y-103373642D01*
X123433006Y-103443334D01*
X123404505Y-103487681D01*
X123399502Y-103492683D01*
X123399500Y-103492686D01*
X123333608Y-103606812D01*
X123308773Y-103699500D01*
X123299500Y-103734108D01*
X123299500Y-103865892D01*
X123311562Y-103910908D01*
X123333608Y-103993187D01*
X123341474Y-104006811D01*
X123399500Y-104107314D01*
X123399502Y-104107316D01*
X123404505Y-104112319D01*
X123437990Y-104173642D01*
X123433006Y-104243334D01*
X123404505Y-104287681D01*
X123399502Y-104292683D01*
X123399500Y-104292686D01*
X123333608Y-104406812D01*
X123305285Y-104512517D01*
X123299500Y-104534108D01*
X123299500Y-104665892D01*
X123307307Y-104695028D01*
X123333608Y-104793187D01*
X123336044Y-104797406D01*
X123399500Y-104907314D01*
X123492686Y-105000500D01*
X123606814Y-105066392D01*
X123734108Y-105100500D01*
X123734110Y-105100500D01*
X123865890Y-105100500D01*
X123865892Y-105100500D01*
X123993186Y-105066392D01*
X124107314Y-105000500D01*
X124200500Y-104907314D01*
X124266392Y-104793186D01*
X124300500Y-104665892D01*
X124300500Y-104534108D01*
X124266392Y-104406814D01*
X124200500Y-104292686D01*
X124195495Y-104287681D01*
X124162010Y-104226358D01*
X124166994Y-104156666D01*
X124176401Y-104136952D01*
X124184387Y-104123426D01*
X124200500Y-104107314D01*
X124221886Y-104070272D01*
X142141857Y-104070272D01*
X142141857Y-104070273D01*
X142197704Y-104102516D01*
X142197703Y-104102516D01*
X142337594Y-104140000D01*
X142482406Y-104140000D01*
X142622289Y-104102518D01*
X142678141Y-104070272D01*
X143321857Y-104070272D01*
X143321857Y-104070273D01*
X143377704Y-104102516D01*
X143377703Y-104102516D01*
X143517594Y-104140000D01*
X143662406Y-104140000D01*
X143802289Y-104102518D01*
X143858141Y-104070272D01*
X143590001Y-103802132D01*
X143590000Y-103802132D01*
X143321857Y-104070272D01*
X142678141Y-104070272D01*
X142410001Y-103802132D01*
X142410000Y-103802132D01*
X142141857Y-104070272D01*
X124221886Y-104070272D01*
X124266392Y-103993186D01*
X124300500Y-103865892D01*
X124300500Y-103734108D01*
X124266392Y-103606814D01*
X124200500Y-103492686D01*
X124195495Y-103487681D01*
X124162010Y-103426358D01*
X124166994Y-103356666D01*
X124195495Y-103312319D01*
X124200500Y-103307314D01*
X124266392Y-103193186D01*
X124282592Y-103132725D01*
X129715500Y-103132725D01*
X129715500Y-103277675D01*
X129750103Y-103406812D01*
X129753017Y-103417688D01*
X129825488Y-103543211D01*
X129825490Y-103543213D01*
X129825491Y-103543215D01*
X129927985Y-103645709D01*
X129927986Y-103645710D01*
X129927988Y-103645711D01*
X130053511Y-103718182D01*
X130053512Y-103718182D01*
X130053515Y-103718184D01*
X130193525Y-103755700D01*
X130193528Y-103755700D01*
X130338472Y-103755700D01*
X130338475Y-103755700D01*
X130478485Y-103718184D01*
X130604015Y-103645709D01*
X130706509Y-103543215D01*
X130721302Y-103517593D01*
X141860000Y-103517593D01*
X141860000Y-103662406D01*
X141897482Y-103802292D01*
X141929726Y-103858141D01*
X142197868Y-103590000D01*
X142177977Y-103570109D01*
X142310000Y-103570109D01*
X142310000Y-103609891D01*
X142325224Y-103646645D01*
X142353355Y-103674776D01*
X142390109Y-103690000D01*
X142429891Y-103690000D01*
X142466645Y-103674776D01*
X142494776Y-103646645D01*
X142510000Y-103609891D01*
X142510000Y-103589999D01*
X142622132Y-103589999D01*
X142622132Y-103590001D01*
X142876295Y-103844164D01*
X142938208Y-103808580D01*
X142941057Y-103807894D01*
X142943178Y-103805873D01*
X142974810Y-103799775D01*
X143006140Y-103792240D01*
X143008907Y-103793203D01*
X143011785Y-103792649D01*
X143041702Y-103804626D01*
X143072122Y-103815221D01*
X143073928Y-103817527D01*
X143076650Y-103818617D01*
X143107387Y-103854089D01*
X143109726Y-103858140D01*
X143377868Y-103590000D01*
X143357977Y-103570109D01*
X143490000Y-103570109D01*
X143490000Y-103609891D01*
X143505224Y-103646645D01*
X143533355Y-103674776D01*
X143570109Y-103690000D01*
X143609891Y-103690000D01*
X143646645Y-103674776D01*
X143674776Y-103646645D01*
X143690000Y-103609891D01*
X143690000Y-103589999D01*
X143802132Y-103589999D01*
X143802132Y-103590001D01*
X144070272Y-103858141D01*
X144102518Y-103802289D01*
X144140000Y-103662406D01*
X144140000Y-103517593D01*
X144102516Y-103377704D01*
X144070273Y-103321857D01*
X144070272Y-103321857D01*
X143802132Y-103589999D01*
X143690000Y-103589999D01*
X143690000Y-103570109D01*
X143674776Y-103533355D01*
X143646645Y-103505224D01*
X143609891Y-103490000D01*
X143570109Y-103490000D01*
X143533355Y-103505224D01*
X143505224Y-103533355D01*
X143490000Y-103570109D01*
X143357977Y-103570109D01*
X143109726Y-103321858D01*
X143109725Y-103321858D01*
X143107386Y-103325910D01*
X143056819Y-103374125D01*
X142988212Y-103387349D01*
X142923347Y-103361381D01*
X142892611Y-103325909D01*
X142890272Y-103321858D01*
X142622132Y-103589999D01*
X142510000Y-103589999D01*
X142510000Y-103570109D01*
X142494776Y-103533355D01*
X142466645Y-103505224D01*
X142429891Y-103490000D01*
X142390109Y-103490000D01*
X142353355Y-103505224D01*
X142325224Y-103533355D01*
X142310000Y-103570109D01*
X142177977Y-103570109D01*
X141929726Y-103321858D01*
X141897484Y-103377704D01*
X141897482Y-103377709D01*
X141860000Y-103517593D01*
X130721302Y-103517593D01*
X130778984Y-103417685D01*
X130816500Y-103277675D01*
X130816500Y-103132725D01*
X130810337Y-103109725D01*
X142141858Y-103109725D01*
X142141858Y-103109726D01*
X142410000Y-103377868D01*
X142410001Y-103377868D01*
X142678141Y-103109726D01*
X142674089Y-103107387D01*
X142625873Y-103056820D01*
X142612649Y-102988213D01*
X142624010Y-102946948D01*
X142650837Y-102890272D01*
X143321858Y-102890272D01*
X143325909Y-102892611D01*
X143374125Y-102943178D01*
X143387349Y-103011785D01*
X143361381Y-103076650D01*
X143325910Y-103107386D01*
X143321858Y-103109725D01*
X143321858Y-103109726D01*
X143590000Y-103377868D01*
X143590001Y-103377868D01*
X143858141Y-103109726D01*
X143854089Y-103107387D01*
X143805873Y-103056820D01*
X143792649Y-102988213D01*
X143818617Y-102923348D01*
X143854088Y-102892612D01*
X143858141Y-102890272D01*
X143590001Y-102622132D01*
X143590000Y-102622132D01*
X143321858Y-102890272D01*
X142650837Y-102890272D01*
X142659609Y-102871740D01*
X142410001Y-102622132D01*
X142410000Y-102622132D01*
X142160390Y-102871739D01*
X142195989Y-102946948D01*
X142201119Y-102979466D01*
X142207349Y-103011785D01*
X142206538Y-103013810D01*
X142206878Y-103015964D01*
X142193615Y-103046089D01*
X142181381Y-103076650D01*
X142179409Y-103078358D01*
X142178726Y-103079911D01*
X142174025Y-103083023D01*
X142145910Y-103107386D01*
X142141858Y-103109725D01*
X130810337Y-103109725D01*
X130778984Y-102992715D01*
X130706509Y-102867185D01*
X130604015Y-102764691D01*
X130604013Y-102764690D01*
X130604011Y-102764688D01*
X130478488Y-102692217D01*
X130478489Y-102692217D01*
X130467006Y-102689140D01*
X130338475Y-102654700D01*
X130193525Y-102654700D01*
X130064993Y-102689140D01*
X130053511Y-102692217D01*
X129927988Y-102764688D01*
X129927982Y-102764693D01*
X129825493Y-102867182D01*
X129825488Y-102867188D01*
X129753017Y-102992711D01*
X129753016Y-102992715D01*
X129715500Y-103132725D01*
X124282592Y-103132725D01*
X124300500Y-103065892D01*
X124300500Y-102934108D01*
X124266392Y-102806814D01*
X124200500Y-102692686D01*
X124107314Y-102599500D01*
X124050250Y-102566554D01*
X123993187Y-102533608D01*
X123905079Y-102510000D01*
X123865892Y-102499500D01*
X123734108Y-102499500D01*
X123606812Y-102533608D01*
X123492686Y-102599500D01*
X123492683Y-102599502D01*
X123399502Y-102692683D01*
X123399500Y-102692686D01*
X123333608Y-102806812D01*
X123302383Y-102923348D01*
X123299500Y-102934108D01*
X121128758Y-102934108D01*
X121268141Y-102794726D01*
X121212292Y-102762482D01*
X121212293Y-102762482D01*
X121072406Y-102725000D01*
X120927594Y-102725000D01*
X120787709Y-102762482D01*
X120787704Y-102762484D01*
X120731858Y-102794726D01*
X115059413Y-102794726D01*
X115000500Y-102692686D01*
X114907314Y-102599500D01*
X114850250Y-102566554D01*
X114793187Y-102533608D01*
X114705079Y-102510000D01*
X114665892Y-102499500D01*
X114534108Y-102499500D01*
X114406812Y-102533608D01*
X114292686Y-102599500D01*
X114292683Y-102599502D01*
X114199502Y-102692683D01*
X114199500Y-102692686D01*
X114133608Y-102806812D01*
X114102383Y-102923348D01*
X114099500Y-102934108D01*
X51000000Y-102934108D01*
X51000000Y-101412725D01*
X77887100Y-101412725D01*
X77887100Y-101557675D01*
X77898308Y-101599502D01*
X77924617Y-101697688D01*
X77997088Y-101823211D01*
X77997090Y-101823213D01*
X77997091Y-101823215D01*
X78099585Y-101925709D01*
X78099586Y-101925710D01*
X78099588Y-101925711D01*
X78225111Y-101998182D01*
X78225112Y-101998182D01*
X78225115Y-101998184D01*
X78365125Y-102035700D01*
X78365128Y-102035700D01*
X78510072Y-102035700D01*
X78510075Y-102035700D01*
X78650085Y-101998184D01*
X78761068Y-101934108D01*
X101899500Y-101934108D01*
X101899500Y-102065891D01*
X101933608Y-102193187D01*
X101934150Y-102194125D01*
X101999500Y-102307314D01*
X102092686Y-102400500D01*
X102206814Y-102466392D01*
X102334108Y-102500500D01*
X102334110Y-102500500D01*
X102465890Y-102500500D01*
X102465892Y-102500500D01*
X102593186Y-102466392D01*
X102707314Y-102400500D01*
X102800500Y-102307314D01*
X102866392Y-102193186D01*
X102900500Y-102065892D01*
X102900500Y-101934108D01*
X104099500Y-101934108D01*
X104099500Y-102065891D01*
X104133608Y-102193187D01*
X104134150Y-102194125D01*
X104199500Y-102307314D01*
X104292686Y-102400500D01*
X104406814Y-102466392D01*
X104534108Y-102500500D01*
X104534110Y-102500500D01*
X104665890Y-102500500D01*
X104665892Y-102500500D01*
X104793186Y-102466392D01*
X104907314Y-102400500D01*
X105000500Y-102307314D01*
X105066392Y-102193186D01*
X105100500Y-102065892D01*
X105100500Y-101934108D01*
X109899500Y-101934108D01*
X109899500Y-102065891D01*
X109933608Y-102193187D01*
X109934150Y-102194125D01*
X109999500Y-102307314D01*
X110092686Y-102400500D01*
X110206814Y-102466392D01*
X110334108Y-102500500D01*
X110334110Y-102500500D01*
X110465890Y-102500500D01*
X110465892Y-102500500D01*
X110593186Y-102466392D01*
X110707314Y-102400500D01*
X110800500Y-102307314D01*
X110866392Y-102193186D01*
X110900500Y-102065892D01*
X110900500Y-101934108D01*
X113099500Y-101934108D01*
X113099500Y-102065891D01*
X113133608Y-102193187D01*
X113134150Y-102194125D01*
X113199500Y-102307314D01*
X113292686Y-102400500D01*
X113406814Y-102466392D01*
X113534108Y-102500500D01*
X113534110Y-102500500D01*
X113665890Y-102500500D01*
X113665892Y-102500500D01*
X113793186Y-102466392D01*
X113907314Y-102400500D01*
X113970221Y-102337593D01*
X141860000Y-102337593D01*
X141860000Y-102482406D01*
X141897482Y-102622292D01*
X141929726Y-102678141D01*
X142197868Y-102410000D01*
X142177977Y-102390109D01*
X142310000Y-102390109D01*
X142310000Y-102429891D01*
X142325224Y-102466645D01*
X142353355Y-102494776D01*
X142390109Y-102510000D01*
X142429891Y-102510000D01*
X142466645Y-102494776D01*
X142494776Y-102466645D01*
X142510000Y-102429891D01*
X142510000Y-102409999D01*
X142622132Y-102409999D01*
X142622132Y-102410001D01*
X142890272Y-102678141D01*
X142892612Y-102674088D01*
X142943178Y-102625873D01*
X143011785Y-102612649D01*
X143076650Y-102638617D01*
X143107387Y-102674089D01*
X143109726Y-102678140D01*
X143377868Y-102410000D01*
X143357977Y-102390109D01*
X143490000Y-102390109D01*
X143490000Y-102429891D01*
X143505224Y-102466645D01*
X143533355Y-102494776D01*
X143570109Y-102510000D01*
X143609891Y-102510000D01*
X143646645Y-102494776D01*
X143674776Y-102466645D01*
X143690000Y-102429891D01*
X143690000Y-102409999D01*
X143802132Y-102409999D01*
X143802132Y-102410001D01*
X144070272Y-102678141D01*
X144102518Y-102622289D01*
X144140000Y-102482406D01*
X144140000Y-102337593D01*
X144102516Y-102197704D01*
X144070273Y-102141857D01*
X144070272Y-102141857D01*
X143802132Y-102409999D01*
X143690000Y-102409999D01*
X143690000Y-102390109D01*
X143674776Y-102353355D01*
X143646645Y-102325224D01*
X143609891Y-102310000D01*
X143570109Y-102310000D01*
X143533355Y-102325224D01*
X143505224Y-102353355D01*
X143490000Y-102390109D01*
X143357977Y-102390109D01*
X143109726Y-102141858D01*
X143109725Y-102141858D01*
X143107386Y-102145910D01*
X143056819Y-102194125D01*
X142988212Y-102207349D01*
X142938208Y-102191418D01*
X142876296Y-102155833D01*
X142622132Y-102409999D01*
X142510000Y-102409999D01*
X142510000Y-102390109D01*
X142494776Y-102353355D01*
X142466645Y-102325224D01*
X142429891Y-102310000D01*
X142390109Y-102310000D01*
X142353355Y-102325224D01*
X142325224Y-102353355D01*
X142310000Y-102390109D01*
X142177977Y-102390109D01*
X141929726Y-102141858D01*
X141897484Y-102197704D01*
X141897482Y-102197709D01*
X141860000Y-102337593D01*
X113970221Y-102337593D01*
X114000500Y-102307314D01*
X114066392Y-102193186D01*
X114100500Y-102065892D01*
X114100500Y-101934108D01*
X114066392Y-101806814D01*
X114000500Y-101692686D01*
X113907314Y-101599500D01*
X113834866Y-101557672D01*
X113793187Y-101533608D01*
X113777396Y-101529377D01*
X113665892Y-101499500D01*
X113534108Y-101499500D01*
X113406812Y-101533608D01*
X113292686Y-101599500D01*
X113292683Y-101599502D01*
X113199502Y-101692683D01*
X113199500Y-101692686D01*
X113133608Y-101806812D01*
X113099500Y-101934108D01*
X110900500Y-101934108D01*
X110866392Y-101806814D01*
X110800500Y-101692686D01*
X110707314Y-101599500D01*
X110634866Y-101557672D01*
X110593187Y-101533608D01*
X110529539Y-101516554D01*
X110465892Y-101499500D01*
X110334108Y-101499500D01*
X110206812Y-101533608D01*
X110092686Y-101599500D01*
X110092683Y-101599502D01*
X109999502Y-101692683D01*
X109999500Y-101692686D01*
X109933608Y-101806812D01*
X109899500Y-101934108D01*
X105100500Y-101934108D01*
X105066392Y-101806814D01*
X105000500Y-101692686D01*
X104907314Y-101599500D01*
X104834866Y-101557672D01*
X104793187Y-101533608D01*
X104729539Y-101516554D01*
X104665892Y-101499500D01*
X104534108Y-101499500D01*
X104406812Y-101533608D01*
X104292686Y-101599500D01*
X104292683Y-101599502D01*
X104199502Y-101692683D01*
X104199500Y-101692686D01*
X104133608Y-101806812D01*
X104099500Y-101934108D01*
X102900500Y-101934108D01*
X102866392Y-101806814D01*
X102800500Y-101692686D01*
X102707314Y-101599500D01*
X102634866Y-101557672D01*
X102593187Y-101533608D01*
X102529539Y-101516554D01*
X102465892Y-101499500D01*
X102334108Y-101499500D01*
X102206812Y-101533608D01*
X102092686Y-101599500D01*
X102092683Y-101599502D01*
X101999502Y-101692683D01*
X101999500Y-101692686D01*
X101933608Y-101806812D01*
X101899500Y-101934108D01*
X78761068Y-101934108D01*
X78775615Y-101925709D01*
X78878109Y-101823215D01*
X78950584Y-101697685D01*
X78988100Y-101557675D01*
X78988100Y-101412725D01*
X136827800Y-101412725D01*
X136827800Y-101557675D01*
X136839008Y-101599502D01*
X136865317Y-101697688D01*
X136937788Y-101823211D01*
X136937790Y-101823213D01*
X136937791Y-101823215D01*
X137040285Y-101925709D01*
X137040286Y-101925710D01*
X137040288Y-101925711D01*
X137165811Y-101998182D01*
X137165812Y-101998182D01*
X137165815Y-101998184D01*
X137305825Y-102035700D01*
X137305828Y-102035700D01*
X137450772Y-102035700D01*
X137450775Y-102035700D01*
X137590785Y-101998184D01*
X137709357Y-101929726D01*
X142141858Y-101929726D01*
X142410000Y-102197868D01*
X142410001Y-102197868D01*
X142678141Y-101929726D01*
X143321858Y-101929726D01*
X143590000Y-102197868D01*
X143590001Y-102197868D01*
X143858141Y-101929726D01*
X143802292Y-101897482D01*
X143802293Y-101897482D01*
X143662406Y-101860000D01*
X143517594Y-101860000D01*
X143377709Y-101897482D01*
X143377704Y-101897484D01*
X143321858Y-101929726D01*
X142678141Y-101929726D01*
X142622292Y-101897482D01*
X142622293Y-101897482D01*
X142482406Y-101860000D01*
X142337594Y-101860000D01*
X142197709Y-101897482D01*
X142197704Y-101897484D01*
X142141858Y-101929726D01*
X137709357Y-101929726D01*
X137716315Y-101925709D01*
X137818809Y-101823215D01*
X137891284Y-101697685D01*
X137928800Y-101557675D01*
X137928800Y-101412725D01*
X137891284Y-101272715D01*
X137887633Y-101266392D01*
X137818811Y-101147188D01*
X137818806Y-101147182D01*
X137716317Y-101044693D01*
X137716311Y-101044688D01*
X137590788Y-100972217D01*
X137590789Y-100972217D01*
X137579306Y-100969140D01*
X137450775Y-100934700D01*
X137305825Y-100934700D01*
X137177293Y-100969140D01*
X137165811Y-100972217D01*
X137040288Y-101044688D01*
X137040282Y-101044693D01*
X136937793Y-101147182D01*
X136937788Y-101147188D01*
X136865317Y-101272711D01*
X136865316Y-101272715D01*
X136827800Y-101412725D01*
X78988100Y-101412725D01*
X78950584Y-101272715D01*
X78946933Y-101266392D01*
X78878111Y-101147188D01*
X78878106Y-101147182D01*
X78775617Y-101044693D01*
X78775611Y-101044688D01*
X78650088Y-100972217D01*
X78650089Y-100972217D01*
X78638606Y-100969140D01*
X78510075Y-100934700D01*
X78365125Y-100934700D01*
X78236593Y-100969140D01*
X78225111Y-100972217D01*
X78099588Y-101044688D01*
X78099582Y-101044693D01*
X77997093Y-101147182D01*
X77997088Y-101147188D01*
X77924617Y-101272711D01*
X77924616Y-101272715D01*
X77887100Y-101412725D01*
X51000000Y-101412725D01*
X51000000Y-100334108D01*
X103499500Y-100334108D01*
X103499500Y-100465892D01*
X103516554Y-100529539D01*
X103533608Y-100593187D01*
X103541474Y-100606811D01*
X103599500Y-100707314D01*
X103692686Y-100800500D01*
X103791521Y-100857563D01*
X103805944Y-100865890D01*
X103806814Y-100866392D01*
X103934108Y-100900500D01*
X103934110Y-100900500D01*
X104065890Y-100900500D01*
X104065892Y-100900500D01*
X104193186Y-100866392D01*
X104307314Y-100800500D01*
X104373706Y-100734108D01*
X112699500Y-100734108D01*
X112699500Y-100865891D01*
X112733608Y-100993187D01*
X112763346Y-101044693D01*
X112799500Y-101107314D01*
X112892686Y-101200500D01*
X113006814Y-101266392D01*
X113134108Y-101300500D01*
X113134110Y-101300500D01*
X113265890Y-101300500D01*
X113265892Y-101300500D01*
X113393186Y-101266392D01*
X113507314Y-101200500D01*
X113600500Y-101107314D01*
X113666392Y-100993186D01*
X113700500Y-100865892D01*
X113700500Y-100734108D01*
X113666392Y-100606814D01*
X113652311Y-100582425D01*
X127499900Y-100582425D01*
X127499900Y-100727375D01*
X127537016Y-100865891D01*
X127537417Y-100867388D01*
X127609888Y-100992911D01*
X127609890Y-100992913D01*
X127609891Y-100992915D01*
X127712385Y-101095409D01*
X127712386Y-101095410D01*
X127712388Y-101095411D01*
X127837911Y-101167882D01*
X127837912Y-101167882D01*
X127837915Y-101167884D01*
X127977925Y-101205400D01*
X127977928Y-101205400D01*
X128122872Y-101205400D01*
X128122875Y-101205400D01*
X128262885Y-101167884D01*
X128388415Y-101095409D01*
X128490909Y-100992915D01*
X128563384Y-100867385D01*
X128600900Y-100727375D01*
X128600900Y-100582425D01*
X128589887Y-100541325D01*
X141735700Y-100541325D01*
X141735700Y-100686275D01*
X141766306Y-100800497D01*
X141773217Y-100826288D01*
X141845688Y-100951811D01*
X141845690Y-100951813D01*
X141845691Y-100951815D01*
X141948185Y-101054309D01*
X141948186Y-101054310D01*
X141948188Y-101054311D01*
X142073711Y-101126782D01*
X142073712Y-101126782D01*
X142073715Y-101126784D01*
X142213725Y-101164300D01*
X142213728Y-101164300D01*
X142358672Y-101164300D01*
X142358675Y-101164300D01*
X142498685Y-101126784D01*
X142624215Y-101054309D01*
X142726709Y-100951815D01*
X142799184Y-100826285D01*
X142836700Y-100686275D01*
X142836700Y-100541325D01*
X142799184Y-100401315D01*
X142798137Y-100399502D01*
X142726711Y-100275788D01*
X142726706Y-100275782D01*
X142624217Y-100173293D01*
X142624211Y-100173288D01*
X142498688Y-100100817D01*
X142498689Y-100100817D01*
X142487206Y-100097740D01*
X142358675Y-100063300D01*
X142213725Y-100063300D01*
X142085193Y-100097740D01*
X142073711Y-100100817D01*
X141948188Y-100173288D01*
X141948182Y-100173293D01*
X141845693Y-100275782D01*
X141845688Y-100275788D01*
X141773217Y-100401311D01*
X141773216Y-100401315D01*
X141735700Y-100541325D01*
X128589887Y-100541325D01*
X128563384Y-100442415D01*
X128490909Y-100316885D01*
X128388415Y-100214391D01*
X128388413Y-100214390D01*
X128388411Y-100214388D01*
X128262888Y-100141917D01*
X128262889Y-100141917D01*
X128251406Y-100138840D01*
X128122875Y-100104400D01*
X127977925Y-100104400D01*
X127849393Y-100138840D01*
X127837911Y-100141917D01*
X127712388Y-100214388D01*
X127712382Y-100214393D01*
X127609893Y-100316882D01*
X127609888Y-100316888D01*
X127537417Y-100442411D01*
X127537416Y-100442415D01*
X127499900Y-100582425D01*
X113652311Y-100582425D01*
X113600500Y-100492686D01*
X113507314Y-100399500D01*
X113450250Y-100366554D01*
X113393187Y-100333608D01*
X113329539Y-100316554D01*
X113265892Y-100299500D01*
X113134108Y-100299500D01*
X113006812Y-100333608D01*
X112892686Y-100399500D01*
X112892683Y-100399502D01*
X112799502Y-100492683D01*
X112799500Y-100492686D01*
X112733608Y-100606812D01*
X112699500Y-100734108D01*
X104373706Y-100734108D01*
X104400500Y-100707314D01*
X104413023Y-100685622D01*
X104425520Y-100663980D01*
X104466390Y-100593189D01*
X104466392Y-100593186D01*
X104500500Y-100465892D01*
X104500500Y-100334108D01*
X104466392Y-100206814D01*
X104400500Y-100092686D01*
X104307314Y-99999500D01*
X104250250Y-99966554D01*
X104193187Y-99933608D01*
X104129539Y-99916554D01*
X104065892Y-99899500D01*
X103934108Y-99899500D01*
X103806812Y-99933608D01*
X103692686Y-99999500D01*
X103692683Y-99999502D01*
X103599502Y-100092683D01*
X103599500Y-100092686D01*
X103533608Y-100206812D01*
X103508773Y-100299500D01*
X103499500Y-100334108D01*
X51000000Y-100334108D01*
X51000000Y-98734108D01*
X104499500Y-98734108D01*
X104499500Y-98865891D01*
X104533608Y-98993187D01*
X104566554Y-99050250D01*
X104599500Y-99107314D01*
X104692686Y-99200500D01*
X104806814Y-99266392D01*
X104934108Y-99300500D01*
X104934110Y-99300500D01*
X105065890Y-99300500D01*
X105065892Y-99300500D01*
X105193186Y-99266392D01*
X105307314Y-99200500D01*
X105400500Y-99107314D01*
X105420123Y-99073325D01*
X131898600Y-99073325D01*
X131898600Y-99218275D01*
X131936116Y-99358285D01*
X131936117Y-99358288D01*
X132008588Y-99483811D01*
X132008590Y-99483813D01*
X132008591Y-99483815D01*
X132111085Y-99586309D01*
X132111086Y-99586310D01*
X132111088Y-99586311D01*
X132236611Y-99658782D01*
X132236612Y-99658782D01*
X132236615Y-99658784D01*
X132376625Y-99696300D01*
X132376628Y-99696300D01*
X132521572Y-99696300D01*
X132521575Y-99696300D01*
X132661585Y-99658784D01*
X132787115Y-99586309D01*
X132889609Y-99483815D01*
X132962084Y-99358285D01*
X132999600Y-99218275D01*
X132999600Y-99073325D01*
X132989177Y-99034425D01*
X141456400Y-99034425D01*
X141456400Y-99179375D01*
X141488856Y-99300500D01*
X141493917Y-99319388D01*
X141566388Y-99444911D01*
X141566390Y-99444913D01*
X141566391Y-99444915D01*
X141668885Y-99547409D01*
X141668886Y-99547410D01*
X141668888Y-99547411D01*
X141794411Y-99619882D01*
X141794412Y-99619882D01*
X141794415Y-99619884D01*
X141934425Y-99657400D01*
X141934428Y-99657400D01*
X142079372Y-99657400D01*
X142079375Y-99657400D01*
X142219385Y-99619884D01*
X142344915Y-99547409D01*
X142447409Y-99444915D01*
X142519884Y-99319385D01*
X142529211Y-99284576D01*
X142565575Y-99224917D01*
X142628422Y-99194388D01*
X142697797Y-99202683D01*
X142710972Y-99209277D01*
X142831015Y-99278584D01*
X142971025Y-99316100D01*
X142971028Y-99316100D01*
X143115972Y-99316100D01*
X143115975Y-99316100D01*
X143255985Y-99278584D01*
X143381515Y-99206109D01*
X143484009Y-99103615D01*
X143556484Y-98978085D01*
X143594000Y-98838075D01*
X143594000Y-98693125D01*
X143556484Y-98553115D01*
X143521593Y-98492683D01*
X143484011Y-98427588D01*
X143484006Y-98427582D01*
X143381517Y-98325093D01*
X143381511Y-98325088D01*
X143255988Y-98252617D01*
X143255989Y-98252617D01*
X143244506Y-98249540D01*
X143115975Y-98215100D01*
X142971025Y-98215100D01*
X142842493Y-98249540D01*
X142831011Y-98252617D01*
X142705488Y-98325088D01*
X142705482Y-98325093D01*
X142602993Y-98427582D01*
X142602988Y-98427588D01*
X142530517Y-98553111D01*
X142530515Y-98553114D01*
X142521188Y-98587924D01*
X142484822Y-98647584D01*
X142421974Y-98678112D01*
X142352599Y-98669815D01*
X142339420Y-98663218D01*
X142219385Y-98593916D01*
X142079375Y-98556400D01*
X141934425Y-98556400D01*
X141816777Y-98587924D01*
X141794411Y-98593917D01*
X141668888Y-98666388D01*
X141668882Y-98666393D01*
X141566393Y-98768882D01*
X141566388Y-98768888D01*
X141493917Y-98894411D01*
X141493916Y-98894415D01*
X141456400Y-99034425D01*
X132989177Y-99034425D01*
X132962084Y-98933315D01*
X132917628Y-98856316D01*
X132889611Y-98807788D01*
X132889606Y-98807782D01*
X132787117Y-98705293D01*
X132787111Y-98705288D01*
X132661588Y-98632817D01*
X132661589Y-98632817D01*
X132650106Y-98629740D01*
X132521575Y-98595300D01*
X132376625Y-98595300D01*
X132248093Y-98629740D01*
X132236611Y-98632817D01*
X132111088Y-98705288D01*
X132111082Y-98705293D01*
X132008593Y-98807782D01*
X132008588Y-98807788D01*
X131936117Y-98933311D01*
X131936116Y-98933315D01*
X131898600Y-99073325D01*
X105420123Y-99073325D01*
X105428745Y-99058392D01*
X105460612Y-99003198D01*
X105460612Y-99003197D01*
X105466391Y-98993187D01*
X105466392Y-98993186D01*
X105500500Y-98865892D01*
X105500500Y-98734108D01*
X105466392Y-98606814D01*
X105400500Y-98492686D01*
X105307314Y-98399500D01*
X105250250Y-98366554D01*
X105193187Y-98333608D01*
X105129539Y-98316554D01*
X105065892Y-98299500D01*
X104934108Y-98299500D01*
X104806812Y-98333608D01*
X104692686Y-98399500D01*
X104692683Y-98399502D01*
X104599502Y-98492683D01*
X104599500Y-98492686D01*
X104533608Y-98606812D01*
X104499500Y-98734108D01*
X51000000Y-98734108D01*
X51000000Y-98134108D01*
X109099500Y-98134108D01*
X109099500Y-98265891D01*
X109133608Y-98393187D01*
X109153468Y-98427585D01*
X109199500Y-98507314D01*
X109292686Y-98600500D01*
X109406814Y-98666392D01*
X109534108Y-98700500D01*
X109534110Y-98700500D01*
X109665890Y-98700500D01*
X109665892Y-98700500D01*
X109793186Y-98666392D01*
X109907314Y-98600500D01*
X110000500Y-98507314D01*
X110066392Y-98393186D01*
X110100500Y-98265892D01*
X110100500Y-98134108D01*
X110066392Y-98006814D01*
X110000500Y-97892686D01*
X109907314Y-97799500D01*
X109850250Y-97766554D01*
X109793187Y-97733608D01*
X109729539Y-97716554D01*
X109665892Y-97699500D01*
X109534108Y-97699500D01*
X109406812Y-97733608D01*
X109292686Y-97799500D01*
X109292683Y-97799502D01*
X109199502Y-97892683D01*
X109199500Y-97892686D01*
X109133608Y-98006812D01*
X109099500Y-98134108D01*
X51000000Y-98134108D01*
X51000000Y-97029125D01*
X87405400Y-97029125D01*
X87405400Y-97174075D01*
X87428967Y-97262027D01*
X87442917Y-97314088D01*
X87515388Y-97439611D01*
X87515390Y-97439613D01*
X87515391Y-97439615D01*
X87617885Y-97542109D01*
X87617886Y-97542110D01*
X87617888Y-97542111D01*
X87743411Y-97614582D01*
X87743412Y-97614582D01*
X87743415Y-97614584D01*
X87883425Y-97652100D01*
X87883428Y-97652100D01*
X88028372Y-97652100D01*
X88028375Y-97652100D01*
X88168385Y-97614584D01*
X88293915Y-97542109D01*
X88396409Y-97439615D01*
X88468884Y-97314085D01*
X88482834Y-97262025D01*
X143959700Y-97262025D01*
X143959700Y-97406975D01*
X143995910Y-97542111D01*
X143997217Y-97546988D01*
X144069688Y-97672511D01*
X144069690Y-97672513D01*
X144069691Y-97672515D01*
X144172185Y-97775009D01*
X144172186Y-97775010D01*
X144172188Y-97775011D01*
X144297711Y-97847482D01*
X144297712Y-97847482D01*
X144297715Y-97847484D01*
X144437725Y-97885000D01*
X144437728Y-97885000D01*
X144582672Y-97885000D01*
X144582675Y-97885000D01*
X144722685Y-97847484D01*
X144848215Y-97775009D01*
X144950709Y-97672515D01*
X145023184Y-97546985D01*
X145060700Y-97406975D01*
X145060700Y-97262025D01*
X145023184Y-97122015D01*
X144950709Y-96996485D01*
X144848215Y-96893991D01*
X144848213Y-96893990D01*
X144848211Y-96893988D01*
X144722688Y-96821517D01*
X144722689Y-96821517D01*
X144711206Y-96818440D01*
X144582675Y-96784000D01*
X144437725Y-96784000D01*
X144309193Y-96818440D01*
X144297711Y-96821517D01*
X144172188Y-96893988D01*
X144172182Y-96893993D01*
X144069693Y-96996482D01*
X144069688Y-96996488D01*
X143997217Y-97122011D01*
X143997216Y-97122015D01*
X143959700Y-97262025D01*
X88482834Y-97262025D01*
X88506400Y-97174075D01*
X88506400Y-97029125D01*
X88468884Y-96889115D01*
X88396409Y-96763585D01*
X88293915Y-96661091D01*
X88293913Y-96661090D01*
X88293911Y-96661088D01*
X88168388Y-96588617D01*
X88168389Y-96588617D01*
X88156906Y-96585540D01*
X88028375Y-96551100D01*
X87883425Y-96551100D01*
X87754893Y-96585540D01*
X87743411Y-96588617D01*
X87617888Y-96661088D01*
X87617882Y-96661093D01*
X87515393Y-96763582D01*
X87515388Y-96763588D01*
X87442917Y-96889111D01*
X87442916Y-96889115D01*
X87405400Y-97029125D01*
X51000000Y-97029125D01*
X51000000Y-94845272D01*
X63366857Y-94845272D01*
X63366857Y-94845273D01*
X63422704Y-94877516D01*
X63422703Y-94877516D01*
X63562594Y-94915000D01*
X63707406Y-94915000D01*
X63847293Y-94877517D01*
X63847294Y-94877516D01*
X63938000Y-94825148D01*
X64005900Y-94808675D01*
X64062000Y-94825148D01*
X64152705Y-94877516D01*
X64152706Y-94877517D01*
X64292594Y-94915000D01*
X64437406Y-94915000D01*
X64577289Y-94877518D01*
X64593905Y-94867925D01*
X123130800Y-94867925D01*
X123130800Y-95012875D01*
X123160365Y-95123211D01*
X123168317Y-95152888D01*
X123240788Y-95278411D01*
X123240790Y-95278413D01*
X123240791Y-95278415D01*
X123343285Y-95380909D01*
X123343286Y-95380910D01*
X123343288Y-95380911D01*
X123468811Y-95453382D01*
X123468812Y-95453382D01*
X123468815Y-95453384D01*
X123608825Y-95490900D01*
X123608828Y-95490900D01*
X123753772Y-95490900D01*
X123753775Y-95490900D01*
X123893785Y-95453384D01*
X124019315Y-95380909D01*
X124028799Y-95371425D01*
X131149800Y-95371425D01*
X131149800Y-95516375D01*
X131174274Y-95607711D01*
X131187317Y-95656388D01*
X131259788Y-95781911D01*
X131259790Y-95781913D01*
X131259791Y-95781915D01*
X131362285Y-95884409D01*
X131362286Y-95884410D01*
X131362288Y-95884411D01*
X131487811Y-95956882D01*
X131487812Y-95956882D01*
X131487815Y-95956884D01*
X131627825Y-95994400D01*
X131627828Y-95994400D01*
X131772772Y-95994400D01*
X131772775Y-95994400D01*
X131912785Y-95956884D01*
X132038315Y-95884409D01*
X132140809Y-95781915D01*
X132213284Y-95656385D01*
X132250800Y-95516375D01*
X132250800Y-95371425D01*
X132213284Y-95231415D01*
X132213145Y-95231175D01*
X132140811Y-95105888D01*
X132140806Y-95105882D01*
X132038317Y-95003393D01*
X132038311Y-95003388D01*
X131912788Y-94930917D01*
X131912789Y-94930917D01*
X131901306Y-94927840D01*
X131772775Y-94893400D01*
X131627825Y-94893400D01*
X131499293Y-94927840D01*
X131487811Y-94930917D01*
X131362288Y-95003388D01*
X131362282Y-95003393D01*
X131259793Y-95105882D01*
X131259788Y-95105888D01*
X131187317Y-95231411D01*
X131185103Y-95239675D01*
X131149800Y-95371425D01*
X124028799Y-95371425D01*
X124121809Y-95278415D01*
X124194284Y-95152885D01*
X124231800Y-95012875D01*
X124231800Y-94867925D01*
X124194284Y-94727915D01*
X124126335Y-94610225D01*
X135053000Y-94610225D01*
X135053000Y-94755175D01*
X135072832Y-94829188D01*
X135090517Y-94895188D01*
X135162988Y-95020711D01*
X135162990Y-95020713D01*
X135162991Y-95020715D01*
X135265485Y-95123209D01*
X135265486Y-95123210D01*
X135265488Y-95123211D01*
X135391011Y-95195682D01*
X135391012Y-95195682D01*
X135391015Y-95195684D01*
X135531025Y-95233200D01*
X135531028Y-95233200D01*
X135675972Y-95233200D01*
X135675975Y-95233200D01*
X135815985Y-95195684D01*
X135941515Y-95123209D01*
X135978499Y-95086225D01*
X151024500Y-95086225D01*
X151024500Y-95231175D01*
X151037159Y-95278417D01*
X151062017Y-95371188D01*
X151134488Y-95496711D01*
X151134490Y-95496713D01*
X151134491Y-95496715D01*
X151236985Y-95599209D01*
X151236986Y-95599210D01*
X151236988Y-95599211D01*
X151362511Y-95671682D01*
X151362512Y-95671682D01*
X151362515Y-95671684D01*
X151502525Y-95709200D01*
X151502528Y-95709200D01*
X151647472Y-95709200D01*
X151647475Y-95709200D01*
X151787485Y-95671684D01*
X151913015Y-95599209D01*
X152015509Y-95496715D01*
X152087984Y-95371185D01*
X152125500Y-95231175D01*
X152125500Y-95094725D01*
X153664900Y-95094725D01*
X153664900Y-95239675D01*
X153700139Y-95371188D01*
X153702417Y-95379688D01*
X153774888Y-95505211D01*
X153774890Y-95505213D01*
X153774891Y-95505215D01*
X153877385Y-95607709D01*
X153877386Y-95607710D01*
X153877388Y-95607711D01*
X154002911Y-95680182D01*
X154002912Y-95680182D01*
X154002915Y-95680184D01*
X154142925Y-95717700D01*
X154142928Y-95717700D01*
X154287872Y-95717700D01*
X154287875Y-95717700D01*
X154427885Y-95680184D01*
X154553415Y-95607709D01*
X154655909Y-95505215D01*
X154728384Y-95379685D01*
X154765900Y-95239675D01*
X154765900Y-95094725D01*
X154728384Y-94954715D01*
X154723474Y-94946211D01*
X154655911Y-94829188D01*
X154655906Y-94829182D01*
X154553417Y-94726693D01*
X154553411Y-94726688D01*
X154427888Y-94654217D01*
X154427889Y-94654217D01*
X154416406Y-94651140D01*
X154287875Y-94616700D01*
X154142925Y-94616700D01*
X154014393Y-94651140D01*
X154002911Y-94654217D01*
X153877388Y-94726688D01*
X153877382Y-94726693D01*
X153774893Y-94829182D01*
X153774888Y-94829188D01*
X153702417Y-94954711D01*
X153702416Y-94954715D01*
X153664900Y-95094725D01*
X152125500Y-95094725D01*
X152125500Y-95086225D01*
X152087984Y-94946215D01*
X152058523Y-94895188D01*
X152015511Y-94820688D01*
X152015506Y-94820682D01*
X151913017Y-94718193D01*
X151913011Y-94718188D01*
X151787488Y-94645717D01*
X151787489Y-94645717D01*
X151776006Y-94642640D01*
X151647475Y-94608200D01*
X151502525Y-94608200D01*
X151373993Y-94642640D01*
X151362511Y-94645717D01*
X151236988Y-94718188D01*
X151236982Y-94718193D01*
X151134493Y-94820682D01*
X151134488Y-94820688D01*
X151062017Y-94946211D01*
X151062016Y-94946215D01*
X151024500Y-95086225D01*
X135978499Y-95086225D01*
X136044009Y-95020715D01*
X136116484Y-94895185D01*
X136154000Y-94755175D01*
X136154000Y-94610225D01*
X136116484Y-94470215D01*
X136091774Y-94427417D01*
X136044011Y-94344688D01*
X136044006Y-94344682D01*
X135941517Y-94242193D01*
X135941511Y-94242188D01*
X135815988Y-94169717D01*
X135815989Y-94169717D01*
X135804506Y-94166640D01*
X135675975Y-94132200D01*
X135531025Y-94132200D01*
X135402493Y-94166640D01*
X135391011Y-94169717D01*
X135265488Y-94242188D01*
X135265482Y-94242193D01*
X135162993Y-94344682D01*
X135162988Y-94344688D01*
X135090517Y-94470211D01*
X135090516Y-94470215D01*
X135053000Y-94610225D01*
X124126335Y-94610225D01*
X124121809Y-94602385D01*
X124019315Y-94499891D01*
X124019313Y-94499890D01*
X124019311Y-94499888D01*
X123893788Y-94427417D01*
X123893789Y-94427417D01*
X123882306Y-94424340D01*
X123753775Y-94389900D01*
X123608825Y-94389900D01*
X123480293Y-94424340D01*
X123468811Y-94427417D01*
X123343288Y-94499888D01*
X123343282Y-94499893D01*
X123240793Y-94602382D01*
X123240788Y-94602388D01*
X123168317Y-94727911D01*
X123168316Y-94727915D01*
X123130800Y-94867925D01*
X64593905Y-94867925D01*
X64633141Y-94845272D01*
X64258934Y-94471066D01*
X64132977Y-94345109D01*
X64265000Y-94345109D01*
X64265000Y-94384891D01*
X64280224Y-94421645D01*
X64308355Y-94449776D01*
X64345109Y-94465000D01*
X64384891Y-94465000D01*
X64421645Y-94449776D01*
X64449776Y-94421645D01*
X64465000Y-94384891D01*
X64465000Y-94345109D01*
X64449776Y-94308355D01*
X64421645Y-94280224D01*
X64384891Y-94265000D01*
X64345109Y-94265000D01*
X64308355Y-94280224D01*
X64280224Y-94308355D01*
X64265000Y-94345109D01*
X64132977Y-94345109D01*
X64000000Y-94212132D01*
X63741066Y-94471066D01*
X63366857Y-94845272D01*
X51000000Y-94845272D01*
X51000000Y-93562593D01*
X63085000Y-93562593D01*
X63085000Y-93707406D01*
X63122482Y-93847292D01*
X63174852Y-93938001D01*
X63191323Y-94005901D01*
X63174852Y-94061999D01*
X63122482Y-94152707D01*
X63085000Y-94292593D01*
X63085000Y-94437406D01*
X63122482Y-94577292D01*
X63154726Y-94633140D01*
X63442759Y-94345109D01*
X63535000Y-94345109D01*
X63535000Y-94384891D01*
X63550224Y-94421645D01*
X63578355Y-94449776D01*
X63615109Y-94465000D01*
X63654891Y-94465000D01*
X63691645Y-94449776D01*
X63719776Y-94421645D01*
X63735000Y-94384891D01*
X63735000Y-94345109D01*
X63719776Y-94308355D01*
X63691645Y-94280224D01*
X63654891Y-94265000D01*
X63615109Y-94265000D01*
X63578355Y-94280224D01*
X63550224Y-94308355D01*
X63535000Y-94345109D01*
X63442759Y-94345109D01*
X63528934Y-94258934D01*
X63787868Y-94000000D01*
X64212132Y-94000000D01*
X64471066Y-94258934D01*
X64845272Y-94633141D01*
X64877518Y-94577289D01*
X64915000Y-94437406D01*
X64915000Y-94292593D01*
X64894952Y-94217776D01*
X64879684Y-94184025D01*
X66263100Y-94184025D01*
X66263100Y-94328975D01*
X66295469Y-94449776D01*
X66300617Y-94468988D01*
X66373088Y-94594511D01*
X66373090Y-94594513D01*
X66373091Y-94594515D01*
X66475585Y-94697009D01*
X66475586Y-94697010D01*
X66475588Y-94697011D01*
X66601111Y-94769482D01*
X66601112Y-94769482D01*
X66601115Y-94769484D01*
X66741125Y-94807000D01*
X66741128Y-94807000D01*
X66886072Y-94807000D01*
X66886075Y-94807000D01*
X67026085Y-94769484D01*
X67151615Y-94697009D01*
X67254109Y-94594515D01*
X67326584Y-94468985D01*
X67364100Y-94328975D01*
X67364100Y-94184025D01*
X67326584Y-94044015D01*
X67297765Y-93994100D01*
X67254111Y-93918488D01*
X67254106Y-93918482D01*
X67151617Y-93815993D01*
X67151611Y-93815988D01*
X67026088Y-93743517D01*
X67026089Y-93743517D01*
X66994303Y-93735000D01*
X66886075Y-93706000D01*
X66741125Y-93706000D01*
X66632897Y-93735000D01*
X66601111Y-93743517D01*
X66475588Y-93815988D01*
X66475582Y-93815993D01*
X66373093Y-93918482D01*
X66373088Y-93918488D01*
X66300617Y-94044011D01*
X66300616Y-94044015D01*
X66263100Y-94184025D01*
X64879684Y-94184025D01*
X64819557Y-94051108D01*
X64815525Y-94022335D01*
X64808675Y-93994100D01*
X64810633Y-93987429D01*
X64809861Y-93981914D01*
X64816449Y-93967621D01*
X64825148Y-93938000D01*
X64877516Y-93847294D01*
X64877517Y-93847293D01*
X64915000Y-93707406D01*
X64915000Y-93562593D01*
X64896457Y-93493392D01*
X64896457Y-93493391D01*
X64890035Y-93469425D01*
X69452200Y-93469425D01*
X69452200Y-93614375D01*
X69484522Y-93735000D01*
X69489717Y-93754388D01*
X69562188Y-93879911D01*
X69562190Y-93879913D01*
X69562191Y-93879915D01*
X69664685Y-93982409D01*
X69664686Y-93982410D01*
X69664688Y-93982411D01*
X69790211Y-94054882D01*
X69790212Y-94054882D01*
X69790215Y-94054884D01*
X69930225Y-94092400D01*
X69930228Y-94092400D01*
X70075172Y-94092400D01*
X70075175Y-94092400D01*
X70215185Y-94054884D01*
X70340715Y-93982409D01*
X70443209Y-93879915D01*
X70515684Y-93754385D01*
X70553200Y-93614375D01*
X70553200Y-93469425D01*
X70515684Y-93329415D01*
X70443209Y-93203885D01*
X70340715Y-93101391D01*
X70340713Y-93101390D01*
X70340711Y-93101388D01*
X70215188Y-93028917D01*
X70215189Y-93028917D01*
X70203706Y-93025840D01*
X70075175Y-92991400D01*
X69930225Y-92991400D01*
X69801693Y-93025840D01*
X69790211Y-93028917D01*
X69664688Y-93101388D01*
X69664682Y-93101393D01*
X69562193Y-93203882D01*
X69562188Y-93203888D01*
X69489717Y-93329411D01*
X69489716Y-93329415D01*
X69452200Y-93469425D01*
X64890035Y-93469425D01*
X64877516Y-93422705D01*
X64877516Y-93422704D01*
X64845272Y-93366857D01*
X64471066Y-93741066D01*
X64212132Y-94000000D01*
X63787868Y-94000000D01*
X63402977Y-93615109D01*
X63535000Y-93615109D01*
X63535000Y-93654891D01*
X63550224Y-93691645D01*
X63578355Y-93719776D01*
X63615109Y-93735000D01*
X63654891Y-93735000D01*
X63691645Y-93719776D01*
X63719776Y-93691645D01*
X63735000Y-93654891D01*
X63735000Y-93615109D01*
X63719776Y-93578355D01*
X63691645Y-93550224D01*
X63654891Y-93535000D01*
X63615109Y-93535000D01*
X63578355Y-93550224D01*
X63550224Y-93578355D01*
X63535000Y-93615109D01*
X63402977Y-93615109D01*
X63154726Y-93366858D01*
X63122484Y-93422704D01*
X63122482Y-93422709D01*
X63085000Y-93562593D01*
X51000000Y-93562593D01*
X51000000Y-93154726D01*
X63366858Y-93154726D01*
X64000000Y-93787868D01*
X64172759Y-93615109D01*
X64265000Y-93615109D01*
X64265000Y-93654891D01*
X64280224Y-93691645D01*
X64308355Y-93719776D01*
X64345109Y-93735000D01*
X64384891Y-93735000D01*
X64421645Y-93719776D01*
X64449776Y-93691645D01*
X64465000Y-93654891D01*
X64465000Y-93615109D01*
X64449776Y-93578355D01*
X64421645Y-93550224D01*
X64384891Y-93535000D01*
X64345109Y-93535000D01*
X64308355Y-93550224D01*
X64280224Y-93578355D01*
X64265000Y-93615109D01*
X64172759Y-93615109D01*
X64258934Y-93528934D01*
X64633141Y-93154726D01*
X64577292Y-93122482D01*
X64577293Y-93122482D01*
X64437406Y-93085000D01*
X64292594Y-93085000D01*
X64152707Y-93122482D01*
X64061999Y-93174852D01*
X63994099Y-93191323D01*
X63938001Y-93174852D01*
X63847292Y-93122482D01*
X63847293Y-93122482D01*
X63707406Y-93085000D01*
X63562594Y-93085000D01*
X63422709Y-93122482D01*
X63422704Y-93122484D01*
X63366858Y-93154726D01*
X51000000Y-93154726D01*
X51000000Y-92640957D01*
X51019685Y-92573918D01*
X51042313Y-92548500D01*
X51042235Y-92548422D01*
X51043593Y-92547063D01*
X51045346Y-92545095D01*
X51046533Y-92544119D01*
X51046542Y-92544114D01*
X51144114Y-92446542D01*
X51220775Y-92331811D01*
X51273580Y-92204328D01*
X51282389Y-92160041D01*
X51300500Y-92068995D01*
X56699499Y-92068995D01*
X56726418Y-92204322D01*
X56726421Y-92204332D01*
X56779221Y-92331804D01*
X56779228Y-92331817D01*
X56855885Y-92446541D01*
X56855888Y-92446545D01*
X56953454Y-92544111D01*
X56953458Y-92544114D01*
X57068182Y-92620771D01*
X57068195Y-92620778D01*
X57148423Y-92654009D01*
X57195672Y-92673580D01*
X57195676Y-92673580D01*
X57195677Y-92673581D01*
X57331004Y-92700500D01*
X57331007Y-92700500D01*
X57468995Y-92700500D01*
X57560041Y-92682389D01*
X57604328Y-92673580D01*
X57731811Y-92620775D01*
X57846542Y-92544114D01*
X57944114Y-92446542D01*
X58020775Y-92331811D01*
X58073580Y-92204328D01*
X58082389Y-92160041D01*
X58086172Y-92141025D01*
X74675300Y-92141025D01*
X74675300Y-92285975D01*
X74701562Y-92383984D01*
X74712817Y-92425988D01*
X74785288Y-92551511D01*
X74785290Y-92551513D01*
X74785291Y-92551515D01*
X74887785Y-92654009D01*
X74887786Y-92654010D01*
X74887788Y-92654011D01*
X75013311Y-92726482D01*
X75013312Y-92726482D01*
X75013315Y-92726484D01*
X75153325Y-92764000D01*
X75153328Y-92764000D01*
X75298272Y-92764000D01*
X75298275Y-92764000D01*
X75438285Y-92726484D01*
X75563815Y-92654009D01*
X75666309Y-92551515D01*
X75737329Y-92428504D01*
X75787895Y-92380290D01*
X75856502Y-92367067D01*
X75900582Y-92381157D01*
X75900701Y-92380872D01*
X75904127Y-92382291D01*
X75906711Y-92383117D01*
X75908207Y-92383981D01*
X75908210Y-92383982D01*
X75908212Y-92383982D01*
X75908215Y-92383984D01*
X76048225Y-92421500D01*
X76048228Y-92421500D01*
X76193172Y-92421500D01*
X76193175Y-92421500D01*
X76333185Y-92383984D01*
X76458715Y-92311509D01*
X76561209Y-92209015D01*
X76575579Y-92184125D01*
X155164900Y-92184125D01*
X155164900Y-92329075D01*
X155202416Y-92469085D01*
X155202417Y-92469088D01*
X155274888Y-92594611D01*
X155274890Y-92594613D01*
X155274891Y-92594615D01*
X155377385Y-92697109D01*
X155377386Y-92697110D01*
X155377388Y-92697111D01*
X155502911Y-92769582D01*
X155502912Y-92769582D01*
X155502915Y-92769584D01*
X155642925Y-92807100D01*
X155642928Y-92807100D01*
X155787872Y-92807100D01*
X155787875Y-92807100D01*
X155927885Y-92769584D01*
X156053415Y-92697109D01*
X156155909Y-92594615D01*
X156228384Y-92469085D01*
X156265900Y-92329075D01*
X156265900Y-92184125D01*
X156228384Y-92044115D01*
X156172436Y-91947211D01*
X156155911Y-91918588D01*
X156155906Y-91918582D01*
X156053417Y-91816093D01*
X156053411Y-91816088D01*
X155927888Y-91743617D01*
X155927889Y-91743617D01*
X155916406Y-91740540D01*
X155787875Y-91706100D01*
X155642925Y-91706100D01*
X155514393Y-91740540D01*
X155502911Y-91743617D01*
X155377388Y-91816088D01*
X155377382Y-91816093D01*
X155274893Y-91918582D01*
X155274888Y-91918588D01*
X155202417Y-92044111D01*
X155202416Y-92044115D01*
X155164900Y-92184125D01*
X76575579Y-92184125D01*
X76633684Y-92083485D01*
X76671200Y-91943475D01*
X76671200Y-91798525D01*
X76633684Y-91658515D01*
X76632228Y-91655994D01*
X76561211Y-91532988D01*
X76561206Y-91532982D01*
X76458717Y-91430493D01*
X76458711Y-91430488D01*
X76333188Y-91358017D01*
X76333189Y-91358017D01*
X76321830Y-91354973D01*
X76193175Y-91320500D01*
X76048225Y-91320500D01*
X75919693Y-91354940D01*
X75908211Y-91358017D01*
X75782688Y-91430488D01*
X75782682Y-91430493D01*
X75680193Y-91532982D01*
X75680191Y-91532985D01*
X75609171Y-91655994D01*
X75558603Y-91704209D01*
X75489996Y-91717431D01*
X75445917Y-91703342D01*
X75445799Y-91703628D01*
X75442382Y-91702212D01*
X75439792Y-91701385D01*
X75438290Y-91700518D01*
X75438289Y-91700517D01*
X75426806Y-91697440D01*
X75298275Y-91663000D01*
X75153325Y-91663000D01*
X75024793Y-91697440D01*
X75013311Y-91700517D01*
X74887788Y-91772988D01*
X74887782Y-91772993D01*
X74785293Y-91875482D01*
X74785288Y-91875488D01*
X74712817Y-92001011D01*
X74712816Y-92001015D01*
X74675300Y-92141025D01*
X58086172Y-92141025D01*
X58100500Y-92068995D01*
X58100500Y-91931004D01*
X58073581Y-91795677D01*
X58073580Y-91795676D01*
X58073580Y-91795672D01*
X58044724Y-91726006D01*
X58020778Y-91668195D01*
X58020771Y-91668182D01*
X57944114Y-91553458D01*
X57944111Y-91553454D01*
X57846545Y-91455888D01*
X57846541Y-91455885D01*
X57814125Y-91434225D01*
X73094500Y-91434225D01*
X73094500Y-91579175D01*
X73128003Y-91704209D01*
X73132017Y-91719188D01*
X73204488Y-91844711D01*
X73204490Y-91844713D01*
X73204491Y-91844715D01*
X73306985Y-91947209D01*
X73306986Y-91947210D01*
X73306988Y-91947211D01*
X73432511Y-92019682D01*
X73432512Y-92019682D01*
X73432515Y-92019684D01*
X73572525Y-92057200D01*
X73572528Y-92057200D01*
X73717472Y-92057200D01*
X73717475Y-92057200D01*
X73857485Y-92019684D01*
X73983015Y-91947209D01*
X74085509Y-91844715D01*
X74157984Y-91719185D01*
X74195500Y-91579175D01*
X74195500Y-91434225D01*
X74157984Y-91294215D01*
X74111109Y-91213025D01*
X143733500Y-91213025D01*
X143733500Y-91357975D01*
X143759736Y-91455888D01*
X143771017Y-91497988D01*
X143843488Y-91623511D01*
X143843490Y-91623513D01*
X143843491Y-91623515D01*
X143945985Y-91726009D01*
X143945986Y-91726010D01*
X143945988Y-91726011D01*
X144071511Y-91798482D01*
X144071512Y-91798482D01*
X144071515Y-91798484D01*
X144211525Y-91836000D01*
X144211528Y-91836000D01*
X144356472Y-91836000D01*
X144356475Y-91836000D01*
X144496485Y-91798484D01*
X144622015Y-91726009D01*
X144724509Y-91623515D01*
X144796984Y-91497985D01*
X144834500Y-91357975D01*
X144834500Y-91213025D01*
X144796984Y-91073015D01*
X144793045Y-91066193D01*
X144724511Y-90947488D01*
X144724506Y-90947482D01*
X144622017Y-90844993D01*
X144622011Y-90844988D01*
X144496488Y-90772517D01*
X144496489Y-90772517D01*
X144485006Y-90769440D01*
X144356475Y-90735000D01*
X144211525Y-90735000D01*
X144082993Y-90769440D01*
X144071511Y-90772517D01*
X143945988Y-90844988D01*
X143945982Y-90844993D01*
X143843493Y-90947482D01*
X143843488Y-90947488D01*
X143771017Y-91073011D01*
X143771016Y-91073015D01*
X143733500Y-91213025D01*
X74111109Y-91213025D01*
X74085509Y-91168685D01*
X73983015Y-91066191D01*
X73983013Y-91066190D01*
X73983011Y-91066188D01*
X73857488Y-90993717D01*
X73857489Y-90993717D01*
X73846006Y-90990640D01*
X73717475Y-90956200D01*
X73572525Y-90956200D01*
X73443993Y-90990640D01*
X73432511Y-90993717D01*
X73306988Y-91066188D01*
X73306982Y-91066193D01*
X73204493Y-91168682D01*
X73204488Y-91168688D01*
X73132017Y-91294211D01*
X73132016Y-91294215D01*
X73094500Y-91434225D01*
X57814125Y-91434225D01*
X57731817Y-91379228D01*
X57731804Y-91379221D01*
X57604332Y-91326421D01*
X57604322Y-91326418D01*
X57468995Y-91299500D01*
X57468993Y-91299500D01*
X57331007Y-91299500D01*
X57331005Y-91299500D01*
X57195677Y-91326418D01*
X57195667Y-91326421D01*
X57068195Y-91379221D01*
X57068182Y-91379228D01*
X56953458Y-91455885D01*
X56953454Y-91455888D01*
X56855888Y-91553454D01*
X56855885Y-91553458D01*
X56779228Y-91668182D01*
X56779221Y-91668195D01*
X56726421Y-91795667D01*
X56726418Y-91795677D01*
X56699500Y-91931004D01*
X56699500Y-91931007D01*
X56699500Y-92068993D01*
X56699500Y-92068995D01*
X56699499Y-92068995D01*
X51300500Y-92068995D01*
X51300500Y-91931004D01*
X51273581Y-91795677D01*
X51273580Y-91795676D01*
X51273580Y-91795672D01*
X51244724Y-91726006D01*
X51220778Y-91668195D01*
X51220771Y-91668182D01*
X51144114Y-91553458D01*
X51144111Y-91553454D01*
X51046541Y-91455884D01*
X51045337Y-91454896D01*
X51044875Y-91454218D01*
X51042235Y-91451578D01*
X51042735Y-91451077D01*
X51006001Y-91397151D01*
X51000000Y-91359042D01*
X51000000Y-85565825D01*
X129172800Y-85565825D01*
X129172800Y-85710775D01*
X129210316Y-85850785D01*
X129210317Y-85850788D01*
X129282788Y-85976311D01*
X129282790Y-85976313D01*
X129282791Y-85976315D01*
X129385285Y-86078809D01*
X129385286Y-86078810D01*
X129385288Y-86078811D01*
X129510811Y-86151282D01*
X129510812Y-86151282D01*
X129510815Y-86151284D01*
X129650825Y-86188800D01*
X129650828Y-86188800D01*
X129795772Y-86188800D01*
X129795775Y-86188800D01*
X129935785Y-86151284D01*
X130061315Y-86078809D01*
X130163809Y-85976315D01*
X130236284Y-85850785D01*
X130273800Y-85710775D01*
X130273800Y-85565825D01*
X130236284Y-85425815D01*
X130198217Y-85359882D01*
X130163811Y-85300288D01*
X130163806Y-85300282D01*
X130061317Y-85197793D01*
X130061311Y-85197788D01*
X129935788Y-85125317D01*
X129935789Y-85125317D01*
X129905574Y-85117221D01*
X129795775Y-85087800D01*
X129650825Y-85087800D01*
X129541026Y-85117221D01*
X129510811Y-85125317D01*
X129385288Y-85197788D01*
X129385282Y-85197793D01*
X129282793Y-85300282D01*
X129282788Y-85300288D01*
X129210317Y-85425811D01*
X129209842Y-85427584D01*
X129172800Y-85565825D01*
X51000000Y-85565825D01*
X51000000Y-84842125D01*
X131322400Y-84842125D01*
X131322400Y-84987075D01*
X131357273Y-85117221D01*
X131359917Y-85127088D01*
X131432388Y-85252611D01*
X131432390Y-85252613D01*
X131432391Y-85252615D01*
X131534885Y-85355109D01*
X131534886Y-85355110D01*
X131534888Y-85355111D01*
X131660411Y-85427582D01*
X131660412Y-85427582D01*
X131660415Y-85427584D01*
X131800425Y-85465100D01*
X131800428Y-85465100D01*
X131945372Y-85465100D01*
X131945375Y-85465100D01*
X132085385Y-85427584D01*
X132210915Y-85355109D01*
X132313409Y-85252615D01*
X132385884Y-85127085D01*
X132423400Y-84987075D01*
X132423400Y-84842125D01*
X132405260Y-84774425D01*
X142963000Y-84774425D01*
X142963000Y-84919375D01*
X142982265Y-84991272D01*
X143000517Y-85059388D01*
X143072988Y-85184911D01*
X143072990Y-85184913D01*
X143072991Y-85184915D01*
X143175485Y-85287409D01*
X143175486Y-85287410D01*
X143175488Y-85287411D01*
X143301011Y-85359882D01*
X143301012Y-85359882D01*
X143301015Y-85359884D01*
X143441025Y-85397400D01*
X143441028Y-85397400D01*
X143585972Y-85397400D01*
X143585975Y-85397400D01*
X143725985Y-85359884D01*
X143851515Y-85287409D01*
X143954009Y-85184915D01*
X144026484Y-85059385D01*
X144064000Y-84919375D01*
X144064000Y-84774425D01*
X144035047Y-84666371D01*
X156767499Y-84666371D01*
X156805017Y-84806388D01*
X156877488Y-84931911D01*
X156877490Y-84931913D01*
X156877491Y-84931915D01*
X156979985Y-85034409D01*
X156979986Y-85034410D01*
X156979988Y-85034411D01*
X157105511Y-85106882D01*
X157105512Y-85106882D01*
X157105515Y-85106884D01*
X157245525Y-85144400D01*
X157245528Y-85144400D01*
X157390472Y-85144400D01*
X157390475Y-85144400D01*
X157498113Y-85115558D01*
X157567961Y-85117221D01*
X157625824Y-85156383D01*
X157637591Y-85173331D01*
X157685791Y-85256815D01*
X157788285Y-85359309D01*
X157788286Y-85359310D01*
X157788288Y-85359311D01*
X157913811Y-85431782D01*
X157913812Y-85431782D01*
X157913815Y-85431784D01*
X158053825Y-85469300D01*
X158053828Y-85469300D01*
X158198772Y-85469300D01*
X158198775Y-85469300D01*
X158338785Y-85431784D01*
X158464315Y-85359309D01*
X158566809Y-85256815D01*
X158639284Y-85131285D01*
X158676800Y-84991275D01*
X158676800Y-84846325D01*
X158639284Y-84706315D01*
X158616222Y-84666371D01*
X158566811Y-84580788D01*
X158566806Y-84580782D01*
X158464317Y-84478293D01*
X158464311Y-84478288D01*
X158338788Y-84405817D01*
X158338789Y-84405817D01*
X158323114Y-84401617D01*
X158198775Y-84368300D01*
X158053825Y-84368300D01*
X157946186Y-84397141D01*
X157876338Y-84395479D01*
X157818475Y-84356317D01*
X157806709Y-84339371D01*
X157758509Y-84255885D01*
X157656015Y-84153391D01*
X157656013Y-84153390D01*
X157656011Y-84153388D01*
X157530488Y-84080917D01*
X157530489Y-84080917D01*
X157519006Y-84077840D01*
X157390475Y-84043400D01*
X157245525Y-84043400D01*
X157116993Y-84077840D01*
X157105511Y-84080917D01*
X156979988Y-84153388D01*
X156979982Y-84153393D01*
X156877493Y-84255882D01*
X156877488Y-84255888D01*
X156805017Y-84381411D01*
X156805016Y-84381415D01*
X156767500Y-84521425D01*
X156767500Y-84521427D01*
X156767500Y-84666371D01*
X156767499Y-84666371D01*
X144035047Y-84666371D01*
X144026484Y-84634415D01*
X143995522Y-84580788D01*
X143992354Y-84575300D01*
X143992353Y-84575299D01*
X143992287Y-84575184D01*
X143954009Y-84508885D01*
X143851515Y-84406391D01*
X143851513Y-84406390D01*
X143851511Y-84406388D01*
X143725988Y-84333917D01*
X143725989Y-84333917D01*
X143714506Y-84330840D01*
X143585975Y-84296400D01*
X143441025Y-84296400D01*
X143312493Y-84330840D01*
X143301011Y-84333917D01*
X143175488Y-84406388D01*
X143175482Y-84406393D01*
X143072993Y-84508882D01*
X143072988Y-84508888D01*
X143000517Y-84634411D01*
X143000516Y-84634415D01*
X142963000Y-84774425D01*
X132405260Y-84774425D01*
X132385884Y-84702115D01*
X132365249Y-84666375D01*
X132313411Y-84576588D01*
X132313406Y-84576582D01*
X132210917Y-84474093D01*
X132210911Y-84474088D01*
X132085388Y-84401617D01*
X132085389Y-84401617D01*
X132068688Y-84397142D01*
X131945375Y-84364100D01*
X131800425Y-84364100D01*
X131677112Y-84397142D01*
X131660411Y-84401617D01*
X131534888Y-84474088D01*
X131534882Y-84474093D01*
X131432393Y-84576582D01*
X131432388Y-84576588D01*
X131359917Y-84702111D01*
X131359916Y-84702115D01*
X131322400Y-84842125D01*
X51000000Y-84842125D01*
X51000000Y-83989725D01*
X112195200Y-83989725D01*
X112195200Y-84134675D01*
X112232716Y-84274685D01*
X112232717Y-84274688D01*
X112305188Y-84400211D01*
X112305190Y-84400213D01*
X112305191Y-84400215D01*
X112407685Y-84502709D01*
X112407686Y-84502710D01*
X112407688Y-84502711D01*
X112533211Y-84575182D01*
X112533212Y-84575182D01*
X112533215Y-84575184D01*
X112673225Y-84612700D01*
X112673228Y-84612700D01*
X112818172Y-84612700D01*
X112818175Y-84612700D01*
X112958185Y-84575184D01*
X113083715Y-84502709D01*
X113186209Y-84400215D01*
X113258684Y-84274685D01*
X113296200Y-84134675D01*
X113296200Y-83989725D01*
X113258684Y-83849715D01*
X113229121Y-83798511D01*
X113186211Y-83724188D01*
X113186206Y-83724182D01*
X113083717Y-83621693D01*
X113083711Y-83621688D01*
X112958188Y-83549217D01*
X112958189Y-83549217D01*
X112946706Y-83546140D01*
X112818175Y-83511700D01*
X112673225Y-83511700D01*
X112544693Y-83546140D01*
X112533211Y-83549217D01*
X112407688Y-83621688D01*
X112407682Y-83621693D01*
X112305193Y-83724182D01*
X112305188Y-83724188D01*
X112232717Y-83849711D01*
X112232716Y-83849715D01*
X112195200Y-83989725D01*
X51000000Y-83989725D01*
X51000000Y-83388025D01*
X152380500Y-83388025D01*
X152380500Y-83532975D01*
X152418016Y-83672985D01*
X152418017Y-83672988D01*
X152490488Y-83798511D01*
X152490490Y-83798513D01*
X152490491Y-83798515D01*
X152592985Y-83901009D01*
X152592986Y-83901010D01*
X152592988Y-83901011D01*
X152718511Y-83973482D01*
X152718512Y-83973482D01*
X152718515Y-83973484D01*
X152858525Y-84011000D01*
X152858528Y-84011000D01*
X153003472Y-84011000D01*
X153003475Y-84011000D01*
X153143485Y-83973484D01*
X153269015Y-83901009D01*
X153371509Y-83798515D01*
X153443984Y-83672985D01*
X153481500Y-83532975D01*
X153481500Y-83388025D01*
X153443984Y-83248015D01*
X153398024Y-83168411D01*
X153371511Y-83122488D01*
X153371506Y-83122482D01*
X153269017Y-83019993D01*
X153269011Y-83019988D01*
X153143488Y-82947517D01*
X153143489Y-82947517D01*
X153132006Y-82944440D01*
X153003475Y-82910000D01*
X152858525Y-82910000D01*
X152729993Y-82944440D01*
X152718511Y-82947517D01*
X152592988Y-83019988D01*
X152592982Y-83019993D01*
X152490493Y-83122482D01*
X152490488Y-83122488D01*
X152418017Y-83248011D01*
X152418016Y-83248015D01*
X152380500Y-83388025D01*
X51000000Y-83388025D01*
X51000000Y-82757925D01*
X139895200Y-82757925D01*
X139895200Y-82902875D01*
X139925534Y-83016082D01*
X139932717Y-83042888D01*
X140005188Y-83168411D01*
X140005190Y-83168413D01*
X140005191Y-83168415D01*
X140107685Y-83270909D01*
X140107686Y-83270910D01*
X140107688Y-83270911D01*
X140233211Y-83343382D01*
X140233212Y-83343382D01*
X140233215Y-83343384D01*
X140373225Y-83380900D01*
X140373228Y-83380900D01*
X140518172Y-83380900D01*
X140518175Y-83380900D01*
X140658185Y-83343384D01*
X140783715Y-83270909D01*
X140886209Y-83168415D01*
X140958684Y-83042885D01*
X140996200Y-82902875D01*
X140996200Y-82757925D01*
X140958684Y-82617915D01*
X140886209Y-82492385D01*
X140824449Y-82430625D01*
X156775200Y-82430625D01*
X156775200Y-82575575D01*
X156812716Y-82715585D01*
X156812717Y-82715588D01*
X156885188Y-82841111D01*
X156885190Y-82841113D01*
X156885191Y-82841115D01*
X156987685Y-82943609D01*
X156987686Y-82943610D01*
X156987688Y-82943611D01*
X157113211Y-83016082D01*
X157113212Y-83016082D01*
X157113215Y-83016084D01*
X157253225Y-83053600D01*
X157253228Y-83053600D01*
X157398172Y-83053600D01*
X157398175Y-83053600D01*
X157538185Y-83016084D01*
X157663715Y-82943609D01*
X157766209Y-82841115D01*
X157838684Y-82715585D01*
X157876200Y-82575575D01*
X157876200Y-82430625D01*
X157838684Y-82290615D01*
X157766209Y-82165085D01*
X157663715Y-82062591D01*
X157663713Y-82062590D01*
X157663711Y-82062588D01*
X157538188Y-81990117D01*
X157538189Y-81990117D01*
X157506030Y-81981500D01*
X157398175Y-81952600D01*
X157253225Y-81952600D01*
X157145370Y-81981500D01*
X157113211Y-81990117D01*
X156987688Y-82062588D01*
X156987682Y-82062593D01*
X156885193Y-82165082D01*
X156885188Y-82165088D01*
X156812717Y-82290611D01*
X156812716Y-82290615D01*
X156775200Y-82430625D01*
X140824449Y-82430625D01*
X140783715Y-82389891D01*
X140783713Y-82389890D01*
X140783711Y-82389888D01*
X140658188Y-82317417D01*
X140658189Y-82317417D01*
X140646706Y-82314340D01*
X140518175Y-82279900D01*
X140373225Y-82279900D01*
X140244693Y-82314340D01*
X140233211Y-82317417D01*
X140107688Y-82389888D01*
X140107682Y-82389893D01*
X140005193Y-82492382D01*
X140005188Y-82492388D01*
X139932717Y-82617911D01*
X139932716Y-82617915D01*
X139895200Y-82757925D01*
X51000000Y-82757925D01*
X51000000Y-81358525D01*
X138493900Y-81358525D01*
X138493900Y-81503475D01*
X138531416Y-81643485D01*
X138531417Y-81643488D01*
X138603888Y-81769011D01*
X138603890Y-81769013D01*
X138603891Y-81769015D01*
X138706385Y-81871509D01*
X138706386Y-81871510D01*
X138706388Y-81871511D01*
X138831911Y-81943982D01*
X138831912Y-81943982D01*
X138831915Y-81943984D01*
X138971925Y-81981500D01*
X138971928Y-81981500D01*
X139116872Y-81981500D01*
X139116875Y-81981500D01*
X139256885Y-81943984D01*
X139382415Y-81871509D01*
X139484909Y-81769015D01*
X139557384Y-81643485D01*
X139594900Y-81503475D01*
X139594900Y-81358525D01*
X139557384Y-81218515D01*
X139542357Y-81192488D01*
X139484911Y-81092988D01*
X139484906Y-81092982D01*
X139382417Y-80990493D01*
X139382411Y-80990488D01*
X139256888Y-80918017D01*
X139256889Y-80918017D01*
X139245406Y-80914940D01*
X139116875Y-80880500D01*
X138971925Y-80880500D01*
X138843393Y-80914940D01*
X138831911Y-80918017D01*
X138706388Y-80990488D01*
X138706382Y-80990493D01*
X138603893Y-81092982D01*
X138603888Y-81092988D01*
X138531417Y-81218511D01*
X138531416Y-81218515D01*
X138493900Y-81358525D01*
X51000000Y-81358525D01*
X51000000Y-79717825D01*
X140431400Y-79717825D01*
X140431400Y-79862775D01*
X140468916Y-80002785D01*
X140468917Y-80002788D01*
X140541388Y-80128311D01*
X140541390Y-80128313D01*
X140541391Y-80128315D01*
X140643885Y-80230809D01*
X140643886Y-80230810D01*
X140643888Y-80230811D01*
X140769411Y-80303282D01*
X140769412Y-80303282D01*
X140769415Y-80303284D01*
X140909425Y-80340800D01*
X140909428Y-80340800D01*
X141054372Y-80340800D01*
X141054375Y-80340800D01*
X141194385Y-80303284D01*
X141319915Y-80230809D01*
X141422409Y-80128315D01*
X141494884Y-80002785D01*
X141532400Y-79862775D01*
X141532400Y-79717825D01*
X141494884Y-79577815D01*
X141492639Y-79573927D01*
X141492638Y-79573925D01*
X147845500Y-79573925D01*
X147845500Y-79718875D01*
X147883016Y-79858885D01*
X147883017Y-79858888D01*
X147955488Y-79984411D01*
X147955490Y-79984413D01*
X147955491Y-79984415D01*
X148057985Y-80086909D01*
X148057986Y-80086910D01*
X148057988Y-80086911D01*
X148190553Y-80163448D01*
X148189166Y-80165848D01*
X148233042Y-80201205D01*
X148255108Y-80267499D01*
X148237830Y-80335198D01*
X148218869Y-80359606D01*
X148187894Y-80390581D01*
X148187888Y-80390588D01*
X148115417Y-80516111D01*
X148115416Y-80516115D01*
X148077900Y-80656125D01*
X148077900Y-80801075D01*
X148109235Y-80918016D01*
X148115417Y-80941088D01*
X148168416Y-81032884D01*
X148184889Y-81100784D01*
X148162037Y-81166811D01*
X148148713Y-81182562D01*
X148138795Y-81192480D01*
X148138788Y-81192488D01*
X148066317Y-81318011D01*
X148066316Y-81318015D01*
X148028800Y-81458025D01*
X148028800Y-81602975D01*
X148039655Y-81643485D01*
X148066317Y-81742988D01*
X148138788Y-81868511D01*
X148138790Y-81868513D01*
X148138791Y-81868515D01*
X148241285Y-81971009D01*
X148241286Y-81971010D01*
X148241288Y-81971011D01*
X148366811Y-82043482D01*
X148366812Y-82043482D01*
X148366815Y-82043484D01*
X148506825Y-82081000D01*
X148506828Y-82081000D01*
X148651772Y-82081000D01*
X148651775Y-82081000D01*
X148791785Y-82043484D01*
X148917315Y-81971009D01*
X149019809Y-81868515D01*
X149092284Y-81742985D01*
X149129800Y-81602975D01*
X149129800Y-81458025D01*
X149092284Y-81318015D01*
X149039282Y-81226214D01*
X149022810Y-81158316D01*
X149045662Y-81092289D01*
X149058986Y-81076537D01*
X149068909Y-81066615D01*
X149141384Y-80941085D01*
X149178900Y-80801075D01*
X149178900Y-80656125D01*
X149141384Y-80516115D01*
X149068909Y-80390585D01*
X148966415Y-80288091D01*
X148966413Y-80288090D01*
X148966411Y-80288088D01*
X148833847Y-80211552D01*
X148835230Y-80209154D01*
X148791343Y-80173775D01*
X148769290Y-80107477D01*
X148786581Y-80039781D01*
X148805528Y-80015395D01*
X148836509Y-79984415D01*
X148908984Y-79858885D01*
X148946500Y-79718875D01*
X148946500Y-79573925D01*
X148908984Y-79433915D01*
X148908273Y-79432684D01*
X148836511Y-79308388D01*
X148836506Y-79308382D01*
X148734017Y-79205893D01*
X148734011Y-79205888D01*
X148608488Y-79133417D01*
X148608489Y-79133417D01*
X148597006Y-79130340D01*
X148468475Y-79095900D01*
X148323525Y-79095900D01*
X148194993Y-79130340D01*
X148183511Y-79133417D01*
X148057988Y-79205888D01*
X148057982Y-79205893D01*
X147955493Y-79308382D01*
X147955488Y-79308388D01*
X147883017Y-79433911D01*
X147883016Y-79433915D01*
X147845500Y-79573925D01*
X141492638Y-79573925D01*
X141422411Y-79452288D01*
X141422406Y-79452282D01*
X141319917Y-79349793D01*
X141319911Y-79349788D01*
X141194388Y-79277317D01*
X141194389Y-79277317D01*
X141182906Y-79274240D01*
X141054375Y-79239800D01*
X140909425Y-79239800D01*
X140780893Y-79274240D01*
X140769411Y-79277317D01*
X140643888Y-79349788D01*
X140643882Y-79349793D01*
X140541393Y-79452282D01*
X140541388Y-79452288D01*
X140468917Y-79577811D01*
X140468916Y-79577815D01*
X140431400Y-79717825D01*
X51000000Y-79717825D01*
X51000000Y-78847225D01*
X144221700Y-78847225D01*
X144221700Y-78992175D01*
X144259216Y-79132185D01*
X144259217Y-79132188D01*
X144331688Y-79257711D01*
X144331690Y-79257713D01*
X144331691Y-79257715D01*
X144434185Y-79360209D01*
X144434186Y-79360210D01*
X144434188Y-79360211D01*
X144559711Y-79432682D01*
X144559712Y-79432682D01*
X144559715Y-79432684D01*
X144699725Y-79470200D01*
X144699728Y-79470200D01*
X144844672Y-79470200D01*
X144844675Y-79470200D01*
X144984685Y-79432684D01*
X145110215Y-79360209D01*
X145212709Y-79257715D01*
X145285184Y-79132185D01*
X145322700Y-78992175D01*
X145322700Y-78847225D01*
X145285184Y-78707215D01*
X145212709Y-78581685D01*
X145110215Y-78479191D01*
X145110213Y-78479190D01*
X145110211Y-78479188D01*
X144984688Y-78406717D01*
X144984689Y-78406717D01*
X144973206Y-78403640D01*
X144844675Y-78369200D01*
X144699725Y-78369200D01*
X144571193Y-78403640D01*
X144559711Y-78406717D01*
X144434188Y-78479188D01*
X144434182Y-78479193D01*
X144331693Y-78581682D01*
X144331688Y-78581688D01*
X144259217Y-78707211D01*
X144259216Y-78707215D01*
X144221700Y-78847225D01*
X51000000Y-78847225D01*
X51000000Y-72334108D01*
X140499500Y-72334108D01*
X140499500Y-72465891D01*
X140533608Y-72593187D01*
X140555664Y-72631388D01*
X140599500Y-72707314D01*
X140692686Y-72800500D01*
X140791521Y-72857563D01*
X140794729Y-72859415D01*
X140806814Y-72866392D01*
X140858441Y-72880225D01*
X140918102Y-72916590D01*
X140948631Y-72979437D01*
X140940336Y-73048812D01*
X140895851Y-73102690D01*
X140858442Y-73119774D01*
X140840666Y-73124537D01*
X140806812Y-73133608D01*
X140692686Y-73199500D01*
X140692683Y-73199502D01*
X140599502Y-73292683D01*
X140599500Y-73292686D01*
X140533608Y-73406812D01*
X140499500Y-73534108D01*
X140499500Y-73665891D01*
X140533608Y-73793187D01*
X140566554Y-73850250D01*
X140599500Y-73907314D01*
X140692686Y-74000500D01*
X140806814Y-74066392D01*
X140934108Y-74100500D01*
X140934110Y-74100500D01*
X141065890Y-74100500D01*
X141065892Y-74100500D01*
X141193186Y-74066392D01*
X141307314Y-74000500D01*
X141400500Y-73907314D01*
X141466392Y-73793186D01*
X141500500Y-73665892D01*
X141500500Y-73534108D01*
X146099500Y-73534108D01*
X146099500Y-73665891D01*
X146133608Y-73793187D01*
X146166554Y-73850250D01*
X146199500Y-73907314D01*
X146292686Y-74000500D01*
X146406814Y-74066392D01*
X146534108Y-74100500D01*
X146534110Y-74100500D01*
X146665890Y-74100500D01*
X146665892Y-74100500D01*
X146793186Y-74066392D01*
X146907314Y-74000500D01*
X147000500Y-73907314D01*
X147066392Y-73793186D01*
X147100500Y-73665892D01*
X147100500Y-73534108D01*
X147066392Y-73406814D01*
X147000500Y-73292686D01*
X146907314Y-73199500D01*
X146850250Y-73166554D01*
X146793187Y-73133608D01*
X146677797Y-73102690D01*
X146665892Y-73099500D01*
X146534108Y-73099500D01*
X146406812Y-73133608D01*
X146292686Y-73199500D01*
X146292683Y-73199502D01*
X146199502Y-73292683D01*
X146199500Y-73292686D01*
X146133608Y-73406812D01*
X146099500Y-73534108D01*
X141500500Y-73534108D01*
X141466392Y-73406814D01*
X141400500Y-73292686D01*
X141307314Y-73199500D01*
X141250250Y-73166554D01*
X141193187Y-73133608D01*
X141176259Y-73129072D01*
X141141556Y-73119774D01*
X141081897Y-73083410D01*
X141051368Y-73020564D01*
X141053895Y-72999425D01*
X153489400Y-72999425D01*
X153489400Y-73144375D01*
X153526916Y-73284385D01*
X153526917Y-73284388D01*
X153599388Y-73409911D01*
X153599390Y-73409913D01*
X153599391Y-73409915D01*
X153701885Y-73512409D01*
X153701886Y-73512410D01*
X153701888Y-73512411D01*
X153827411Y-73584882D01*
X153827412Y-73584882D01*
X153827415Y-73584884D01*
X153967425Y-73622400D01*
X153967428Y-73622400D01*
X154112372Y-73622400D01*
X154112375Y-73622400D01*
X154252385Y-73584884D01*
X154377915Y-73512409D01*
X154480409Y-73409915D01*
X154552884Y-73284385D01*
X154590400Y-73144375D01*
X154590400Y-72999425D01*
X154552884Y-72859415D01*
X154518869Y-72800500D01*
X154480411Y-72733888D01*
X154480406Y-72733882D01*
X154377917Y-72631393D01*
X154377911Y-72631388D01*
X154252388Y-72558917D01*
X154252389Y-72558917D01*
X154240906Y-72555840D01*
X154112375Y-72521400D01*
X153967425Y-72521400D01*
X153838893Y-72555840D01*
X153827411Y-72558917D01*
X153701888Y-72631388D01*
X153701882Y-72631393D01*
X153599393Y-72733882D01*
X153599388Y-72733888D01*
X153526917Y-72859411D01*
X153526916Y-72859415D01*
X153489400Y-72999425D01*
X141053895Y-72999425D01*
X141059662Y-72951188D01*
X141104147Y-72897310D01*
X141141555Y-72880226D01*
X141193186Y-72866392D01*
X141307314Y-72800500D01*
X141400500Y-72707314D01*
X141466392Y-72593186D01*
X141500500Y-72465892D01*
X141500500Y-72334108D01*
X150499500Y-72334108D01*
X150499500Y-72465891D01*
X150533608Y-72593187D01*
X150555664Y-72631388D01*
X150599500Y-72707314D01*
X150692686Y-72800500D01*
X150791521Y-72857563D01*
X150794729Y-72859415D01*
X150806814Y-72866392D01*
X150934108Y-72900500D01*
X150934110Y-72900500D01*
X151065890Y-72900500D01*
X151065892Y-72900500D01*
X151193186Y-72866392D01*
X151307314Y-72800500D01*
X151400500Y-72707314D01*
X151466392Y-72593186D01*
X151500500Y-72465892D01*
X151500500Y-72334108D01*
X151466392Y-72206814D01*
X151400500Y-72092686D01*
X151307314Y-71999500D01*
X151250250Y-71966554D01*
X151193187Y-71933608D01*
X151129539Y-71916554D01*
X151065892Y-71899500D01*
X150934108Y-71899500D01*
X150806812Y-71933608D01*
X150692686Y-71999500D01*
X150692683Y-71999502D01*
X150599502Y-72092683D01*
X150599500Y-72092686D01*
X150533608Y-72206812D01*
X150499500Y-72334108D01*
X141500500Y-72334108D01*
X141466392Y-72206814D01*
X141400500Y-72092686D01*
X141307314Y-71999500D01*
X141250250Y-71966554D01*
X141193187Y-71933608D01*
X141129539Y-71916554D01*
X141065892Y-71899500D01*
X140934108Y-71899500D01*
X140806812Y-71933608D01*
X140692686Y-71999500D01*
X140692683Y-71999502D01*
X140599502Y-72092683D01*
X140599500Y-72092686D01*
X140533608Y-72206812D01*
X140499500Y-72334108D01*
X51000000Y-72334108D01*
X51000000Y-70934108D01*
X150899500Y-70934108D01*
X150899500Y-71065892D01*
X150916554Y-71129539D01*
X150933608Y-71193187D01*
X150966554Y-71250250D01*
X150999500Y-71307314D01*
X151092686Y-71400500D01*
X151206814Y-71466392D01*
X151334108Y-71500500D01*
X151334110Y-71500500D01*
X151465890Y-71500500D01*
X151465892Y-71500500D01*
X151593186Y-71466392D01*
X151707314Y-71400500D01*
X151800500Y-71307314D01*
X151866392Y-71193186D01*
X151882222Y-71134108D01*
X157299500Y-71134108D01*
X157299500Y-71265892D01*
X157316554Y-71329539D01*
X157333608Y-71393187D01*
X157366554Y-71450250D01*
X157399500Y-71507314D01*
X157492686Y-71600500D01*
X157606814Y-71666392D01*
X157734108Y-71700500D01*
X157734110Y-71700500D01*
X157865890Y-71700500D01*
X157865892Y-71700500D01*
X157993186Y-71666392D01*
X158107314Y-71600500D01*
X158200500Y-71507314D01*
X158266392Y-71393186D01*
X158300500Y-71265892D01*
X158300500Y-71134108D01*
X158266392Y-71006814D01*
X158200500Y-70892686D01*
X158107314Y-70799500D01*
X158050250Y-70766554D01*
X157993187Y-70733608D01*
X157929539Y-70716554D01*
X157865892Y-70699500D01*
X157734108Y-70699500D01*
X157606812Y-70733608D01*
X157492686Y-70799500D01*
X157492683Y-70799502D01*
X157399502Y-70892683D01*
X157399500Y-70892686D01*
X157333608Y-71006812D01*
X157317778Y-71065892D01*
X157299500Y-71134108D01*
X151882222Y-71134108D01*
X151900500Y-71065892D01*
X151900500Y-70934108D01*
X151866392Y-70806814D01*
X151862170Y-70799502D01*
X151824126Y-70733608D01*
X151800500Y-70692686D01*
X151800498Y-70692684D01*
X151796436Y-70685648D01*
X151798267Y-70684590D01*
X151777111Y-70629884D01*
X151791141Y-70561438D01*
X151839949Y-70511442D01*
X151868580Y-70499779D01*
X151993186Y-70466392D01*
X152107314Y-70400500D01*
X152200500Y-70307314D01*
X152266392Y-70193186D01*
X152300500Y-70065892D01*
X152300500Y-69934108D01*
X152266392Y-69806814D01*
X152200500Y-69692686D01*
X152107314Y-69599500D01*
X152050250Y-69566554D01*
X151993187Y-69533608D01*
X151929539Y-69516554D01*
X151865892Y-69499500D01*
X151734108Y-69499500D01*
X151606812Y-69533608D01*
X151492686Y-69599500D01*
X151492683Y-69599502D01*
X151399502Y-69692683D01*
X151399500Y-69692686D01*
X151333608Y-69806812D01*
X151308773Y-69899500D01*
X151299500Y-69934108D01*
X151299500Y-70065892D01*
X151316554Y-70129539D01*
X151333608Y-70193187D01*
X151341475Y-70206812D01*
X151399500Y-70307314D01*
X151399501Y-70307315D01*
X151403564Y-70314352D01*
X151401731Y-70315409D01*
X151422888Y-70370119D01*
X151408856Y-70438565D01*
X151360046Y-70488559D01*
X151331413Y-70500222D01*
X151306462Y-70506907D01*
X151206814Y-70533608D01*
X151206812Y-70533608D01*
X151206812Y-70533609D01*
X151092686Y-70599500D01*
X151092683Y-70599502D01*
X150999502Y-70692683D01*
X150999500Y-70692686D01*
X150933608Y-70806812D01*
X150917644Y-70866392D01*
X150899500Y-70934108D01*
X51000000Y-70934108D01*
X51000000Y-70334108D01*
X140499500Y-70334108D01*
X140499500Y-70465891D01*
X140533608Y-70593187D01*
X140566554Y-70650250D01*
X140599500Y-70707314D01*
X140692686Y-70800500D01*
X140791521Y-70857563D01*
X140806810Y-70866390D01*
X140806814Y-70866392D01*
X140934108Y-70900500D01*
X140934110Y-70900500D01*
X141065890Y-70900500D01*
X141065892Y-70900500D01*
X141193186Y-70866392D01*
X141307314Y-70800500D01*
X141400500Y-70707314D01*
X141466392Y-70593186D01*
X141500500Y-70465892D01*
X141500500Y-70334108D01*
X141466392Y-70206814D01*
X141400500Y-70092686D01*
X141307314Y-69999500D01*
X141250250Y-69966554D01*
X141193187Y-69933608D01*
X141129539Y-69916554D01*
X141065892Y-69899500D01*
X140934108Y-69899500D01*
X140806812Y-69933608D01*
X140692686Y-69999500D01*
X140692683Y-69999502D01*
X140599502Y-70092683D01*
X140599500Y-70092686D01*
X140533608Y-70206812D01*
X140499500Y-70334108D01*
X51000000Y-70334108D01*
X51000000Y-68534108D01*
X140499500Y-68534108D01*
X140499500Y-68665891D01*
X140533608Y-68793187D01*
X140566554Y-68850250D01*
X140599500Y-68907314D01*
X140692686Y-69000500D01*
X140806814Y-69066392D01*
X140934108Y-69100500D01*
X140934110Y-69100500D01*
X141065890Y-69100500D01*
X141065892Y-69100500D01*
X141193186Y-69066392D01*
X141307314Y-69000500D01*
X141400500Y-68907314D01*
X141466392Y-68793186D01*
X141500500Y-68665892D01*
X141500500Y-68534108D01*
X141466392Y-68406814D01*
X141400500Y-68292686D01*
X141307314Y-68199500D01*
X141250250Y-68166554D01*
X141193187Y-68133608D01*
X141129539Y-68116554D01*
X141065892Y-68099500D01*
X140934108Y-68099500D01*
X140806812Y-68133608D01*
X140692686Y-68199500D01*
X140692683Y-68199502D01*
X140599502Y-68292683D01*
X140599500Y-68292686D01*
X140533608Y-68406812D01*
X140499500Y-68534108D01*
X51000000Y-68534108D01*
X51000000Y-67934108D01*
X151899500Y-67934108D01*
X151899500Y-68065891D01*
X151933608Y-68193187D01*
X151966554Y-68250250D01*
X151999500Y-68307314D01*
X152092686Y-68400500D01*
X152206814Y-68466392D01*
X152334108Y-68500500D01*
X152334110Y-68500500D01*
X152465890Y-68500500D01*
X152465892Y-68500500D01*
X152593186Y-68466392D01*
X152707314Y-68400500D01*
X152800500Y-68307314D01*
X152866392Y-68193186D01*
X152900500Y-68065892D01*
X152900500Y-67934108D01*
X157899500Y-67934108D01*
X157899500Y-68065891D01*
X157933608Y-68193187D01*
X157966554Y-68250250D01*
X157999500Y-68307314D01*
X158092686Y-68400500D01*
X158206814Y-68466392D01*
X158334108Y-68500500D01*
X158334110Y-68500500D01*
X158465890Y-68500500D01*
X158465892Y-68500500D01*
X158593186Y-68466392D01*
X158707314Y-68400500D01*
X158800500Y-68307314D01*
X158866392Y-68193186D01*
X158900500Y-68065892D01*
X158900500Y-67934108D01*
X158866392Y-67806814D01*
X158800500Y-67692686D01*
X158707314Y-67599500D01*
X158650250Y-67566554D01*
X158593187Y-67533608D01*
X158529539Y-67516554D01*
X158465892Y-67499500D01*
X158334108Y-67499500D01*
X158206812Y-67533608D01*
X158092686Y-67599500D01*
X158092683Y-67599502D01*
X157999502Y-67692683D01*
X157999500Y-67692686D01*
X157933608Y-67806812D01*
X157899500Y-67934108D01*
X152900500Y-67934108D01*
X152866392Y-67806814D01*
X152800500Y-67692686D01*
X152707314Y-67599500D01*
X152650250Y-67566554D01*
X152593187Y-67533608D01*
X152529539Y-67516554D01*
X152465892Y-67499500D01*
X152334108Y-67499500D01*
X152206812Y-67533608D01*
X152092686Y-67599500D01*
X152092683Y-67599502D01*
X151999502Y-67692683D01*
X151999500Y-67692686D01*
X151933608Y-67806812D01*
X151899500Y-67934108D01*
X51000000Y-67934108D01*
X51000000Y-66134108D01*
X137499500Y-66134108D01*
X137499500Y-66265891D01*
X137533608Y-66393187D01*
X137566554Y-66450250D01*
X137599500Y-66507314D01*
X137692686Y-66600500D01*
X137806814Y-66666392D01*
X137934108Y-66700500D01*
X137934110Y-66700500D01*
X138065890Y-66700500D01*
X138065892Y-66700500D01*
X138193186Y-66666392D01*
X138307314Y-66600500D01*
X138400500Y-66507314D01*
X138466392Y-66393186D01*
X138500500Y-66265892D01*
X138500500Y-66134108D01*
X139099500Y-66134108D01*
X139099500Y-66265891D01*
X139133608Y-66393187D01*
X139166554Y-66450250D01*
X139199500Y-66507314D01*
X139199502Y-66507316D01*
X139204505Y-66512319D01*
X139237990Y-66573642D01*
X139233006Y-66643334D01*
X139204505Y-66687681D01*
X139199502Y-66692683D01*
X139199500Y-66692686D01*
X139133608Y-66806812D01*
X139099500Y-66934108D01*
X139099500Y-67065891D01*
X139133608Y-67193187D01*
X139166410Y-67250000D01*
X139199500Y-67307314D01*
X139292686Y-67400500D01*
X139406814Y-67466392D01*
X139534108Y-67500500D01*
X139534110Y-67500500D01*
X139665890Y-67500500D01*
X139665892Y-67500500D01*
X139793186Y-67466392D01*
X139907314Y-67400500D01*
X140000500Y-67307314D01*
X140066392Y-67193186D01*
X140100500Y-67065892D01*
X140100500Y-66934108D01*
X140066392Y-66806814D01*
X140000500Y-66692686D01*
X139995495Y-66687681D01*
X139962010Y-66626358D01*
X139966994Y-66556666D01*
X139995495Y-66512319D01*
X140000500Y-66507314D01*
X140066392Y-66393186D01*
X140100500Y-66265892D01*
X140100500Y-66134108D01*
X140066392Y-66006814D01*
X140000500Y-65892686D01*
X139907314Y-65799500D01*
X139850250Y-65766554D01*
X139793187Y-65733608D01*
X139728912Y-65716386D01*
X139665892Y-65699500D01*
X139534108Y-65699500D01*
X139406812Y-65733608D01*
X139292686Y-65799500D01*
X139292683Y-65799502D01*
X139199502Y-65892683D01*
X139199500Y-65892686D01*
X139133608Y-66006812D01*
X139099500Y-66134108D01*
X138500500Y-66134108D01*
X138466392Y-66006814D01*
X138400500Y-65892686D01*
X138307314Y-65799500D01*
X138250250Y-65766554D01*
X138193187Y-65733608D01*
X138128912Y-65716386D01*
X138065892Y-65699500D01*
X137934108Y-65699500D01*
X137806812Y-65733608D01*
X137692686Y-65799500D01*
X137692683Y-65799502D01*
X137599502Y-65892683D01*
X137599500Y-65892686D01*
X137533608Y-66006812D01*
X137499500Y-66134108D01*
X51000000Y-66134108D01*
X51000000Y-64767925D01*
X73596200Y-64767925D01*
X73596200Y-64912875D01*
X73633716Y-65052885D01*
X73633717Y-65052888D01*
X73706188Y-65178411D01*
X73706190Y-65178413D01*
X73706191Y-65178415D01*
X73808685Y-65280909D01*
X73808686Y-65280910D01*
X73808688Y-65280911D01*
X73934211Y-65353382D01*
X73934212Y-65353382D01*
X73934215Y-65353384D01*
X74074225Y-65390900D01*
X74074228Y-65390900D01*
X74219172Y-65390900D01*
X74219175Y-65390900D01*
X74359185Y-65353384D01*
X74484715Y-65280909D01*
X74587209Y-65178415D01*
X74659684Y-65052885D01*
X74697200Y-64912875D01*
X74697200Y-64774508D01*
X139699500Y-64774508D01*
X139699500Y-64906291D01*
X139733608Y-65033587D01*
X139738565Y-65042172D01*
X139799500Y-65147714D01*
X139892686Y-65240900D01*
X140006814Y-65306792D01*
X140134108Y-65340900D01*
X140134110Y-65340900D01*
X140175500Y-65340900D01*
X140242539Y-65360585D01*
X140288294Y-65413389D01*
X140299500Y-65464900D01*
X140299500Y-65589091D01*
X140333608Y-65716387D01*
X140343551Y-65733608D01*
X140399500Y-65830514D01*
X140492686Y-65923700D01*
X140606814Y-65989592D01*
X140734108Y-66023700D01*
X140734110Y-66023700D01*
X140865890Y-66023700D01*
X140865892Y-66023700D01*
X140993186Y-65989592D01*
X141107314Y-65923700D01*
X141200500Y-65830514D01*
X141266392Y-65716386D01*
X141300500Y-65589092D01*
X141300500Y-65457308D01*
X141266392Y-65330014D01*
X141200500Y-65215886D01*
X141107314Y-65122700D01*
X141050250Y-65089754D01*
X140993187Y-65056808D01*
X140906519Y-65033586D01*
X140865892Y-65022700D01*
X140824500Y-65022700D01*
X140757461Y-65003015D01*
X140711706Y-64950211D01*
X140700500Y-64898700D01*
X140700500Y-64774510D01*
X140700500Y-64774508D01*
X140666392Y-64647214D01*
X140600500Y-64533086D01*
X140507314Y-64439900D01*
X140438017Y-64399891D01*
X140393187Y-64374008D01*
X140329539Y-64356954D01*
X140265892Y-64339900D01*
X140134108Y-64339900D01*
X140006812Y-64374008D01*
X139892686Y-64439900D01*
X139892683Y-64439902D01*
X139799502Y-64533083D01*
X139799500Y-64533086D01*
X139733608Y-64647212D01*
X139699500Y-64774508D01*
X74697200Y-64774508D01*
X74697200Y-64767925D01*
X74659684Y-64627915D01*
X74643855Y-64600499D01*
X74587211Y-64502388D01*
X74587206Y-64502382D01*
X74484717Y-64399893D01*
X74484711Y-64399888D01*
X74359188Y-64327417D01*
X74359189Y-64327417D01*
X74347706Y-64324340D01*
X74219175Y-64289900D01*
X74074225Y-64289900D01*
X73945693Y-64324340D01*
X73934211Y-64327417D01*
X73808688Y-64399888D01*
X73808682Y-64399893D01*
X73706193Y-64502382D01*
X73706188Y-64502388D01*
X73633717Y-64627911D01*
X73633716Y-64627915D01*
X73596200Y-64767925D01*
X51000000Y-64767925D01*
X51000000Y-64134108D01*
X137499500Y-64134108D01*
X137499500Y-64265891D01*
X137533608Y-64393187D01*
X137566554Y-64450250D01*
X137599500Y-64507314D01*
X137692686Y-64600500D01*
X137773597Y-64647214D01*
X137806810Y-64666390D01*
X137806814Y-64666392D01*
X137934108Y-64700500D01*
X137934110Y-64700500D01*
X138065890Y-64700500D01*
X138065892Y-64700500D01*
X138193186Y-64666392D01*
X138193190Y-64666389D01*
X138193193Y-64666389D01*
X138205995Y-64658997D01*
X138206000Y-64658994D01*
X138226403Y-64647214D01*
X138307314Y-64600500D01*
X138400500Y-64507314D01*
X138466392Y-64393186D01*
X138500500Y-64265892D01*
X138500500Y-64134108D01*
X138466392Y-64006814D01*
X138400500Y-63892686D01*
X138307314Y-63799500D01*
X138250250Y-63766554D01*
X138193187Y-63733608D01*
X138129539Y-63716554D01*
X138065892Y-63699500D01*
X137934108Y-63699500D01*
X137806812Y-63733608D01*
X137692686Y-63799500D01*
X137692683Y-63799502D01*
X137599502Y-63892683D01*
X137599500Y-63892686D01*
X137533608Y-64006812D01*
X137499500Y-64134108D01*
X51000000Y-64134108D01*
X51000000Y-62534108D01*
X138899500Y-62534108D01*
X138899500Y-62665891D01*
X138933608Y-62793187D01*
X138966554Y-62850250D01*
X138999500Y-62907314D01*
X139092686Y-63000500D01*
X139206814Y-63066392D01*
X139334108Y-63100500D01*
X139334110Y-63100500D01*
X139465890Y-63100500D01*
X139465892Y-63100500D01*
X139593186Y-63066392D01*
X139707314Y-63000500D01*
X139800500Y-62907314D01*
X139866392Y-62793186D01*
X139900500Y-62665892D01*
X139900500Y-62534108D01*
X139866392Y-62406814D01*
X139800500Y-62292686D01*
X139707314Y-62199500D01*
X139650250Y-62166554D01*
X139593187Y-62133608D01*
X139529539Y-62116554D01*
X139465892Y-62099500D01*
X139334108Y-62099500D01*
X139206812Y-62133608D01*
X139092686Y-62199500D01*
X139092683Y-62199502D01*
X138999502Y-62292683D01*
X138999500Y-62292686D01*
X138933608Y-62406812D01*
X138899500Y-62534108D01*
X51000000Y-62534108D01*
X51000000Y-61934108D01*
X136099500Y-61934108D01*
X136099500Y-62065891D01*
X136133608Y-62193187D01*
X136166554Y-62250250D01*
X136199500Y-62307314D01*
X136292686Y-62400500D01*
X136391521Y-62457563D01*
X136406810Y-62466390D01*
X136406814Y-62466392D01*
X136534108Y-62500500D01*
X136534110Y-62500500D01*
X136665890Y-62500500D01*
X136665892Y-62500500D01*
X136793186Y-62466392D01*
X136907314Y-62400500D01*
X137000500Y-62307314D01*
X137066392Y-62193186D01*
X137100500Y-62065892D01*
X137100500Y-61934108D01*
X137066392Y-61806814D01*
X137000500Y-61692686D01*
X136907314Y-61599500D01*
X136850250Y-61566554D01*
X136793187Y-61533608D01*
X136729539Y-61516554D01*
X136665892Y-61499500D01*
X136534108Y-61499500D01*
X136406812Y-61533608D01*
X136292686Y-61599500D01*
X136292683Y-61599502D01*
X136199502Y-61692683D01*
X136199500Y-61692686D01*
X136133608Y-61806812D01*
X136099500Y-61934108D01*
X51000000Y-61934108D01*
X51000000Y-58764071D01*
X57349499Y-58764071D01*
X57374497Y-58889738D01*
X57374499Y-58889744D01*
X57423533Y-59008124D01*
X57423538Y-59008133D01*
X57494723Y-59114668D01*
X57494726Y-59114672D01*
X57585327Y-59205273D01*
X57585331Y-59205276D01*
X57691866Y-59276461D01*
X57691872Y-59276464D01*
X57691873Y-59276465D01*
X57810256Y-59325501D01*
X57810260Y-59325501D01*
X57810261Y-59325502D01*
X57935928Y-59350500D01*
X57935931Y-59350500D01*
X58064071Y-59350500D01*
X58148615Y-59333682D01*
X58189744Y-59325501D01*
X58308127Y-59276465D01*
X58414669Y-59205276D01*
X58505276Y-59114669D01*
X58576465Y-59008127D01*
X58625501Y-58889744D01*
X58650500Y-58764069D01*
X58650500Y-58635931D01*
X58650500Y-58635928D01*
X58625502Y-58510261D01*
X58625501Y-58510260D01*
X58625501Y-58510256D01*
X58576465Y-58391873D01*
X58576464Y-58391872D01*
X58576461Y-58391866D01*
X58505276Y-58285331D01*
X58505273Y-58285327D01*
X58414672Y-58194726D01*
X58414668Y-58194723D01*
X58308133Y-58123538D01*
X58308124Y-58123533D01*
X58189744Y-58074499D01*
X58189738Y-58074497D01*
X58064071Y-58049500D01*
X58064069Y-58049500D01*
X57935931Y-58049500D01*
X57935929Y-58049500D01*
X57810261Y-58074497D01*
X57810255Y-58074499D01*
X57691875Y-58123533D01*
X57691866Y-58123538D01*
X57585331Y-58194723D01*
X57585327Y-58194726D01*
X57494726Y-58285327D01*
X57494723Y-58285331D01*
X57423538Y-58391866D01*
X57423533Y-58391875D01*
X57374499Y-58510255D01*
X57374497Y-58510261D01*
X57349500Y-58635928D01*
X57349500Y-58635931D01*
X57349500Y-58764069D01*
X57349500Y-58764071D01*
X57349499Y-58764071D01*
X51000000Y-58764071D01*
X51000000Y-57402825D01*
X55171500Y-57402825D01*
X55171500Y-57547775D01*
X55201191Y-57658582D01*
X55209017Y-57687788D01*
X55281488Y-57813311D01*
X55281490Y-57813313D01*
X55281491Y-57813315D01*
X55383985Y-57915809D01*
X55383986Y-57915810D01*
X55383988Y-57915811D01*
X55509511Y-57988282D01*
X55509512Y-57988282D01*
X55509515Y-57988284D01*
X55649525Y-58025800D01*
X55649528Y-58025800D01*
X55794472Y-58025800D01*
X55794475Y-58025800D01*
X55934485Y-57988284D01*
X56045611Y-57924125D01*
X60461800Y-57924125D01*
X60461800Y-58069075D01*
X60498976Y-58207816D01*
X60499317Y-58209088D01*
X60571788Y-58334611D01*
X60571790Y-58334613D01*
X60571791Y-58334615D01*
X60674285Y-58437109D01*
X60674286Y-58437110D01*
X60674288Y-58437111D01*
X60799811Y-58509582D01*
X60799812Y-58509582D01*
X60799815Y-58509584D01*
X60939825Y-58547100D01*
X60939828Y-58547100D01*
X61084772Y-58547100D01*
X61084775Y-58547100D01*
X61224785Y-58509584D01*
X61350315Y-58437109D01*
X61452809Y-58334615D01*
X61525284Y-58209085D01*
X61562800Y-58069075D01*
X61562800Y-57924125D01*
X61525284Y-57784115D01*
X61469669Y-57687788D01*
X61452811Y-57658588D01*
X61452806Y-57658582D01*
X61350317Y-57556093D01*
X61350315Y-57556091D01*
X61224785Y-57483616D01*
X61084775Y-57446100D01*
X60939825Y-57446100D01*
X60811293Y-57480540D01*
X60799811Y-57483617D01*
X60674288Y-57556088D01*
X60674282Y-57556093D01*
X60571793Y-57658582D01*
X60571788Y-57658588D01*
X60499317Y-57784111D01*
X60499316Y-57784115D01*
X60461800Y-57924125D01*
X56045611Y-57924125D01*
X56060015Y-57915809D01*
X56162509Y-57813315D01*
X56234984Y-57687785D01*
X56272500Y-57547775D01*
X56272500Y-57402825D01*
X56270058Y-57393713D01*
X92149500Y-57393713D01*
X92149500Y-57606286D01*
X92182753Y-57816239D01*
X92248444Y-58018414D01*
X92344951Y-58207820D01*
X92469890Y-58379786D01*
X92620213Y-58530109D01*
X92792179Y-58655048D01*
X92792181Y-58655049D01*
X92792184Y-58655051D01*
X92981588Y-58751557D01*
X93183757Y-58817246D01*
X93393713Y-58850500D01*
X93393714Y-58850500D01*
X93606286Y-58850500D01*
X93606287Y-58850500D01*
X93816243Y-58817246D01*
X94018412Y-58751557D01*
X94052658Y-58734108D01*
X134499500Y-58734108D01*
X134499500Y-58865892D01*
X134505891Y-58889744D01*
X134533608Y-58993187D01*
X134566554Y-59050250D01*
X134599500Y-59107314D01*
X134692686Y-59200500D01*
X134806814Y-59266392D01*
X134934108Y-59300500D01*
X134934110Y-59300500D01*
X135065890Y-59300500D01*
X135065892Y-59300500D01*
X135193186Y-59266392D01*
X135307314Y-59200500D01*
X135400500Y-59107314D01*
X135466392Y-58993186D01*
X135500500Y-58865892D01*
X135500500Y-58734108D01*
X135466392Y-58606814D01*
X135400500Y-58492686D01*
X135307314Y-58399500D01*
X135250250Y-58366554D01*
X135193187Y-58333608D01*
X135129539Y-58316554D01*
X135065892Y-58299500D01*
X134934108Y-58299500D01*
X134806812Y-58333608D01*
X134692686Y-58399500D01*
X134692683Y-58399502D01*
X134599502Y-58492683D01*
X134599500Y-58492686D01*
X134533608Y-58606812D01*
X134525807Y-58635928D01*
X134499500Y-58734108D01*
X94052658Y-58734108D01*
X94207816Y-58655051D01*
X94379792Y-58530104D01*
X94530104Y-58379792D01*
X94530106Y-58379788D01*
X94530109Y-58379786D01*
X94655048Y-58207820D01*
X94655047Y-58207820D01*
X94655051Y-58207816D01*
X94751557Y-58018412D01*
X94817246Y-57816243D01*
X94850500Y-57606287D01*
X94850500Y-57393713D01*
X94817246Y-57183757D01*
X94751557Y-56981588D01*
X94655051Y-56792184D01*
X94655049Y-56792181D01*
X94655048Y-56792179D01*
X94530109Y-56620213D01*
X94379786Y-56469890D01*
X94217006Y-56351625D01*
X138077100Y-56351625D01*
X138077100Y-56496575D01*
X138110228Y-56620208D01*
X138114617Y-56636588D01*
X138187088Y-56762111D01*
X138187090Y-56762113D01*
X138187091Y-56762115D01*
X138289585Y-56864609D01*
X138289586Y-56864610D01*
X138289588Y-56864611D01*
X138415111Y-56937082D01*
X138415112Y-56937082D01*
X138415115Y-56937084D01*
X138555125Y-56974600D01*
X138555128Y-56974600D01*
X138700072Y-56974600D01*
X138700075Y-56974600D01*
X138840085Y-56937084D01*
X138965615Y-56864609D01*
X139068109Y-56762115D01*
X139140584Y-56636585D01*
X139178100Y-56496575D01*
X139178100Y-56351625D01*
X139140584Y-56211615D01*
X139123920Y-56182753D01*
X139068111Y-56086088D01*
X139068106Y-56086082D01*
X138965617Y-55983593D01*
X138965611Y-55983588D01*
X138840088Y-55911117D01*
X138840089Y-55911117D01*
X138828606Y-55908040D01*
X138700075Y-55873600D01*
X138555125Y-55873600D01*
X138426593Y-55908040D01*
X138415111Y-55911117D01*
X138289588Y-55983588D01*
X138289582Y-55983593D01*
X138187093Y-56086082D01*
X138187088Y-56086088D01*
X138114617Y-56211611D01*
X138114616Y-56211615D01*
X138077100Y-56351625D01*
X94217006Y-56351625D01*
X94207820Y-56344951D01*
X94018414Y-56248444D01*
X94018413Y-56248443D01*
X94018412Y-56248443D01*
X93816243Y-56182754D01*
X93816241Y-56182753D01*
X93816240Y-56182753D01*
X93641315Y-56155048D01*
X93606287Y-56149500D01*
X93393713Y-56149500D01*
X93358685Y-56155048D01*
X93183760Y-56182753D01*
X92981585Y-56248444D01*
X92792179Y-56344951D01*
X92620213Y-56469890D01*
X92469890Y-56620213D01*
X92344951Y-56792179D01*
X92248444Y-56981585D01*
X92182753Y-57183760D01*
X92149500Y-57393713D01*
X56270058Y-57393713D01*
X56234984Y-57262815D01*
X56189341Y-57183760D01*
X56162511Y-57137288D01*
X56162506Y-57137282D01*
X56060017Y-57034793D01*
X56060011Y-57034788D01*
X55934488Y-56962317D01*
X55934489Y-56962317D01*
X55923006Y-56959240D01*
X55794475Y-56924800D01*
X55649525Y-56924800D01*
X55520993Y-56959240D01*
X55509511Y-56962317D01*
X55383988Y-57034788D01*
X55383982Y-57034793D01*
X55281493Y-57137282D01*
X55281488Y-57137288D01*
X55209017Y-57262811D01*
X55209016Y-57262815D01*
X55171500Y-57402825D01*
X51000000Y-57402825D01*
X51000000Y-56051362D01*
X51019685Y-55984323D01*
X51036319Y-55963681D01*
X52106287Y-54893713D01*
X53649500Y-54893713D01*
X53649500Y-55106286D01*
X53675693Y-55271666D01*
X53682754Y-55316243D01*
X53729622Y-55460488D01*
X53748444Y-55518414D01*
X53844951Y-55707820D01*
X53969890Y-55879786D01*
X54120213Y-56030109D01*
X54292179Y-56155048D01*
X54292181Y-56155049D01*
X54292184Y-56155051D01*
X54481588Y-56251557D01*
X54683757Y-56317246D01*
X54893713Y-56350500D01*
X54893714Y-56350500D01*
X55106286Y-56350500D01*
X55106287Y-56350500D01*
X55316243Y-56317246D01*
X55518412Y-56251557D01*
X55707816Y-56155051D01*
X55733334Y-56136511D01*
X55879786Y-56030109D01*
X55879788Y-56030106D01*
X55879792Y-56030104D01*
X56030104Y-55879792D01*
X56030106Y-55879788D01*
X56030109Y-55879786D01*
X56141821Y-55726025D01*
X134161400Y-55726025D01*
X134161400Y-55870975D01*
X134191772Y-55984323D01*
X134198917Y-56010988D01*
X134271388Y-56136511D01*
X134271390Y-56136513D01*
X134271391Y-56136515D01*
X134373885Y-56239009D01*
X134373886Y-56239010D01*
X134373888Y-56239011D01*
X134499411Y-56311482D01*
X134499412Y-56311482D01*
X134499415Y-56311484D01*
X134639425Y-56349000D01*
X134639428Y-56349000D01*
X134784372Y-56349000D01*
X134784375Y-56349000D01*
X134924385Y-56311484D01*
X135049915Y-56239009D01*
X135152409Y-56136515D01*
X135224884Y-56010985D01*
X135262400Y-55870975D01*
X135262400Y-55726025D01*
X135224884Y-55586015D01*
X135185854Y-55518414D01*
X135152411Y-55460488D01*
X135152406Y-55460482D01*
X135049917Y-55357993D01*
X135049911Y-55357988D01*
X134924388Y-55285517D01*
X134924389Y-55285517D01*
X134912906Y-55282440D01*
X134784375Y-55248000D01*
X134639425Y-55248000D01*
X134510893Y-55282440D01*
X134499411Y-55285517D01*
X134373888Y-55357988D01*
X134373882Y-55357993D01*
X134271393Y-55460482D01*
X134271388Y-55460488D01*
X134198917Y-55586011D01*
X134198916Y-55586015D01*
X134161400Y-55726025D01*
X56141821Y-55726025D01*
X56155050Y-55707817D01*
X56178599Y-55661602D01*
X56212025Y-55595997D01*
X56251557Y-55518412D01*
X56317246Y-55316243D01*
X56350500Y-55106287D01*
X56350500Y-54893713D01*
X56317246Y-54683757D01*
X56251557Y-54481588D01*
X56155051Y-54292184D01*
X56155049Y-54292181D01*
X56155048Y-54292179D01*
X56030109Y-54120213D01*
X55879786Y-53969890D01*
X55707820Y-53844951D01*
X55682308Y-53831952D01*
X55518412Y-53748443D01*
X55370321Y-53700325D01*
X108199500Y-53700325D01*
X108199500Y-53845275D01*
X108237016Y-53985285D01*
X108237017Y-53985288D01*
X108309488Y-54110811D01*
X108309490Y-54110813D01*
X108309491Y-54110815D01*
X108411985Y-54213309D01*
X108411986Y-54213310D01*
X108411988Y-54213311D01*
X108537511Y-54285782D01*
X108537512Y-54285782D01*
X108537515Y-54285784D01*
X108677525Y-54323300D01*
X108677528Y-54323300D01*
X108822472Y-54323300D01*
X108822475Y-54323300D01*
X108962485Y-54285784D01*
X109088015Y-54213309D01*
X109130799Y-54170525D01*
X109807900Y-54170525D01*
X109807900Y-54315475D01*
X109815220Y-54342792D01*
X109845417Y-54455488D01*
X109917888Y-54581011D01*
X109917890Y-54581013D01*
X109917891Y-54581015D01*
X110020385Y-54683509D01*
X110020386Y-54683510D01*
X110020388Y-54683511D01*
X110145911Y-54755982D01*
X110145912Y-54755982D01*
X110145915Y-54755984D01*
X110285925Y-54793500D01*
X110285928Y-54793500D01*
X110430872Y-54793500D01*
X110430875Y-54793500D01*
X110570885Y-54755984D01*
X110696415Y-54683509D01*
X110798909Y-54581015D01*
X110871384Y-54455485D01*
X110908900Y-54315475D01*
X110908900Y-54211008D01*
X140299500Y-54211008D01*
X140299500Y-54342791D01*
X140333608Y-54470087D01*
X140366554Y-54527150D01*
X140399500Y-54584214D01*
X140492686Y-54677400D01*
X140606814Y-54743292D01*
X140734108Y-54777400D01*
X140734110Y-54777400D01*
X140865890Y-54777400D01*
X140865892Y-54777400D01*
X140993186Y-54743292D01*
X141107314Y-54677400D01*
X141200500Y-54584214D01*
X141266392Y-54470086D01*
X141300500Y-54342792D01*
X141300500Y-54211008D01*
X141266392Y-54083714D01*
X141200500Y-53969586D01*
X141107314Y-53876400D01*
X141050250Y-53843454D01*
X140993187Y-53810508D01*
X140919918Y-53790876D01*
X140865892Y-53776400D01*
X140734108Y-53776400D01*
X140606812Y-53810508D01*
X140492686Y-53876400D01*
X140492683Y-53876402D01*
X140399502Y-53969583D01*
X140399500Y-53969586D01*
X140333608Y-54083712D01*
X140299500Y-54211008D01*
X110908900Y-54211008D01*
X110908900Y-54170525D01*
X110871384Y-54030515D01*
X110845270Y-53985285D01*
X110798911Y-53904988D01*
X110798906Y-53904982D01*
X110696417Y-53802493D01*
X110696411Y-53802488D01*
X110570888Y-53730017D01*
X110570889Y-53730017D01*
X110559406Y-53726940D01*
X110430875Y-53692500D01*
X110285925Y-53692500D01*
X110157393Y-53726940D01*
X110145911Y-53730017D01*
X110020388Y-53802488D01*
X110020382Y-53802493D01*
X109917893Y-53904982D01*
X109917888Y-53904988D01*
X109845417Y-54030511D01*
X109845416Y-54030515D01*
X109807900Y-54170525D01*
X109130799Y-54170525D01*
X109190509Y-54110815D01*
X109262984Y-53985285D01*
X109300500Y-53845275D01*
X109300500Y-53700325D01*
X109262984Y-53560315D01*
X109190509Y-53434785D01*
X109088015Y-53332291D01*
X109088013Y-53332290D01*
X109088011Y-53332288D01*
X108962488Y-53259817D01*
X108962489Y-53259817D01*
X108951006Y-53256740D01*
X108822475Y-53222300D01*
X108677525Y-53222300D01*
X108548993Y-53256740D01*
X108537511Y-53259817D01*
X108411988Y-53332288D01*
X108411982Y-53332293D01*
X108309493Y-53434782D01*
X108309488Y-53434788D01*
X108237017Y-53560311D01*
X108237016Y-53560315D01*
X108199500Y-53700325D01*
X55370321Y-53700325D01*
X55316243Y-53682754D01*
X55316241Y-53682753D01*
X55316240Y-53682753D01*
X55154957Y-53657208D01*
X55106287Y-53649500D01*
X54893713Y-53649500D01*
X54845042Y-53657208D01*
X54683760Y-53682753D01*
X54481585Y-53748444D01*
X54292179Y-53844951D01*
X54120213Y-53969890D01*
X53969890Y-54120213D01*
X53844951Y-54292179D01*
X53748444Y-54481585D01*
X53682753Y-54683760D01*
X53649500Y-54893713D01*
X52106287Y-54893713D01*
X55135775Y-51864225D01*
X138846000Y-51864225D01*
X138846000Y-52009175D01*
X138880297Y-52137170D01*
X138883517Y-52149188D01*
X138955988Y-52274711D01*
X138955990Y-52274713D01*
X138955991Y-52274715D01*
X139058485Y-52377209D01*
X139058486Y-52377210D01*
X139058488Y-52377211D01*
X139184011Y-52449682D01*
X139184012Y-52449682D01*
X139184015Y-52449684D01*
X139324025Y-52487200D01*
X139324028Y-52487200D01*
X139468972Y-52487200D01*
X139468975Y-52487200D01*
X139608985Y-52449684D01*
X139734515Y-52377209D01*
X139837009Y-52274715D01*
X139909484Y-52149185D01*
X139947000Y-52009175D01*
X139947000Y-51864225D01*
X139909484Y-51724215D01*
X139837009Y-51598685D01*
X139734515Y-51496191D01*
X139734513Y-51496190D01*
X139734511Y-51496188D01*
X139608988Y-51423717D01*
X139608989Y-51423717D01*
X139597506Y-51420640D01*
X139468975Y-51386200D01*
X139324025Y-51386200D01*
X139195493Y-51420640D01*
X139184011Y-51423717D01*
X139058488Y-51496188D01*
X139058482Y-51496193D01*
X138955993Y-51598682D01*
X138955988Y-51598688D01*
X138883517Y-51724211D01*
X138883516Y-51724215D01*
X138846000Y-51864225D01*
X55135775Y-51864225D01*
X55963681Y-51036319D01*
X56025004Y-51002834D01*
X56051362Y-51000000D01*
X131368500Y-51000000D01*
X131435539Y-51019685D01*
G37*
%TD.AperFunction*%
%TD*%
M02*
