%TF.GenerationSoftware,KiCad,Pcbnew,10.0.4*%
%TF.CreationDate,2026-07-21T09:01:32+08:00*%
%TF.ProjectId,cadenza-d1-production-v40-candidate,63616465-6e7a-4612-9d64-312d70726f64,rev?*%
%TF.SameCoordinates,Original*%
%TF.FileFunction,Legend,Top*%
%TF.FilePolarity,Positive*%
%FSLAX46Y46*%
G04 Gerber Fmt 4.6, Leading zero omitted, Abs format (unit mm)*
G04 Created by KiCad (PCBNEW 10.0.4) date 2026-07-21 09:01:32*
%MOMM*%
%LPD*%
G01*
G04 APERTURE LIST*
G04 Aperture macros list*
%AMRoundRect*
0 Rectangle with rounded corners*
0 $1 Rounding radius*
0 $2 $3 $4 $5 $6 $7 $8 $9 X,Y pos of 4 corners*
0 Add a 4 corners polygon primitive as box body*
4,1,4,$2,$3,$4,$5,$6,$7,$8,$9,$2,$3,0*
0 Add four circle primitives for the rounded corners*
1,1,$1+$1,$2,$3*
1,1,$1+$1,$4,$5*
1,1,$1+$1,$6,$7*
1,1,$1+$1,$8,$9*
0 Add four rect primitives between the rounded corners*
20,1,$1+$1,$2,$3,$4,$5,0*
20,1,$1+$1,$4,$5,$6,$7,0*
20,1,$1+$1,$6,$7,$8,$9,0*
20,1,$1+$1,$8,$9,$2,$3,0*%
G04 Aperture macros list end*
%ADD10C,0.150000*%
%ADD11C,0.120000*%
%ADD12C,0.900000*%
%ADD13RoundRect,0.250000X-0.375000X-1.000000X0.375000X-1.000000X0.375000X1.000000X-0.375000X1.000000X0*%
%ADD14C,2.200000*%
%ADD15RoundRect,0.060000X-0.090000X-0.440000X0.090000X-0.440000X0.090000X0.440000X-0.090000X0.440000X0*%
%ADD16R,0.800000X1.300000*%
%ADD17R,0.700000X1.200000*%
%ADD18R,1.000000X0.800000*%
%ADD19R,1.000000X1.200000*%
%ADD20R,1.000000X2.800000*%
%ADD21R,1.300000X1.900000*%
%ADD22R,0.900000X1.000000*%
%ADD23C,0.650000*%
%ADD24RoundRect,0.150000X-0.150000X-0.500000X0.150000X-0.500000X0.150000X0.500000X-0.150000X0.500000X0*%
%ADD25RoundRect,0.075000X-0.075000X-0.575000X0.075000X-0.575000X0.075000X0.575000X-0.075000X0.575000X0*%
%ADD26O,1.000000X2.100000*%
%ADD27O,1.000000X1.600000*%
%ADD28C,0.800000*%
%ADD29RoundRect,0.140000X-0.285000X-0.210000X0.285000X-0.210000X0.285000X0.210000X-0.285000X0.210000X0*%
%ADD30RoundRect,0.150000X-0.150000X-0.625000X0.150000X-0.625000X0.150000X0.625000X-0.150000X0.625000X0*%
%ADD31RoundRect,0.250000X-0.350000X-0.650000X0.350000X-0.650000X0.350000X0.650000X-0.350000X0.650000X0*%
G04 APERTURE END LIST*
D10*
X52666667Y-87607200D02*
X52809524Y-87654819D01*
X52809524Y-87654819D02*
X53047619Y-87654819D01*
X53047619Y-87654819D02*
X53142857Y-87607200D01*
X53142857Y-87607200D02*
X53190476Y-87559580D01*
X53190476Y-87559580D02*
X53238095Y-87464342D01*
X53238095Y-87464342D02*
X53238095Y-87369104D01*
X53238095Y-87369104D02*
X53190476Y-87273866D01*
X53190476Y-87273866D02*
X53142857Y-87226247D01*
X53142857Y-87226247D02*
X53047619Y-87178628D01*
X53047619Y-87178628D02*
X52857143Y-87131009D01*
X52857143Y-87131009D02*
X52761905Y-87083390D01*
X52761905Y-87083390D02*
X52714286Y-87035771D01*
X52714286Y-87035771D02*
X52666667Y-86940533D01*
X52666667Y-86940533D02*
X52666667Y-86845295D01*
X52666667Y-86845295D02*
X52714286Y-86750057D01*
X52714286Y-86750057D02*
X52761905Y-86702438D01*
X52761905Y-86702438D02*
X52857143Y-86654819D01*
X52857143Y-86654819D02*
X53095238Y-86654819D01*
X53095238Y-86654819D02*
X53238095Y-86702438D01*
X53571429Y-86654819D02*
X53809524Y-87654819D01*
X53809524Y-87654819D02*
X54000000Y-86940533D01*
X54000000Y-86940533D02*
X54190476Y-87654819D01*
X54190476Y-87654819D02*
X54428572Y-86654819D01*
X55333333Y-87654819D02*
X54761905Y-87654819D01*
X55047619Y-87654819D02*
X55047619Y-86654819D01*
X55047619Y-86654819D02*
X54952381Y-86797676D01*
X54952381Y-86797676D02*
X54857143Y-86892914D01*
X54857143Y-86892914D02*
X54761905Y-86940533D01*
X106833333Y-59454819D02*
X106357143Y-59454819D01*
X106357143Y-59454819D02*
X106357143Y-58454819D01*
X107738095Y-59359580D02*
X107690476Y-59407200D01*
X107690476Y-59407200D02*
X107547619Y-59454819D01*
X107547619Y-59454819D02*
X107452381Y-59454819D01*
X107452381Y-59454819D02*
X107309524Y-59407200D01*
X107309524Y-59407200D02*
X107214286Y-59311961D01*
X107214286Y-59311961D02*
X107166667Y-59216723D01*
X107166667Y-59216723D02*
X107119048Y-59026247D01*
X107119048Y-59026247D02*
X107119048Y-58883390D01*
X107119048Y-58883390D02*
X107166667Y-58692914D01*
X107166667Y-58692914D02*
X107214286Y-58597676D01*
X107214286Y-58597676D02*
X107309524Y-58502438D01*
X107309524Y-58502438D02*
X107452381Y-58454819D01*
X107452381Y-58454819D02*
X107547619Y-58454819D01*
X107547619Y-58454819D02*
X107690476Y-58502438D01*
X107690476Y-58502438D02*
X107738095Y-58550057D01*
X108166667Y-59454819D02*
X108166667Y-58454819D01*
X108166667Y-58454819D02*
X108404762Y-58454819D01*
X108404762Y-58454819D02*
X108547619Y-58502438D01*
X108547619Y-58502438D02*
X108642857Y-58597676D01*
X108642857Y-58597676D02*
X108690476Y-58692914D01*
X108690476Y-58692914D02*
X108738095Y-58883390D01*
X108738095Y-58883390D02*
X108738095Y-59026247D01*
X108738095Y-59026247D02*
X108690476Y-59216723D01*
X108690476Y-59216723D02*
X108642857Y-59311961D01*
X108642857Y-59311961D02*
X108547619Y-59407200D01*
X108547619Y-59407200D02*
X108404762Y-59454819D01*
X108404762Y-59454819D02*
X108166667Y-59454819D01*
X109690476Y-59454819D02*
X109119048Y-59454819D01*
X109404762Y-59454819D02*
X109404762Y-58454819D01*
X109404762Y-58454819D02*
X109309524Y-58597676D01*
X109309524Y-58597676D02*
X109214286Y-58692914D01*
X109214286Y-58692914D02*
X109119048Y-58740533D01*
D11*
X160390476Y-107363855D02*
X160390476Y-106563855D01*
X160390476Y-106944807D02*
X160847619Y-106944807D01*
X160847619Y-107363855D02*
X160847619Y-106563855D01*
X161571428Y-106830521D02*
X161571428Y-107363855D01*
X161380952Y-106525760D02*
X161190475Y-107097188D01*
X161190475Y-107097188D02*
X161685714Y-107097188D01*
D10*
X107666666Y-50454819D02*
X107666666Y-51169104D01*
X107666666Y-51169104D02*
X107619047Y-51311961D01*
X107619047Y-51311961D02*
X107523809Y-51407200D01*
X107523809Y-51407200D02*
X107380952Y-51454819D01*
X107380952Y-51454819D02*
X107285714Y-51454819D01*
X108095238Y-50550057D02*
X108142857Y-50502438D01*
X108142857Y-50502438D02*
X108238095Y-50454819D01*
X108238095Y-50454819D02*
X108476190Y-50454819D01*
X108476190Y-50454819D02*
X108571428Y-50502438D01*
X108571428Y-50502438D02*
X108619047Y-50550057D01*
X108619047Y-50550057D02*
X108666666Y-50645295D01*
X108666666Y-50645295D02*
X108666666Y-50740533D01*
X108666666Y-50740533D02*
X108619047Y-50883390D01*
X108619047Y-50883390D02*
X108047619Y-51454819D01*
X108047619Y-51454819D02*
X108666666Y-51454819D01*
X150591666Y-93929819D02*
X150591666Y-94644104D01*
X150591666Y-94644104D02*
X150544047Y-94786961D01*
X150544047Y-94786961D02*
X150448809Y-94882200D01*
X150448809Y-94882200D02*
X150305952Y-94929819D01*
X150305952Y-94929819D02*
X150210714Y-94929819D01*
X150972619Y-93929819D02*
X151591666Y-93929819D01*
X151591666Y-93929819D02*
X151258333Y-94310771D01*
X151258333Y-94310771D02*
X151401190Y-94310771D01*
X151401190Y-94310771D02*
X151496428Y-94358390D01*
X151496428Y-94358390D02*
X151544047Y-94406009D01*
X151544047Y-94406009D02*
X151591666Y-94501247D01*
X151591666Y-94501247D02*
X151591666Y-94739342D01*
X151591666Y-94739342D02*
X151544047Y-94834580D01*
X151544047Y-94834580D02*
X151496428Y-94882200D01*
X151496428Y-94882200D02*
X151401190Y-94929819D01*
X151401190Y-94929819D02*
X151115476Y-94929819D01*
X151115476Y-94929819D02*
X151020238Y-94882200D01*
X151020238Y-94882200D02*
X150972619Y-94834580D01*
D11*
X54390476Y-107363855D02*
X54390476Y-106563855D01*
X54390476Y-106944807D02*
X54847619Y-106944807D01*
X54847619Y-107363855D02*
X54847619Y-106563855D01*
X55152380Y-106563855D02*
X55647618Y-106563855D01*
X55647618Y-106563855D02*
X55380952Y-106868617D01*
X55380952Y-106868617D02*
X55495237Y-106868617D01*
X55495237Y-106868617D02*
X55571428Y-106906712D01*
X55571428Y-106906712D02*
X55609523Y-106944807D01*
X55609523Y-106944807D02*
X55647618Y-107020998D01*
X55647618Y-107020998D02*
X55647618Y-107211474D01*
X55647618Y-107211474D02*
X55609523Y-107287664D01*
X55609523Y-107287664D02*
X55571428Y-107325760D01*
X55571428Y-107325760D02*
X55495237Y-107363855D01*
X55495237Y-107363855D02*
X55266666Y-107363855D01*
X55266666Y-107363855D02*
X55190475Y-107325760D01*
X55190475Y-107325760D02*
X55152380Y-107287664D01*
D10*
X58666667Y-73957200D02*
X58809524Y-74004819D01*
X58809524Y-74004819D02*
X59047619Y-74004819D01*
X59047619Y-74004819D02*
X59142857Y-73957200D01*
X59142857Y-73957200D02*
X59190476Y-73909580D01*
X59190476Y-73909580D02*
X59238095Y-73814342D01*
X59238095Y-73814342D02*
X59238095Y-73719104D01*
X59238095Y-73719104D02*
X59190476Y-73623866D01*
X59190476Y-73623866D02*
X59142857Y-73576247D01*
X59142857Y-73576247D02*
X59047619Y-73528628D01*
X59047619Y-73528628D02*
X58857143Y-73481009D01*
X58857143Y-73481009D02*
X58761905Y-73433390D01*
X58761905Y-73433390D02*
X58714286Y-73385771D01*
X58714286Y-73385771D02*
X58666667Y-73290533D01*
X58666667Y-73290533D02*
X58666667Y-73195295D01*
X58666667Y-73195295D02*
X58714286Y-73100057D01*
X58714286Y-73100057D02*
X58761905Y-73052438D01*
X58761905Y-73052438D02*
X58857143Y-73004819D01*
X58857143Y-73004819D02*
X59095238Y-73004819D01*
X59095238Y-73004819D02*
X59238095Y-73052438D01*
X59571429Y-73004819D02*
X59809524Y-74004819D01*
X59809524Y-74004819D02*
X60000000Y-73290533D01*
X60000000Y-73290533D02*
X60190476Y-74004819D01*
X60190476Y-74004819D02*
X60428572Y-73004819D01*
X60761905Y-73100057D02*
X60809524Y-73052438D01*
X60809524Y-73052438D02*
X60904762Y-73004819D01*
X60904762Y-73004819D02*
X61142857Y-73004819D01*
X61142857Y-73004819D02*
X61238095Y-73052438D01*
X61238095Y-73052438D02*
X61285714Y-73100057D01*
X61285714Y-73100057D02*
X61333333Y-73195295D01*
X61333333Y-73195295D02*
X61333333Y-73290533D01*
X61333333Y-73290533D02*
X61285714Y-73433390D01*
X61285714Y-73433390D02*
X60714286Y-74004819D01*
X60714286Y-74004819D02*
X61333333Y-74004819D01*
X107666666Y-104809819D02*
X107666666Y-105524104D01*
X107666666Y-105524104D02*
X107619047Y-105666961D01*
X107619047Y-105666961D02*
X107523809Y-105762200D01*
X107523809Y-105762200D02*
X107380952Y-105809819D01*
X107380952Y-105809819D02*
X107285714Y-105809819D01*
X108666666Y-105809819D02*
X108095238Y-105809819D01*
X108380952Y-105809819D02*
X108380952Y-104809819D01*
X108380952Y-104809819D02*
X108285714Y-104952676D01*
X108285714Y-104952676D02*
X108190476Y-105047914D01*
X108190476Y-105047914D02*
X108095238Y-105095533D01*
X57238095Y-54454819D02*
X57238095Y-55264342D01*
X57238095Y-55264342D02*
X57285714Y-55359580D01*
X57285714Y-55359580D02*
X57333333Y-55407200D01*
X57333333Y-55407200D02*
X57428571Y-55454819D01*
X57428571Y-55454819D02*
X57619047Y-55454819D01*
X57619047Y-55454819D02*
X57714285Y-55407200D01*
X57714285Y-55407200D02*
X57761904Y-55359580D01*
X57761904Y-55359580D02*
X57809523Y-55264342D01*
X57809523Y-55264342D02*
X57809523Y-54454819D01*
X58714285Y-54454819D02*
X58523809Y-54454819D01*
X58523809Y-54454819D02*
X58428571Y-54502438D01*
X58428571Y-54502438D02*
X58380952Y-54550057D01*
X58380952Y-54550057D02*
X58285714Y-54692914D01*
X58285714Y-54692914D02*
X58238095Y-54883390D01*
X58238095Y-54883390D02*
X58238095Y-55264342D01*
X58238095Y-55264342D02*
X58285714Y-55359580D01*
X58285714Y-55359580D02*
X58333333Y-55407200D01*
X58333333Y-55407200D02*
X58428571Y-55454819D01*
X58428571Y-55454819D02*
X58619047Y-55454819D01*
X58619047Y-55454819D02*
X58714285Y-55407200D01*
X58714285Y-55407200D02*
X58761904Y-55359580D01*
X58761904Y-55359580D02*
X58809523Y-55264342D01*
X58809523Y-55264342D02*
X58809523Y-55026247D01*
X58809523Y-55026247D02*
X58761904Y-54931009D01*
X58761904Y-54931009D02*
X58714285Y-54883390D01*
X58714285Y-54883390D02*
X58619047Y-54835771D01*
X58619047Y-54835771D02*
X58428571Y-54835771D01*
X58428571Y-54835771D02*
X58333333Y-54883390D01*
X58333333Y-54883390D02*
X58285714Y-54931009D01*
X58285714Y-54931009D02*
X58238095Y-55026247D01*
D11*
X92890476Y-55863855D02*
X92890476Y-55063855D01*
X92890476Y-55444807D02*
X93347619Y-55444807D01*
X93347619Y-55863855D02*
X93347619Y-55063855D01*
X93690475Y-55140045D02*
X93728571Y-55101950D01*
X93728571Y-55101950D02*
X93804761Y-55063855D01*
X93804761Y-55063855D02*
X93995237Y-55063855D01*
X93995237Y-55063855D02*
X94071428Y-55101950D01*
X94071428Y-55101950D02*
X94109523Y-55140045D01*
X94109523Y-55140045D02*
X94147618Y-55216236D01*
X94147618Y-55216236D02*
X94147618Y-55292426D01*
X94147618Y-55292426D02*
X94109523Y-55406712D01*
X94109523Y-55406712D02*
X93652380Y-55863855D01*
X93652380Y-55863855D02*
X94147618Y-55863855D01*
X54390476Y-53363855D02*
X54390476Y-52563855D01*
X54390476Y-52944807D02*
X54847619Y-52944807D01*
X54847619Y-53363855D02*
X54847619Y-52563855D01*
X55647618Y-53363855D02*
X55190475Y-53363855D01*
X55419047Y-53363855D02*
X55419047Y-52563855D01*
X55419047Y-52563855D02*
X55342856Y-52678140D01*
X55342856Y-52678140D02*
X55266666Y-52754331D01*
X55266666Y-52754331D02*
X55190475Y-52792426D01*
D10*
X159666666Y-77474819D02*
X159666666Y-78189104D01*
X159666666Y-78189104D02*
X159619047Y-78331961D01*
X159619047Y-78331961D02*
X159523809Y-78427200D01*
X159523809Y-78427200D02*
X159380952Y-78474819D01*
X159380952Y-78474819D02*
X159285714Y-78474819D01*
X160571428Y-77474819D02*
X160380952Y-77474819D01*
X160380952Y-77474819D02*
X160285714Y-77522438D01*
X160285714Y-77522438D02*
X160238095Y-77570057D01*
X160238095Y-77570057D02*
X160142857Y-77712914D01*
X160142857Y-77712914D02*
X160095238Y-77903390D01*
X160095238Y-77903390D02*
X160095238Y-78284342D01*
X160095238Y-78284342D02*
X160142857Y-78379580D01*
X160142857Y-78379580D02*
X160190476Y-78427200D01*
X160190476Y-78427200D02*
X160285714Y-78474819D01*
X160285714Y-78474819D02*
X160476190Y-78474819D01*
X160476190Y-78474819D02*
X160571428Y-78427200D01*
X160571428Y-78427200D02*
X160619047Y-78379580D01*
X160619047Y-78379580D02*
X160666666Y-78284342D01*
X160666666Y-78284342D02*
X160666666Y-78046247D01*
X160666666Y-78046247D02*
X160619047Y-77951009D01*
X160619047Y-77951009D02*
X160571428Y-77903390D01*
X160571428Y-77903390D02*
X160476190Y-77855771D01*
X160476190Y-77855771D02*
X160285714Y-77855771D01*
X160285714Y-77855771D02*
X160190476Y-77903390D01*
X160190476Y-77903390D02*
X160142857Y-77951009D01*
X160142857Y-77951009D02*
X160095238Y-78046247D01*
X58666667Y-63957200D02*
X58809524Y-64004819D01*
X58809524Y-64004819D02*
X59047619Y-64004819D01*
X59047619Y-64004819D02*
X59142857Y-63957200D01*
X59142857Y-63957200D02*
X59190476Y-63909580D01*
X59190476Y-63909580D02*
X59238095Y-63814342D01*
X59238095Y-63814342D02*
X59238095Y-63719104D01*
X59238095Y-63719104D02*
X59190476Y-63623866D01*
X59190476Y-63623866D02*
X59142857Y-63576247D01*
X59142857Y-63576247D02*
X59047619Y-63528628D01*
X59047619Y-63528628D02*
X58857143Y-63481009D01*
X58857143Y-63481009D02*
X58761905Y-63433390D01*
X58761905Y-63433390D02*
X58714286Y-63385771D01*
X58714286Y-63385771D02*
X58666667Y-63290533D01*
X58666667Y-63290533D02*
X58666667Y-63195295D01*
X58666667Y-63195295D02*
X58714286Y-63100057D01*
X58714286Y-63100057D02*
X58761905Y-63052438D01*
X58761905Y-63052438D02*
X58857143Y-63004819D01*
X58857143Y-63004819D02*
X59095238Y-63004819D01*
X59095238Y-63004819D02*
X59238095Y-63052438D01*
X59571429Y-63004819D02*
X59809524Y-64004819D01*
X59809524Y-64004819D02*
X60000000Y-63290533D01*
X60000000Y-63290533D02*
X60190476Y-64004819D01*
X60190476Y-64004819D02*
X60428572Y-63004819D01*
X60714286Y-63004819D02*
X61333333Y-63004819D01*
X61333333Y-63004819D02*
X61000000Y-63385771D01*
X61000000Y-63385771D02*
X61142857Y-63385771D01*
X61142857Y-63385771D02*
X61238095Y-63433390D01*
X61238095Y-63433390D02*
X61285714Y-63481009D01*
X61285714Y-63481009D02*
X61333333Y-63576247D01*
X61333333Y-63576247D02*
X61333333Y-63814342D01*
X61333333Y-63814342D02*
X61285714Y-63909580D01*
X61285714Y-63909580D02*
X61238095Y-63957200D01*
X61238095Y-63957200D02*
X61142857Y-64004819D01*
X61142857Y-64004819D02*
X60857143Y-64004819D01*
X60857143Y-64004819D02*
X60761905Y-63957200D01*
X60761905Y-63957200D02*
X60714286Y-63909580D01*
%TO.C,J3*%
D11*
X144025000Y-96115000D02*
X144025000Y-99725000D01*
X144025000Y-101425000D02*
X144025000Y-106125000D01*
X144025000Y-107425000D02*
X144025000Y-109225000D01*
X144475000Y-96115000D02*
X144025000Y-96115000D01*
X145055000Y-112385000D02*
X144855000Y-112185000D01*
X145055000Y-112385000D02*
X146915000Y-112385000D01*
X146915000Y-112385000D02*
X147125000Y-112185000D01*
X147125000Y-112035000D02*
X147125000Y-112185000D01*
X147125000Y-112035000D02*
X153495000Y-112035000D01*
X154005000Y-112385000D02*
X153495000Y-112035000D01*
X156075000Y-96115000D02*
X157995000Y-96115000D01*
X156315000Y-112385000D02*
X154005000Y-112385000D01*
X156315000Y-112385000D02*
X156515000Y-112185000D01*
X156515000Y-112185000D02*
X156775000Y-112185000D01*
X157995000Y-96115000D02*
X157995000Y-110125000D01*
%TO.C,SW2*%
X57800000Y-76050000D02*
X57800000Y-75950000D01*
X57800000Y-77550000D02*
X62200000Y-77550000D01*
X62200000Y-74450000D02*
X57800000Y-74450000D01*
X62200000Y-76050000D02*
X62200000Y-75950000D01*
%TO.C,J1*%
X103300000Y-109220000D02*
X103300000Y-111000000D01*
X105200000Y-106300000D02*
X104400000Y-106300000D01*
X112700000Y-109220000D02*
X112700000Y-111000000D01*
%TO.C,J6*%
X155890000Y-80215000D02*
X156940000Y-80215000D01*
X155890000Y-82715000D02*
X155890000Y-80215000D01*
X156940000Y-80215000D02*
X156940000Y-79225000D01*
X157060000Y-84685000D02*
X162940000Y-84685000D01*
X164110000Y-80215000D02*
X163060000Y-80215000D01*
X164110000Y-82715000D02*
X164110000Y-80215000D01*
%TO.C,SW3*%
X57800000Y-66050000D02*
X57800000Y-65950000D01*
X57800000Y-67550000D02*
X62200000Y-67550000D01*
X62200000Y-64450000D02*
X57800000Y-64450000D01*
X62200000Y-66050000D02*
X62200000Y-65950000D01*
%TD*%
%LPC*%
D12*
%TO.C,SW1*%
X50600000Y-92000000D03*
X57400000Y-92000000D03*
D13*
X51500000Y-89250000D03*
X54000000Y-89250000D03*
X56500000Y-89250000D03*
%TD*%
D14*
%TO.C,H4*%
X161000000Y-109000000D03*
%TD*%
D15*
%TO.C,J2*%
X105750000Y-52750000D03*
X106250000Y-52750000D03*
X106750000Y-52750000D03*
X107250000Y-52750000D03*
X107750000Y-52750000D03*
X108250000Y-52750000D03*
X108750000Y-52750000D03*
X109250000Y-52750000D03*
X109750000Y-52750000D03*
X110250000Y-52750000D03*
D16*
X104700000Y-54650000D03*
X111300000Y-54650000D03*
%TD*%
D17*
%TO.C,J3*%
X153775000Y-96275000D03*
X152675000Y-96275000D03*
X151575000Y-96275000D03*
X150475000Y-96275000D03*
X149375000Y-96275000D03*
X148275000Y-96275000D03*
X147175000Y-96275000D03*
X146075000Y-96275000D03*
X145125000Y-96275000D03*
D18*
X144175000Y-106775000D03*
D19*
X144175000Y-100575000D03*
D20*
X144175000Y-110925000D03*
D19*
X155325000Y-96275000D03*
D21*
X157675000Y-111375000D03*
%TD*%
D14*
%TO.C,H3*%
X55000000Y-109000000D03*
%TD*%
D22*
%TO.C,SW2*%
X57950000Y-75200000D03*
X62050000Y-75200000D03*
X57950000Y-76800000D03*
X62050000Y-76800000D03*
%TD*%
D23*
%TO.C,J1*%
X105110000Y-108395000D03*
X110890000Y-108395000D03*
D24*
X104800000Y-107255000D03*
X105600000Y-107255000D03*
D25*
X106750000Y-107255000D03*
X107750000Y-107255000D03*
X108250000Y-107255000D03*
X109250000Y-107255000D03*
D24*
X110400000Y-107255000D03*
X111200000Y-107255000D03*
X111200000Y-107255000D03*
X110400000Y-107255000D03*
D25*
X109750000Y-107255000D03*
X108750000Y-107255000D03*
X107250000Y-107255000D03*
X106250000Y-107255000D03*
D24*
X105600000Y-107255000D03*
X104800000Y-107255000D03*
D26*
X103680000Y-107895000D03*
D27*
X103680000Y-112075000D03*
D26*
X112320000Y-107895000D03*
D27*
X112320000Y-112075000D03*
%TD*%
D28*
%TO.C,U6*%
X58000000Y-58700000D03*
D29*
X56650000Y-57150000D03*
X58000000Y-57150000D03*
X59350000Y-57150000D03*
X59350000Y-58850000D03*
X56650000Y-58850000D03*
%TD*%
D14*
%TO.C,H2*%
X93500000Y-57500000D03*
%TD*%
%TO.C,H1*%
X55000000Y-55000000D03*
%TD*%
D30*
%TO.C,J6*%
X157500000Y-80000000D03*
X158500000Y-80000000D03*
X159500000Y-80000000D03*
X160500000Y-80000000D03*
X161500000Y-80000000D03*
X162500000Y-80000000D03*
D31*
X156200000Y-83875000D03*
X163800000Y-83875000D03*
%TD*%
D22*
%TO.C,SW3*%
X57950000Y-65200000D03*
X62050000Y-65200000D03*
X57950000Y-66800000D03*
X62050000Y-66800000D03*
%TD*%
%LPD*%
M02*
