solid 
 facet normal -1.000000e+00  0.000000e+00 -0.000000e+00
   outer loop
     vertex  6.218000e+01  9.290000e+00  2.300000e+00
     vertex  6.218000e+01  9.290000e+00 -3.500264e+00
     vertex  6.218000e+01  4.090000e+00 -3.500264e+00
   endloop
 endfacet
 facet normal -1.000000e+00  0.000000e+00  0.000000e+00
   outer loop
     vertex  6.218000e+01  4.090000e+00  2.300000e+00
     vertex  6.218000e+01  9.290000e+00  2.300000e+00
     vertex  6.218000e+01  4.090000e+00 -3.500264e+00
   endloop
 endfacet
 facet normal  1.000000e+00  0.000000e+00  0.000000e+00
   outer loop
     vertex  7.082000e+01  9.290000e+00  2.300000e+00
     vertex  7.082000e+01  4.090000e+00 -3.500264e+00
     vertex  7.082000e+01  9.290000e+00 -3.500264e+00
   endloop
 endfacet
 facet normal  1.000000e+00 -0.000000e+00  0.000000e+00
   outer loop
     vertex  7.082000e+01  4.090000e+00  2.300000e+00
     vertex  7.082000e+01  4.090000e+00 -3.500264e+00
     vertex  7.082000e+01  9.290000e+00  2.300000e+00
   endloop
 endfacet
 facet normal  0.000000e+00 -1.000000e+00 -0.000000e+00
   outer loop
     vertex  7.082000e+01  4.090000e+00  2.300000e+00
     vertex  6.218000e+01  4.090000e+00 -3.500264e+00
     vertex  7.082000e+01  4.090000e+00 -3.500264e+00
   endloop
 endfacet
 facet normal -0.000000e+00 -1.000000e+00  0.000000e+00
   outer loop
     vertex  7.082000e+01  4.090000e+00  2.300000e+00
     vertex  6.218000e+01  4.090000e+00  2.300000e+00
     vertex  6.218000e+01  4.090000e+00 -3.500264e+00
   endloop
 endfacet
 facet normal  0.000000e+00  1.000000e+00  0.000000e+00
   outer loop
     vertex  7.082000e+01  9.290000e+00  2.300000e+00
     vertex  7.082000e+01  9.290000e+00 -3.500264e+00
     vertex  6.218000e+01  9.290000e+00 -3.500264e+00
   endloop
 endfacet
 facet normal  0.000000e+00  1.000000e+00  0.000000e+00
   outer loop
     vertex  7.082000e+01  9.290000e+00  2.300000e+00
     vertex  6.218000e+01  9.290000e+00 -3.500264e+00
     vertex  6.218000e+01  9.290000e+00  2.300000e+00
   endloop
 endfacet
 facet normal -0.000000e+00  0.000000e+00 -1.000000e+00
   outer loop
     vertex  7.082000e+01  9.290000e+00 -3.500264e+00
     vertex  6.218000e+01  4.090000e+00 -3.500264e+00
     vertex  6.218000e+01  9.290000e+00 -3.500264e+00
   endloop
 endfacet
 facet normal  0.000000e+00 -0.000000e+00 -1.000000e+00
   outer loop
     vertex  7.082000e+01  9.290000e+00 -3.500264e+00
     vertex  7.082000e+01  4.090000e+00 -3.500264e+00
     vertex  6.218000e+01  4.090000e+00 -3.500264e+00
   endloop
 endfacet
 facet normal  0.000000e+00  0.000000e+00  1.000000e+00
   outer loop
     vertex  7.082000e+01  9.290000e+00  2.300000e+00
     vertex  6.218000e+01  9.290000e+00  2.300000e+00
     vertex  6.218000e+01  4.090000e+00  2.300000e+00
   endloop
 endfacet
 facet normal  0.000000e+00  0.000000e+00  1.000000e+00
   outer loop
     vertex  7.082000e+01  9.290000e+00  2.300000e+00
     vertex  6.218000e+01  4.090000e+00  2.300000e+00
     vertex  7.082000e+01  4.090000e+00  2.300000e+00
   endloop
 endfacet
endsolid
