solid 
 facet normal -1.000000e+00  0.000000e+00  0.000000e+00
   outer loop
     vertex  6.247500e+01  7.400000e+00  2.400000e+00
     vertex  6.247500e+01  1.225000e+01  1.400000e+00
     vertex  6.247500e+01  7.400000e+00  1.400000e+00
   endloop
 endfacet
 facet normal -1.000000e+00  0.000000e+00  0.000000e+00
   outer loop
     vertex  6.247500e+01  7.400000e+00  2.400000e+00
     vertex  6.247500e+01  1.225000e+01  2.400000e+00
     vertex  6.247500e+01  1.225000e+01  1.400000e+00
   endloop
 endfacet
 facet normal  1.000000e+00  0.000000e+00  0.000000e+00
   outer loop
     vertex  7.052500e+01  7.400000e+00  2.400000e+00
     vertex  7.052500e+01  7.400000e+00  1.400000e+00
     vertex  7.052500e+01  1.225000e+01  1.400000e+00
   endloop
 endfacet
 facet normal  1.000000e+00 -0.000000e+00  0.000000e+00
   outer loop
     vertex  7.052500e+01  7.400000e+00  2.400000e+00
     vertex  7.052500e+01  1.225000e+01  1.400000e+00
     vertex  7.052500e+01  1.225000e+01  2.400000e+00
   endloop
 endfacet
 facet normal  0.000000e+00 -1.000000e+00  0.000000e+00
   outer loop
     vertex  7.052500e+01  7.400000e+00  1.400000e+00
     vertex  6.247500e+01  7.400000e+00  2.400000e+00
     vertex  6.247500e+01  7.400000e+00  1.400000e+00
   endloop
 endfacet
 facet normal -0.000000e+00 -1.000000e+00 -0.000000e+00
   outer loop
     vertex  7.052500e+01  7.400000e+00  2.400000e+00
     vertex  6.247500e+01  7.400000e+00  2.400000e+00
     vertex  7.052500e+01  7.400000e+00  1.400000e+00
   endloop
 endfacet
 facet normal  0.000000e+00  1.000000e+00  0.000000e+00
   outer loop
     vertex  7.052500e+01  1.225000e+01  1.400000e+00
     vertex  6.247500e+01  1.225000e+01  1.400000e+00
     vertex  6.247500e+01  1.225000e+01  2.400000e+00
   endloop
 endfacet
 facet normal  0.000000e+00  1.000000e+00  0.000000e+00
   outer loop
     vertex  7.052500e+01  1.225000e+01  2.400000e+00
     vertex  7.052500e+01  1.225000e+01  1.400000e+00
     vertex  6.247500e+01  1.225000e+01  2.400000e+00
   endloop
 endfacet
 facet normal -0.000000e+00  0.000000e+00 -1.000000e+00
   outer loop
     vertex  7.052500e+01  1.225000e+01  1.400000e+00
     vertex  6.247500e+01  7.400000e+00  1.400000e+00
     vertex  6.247500e+01  1.225000e+01  1.400000e+00
   endloop
 endfacet
 facet normal  0.000000e+00 -0.000000e+00 -1.000000e+00
   outer loop
     vertex  7.052500e+01  1.225000e+01  1.400000e+00
     vertex  7.052500e+01  7.400000e+00  1.400000e+00
     vertex  6.247500e+01  7.400000e+00  1.400000e+00
   endloop
 endfacet
 facet normal  0.000000e+00  0.000000e+00  1.000000e+00
   outer loop
     vertex  7.052500e+01  1.225000e+01  2.400000e+00
     vertex  6.247500e+01  1.225000e+01  2.400000e+00
     vertex  6.247500e+01  7.400000e+00  2.400000e+00
   endloop
 endfacet
 facet normal  0.000000e+00  0.000000e+00  1.000000e+00
   outer loop
     vertex  7.052500e+01  1.225000e+01  2.400000e+00
     vertex  6.247500e+01  7.400000e+00  2.400000e+00
     vertex  7.052500e+01  7.400000e+00  2.400000e+00
   endloop
 endfacet
endsolid
