solid 
 facet normal -1.000000e+00  0.000000e+00  0.000000e+00
   outer loop
     vertex  5.866957e+01  8.035000e-01  2.400000e+00
     vertex  5.866957e+01  6.434433e+00 -1.600000e+00
     vertex  5.866957e+01  8.035000e-01 -1.600000e+00
   endloop
 endfacet
 facet normal -1.000000e+00  0.000000e+00  0.000000e+00
   outer loop
     vertex  5.866957e+01  8.035000e-01  2.400000e+00
     vertex  5.866957e+01  6.434433e+00  2.400000e+00
     vertex  5.866957e+01  6.434433e+00 -1.600000e+00
   endloop
 endfacet
 facet normal  1.000000e+00  0.000000e+00  0.000000e+00
   outer loop
     vertex  7.130050e+01  8.035000e-01  2.400000e+00
     vertex  7.130050e+01  8.035000e-01 -1.600000e+00
     vertex  7.130050e+01  6.434433e+00 -1.600000e+00
   endloop
 endfacet
 facet normal  1.000000e+00 -0.000000e+00  0.000000e+00
   outer loop
     vertex  7.130050e+01  8.035000e-01  2.400000e+00
     vertex  7.130050e+01  6.434433e+00 -1.600000e+00
     vertex  7.130050e+01  6.434433e+00  2.400000e+00
   endloop
 endfacet
 facet normal  0.000000e+00 -1.000000e+00  0.000000e+00
   outer loop
     vertex  7.130050e+01  8.035000e-01 -1.600000e+00
     vertex  5.866957e+01  8.035000e-01  2.400000e+00
     vertex  5.866957e+01  8.035000e-01 -1.600000e+00
   endloop
 endfacet
 facet normal -0.000000e+00 -1.000000e+00 -0.000000e+00
   outer loop
     vertex  7.130050e+01  8.035000e-01  2.400000e+00
     vertex  5.866957e+01  8.035000e-01  2.400000e+00
     vertex  7.130050e+01  8.035000e-01 -1.600000e+00
   endloop
 endfacet
 facet normal  0.000000e+00  1.000000e+00  0.000000e+00
   outer loop
     vertex  7.130050e+01  6.434433e+00 -1.600000e+00
     vertex  5.866957e+01  6.434433e+00 -1.600000e+00
     vertex  5.866957e+01  6.434433e+00  2.400000e+00
   endloop
 endfacet
 facet normal  0.000000e+00  1.000000e+00  0.000000e+00
   outer loop
     vertex  7.130050e+01  6.434433e+00  2.400000e+00
     vertex  7.130050e+01  6.434433e+00 -1.600000e+00
     vertex  5.866957e+01  6.434433e+00  2.400000e+00
   endloop
 endfacet
 facet normal -0.000000e+00  0.000000e+00 -1.000000e+00
   outer loop
     vertex  7.130050e+01  6.434433e+00 -1.600000e+00
     vertex  5.866957e+01  8.035000e-01 -1.600000e+00
     vertex  5.866957e+01  6.434433e+00 -1.600000e+00
   endloop
 endfacet
 facet normal  0.000000e+00 -0.000000e+00 -1.000000e+00
   outer loop
     vertex  7.130050e+01  6.434433e+00 -1.600000e+00
     vertex  7.130050e+01  8.035000e-01 -1.600000e+00
     vertex  5.866957e+01  8.035000e-01 -1.600000e+00
   endloop
 endfacet
 facet normal  0.000000e+00  0.000000e+00  1.000000e+00
   outer loop
     vertex  7.130050e+01  6.434433e+00  2.400000e+00
     vertex  5.866957e+01  6.434433e+00  2.400000e+00
     vertex  5.866957e+01  8.035000e-01  2.400000e+00
   endloop
 endfacet
 facet normal  0.000000e+00  0.000000e+00  1.000000e+00
   outer loop
     vertex  7.130050e+01  6.434433e+00  2.400000e+00
     vertex  5.866957e+01  8.035000e-01  2.400000e+00
     vertex  7.130050e+01  8.035000e-01  2.400000e+00
   endloop
 endfacet
endsolid
