solid 
 facet normal -1.000000e+00  0.000000e+00  0.000000e+00
   outer loop
     vertex  3.360000e+01  8.590000e+00 -3.000264e+00
     vertex  3.360000e+01  5.141000e+01 -3.400264e+00
     vertex  3.360000e+01  8.590000e+00 -3.400264e+00
   endloop
 endfacet
 facet normal -1.000000e+00  0.000000e+00  0.000000e+00
   outer loop
     vertex  3.360000e+01  8.590000e+00 -3.000264e+00
     vertex  3.360000e+01  5.141000e+01 -3.000264e+00
     vertex  3.360000e+01  5.141000e+01 -3.400264e+00
   endloop
 endfacet
 facet normal  0.000000e+00 -1.000000e+00  0.000000e+00
   outer loop
     vertex  9.640000e+01  8.590000e+00 -3.400264e+00
     vertex  3.360000e+01  8.590000e+00 -3.000264e+00
     vertex  3.360000e+01  8.590000e+00 -3.400264e+00
   endloop
 endfacet
 facet normal -0.000000e+00 -1.000000e+00 -0.000000e+00
   outer loop
     vertex  9.640000e+01  8.590000e+00 -3.000264e+00
     vertex  3.360000e+01  8.590000e+00 -3.000264e+00
     vertex  9.640000e+01  8.590000e+00 -3.400264e+00
   endloop
 endfacet
 facet normal  0.000000e+00  0.000000e+00  1.000000e+00
   outer loop
     vertex  3.360000e+01  5.141000e+01 -3.000264e+00
     vertex  3.500000e+01  1.176000e+01 -3.000264e+00
     vertex  3.500000e+01  4.824000e+01 -3.000264e+00
   endloop
 endfacet
 facet normal  0.000000e+00  0.000000e+00  1.000000e+00
   outer loop
     vertex  3.360000e+01  5.141000e+01 -3.000264e+00
     vertex  3.360000e+01  8.590000e+00 -3.000264e+00
     vertex  3.500000e+01  1.176000e+01 -3.000264e+00
   endloop
 endfacet
 facet normal  0.000000e+00  0.000000e+00  1.000000e+00
   outer loop
     vertex  9.500000e+01  1.176000e+01 -3.000264e+00
     vertex  3.360000e+01  8.590000e+00 -3.000264e+00
     vertex  9.640000e+01  8.590000e+00 -3.000264e+00
   endloop
 endfacet
 facet normal  0.000000e+00  0.000000e+00  1.000000e+00
   outer loop
     vertex  9.500000e+01  1.176000e+01 -3.000264e+00
     vertex  3.500000e+01  1.176000e+01 -3.000264e+00
     vertex  3.360000e+01  8.590000e+00 -3.000264e+00
   endloop
 endfacet
 facet normal  0.000000e+00  0.000000e+00  1.000000e+00
   outer loop
     vertex  9.640000e+01  5.141000e+01 -3.000264e+00
     vertex  3.500000e+01  4.824000e+01 -3.000264e+00
     vertex  9.500000e+01  4.824000e+01 -3.000264e+00
   endloop
 endfacet
 facet normal  0.000000e+00  0.000000e+00  1.000000e+00
   outer loop
     vertex  9.640000e+01  5.141000e+01 -3.000264e+00
     vertex  9.500000e+01  4.824000e+01 -3.000264e+00
     vertex  9.500000e+01  1.176000e+01 -3.000264e+00
   endloop
 endfacet
 facet normal  0.000000e+00  0.000000e+00  1.000000e+00
   outer loop
     vertex  9.640000e+01  5.141000e+01 -3.000264e+00
     vertex  9.500000e+01  1.176000e+01 -3.000264e+00
     vertex  9.640000e+01  8.590000e+00 -3.000264e+00
   endloop
 endfacet
 facet normal  0.000000e+00  0.000000e+00  1.000000e+00
   outer loop
     vertex  9.640000e+01  5.141000e+01 -3.000264e+00
     vertex  3.360000e+01  5.141000e+01 -3.000264e+00
     vertex  3.500000e+01  4.824000e+01 -3.000264e+00
   endloop
 endfacet
 facet normal  0.000000e+00  1.000000e+00  0.000000e+00
   outer loop
     vertex  9.640000e+01  5.141000e+01 -3.400264e+00
     vertex  3.360000e+01  5.141000e+01 -3.400264e+00
     vertex  3.360000e+01  5.141000e+01 -3.000264e+00
   endloop
 endfacet
 facet normal  0.000000e+00  1.000000e+00  0.000000e+00
   outer loop
     vertex  9.640000e+01  5.141000e+01 -3.000264e+00
     vertex  9.640000e+01  5.141000e+01 -3.400264e+00
     vertex  3.360000e+01  5.141000e+01 -3.000264e+00
   endloop
 endfacet
 facet normal  0.000000e+00  0.000000e+00 -1.000000e+00
   outer loop
     vertex  3.360000e+01  5.141000e+01 -3.400264e+00
     vertex  3.500000e+01  4.824000e+01 -3.400264e+00
     vertex  3.500000e+01  1.176000e+01 -3.400264e+00
   endloop
 endfacet
 facet normal  0.000000e+00  0.000000e+00 -1.000000e+00
   outer loop
     vertex  3.360000e+01  5.141000e+01 -3.400264e+00
     vertex  3.500000e+01  1.176000e+01 -3.400264e+00
     vertex  3.360000e+01  8.590000e+00 -3.400264e+00
   endloop
 endfacet
 facet normal  0.000000e+00 -0.000000e+00 -1.000000e+00
   outer loop
     vertex  9.500000e+01  1.176000e+01 -3.400264e+00
     vertex  9.640000e+01  8.590000e+00 -3.400264e+00
     vertex  3.360000e+01  8.590000e+00 -3.400264e+00
   endloop
 endfacet
 facet normal -0.000000e+00  0.000000e+00 -1.000000e+00
   outer loop
     vertex  9.500000e+01  1.176000e+01 -3.400264e+00
     vertex  3.360000e+01  8.590000e+00 -3.400264e+00
     vertex  3.500000e+01  1.176000e+01 -3.400264e+00
   endloop
 endfacet
 facet normal  0.000000e+00  0.000000e+00 -1.000000e+00
   outer loop
     vertex  9.640000e+01  5.141000e+01 -3.400264e+00
     vertex  9.500000e+01  4.824000e+01 -3.400264e+00
     vertex  3.500000e+01  4.824000e+01 -3.400264e+00
   endloop
 endfacet
 facet normal  0.000000e+00  0.000000e+00 -1.000000e+00
   outer loop
     vertex  9.640000e+01  5.141000e+01 -3.400264e+00
     vertex  9.500000e+01  1.176000e+01 -3.400264e+00
     vertex  9.500000e+01  4.824000e+01 -3.400264e+00
   endloop
 endfacet
 facet normal  0.000000e+00 -0.000000e+00 -1.000000e+00
   outer loop
     vertex  9.640000e+01  5.141000e+01 -3.400264e+00
     vertex  9.640000e+01  8.590000e+00 -3.400264e+00
     vertex  9.500000e+01  1.176000e+01 -3.400264e+00
   endloop
 endfacet
 facet normal -0.000000e+00  0.000000e+00 -1.000000e+00
   outer loop
     vertex  9.640000e+01  5.141000e+01 -3.400264e+00
     vertex  3.500000e+01  4.824000e+01 -3.400264e+00
     vertex  3.360000e+01  5.141000e+01 -3.400264e+00
   endloop
 endfacet
 facet normal  1.000000e+00  0.000000e+00  0.000000e+00
   outer loop
     vertex  9.640000e+01  8.590000e+00 -3.000264e+00
     vertex  9.640000e+01  8.590000e+00 -3.400264e+00
     vertex  9.640000e+01  5.141000e+01 -3.400264e+00
   endloop
 endfacet
 facet normal  1.000000e+00 -0.000000e+00  0.000000e+00
   outer loop
     vertex  9.640000e+01  8.590000e+00 -3.000264e+00
     vertex  9.640000e+01  5.141000e+01 -3.400264e+00
     vertex  9.640000e+01  5.141000e+01 -3.000264e+00
   endloop
 endfacet
 facet normal  0.000000e+00  1.000000e+00  0.000000e+00
   outer loop
     vertex  9.500000e+01  1.176000e+01 -3.000264e+00
     vertex  9.500000e+01  1.176000e+01 -3.400264e+00
     vertex  3.500000e+01  1.176000e+01 -3.400264e+00
   endloop
 endfacet
 facet normal  0.000000e+00  1.000000e+00  0.000000e+00
   outer loop
     vertex  9.500000e+01  1.176000e+01 -3.000264e+00
     vertex  3.500000e+01  1.176000e+01 -3.400264e+00
     vertex  3.500000e+01  1.176000e+01 -3.000264e+00
   endloop
 endfacet
 facet normal -1.000000e+00  0.000000e+00  0.000000e+00
   outer loop
     vertex  9.500000e+01  1.176000e+01 -3.400264e+00
     vertex  9.500000e+01  4.824000e+01 -3.000264e+00
     vertex  9.500000e+01  4.824000e+01 -3.400264e+00
   endloop
 endfacet
 facet normal -1.000000e+00  0.000000e+00  0.000000e+00
   outer loop
     vertex  9.500000e+01  1.176000e+01 -3.000264e+00
     vertex  9.500000e+01  4.824000e+01 -3.000264e+00
     vertex  9.500000e+01  1.176000e+01 -3.400264e+00
   endloop
 endfacet
 facet normal  0.000000e+00 -1.000000e+00 -0.000000e+00
   outer loop
     vertex  9.500000e+01  4.824000e+01 -3.000264e+00
     vertex  3.500000e+01  4.824000e+01 -3.400264e+00
     vertex  9.500000e+01  4.824000e+01 -3.400264e+00
   endloop
 endfacet
 facet normal -0.000000e+00 -1.000000e+00  0.000000e+00
   outer loop
     vertex  9.500000e+01  4.824000e+01 -3.000264e+00
     vertex  3.500000e+01  4.824000e+01 -3.000264e+00
     vertex  3.500000e+01  4.824000e+01 -3.400264e+00
   endloop
 endfacet
 facet normal  1.000000e+00  0.000000e+00  0.000000e+00
   outer loop
     vertex  3.500000e+01  1.176000e+01 -3.400264e+00
     vertex  3.500000e+01  4.824000e+01 -3.400264e+00
     vertex  3.500000e+01  4.824000e+01 -3.000264e+00
   endloop
 endfacet
 facet normal  1.000000e+00 -0.000000e+00  0.000000e+00
   outer loop
     vertex  3.500000e+01  1.176000e+01 -3.000264e+00
     vertex  3.500000e+01  1.176000e+01 -3.400264e+00
     vertex  3.500000e+01  4.824000e+01 -3.000264e+00
   endloop
 endfacet
endsolid
