<?xml version="1.0" standalone="no"?>
 <!DOCTYPE svg PUBLIC "-//W3C//DTD SVG 1.1//EN" 
 "http://www.w3.org/Graphics/SVG/1.1/DTD/svg11.dtd"> 
<svg
  xmlns:svg="http://www.w3.org/2000/svg"
  xmlns="http://www.w3.org/2000/svg"
  xmlns:xlink="http://www.w3.org/1999/xlink"
  xmlns:inkscape="http://www.inkscape.org/namespaces/inkscape"
  version="1.1"
  width="13.487400mm" height="8.382000mm" viewBox="0.000000 0.000000 13.487400 8.382000">
<title>SVG Image created as GT-TC020A-H035-L1.svg date 2026-07-22T06:56:24 </title>
  <desc>Image generated by PCBNEW </desc>
<g style="fill:#000000; fill-opacity:1.000000;stroke:#000000; stroke-opacity:1.000000;
stroke-linecap:round; stroke-linejoin:round;"
 transform="translate(0 0) scale(1 1)">
<path style="fill:#C83434; fill-opacity:1.000000; stroke:none;fill-rule:evenodd;"
d="M 4.747619,2.712200
4.747619,1.772200
5.347619,1.772200
5.347619,2.712200
Z" /> 
<path style="fill:#C83434; fill-opacity:1.000000; stroke:none;fill-rule:evenodd;"
d="M 8.147619,2.712200
8.147619,1.772200
8.747619,1.772200
8.747619,2.712200
Z" /> 
<path style="fill:#C83434; fill-opacity:1.000000; stroke:none;fill-rule:evenodd;"
d="M 5.977619,2.712200
5.977619,1.772200
7.517619,1.772200
7.517619,2.712200
Z" /> 
<path style="fill:#B4A09A; fill-opacity:0.900000; stroke:none;fill-rule:evenodd;"
d="M 4.747619,2.712200
4.747619,1.772200
5.347619,1.772200
5.347619,2.712200
Z" /> 
<path style="fill:#B4A09A; fill-opacity:0.900000; stroke:none;fill-rule:evenodd;"
d="M 8.147619,2.712200
8.147619,1.772200
8.747619,1.772200
8.747619,2.712200
Z" /> 
<path style="fill:#B4A09A; fill-opacity:0.900000; stroke:none;fill-rule:evenodd;"
d="M 5.977619,2.712200
5.977619,1.772200
7.517619,1.772200
7.517619,2.712200
Z" /> 
<path style="fill:#D864FF; fill-opacity:0.400000; stroke:none;fill-rule:evenodd;"
d="M 4.747619,2.712200
4.747619,1.772200
5.347619,1.772200
5.347619,2.712200
Z" /> 
<path style="fill:#D864FF; fill-opacity:0.400000; stroke:none;fill-rule:evenodd;"
d="M 8.147619,2.712200
8.147619,1.772200
8.747619,1.772200
8.747619,2.712200
Z" /> 
<path style="fill:#D864FF; fill-opacity:0.400000; stroke:none;fill-rule:evenodd;"
d="M 5.977619,2.712200
5.977619,1.772200
7.517619,1.772200
7.517619,2.712200
Z" /> 
</g>
<g style="fill:#D864FF; fill-opacity:0.400000; stroke:none;">
<circle cx="4.572619" cy="3.572200" r="0.385000" /> 
<circle cx="8.922619" cy="3.572200" r="0.385000" /> 
<circle cx="5.897619" cy="3.572200" r="0.350000" /> 
<circle cx="7.597619" cy="3.572200" r="0.350000" /> 
</g>
<g style="fill:none; 
stroke:#F2EDA1; stroke-width:0.140000; stroke-opacity:1; 
stroke-linecap:round; stroke-linejoin:round;">
<text x="6.747619" y="1.222200"
textLength="4.097143" font-size="1.200000" lengthAdjust="spacingAndGlyphs"
text-anchor="middle" opacity="0" stroke-opacity="0">REF**</text>
<g class="stroked-text"><desc>REF**</desc>
<path d="M5.547620 1.181278
L5.247620 0.752706
" />
<path d="M5.033334 1.181278
L5.033334 0.281278
" />
<path d="M5.033334 0.281278
L5.376191 0.281278
" />
<path d="M5.376191 0.281278
L5.461906 0.324135
" />
<path d="M5.461906 0.324135
L5.504763 0.366992
" />
<path d="M5.504763 0.366992
L5.547620 0.452706
" />
<path d="M5.547620 0.452706
L5.547620 0.581278
" />
<path d="M5.547620 0.581278
L5.504763 0.666992
" />
<path d="M5.504763 0.666992
L5.461906 0.709849
" />
<path d="M5.461906 0.709849
L5.376191 0.752706
" />
<path d="M5.376191 0.752706
L5.033334 0.752706
" />
<path d="M5.933334 0.709849
L6.233334 0.709849
" />
<path d="M6.361906 1.181278
L5.933334 1.181278
" />
<path d="M5.933334 1.181278
L5.933334 0.281278
" />
<path d="M5.933334 0.281278
L6.361906 0.281278
" />
<path d="M7.047619 0.709849
L6.747619 0.709849
" />
<path d="M6.747619 1.181278
L6.747619 0.281278
" />
<path d="M6.747619 0.281278
L7.176191 0.281278
" />
<path d="M7.647620 0.281278
L7.647620 0.495563
" />
<path d="M7.433334 0.409849
L7.647620 0.495563
" />
<path d="M7.647620 0.495563
L7.861905 0.409849
" />
<path d="M7.519048 0.666992
L7.647620 0.495563
" />
<path d="M7.647620 0.495563
L7.776191 0.666992
" />
<path d="M8.333334 0.281278
L8.333334 0.495563
" />
<path d="M8.119048 0.409849
L8.333334 0.495563
" />
<path d="M8.333334 0.495563
L8.547619 0.409849
" />
<path d="M8.204762 0.666992
L8.333334 0.495563
" />
<path d="M8.333334 0.495563
L8.461905 0.666992
" />
</g></g>
<g style="fill:none; 
stroke:#F2EDA1; stroke-width:0.100000; stroke-opacity:1; 
stroke-linecap:round; stroke-linejoin:round;">
<text x="6.747619" y="7.397200"
textLength="3.296191" font-size="0.866666" lengthAdjust="spacingAndGlyphs"
text-anchor="middle" opacity="0" stroke-opacity="0">PRESS</text>
<g class="stroked-text"><desc>PRESS</desc>
<path d="M5.339286 7.367702
L5.339286 6.717702
" />
<path d="M5.339286 6.717702
L5.586905 6.717702
" />
<path d="M5.586905 6.717702
L5.648810 6.748654
" />
<path d="M5.648810 6.748654
L5.679763 6.779607
" />
<path d="M5.679763 6.779607
L5.710715 6.841511
" />
<path d="M5.710715 6.841511
L5.710715 6.934369
" />
<path d="M5.710715 6.934369
L5.679763 6.996273
" />
<path d="M5.679763 6.996273
L5.648810 7.027226
" />
<path d="M5.648810 7.027226
L5.586905 7.058178
" />
<path d="M5.586905 7.058178
L5.339286 7.058178
" />
<path d="M6.360715 7.367702
L6.144048 7.058178
" />
<path d="M5.989286 7.367702
L5.989286 6.717702
" />
<path d="M5.989286 6.717702
L6.236905 6.717702
" />
<path d="M6.236905 6.717702
L6.298810 6.748654
" />
<path d="M6.298810 6.748654
L6.329763 6.779607
" />
<path d="M6.329763 6.779607
L6.360715 6.841511
" />
<path d="M6.360715 6.841511
L6.360715 6.934369
" />
<path d="M6.360715 6.934369
L6.329763 6.996273
" />
<path d="M6.329763 6.996273
L6.298810 7.027226
" />
<path d="M6.298810 7.027226
L6.236905 7.058178
" />
<path d="M6.236905 7.058178
L5.989286 7.058178
" />
<path d="M6.639286 7.027226
L6.855952 7.027226
" />
<path d="M6.948809 7.367702
L6.639286 7.367702
" />
<path d="M6.639286 7.367702
L6.639286 6.717702
" />
<path d="M6.639286 6.717702
L6.948809 6.717702
" />
<path d="M7.196428 7.336750
L7.289285 7.367702
" />
<path d="M7.289285 7.367702
L7.444047 7.367702
" />
<path d="M7.444047 7.367702
L7.505952 7.336750
" />
<path d="M7.505952 7.336750
L7.536904 7.305797
" />
<path d="M7.536904 7.305797
L7.567857 7.243892
" />
<path d="M7.567857 7.243892
L7.567857 7.181988
" />
<path d="M7.567857 7.181988
L7.536904 7.120083
" />
<path d="M7.536904 7.120083
L7.505952 7.089130
" />
<path d="M7.505952 7.089130
L7.444047 7.058178
" />
<path d="M7.444047 7.058178
L7.320238 7.027226
" />
<path d="M7.320238 7.027226
L7.258333 6.996273
" />
<path d="M7.258333 6.996273
L7.227380 6.965321
" />
<path d="M7.227380 6.965321
L7.196428 6.903416
" />
<path d="M7.196428 6.903416
L7.196428 6.841511
" />
<path d="M7.196428 6.841511
L7.227380 6.779607
" />
<path d="M7.227380 6.779607
L7.258333 6.748654
" />
<path d="M7.258333 6.748654
L7.320238 6.717702
" />
<path d="M7.320238 6.717702
L7.474999 6.717702
" />
<path d="M7.474999 6.717702
L7.567857 6.748654
" />
<path d="M7.815476 7.336750
L7.908333 7.367702
" />
<path d="M7.908333 7.367702
L8.063095 7.367702
" />
<path d="M8.063095 7.367702
L8.125000 7.336750
" />
<path d="M8.125000 7.336750
L8.155952 7.305797
" />
<path d="M8.155952 7.305797
L8.186905 7.243892
" />
<path d="M8.186905 7.243892
L8.186905 7.181988
" />
<path d="M8.186905 7.181988
L8.155952 7.120083
" />
<path d="M8.155952 7.120083
L8.125000 7.089130
" />
<path d="M8.125000 7.089130
L8.063095 7.058178
" />
<path d="M8.063095 7.058178
L7.939286 7.027226
" />
<path d="M7.939286 7.027226
L7.877381 6.996273
" />
<path d="M7.877381 6.996273
L7.846428 6.965321
" />
<path d="M7.846428 6.965321
L7.815476 6.903416
" />
<path d="M7.815476 6.903416
L7.815476 6.841511
" />
<path d="M7.815476 6.841511
L7.846428 6.779607
" />
<path d="M7.846428 6.779607
L7.877381 6.748654
" />
<path d="M7.877381 6.748654
L7.939286 6.717702
" />
<path d="M7.939286 6.717702
L8.094047 6.717702
" />
<path d="M8.094047 6.717702
L8.186905 6.748654
" />
</g></g>
<g style="fill:none; 
stroke:#F2EDA1; stroke-width:0.120000; stroke-opacity:1; 
stroke-linecap:round; stroke-linejoin:round;">
<text x="5.047619" y="1.772200"
textLength="0.886667" font-size="0.933333" lengthAdjust="spacingAndGlyphs"
text-anchor="middle" opacity="0" stroke-opacity="0">1</text>
<g class="stroked-text"><desc>1</desc>
<path d="M5.247620 1.739794
L4.847620 1.739794
" />
<path d="M5.047620 1.739794
L5.047620 1.039794
" />
<path d="M5.047620 1.039794
L4.980953 1.139794
" />
<path d="M4.980953 1.139794
L4.914286 1.206460
" />
<path d="M4.914286 1.206460
L4.847620 1.239794
" />
</g><path d="M4.297619 2.272200
L4.297619 4.872200
" />
<path d="M4.297619 2.272200
L9.197619 2.272200
" />
<path d="M9.197619 2.272200
L9.197619 4.872200
" />
<path d="M5.667619 4.872200
L4.297619 4.872200
" />
<path d="M7.827619 4.872200
L9.197619 4.872200
" />
</g>
<g style="fill:none; 
stroke:#F2EDA1; stroke-width:0.180000; stroke-opacity:1; 
stroke-linecap:round; stroke-linejoin:round;">
<path d="M6.747619 6.022200
L6.747619 6.672200
" />
<path d="M6.497619 6.372200
L6.747619 6.672200
" />
<path d="M6.997619 6.372200
L6.747619 6.672200
" />
</g>
<g style="fill:none; 
stroke:#AFAFAF; stroke-width:0.120000; stroke-opacity:1; 
stroke-linecap:round; stroke-linejoin:round;">
<text x="6.747619" y="8.122200"
textLength="13.495239" font-size="1.066666" lengthAdjust="spacingAndGlyphs"
text-anchor="middle" opacity="0" stroke-opacity="0">GT-TC020A-H035-L1</text>
<g class="stroked-text"><desc>GT-TC020A-H035-L1</desc>
<path d="M0.709524 7.324150
L0.633334 7.286055
" />
<path d="M0.633334 7.286055
L0.519048 7.286055
" />
<path d="M0.519048 7.286055
L0.404762 7.324150
" />
<path d="M0.404762 7.324150
L0.328572 7.400340
" />
<path d="M0.328572 7.400340
L0.290477 7.476531
" />
<path d="M0.290477 7.476531
L0.252381 7.628912
" />
<path d="M0.252381 7.628912
L0.252381 7.743198
" />
<path d="M0.252381 7.743198
L0.290477 7.895579
" />
<path d="M0.290477 7.895579
L0.328572 7.971769
" />
<path d="M0.328572 7.971769
L0.404762 8.047960
" />
<path d="M0.404762 8.047960
L0.519048 8.086055
" />
<path d="M0.519048 8.086055
L0.595239 8.086055
" />
<path d="M0.595239 8.086055
L0.709524 8.047960
" />
<path d="M0.709524 8.047960
L0.747620 8.009864
" />
<path d="M0.747620 8.009864
L0.747620 7.743198
" />
<path d="M0.747620 7.743198
L0.595239 7.743198
" />
<path d="M0.976191 7.286055
L1.433334 7.286055
" />
<path d="M1.204762 8.086055
L1.204762 7.286055
" />
<path d="M1.700001 7.781293
L2.309524 7.781293
" />
<path d="M2.576191 7.286055
L3.033334 7.286055
" />
<path d="M2.804762 8.086055
L2.804762 7.286055
" />
<path d="M3.757144 8.009864
L3.719048 8.047960
" />
<path d="M3.719048 8.047960
L3.604763 8.086055
" />
<path d="M3.604763 8.086055
L3.528572 8.086055
" />
<path d="M3.528572 8.086055
L3.414286 8.047960
" />
<path d="M3.414286 8.047960
L3.338096 7.971769
" />
<path d="M3.338096 7.971769
L3.300001 7.895579
" />
<path d="M3.300001 7.895579
L3.261905 7.743198
" />
<path d="M3.261905 7.743198
L3.261905 7.628912
" />
<path d="M3.261905 7.628912
L3.300001 7.476531
" />
<path d="M3.300001 7.476531
L3.338096 7.400340
" />
<path d="M3.338096 7.400340
L3.414286 7.324150
" />
<path d="M3.414286 7.324150
L3.528572 7.286055
" />
<path d="M3.528572 7.286055
L3.604763 7.286055
" />
<path d="M3.604763 7.286055
L3.719048 7.324150
" />
<path d="M3.719048 7.324150
L3.757144 7.362245
" />
<path d="M4.252382 7.286055
L4.328572 7.286055
" />
<path d="M4.328572 7.286055
L4.404763 7.324150
" />
<path d="M4.404763 7.324150
L4.442858 7.362245
" />
<path d="M4.442858 7.362245
L4.480953 7.438436
" />
<path d="M4.480953 7.438436
L4.519048 7.590817
" />
<path d="M4.519048 7.590817
L4.519048 7.781293
" />
<path d="M4.519048 7.781293
L4.480953 7.933674
" />
<path d="M4.480953 7.933674
L4.442858 8.009864
" />
<path d="M4.442858 8.009864
L4.404763 8.047960
" />
<path d="M4.404763 8.047960
L4.328572 8.086055
" />
<path d="M4.328572 8.086055
L4.252382 8.086055
" />
<path d="M4.252382 8.086055
L4.176191 8.047960
" />
<path d="M4.176191 8.047960
L4.138096 8.009864
" />
<path d="M4.138096 8.009864
L4.100001 7.933674
" />
<path d="M4.100001 7.933674
L4.061905 7.781293
" />
<path d="M4.061905 7.781293
L4.061905 7.590817
" />
<path d="M4.061905 7.590817
L4.100001 7.438436
" />
<path d="M4.100001 7.438436
L4.138096 7.362245
" />
<path d="M4.138096 7.362245
L4.176191 7.324150
" />
<path d="M4.176191 7.324150
L4.252382 7.286055
" />
<path d="M4.823810 7.362245
L4.861906 7.324150
" />
<path d="M4.861906 7.324150
L4.938096 7.286055
" />
<path d="M4.938096 7.286055
L5.128572 7.286055
" />
<path d="M5.128572 7.286055
L5.204763 7.324150
" />
<path d="M5.204763 7.324150
L5.242858 7.362245
" />
<path d="M5.242858 7.362245
L5.280953 7.438436
" />
<path d="M5.280953 7.438436
L5.280953 7.514626
" />
<path d="M5.280953 7.514626
L5.242858 7.628912
" />
<path d="M5.242858 7.628912
L4.785715 8.086055
" />
<path d="M4.785715 8.086055
L5.280953 8.086055
" />
<path d="M5.776192 7.286055
L5.852382 7.286055
" />
<path d="M5.852382 7.286055
L5.928573 7.324150
" />
<path d="M5.928573 7.324150
L5.966668 7.362245
" />
<path d="M5.966668 7.362245
L6.004763 7.438436
" />
<path d="M6.004763 7.438436
L6.042858 7.590817
" />
<path d="M6.042858 7.590817
L6.042858 7.781293
" />
<path d="M6.042858 7.781293
L6.004763 7.933674
" />
<path d="M6.004763 7.933674
L5.966668 8.009864
" />
<path d="M5.966668 8.009864
L5.928573 8.047960
" />
<path d="M5.928573 8.047960
L5.852382 8.086055
" />
<path d="M5.852382 8.086055
L5.776192 8.086055
" />
<path d="M5.776192 8.086055
L5.700001 8.047960
" />
<path d="M5.700001 8.047960
L5.661906 8.009864
" />
<path d="M5.661906 8.009864
L5.623811 7.933674
" />
<path d="M5.623811 7.933674
L5.585715 7.781293
" />
<path d="M5.585715 7.781293
L5.585715 7.590817
" />
<path d="M5.585715 7.590817
L5.623811 7.438436
" />
<path d="M5.623811 7.438436
L5.661906 7.362245
" />
<path d="M5.661906 7.362245
L5.700001 7.324150
" />
<path d="M5.700001 7.324150
L5.776192 7.286055
" />
<path d="M6.347620 7.857483
L6.728573 7.857483
" />
<path d="M6.271430 8.086055
L6.538097 7.286055
" />
<path d="M6.538097 7.286055
L6.804762 8.086055
" />
<path d="M7.071429 7.781293
L7.680953 7.781293
" />
<path d="M8.061905 8.086055
L8.061905 7.286055
" />
<path d="M8.061905 7.667007
L8.519048 7.667007
" />
<path d="M8.519048 8.086055
L8.519048 7.286055
" />
<path d="M9.052381 7.286055
L9.128571 7.286055
" />
<path d="M9.128571 7.286055
L9.204762 7.324150
" />
<path d="M9.204762 7.324150
L9.242857 7.362245
" />
<path d="M9.242857 7.362245
L9.280952 7.438436
" />
<path d="M9.280952 7.438436
L9.319047 7.590817
" />
<path d="M9.319047 7.590817
L9.319047 7.781293
" />
<path d="M9.319047 7.781293
L9.280952 7.933674
" />
<path d="M9.280952 7.933674
L9.242857 8.009864
" />
<path d="M9.242857 8.009864
L9.204762 8.047960
" />
<path d="M9.204762 8.047960
L9.128571 8.086055
" />
<path d="M9.128571 8.086055
L9.052381 8.086055
" />
<path d="M9.052381 8.086055
L8.976190 8.047960
" />
<path d="M8.976190 8.047960
L8.938095 8.009864
" />
<path d="M8.938095 8.009864
L8.900000 7.933674
" />
<path d="M8.900000 7.933674
L8.861904 7.781293
" />
<path d="M8.861904 7.781293
L8.861904 7.590817
" />
<path d="M8.861904 7.590817
L8.900000 7.438436
" />
<path d="M8.900000 7.438436
L8.938095 7.362245
" />
<path d="M8.938095 7.362245
L8.976190 7.324150
" />
<path d="M8.976190 7.324150
L9.052381 7.286055
" />
<path d="M9.585714 7.286055
L10.080952 7.286055
" />
<path d="M10.080952 7.286055
L9.814286 7.590817
" />
<path d="M9.814286 7.590817
L9.928571 7.590817
" />
<path d="M9.928571 7.590817
L10.004762 7.628912
" />
<path d="M10.004762 7.628912
L10.042857 7.667007
" />
<path d="M10.042857 7.667007
L10.080952 7.743198
" />
<path d="M10.080952 7.743198
L10.080952 7.933674
" />
<path d="M10.080952 7.933674
L10.042857 8.009864
" />
<path d="M10.042857 8.009864
L10.004762 8.047960
" />
<path d="M10.004762 8.047960
L9.928571 8.086055
" />
<path d="M9.928571 8.086055
L9.700000 8.086055
" />
<path d="M9.700000 8.086055
L9.623809 8.047960
" />
<path d="M9.623809 8.047960
L9.585714 8.009864
" />
<path d="M10.804762 7.286055
L10.423810 7.286055
" />
<path d="M10.423810 7.286055
L10.385714 7.667007
" />
<path d="M10.385714 7.667007
L10.423810 7.628912
" />
<path d="M10.423810 7.628912
L10.500000 7.590817
" />
<path d="M10.500000 7.590817
L10.690476 7.590817
" />
<path d="M10.690476 7.590817
L10.766667 7.628912
" />
<path d="M10.766667 7.628912
L10.804762 7.667007
" />
<path d="M10.804762 7.667007
L10.842857 7.743198
" />
<path d="M10.842857 7.743198
L10.842857 7.933674
" />
<path d="M10.842857 7.933674
L10.804762 8.009864
" />
<path d="M10.804762 8.009864
L10.766667 8.047960
" />
<path d="M10.766667 8.047960
L10.690476 8.086055
" />
<path d="M10.690476 8.086055
L10.500000 8.086055
" />
<path d="M10.500000 8.086055
L10.423810 8.047960
" />
<path d="M10.423810 8.047960
L10.385714 8.009864
" />
<path d="M11.185715 7.781293
L11.795239 7.781293
" />
<path d="M12.557143 8.086055
L12.176191 8.086055
" />
<path d="M12.176191 8.086055
L12.176191 7.286055
" />
<path d="M13.242857 8.086055
L12.785714 8.086055
" />
<path d="M13.014286 8.086055
L13.014286 7.286055
" />
<path d="M13.014286 7.286055
L12.938095 7.400340
" />
<path d="M12.938095 7.400340
L12.861905 7.476531
" />
<path d="M12.861905 7.476531
L12.785714 7.514626
" />
</g><path style="fill:none; 
stroke:#AFAFAF; stroke-width:0.100000; stroke-opacity:1; 
stroke-linecap:round; stroke-linejoin:round;fill:none"
d="M 4.447619,2.422200
9.047619,2.422200
9.047619,4.722200
4.447619,4.722200
Z" /> 
<path style="fill:none; 
stroke:#AFAFAF; stroke-width:0.100000; stroke-opacity:1; 
stroke-linecap:round; stroke-linejoin:round;fill:none"
d="M 5.822619,4.722200
7.672619,4.722200
7.672619,5.922200
5.822619,5.922200
Z" /> 
<path style="fill:none; 
stroke:#FF26E2; stroke-width:0.050000; stroke-opacity:1; 
stroke-linecap:round; stroke-linejoin:round;fill:none"
d="M 4.047619,1.522200
9.447619,1.522200
9.447619,6.172200
4.047619,6.172200
Z" /> 
</g>
<g style="fill:#000000; fill-opacity:1.000000; stroke:none;">
<circle cx="4.572619" cy="3.572200" r="0.384999" /> 
<circle cx="8.922619" cy="3.572200" r="0.384999" /> 
<circle cx="5.897619" cy="3.572200" r="0.349999" /> 
<circle cx="7.597619" cy="3.572200" r="0.349999" /> 
</g> 
</svg>
