%TF.GenerationSoftware,KiCad,Pcbnew,10.0.4*%
%TF.CreationDate,2026-07-21T18:10:27+08:00*%
%TF.ProjectId,cadenza-d1-rev-a-production,63616465-6e7a-4612-9d64-312d7265762d,rev?*%
%TF.SameCoordinates,Original*%
%TF.FileFunction,Legend,Bot*%
%TF.FilePolarity,Positive*%
%FSLAX46Y46*%
G04 Gerber Fmt 4.6, Leading zero omitted, Abs format (unit mm)*
G04 Created by KiCad (PCBNEW 10.0.4) date 2026-07-21 18:10:27*
%MOMM*%
%LPD*%
G01*
G04 APERTURE LIST*
%ADD10C,0.120000*%
G04 APERTURE END LIST*
%TO.C,U8*%
D10*
X115090000Y-99440000D02*
X116910000Y-99440000D01*
X115090000Y-99490000D02*
X115090000Y-99440000D01*
X115090000Y-102560000D02*
X115090000Y-102510000D01*
X116910000Y-99440000D02*
X116910000Y-99490000D01*
X116910000Y-102510000D02*
X116910000Y-102560000D01*
X116910000Y-102560000D02*
X115090000Y-102560000D01*
X114550000Y-99490000D02*
X114310000Y-99160000D01*
X114790000Y-99160000D01*
X114550000Y-99490000D01*
G36*
X114550000Y-99490000D02*
G01*
X114310000Y-99160000D01*
X114790000Y-99160000D01*
X114550000Y-99490000D01*
G37*
%TO.C,FB1*%
X131837221Y-83490000D02*
X132162779Y-83490000D01*
X131837221Y-84510000D02*
X132162779Y-84510000D01*
%TO.C,R5*%
X131762742Y-103077500D02*
X132237258Y-103077500D01*
X131762742Y-104122500D02*
X132237258Y-104122500D01*
%TO.C,R71*%
X105762742Y-100277500D02*
X106237258Y-100277500D01*
X105762742Y-101322500D02*
X106237258Y-101322500D01*
%TO.C,SW5*%
X91800000Y-106050000D02*
X91800000Y-105950000D01*
X91800000Y-107550000D02*
X96200000Y-107550000D01*
X96200000Y-104450000D02*
X91800000Y-104450000D01*
X96200000Y-106050000D02*
X96200000Y-105950000D01*
%TO.C,R7*%
X135262742Y-100277500D02*
X135737258Y-100277500D01*
X135262742Y-101322500D02*
X135737258Y-101322500D01*
%TO.C,C13*%
X119859420Y-101490000D02*
X120140580Y-101490000D01*
X119859420Y-102510000D02*
X120140580Y-102510000D01*
%TO.C,U1*%
X141800000Y-61100000D02*
X141800000Y-67300000D01*
X141800000Y-61100000D02*
X160200000Y-61100000D01*
X141800000Y-85950000D02*
X141800000Y-86950000D01*
X141800000Y-86950000D02*
X143300000Y-86950000D01*
X160200000Y-61100000D02*
X160200000Y-67300000D01*
X160200000Y-86950000D02*
X158700000Y-86950000D01*
X160200000Y-86950000D02*
X160200000Y-85950000D01*
X141800000Y-67975000D02*
X141300000Y-67975000D01*
X141800000Y-67475000D01*
X141800000Y-67975000D01*
G36*
X141800000Y-67975000D02*
G01*
X141300000Y-67975000D01*
X141800000Y-67475000D01*
X141800000Y-67975000D01*
G37*
%TO.C,C14*%
X127859420Y-89490000D02*
X128140580Y-89490000D01*
X127859420Y-90510000D02*
X128140580Y-90510000D01*
%TO.C,R4*%
X131762742Y-100277500D02*
X132237258Y-100277500D01*
X131762742Y-101322500D02*
X132237258Y-101322500D01*
%TO.C,L1*%
X127397936Y-96640000D02*
X128602064Y-96640000D01*
X127397936Y-99360000D02*
X128602064Y-99360000D01*
%TO.C,R93*%
X154762742Y-91477500D02*
X155237258Y-91477500D01*
X154762742Y-92522500D02*
X155237258Y-92522500D01*
%TO.C,R40*%
X63762742Y-57477500D02*
X64237258Y-57477500D01*
X63762742Y-58522500D02*
X64237258Y-58522500D01*
%TO.C,C2*%
X138859420Y-97490000D02*
X139140580Y-97490000D01*
X138859420Y-98510000D02*
X139140580Y-98510000D01*
%TO.C,TP1*%
X75950000Y-65000000D02*
G75*
G02*
X74050000Y-65000000I-950000J0D01*
G01*
X74050000Y-65000000D02*
G75*
G02*
X75950000Y-65000000I950000J0D01*
G01*
%TO.C,C81*%
X138859420Y-68490000D02*
X139140580Y-68490000D01*
X138859420Y-69510000D02*
X139140580Y-69510000D01*
%TO.C,C11*%
X123859420Y-96490000D02*
X124140580Y-96490000D01*
X123859420Y-97510000D02*
X124140580Y-97510000D01*
%TO.C,TP4*%
X87950000Y-65000000D02*
G75*
G02*
X86050000Y-65000000I-950000J0D01*
G01*
X86050000Y-65000000D02*
G75*
G02*
X87950000Y-65000000I950000J0D01*
G01*
%TO.C,TP6*%
X95950000Y-65000000D02*
G75*
G02*
X94050000Y-65000000I-950000J0D01*
G01*
X94050000Y-65000000D02*
G75*
G02*
X95950000Y-65000000I950000J0D01*
G01*
%TO.C,R73*%
X130177064Y-109790000D02*
X125822936Y-109790000D01*
X130177064Y-113210000D02*
X125822936Y-113210000D01*
%TO.C,R2*%
X99762742Y-102277500D02*
X100237258Y-102277500D01*
X99762742Y-103322500D02*
X100237258Y-103322500D01*
%TO.C,R91*%
X148762742Y-91477500D02*
X149237258Y-91477500D01*
X148762742Y-92522500D02*
X149237258Y-92522500D01*
%TO.C,C22*%
X138859420Y-86490000D02*
X139140580Y-86490000D01*
X138859420Y-87510000D02*
X139140580Y-87510000D01*
%TO.C,R30*%
X123762742Y-90977500D02*
X124237258Y-90977500D01*
X123762742Y-92022500D02*
X124237258Y-92022500D01*
%TO.C,C80*%
X87859420Y-100290000D02*
X88140580Y-100290000D01*
X87859420Y-101310000D02*
X88140580Y-101310000D01*
%TO.C,SW4*%
X83800000Y-106050000D02*
X83800000Y-105950000D01*
X83800000Y-107550000D02*
X88200000Y-107550000D01*
X88200000Y-104450000D02*
X83800000Y-104450000D01*
X88200000Y-106050000D02*
X88200000Y-105950000D01*
%TO.C,R70*%
X105762742Y-97477500D02*
X106237258Y-97477500D01*
X105762742Y-98522500D02*
X106237258Y-98522500D01*
%TO.C,J4*%
X71915000Y-101640000D02*
X80085000Y-101640000D01*
X71915000Y-102490000D02*
X71915000Y-101640000D01*
X71915000Y-106010000D02*
X71915000Y-106860000D01*
X71915000Y-106860000D02*
X74240000Y-106860000D01*
X74240000Y-106860000D02*
X74240000Y-109250000D01*
X80085000Y-101640000D02*
X80085000Y-102490000D01*
X80085000Y-106010000D02*
X80085000Y-106860000D01*
X80085000Y-106860000D02*
X77760000Y-106860000D01*
%TO.C,R72*%
X117762742Y-107477500D02*
X118237258Y-107477500D01*
X117762742Y-108522500D02*
X118237258Y-108522500D01*
%TO.C,R90*%
X145762742Y-91477500D02*
X146237258Y-91477500D01*
X145762742Y-92522500D02*
X146237258Y-92522500D01*
%TO.C,R10*%
X131762742Y-90477500D02*
X132237258Y-90477500D01*
X131762742Y-91522500D02*
X132237258Y-91522500D01*
%TO.C,R80*%
X87762742Y-97477500D02*
X88237258Y-97477500D01*
X87762742Y-98522500D02*
X88237258Y-98522500D01*
%TO.C,C91*%
X156859420Y-93490000D02*
X157140580Y-93490000D01*
X156859420Y-94510000D02*
X157140580Y-94510000D01*
%TO.C,C50*%
X69859420Y-92290000D02*
X70140580Y-92290000D01*
X69859420Y-93310000D02*
X70140580Y-93310000D01*
%TO.C,TP5*%
X91950000Y-65000000D02*
G75*
G02*
X90050000Y-65000000I-950000J0D01*
G01*
X90050000Y-65000000D02*
G75*
G02*
X91950000Y-65000000I950000J0D01*
G01*
%TO.C,C70*%
X122640580Y-104490000D02*
X122359420Y-104490000D01*
X122640580Y-105510000D02*
X122359420Y-105510000D01*
%TO.C,J5*%
X57915000Y-101640000D02*
X66085000Y-101640000D01*
X57915000Y-102490000D02*
X57915000Y-101640000D01*
X57915000Y-106010000D02*
X57915000Y-106860000D01*
X57915000Y-106860000D02*
X60240000Y-106860000D01*
X60240000Y-106860000D02*
X60240000Y-109250000D01*
X66085000Y-101640000D02*
X66085000Y-102490000D01*
X66085000Y-106010000D02*
X66085000Y-106860000D01*
X66085000Y-106860000D02*
X63760000Y-106860000D01*
%TO.C,R20*%
X128762742Y-80477500D02*
X129237258Y-80477500D01*
X128762742Y-81522500D02*
X129237258Y-81522500D01*
%TO.C,R74*%
X135762742Y-107477500D02*
X136237258Y-107477500D01*
X135762742Y-108522500D02*
X136237258Y-108522500D01*
%TO.C,C71*%
X122640580Y-107490000D02*
X122359420Y-107490000D01*
X122640580Y-108510000D02*
X122359420Y-108510000D01*
%TO.C,C40*%
X63859420Y-60290000D02*
X64140580Y-60290000D01*
X63859420Y-61310000D02*
X64140580Y-61310000D01*
%TO.C,C21*%
X135859420Y-86490000D02*
X136140580Y-86490000D01*
X135859420Y-87510000D02*
X136140580Y-87510000D01*
%TO.C,C82*%
X138859420Y-70490000D02*
X139140580Y-70490000D01*
X138859420Y-71510000D02*
X139140580Y-71510000D01*
%TO.C,C10*%
X123859420Y-94490000D02*
X124140580Y-94490000D01*
X123859420Y-95510000D02*
X124140580Y-95510000D01*
%TO.C,C1*%
X135359420Y-103090000D02*
X135640580Y-103090000D01*
X135359420Y-104110000D02*
X135640580Y-104110000D01*
%TO.C,C30*%
X113859420Y-56490000D02*
X114140580Y-56490000D01*
X113859420Y-57510000D02*
X114140580Y-57510000D01*
%TO.C,C3*%
X138859420Y-100290000D02*
X139140580Y-100290000D01*
X138859420Y-101310000D02*
X139140580Y-101310000D01*
%TO.C,R75*%
X146762742Y-104977500D02*
X147237258Y-104977500D01*
X146762742Y-106022500D02*
X147237258Y-106022500D01*
%TO.C,L2*%
X135397936Y-81640000D02*
X136602064Y-81640000D01*
X135397936Y-84360000D02*
X136602064Y-84360000D01*
%TO.C,R41*%
X69762742Y-89477500D02*
X70237258Y-89477500D01*
X69762742Y-90522500D02*
X70237258Y-90522500D01*
%TO.C,C20*%
X128859420Y-85490000D02*
X129140580Y-85490000D01*
X128859420Y-86510000D02*
X129140580Y-86510000D01*
%TO.C,C90*%
X153859420Y-93490000D02*
X154140580Y-93490000D01*
X153859420Y-94510000D02*
X154140580Y-94510000D01*
%TO.C,TP7*%
X99950000Y-65000000D02*
G75*
G02*
X98050000Y-65000000I-950000J0D01*
G01*
X98050000Y-65000000D02*
G75*
G02*
X99950000Y-65000000I950000J0D01*
G01*
%TO.C,FB2*%
X71837221Y-97490000D02*
X72162779Y-97490000D01*
X71837221Y-98510000D02*
X72162779Y-98510000D01*
%TO.C,R21*%
X128762742Y-81977500D02*
X129237258Y-81977500D01*
X128762742Y-83022500D02*
X129237258Y-83022500D01*
%TO.C,R77*%
X144762742Y-106477500D02*
X145237258Y-106477500D01*
X144762742Y-107522500D02*
X145237258Y-107522500D01*
%TO.C,R1*%
X99762742Y-99477500D02*
X100237258Y-99477500D01*
X99762742Y-100522500D02*
X100237258Y-100522500D01*
%TO.C,C31*%
X113859420Y-59290000D02*
X114140580Y-59290000D01*
X113859420Y-60310000D02*
X114140580Y-60310000D01*
%TO.C,C51*%
X69859420Y-95090000D02*
X70140580Y-95090000D01*
X69859420Y-96110000D02*
X70140580Y-96110000D01*
%TO.C,TP2*%
X79950000Y-65000000D02*
G75*
G02*
X78050000Y-65000000I-950000J0D01*
G01*
X78050000Y-65000000D02*
G75*
G02*
X79950000Y-65000000I950000J0D01*
G01*
%TO.C,R3*%
X131762742Y-97477500D02*
X132237258Y-97477500D01*
X131762742Y-98522500D02*
X132237258Y-98522500D01*
%TO.C,TP8*%
X103950000Y-65000000D02*
G75*
G02*
X102050000Y-65000000I-950000J0D01*
G01*
X102050000Y-65000000D02*
G75*
G02*
X103950000Y-65000000I950000J0D01*
G01*
%TO.C,R92*%
X151762742Y-91477500D02*
X152237258Y-91477500D01*
X151762742Y-92522500D02*
X152237258Y-92522500D01*
%TO.C,C12*%
X122859420Y-99490000D02*
X123140580Y-99490000D01*
X122859420Y-100510000D02*
X123140580Y-100510000D01*
%TO.C,U2*%
X141390000Y-101390000D02*
X141865000Y-101390000D01*
X141390000Y-101865000D02*
X141390000Y-101390000D01*
X141390000Y-104610000D02*
X141390000Y-104135000D01*
X141865000Y-104610000D02*
X141390000Y-104610000D01*
X144135000Y-101390000D02*
X144610000Y-101390000D01*
X144610000Y-101390000D02*
X144610000Y-101865000D01*
X144610000Y-104135000D02*
X144610000Y-104610000D01*
X144610000Y-104610000D02*
X144135000Y-104610000D01*
X140860000Y-102250000D02*
X140530000Y-102490000D01*
X140530000Y-102010000D01*
X140860000Y-102250000D01*
G36*
X140860000Y-102250000D02*
G01*
X140530000Y-102490000D01*
X140530000Y-102010000D01*
X140860000Y-102250000D01*
G37*
%TO.C,TP3*%
X83950000Y-65000000D02*
G75*
G02*
X82050000Y-65000000I-950000J0D01*
G01*
X82050000Y-65000000D02*
G75*
G02*
X83950000Y-65000000I950000J0D01*
G01*
%TO.C,R11*%
X131762742Y-91977500D02*
X132237258Y-91977500D01*
X131762742Y-93022500D02*
X132237258Y-93022500D01*
%TO.C,R6*%
X135262742Y-97477500D02*
X135737258Y-97477500D01*
X135262742Y-98522500D02*
X135737258Y-98522500D01*
%TO.C,TP9*%
X107950000Y-65000000D02*
G75*
G02*
X106050000Y-65000000I-950000J0D01*
G01*
X106050000Y-65000000D02*
G75*
G02*
X107950000Y-65000000I950000J0D01*
G01*
%TO.C,U7*%
X126440000Y-104600000D02*
X125900000Y-104600000D01*
X126440000Y-107397393D02*
X126070000Y-107397393D01*
X128640000Y-104600000D02*
X127360000Y-104600000D01*
X128640000Y-107400000D02*
X127360000Y-107400000D01*
X129560000Y-104600000D02*
X130100000Y-104600000D01*
X129560000Y-107400000D02*
X130100000Y-107400000D01*
X125740000Y-107400000D02*
X125500000Y-107730000D01*
X125980000Y-107730000D01*
X125740000Y-107400000D01*
G36*
X125980000Y-107730000D02*
G01*
X125500000Y-107730000D01*
X125740000Y-107400000D01*
X125980000Y-107730000D01*
G37*
%TO.C,R76*%
X141762742Y-88977500D02*
X142237258Y-88977500D01*
X141762742Y-90022500D02*
X142237258Y-90022500D01*
%TO.C,U5*%
X62390000Y-92390000D02*
X62865000Y-92390000D01*
X62390000Y-92865000D02*
X62390000Y-92390000D01*
X62390000Y-95610000D02*
X62390000Y-95135000D01*
X62865000Y-95610000D02*
X62390000Y-95610000D01*
X65135000Y-92390000D02*
X65610000Y-92390000D01*
X65610000Y-92390000D02*
X65610000Y-92865000D01*
X65610000Y-95135000D02*
X65610000Y-95610000D01*
X65610000Y-95610000D02*
X65135000Y-95610000D01*
X61880000Y-93250000D02*
X61550000Y-93490000D01*
X61550000Y-93010000D01*
X61880000Y-93250000D01*
G36*
X61880000Y-93250000D02*
G01*
X61550000Y-93490000D01*
X61550000Y-93010000D01*
X61880000Y-93250000D01*
G37*
%TD*%
M02*
