solid 
 facet normal  9.961947e-01  8.715574e-02  1.986303e-18
   outer loop
     vertex  2.517024e+01  2.791165e+01 -3.650264e+00
     vertex  2.525000e+01  2.700000e+01 -3.650264e+00
     vertex  2.525000e+01  2.700000e+01 -6.450264e+00
   endloop
 endfacet
 facet normal  9.961947e-01  8.715574e-02  0.000000e+00
   outer loop
     vertex  2.517024e+01  2.791165e+01 -3.650264e+00
     vertex  2.525000e+01  2.700000e+01 -6.450264e+00
     vertex  2.517024e+01  2.791165e+01 -6.450264e+00
   endloop
 endfacet
 facet normal  9.659258e-01  2.588190e-01  0.000000e+00
   outer loop
     vertex  2.493339e+01  2.879561e+01 -3.650264e+00
     vertex  2.517024e+01  2.791165e+01 -6.450264e+00
     vertex  2.493339e+01  2.879561e+01 -6.450264e+00
   endloop
 endfacet
 facet normal  9.659258e-01  2.588190e-01 -2.488075e-18
   outer loop
     vertex  2.493339e+01  2.879561e+01 -3.650264e+00
     vertex  2.517024e+01  2.791165e+01 -3.650264e+00
     vertex  2.517024e+01  2.791165e+01 -6.450264e+00
   endloop
 endfacet
 facet normal  9.063078e-01  4.226183e-01  0.000000e+00
   outer loop
     vertex  2.454663e+01  2.962500e+01 -3.650264e+00
     vertex  2.493339e+01  2.879561e+01 -6.450264e+00
     vertex  2.454663e+01  2.962500e+01 -6.450264e+00
   endloop
 endfacet
 facet normal  8.191520e-01  5.735764e-01  0.000000e+00
   outer loop
     vertex  2.454663e+01  2.962500e+01 -3.650264e+00
     vertex  2.454663e+01  2.962500e+01 -6.450264e+00
     vertex  2.402173e+01  3.037463e+01 -6.450264e+00
   endloop
 endfacet
 facet normal  9.063078e-01  4.226183e-01  3.846630e-18
   outer loop
     vertex  2.454663e+01  2.962500e+01 -3.650264e+00
     vertex  2.493339e+01  2.879561e+01 -3.650264e+00
     vertex  2.493339e+01  2.879561e+01 -6.450264e+00
   endloop
 endfacet
 facet normal  8.191520e-01  5.735764e-01  0.000000e+00
   outer loop
     vertex  2.402173e+01  3.037463e+01 -3.650264e+00
     vertex  2.454663e+01  2.962500e+01 -3.650264e+00
     vertex  2.402173e+01  3.037463e+01 -6.450264e+00
   endloop
 endfacet
 facet normal  7.071068e-01  7.071068e-01  0.000000e+00
   outer loop
     vertex  2.337463e+01  3.102173e+01 -3.650264e+00
     vertex  2.402173e+01  3.037463e+01 -6.450264e+00
     vertex  2.337463e+01  3.102173e+01 -6.450264e+00
   endloop
 endfacet
 facet normal  7.071068e-01  7.071068e-01 -8.972991e-18
   outer loop
     vertex  2.337463e+01  3.102173e+01 -3.650264e+00
     vertex  2.402173e+01  3.037463e+01 -3.650264e+00
     vertex  2.402173e+01  3.037463e+01 -6.450264e+00
   endloop
 endfacet
 facet normal  5.735764e-01  8.191520e-01  0.000000e+00
   outer loop
     vertex  2.262500e+01  3.154663e+01 -3.650264e+00
     vertex  2.337463e+01  3.102173e+01 -6.450264e+00
     vertex  2.262500e+01  3.154663e+01 -6.450264e+00
   endloop
 endfacet
 facet normal  4.226183e-01  9.063078e-01  0.000000e+00
   outer loop
     vertex  2.262500e+01  3.154663e+01 -3.650264e+00
     vertex  2.262500e+01  3.154663e+01 -6.450264e+00
     vertex  2.179561e+01  3.193339e+01 -6.450264e+00
   endloop
 endfacet
 facet normal  5.735764e-01  8.191520e-01 -1.403316e-18
   outer loop
     vertex  2.262500e+01  3.154663e+01 -3.650264e+00
     vertex  2.337463e+01  3.102173e+01 -3.650264e+00
     vertex  2.337463e+01  3.102173e+01 -6.450264e+00
   endloop
 endfacet
 facet normal  4.226183e-01  9.063078e-01  0.000000e+00
   outer loop
     vertex  2.179561e+01  3.193339e+01 -3.650264e+00
     vertex  2.262500e+01  3.154663e+01 -3.650264e+00
     vertex  2.179561e+01  3.193339e+01 -6.450264e+00
   endloop
 endfacet
 facet normal  2.588190e-01  9.659258e-01 -2.488075e-18
   outer loop
     vertex  2.091165e+01  3.217024e+01 -3.650264e+00
     vertex  2.179561e+01  3.193339e+01 -3.650264e+00
     vertex  2.179561e+01  3.193339e+01 -6.450264e+00
   endloop
 endfacet
 facet normal  2.588190e-01  9.659258e-01  0.000000e+00
   outer loop
     vertex  2.091165e+01  3.217024e+01 -3.650264e+00
     vertex  2.179561e+01  3.193339e+01 -6.450264e+00
     vertex  2.091165e+01  3.217024e+01 -6.450264e+00
   endloop
 endfacet
 facet normal  8.715574e-02  9.961947e-01 -1.163738e-18
   outer loop
     vertex  2.000000e+01  3.225000e+01 -3.650264e+00
     vertex  2.091165e+01  3.217024e+01 -3.650264e+00
     vertex  2.091165e+01  3.217024e+01 -6.450264e+00
   endloop
 endfacet
 facet normal  8.715574e-02  9.961947e-01  0.000000e+00
   outer loop
     vertex  2.000000e+01  3.225000e+01 -3.650264e+00
     vertex  2.091165e+01  3.217024e+01 -6.450264e+00
     vertex  2.000000e+01  3.225000e+01 -6.450264e+00
   endloop
 endfacet
 facet normal -8.715574e-02  9.961947e-01  1.163738e-18
   outer loop
     vertex  1.908835e+01  3.217024e+01 -3.650264e+00
     vertex  2.000000e+01  3.225000e+01 -3.650264e+00
     vertex  2.000000e+01  3.225000e+01 -6.450264e+00
   endloop
 endfacet
 facet normal -8.715574e-02  9.961947e-01  0.000000e+00
   outer loop
     vertex  1.908835e+01  3.217024e+01 -3.650264e+00
     vertex  2.000000e+01  3.225000e+01 -6.450264e+00
     vertex  1.908835e+01  3.217024e+01 -6.450264e+00
   endloop
 endfacet
 facet normal -2.588190e-01  9.659258e-01  2.488075e-18
   outer loop
     vertex  1.820439e+01  3.193339e+01 -3.650264e+00
     vertex  1.908835e+01  3.217024e+01 -3.650264e+00
     vertex  1.908835e+01  3.217024e+01 -6.450264e+00
   endloop
 endfacet
 facet normal -2.588190e-01  9.659258e-01  0.000000e+00
   outer loop
     vertex  1.820439e+01  3.193339e+01 -3.650264e+00
     vertex  1.908835e+01  3.217024e+01 -6.450264e+00
     vertex  1.820439e+01  3.193339e+01 -6.450264e+00
   endloop
 endfacet
 facet normal -4.226183e-01  9.063078e-01 -3.846630e-18
   outer loop
     vertex  1.737500e+01  3.154663e+01 -3.650264e+00
     vertex  1.820439e+01  3.193339e+01 -3.650264e+00
     vertex  1.820439e+01  3.193339e+01 -6.450264e+00
   endloop
 endfacet
 facet normal -4.226183e-01  9.063078e-01  0.000000e+00
   outer loop
     vertex  1.737500e+01  3.154663e+01 -3.650264e+00
     vertex  1.820439e+01  3.193339e+01 -6.450264e+00
     vertex  1.737500e+01  3.154663e+01 -6.450264e+00
   endloop
 endfacet
 facet normal -5.735764e-01  8.191520e-01  1.071361e-17
   outer loop
     vertex  1.662537e+01  3.102173e+01 -3.650264e+00
     vertex  1.737500e+01  3.154663e+01 -3.650264e+00
     vertex  1.737500e+01  3.154663e+01 -6.450264e+00
   endloop
 endfacet
 facet normal -5.735764e-01  8.191520e-01  0.000000e+00
   outer loop
     vertex  1.662537e+01  3.102173e+01 -3.650264e+00
     vertex  1.737500e+01  3.154663e+01 -6.450264e+00
     vertex  1.662537e+01  3.102173e+01 -6.450264e+00
   endloop
 endfacet
 facet normal -7.071068e-01  7.071068e-01  0.000000e+00
   outer loop
     vertex  1.662537e+01  3.102173e+01 -3.650264e+00
     vertex  1.662537e+01  3.102173e+01 -6.450264e+00
     vertex  1.597827e+01  3.037463e+01 -6.450264e+00
   endloop
 endfacet
 facet normal -7.071068e-01  7.071068e-01  0.000000e+00
   outer loop
     vertex  1.597827e+01  3.037463e+01 -3.650264e+00
     vertex  1.662537e+01  3.102173e+01 -3.650264e+00
     vertex  1.597827e+01  3.037463e+01 -6.450264e+00
   endloop
 endfacet
 facet normal -8.191520e-01  5.735764e-01  0.000000e+00
   outer loop
     vertex  1.597827e+01  3.037463e+01 -3.650264e+00
     vertex  1.597827e+01  3.037463e+01 -6.450264e+00
     vertex  1.545337e+01  2.962500e+01 -6.450264e+00
   endloop
 endfacet
 facet normal -8.191520e-01  5.735764e-01  0.000000e+00
   outer loop
     vertex  1.545337e+01  2.962500e+01 -3.650264e+00
     vertex  1.597827e+01  3.037463e+01 -3.650264e+00
     vertex  1.545337e+01  2.962500e+01 -6.450264e+00
   endloop
 endfacet
 facet normal -9.063078e-01  4.226183e-01 -8.430042e-18
   outer loop
     vertex  1.506661e+01  2.879561e+01 -3.650264e+00
     vertex  1.545337e+01  2.962500e+01 -3.650264e+00
     vertex  1.545337e+01  2.962500e+01 -6.450264e+00
   endloop
 endfacet
 facet normal -9.063078e-01  4.226183e-01  0.000000e+00
   outer loop
     vertex  1.506661e+01  2.879561e+01 -3.650264e+00
     vertex  1.545337e+01  2.962500e+01 -6.450264e+00
     vertex  1.506661e+01  2.879561e+01 -6.450264e+00
   endloop
 endfacet
 facet normal -9.659258e-01  2.588190e-01  0.000000e+00
   outer loop
     vertex  1.506661e+01  2.879561e+01 -3.650264e+00
     vertex  1.506661e+01  2.879561e+01 -6.450264e+00
     vertex  1.482976e+01  2.791165e+01 -6.450264e+00
   endloop
 endfacet
 facet normal -9.659258e-01  2.588190e-01  0.000000e+00
   outer loop
     vertex  1.482976e+01  2.791165e+01 -3.650264e+00
     vertex  1.506661e+01  2.879561e+01 -3.650264e+00
     vertex  1.482976e+01  2.791165e+01 -6.450264e+00
   endloop
 endfacet
 facet normal -9.961947e-01  8.715574e-02 -5.066825e-19
   outer loop
     vertex  1.475000e+01  2.700000e+01 -3.650264e+00
     vertex  1.482976e+01  2.791165e+01 -3.650264e+00
     vertex  1.482976e+01  2.791165e+01 -6.450264e+00
   endloop
 endfacet
 facet normal -9.961947e-01  8.715574e-02  0.000000e+00
   outer loop
     vertex  1.475000e+01  2.700000e+01 -3.650264e+00
     vertex  1.482976e+01  2.791165e+01 -6.450264e+00
     vertex  1.475000e+01  2.700000e+01 -6.450264e+00
   endloop
 endfacet
 facet normal -9.961947e-01 -8.715574e-02 -0.000000e+00
   outer loop
     vertex  1.475000e+01  2.700000e+01 -3.650264e+00
     vertex  1.475000e+01  2.700000e+01 -6.450264e+00
     vertex  1.482976e+01  2.608835e+01 -6.450264e+00
   endloop
 endfacet
 facet normal -9.961947e-01 -8.715574e-02 -0.000000e+00
   outer loop
     vertex  1.482976e+01  2.608835e+01 -3.650264e+00
     vertex  1.475000e+01  2.700000e+01 -3.650264e+00
     vertex  1.482976e+01  2.608835e+01 -6.450264e+00
   endloop
 endfacet
 facet normal -9.659258e-01 -2.588190e-01 -0.000000e+00
   outer loop
     vertex  1.506661e+01  2.520439e+01 -3.650264e+00
     vertex  1.482976e+01  2.608835e+01 -6.450264e+00
     vertex  1.506661e+01  2.520439e+01 -6.450264e+00
   endloop
 endfacet
 facet normal -9.659258e-01 -2.588190e-01  5.299467e-18
   outer loop
     vertex  1.506661e+01  2.520439e+01 -3.650264e+00
     vertex  1.482976e+01  2.608835e+01 -3.650264e+00
     vertex  1.482976e+01  2.608835e+01 -6.450264e+00
   endloop
 endfacet
 facet normal -9.063078e-01 -4.226183e-01 -0.000000e+00
   outer loop
     vertex  1.545337e+01  2.437500e+01 -3.650264e+00
     vertex  1.506661e+01  2.520439e+01 -6.450264e+00
     vertex  1.545337e+01  2.437500e+01 -6.450264e+00
   endloop
 endfacet
 facet normal -9.063078e-01 -4.226183e-01 -1.522015e-18
   outer loop
     vertex  1.545337e+01  2.437500e+01 -3.650264e+00
     vertex  1.506661e+01  2.520439e+01 -3.650264e+00
     vertex  1.506661e+01  2.520439e+01 -6.450264e+00
   endloop
 endfacet
 facet normal -8.191520e-01 -5.735764e-01 -0.000000e+00
   outer loop
     vertex  1.597827e+01  2.362537e+01 -3.650264e+00
     vertex  1.545337e+01  2.437500e+01 -6.450264e+00
     vertex  1.597827e+01  2.362537e+01 -6.450264e+00
   endloop
 endfacet
 facet normal -8.191520e-01 -5.735764e-01 -1.909454e-18
   outer loop
     vertex  1.597827e+01  2.362537e+01 -3.650264e+00
     vertex  1.545337e+01  2.437500e+01 -3.650264e+00
     vertex  1.545337e+01  2.437500e+01 -6.450264e+00
   endloop
 endfacet
 facet normal -7.071068e-01 -7.071068e-01 -0.000000e+00
   outer loop
     vertex  1.662537e+01  2.297827e+01 -3.650264e+00
     vertex  1.597827e+01  2.362537e+01 -6.450264e+00
     vertex  1.662537e+01  2.297827e+01 -6.450264e+00
   endloop
 endfacet
 facet normal -7.071068e-01 -7.071068e-01  1.084695e-18
   outer loop
     vertex  1.662537e+01  2.297827e+01 -3.650264e+00
     vertex  1.597827e+01  2.362537e+01 -3.650264e+00
     vertex  1.597827e+01  2.362537e+01 -6.450264e+00
   endloop
 endfacet
 facet normal -5.735764e-01 -8.191520e-01 -0.000000e+00
   outer loop
     vertex  1.737500e+01  2.245337e+01 -3.650264e+00
     vertex  1.662537e+01  2.297827e+01 -6.450264e+00
     vertex  1.737500e+01  2.245337e+01 -6.450264e+00
   endloop
 endfacet
 facet normal -5.735764e-01 -8.191520e-01 -1.071361e-17
   outer loop
     vertex  1.737500e+01  2.245337e+01 -3.650264e+00
     vertex  1.662537e+01  2.297827e+01 -3.650264e+00
     vertex  1.662537e+01  2.297827e+01 -6.450264e+00
   endloop
 endfacet
 facet normal -4.226183e-01 -9.063078e-01 -0.000000e+00
   outer loop
     vertex  1.820439e+01  2.206661e+01 -3.650264e+00
     vertex  1.737500e+01  2.245337e+01 -6.450264e+00
     vertex  1.820439e+01  2.206661e+01 -6.450264e+00
   endloop
 endfacet
 facet normal -4.226183e-01 -9.063078e-01 -3.281814e-18
   outer loop
     vertex  1.820439e+01  2.206661e+01 -3.650264e+00
     vertex  1.737500e+01  2.245337e+01 -3.650264e+00
     vertex  1.737500e+01  2.245337e+01 -6.450264e+00
   endloop
 endfacet
 facet normal -2.588190e-01 -9.659258e-01 -0.000000e+00
   outer loop
     vertex  1.908835e+01  2.182976e+01 -3.650264e+00
     vertex  1.820439e+01  2.206661e+01 -6.450264e+00
     vertex  1.908835e+01  2.182976e+01 -6.450264e+00
   endloop
 endfacet
 facet normal -2.588190e-01 -9.659258e-01 -2.488075e-18
   outer loop
     vertex  1.908835e+01  2.182976e+01 -3.650264e+00
     vertex  1.820439e+01  2.206661e+01 -3.650264e+00
     vertex  1.820439e+01  2.206661e+01 -6.450264e+00
   endloop
 endfacet
 facet normal -8.715574e-02 -9.961947e-01 -0.000000e+00
   outer loop
     vertex  2.000000e+01  2.175000e+01 -3.650264e+00
     vertex  1.908835e+01  2.182976e+01 -6.450264e+00
     vertex  2.000000e+01  2.175000e+01 -6.450264e+00
   endloop
 endfacet
 facet normal -8.715574e-02 -9.961947e-01  2.177103e-18
   outer loop
     vertex  2.000000e+01  2.175000e+01 -3.650264e+00
     vertex  1.908835e+01  2.182976e+01 -3.650264e+00
     vertex  1.908835e+01  2.182976e+01 -6.450264e+00
   endloop
 endfacet
 facet normal  8.715574e-02 -9.961947e-01  0.000000e+00
   outer loop
     vertex  2.091165e+01  2.182976e+01 -3.650264e+00
     vertex  2.000000e+01  2.175000e+01 -6.450264e+00
     vertex  2.091165e+01  2.182976e+01 -6.450264e+00
   endloop
 endfacet
 facet normal  8.715574e-02 -9.961947e-01  1.163738e-18
   outer loop
     vertex  2.091165e+01  2.182976e+01 -3.650264e+00
     vertex  2.000000e+01  2.175000e+01 -3.650264e+00
     vertex  2.000000e+01  2.175000e+01 -6.450264e+00
   endloop
 endfacet
 facet normal  2.588190e-01 -9.659258e-01  0.000000e+00
   outer loop
     vertex  2.179561e+01  2.206661e+01 -3.650264e+00
     vertex  2.091165e+01  2.182976e+01 -6.450264e+00
     vertex  2.179561e+01  2.206661e+01 -6.450264e+00
   endloop
 endfacet
 facet normal  4.226183e-01 -9.063078e-01  0.000000e+00
   outer loop
     vertex  2.179561e+01  2.206661e+01 -3.650264e+00
     vertex  2.179561e+01  2.206661e+01 -6.450264e+00
     vertex  2.262500e+01  2.245337e+01 -6.450264e+00
   endloop
 endfacet
 facet normal  2.588190e-01 -9.659258e-01 -6.740101e-19
   outer loop
     vertex  2.179561e+01  2.206661e+01 -3.650264e+00
     vertex  2.091165e+01  2.182976e+01 -3.650264e+00
     vertex  2.091165e+01  2.182976e+01 -6.450264e+00
   endloop
 endfacet
 facet normal  4.226183e-01 -9.063078e-01  0.000000e+00
   outer loop
     vertex  2.262500e+01  2.245337e+01 -3.650264e+00
     vertex  2.179561e+01  2.206661e+01 -3.650264e+00
     vertex  2.262500e+01  2.245337e+01 -6.450264e+00
   endloop
 endfacet
 facet normal  5.735764e-01 -8.191520e-01 -1.044417e-17
   outer loop
     vertex  2.337463e+01  2.297827e+01 -3.650264e+00
     vertex  2.262500e+01  2.245337e+01 -3.650264e+00
     vertex  2.262500e+01  2.245337e+01 -6.450264e+00
   endloop
 endfacet
 facet normal  5.735764e-01 -8.191520e-01  0.000000e+00
   outer loop
     vertex  2.337463e+01  2.297827e+01 -3.650264e+00
     vertex  2.262500e+01  2.245337e+01 -6.450264e+00
     vertex  2.337463e+01  2.297827e+01 -6.450264e+00
   endloop
 endfacet
 facet normal  7.071068e-01 -7.071068e-01  0.000000e+00
   outer loop
     vertex  2.337463e+01  2.297827e+01 -3.650264e+00
     vertex  2.337463e+01  2.297827e+01 -6.450264e+00
     vertex  2.402173e+01  2.362537e+01 -6.450264e+00
   endloop
 endfacet
 facet normal  7.071068e-01 -7.071068e-01  0.000000e+00
   outer loop
     vertex  2.402173e+01  2.362537e+01 -3.650264e+00
     vertex  2.337463e+01  2.297827e+01 -3.650264e+00
     vertex  2.402173e+01  2.362537e+01 -6.450264e+00
   endloop
 endfacet
 facet normal  8.191520e-01 -5.735764e-01  1.020747e-17
   outer loop
     vertex  2.454663e+01  2.437500e+01 -3.650264e+00
     vertex  2.402173e+01  2.362537e+01 -3.650264e+00
     vertex  2.402173e+01  2.362537e+01 -6.450264e+00
   endloop
 endfacet
 facet normal  8.191520e-01 -5.735764e-01  0.000000e+00
   outer loop
     vertex  2.454663e+01  2.437500e+01 -3.650264e+00
     vertex  2.402173e+01  2.362537e+01 -6.450264e+00
     vertex  2.454663e+01  2.437500e+01 -6.450264e+00
   endloop
 endfacet
 facet normal  9.063078e-01 -4.226183e-01  3.281814e-18
   outer loop
     vertex  2.493339e+01  2.520439e+01 -3.650264e+00
     vertex  2.454663e+01  2.437500e+01 -3.650264e+00
     vertex  2.454663e+01  2.437500e+01 -6.450264e+00
   endloop
 endfacet
 facet normal  9.063078e-01 -4.226183e-01  0.000000e+00
   outer loop
     vertex  2.493339e+01  2.520439e+01 -3.650264e+00
     vertex  2.454663e+01  2.437500e+01 -6.450264e+00
     vertex  2.493339e+01  2.520439e+01 -6.450264e+00
   endloop
 endfacet
 facet normal  9.659258e-01 -2.588190e-01 -9.496511e-19
   outer loop
     vertex  2.517024e+01  2.608835e+01 -3.650264e+00
     vertex  2.493339e+01  2.520439e+01 -3.650264e+00
     vertex  2.493339e+01  2.520439e+01 -6.450264e+00
   endloop
 endfacet
 facet normal  9.659258e-01 -2.588190e-01  0.000000e+00
   outer loop
     vertex  2.517024e+01  2.608835e+01 -3.650264e+00
     vertex  2.493339e+01  2.520439e+01 -6.450264e+00
     vertex  2.517024e+01  2.608835e+01 -6.450264e+00
   endloop
 endfacet
 facet normal  9.961947e-01 -8.715574e-02  0.000000e+00
   outer loop
     vertex  2.517024e+01  2.608835e+01 -3.650264e+00
     vertex  2.517024e+01  2.608835e+01 -6.450264e+00
     vertex  2.525000e+01  2.700000e+01 -6.450264e+00
   endloop
 endfacet
 facet normal  9.961947e-01 -8.715574e-02  0.000000e+00
   outer loop
     vertex  2.525000e+01  2.700000e+01 -3.650264e+00
     vertex  2.517024e+01  2.608835e+01 -3.650264e+00
     vertex  2.525000e+01  2.700000e+01 -6.450264e+00
   endloop
 endfacet
 facet normal  0.000000e+00  0.000000e+00  1.000000e+00
   outer loop
     vertex  1.820439e+01  2.206661e+01 -3.650264e+00
     vertex  1.597827e+01  2.362537e+01 -3.650264e+00
     vertex  1.662537e+01  2.297827e+01 -3.650264e+00
   endloop
 endfacet
 facet normal  0.000000e+00  0.000000e+00  1.000000e+00
   outer loop
     vertex  1.820439e+01  2.206661e+01 -3.650264e+00
     vertex  1.662537e+01  2.297827e+01 -3.650264e+00
     vertex  1.737500e+01  2.245337e+01 -3.650264e+00
   endloop
 endfacet
 facet normal  0.000000e+00  0.000000e+00  1.000000e+00
   outer loop
     vertex  1.475000e+01  2.700000e+01 -3.650264e+00
     vertex  1.482976e+01  2.608835e+01 -3.650264e+00
     vertex  1.506661e+01  2.520439e+01 -3.650264e+00
   endloop
 endfacet
 facet normal  0.000000e+00  0.000000e+00  1.000000e+00
   outer loop
     vertex  1.475000e+01  2.700000e+01 -3.650264e+00
     vertex  1.506661e+01  2.520439e+01 -3.650264e+00
     vertex  1.545337e+01  2.437500e+01 -3.650264e+00
   endloop
 endfacet
 facet normal  0.000000e+00  0.000000e+00  1.000000e+00
   outer loop
     vertex  1.475000e+01  2.700000e+01 -3.650264e+00
     vertex  1.545337e+01  2.437500e+01 -3.650264e+00
     vertex  1.597827e+01  2.362537e+01 -3.650264e+00
   endloop
 endfacet
 facet normal  0.000000e+00  0.000000e+00  1.000000e+00
   outer loop
     vertex  1.475000e+01  2.700000e+01 -3.650264e+00
     vertex  1.820439e+01  2.206661e+01 -3.650264e+00
     vertex  1.908835e+01  2.182976e+01 -3.650264e+00
   endloop
 endfacet
 facet normal  0.000000e+00  0.000000e+00  1.000000e+00
   outer loop
     vertex  1.475000e+01  2.700000e+01 -3.650264e+00
     vertex  1.597827e+01  2.362537e+01 -3.650264e+00
     vertex  1.820439e+01  2.206661e+01 -3.650264e+00
   endloop
 endfacet
 facet normal  0.000000e+00  0.000000e+00  1.000000e+00
   outer loop
     vertex  2.091165e+01  2.182976e+01 -3.650264e+00
     vertex  1.908835e+01  2.182976e+01 -3.650264e+00
     vertex  2.000000e+01  2.175000e+01 -3.650264e+00
   endloop
 endfacet
 facet normal  0.000000e+00  0.000000e+00  1.000000e+00
   outer loop
     vertex  2.262500e+01  2.245337e+01 -3.650264e+00
     vertex  2.091165e+01  2.182976e+01 -3.650264e+00
     vertex  2.179561e+01  2.206661e+01 -3.650264e+00
   endloop
 endfacet
 facet normal  0.000000e+00  0.000000e+00  1.000000e+00
   outer loop
     vertex  2.262500e+01  2.245337e+01 -3.650264e+00
     vertex  1.908835e+01  2.182976e+01 -3.650264e+00
     vertex  2.091165e+01  2.182976e+01 -3.650264e+00
   endloop
 endfacet
 facet normal  0.000000e+00  0.000000e+00  1.000000e+00
   outer loop
     vertex  2.337463e+01  2.297827e+01 -3.650264e+00
     vertex  1.908835e+01  2.182976e+01 -3.650264e+00
     vertex  2.262500e+01  2.245337e+01 -3.650264e+00
   endloop
 endfacet
 facet normal  0.000000e+00  0.000000e+00  1.000000e+00
   outer loop
     vertex  1.597827e+01  3.037463e+01 -3.650264e+00
     vertex  1.545337e+01  2.962500e+01 -3.650264e+00
     vertex  1.506661e+01  2.879561e+01 -3.650264e+00
   endloop
 endfacet
 facet normal  0.000000e+00  0.000000e+00  1.000000e+00
   outer loop
     vertex  2.454663e+01  2.437500e+01 -3.650264e+00
     vertex  2.337463e+01  2.297827e+01 -3.650264e+00
     vertex  2.402173e+01  2.362537e+01 -3.650264e+00
   endloop
 endfacet
 facet normal  0.000000e+00  0.000000e+00  1.000000e+00
   outer loop
     vertex  2.493339e+01  2.520439e+01 -3.650264e+00
     vertex  1.908835e+01  2.182976e+01 -3.650264e+00
     vertex  2.337463e+01  2.297827e+01 -3.650264e+00
   endloop
 endfacet
 facet normal  0.000000e+00  0.000000e+00  1.000000e+00
   outer loop
     vertex  2.493339e+01  2.520439e+01 -3.650264e+00
     vertex  2.337463e+01  2.297827e+01 -3.650264e+00
     vertex  2.454663e+01  2.437500e+01 -3.650264e+00
   endloop
 endfacet
 facet normal  0.000000e+00  0.000000e+00  1.000000e+00
   outer loop
     vertex  1.820439e+01  3.193339e+01 -3.650264e+00
     vertex  1.737500e+01  3.154663e+01 -3.650264e+00
     vertex  1.662537e+01  3.102173e+01 -3.650264e+00
   endloop
 endfacet
 facet normal  0.000000e+00  0.000000e+00  1.000000e+00
   outer loop
     vertex  1.820439e+01  3.193339e+01 -3.650264e+00
     vertex  1.662537e+01  3.102173e+01 -3.650264e+00
     vertex  1.597827e+01  3.037463e+01 -3.650264e+00
   endloop
 endfacet
 facet normal  0.000000e+00  0.000000e+00  1.000000e+00
   outer loop
     vertex  1.820439e+01  3.193339e+01 -3.650264e+00
     vertex  1.506661e+01  2.879561e+01 -3.650264e+00
     vertex  1.482976e+01  2.791165e+01 -3.650264e+00
   endloop
 endfacet
 facet normal  0.000000e+00  0.000000e+00  1.000000e+00
   outer loop
     vertex  1.820439e+01  3.193339e+01 -3.650264e+00
     vertex  1.482976e+01  2.791165e+01 -3.650264e+00
     vertex  1.475000e+01  2.700000e+01 -3.650264e+00
   endloop
 endfacet
 facet normal  0.000000e+00  0.000000e+00  1.000000e+00
   outer loop
     vertex  1.820439e+01  3.193339e+01 -3.650264e+00
     vertex  1.475000e+01  2.700000e+01 -3.650264e+00
     vertex  1.908835e+01  2.182976e+01 -3.650264e+00
   endloop
 endfacet
 facet normal  0.000000e+00  0.000000e+00  1.000000e+00
   outer loop
     vertex  1.820439e+01  3.193339e+01 -3.650264e+00
     vertex  1.597827e+01  3.037463e+01 -3.650264e+00
     vertex  1.506661e+01  2.879561e+01 -3.650264e+00
   endloop
 endfacet
 facet normal  0.000000e+00  0.000000e+00  1.000000e+00
   outer loop
     vertex  1.820439e+01  3.193339e+01 -3.650264e+00
     vertex  1.908835e+01  2.182976e+01 -3.650264e+00
     vertex  2.493339e+01  2.520439e+01 -3.650264e+00
   endloop
 endfacet
 facet normal  0.000000e+00  0.000000e+00  1.000000e+00
   outer loop
     vertex  2.517024e+01  2.608835e+01 -3.650264e+00
     vertex  1.820439e+01  3.193339e+01 -3.650264e+00
     vertex  2.493339e+01  2.520439e+01 -3.650264e+00
   endloop
 endfacet
 facet normal  0.000000e+00  0.000000e+00  1.000000e+00
   outer loop
     vertex  2.000000e+01  3.225000e+01 -3.650264e+00
     vertex  1.908835e+01  3.217024e+01 -3.650264e+00
     vertex  1.820439e+01  3.193339e+01 -3.650264e+00
   endloop
 endfacet
 facet normal  0.000000e+00  0.000000e+00  1.000000e+00
   outer loop
     vertex  2.493339e+01  2.879561e+01 -3.650264e+00
     vertex  2.525000e+01  2.700000e+01 -3.650264e+00
     vertex  2.517024e+01  2.791165e+01 -3.650264e+00
   endloop
 endfacet
 facet normal  0.000000e+00  0.000000e+00  1.000000e+00
   outer loop
     vertex  2.493339e+01  2.879561e+01 -3.650264e+00
     vertex  2.517024e+01  2.608835e+01 -3.650264e+00
     vertex  2.525000e+01  2.700000e+01 -3.650264e+00
   endloop
 endfacet
 facet normal  0.000000e+00  0.000000e+00  1.000000e+00
   outer loop
     vertex  2.179561e+01  3.193339e+01 -3.650264e+00
     vertex  2.091165e+01  3.217024e+01 -3.650264e+00
     vertex  2.000000e+01  3.225000e+01 -3.650264e+00
   endloop
 endfacet
 facet normal  0.000000e+00  0.000000e+00  1.000000e+00
   outer loop
     vertex  2.262500e+01  3.154663e+01 -3.650264e+00
     vertex  2.179561e+01  3.193339e+01 -3.650264e+00
     vertex  2.000000e+01  3.225000e+01 -3.650264e+00
   endloop
 endfacet
 facet normal  0.000000e+00  0.000000e+00  1.000000e+00
   outer loop
     vertex  2.402173e+01  3.037463e+01 -3.650264e+00
     vertex  2.262500e+01  3.154663e+01 -3.650264e+00
     vertex  2.000000e+01  3.225000e+01 -3.650264e+00
   endloop
 endfacet
 facet normal  0.000000e+00  0.000000e+00  1.000000e+00
   outer loop
     vertex  2.402173e+01  3.037463e+01 -3.650264e+00
     vertex  2.493339e+01  2.879561e+01 -3.650264e+00
     vertex  2.454663e+01  2.962500e+01 -3.650264e+00
   endloop
 endfacet
 facet normal  0.000000e+00  0.000000e+00  1.000000e+00
   outer loop
     vertex  2.402173e+01  3.037463e+01 -3.650264e+00
     vertex  2.337463e+01  3.102173e+01 -3.650264e+00
     vertex  2.262500e+01  3.154663e+01 -3.650264e+00
   endloop
 endfacet
 facet normal  0.000000e+00  0.000000e+00  1.000000e+00
   outer loop
     vertex  2.402173e+01  3.037463e+01 -3.650264e+00
     vertex  1.820439e+01  3.193339e+01 -3.650264e+00
     vertex  2.517024e+01  2.608835e+01 -3.650264e+00
   endloop
 endfacet
 facet normal  0.000000e+00  0.000000e+00  1.000000e+00
   outer loop
     vertex  2.402173e+01  3.037463e+01 -3.650264e+00
     vertex  2.000000e+01  3.225000e+01 -3.650264e+00
     vertex  1.820439e+01  3.193339e+01 -3.650264e+00
   endloop
 endfacet
 facet normal  0.000000e+00  0.000000e+00  1.000000e+00
   outer loop
     vertex  2.402173e+01  3.037463e+01 -3.650264e+00
     vertex  2.517024e+01  2.608835e+01 -3.650264e+00
     vertex  2.493339e+01  2.879561e+01 -3.650264e+00
   endloop
 endfacet
 facet normal  0.000000e+00  0.000000e+00 -1.000000e+00
   outer loop
     vertex  1.820439e+01  2.206661e+01 -6.450264e+00
     vertex  1.662537e+01  2.297827e+01 -6.450264e+00
     vertex  1.597827e+01  2.362537e+01 -6.450264e+00
   endloop
 endfacet
 facet normal  0.000000e+00  0.000000e+00 -1.000000e+00
   outer loop
     vertex  1.820439e+01  2.206661e+01 -6.450264e+00
     vertex  1.737500e+01  2.245337e+01 -6.450264e+00
     vertex  1.662537e+01  2.297827e+01 -6.450264e+00
   endloop
 endfacet
 facet normal  0.000000e+00  0.000000e+00 -1.000000e+00
   outer loop
     vertex  1.475000e+01  2.700000e+01 -6.450264e+00
     vertex  1.506661e+01  2.520439e+01 -6.450264e+00
     vertex  1.482976e+01  2.608835e+01 -6.450264e+00
   endloop
 endfacet
 facet normal  0.000000e+00  0.000000e+00 -1.000000e+00
   outer loop
     vertex  1.475000e+01  2.700000e+01 -6.450264e+00
     vertex  1.545337e+01  2.437500e+01 -6.450264e+00
     vertex  1.506661e+01  2.520439e+01 -6.450264e+00
   endloop
 endfacet
 facet normal  0.000000e+00  0.000000e+00 -1.000000e+00
   outer loop
     vertex  1.475000e+01  2.700000e+01 -6.450264e+00
     vertex  1.597827e+01  2.362537e+01 -6.450264e+00
     vertex  1.545337e+01  2.437500e+01 -6.450264e+00
   endloop
 endfacet
 facet normal  0.000000e+00  0.000000e+00 -1.000000e+00
   outer loop
     vertex  1.475000e+01  2.700000e+01 -6.450264e+00
     vertex  1.908835e+01  2.182976e+01 -6.450264e+00
     vertex  1.820439e+01  2.206661e+01 -6.450264e+00
   endloop
 endfacet
 facet normal  0.000000e+00  0.000000e+00 -1.000000e+00
   outer loop
     vertex  1.475000e+01  2.700000e+01 -6.450264e+00
     vertex  1.820439e+01  2.206661e+01 -6.450264e+00
     vertex  1.597827e+01  2.362537e+01 -6.450264e+00
   endloop
 endfacet
 facet normal -0.000000e+00  0.000000e+00 -1.000000e+00
   outer loop
     vertex  2.091165e+01  2.182976e+01 -6.450264e+00
     vertex  2.000000e+01  2.175000e+01 -6.450264e+00
     vertex  1.908835e+01  2.182976e+01 -6.450264e+00
   endloop
 endfacet
 facet normal  0.000000e+00  0.000000e+00 -1.000000e+00
   outer loop
     vertex  2.262500e+01  2.245337e+01 -6.450264e+00
     vertex  2.179561e+01  2.206661e+01 -6.450264e+00
     vertex  2.091165e+01  2.182976e+01 -6.450264e+00
   endloop
 endfacet
 facet normal  0.000000e+00  0.000000e+00 -1.000000e+00
   outer loop
     vertex  2.262500e+01  2.245337e+01 -6.450264e+00
     vertex  2.091165e+01  2.182976e+01 -6.450264e+00
     vertex  1.908835e+01  2.182976e+01 -6.450264e+00
   endloop
 endfacet
 facet normal  0.000000e+00  0.000000e+00 -1.000000e+00
   outer loop
     vertex  2.337463e+01  2.297827e+01 -6.450264e+00
     vertex  2.262500e+01  2.245337e+01 -6.450264e+00
     vertex  1.908835e+01  2.182976e+01 -6.450264e+00
   endloop
 endfacet
 facet normal  0.000000e+00  0.000000e+00 -1.000000e+00
   outer loop
     vertex  1.597827e+01  3.037463e+01 -6.450264e+00
     vertex  1.506661e+01  2.879561e+01 -6.450264e+00
     vertex  1.545337e+01  2.962500e+01 -6.450264e+00
   endloop
 endfacet
 facet normal  0.000000e+00  0.000000e+00 -1.000000e+00
   outer loop
     vertex  2.454663e+01  2.437500e+01 -6.450264e+00
     vertex  2.402173e+01  2.362537e+01 -6.450264e+00
     vertex  2.337463e+01  2.297827e+01 -6.450264e+00
   endloop
 endfacet
 facet normal  0.000000e+00  0.000000e+00 -1.000000e+00
   outer loop
     vertex  2.493339e+01  2.520439e+01 -6.450264e+00
     vertex  2.337463e+01  2.297827e+01 -6.450264e+00
     vertex  1.908835e+01  2.182976e+01 -6.450264e+00
   endloop
 endfacet
 facet normal  0.000000e+00  0.000000e+00 -1.000000e+00
   outer loop
     vertex  2.493339e+01  2.520439e+01 -6.450264e+00
     vertex  2.454663e+01  2.437500e+01 -6.450264e+00
     vertex  2.337463e+01  2.297827e+01 -6.450264e+00
   endloop
 endfacet
 facet normal  0.000000e+00  0.000000e+00 -1.000000e+00
   outer loop
     vertex  1.820439e+01  3.193339e+01 -6.450264e+00
     vertex  1.662537e+01  3.102173e+01 -6.450264e+00
     vertex  1.737500e+01  3.154663e+01 -6.450264e+00
   endloop
 endfacet
 facet normal  0.000000e+00  0.000000e+00 -1.000000e+00
   outer loop
     vertex  1.820439e+01  3.193339e+01 -6.450264e+00
     vertex  1.597827e+01  3.037463e+01 -6.450264e+00
     vertex  1.662537e+01  3.102173e+01 -6.450264e+00
   endloop
 endfacet
 facet normal  0.000000e+00  0.000000e+00 -1.000000e+00
   outer loop
     vertex  1.820439e+01  3.193339e+01 -6.450264e+00
     vertex  1.482976e+01  2.791165e+01 -6.450264e+00
     vertex  1.506661e+01  2.879561e+01 -6.450264e+00
   endloop
 endfacet
 facet normal  0.000000e+00  0.000000e+00 -1.000000e+00
   outer loop
     vertex  1.820439e+01  3.193339e+01 -6.450264e+00
     vertex  1.475000e+01  2.700000e+01 -6.450264e+00
     vertex  1.482976e+01  2.791165e+01 -6.450264e+00
   endloop
 endfacet
 facet normal  0.000000e+00 -0.000000e+00 -1.000000e+00
   outer loop
     vertex  1.820439e+01  3.193339e+01 -6.450264e+00
     vertex  1.908835e+01  2.182976e+01 -6.450264e+00
     vertex  1.475000e+01  2.700000e+01 -6.450264e+00
   endloop
 endfacet
 facet normal  0.000000e+00  0.000000e+00 -1.000000e+00
   outer loop
     vertex  1.820439e+01  3.193339e+01 -6.450264e+00
     vertex  1.506661e+01  2.879561e+01 -6.450264e+00
     vertex  1.597827e+01  3.037463e+01 -6.450264e+00
   endloop
 endfacet
 facet normal  0.000000e+00  0.000000e+00 -1.000000e+00
   outer loop
     vertex  1.820439e+01  3.193339e+01 -6.450264e+00
     vertex  2.493339e+01  2.520439e+01 -6.450264e+00
     vertex  1.908835e+01  2.182976e+01 -6.450264e+00
   endloop
 endfacet
 facet normal -0.000000e+00  0.000000e+00 -1.000000e+00
   outer loop
     vertex  2.517024e+01  2.608835e+01 -6.450264e+00
     vertex  2.493339e+01  2.520439e+01 -6.450264e+00
     vertex  1.820439e+01  3.193339e+01 -6.450264e+00
   endloop
 endfacet
 facet normal  0.000000e+00  0.000000e+00 -1.000000e+00
   outer loop
     vertex  2.000000e+01  3.225000e+01 -6.450264e+00
     vertex  1.820439e+01  3.193339e+01 -6.450264e+00
     vertex  1.908835e+01  3.217024e+01 -6.450264e+00
   endloop
 endfacet
 facet normal  0.000000e+00  0.000000e+00 -1.000000e+00
   outer loop
     vertex  2.493339e+01  2.879561e+01 -6.450264e+00
     vertex  2.517024e+01  2.791165e+01 -6.450264e+00
     vertex  2.525000e+01  2.700000e+01 -6.450264e+00
   endloop
 endfacet
 facet normal  0.000000e+00  0.000000e+00 -1.000000e+00
   outer loop
     vertex  2.493339e+01  2.879561e+01 -6.450264e+00
     vertex  2.525000e+01  2.700000e+01 -6.450264e+00
     vertex  2.517024e+01  2.608835e+01 -6.450264e+00
   endloop
 endfacet
 facet normal  0.000000e+00  0.000000e+00 -1.000000e+00
   outer loop
     vertex  2.179561e+01  3.193339e+01 -6.450264e+00
     vertex  2.000000e+01  3.225000e+01 -6.450264e+00
     vertex  2.091165e+01  3.217024e+01 -6.450264e+00
   endloop
 endfacet
 facet normal  0.000000e+00  0.000000e+00 -1.000000e+00
   outer loop
     vertex  2.262500e+01  3.154663e+01 -6.450264e+00
     vertex  2.000000e+01  3.225000e+01 -6.450264e+00
     vertex  2.179561e+01  3.193339e+01 -6.450264e+00
   endloop
 endfacet
 facet normal  0.000000e+00  0.000000e+00 -1.000000e+00
   outer loop
     vertex  2.402173e+01  3.037463e+01 -6.450264e+00
     vertex  2.000000e+01  3.225000e+01 -6.450264e+00
     vertex  2.262500e+01  3.154663e+01 -6.450264e+00
   endloop
 endfacet
 facet normal  0.000000e+00  0.000000e+00 -1.000000e+00
   outer loop
     vertex  2.402173e+01  3.037463e+01 -6.450264e+00
     vertex  2.454663e+01  2.962500e+01 -6.450264e+00
     vertex  2.493339e+01  2.879561e+01 -6.450264e+00
   endloop
 endfacet
 facet normal  0.000000e+00  0.000000e+00 -1.000000e+00
   outer loop
     vertex  2.402173e+01  3.037463e+01 -6.450264e+00
     vertex  2.262500e+01  3.154663e+01 -6.450264e+00
     vertex  2.337463e+01  3.102173e+01 -6.450264e+00
   endloop
 endfacet
 facet normal -0.000000e+00 -0.000000e+00 -1.000000e+00
   outer loop
     vertex  2.402173e+01  3.037463e+01 -6.450264e+00
     vertex  2.517024e+01  2.608835e+01 -6.450264e+00
     vertex  1.820439e+01  3.193339e+01 -6.450264e+00
   endloop
 endfacet
 facet normal  0.000000e+00  0.000000e+00 -1.000000e+00
   outer loop
     vertex  2.402173e+01  3.037463e+01 -6.450264e+00
     vertex  1.820439e+01  3.193339e+01 -6.450264e+00
     vertex  2.000000e+01  3.225000e+01 -6.450264e+00
   endloop
 endfacet
 facet normal  0.000000e+00  0.000000e+00 -1.000000e+00
   outer loop
     vertex  2.402173e+01  3.037463e+01 -6.450264e+00
     vertex  2.493339e+01  2.879561e+01 -6.450264e+00
     vertex  2.517024e+01  2.608835e+01 -6.450264e+00
   endloop
 endfacet
 facet normal  9.961947e-01  8.715574e-02 -1.494752e-18
   outer loop
     vertex  2.393923e+01  3.969459e+01 -3.650264e+00
     vertex  2.400000e+01  3.900000e+01 -3.650264e+00
     vertex  2.400000e+01  3.900000e+01 -5.850264e+00
   endloop
 endfacet
 facet normal  9.961947e-01  8.715574e-02  0.000000e+00
   outer loop
     vertex  2.393923e+01  3.969459e+01 -3.650264e+00
     vertex  2.400000e+01  3.900000e+01 -5.850264e+00
     vertex  2.393923e+01  3.969459e+01 -5.850264e+00
   endloop
 endfacet
 facet normal  9.659258e-01  2.588190e-01  0.000000e+00
   outer loop
     vertex  2.375877e+01  4.036808e+01 -3.650264e+00
     vertex  2.393923e+01  3.969459e+01 -5.850264e+00
     vertex  2.375877e+01  4.036808e+01 -5.850264e+00
   endloop
 endfacet
 facet normal  9.659258e-01  2.588190e-01 -3.315964e-18
   outer loop
     vertex  2.375877e+01  4.036808e+01 -3.650264e+00
     vertex  2.393923e+01  3.969459e+01 -3.650264e+00
     vertex  2.393923e+01  3.969459e+01 -5.850264e+00
   endloop
 endfacet
 facet normal  9.063078e-01  4.226183e-01  0.000000e+00
   outer loop
     vertex  2.346410e+01  4.100000e+01 -3.650264e+00
     vertex  2.375877e+01  4.036808e+01 -5.850264e+00
     vertex  2.346410e+01  4.100000e+01 -5.850264e+00
   endloop
 endfacet
 facet normal  9.063078e-01  4.226183e-01  4.055613e-18
   outer loop
     vertex  2.346410e+01  4.100000e+01 -3.650264e+00
     vertex  2.375877e+01  4.036808e+01 -3.650264e+00
     vertex  2.375877e+01  4.036808e+01 -5.850264e+00
   endloop
 endfacet
 facet normal  8.191520e-01  5.735764e-01  0.000000e+00
   outer loop
     vertex  2.306418e+01  4.157115e+01 -3.650264e+00
     vertex  2.346410e+01  4.100000e+01 -5.850264e+00
     vertex  2.306418e+01  4.157115e+01 -5.850264e+00
   endloop
 endfacet
 facet normal  7.071068e-01  7.071068e-01  0.000000e+00
   outer loop
     vertex  2.306418e+01  4.157115e+01 -3.650264e+00
     vertex  2.306418e+01  4.157115e+01 -5.850264e+00
     vertex  2.257115e+01  4.206418e+01 -5.850264e+00
   endloop
 endfacet
 facet normal  8.191520e-01  5.735764e-01  3.051697e-18
   outer loop
     vertex  2.306418e+01  4.157115e+01 -3.650264e+00
     vertex  2.346410e+01  4.100000e+01 -3.650264e+00
     vertex  2.346410e+01  4.100000e+01 -5.850264e+00
   endloop
 endfacet
 facet normal  5.735764e-01  8.191520e-01  0.000000e+00
   outer loop
     vertex  2.257115e+01  4.206418e+01 -3.650264e+00
     vertex  2.257115e+01  4.206418e+01 -5.850264e+00
     vertex  2.200000e+01  4.246410e+01 -5.850264e+00
   endloop
 endfacet
 facet normal  7.071068e-01  7.071068e-01  0.000000e+00
   outer loop
     vertex  2.257115e+01  4.206418e+01 -3.650264e+00
     vertex  2.306418e+01  4.157115e+01 -3.650264e+00
     vertex  2.257115e+01  4.206418e+01 -5.850264e+00
   endloop
 endfacet
 facet normal  5.735764e-01  8.191520e-01  0.000000e+00
   outer loop
     vertex  2.200000e+01  4.246410e+01 -3.650264e+00
     vertex  2.257115e+01  4.206418e+01 -3.650264e+00
     vertex  2.200000e+01  4.246410e+01 -5.850264e+00
   endloop
 endfacet
 facet normal  4.226183e-01  9.063078e-01  7.096748e-18
   outer loop
     vertex  2.136808e+01  4.275877e+01 -3.650264e+00
     vertex  2.200000e+01  4.246410e+01 -3.650264e+00
     vertex  2.200000e+01  4.246410e+01 -5.850264e+00
   endloop
 endfacet
 facet normal  4.226183e-01  9.063078e-01  0.000000e+00
   outer loop
     vertex  2.136808e+01  4.275877e+01 -3.650264e+00
     vertex  2.200000e+01  4.246410e+01 -5.850264e+00
     vertex  2.136808e+01  4.275877e+01 -5.850264e+00
   endloop
 endfacet
 facet normal  2.588190e-01  9.659258e-01  0.000000e+00
   outer loop
     vertex  2.136808e+01  4.275877e+01 -3.650264e+00
     vertex  2.136808e+01  4.275877e+01 -5.850264e+00
     vertex  2.069459e+01  4.293923e+01 -5.850264e+00
   endloop
 endfacet
 facet normal  2.588190e-01  9.659258e-01  0.000000e+00
   outer loop
     vertex  2.069459e+01  4.293923e+01 -3.650264e+00
     vertex  2.136808e+01  4.275877e+01 -3.650264e+00
     vertex  2.069459e+01  4.293923e+01 -5.850264e+00
   endloop
 endfacet
 facet normal  8.715574e-02  9.961947e-01  1.723303e-19
   outer loop
     vertex  2.000000e+01  4.300000e+01 -3.650264e+00
     vertex  2.069459e+01  4.293923e+01 -3.650264e+00
     vertex  2.069459e+01  4.293923e+01 -5.850264e+00
   endloop
 endfacet
 facet normal  8.715574e-02  9.961947e-01  0.000000e+00
   outer loop
     vertex  2.000000e+01  4.300000e+01 -3.650264e+00
     vertex  2.069459e+01  4.293923e+01 -5.850264e+00
     vertex  2.000000e+01  4.300000e+01 -5.850264e+00
   endloop
 endfacet
 facet normal -8.715574e-02  9.961947e-01 -1.723303e-19
   outer loop
     vertex  1.930541e+01  4.293923e+01 -3.650264e+00
     vertex  2.000000e+01  4.300000e+01 -3.650264e+00
     vertex  2.000000e+01  4.300000e+01 -5.850264e+00
   endloop
 endfacet
 facet normal -8.715574e-02  9.961947e-01  0.000000e+00
   outer loop
     vertex  1.930541e+01  4.293923e+01 -3.650264e+00
     vertex  2.000000e+01  4.300000e+01 -5.850264e+00
     vertex  1.930541e+01  4.293923e+01 -5.850264e+00
   endloop
 endfacet
 facet normal -2.588190e-01  9.659258e-01  0.000000e+00
   outer loop
     vertex  1.930541e+01  4.293923e+01 -3.650264e+00
     vertex  1.930541e+01  4.293923e+01 -5.850264e+00
     vertex  1.863192e+01  4.275877e+01 -5.850264e+00
   endloop
 endfacet
 facet normal -2.588190e-01  9.659258e-01  0.000000e+00
   outer loop
     vertex  1.863192e+01  4.275877e+01 -3.650264e+00
     vertex  1.930541e+01  4.293923e+01 -3.650264e+00
     vertex  1.863192e+01  4.275877e+01 -5.850264e+00
   endloop
 endfacet
 facet normal -4.226183e-01  9.063078e-01  0.000000e+00
   outer loop
     vertex  1.863192e+01  4.275877e+01 -3.650264e+00
     vertex  1.863192e+01  4.275877e+01 -5.850264e+00
     vertex  1.800000e+01  4.246410e+01 -5.850264e+00
   endloop
 endfacet
 facet normal -4.226183e-01  9.063078e-01  0.000000e+00
   outer loop
     vertex  1.800000e+01  4.246410e+01 -3.650264e+00
     vertex  1.863192e+01  4.275877e+01 -3.650264e+00
     vertex  1.800000e+01  4.246410e+01 -5.850264e+00
   endloop
 endfacet
 facet normal -5.735764e-01  8.191520e-01 -6.494170e-18
   outer loop
     vertex  1.742885e+01  4.206418e+01 -3.650264e+00
     vertex  1.800000e+01  4.246410e+01 -3.650264e+00
     vertex  1.800000e+01  4.246410e+01 -5.850264e+00
   endloop
 endfacet
 facet normal -5.735764e-01  8.191520e-01  0.000000e+00
   outer loop
     vertex  1.742885e+01  4.206418e+01 -3.650264e+00
     vertex  1.800000e+01  4.246410e+01 -5.850264e+00
     vertex  1.742885e+01  4.206418e+01 -5.850264e+00
   endloop
 endfacet
 facet normal -7.071068e-01  7.071068e-01  0.000000e+00
   outer loop
     vertex  1.742885e+01  4.206418e+01 -3.650264e+00
     vertex  1.742885e+01  4.206418e+01 -5.850264e+00
     vertex  1.693582e+01  4.157115e+01 -5.850264e+00
   endloop
 endfacet
 facet normal -7.071068e-01  7.071068e-01  0.000000e+00
   outer loop
     vertex  1.693582e+01  4.157115e+01 -3.650264e+00
     vertex  1.742885e+01  4.206418e+01 -3.650264e+00
     vertex  1.693582e+01  4.157115e+01 -5.850264e+00
   endloop
 endfacet
 facet normal -8.191520e-01  5.735764e-01 -3.051697e-18
   outer loop
     vertex  1.653590e+01  4.100000e+01 -3.650264e+00
     vertex  1.693582e+01  4.157115e+01 -3.650264e+00
     vertex  1.693582e+01  4.157115e+01 -5.850264e+00
   endloop
 endfacet
 facet normal -8.191520e-01  5.735764e-01  0.000000e+00
   outer loop
     vertex  1.653590e+01  4.100000e+01 -3.650264e+00
     vertex  1.693582e+01  4.157115e+01 -5.850264e+00
     vertex  1.653590e+01  4.100000e+01 -5.850264e+00
   endloop
 endfacet
 facet normal -9.063078e-01  4.226183e-01  0.000000e+00
   outer loop
     vertex  1.653590e+01  4.100000e+01 -3.650264e+00
     vertex  1.653590e+01  4.100000e+01 -5.850264e+00
     vertex  1.624123e+01  4.036808e+01 -5.850264e+00
   endloop
 endfacet
 facet normal -9.063078e-01  4.226183e-01  0.000000e+00
   outer loop
     vertex  1.624123e+01  4.036808e+01 -3.650264e+00
     vertex  1.653590e+01  4.100000e+01 -3.650264e+00
     vertex  1.624123e+01  4.036808e+01 -5.850264e+00
   endloop
 endfacet
 facet normal -9.659258e-01  2.588190e-01  3.470688e-18
   outer loop
     vertex  1.606077e+01  3.969459e+01 -3.650264e+00
     vertex  1.624123e+01  4.036808e+01 -3.650264e+00
     vertex  1.624123e+01  4.036808e+01 -5.850264e+00
   endloop
 endfacet
 facet normal -9.659258e-01  2.588190e-01  0.000000e+00
   outer loop
     vertex  1.606077e+01  3.969459e+01 -3.650264e+00
     vertex  1.624123e+01  4.036808e+01 -5.850264e+00
     vertex  1.606077e+01  3.969459e+01 -5.850264e+00
   endloop
 endfacet
 facet normal -9.961947e-01  8.715574e-02  1.494752e-18
   outer loop
     vertex  1.600000e+01  3.900000e+01 -3.650264e+00
     vertex  1.606077e+01  3.969459e+01 -3.650264e+00
     vertex  1.606077e+01  3.969459e+01 -5.850264e+00
   endloop
 endfacet
 facet normal -9.961947e-01  8.715574e-02  0.000000e+00
   outer loop
     vertex  1.600000e+01  3.900000e+01 -3.650264e+00
     vertex  1.606077e+01  3.969459e+01 -5.850264e+00
     vertex  1.600000e+01  3.900000e+01 -5.850264e+00
   endloop
 endfacet
 facet normal -9.961947e-01 -8.715574e-02 -0.000000e+00
   outer loop
     vertex  1.606077e+01  3.830541e+01 -3.650264e+00
     vertex  1.600000e+01  3.900000e+01 -5.850264e+00
     vertex  1.606077e+01  3.830541e+01 -5.850264e+00
   endloop
 endfacet
 facet normal -9.961947e-01 -8.715574e-02 -1.494752e-18
   outer loop
     vertex  1.606077e+01  3.830541e+01 -3.650264e+00
     vertex  1.600000e+01  3.900000e+01 -3.650264e+00
     vertex  1.600000e+01  3.900000e+01 -5.850264e+00
   endloop
 endfacet
 facet normal -9.659258e-01 -2.588190e-01 -0.000000e+00
   outer loop
     vertex  1.624123e+01  3.763192e+01 -3.650264e+00
     vertex  1.606077e+01  3.830541e+01 -5.850264e+00
     vertex  1.624123e+01  3.763192e+01 -5.850264e+00
   endloop
 endfacet
 facet normal -9.659258e-01 -2.588190e-01 -3.315964e-18
   outer loop
     vertex  1.624123e+01  3.763192e+01 -3.650264e+00
     vertex  1.606077e+01  3.830541e+01 -3.650264e+00
     vertex  1.606077e+01  3.830541e+01 -5.850264e+00
   endloop
 endfacet
 facet normal -9.063078e-01 -4.226183e-01 -0.000000e+00
   outer loop
     vertex  1.653590e+01  3.700000e+01 -3.650264e+00
     vertex  1.624123e+01  3.763192e+01 -5.850264e+00
     vertex  1.653590e+01  3.700000e+01 -5.850264e+00
   endloop
 endfacet
 facet normal -9.063078e-01 -4.226183e-01  1.987194e-18
   outer loop
     vertex  1.653590e+01  3.700000e+01 -3.650264e+00
     vertex  1.624123e+01  3.763192e+01 -3.650264e+00
     vertex  1.624123e+01  3.763192e+01 -5.850264e+00
   endloop
 endfacet
 facet normal -8.191520e-01 -5.735764e-01 -0.000000e+00
   outer loop
     vertex  1.693582e+01  3.642885e+01 -3.650264e+00
     vertex  1.653590e+01  3.700000e+01 -5.850264e+00
     vertex  1.693582e+01  3.642885e+01 -5.850264e+00
   endloop
 endfacet
 facet normal -8.191520e-01 -5.735764e-01  4.992422e-18
   outer loop
     vertex  1.693582e+01  3.642885e+01 -3.650264e+00
     vertex  1.653590e+01  3.700000e+01 -3.650264e+00
     vertex  1.653590e+01  3.700000e+01 -5.850264e+00
   endloop
 endfacet
 facet normal -7.071068e-01 -7.071068e-01 -0.000000e+00
   outer loop
     vertex  1.742885e+01  3.593582e+01 -3.650264e+00
     vertex  1.693582e+01  3.642885e+01 -5.850264e+00
     vertex  1.742885e+01  3.593582e+01 -5.850264e+00
   endloop
 endfacet
 facet normal -7.071068e-01 -7.071068e-01 -5.512996e-18
   outer loop
     vertex  1.742885e+01  3.593582e+01 -3.650264e+00
     vertex  1.693582e+01  3.642885e+01 -3.650264e+00
     vertex  1.693582e+01  3.642885e+01 -5.850264e+00
   endloop
 endfacet
 facet normal -5.735764e-01 -8.191520e-01 -0.000000e+00
   outer loop
     vertex  1.800000e+01  3.553590e+01 -3.650264e+00
     vertex  1.742885e+01  3.593582e+01 -5.850264e+00
     vertex  1.800000e+01  3.553590e+01 -5.850264e+00
   endloop
 endfacet
 facet normal -5.735764e-01 -8.191520e-01  6.494170e-18
   outer loop
     vertex  1.800000e+01  3.553590e+01 -3.650264e+00
     vertex  1.742885e+01  3.593582e+01 -3.650264e+00
     vertex  1.742885e+01  3.593582e+01 -5.850264e+00
   endloop
 endfacet
 facet normal -4.226183e-01 -9.063078e-01 -0.000000e+00
   outer loop
     vertex  1.863192e+01  3.524123e+01 -3.650264e+00
     vertex  1.800000e+01  3.553590e+01 -5.850264e+00
     vertex  1.863192e+01  3.524123e+01 -5.850264e+00
   endloop
 endfacet
 facet normal -4.226183e-01 -9.063078e-01  1.987194e-18
   outer loop
     vertex  1.863192e+01  3.524123e+01 -3.650264e+00
     vertex  1.800000e+01  3.553590e+01 -3.650264e+00
     vertex  1.800000e+01  3.553590e+01 -5.850264e+00
   endloop
 endfacet
 facet normal -2.588190e-01 -9.659258e-01 -0.000000e+00
   outer loop
     vertex  1.930541e+01  3.506077e+01 -3.650264e+00
     vertex  1.863192e+01  3.524123e+01 -5.850264e+00
     vertex  1.930541e+01  3.506077e+01 -5.850264e+00
   endloop
 endfacet
 facet normal -2.588190e-01 -9.659258e-01  3.786069e-18
   outer loop
     vertex  1.930541e+01  3.506077e+01 -3.650264e+00
     vertex  1.863192e+01  3.524123e+01 -3.650264e+00
     vertex  1.863192e+01  3.524123e+01 -5.850264e+00
   endloop
 endfacet
 facet normal -8.715574e-02 -9.961947e-01 -0.000000e+00
   outer loop
     vertex  2.000000e+01  3.500000e+01 -3.650264e+00
     vertex  1.930541e+01  3.506077e+01 -5.850264e+00
     vertex  2.000000e+01  3.500000e+01 -5.850264e+00
   endloop
 endfacet
 facet normal -8.715574e-02 -9.961947e-01  1.723303e-19
   outer loop
     vertex  2.000000e+01  3.500000e+01 -3.650264e+00
     vertex  1.930541e+01  3.506077e+01 -3.650264e+00
     vertex  1.930541e+01  3.506077e+01 -5.850264e+00
   endloop
 endfacet
 facet normal  8.715574e-02 -9.961947e-01  0.000000e+00
   outer loop
     vertex  2.069459e+01  3.506077e+01 -3.650264e+00
     vertex  2.000000e+01  3.500000e+01 -5.850264e+00
     vertex  2.069459e+01  3.506077e+01 -5.850264e+00
   endloop
 endfacet
 facet normal  8.715574e-02 -9.961947e-01 -1.361739e-18
   outer loop
     vertex  2.069459e+01  3.506077e+01 -3.650264e+00
     vertex  2.000000e+01  3.500000e+01 -3.650264e+00
     vertex  2.000000e+01  3.500000e+01 -5.850264e+00
   endloop
 endfacet
 facet normal  2.588190e-01 -9.659258e-01  0.000000e+00
   outer loop
     vertex  2.136808e+01  3.524123e+01 -3.650264e+00
     vertex  2.069459e+01  3.506077e+01 -5.850264e+00
     vertex  2.136808e+01  3.524123e+01 -5.850264e+00
   endloop
 endfacet
 facet normal  4.226183e-01 -9.063078e-01  0.000000e+00
   outer loop
     vertex  2.136808e+01  3.524123e+01 -3.650264e+00
     vertex  2.136808e+01  3.524123e+01 -5.850264e+00
     vertex  2.200000e+01  3.553590e+01 -5.850264e+00
   endloop
 endfacet
 facet normal  2.588190e-01 -9.659258e-01 -3.786069e-18
   outer loop
     vertex  2.136808e+01  3.524123e+01 -3.650264e+00
     vertex  2.069459e+01  3.506077e+01 -3.650264e+00
     vertex  2.069459e+01  3.506077e+01 -5.850264e+00
   endloop
 endfacet
 facet normal  4.226183e-01 -9.063078e-01  0.000000e+00
   outer loop
     vertex  2.200000e+01  3.553590e+01 -3.650264e+00
     vertex  2.136808e+01  3.524123e+01 -3.650264e+00
     vertex  2.200000e+01  3.553590e+01 -5.850264e+00
   endloop
 endfacet
 facet normal  5.735764e-01 -8.191520e-01 -6.494170e-18
   outer loop
     vertex  2.257115e+01  3.593582e+01 -3.650264e+00
     vertex  2.200000e+01  3.553590e+01 -3.650264e+00
     vertex  2.200000e+01  3.553590e+01 -5.850264e+00
   endloop
 endfacet
 facet normal  5.735764e-01 -8.191520e-01  0.000000e+00
   outer loop
     vertex  2.257115e+01  3.593582e+01 -3.650264e+00
     vertex  2.200000e+01  3.553590e+01 -5.850264e+00
     vertex  2.257115e+01  3.593582e+01 -5.850264e+00
   endloop
 endfacet
 facet normal  7.071068e-01 -7.071068e-01  5.512996e-18
   outer loop
     vertex  2.306418e+01  3.642885e+01 -3.650264e+00
     vertex  2.257115e+01  3.593582e+01 -3.650264e+00
     vertex  2.257115e+01  3.593582e+01 -5.850264e+00
   endloop
 endfacet
 facet normal  7.071068e-01 -7.071068e-01  0.000000e+00
   outer loop
     vertex  2.306418e+01  3.642885e+01 -3.650264e+00
     vertex  2.257115e+01  3.593582e+01 -5.850264e+00
     vertex  2.306418e+01  3.642885e+01 -5.850264e+00
   endloop
 endfacet
 facet normal  8.191520e-01 -5.735764e-01 -7.995918e-18
   outer loop
     vertex  2.346410e+01  3.700000e+01 -3.650264e+00
     vertex  2.306418e+01  3.642885e+01 -3.650264e+00
     vertex  2.306418e+01  3.642885e+01 -5.850264e+00
   endloop
 endfacet
 facet normal  8.191520e-01 -5.735764e-01  0.000000e+00
   outer loop
     vertex  2.346410e+01  3.700000e+01 -3.650264e+00
     vertex  2.306418e+01  3.642885e+01 -5.850264e+00
     vertex  2.346410e+01  3.700000e+01 -5.850264e+00
   endloop
 endfacet
 facet normal  9.063078e-01 -4.226183e-01  0.000000e+00
   outer loop
     vertex  2.346410e+01  3.700000e+01 -3.650264e+00
     vertex  2.346410e+01  3.700000e+01 -5.850264e+00
     vertex  2.375877e+01  3.763192e+01 -5.850264e+00
   endloop
 endfacet
 facet normal  9.063078e-01 -4.226183e-01  0.000000e+00
   outer loop
     vertex  2.375877e+01  3.763192e+01 -3.650264e+00
     vertex  2.346410e+01  3.700000e+01 -3.650264e+00
     vertex  2.375877e+01  3.763192e+01 -5.850264e+00
   endloop
 endfacet
 facet normal  9.659258e-01 -2.588190e-01  3.470688e-18
   outer loop
     vertex  2.393923e+01  3.830541e+01 -3.650264e+00
     vertex  2.375877e+01  3.763192e+01 -3.650264e+00
     vertex  2.375877e+01  3.763192e+01 -5.850264e+00
   endloop
 endfacet
 facet normal  9.659258e-01 -2.588190e-01  0.000000e+00
   outer loop
     vertex  2.393923e+01  3.830541e+01 -3.650264e+00
     vertex  2.375877e+01  3.763192e+01 -5.850264e+00
     vertex  2.393923e+01  3.830541e+01 -5.850264e+00
   endloop
 endfacet
 facet normal  9.961947e-01 -8.715574e-02  0.000000e+00
   outer loop
     vertex  2.393923e+01  3.830541e+01 -3.650264e+00
     vertex  2.393923e+01  3.830541e+01 -5.850264e+00
     vertex  2.400000e+01  3.900000e+01 -5.850264e+00
   endloop
 endfacet
 facet normal  9.961947e-01 -8.715574e-02  0.000000e+00
   outer loop
     vertex  2.400000e+01  3.900000e+01 -3.650264e+00
     vertex  2.393923e+01  3.830541e+01 -3.650264e+00
     vertex  2.400000e+01  3.900000e+01 -5.850264e+00
   endloop
 endfacet
 facet normal  0.000000e+00  0.000000e+00  1.000000e+00
   outer loop
     vertex  1.624123e+01  3.763192e+01 -3.650264e+00
     vertex  1.653590e+01  3.700000e+01 -3.650264e+00
     vertex  1.693582e+01  3.642885e+01 -3.650264e+00
   endloop
 endfacet
 facet normal  0.000000e+00  0.000000e+00  1.000000e+00
   outer loop
     vertex  2.069459e+01  3.506077e+01 -3.650264e+00
     vertex  1.742885e+01  3.593582e+01 -3.650264e+00
     vertex  1.800000e+01  3.553590e+01 -3.650264e+00
   endloop
 endfacet
 facet normal  0.000000e+00  0.000000e+00  1.000000e+00
   outer loop
     vertex  2.069459e+01  3.506077e+01 -3.650264e+00
     vertex  1.800000e+01  3.553590e+01 -3.650264e+00
     vertex  1.863192e+01  3.524123e+01 -3.650264e+00
   endloop
 endfacet
 facet normal  0.000000e+00  0.000000e+00  1.000000e+00
   outer loop
     vertex  2.069459e+01  3.506077e+01 -3.650264e+00
     vertex  1.863192e+01  3.524123e+01 -3.650264e+00
     vertex  1.930541e+01  3.506077e+01 -3.650264e+00
   endloop
 endfacet
 facet normal  0.000000e+00  0.000000e+00  1.000000e+00
   outer loop
     vertex  2.069459e+01  3.506077e+01 -3.650264e+00
     vertex  1.930541e+01  3.506077e+01 -3.650264e+00
     vertex  2.000000e+01  3.500000e+01 -3.650264e+00
   endloop
 endfacet
 facet normal  0.000000e+00  0.000000e+00  1.000000e+00
   outer loop
     vertex  1.624123e+01  4.036808e+01 -3.650264e+00
     vertex  1.606077e+01  3.969459e+01 -3.650264e+00
     vertex  1.600000e+01  3.900000e+01 -3.650264e+00
   endloop
 endfacet
 facet normal  0.000000e+00  0.000000e+00  1.000000e+00
   outer loop
     vertex  1.624123e+01  4.036808e+01 -3.650264e+00
     vertex  1.600000e+01  3.900000e+01 -3.650264e+00
     vertex  1.606077e+01  3.830541e+01 -3.650264e+00
   endloop
 endfacet
 facet normal  0.000000e+00  0.000000e+00  1.000000e+00
   outer loop
     vertex  1.624123e+01  4.036808e+01 -3.650264e+00
     vertex  1.606077e+01  3.830541e+01 -3.650264e+00
     vertex  1.624123e+01  3.763192e+01 -3.650264e+00
   endloop
 endfacet
 facet normal  0.000000e+00  0.000000e+00  1.000000e+00
   outer loop
     vertex  2.200000e+01  3.553590e+01 -3.650264e+00
     vertex  2.069459e+01  3.506077e+01 -3.650264e+00
     vertex  2.136808e+01  3.524123e+01 -3.650264e+00
   endloop
 endfacet
 facet normal  0.000000e+00  0.000000e+00  1.000000e+00
   outer loop
     vertex  2.200000e+01  3.553590e+01 -3.650264e+00
     vertex  1.742885e+01  3.593582e+01 -3.650264e+00
     vertex  2.069459e+01  3.506077e+01 -3.650264e+00
   endloop
 endfacet
 facet normal  0.000000e+00  0.000000e+00  1.000000e+00
   outer loop
     vertex  1.693582e+01  4.157115e+01 -3.650264e+00
     vertex  1.653590e+01  4.100000e+01 -3.650264e+00
     vertex  1.624123e+01  4.036808e+01 -3.650264e+00
   endloop
 endfacet
 facet normal  0.000000e+00  0.000000e+00  1.000000e+00
   outer loop
     vertex  1.693582e+01  4.157115e+01 -3.650264e+00
     vertex  1.624123e+01  4.036808e+01 -3.650264e+00
     vertex  1.624123e+01  3.763192e+01 -3.650264e+00
   endloop
 endfacet
 facet normal  0.000000e+00  0.000000e+00  1.000000e+00
   outer loop
     vertex  2.346410e+01  3.700000e+01 -3.650264e+00
     vertex  2.200000e+01  3.553590e+01 -3.650264e+00
     vertex  2.257115e+01  3.593582e+01 -3.650264e+00
   endloop
 endfacet
 facet normal  0.000000e+00  0.000000e+00  1.000000e+00
   outer loop
     vertex  2.346410e+01  3.700000e+01 -3.650264e+00
     vertex  2.257115e+01  3.593582e+01 -3.650264e+00
     vertex  2.306418e+01  3.642885e+01 -3.650264e+00
   endloop
 endfacet
 facet normal  0.000000e+00  0.000000e+00  1.000000e+00
   outer loop
     vertex  1.863192e+01  4.275877e+01 -3.650264e+00
     vertex  1.800000e+01  4.246410e+01 -3.650264e+00
     vertex  1.742885e+01  4.206418e+01 -3.650264e+00
   endloop
 endfacet
 facet normal  0.000000e+00  0.000000e+00  1.000000e+00
   outer loop
     vertex  1.863192e+01  4.275877e+01 -3.650264e+00
     vertex  1.742885e+01  4.206418e+01 -3.650264e+00
     vertex  1.693582e+01  4.157115e+01 -3.650264e+00
   endloop
 endfacet
 facet normal  0.000000e+00  0.000000e+00  1.000000e+00
   outer loop
     vertex  1.863192e+01  4.275877e+01 -3.650264e+00
     vertex  1.693582e+01  4.157115e+01 -3.650264e+00
     vertex  1.624123e+01  3.763192e+01 -3.650264e+00
   endloop
 endfacet
 facet normal  0.000000e+00  0.000000e+00  1.000000e+00
   outer loop
     vertex  2.393923e+01  3.830541e+01 -3.650264e+00
     vertex  2.346410e+01  3.700000e+01 -3.650264e+00
     vertex  2.375877e+01  3.763192e+01 -3.650264e+00
   endloop
 endfacet
 facet normal  0.000000e+00  0.000000e+00  1.000000e+00
   outer loop
     vertex  2.000000e+01  4.300000e+01 -3.650264e+00
     vertex  1.930541e+01  4.293923e+01 -3.650264e+00
     vertex  1.863192e+01  4.275877e+01 -3.650264e+00
   endloop
 endfacet
 facet normal  0.000000e+00  0.000000e+00  1.000000e+00
   outer loop
     vertex  2.375877e+01  4.036808e+01 -3.650264e+00
     vertex  2.400000e+01  3.900000e+01 -3.650264e+00
     vertex  2.393923e+01  3.969459e+01 -3.650264e+00
   endloop
 endfacet
 facet normal  0.000000e+00  0.000000e+00  1.000000e+00
   outer loop
     vertex  2.375877e+01  4.036808e+01 -3.650264e+00
     vertex  2.393923e+01  3.830541e+01 -3.650264e+00
     vertex  2.400000e+01  3.900000e+01 -3.650264e+00
   endloop
 endfacet
 facet normal  0.000000e+00  0.000000e+00  1.000000e+00
   outer loop
     vertex  2.375877e+01  4.036808e+01 -3.650264e+00
     vertex  1.742885e+01  3.593582e+01 -3.650264e+00
     vertex  2.200000e+01  3.553590e+01 -3.650264e+00
   endloop
 endfacet
 facet normal  0.000000e+00  0.000000e+00  1.000000e+00
   outer loop
     vertex  2.375877e+01  4.036808e+01 -3.650264e+00
     vertex  2.200000e+01  3.553590e+01 -3.650264e+00
     vertex  2.346410e+01  3.700000e+01 -3.650264e+00
   endloop
 endfacet
 facet normal  0.000000e+00  0.000000e+00  1.000000e+00
   outer loop
     vertex  2.375877e+01  4.036808e+01 -3.650264e+00
     vertex  2.346410e+01  3.700000e+01 -3.650264e+00
     vertex  2.393923e+01  3.830541e+01 -3.650264e+00
   endloop
 endfacet
 facet normal  0.000000e+00  0.000000e+00  1.000000e+00
   outer loop
     vertex  2.200000e+01  4.246410e+01 -3.650264e+00
     vertex  2.136808e+01  4.275877e+01 -3.650264e+00
     vertex  2.069459e+01  4.293923e+01 -3.650264e+00
   endloop
 endfacet
 facet normal  0.000000e+00  0.000000e+00  1.000000e+00
   outer loop
     vertex  2.200000e+01  4.246410e+01 -3.650264e+00
     vertex  2.069459e+01  4.293923e+01 -3.650264e+00
     vertex  2.000000e+01  4.300000e+01 -3.650264e+00
   endloop
 endfacet
 facet normal  0.000000e+00  0.000000e+00  1.000000e+00
   outer loop
     vertex  2.200000e+01  4.246410e+01 -3.650264e+00
     vertex  2.000000e+01  4.300000e+01 -3.650264e+00
     vertex  1.863192e+01  4.275877e+01 -3.650264e+00
   endloop
 endfacet
 facet normal  0.000000e+00  0.000000e+00  1.000000e+00
   outer loop
     vertex  2.306418e+01  4.157115e+01 -3.650264e+00
     vertex  2.375877e+01  4.036808e+01 -3.650264e+00
     vertex  2.346410e+01  4.100000e+01 -3.650264e+00
   endloop
 endfacet
 facet normal  0.000000e+00  0.000000e+00  1.000000e+00
   outer loop
     vertex  2.306418e+01  4.157115e+01 -3.650264e+00
     vertex  2.257115e+01  4.206418e+01 -3.650264e+00
     vertex  2.200000e+01  4.246410e+01 -3.650264e+00
   endloop
 endfacet
 facet normal  0.000000e+00  0.000000e+00  1.000000e+00
   outer loop
     vertex  2.306418e+01  4.157115e+01 -3.650264e+00
     vertex  1.693582e+01  3.642885e+01 -3.650264e+00
     vertex  1.742885e+01  3.593582e+01 -3.650264e+00
   endloop
 endfacet
 facet normal  0.000000e+00  0.000000e+00  1.000000e+00
   outer loop
     vertex  2.306418e+01  4.157115e+01 -3.650264e+00
     vertex  1.624123e+01  3.763192e+01 -3.650264e+00
     vertex  1.693582e+01  3.642885e+01 -3.650264e+00
   endloop
 endfacet
 facet normal  0.000000e+00  0.000000e+00  1.000000e+00
   outer loop
     vertex  2.306418e+01  4.157115e+01 -3.650264e+00
     vertex  1.863192e+01  4.275877e+01 -3.650264e+00
     vertex  1.624123e+01  3.763192e+01 -3.650264e+00
   endloop
 endfacet
 facet normal  0.000000e+00  0.000000e+00  1.000000e+00
   outer loop
     vertex  2.306418e+01  4.157115e+01 -3.650264e+00
     vertex  2.200000e+01  4.246410e+01 -3.650264e+00
     vertex  1.863192e+01  4.275877e+01 -3.650264e+00
   endloop
 endfacet
 facet normal  0.000000e+00  0.000000e+00  1.000000e+00
   outer loop
     vertex  2.306418e+01  4.157115e+01 -3.650264e+00
     vertex  1.742885e+01  3.593582e+01 -3.650264e+00
     vertex  2.375877e+01  4.036808e+01 -3.650264e+00
   endloop
 endfacet
 facet normal  0.000000e+00  0.000000e+00 -1.000000e+00
   outer loop
     vertex  1.624123e+01  3.763192e+01 -5.850264e+00
     vertex  1.693582e+01  3.642885e+01 -5.850264e+00
     vertex  1.653590e+01  3.700000e+01 -5.850264e+00
   endloop
 endfacet
 facet normal  0.000000e+00  0.000000e+00 -1.000000e+00
   outer loop
     vertex  2.069459e+01  3.506077e+01 -5.850264e+00
     vertex  1.800000e+01  3.553590e+01 -5.850264e+00
     vertex  1.742885e+01  3.593582e+01 -5.850264e+00
   endloop
 endfacet
 facet normal  0.000000e+00  0.000000e+00 -1.000000e+00
   outer loop
     vertex  2.069459e+01  3.506077e+01 -5.850264e+00
     vertex  1.863192e+01  3.524123e+01 -5.850264e+00
     vertex  1.800000e+01  3.553590e+01 -5.850264e+00
   endloop
 endfacet
 facet normal  0.000000e+00  0.000000e+00 -1.000000e+00
   outer loop
     vertex  2.069459e+01  3.506077e+01 -5.850264e+00
     vertex  1.930541e+01  3.506077e+01 -5.850264e+00
     vertex  1.863192e+01  3.524123e+01 -5.850264e+00
   endloop
 endfacet
 facet normal -0.000000e+00  0.000000e+00 -1.000000e+00
   outer loop
     vertex  2.069459e+01  3.506077e+01 -5.850264e+00
     vertex  2.000000e+01  3.500000e+01 -5.850264e+00
     vertex  1.930541e+01  3.506077e+01 -5.850264e+00
   endloop
 endfacet
 facet normal  0.000000e+00  0.000000e+00 -1.000000e+00
   outer loop
     vertex  1.624123e+01  4.036808e+01 -5.850264e+00
     vertex  1.600000e+01  3.900000e+01 -5.850264e+00
     vertex  1.606077e+01  3.969459e+01 -5.850264e+00
   endloop
 endfacet
 facet normal  0.000000e+00  0.000000e+00 -1.000000e+00
   outer loop
     vertex  1.624123e+01  4.036808e+01 -5.850264e+00
     vertex  1.606077e+01  3.830541e+01 -5.850264e+00
     vertex  1.600000e+01  3.900000e+01 -5.850264e+00
   endloop
 endfacet
 facet normal  0.000000e+00  0.000000e+00 -1.000000e+00
   outer loop
     vertex  1.624123e+01  4.036808e+01 -5.850264e+00
     vertex  1.624123e+01  3.763192e+01 -5.850264e+00
     vertex  1.606077e+01  3.830541e+01 -5.850264e+00
   endloop
 endfacet
 facet normal  0.000000e+00  0.000000e+00 -1.000000e+00
   outer loop
     vertex  2.200000e+01  3.553590e+01 -5.850264e+00
     vertex  2.136808e+01  3.524123e+01 -5.850264e+00
     vertex  2.069459e+01  3.506077e+01 -5.850264e+00
   endloop
 endfacet
 facet normal -0.000000e+00  0.000000e+00 -1.000000e+00
   outer loop
     vertex  2.200000e+01  3.553590e+01 -5.850264e+00
     vertex  2.069459e+01  3.506077e+01 -5.850264e+00
     vertex  1.742885e+01  3.593582e+01 -5.850264e+00
   endloop
 endfacet
 facet normal  0.000000e+00  0.000000e+00 -1.000000e+00
   outer loop
     vertex  1.693582e+01  4.157115e+01 -5.850264e+00
     vertex  1.624123e+01  4.036808e+01 -5.850264e+00
     vertex  1.653590e+01  4.100000e+01 -5.850264e+00
   endloop
 endfacet
 facet normal  0.000000e+00  0.000000e+00 -1.000000e+00
   outer loop
     vertex  1.693582e+01  4.157115e+01 -5.850264e+00
     vertex  1.624123e+01  3.763192e+01 -5.850264e+00
     vertex  1.624123e+01  4.036808e+01 -5.850264e+00
   endloop
 endfacet
 facet normal  0.000000e+00  0.000000e+00 -1.000000e+00
   outer loop
     vertex  2.346410e+01  3.700000e+01 -5.850264e+00
     vertex  2.257115e+01  3.593582e+01 -5.850264e+00
     vertex  2.200000e+01  3.553590e+01 -5.850264e+00
   endloop
 endfacet
 facet normal  0.000000e+00  0.000000e+00 -1.000000e+00
   outer loop
     vertex  2.346410e+01  3.700000e+01 -5.850264e+00
     vertex  2.306418e+01  3.642885e+01 -5.850264e+00
     vertex  2.257115e+01  3.593582e+01 -5.850264e+00
   endloop
 endfacet
 facet normal  0.000000e+00  0.000000e+00 -1.000000e+00
   outer loop
     vertex  1.863192e+01  4.275877e+01 -5.850264e+00
     vertex  1.742885e+01  4.206418e+01 -5.850264e+00
     vertex  1.800000e+01  4.246410e+01 -5.850264e+00
   endloop
 endfacet
 facet normal  0.000000e+00  0.000000e+00 -1.000000e+00
   outer loop
     vertex  1.863192e+01  4.275877e+01 -5.850264e+00
     vertex  1.693582e+01  4.157115e+01 -5.850264e+00
     vertex  1.742885e+01  4.206418e+01 -5.850264e+00
   endloop
 endfacet
 facet normal  0.000000e+00  0.000000e+00 -1.000000e+00
   outer loop
     vertex  1.863192e+01  4.275877e+01 -5.850264e+00
     vertex  1.624123e+01  3.763192e+01 -5.850264e+00
     vertex  1.693582e+01  4.157115e+01 -5.850264e+00
   endloop
 endfacet
 facet normal  0.000000e+00  0.000000e+00 -1.000000e+00
   outer loop
     vertex  2.393923e+01  3.830541e+01 -5.850264e+00
     vertex  2.375877e+01  3.763192e+01 -5.850264e+00
     vertex  2.346410e+01  3.700000e+01 -5.850264e+00
   endloop
 endfacet
 facet normal  0.000000e+00  0.000000e+00 -1.000000e+00
   outer loop
     vertex  2.000000e+01  4.300000e+01 -5.850264e+00
     vertex  1.863192e+01  4.275877e+01 -5.850264e+00
     vertex  1.930541e+01  4.293923e+01 -5.850264e+00
   endloop
 endfacet
 facet normal  0.000000e+00  0.000000e+00 -1.000000e+00
   outer loop
     vertex  2.375877e+01  4.036808e+01 -5.850264e+00
     vertex  2.393923e+01  3.969459e+01 -5.850264e+00
     vertex  2.400000e+01  3.900000e+01 -5.850264e+00
   endloop
 endfacet
 facet normal  0.000000e+00  0.000000e+00 -1.000000e+00
   outer loop
     vertex  2.375877e+01  4.036808e+01 -5.850264e+00
     vertex  2.400000e+01  3.900000e+01 -5.850264e+00
     vertex  2.393923e+01  3.830541e+01 -5.850264e+00
   endloop
 endfacet
 facet normal  0.000000e+00  0.000000e+00 -1.000000e+00
   outer loop
     vertex  2.375877e+01  4.036808e+01 -5.850264e+00
     vertex  2.200000e+01  3.553590e+01 -5.850264e+00
     vertex  1.742885e+01  3.593582e+01 -5.850264e+00
   endloop
 endfacet
 facet normal  0.000000e+00  0.000000e+00 -1.000000e+00
   outer loop
     vertex  2.375877e+01  4.036808e+01 -5.850264e+00
     vertex  2.346410e+01  3.700000e+01 -5.850264e+00
     vertex  2.200000e+01  3.553590e+01 -5.850264e+00
   endloop
 endfacet
 facet normal  0.000000e+00 -0.000000e+00 -1.000000e+00
   outer loop
     vertex  2.375877e+01  4.036808e+01 -5.850264e+00
     vertex  2.393923e+01  3.830541e+01 -5.850264e+00
     vertex  2.346410e+01  3.700000e+01 -5.850264e+00
   endloop
 endfacet
 facet normal  0.000000e+00  0.000000e+00 -1.000000e+00
   outer loop
     vertex  2.200000e+01  4.246410e+01 -5.850264e+00
     vertex  2.069459e+01  4.293923e+01 -5.850264e+00
     vertex  2.136808e+01  4.275877e+01 -5.850264e+00
   endloop
 endfacet
 facet normal  0.000000e+00  0.000000e+00 -1.000000e+00
   outer loop
     vertex  2.200000e+01  4.246410e+01 -5.850264e+00
     vertex  2.000000e+01  4.300000e+01 -5.850264e+00
     vertex  2.069459e+01  4.293923e+01 -5.850264e+00
   endloop
 endfacet
 facet normal  0.000000e+00  0.000000e+00 -1.000000e+00
   outer loop
     vertex  2.200000e+01  4.246410e+01 -5.850264e+00
     vertex  1.863192e+01  4.275877e+01 -5.850264e+00
     vertex  2.000000e+01  4.300000e+01 -5.850264e+00
   endloop
 endfacet
 facet normal  0.000000e+00  0.000000e+00 -1.000000e+00
   outer loop
     vertex  2.306418e+01  4.157115e+01 -5.850264e+00
     vertex  2.346410e+01  4.100000e+01 -5.850264e+00
     vertex  2.375877e+01  4.036808e+01 -5.850264e+00
   endloop
 endfacet
 facet normal  0.000000e+00  0.000000e+00 -1.000000e+00
   outer loop
     vertex  2.306418e+01  4.157115e+01 -5.850264e+00
     vertex  2.200000e+01  4.246410e+01 -5.850264e+00
     vertex  2.257115e+01  4.206418e+01 -5.850264e+00
   endloop
 endfacet
 facet normal  0.000000e+00  0.000000e+00 -1.000000e+00
   outer loop
     vertex  2.306418e+01  4.157115e+01 -5.850264e+00
     vertex  1.742885e+01  3.593582e+01 -5.850264e+00
     vertex  1.693582e+01  3.642885e+01 -5.850264e+00
   endloop
 endfacet
 facet normal  0.000000e+00  0.000000e+00 -1.000000e+00
   outer loop
     vertex  2.306418e+01  4.157115e+01 -5.850264e+00
     vertex  1.693582e+01  3.642885e+01 -5.850264e+00
     vertex  1.624123e+01  3.763192e+01 -5.850264e+00
   endloop
 endfacet
 facet normal -0.000000e+00  0.000000e+00 -1.000000e+00
   outer loop
     vertex  2.306418e+01  4.157115e+01 -5.850264e+00
     vertex  1.624123e+01  3.763192e+01 -5.850264e+00
     vertex  1.863192e+01  4.275877e+01 -5.850264e+00
   endloop
 endfacet
 facet normal  0.000000e+00  0.000000e+00 -1.000000e+00
   outer loop
     vertex  2.306418e+01  4.157115e+01 -5.850264e+00
     vertex  1.863192e+01  4.275877e+01 -5.850264e+00
     vertex  2.200000e+01  4.246410e+01 -5.850264e+00
   endloop
 endfacet
 facet normal  0.000000e+00 -0.000000e+00 -1.000000e+00
   outer loop
     vertex  2.306418e+01  4.157115e+01 -5.850264e+00
     vertex  2.375877e+01  4.036808e+01 -5.850264e+00
     vertex  1.742885e+01  3.593582e+01 -5.850264e+00
   endloop
 endfacet
endsolid
