solid 
 facet normal -1.000000e+00  0.000000e+00  0.000000e+00
   outer loop
     vertex  1.690000e+01  2.390000e+01  5.150366e+00
     vertex  1.690000e+01  3.010000e+01  1.503659e-01
     vertex  1.690000e+01  2.390000e+01  1.503659e-01
   endloop
 endfacet
 facet normal -1.000000e+00  0.000000e+00  0.000000e+00
   outer loop
     vertex  1.690000e+01  2.390000e+01  5.150366e+00
     vertex  1.690000e+01  3.010000e+01  5.150366e+00
     vertex  1.690000e+01  3.010000e+01  1.503659e-01
   endloop
 endfacet
 facet normal  1.000000e+00  0.000000e+00  0.000000e+00
   outer loop
     vertex  2.310000e+01  2.390000e+01  5.150366e+00
     vertex  2.310000e+01  2.390000e+01  1.503659e-01
     vertex  2.310000e+01  3.010000e+01  1.503659e-01
   endloop
 endfacet
 facet normal  1.000000e+00 -0.000000e+00  0.000000e+00
   outer loop
     vertex  2.310000e+01  2.390000e+01  5.150366e+00
     vertex  2.310000e+01  3.010000e+01  1.503659e-01
     vertex  2.310000e+01  3.010000e+01  5.150366e+00
   endloop
 endfacet
 facet normal  0.000000e+00 -1.000000e+00 -0.000000e+00
   outer loop
     vertex  2.310000e+01  2.390000e+01  5.150366e+00
     vertex  1.690000e+01  2.390000e+01  1.503659e-01
     vertex  2.310000e+01  2.390000e+01  1.503659e-01
   endloop
 endfacet
 facet normal -0.000000e+00 -1.000000e+00  0.000000e+00
   outer loop
     vertex  2.310000e+01  2.390000e+01  5.150366e+00
     vertex  1.690000e+01  2.390000e+01  5.150366e+00
     vertex  1.690000e+01  2.390000e+01  1.503659e-01
   endloop
 endfacet
 facet normal  0.000000e+00  1.000000e+00  0.000000e+00
   outer loop
     vertex  2.310000e+01  3.010000e+01  5.150366e+00
     vertex  2.310000e+01  3.010000e+01  1.503659e-01
     vertex  1.690000e+01  3.010000e+01  1.503659e-01
   endloop
 endfacet
 facet normal  0.000000e+00  1.000000e+00  0.000000e+00
   outer loop
     vertex  2.310000e+01  3.010000e+01  5.150366e+00
     vertex  1.690000e+01  3.010000e+01  1.503659e-01
     vertex  1.690000e+01  3.010000e+01  5.150366e+00
   endloop
 endfacet
 facet normal -0.000000e+00  0.000000e+00 -1.000000e+00
   outer loop
     vertex  2.310000e+01  3.010000e+01  1.503659e-01
     vertex  1.690000e+01  2.390000e+01  1.503659e-01
     vertex  1.690000e+01  3.010000e+01  1.503659e-01
   endloop
 endfacet
 facet normal  0.000000e+00 -0.000000e+00 -1.000000e+00
   outer loop
     vertex  2.310000e+01  3.010000e+01  1.503659e-01
     vertex  2.310000e+01  2.390000e+01  1.503659e-01
     vertex  1.690000e+01  2.390000e+01  1.503659e-01
   endloop
 endfacet
 facet normal  0.000000e+00  0.000000e+00  1.000000e+00
   outer loop
     vertex  2.310000e+01  3.010000e+01  5.150366e+00
     vertex  1.690000e+01  3.010000e+01  5.150366e+00
     vertex  1.690000e+01  2.390000e+01  5.150366e+00
   endloop
 endfacet
 facet normal  0.000000e+00  0.000000e+00  1.000000e+00
   outer loop
     vertex  2.310000e+01  3.010000e+01  5.150366e+00
     vertex  1.690000e+01  2.390000e+01  5.150366e+00
     vertex  2.310000e+01  2.390000e+01  5.150366e+00
   endloop
 endfacet
 facet normal -1.000000e+00  0.000000e+00  0.000000e+00
   outer loop
     vertex  1.690000e+01  3.590000e+01  5.150366e+00
     vertex  1.690000e+01  4.210000e+01  1.503659e-01
     vertex  1.690000e+01  3.590000e+01  1.503659e-01
   endloop
 endfacet
 facet normal -1.000000e+00  0.000000e+00  0.000000e+00
   outer loop
     vertex  1.690000e+01  3.590000e+01  5.150366e+00
     vertex  1.690000e+01  4.210000e+01  5.150366e+00
     vertex  1.690000e+01  4.210000e+01  1.503659e-01
   endloop
 endfacet
 facet normal  1.000000e+00  0.000000e+00  0.000000e+00
   outer loop
     vertex  2.310000e+01  3.590000e+01  5.150366e+00
     vertex  2.310000e+01  3.590000e+01  1.503659e-01
     vertex  2.310000e+01  4.210000e+01  1.503659e-01
   endloop
 endfacet
 facet normal  1.000000e+00 -0.000000e+00  0.000000e+00
   outer loop
     vertex  2.310000e+01  3.590000e+01  5.150366e+00
     vertex  2.310000e+01  4.210000e+01  1.503659e-01
     vertex  2.310000e+01  4.210000e+01  5.150366e+00
   endloop
 endfacet
 facet normal  0.000000e+00 -1.000000e+00 -0.000000e+00
   outer loop
     vertex  2.310000e+01  3.590000e+01  5.150366e+00
     vertex  1.690000e+01  3.590000e+01  1.503659e-01
     vertex  2.310000e+01  3.590000e+01  1.503659e-01
   endloop
 endfacet
 facet normal -0.000000e+00 -1.000000e+00  0.000000e+00
   outer loop
     vertex  2.310000e+01  3.590000e+01  5.150366e+00
     vertex  1.690000e+01  3.590000e+01  5.150366e+00
     vertex  1.690000e+01  3.590000e+01  1.503659e-01
   endloop
 endfacet
 facet normal  0.000000e+00  1.000000e+00  0.000000e+00
   outer loop
     vertex  2.310000e+01  4.210000e+01  5.150366e+00
     vertex  2.310000e+01  4.210000e+01  1.503659e-01
     vertex  1.690000e+01  4.210000e+01  1.503659e-01
   endloop
 endfacet
 facet normal  0.000000e+00  1.000000e+00  0.000000e+00
   outer loop
     vertex  2.310000e+01  4.210000e+01  5.150366e+00
     vertex  1.690000e+01  4.210000e+01  1.503659e-01
     vertex  1.690000e+01  4.210000e+01  5.150366e+00
   endloop
 endfacet
 facet normal -0.000000e+00  0.000000e+00 -1.000000e+00
   outer loop
     vertex  2.310000e+01  4.210000e+01  1.503659e-01
     vertex  1.690000e+01  3.590000e+01  1.503659e-01
     vertex  1.690000e+01  4.210000e+01  1.503659e-01
   endloop
 endfacet
 facet normal  0.000000e+00 -0.000000e+00 -1.000000e+00
   outer loop
     vertex  2.310000e+01  4.210000e+01  1.503659e-01
     vertex  2.310000e+01  3.590000e+01  1.503659e-01
     vertex  1.690000e+01  3.590000e+01  1.503659e-01
   endloop
 endfacet
 facet normal  0.000000e+00  0.000000e+00  1.000000e+00
   outer loop
     vertex  2.310000e+01  4.210000e+01  5.150366e+00
     vertex  1.690000e+01  4.210000e+01  5.150366e+00
     vertex  1.690000e+01  3.590000e+01  5.150366e+00
   endloop
 endfacet
 facet normal  0.000000e+00  0.000000e+00  1.000000e+00
   outer loop
     vertex  2.310000e+01  4.210000e+01  5.150366e+00
     vertex  1.690000e+01  3.590000e+01  5.150366e+00
     vertex  2.310000e+01  3.590000e+01  5.150366e+00
   endloop
 endfacet
 facet normal -1.000000e+00  0.000000e+00  0.000000e+00
   outer loop
     vertex  1.047500e+02  2.325000e+01  7.150366e+00
     vertex  1.047500e+02  3.675000e+01  1.503659e-01
     vertex  1.047500e+02  2.325000e+01  1.503659e-01
   endloop
 endfacet
 facet normal -1.000000e+00  0.000000e+00  0.000000e+00
   outer loop
     vertex  1.047500e+02  2.325000e+01  7.150366e+00
     vertex  1.047500e+02  3.675000e+01  7.150366e+00
     vertex  1.047500e+02  3.675000e+01  1.503659e-01
   endloop
 endfacet
 facet normal  1.000000e+00  0.000000e+00  0.000000e+00
   outer loop
     vertex  1.172500e+02  2.325000e+01  7.150366e+00
     vertex  1.172500e+02  2.325000e+01  1.503659e-01
     vertex  1.172500e+02  3.675000e+01  1.503659e-01
   endloop
 endfacet
 facet normal  1.000000e+00 -0.000000e+00  0.000000e+00
   outer loop
     vertex  1.172500e+02  2.325000e+01  7.150366e+00
     vertex  1.172500e+02  3.675000e+01  1.503659e-01
     vertex  1.172500e+02  3.675000e+01  7.150366e+00
   endloop
 endfacet
 facet normal  0.000000e+00 -1.000000e+00 -0.000000e+00
   outer loop
     vertex  1.172500e+02  2.325000e+01  7.150366e+00
     vertex  1.047500e+02  2.325000e+01  1.503659e-01
     vertex  1.172500e+02  2.325000e+01  1.503659e-01
   endloop
 endfacet
 facet normal -0.000000e+00 -1.000000e+00  0.000000e+00
   outer loop
     vertex  1.172500e+02  2.325000e+01  7.150366e+00
     vertex  1.047500e+02  2.325000e+01  7.150366e+00
     vertex  1.047500e+02  2.325000e+01  1.503659e-01
   endloop
 endfacet
 facet normal  0.000000e+00  1.000000e+00  0.000000e+00
   outer loop
     vertex  1.172500e+02  3.675000e+01  7.150366e+00
     vertex  1.172500e+02  3.675000e+01  1.503659e-01
     vertex  1.047500e+02  3.675000e+01  1.503659e-01
   endloop
 endfacet
 facet normal  0.000000e+00  1.000000e+00  0.000000e+00
   outer loop
     vertex  1.172500e+02  3.675000e+01  7.150366e+00
     vertex  1.047500e+02  3.675000e+01  1.503659e-01
     vertex  1.047500e+02  3.675000e+01  7.150366e+00
   endloop
 endfacet
 facet normal  0.000000e+00  0.000000e+00 -1.000000e+00
   outer loop
     vertex  1.047500e+02  3.675000e+01  1.503659e-01
     vertex  1.172500e+02  2.325000e+01  1.503659e-01
     vertex  1.047500e+02  2.325000e+01  1.503659e-01
   endloop
 endfacet
 facet normal -0.000000e+00 -0.000000e+00 -1.000000e+00
   outer loop
     vertex  1.172500e+02  3.675000e+01  1.503659e-01
     vertex  1.172500e+02  2.325000e+01  1.503659e-01
     vertex  1.047500e+02  3.675000e+01  1.503659e-01
   endloop
 endfacet
 facet normal  0.000000e+00  0.000000e+00  1.000000e+00
   outer loop
     vertex  1.047500e+02  3.675000e+01  7.150366e+00
     vertex  1.047500e+02  2.325000e+01  7.150366e+00
     vertex  1.172500e+02  2.325000e+01  7.150366e+00
   endloop
 endfacet
 facet normal  0.000000e+00  0.000000e+00  1.000000e+00
   outer loop
     vertex  1.172500e+02  3.675000e+01  7.150366e+00
     vertex  1.047500e+02  3.675000e+01  7.150366e+00
     vertex  1.172500e+02  2.325000e+01  7.150366e+00
   endloop
 endfacet
endsolid
