%TF.GenerationSoftware,KiCad,Pcbnew,10.0.4*%
%TF.CreationDate,2026-07-21T14:27:05+08:00*%
%TF.ProjectId,cadenza-d1-rev-a-production,63616465-6e7a-4612-9d64-312d7265762d,rev?*%
%TF.SameCoordinates,Original*%
%TF.FileFunction,Copper,L3,Inr*%
%TF.FilePolarity,Positive*%
%FSLAX46Y46*%
G04 Gerber Fmt 4.6, Leading zero omitted, Abs format (unit mm)*
G04 Created by KiCad (PCBNEW 10.0.4) date 2026-07-21 14:27:05*
%MOMM*%
%LPD*%
G01*
G04 APERTURE LIST*
%TA.AperFunction,ComponentPad*%
%ADD10O,1.000000X2.100000*%
%TD*%
%TA.AperFunction,ComponentPad*%
%ADD11O,1.000000X1.600000*%
%TD*%
%TA.AperFunction,HeatsinkPad*%
%ADD12C,0.600000*%
%TD*%
%TA.AperFunction,HeatsinkPad*%
%ADD13C,0.500000*%
%TD*%
%TA.AperFunction,ViaPad*%
%ADD14C,0.600000*%
%TD*%
%TA.AperFunction,ViaPad*%
%ADD15C,0.500000*%
%TD*%
%TA.AperFunction,Conductor*%
%ADD16C,0.200000*%
%TD*%
%TA.AperFunction,Conductor*%
%ADD17C,0.500000*%
%TD*%
%TA.AperFunction,Conductor*%
%ADD18C,1.200000*%
%TD*%
G04 APERTURE END LIST*
D10*
%TO.N,N/C*%
%TO.C,J1*%
X103680000Y-107895000D03*
D11*
X103680000Y-112075000D03*
D10*
X112320000Y-107895000D03*
D11*
X112320000Y-112075000D03*
%TD*%
D12*
%TO.N,/GND*%
%TO.C,U1*%
X148100000Y-75760000D03*
X148100000Y-77160000D03*
X148800000Y-75060000D03*
X148800000Y-76460000D03*
X148800000Y-77860000D03*
X149500000Y-75760000D03*
X149500000Y-77160000D03*
X150200000Y-75060000D03*
X150200000Y-76460000D03*
X150200000Y-77860000D03*
X150900000Y-75760000D03*
X150900000Y-77160000D03*
%TD*%
D13*
%TO.N,/GND*%
%TO.C,U2*%
X142410000Y-102410000D03*
X142410000Y-103590000D03*
X143590000Y-102410000D03*
X143590000Y-103590000D03*
%TD*%
%TO.N,/GND*%
%TO.C,U7*%
X127025000Y-106000000D03*
X128000000Y-105275000D03*
X128000000Y-106000000D03*
X128000000Y-106725000D03*
X128975000Y-106000000D03*
%TD*%
%TO.N,/GND*%
%TO.C,U5*%
X63635000Y-93635000D03*
X63635000Y-94365000D03*
X64365000Y-93635000D03*
X64365000Y-94365000D03*
%TD*%
D14*
%TO.N,/RUN_EN*%
X122091100Y-91365100D03*
D15*
%TO.N,/GND*%
X139500000Y-102500000D03*
X111500000Y-106500000D03*
X111500000Y-103000000D03*
X85000000Y-69500000D03*
X139250000Y-98500000D03*
X135650000Y-80650000D03*
X139500000Y-68500000D03*
X129750000Y-82750000D03*
X133500000Y-101000000D03*
X138000000Y-88500000D03*
D14*
%TO.N,/LCD_SCLK*%
X125406400Y-57635300D03*
X150365000Y-85280400D03*
%TO.N,/LCD_SI*%
X122819800Y-55563200D03*
X147600700Y-84765600D03*
%TO.N,/LCD_SCS*%
X143088000Y-87360400D03*
X107437200Y-53727500D03*
%TO.N,/LCD_EXTCOMIN*%
X128246900Y-50804000D03*
X152905000Y-85294800D03*
%TO.N,/LCD_DISP*%
X122897800Y-51413900D03*
X151525600Y-85271300D03*
%TO.N,/+5V_LCD*%
X132036600Y-83249100D03*
X108669900Y-54860600D03*
X113950400Y-59038800D03*
%TO.N,/LCD_EXTMODE*%
X125877300Y-77499100D03*
X109403000Y-54281200D03*
%TO.N,/SD_CS*%
X148600400Y-94571100D03*
X156522100Y-80170000D03*
%TO.N,/SD_CMD*%
X157976500Y-91465800D03*
X152089000Y-97686700D03*
%TO.N,/+3V3_MAIN*%
X113959300Y-98000000D03*
X149986300Y-98430500D03*
X157794400Y-82016600D03*
X141204600Y-106106900D03*
X137102800Y-107058100D03*
X119225000Y-102963200D03*
X125567000Y-71812300D03*
X131860700Y-95156200D03*
X60058700Y-58216300D03*
X127901300Y-89081100D03*
%TO.N,/SD_CLK*%
X157092600Y-82710000D03*
X149375000Y-95214400D03*
%TO.N,/SD_DAT0*%
X157038600Y-81440000D03*
X148882700Y-93072600D03*
%TO.N,/SD_CD*%
X146819900Y-89209200D03*
%TO.N,/B_SW*%
X154939600Y-85170200D03*
%TO.N,/VBUS*%
X141493600Y-98916200D03*
X137300400Y-104477600D03*
X114216300Y-104143400D03*
%TO.N,/CC1*%
X99954100Y-101438600D03*
%TO.N,/USB_D+_CONN*%
X108025800Y-106017200D03*
%TO.N,/USB_D-_CONN*%
X107217700Y-105892800D03*
%TO.N,/CC2*%
X108785400Y-108584900D03*
%TO.N,/PDM_DATA_RAW*%
X56873900Y-56267700D03*
%TO.N,/PDM_CLK*%
X144566100Y-78900000D03*
X117227800Y-59824300D03*
%TO.N,/ENC_A*%
X152715000Y-75371000D03*
%TO.N,/ENC_B*%
X161190400Y-81228400D03*
X150019600Y-73078200D03*
%TO.N,/A_SW*%
X144268900Y-74894800D03*
%TO.N,/LED_CTRL*%
X161811600Y-77621400D03*
%TO.N,/MENU_SW*%
X154890800Y-83458900D03*
%TO.N,/USB_D+*%
X134388400Y-85250000D03*
X125832400Y-103663500D03*
%TO.N,/USB_D-*%
X139076700Y-83980000D03*
X120063500Y-99683900D03*
%TO.N,/+5V_MEDIA*%
X73360700Y-98877500D03*
X117891000Y-65948600D03*
X127097700Y-81205900D03*
X130273699Y-78804900D03*
X105804700Y-64359800D03*
X130773200Y-84960400D03*
X127097700Y-78804900D03*
%TO.N,/ITERM_SET*%
X136891400Y-105653000D03*
X140585700Y-98803800D03*
%TO.N,/I2C_SCL*%
X136352400Y-81227800D03*
X125336400Y-106831600D03*
X119191600Y-99496100D03*
%TO.N,/BOOT_N*%
X96050000Y-104247600D03*
X159393300Y-86155500D03*
%TO.N,/BAT_TS*%
X140800000Y-102250000D03*
X135000000Y-102250000D03*
%TO.N,/ESP_EN*%
X93724200Y-100771000D03*
X93921300Y-97667500D03*
X95137500Y-73868600D03*
%TO.N,/CHG_N*%
X143468900Y-81084100D03*
X145001600Y-104451200D03*
X142925500Y-106874900D03*
%TO.N,/I2C_SDA*%
X124945700Y-108535700D03*
X125880400Y-104431600D03*
X106456600Y-98944400D03*
X138401400Y-84499000D03*
%TO.N,/GAUGE_INT_N*%
X153844200Y-85277500D03*
X134050099Y-107952700D03*
X128647600Y-107703200D03*
%TO.N,/I2S_LRCLK*%
X157803500Y-77770800D03*
X128873799Y-79741400D03*
%TO.N,/AMP_EN*%
X62562500Y-95363200D03*
X152100800Y-83838800D03*
X68275600Y-90198100D03*
X152342300Y-77138700D03*
%TO.N,/UART_RX0*%
X152456300Y-73647400D03*
X140333000Y-74592100D03*
%TO.N,/UART_TX0*%
X137901400Y-72375500D03*
X152980100Y-71975200D03*
%TO.N,/PGOOD_N*%
X158545000Y-69331900D03*
X146176600Y-104552000D03*
%TO.N,/VSYS*%
X114257000Y-69923100D03*
X125465800Y-89240400D03*
X141724600Y-105275400D03*
X121988600Y-94253200D03*
X126232800Y-86732700D03*
X142857200Y-97764400D03*
%TO.N,/PG_3V3_N*%
X133389299Y-88416300D03*
X114970500Y-70887200D03*
D15*
X127600000Y-92300000D03*
D14*
X127196400Y-87980600D03*
%TO.N,/VBAT*%
X126577500Y-111518800D03*
X96313000Y-66313000D03*
X117441700Y-106790000D03*
%TO.N,/PACKP*%
X100000000Y-111000000D03*
X93000000Y-65949700D03*
%TO.N,/GAUGE_BIN*%
X116302100Y-107952700D03*
X130674299Y-106326900D03*
%TO.N,/+5V_AUDIO*%
X65048300Y-96911000D03*
X68275600Y-95923600D03*
%TO.N,/SPK-*%
X63746100Y-103392000D03*
X66631400Y-94250000D03*
%TO.N,/GAUGE_VDD*%
X124800000Y-106200000D03*
X122500000Y-109500000D03*
%TO.N,/ILIM_SET*%
X134647500Y-99046000D03*
X144908600Y-101631800D03*
%TO.N,/TMR_SET*%
X133681600Y-97839900D03*
X143116600Y-99954100D03*
%TO.N,/GND*%
X114350000Y-101000000D03*
%TD*%
%TO.N,/LCD_SCLK*%
D16*
X125406400Y-57635300D02*
X150365000Y-82593900D01*
X150365000Y-82593900D02*
X150365000Y-85280400D01*
%TO.N,/LCD_SI*%
X122819800Y-55563200D02*
X122819800Y-55828800D01*
X147600700Y-80609700D02*
X147600700Y-84765600D01*
X122819800Y-55828800D02*
X147600700Y-80609700D01*
%TO.N,/LCD_SCS*%
X109775000Y-53727500D02*
X143088000Y-87040500D01*
X143088000Y-87040500D02*
X143088000Y-87360400D01*
X107437200Y-53727500D02*
X109775000Y-53727500D01*
%TO.N,/LCD_EXTCOMIN*%
X152905000Y-76899900D02*
X152905000Y-85294800D01*
X128246900Y-50804000D02*
X128246900Y-54169000D01*
X145749200Y-71671300D02*
X147676400Y-71671300D01*
X128246900Y-54169000D02*
X145749200Y-71671300D01*
X147676400Y-71671300D02*
X152905000Y-76899900D01*
%TO.N,/LCD_DISP*%
X151525600Y-85271300D02*
X151525600Y-82974300D01*
X151525600Y-82974300D02*
X122897800Y-54346500D01*
X122897800Y-54346500D02*
X122897800Y-51413900D01*
%TO.N,/+5V_LCD*%
D17*
X132036600Y-83249100D02*
X132036600Y-77125000D01*
X132036600Y-77125000D02*
X113950400Y-59038800D01*
%TO.N,/LCD_EXTMODE*%
D16*
X125877300Y-77499100D02*
X109403000Y-61024800D01*
X109403000Y-61024800D02*
X109403000Y-54281200D01*
%TO.N,/SD_CS*%
X148320700Y-94291400D02*
X148320700Y-92729300D01*
X148320700Y-92729300D02*
X155635900Y-85414100D01*
X148600400Y-94571100D02*
X148320700Y-94291400D01*
X155635900Y-81056200D02*
X156522100Y-80170000D01*
X155635900Y-85414100D02*
X155635900Y-81056200D01*
%TO.N,/SD_CMD*%
X157976500Y-91799200D02*
X157976500Y-91465800D01*
X152089000Y-97686700D02*
X157976500Y-91799200D01*
%TO.N,/+3V3_MAIN*%
D17*
X118456200Y-102194400D02*
X119225000Y-102963200D01*
X127901200Y-74146500D02*
X125567000Y-71812300D01*
X136175000Y-106130300D02*
X136175000Y-99335500D01*
X137102800Y-107058100D02*
X136175000Y-106130300D01*
X140253400Y-107058100D02*
X137102800Y-107058100D01*
X149986300Y-98430500D02*
X157794400Y-90622400D01*
X127901200Y-89081100D02*
X127901200Y-74146500D01*
X127901200Y-89081100D02*
X127901200Y-89333000D01*
X118456200Y-98000000D02*
X118456200Y-102194400D01*
X119234200Y-98000000D02*
X118456200Y-98000000D01*
X113959300Y-98000000D02*
X118456200Y-98000000D01*
X141204600Y-106106900D02*
X140253400Y-107058100D01*
X127901200Y-89333000D02*
X119234200Y-98000000D01*
X136175000Y-99335500D02*
X131995700Y-95156200D01*
X157794400Y-90622400D02*
X157794400Y-82016600D01*
X131995700Y-95156200D02*
X131860700Y-95156200D01*
%TO.N,/SD_CLK*%
D16*
X157092600Y-87496800D02*
X149375000Y-95214400D01*
X157092600Y-82710000D02*
X157092600Y-87496800D01*
%TO.N,/SD_DAT0*%
X155993200Y-82485400D02*
X157038600Y-81440000D01*
X155993200Y-85962100D02*
X155993200Y-82485400D01*
X148882700Y-93072600D02*
X155993200Y-85962100D01*
%TO.N,/VBUS*%
D17*
X141493600Y-98916200D02*
X137300400Y-103109400D01*
X137300400Y-103109400D02*
X137300400Y-104477600D01*
%TO.N,/PDM_CLK*%
D16*
X117227800Y-59824300D02*
X136303500Y-78900000D01*
X136303500Y-78900000D02*
X144566100Y-78900000D01*
%TO.N,/ENC_B*%
X154350100Y-68747700D02*
X150019600Y-73078200D01*
X161190400Y-81228400D02*
X161190400Y-71132900D01*
X161190400Y-71132900D02*
X158805200Y-68747700D01*
X158805200Y-68747700D02*
X154350100Y-68747700D01*
%TO.N,/USB_D+*%
X125832400Y-94992100D02*
X134388300Y-86436200D01*
X125832400Y-103663500D02*
X125832400Y-94992100D01*
X134388300Y-86436200D02*
X134388300Y-85250000D01*
%TO.N,/USB_D-*%
X129767800Y-88690200D02*
X129767800Y-87950200D01*
X134018300Y-83947300D02*
X139044000Y-83947300D01*
X120063500Y-98394500D02*
X129767800Y-88690200D01*
X131806700Y-85911300D02*
X132054300Y-85911300D01*
X129767800Y-87950200D02*
X131806700Y-85911300D01*
X120063500Y-99683900D02*
X120063500Y-98394500D01*
X132054300Y-85911300D02*
X134018300Y-83947300D01*
X139044000Y-83947300D02*
X139076700Y-83980000D01*
%TO.N,/+5V_MEDIA*%
D17*
X73360700Y-84528100D02*
X73360700Y-98877500D01*
X130537299Y-79068400D02*
X130537299Y-84724500D01*
X93529000Y-64359800D02*
X73360700Y-84528100D01*
X127097700Y-78804900D02*
X127097700Y-81205900D01*
X127097700Y-75155300D02*
X127097700Y-78804900D01*
X130273699Y-78804900D02*
X130537200Y-79068400D01*
X105804700Y-64359800D02*
X93529000Y-64359800D01*
X117891000Y-65948600D02*
X127097700Y-75155300D01*
X130537299Y-84724500D02*
X130773200Y-84960400D01*
%TO.N,/ITERM_SET*%
D16*
X136748300Y-102641200D02*
X140585700Y-98803800D01*
X136891400Y-105653000D02*
X136748300Y-105509900D01*
X136748300Y-105509900D02*
X136748300Y-102641200D01*
%TO.N,/I2C_SCL*%
X119191600Y-99616000D02*
X125409800Y-105834200D01*
X119191600Y-98765500D02*
X119191600Y-99496100D01*
X129065900Y-88154700D02*
X129065900Y-88891200D01*
X131784900Y-85435700D02*
X129065900Y-88154700D01*
X125409800Y-105834200D02*
X125409800Y-106758200D01*
X119191600Y-99496100D02*
X119191600Y-99616000D01*
X129065900Y-88891200D02*
X119191600Y-98765500D01*
X125409800Y-106758200D02*
X125336400Y-106831600D01*
X132032600Y-85435700D02*
X131784900Y-85435700D01*
X136240500Y-81227800D02*
X132032600Y-85435700D01*
X136352400Y-81227800D02*
X136240500Y-81227800D01*
%TO.N,/BOOT_N*%
X101876100Y-110073700D02*
X142162100Y-110073700D01*
X142162100Y-110073700D02*
X159393300Y-92842500D01*
X96050000Y-104247600D02*
X101876100Y-110073700D01*
X159393300Y-92842500D02*
X159393300Y-86155500D01*
%TO.N,/ESP_EN*%
X95137500Y-73868600D02*
X95137500Y-96451300D01*
X93921300Y-100573900D02*
X93724200Y-100771000D01*
X95137500Y-96451300D02*
X93921300Y-97667500D01*
X93921300Y-97667500D02*
X93921300Y-100573900D01*
%TO.N,/CHG_N*%
X143018300Y-106428800D02*
X142925500Y-106521600D01*
X145064400Y-106126100D02*
X144761700Y-106428800D01*
X142925500Y-106521600D02*
X142925500Y-106874900D01*
X144761700Y-106428800D02*
X143018300Y-106428800D01*
X143668300Y-81283500D02*
X143468900Y-81084100D01*
X143018300Y-106428800D02*
X143018300Y-100832600D01*
X145001600Y-104451200D02*
X145064400Y-104514000D01*
X145064400Y-104514000D02*
X145064400Y-106126100D01*
X143018300Y-100832600D02*
X143668300Y-100182600D01*
X143668300Y-100182600D02*
X143668300Y-81283500D01*
%TO.N,/I2C_SDA*%
X131071900Y-91828500D02*
X138401400Y-84499000D01*
X131071900Y-99240100D02*
X131071900Y-91828500D01*
X116047900Y-108535700D02*
X124945700Y-108535700D01*
X106456600Y-98944400D02*
X116047900Y-108535700D01*
X125880400Y-104431600D02*
X131071900Y-99240100D01*
%TO.N,/GAUGE_INT_N*%
X133925300Y-107703200D02*
X134050099Y-107828000D01*
X128647600Y-107703200D02*
X133925300Y-107703200D01*
X145624800Y-93496900D02*
X153844200Y-85277500D01*
X145624800Y-105418600D02*
X145624800Y-93496900D01*
X145801400Y-105595200D02*
X145624800Y-105418600D01*
X134050099Y-107828000D02*
X143362500Y-107828000D01*
X145801400Y-105886400D02*
X145801400Y-105595200D01*
X143362500Y-107828000D02*
X144228300Y-106962200D01*
X134050099Y-107828000D02*
X134050099Y-107952700D01*
X144228300Y-106962200D02*
X144725600Y-106962200D01*
X144725600Y-106962200D02*
X145801400Y-105886400D01*
%TO.N,/AMP_EN*%
X152342300Y-83597300D02*
X152342300Y-77138700D01*
X64104400Y-95363200D02*
X62562500Y-95363200D01*
X68275600Y-90198100D02*
X68275600Y-91192000D01*
X152100800Y-83838800D02*
X152342300Y-83597300D01*
X68275600Y-91192000D02*
X64104400Y-95363200D01*
%TO.N,/PGOOD_N*%
X158544900Y-69331900D02*
X158544900Y-92183700D01*
X158544900Y-92183700D02*
X146176600Y-104552000D01*
%TO.N,/VSYS*%
D17*
X125465800Y-89240400D02*
X121988600Y-92717600D01*
X114257000Y-69923100D02*
X114257000Y-74756900D01*
X142857200Y-98883900D02*
X142857200Y-97764400D01*
X141724600Y-100016500D02*
X142857200Y-98883900D01*
X121988600Y-92717600D02*
X121988600Y-94253200D01*
X114257000Y-74756900D02*
X126232800Y-86732700D01*
X141724600Y-105275400D02*
X141724600Y-100016500D01*
X125465800Y-87499700D02*
X125465800Y-89240400D01*
X126232800Y-86732700D02*
X125465800Y-87499700D01*
%TO.N,/PG_3V3_N*%
D16*
X127196400Y-87980600D02*
X127196400Y-83113100D01*
X127196400Y-83113100D02*
X114970500Y-70887200D01*
%TO.N,/VBAT*%
D18*
X96313000Y-66313000D02*
X96282500Y-66343500D01*
X96282500Y-83483700D02*
X112000000Y-99200000D01*
X112000000Y-99200000D02*
X115500000Y-99200000D01*
X115500000Y-99200000D02*
X117441700Y-104642900D01*
X117441700Y-104642900D02*
X117441700Y-106790000D01*
X96282500Y-66343500D02*
X96282500Y-83483700D01*
%TO.N,/PACKP*%
D17*
X93000000Y-65949700D02*
X93000000Y-104000000D01*
X93000000Y-104000000D02*
X100000000Y-111000000D01*
%TO.N,/GAUGE_BIN*%
D16*
X130462799Y-106538400D02*
X130674299Y-106326900D01*
X127617300Y-107952700D02*
X129031600Y-106538400D01*
X116302100Y-107952700D02*
X127617300Y-107952700D01*
X129031600Y-106538400D02*
X130462799Y-106538400D01*
%TO.N,/SPK-*%
D17*
X66631400Y-100506700D02*
X66631400Y-94250000D01*
X63746100Y-103392000D02*
X66631400Y-100506700D01*
%TD*%
M02*
