%TF.GenerationSoftware,KiCad,Pcbnew,10.0.4*%
%TF.CreationDate,2026-07-21T14:27:05+08:00*%
%TF.ProjectId,cadenza-d1-rev-a-production,63616465-6e7a-4612-9d64-312d7265762d,rev?*%
%TF.SameCoordinates,Original*%
%TF.FileFunction,Legend,Top*%
%TF.FilePolarity,Positive*%
%FSLAX46Y46*%
G04 Gerber Fmt 4.6, Leading zero omitted, Abs format (unit mm)*
G04 Created by KiCad (PCBNEW 10.0.4) date 2026-07-21 14:27:05*
%MOMM*%
%LPD*%
G01*
G04 APERTURE LIST*
G04 Aperture macros list*
%AMRoundRect*
0 Rectangle with rounded corners*
0 $1 Rounding radius*
0 $2 $3 $4 $5 $6 $7 $8 $9 X,Y pos of 4 corners*
0 Add a 4 corners polygon primitive as box body*
4,1,4,$2,$3,$4,$5,$6,$7,$8,$9,$2,$3,0*
0 Add four circle primitives for the rounded corners*
1,1,$1+$1,$2,$3*
1,1,$1+$1,$4,$5*
1,1,$1+$1,$6,$7*
1,1,$1+$1,$8,$9*
0 Add four rect primitives between the rounded corners*
20,1,$1+$1,$2,$3,$4,$5,0*
20,1,$1+$1,$4,$5,$6,$7,0*
20,1,$1+$1,$6,$7,$8,$9,0*
20,1,$1+$1,$8,$9,$2,$3,0*%
G04 Aperture macros list end*
%ADD10C,0.120000*%
%ADD11C,0.900000*%
%ADD12RoundRect,0.250000X-0.375000X-1.000000X0.375000X-1.000000X0.375000X1.000000X-0.375000X1.000000X0*%
%ADD13C,2.200000*%
%ADD14RoundRect,0.060000X-0.090000X-0.440000X0.090000X-0.440000X0.090000X0.440000X-0.090000X0.440000X0*%
%ADD15R,0.800000X1.300000*%
%ADD16R,0.700000X1.200000*%
%ADD17R,1.000000X0.800000*%
%ADD18R,1.000000X1.200000*%
%ADD19R,1.000000X2.800000*%
%ADD20R,1.300000X1.900000*%
%ADD21C,2.000000*%
%ADD22R,0.900000X1.000000*%
%ADD23C,0.650000*%
%ADD24RoundRect,0.137500X-0.137500X-0.437500X0.137500X-0.437500X0.137500X0.437500X-0.137500X0.437500X0*%
%ADD25RoundRect,0.150000X-0.150000X-0.500000X0.150000X-0.500000X0.150000X0.500000X-0.150000X0.500000X0*%
%ADD26RoundRect,0.075000X-0.075000X-0.575000X0.075000X-0.575000X0.075000X0.575000X-0.075000X0.575000X0*%
%ADD27O,1.000000X2.100000*%
%ADD28O,1.000000X1.600000*%
%ADD29C,0.800000*%
%ADD30RoundRect,0.140000X-0.285000X-0.210000X0.285000X-0.210000X0.285000X0.210000X-0.285000X0.210000X0*%
%ADD31RoundRect,0.150000X-0.150000X-0.625000X0.150000X-0.625000X0.150000X0.625000X-0.150000X0.625000X0*%
%ADD32RoundRect,0.250000X-0.350000X-0.650000X0.350000X-0.650000X0.350000X0.650000X-0.350000X0.650000X0*%
G04 APERTURE END LIST*
%TO.C,J3*%
D10*
X144025000Y-96115000D02*
X144025000Y-99725000D01*
X144025000Y-101425000D02*
X144025000Y-106125000D01*
X144025000Y-107425000D02*
X144025000Y-109225000D01*
X144475000Y-96115000D02*
X144025000Y-96115000D01*
X145055000Y-112385000D02*
X144855000Y-112185000D01*
X145055000Y-112385000D02*
X146915000Y-112385000D01*
X146915000Y-112385000D02*
X147125000Y-112185000D01*
X147125000Y-112035000D02*
X147125000Y-112185000D01*
X147125000Y-112035000D02*
X153495000Y-112035000D01*
X154005000Y-112385000D02*
X153495000Y-112035000D01*
X156075000Y-96115000D02*
X157995000Y-96115000D01*
X156315000Y-112385000D02*
X154005000Y-112385000D01*
X156315000Y-112385000D02*
X156515000Y-112185000D01*
X156515000Y-112185000D02*
X156775000Y-112185000D01*
X157995000Y-96115000D02*
X157995000Y-110125000D01*
%TO.C,SW2*%
X57800000Y-76050000D02*
X57800000Y-75950000D01*
X57800000Y-77550000D02*
X62200000Y-77550000D01*
X62200000Y-74450000D02*
X57800000Y-74450000D01*
X62200000Y-76050000D02*
X62200000Y-75950000D01*
%TO.C,J1*%
X103300000Y-109220000D02*
X103300000Y-111000000D01*
X105200000Y-106300000D02*
X104400000Y-106300000D01*
X112700000Y-109220000D02*
X112700000Y-111000000D01*
%TO.C,J6*%
X155890000Y-80215000D02*
X156940000Y-80215000D01*
X155890000Y-82715000D02*
X155890000Y-80215000D01*
X156940000Y-80215000D02*
X156940000Y-79225000D01*
X157060000Y-84685000D02*
X162940000Y-84685000D01*
X164110000Y-80215000D02*
X163060000Y-80215000D01*
X164110000Y-82715000D02*
X164110000Y-80215000D01*
%TO.C,SW3*%
X57800000Y-66050000D02*
X57800000Y-65950000D01*
X57800000Y-67550000D02*
X62200000Y-67550000D01*
X62200000Y-64450000D02*
X57800000Y-64450000D01*
X62200000Y-66050000D02*
X62200000Y-65950000D01*
%TD*%
%LPC*%
D11*
%TO.C,SW1*%
X50600000Y-92000000D03*
X57400000Y-92000000D03*
D12*
X51500000Y-89250000D03*
X54000000Y-89250000D03*
X56500000Y-89250000D03*
%TD*%
D13*
%TO.C,H4*%
X161000000Y-109000000D03*
%TD*%
D14*
%TO.C,J2*%
X105750000Y-52750000D03*
X106250000Y-52750000D03*
X106750000Y-52750000D03*
X107250000Y-52750000D03*
X107750000Y-52750000D03*
X108250000Y-52750000D03*
X108750000Y-52750000D03*
X109250000Y-52750000D03*
X109750000Y-52750000D03*
X110250000Y-52750000D03*
D15*
X104700000Y-54650000D03*
X111300000Y-54650000D03*
%TD*%
D16*
%TO.C,J3*%
X153775000Y-96275000D03*
X152675000Y-96275000D03*
X151575000Y-96275000D03*
X150475000Y-96275000D03*
X149375000Y-96275000D03*
X148275000Y-96275000D03*
X147175000Y-96275000D03*
X146075000Y-96275000D03*
X145125000Y-96275000D03*
D17*
X144175000Y-106775000D03*
D18*
X144175000Y-100575000D03*
D19*
X144175000Y-110925000D03*
D18*
X155325000Y-96275000D03*
D20*
X157675000Y-111375000D03*
%TD*%
D21*
%TO.C,FID3*%
X112000000Y-118000000D03*
%TD*%
%TO.C,FID1*%
X68000000Y-68000000D03*
%TD*%
D13*
%TO.C,H3*%
X55000000Y-109000000D03*
%TD*%
D22*
%TO.C,SW2*%
X57950000Y-75200000D03*
X62050000Y-75200000D03*
X57950000Y-76800000D03*
X62050000Y-76800000D03*
%TD*%
D23*
%TO.C,J1*%
X105110000Y-108395000D03*
X110890000Y-108395000D03*
D24*
X104800000Y-107255000D03*
D25*
X105600000Y-107255000D03*
D26*
X106750000Y-107255000D03*
X107750000Y-107255000D03*
X108250000Y-107255000D03*
X109250000Y-107255000D03*
D25*
X110400000Y-107255000D03*
D24*
X111200000Y-107255000D03*
X111200000Y-107255000D03*
D25*
X110400000Y-107255000D03*
D26*
X109750000Y-107255000D03*
X108750000Y-107255000D03*
X107250000Y-107255000D03*
X106250000Y-107255000D03*
D25*
X105600000Y-107255000D03*
D24*
X104800000Y-107255000D03*
D27*
X103680000Y-107895000D03*
D28*
X103680000Y-112075000D03*
D27*
X112320000Y-107895000D03*
D28*
X112320000Y-112075000D03*
%TD*%
D21*
%TO.C,FID2*%
X135000000Y-62000000D03*
%TD*%
D29*
%TO.C,U6*%
X58000000Y-58700000D03*
D30*
X56650000Y-57150000D03*
X58000000Y-57150000D03*
X59350000Y-57150000D03*
X59350000Y-58850000D03*
X56650000Y-58850000D03*
%TD*%
D13*
%TO.C,H2*%
X93500000Y-57500000D03*
%TD*%
%TO.C,H1*%
X55000000Y-55000000D03*
%TD*%
D31*
%TO.C,J6*%
X157500000Y-80000000D03*
X158500000Y-80000000D03*
X159500000Y-80000000D03*
X160500000Y-80000000D03*
X161500000Y-80000000D03*
X162500000Y-80000000D03*
D32*
X156200000Y-83875000D03*
X163800000Y-83875000D03*
%TD*%
D22*
%TO.C,SW3*%
X57950000Y-65200000D03*
X62050000Y-65200000D03*
X57950000Y-66800000D03*
X62050000Y-66800000D03*
%TD*%
%LPD*%
M02*
