<svg xmlns="http://www.w3.org/2000/svg" width="900" height="650" viewBox="0 0 900 650">
<rect width="100%" height="100%" fill="#f6f5f0"/>
<text x="18" y="26" font-family="sans-serif" font-size="16">knurled-adapter-insert — STL visual audit only / NOT FROZEN</text>
<polygon points="397.19,377.59 349.14,378.72 338.21,331.98" fill="rgb(70, 107, 134)" stroke="#293941" stroke-width="0.35"/><polygon points="338.21,331.98 349.14,378.72 301.31,376.07" fill="rgb(70, 107, 134)" stroke="#293941" stroke-width="0.35"/><polygon points="338.21,331.98 301.31,376.07 254.75,369.70" fill="rgb(70, 107, 134)" stroke="#293941" stroke-width="0.35"/><polygon points="459.00,320.69 444.39,372.71 397.19,377.59" fill="rgb(70, 107, 134)" stroke="#293941" stroke-width="0.35"/><polygon points="489.72,364.19 444.39,372.71 459.00,320.69" fill="rgb(70, 107, 134)" stroke="#293941" stroke-width="0.35"/><polygon points="397.19,613.87 349.14,378.72 397.19,377.59" fill="rgb(61, 93, 117)" stroke="#293941" stroke-width="0.35"/><polygon points="349.14,615.00 301.31,376.07 349.14,378.72" fill="rgb(59, 90, 113)" stroke="#293941" stroke-width="0.35"/><polygon points="254.75,369.70 210.47,359.76 222.96,309.75" fill="rgb(70, 107, 134)" stroke="#293941" stroke-width="0.35"/><polygon points="532.16,352.21 489.72,364.19 459.00,320.69" fill="rgb(70, 107, 134)" stroke="#293941" stroke-width="0.35"/><polygon points="397.19,613.87 397.19,377.59 444.39,372.71" fill="rgb(62, 95, 119)" stroke="#293941" stroke-width="0.35"/><polygon points="459.00,320.69 397.19,377.59 338.21,331.98" fill="rgb(70, 107, 134)" stroke="#293941" stroke-width="0.35"/><polygon points="301.31,612.35 254.75,369.70 301.31,376.07" fill="rgb(56, 86, 108)" stroke="#293941" stroke-width="0.35"/><polygon points="570.80,337.04 532.16,352.21 565.89,335.21" fill="rgb(70, 107, 134)" stroke="#293941" stroke-width="0.35"/><polygon points="631.09,359.41 570.80,337.04 590.35,327.32" fill="rgb(70, 107, 134)" stroke="#293941" stroke-width="0.35"/><polygon points="222.96,309.75 210.47,359.76 169.45,346.45" fill="rgb(70, 107, 134)" stroke="#293941" stroke-width="0.35"/><polygon points="338.21,331.98 254.75,369.70 222.96,309.75" fill="rgb(70, 107, 134)" stroke="#293941" stroke-width="0.35"/><polygon points="489.72,600.47 444.39,372.71 489.72,364.19" fill="rgb(63, 96, 121)" stroke="#293941" stroke-width="0.35"/><polygon points="565.89,335.21 532.16,352.21 459.00,320.69" fill="rgb(70, 107, 134)" stroke="#293941" stroke-width="0.35"/><polygon points="254.75,605.98 210.47,359.76 254.75,369.70" fill="rgb(53, 81, 102)" stroke="#293941" stroke-width="0.35"/><polygon points="631.09,359.41 590.35,327.32 608.32,316.78" fill="rgb(70, 107, 134)" stroke="#293941" stroke-width="0.35"/><polygon points="590.35,327.32 570.80,337.04 565.89,335.21" fill="rgb(70, 107, 134)" stroke="#293941" stroke-width="0.35"/><polygon points="489.72,600.47 489.72,364.19 532.16,352.21" fill="rgb(63, 96, 120)" stroke="#293941" stroke-width="0.35"/><polygon points="222.96,309.75 169.45,346.45 132.60,330.08" fill="rgb(70, 107, 134)" stroke="#293941" stroke-width="0.35"/><polygon points="624.59,305.50 631.09,359.41 608.32,316.78" fill="rgb(70, 107, 134)" stroke="#293941" stroke-width="0.35"/><polygon points="608.32,316.78 590.35,327.32 565.89,335.21" fill="rgb(70, 107, 134)" stroke="#293941" stroke-width="0.35"/><polygon points="210.47,596.04 169.45,346.45 210.47,359.76" fill="rgb(49, 76, 95)" stroke="#293941" stroke-width="0.35"/><polygon points="722.41,290.30 631.09,359.41 624.59,305.50" fill="rgb(70, 107, 134)" stroke="#293941" stroke-width="0.35"/><polygon points="222.96,309.75 132.60,330.08 100.72,310.99" fill="rgb(70, 107, 134)" stroke="#293941" stroke-width="0.35"/><polygon points="397.19,613.87 349.14,615.00 349.14,378.72" fill="rgb(61, 93, 117)" stroke="#293941" stroke-width="0.35"/><polygon points="349.14,615.00 301.31,612.35 301.31,376.07" fill="rgb(59, 90, 113)" stroke="#293941" stroke-width="0.35"/><polygon points="570.80,573.32 570.80,337.04 631.09,359.41" fill="rgb(48, 73, 92)" stroke="#293941" stroke-width="0.35"/><polygon points="444.39,608.99 397.19,613.87 444.39,372.71" fill="rgb(62, 95, 119)" stroke="#293941" stroke-width="0.35"/><polygon points="552.95,278.91 565.89,335.21 459.00,320.69" fill="rgb(70, 107, 134)" stroke="#293941" stroke-width="0.35"/><polygon points="570.80,573.32 532.16,352.21 570.80,337.04" fill="rgb(62, 95, 119)" stroke="#293941" stroke-width="0.35"/><polygon points="301.31,612.35 254.75,605.98 254.75,369.70" fill="rgb(56, 86, 108)" stroke="#293941" stroke-width="0.35"/><polygon points="169.45,582.73 132.60,330.08 169.45,346.45" fill="rgb(45, 70, 87)" stroke="#293941" stroke-width="0.35"/><polygon points="489.72,600.47 444.39,608.99 444.39,372.71" fill="rgb(63, 96, 121)" stroke="#293941" stroke-width="0.35"/><polygon points="657.20,266.10 608.32,316.78 565.89,335.21" fill="rgb(70, 107, 134)" stroke="#293941" stroke-width="0.35"/><polygon points="631.09,595.69 631.09,359.41 722.41,290.30" fill="rgb(58, 89, 112)" stroke="#293941" stroke-width="0.35"/><polygon points="254.75,605.98 210.47,596.04 210.47,359.76" fill="rgb(53, 81, 102)" stroke="#293941" stroke-width="0.35"/><polygon points="459.00,320.69 338.21,331.98 338.21,568.26" fill="rgb(62, 95, 119)" stroke="#293941" stroke-width="0.35"/><polygon points="722.41,290.30 624.59,305.50 639.04,293.53" fill="rgb(70, 107, 134)" stroke="#293941" stroke-width="0.35"/><polygon points="657.20,266.10 624.59,305.50 608.32,316.78" fill="rgb(70, 107, 134)" stroke="#293941" stroke-width="0.35"/><polygon points="532.16,588.49 489.72,600.47 532.16,352.21" fill="rgb(63, 96, 120)" stroke="#293941" stroke-width="0.35"/><polygon points="222.96,309.75 100.72,310.99 144.13,259.96" fill="rgb(70, 107, 134)" stroke="#293941" stroke-width="0.35"/><polygon points="565.89,335.21 552.95,278.91 657.20,266.10" fill="rgb(70, 107, 134)" stroke="#293941" stroke-width="0.35"/><polygon points="631.09,595.69 570.80,573.32 631.09,359.41" fill="rgb(48, 73, 92)" stroke="#293941" stroke-width="0.35"/><polygon points="210.47,596.04 169.45,582.73 169.45,346.45" fill="rgb(49, 76, 95)" stroke="#293941" stroke-width="0.35"/><polygon points="657.20,266.10 639.04,293.53 624.59,305.50" fill="rgb(70, 107, 134)" stroke="#293941" stroke-width="0.35"/><polygon points="722.41,290.30 639.04,293.53 651.58,280.98" fill="rgb(70, 107, 134)" stroke="#293941" stroke-width="0.35"/><polygon points="144.13,259.96 100.72,310.99 74.51,289.62" fill="rgb(70, 107, 134)" stroke="#293941" stroke-width="0.35"/><polygon points="100.72,547.27 100.72,310.99 132.60,330.08" fill="rgb(41, 63, 79)" stroke="#293941" stroke-width="0.35"/><polygon points="338.21,331.98 222.96,309.75 222.96,546.03" fill="rgb(54, 83, 104)" stroke="#293941" stroke-width="0.35"/><polygon points="570.80,573.32 532.16,588.49 532.16,352.21" fill="rgb(62, 95, 119)" stroke="#293941" stroke-width="0.35"/><polygon points="657.20,266.10 651.58,280.98 639.04,293.53" fill="rgb(70, 107, 134)" stroke="#293941" stroke-width="0.35"/><polygon points="722.41,290.30 651.58,280.98 662.12,267.93" fill="rgb(70, 107, 134)" stroke="#293941" stroke-width="0.35"/><polygon points="552.95,278.91 459.00,320.69 459.00,556.97" fill="rgb(62, 94, 118)" stroke="#293941" stroke-width="0.35"/><polygon points="169.45,582.73 132.60,566.36 132.60,330.08" fill="rgb(45, 70, 87)" stroke="#293941" stroke-width="0.35"/><polygon points="100.72,547.27 74.51,289.62 100.72,310.99" fill="rgb(37, 56, 70)" stroke="#293941" stroke-width="0.35"/><polygon points="144.13,259.96 74.51,289.62 54.55,266.44" fill="rgb(70, 107, 134)" stroke="#293941" stroke-width="0.35"/><polygon points="662.12,267.93 651.58,280.98 657.20,266.10" fill="rgb(70, 107, 134)" stroke="#293941" stroke-width="0.35"/><polygon points="397.19,613.87 338.21,568.26 349.14,615.00" fill="rgb(70, 107, 134)" stroke="#293941" stroke-width="0.35"/><polygon points="338.21,568.26 301.31,612.35 349.14,615.00" fill="rgb(70, 107, 134)" stroke="#293941" stroke-width="0.35"/><polygon points="338.21,568.26 254.75,605.98 301.31,612.35" fill="rgb(70, 107, 134)" stroke="#293941" stroke-width="0.35"/><polygon points="459.00,556.97 397.19,613.87 444.39,608.99" fill="rgb(70, 107, 134)" stroke="#293941" stroke-width="0.35"/><polygon points="338.21,331.98 222.96,546.03 338.21,568.26" fill="rgb(54, 83, 104)" stroke="#293941" stroke-width="0.35"/><polygon points="459.00,320.69 338.21,568.26 459.00,556.97" fill="rgb(62, 95, 119)" stroke="#293941" stroke-width="0.35"/><polygon points="132.60,566.36 100.72,547.27 132.60,330.08" fill="rgb(41, 63, 79)" stroke="#293941" stroke-width="0.35"/><polygon points="489.72,600.47 459.00,556.97 444.39,608.99" fill="rgb(70, 107, 134)" stroke="#293941" stroke-width="0.35"/><polygon points="675.82,243.50 662.12,267.93 657.20,266.10" fill="rgb(70, 107, 134)" stroke="#293941" stroke-width="0.35"/><polygon points="144.13,259.96 54.55,266.44 41.29,241.94" fill="rgb(70, 107, 134)" stroke="#293941" stroke-width="0.35"/><polygon points="657.20,266.10 552.95,278.91 594.90,217.84" fill="rgb(70, 107, 134)" stroke="#293941" stroke-width="0.35"/><polygon points="254.75,605.98 222.96,546.03 210.47,596.04" fill="rgb(70, 107, 134)" stroke="#293941" stroke-width="0.35"/><polygon points="532.16,588.49 459.00,556.97 489.72,600.47" fill="rgb(70, 107, 134)" stroke="#293941" stroke-width="0.35"/><polygon points="631.09,595.69 722.41,290.30 722.41,526.58" fill="rgb(58, 89, 112)" stroke="#293941" stroke-width="0.35"/><polygon points="459.00,556.97 338.21,568.26 397.19,613.87" fill="rgb(70, 107, 134)" stroke="#293941" stroke-width="0.35"/><polygon points="74.51,525.90 54.55,266.44 74.51,289.62" fill="rgb(32, 49, 62)" stroke="#293941" stroke-width="0.35"/><polygon points="570.80,573.32 565.89,571.49 532.16,588.49" fill="rgb(70, 107, 134)" stroke="#293941" stroke-width="0.35"/><polygon points="631.09,595.69 590.35,563.60 570.80,573.32" fill="rgb(70, 107, 134)" stroke="#293941" stroke-width="0.35"/><polygon points="222.96,546.03 169.45,582.73 210.47,596.04" fill="rgb(70, 107, 134)" stroke="#293941" stroke-width="0.35"/><polygon points="222.96,309.75 144.13,259.96 144.13,496.24" fill="rgb(40, 62, 78)" stroke="#293941" stroke-width="0.35"/><polygon points="338.21,568.26 222.96,546.03 254.75,605.98" fill="rgb(70, 107, 134)" stroke="#293941" stroke-width="0.35"/><polygon points="662.12,504.21 722.41,290.30 662.12,267.93" fill="rgb(48, 73, 92)" stroke="#293941" stroke-width="0.35"/><polygon points="565.89,571.49 459.00,556.97 532.16,588.49" fill="rgb(70, 107, 134)" stroke="#293941" stroke-width="0.35"/><polygon points="675.82,243.50 657.20,266.10 594.90,217.84" fill="rgb(70, 107, 134)" stroke="#293941" stroke-width="0.35"/><polygon points="631.09,595.69 608.32,553.06 590.35,563.60" fill="rgb(70, 107, 134)" stroke="#293941" stroke-width="0.35"/><polygon points="590.35,563.60 565.89,571.49 570.80,573.32" fill="rgb(70, 107, 134)" stroke="#293941" stroke-width="0.35"/><polygon points="222.96,546.03 132.60,566.36 169.45,582.73" fill="rgb(70, 107, 134)" stroke="#293941" stroke-width="0.35"/><polygon points="100.72,547.27 74.51,525.90 74.51,289.62" fill="rgb(37, 56, 70)" stroke="#293941" stroke-width="0.35"/><polygon points="624.59,541.78 608.32,553.06 631.09,595.69" fill="rgb(70, 107, 134)" stroke="#293941" stroke-width="0.35"/><polygon points="608.32,553.06 565.89,571.49 590.35,563.60" fill="rgb(70, 107, 134)" stroke="#293941" stroke-width="0.35"/><polygon points="144.13,259.96 41.29,241.94 122.83,195.95" fill="rgb(70, 107, 134)" stroke="#293941" stroke-width="0.35"/><polygon points="222.96,309.75 144.13,496.24 222.96,546.03" fill="rgb(40, 62, 78)" stroke="#293941" stroke-width="0.35"/><polygon points="552.95,278.91 459.00,556.97 552.95,515.19" fill="rgb(62, 94, 118)" stroke="#293941" stroke-width="0.35"/><polygon points="662.12,504.21 662.12,267.93 675.82,243.50" fill="rgb(52, 79, 99)" stroke="#293941" stroke-width="0.35"/><polygon points="594.90,217.84 552.95,278.91 552.95,515.19" fill="rgb(53, 81, 102)" stroke="#293941" stroke-width="0.35"/><polygon points="682.54,218.26 675.82,243.50 594.90,217.84" fill="rgb(70, 107, 134)" stroke="#293941" stroke-width="0.35"/><polygon points="722.41,526.58 624.59,541.78 631.09,595.69" fill="rgb(70, 107, 134)" stroke="#293941" stroke-width="0.35"/><polygon points="222.96,546.03 100.72,547.27 132.60,566.36" fill="rgb(70, 107, 134)" stroke="#293941" stroke-width="0.35"/><polygon points="722.41,526.58 722.41,290.30 662.12,504.21" fill="rgb(48, 73, 92)" stroke="#293941" stroke-width="0.35"/><polygon points="41.29,478.22 41.29,241.94 54.55,266.44" fill="rgb(35, 54, 68)" stroke="#293941" stroke-width="0.35"/><polygon points="552.95,515.19 459.00,556.97 565.89,571.49" fill="rgb(70, 107, 134)" stroke="#293941" stroke-width="0.35"/><polygon points="122.83,195.95 41.29,241.94 35.00,216.67" fill="rgb(70, 107, 134)" stroke="#293941" stroke-width="0.35"/><polygon points="657.20,502.38 565.89,571.49 608.32,553.06" fill="rgb(70, 107, 134)" stroke="#293941" stroke-width="0.35"/><polygon points="74.51,525.90 54.55,502.72 54.55,266.44" fill="rgb(32, 49, 62)" stroke="#293941" stroke-width="0.35"/><polygon points="682.16,192.78 682.54,218.26 594.90,217.84" fill="rgb(70, 107, 134)" stroke="#293941" stroke-width="0.35"/><polygon points="722.41,526.58 639.04,529.81 624.59,541.78" fill="rgb(70, 107, 134)" stroke="#293941" stroke-width="0.35"/><polygon points="657.20,502.38 608.32,553.06 624.59,541.78" fill="rgb(70, 107, 134)" stroke="#293941" stroke-width="0.35"/><polygon points="41.29,478.22 35.00,216.67 41.29,241.94" fill="rgb(40, 61, 77)" stroke="#293941" stroke-width="0.35"/><polygon points="222.96,546.03 144.13,496.24 100.72,547.27" fill="rgb(70, 107, 134)" stroke="#293941" stroke-width="0.35"/><polygon points="122.83,195.95 35.00,216.67 35.83,191.19" fill="rgb(70, 107, 134)" stroke="#293941" stroke-width="0.35"/><polygon points="565.89,571.49 657.20,502.38 552.95,515.19" fill="rgb(70, 107, 134)" stroke="#293941" stroke-width="0.35"/><polygon points="54.55,502.72 41.29,478.22 54.55,266.44" fill="rgb(35, 54, 68)" stroke="#293941" stroke-width="0.35"/><polygon points="657.20,502.38 624.59,541.78 639.04,529.81" fill="rgb(70, 107, 134)" stroke="#293941" stroke-width="0.35"/><polygon points="722.41,526.58 651.58,517.26 639.04,529.81" fill="rgb(70, 107, 134)" stroke="#293941" stroke-width="0.35"/><polygon points="682.54,454.54 675.82,243.50 682.54,218.26" fill="rgb(48, 73, 92)" stroke="#293941" stroke-width="0.35"/><polygon points="144.13,496.24 74.51,525.90 100.72,547.27" fill="rgb(70, 107, 134)" stroke="#293941" stroke-width="0.35"/><polygon points="674.66,167.60 682.16,192.78 594.90,217.84" fill="rgb(70, 107, 134)" stroke="#293941" stroke-width="0.35"/><polygon points="675.82,479.77 662.12,504.21 675.82,243.50" fill="rgb(52, 79, 99)" stroke="#293941" stroke-width="0.35"/><polygon points="657.20,502.38 639.04,529.81 651.58,517.26" fill="rgb(70, 107, 134)" stroke="#293941" stroke-width="0.35"/><polygon points="722.41,526.58 662.12,504.21 651.58,517.26" fill="rgb(70, 107, 134)" stroke="#293941" stroke-width="0.35"/><polygon points="144.13,259.96 122.83,195.95 122.83,432.23" fill="rgb(39, 59, 74)" stroke="#293941" stroke-width="0.35"/><polygon points="122.83,195.95 35.83,191.19 43.76,166.06" fill="rgb(70, 107, 134)" stroke="#293941" stroke-width="0.35"/><polygon points="674.66,167.60 594.90,217.84 573.60,153.84" fill="rgb(70, 107, 134)" stroke="#293941" stroke-width="0.35"/><polygon points="144.13,496.24 54.55,502.72 74.51,525.90" fill="rgb(70, 107, 134)" stroke="#293941" stroke-width="0.35"/><polygon points="662.12,504.21 657.20,502.38 651.58,517.26" fill="rgb(70, 107, 134)" stroke="#293941" stroke-width="0.35"/><polygon points="144.13,259.96 122.83,432.23 144.13,496.24" fill="rgb(39, 59, 74)" stroke="#293941" stroke-width="0.35"/><polygon points="594.90,217.84 552.95,515.19 594.90,454.12" fill="rgb(53, 81, 102)" stroke="#293941" stroke-width="0.35"/><polygon points="682.54,454.54 675.82,479.77 675.82,243.50" fill="rgb(48, 73, 92)" stroke="#293941" stroke-width="0.35"/><polygon points="682.16,429.06 682.54,218.26 682.16,192.78" fill="rgb(44, 67, 84)" stroke="#293941" stroke-width="0.35"/><polygon points="35.83,427.47 35.83,191.19 35.00,216.67" fill="rgb(44, 68, 85)" stroke="#293941" stroke-width="0.35"/><polygon points="122.83,195.95 43.76,166.06 58.62,141.82" fill="rgb(70, 107, 134)" stroke="#293941" stroke-width="0.35"/><polygon points="675.82,479.77 657.20,502.38 662.12,504.21" fill="rgb(70, 107, 134)" stroke="#293941" stroke-width="0.35"/><polygon points="573.60,153.84 594.90,217.84 594.90,454.12" fill="rgb(39, 59, 74)" stroke="#293941" stroke-width="0.35"/><polygon points="144.13,496.24 41.29,478.22 54.55,502.72" fill="rgb(70, 107, 134)" stroke="#293941" stroke-width="0.35"/><polygon points="41.29,478.22 35.00,452.95 35.00,216.67" fill="rgb(40, 61, 77)" stroke="#293941" stroke-width="0.35"/><polygon points="657.20,502.38 594.90,454.12 552.95,515.19" fill="rgb(70, 107, 134)" stroke="#293941" stroke-width="0.35"/><polygon points="164.78,134.88 122.83,195.95 58.62,141.82" fill="rgb(70, 107, 134)" stroke="#293941" stroke-width="0.35"/><polygon points="674.66,167.60 573.60,153.84 660.23,143.29" fill="rgb(70, 107, 134)" stroke="#293941" stroke-width="0.35"/><polygon points="675.82,479.77 594.90,454.12 657.20,502.38" fill="rgb(70, 107, 134)" stroke="#293941" stroke-width="0.35"/><polygon points="682.16,429.06 682.54,454.54 682.54,218.26" fill="rgb(44, 67, 84)" stroke="#293941" stroke-width="0.35"/><polygon points="35.00,452.95 35.83,427.47 35.00,216.67" fill="rgb(44, 68, 85)" stroke="#293941" stroke-width="0.35"/><polygon points="674.66,403.88 682.16,192.78 674.66,167.60" fill="rgb(39, 60, 75)" stroke="#293941" stroke-width="0.35"/><polygon points="43.76,402.34 43.76,166.06 35.83,191.19" fill="rgb(48, 74, 93)" stroke="#293941" stroke-width="0.35"/><polygon points="144.13,496.24 122.83,432.23 41.29,478.22" fill="rgb(70, 107, 134)" stroke="#293941" stroke-width="0.35"/><polygon points="660.23,143.29 573.60,153.84 639.17,120.38" fill="rgb(70, 107, 134)" stroke="#293941" stroke-width="0.35"/><polygon points="682.54,454.54 594.90,454.12 675.82,479.77" fill="rgb(70, 107, 134)" stroke="#293941" stroke-width="0.35"/><polygon points="164.78,134.88 58.62,141.82 80.08,119.01" fill="rgb(70, 107, 134)" stroke="#293941" stroke-width="0.35"/><polygon points="43.76,402.34 58.62,141.82 43.76,166.06" fill="rgb(52, 80, 100)" stroke="#293941" stroke-width="0.35"/><polygon points="122.83,432.23 35.00,452.95 41.29,478.22" fill="rgb(70, 107, 134)" stroke="#293941" stroke-width="0.35"/><polygon points="639.17,120.38 573.60,153.84 611.95,99.37" fill="rgb(70, 107, 134)" stroke="#293941" stroke-width="0.35"/><polygon points="122.83,195.95 164.78,134.88 164.78,371.16" fill="rgb(53, 81, 102)" stroke="#293941" stroke-width="0.35"/><polygon points="674.66,403.88 682.16,429.06 682.16,192.78" fill="rgb(39, 60, 75)" stroke="#293941" stroke-width="0.35"/><polygon points="35.83,427.47 43.76,402.34 35.83,191.19" fill="rgb(48, 74, 93)" stroke="#293941" stroke-width="0.35"/><polygon points="660.23,379.57 674.66,167.60 660.23,143.29" fill="rgb(35, 53, 67)" stroke="#293941" stroke-width="0.35"/><polygon points="611.95,99.37 573.60,153.84 494.76,104.05" fill="rgb(70, 107, 134)" stroke="#293941" stroke-width="0.35"/><polygon points="682.16,429.06 594.90,454.12 682.54,454.54" fill="rgb(70, 107, 134)" stroke="#293941" stroke-width="0.35"/><polygon points="164.78,134.88 80.08,119.01 107.66,98.13" fill="rgb(70, 107, 134)" stroke="#293941" stroke-width="0.35"/><polygon points="122.83,195.95 164.78,371.16 122.83,432.23" fill="rgb(53, 81, 102)" stroke="#293941" stroke-width="0.35"/><polygon points="573.60,153.84 594.90,454.12 573.60,390.11" fill="rgb(39, 59, 74)" stroke="#293941" stroke-width="0.35"/><polygon points="122.83,432.23 35.83,427.47 35.00,452.95" fill="rgb(70, 107, 134)" stroke="#293941" stroke-width="0.35"/><polygon points="494.76,104.05 573.60,153.84 573.60,390.11" fill="rgb(40, 62, 78)" stroke="#293941" stroke-width="0.35"/><polygon points="164.78,134.88 107.66,98.13 140.77,79.65" fill="rgb(70, 107, 134)" stroke="#293941" stroke-width="0.35"/><polygon points="58.62,378.10 80.08,119.01 58.62,141.82" fill="rgb(55, 85, 106)" stroke="#293941" stroke-width="0.35"/><polygon points="258.73,93.10 164.78,134.88 140.77,79.65" fill="rgb(70, 107, 134)" stroke="#293941" stroke-width="0.35"/><polygon points="674.66,403.88 594.90,454.12 682.16,429.06" fill="rgb(70, 107, 134)" stroke="#293941" stroke-width="0.35"/><polygon points="660.23,379.57 674.66,403.88 674.66,167.60" fill="rgb(35, 53, 67)" stroke="#293941" stroke-width="0.35"/><polygon points="639.17,356.66 660.23,143.29 639.17,120.38" fill="rgb(33, 50, 63)" stroke="#293941" stroke-width="0.35"/><polygon points="611.95,99.37 494.76,104.05 579.17,80.72" fill="rgb(70, 107, 134)" stroke="#293941" stroke-width="0.35"/><polygon points="122.83,432.23 43.76,402.34 35.83,427.47" fill="rgb(70, 107, 134)" stroke="#293941" stroke-width="0.35"/><polygon points="43.76,402.34 58.62,378.10 58.62,141.82" fill="rgb(52, 80, 100)" stroke="#293941" stroke-width="0.35"/><polygon points="674.66,403.88 573.60,390.11 594.90,454.12" fill="rgb(70, 107, 134)" stroke="#293941" stroke-width="0.35"/><polygon points="579.17,80.72 494.76,104.05 541.54,64.85" fill="rgb(70, 107, 134)" stroke="#293941" stroke-width="0.35"/><polygon points="639.17,356.66 639.17,120.38 611.95,99.37" fill="rgb(37, 57, 72)" stroke="#293941" stroke-width="0.35"/><polygon points="80.08,355.29 107.66,98.13 80.08,119.01" fill="rgb(58, 89, 112)" stroke="#293941" stroke-width="0.35"/><polygon points="258.73,93.10 140.77,79.65 178.67,63.96" fill="rgb(70, 107, 134)" stroke="#293941" stroke-width="0.35"/><polygon points="164.78,134.88 258.73,93.10 258.73,329.38" fill="rgb(62, 94, 118)" stroke="#293941" stroke-width="0.35"/><polygon points="494.76,104.05 379.51,81.82 455.16,42.75" fill="rgb(70, 107, 134)" stroke="#293941" stroke-width="0.35"/><polygon points="122.83,432.23 58.62,378.10 43.76,402.34" fill="rgb(70, 107, 134)" stroke="#293941" stroke-width="0.35"/><polygon points="639.17,356.66 660.23,379.57 660.23,143.29" fill="rgb(33, 50, 63)" stroke="#293941" stroke-width="0.35"/><polygon points="541.54,64.85 494.76,104.05 499.90,52.10" fill="rgb(70, 107, 134)" stroke="#293941" stroke-width="0.35"/><polygon points="379.51,81.82 258.73,93.10 312.39,36.77" fill="rgb(70, 107, 134)" stroke="#293941" stroke-width="0.35"/><polygon points="258.73,93.10 178.67,63.96 220.53,51.41" fill="rgb(70, 107, 134)" stroke="#293941" stroke-width="0.35"/><polygon points="499.90,52.10 494.76,104.05 455.16,42.75" fill="rgb(70, 107, 134)" stroke="#293941" stroke-width="0.35"/><polygon points="379.51,81.82 494.76,104.05 494.76,340.33" fill="rgb(54, 83, 104)" stroke="#293941" stroke-width="0.35"/><polygon points="164.78,371.16 58.62,378.10 122.83,432.23" fill="rgb(70, 107, 134)" stroke="#293941" stroke-width="0.35"/><polygon points="58.62,378.10 80.08,355.29 80.08,119.01" fill="rgb(55, 85, 106)" stroke="#293941" stroke-width="0.35"/><polygon points="674.66,403.88 660.23,379.57 573.60,390.11" fill="rgb(70, 107, 134)" stroke="#293941" stroke-width="0.35"/><polygon points="265.43,42.28 258.73,93.10 220.53,51.41" fill="rgb(70, 107, 134)" stroke="#293941" stroke-width="0.35"/><polygon points="107.66,334.41 140.77,79.65 107.66,98.13" fill="rgb(60, 92, 116)" stroke="#293941" stroke-width="0.35"/><polygon points="164.78,134.88 258.73,329.38 164.78,371.16" fill="rgb(62, 94, 118)" stroke="#293941" stroke-width="0.35"/><polygon points="494.76,104.05 573.60,390.11 494.76,340.33" fill="rgb(40, 62, 78)" stroke="#293941" stroke-width="0.35"/><polygon points="312.39,36.77 258.73,93.10 265.43,42.28" fill="rgb(70, 107, 134)" stroke="#293941" stroke-width="0.35"/><polygon points="579.17,317.00 611.95,99.37 579.17,80.72" fill="rgb(42, 64, 81)" stroke="#293941" stroke-width="0.35"/><polygon points="258.73,93.10 379.51,81.82 379.51,318.10" fill="rgb(62, 95, 119)" stroke="#293941" stroke-width="0.35"/><polygon points="455.16,42.75 379.51,81.82 408.31,37.01" fill="rgb(70, 107, 134)" stroke="#293941" stroke-width="0.35"/><polygon points="408.31,37.01 379.51,81.82 360.36,35.00" fill="rgb(70, 107, 134)" stroke="#293941" stroke-width="0.35"/><polygon points="379.51,81.82 312.39,36.77 360.36,35.00" fill="rgb(70, 107, 134)" stroke="#293941" stroke-width="0.35"/><polygon points="660.23,379.57 639.17,356.66 573.60,390.11" fill="rgb(70, 107, 134)" stroke="#293941" stroke-width="0.35"/><polygon points="611.95,335.65 639.17,356.66 611.95,99.37" fill="rgb(37, 57, 72)" stroke="#293941" stroke-width="0.35"/><polygon points="140.77,315.93 178.67,63.96 140.77,79.65" fill="rgb(62, 95, 119)" stroke="#293941" stroke-width="0.35"/><polygon points="80.08,355.29 107.66,334.41 107.66,98.13" fill="rgb(58, 89, 112)" stroke="#293941" stroke-width="0.35"/><polygon points="164.78,371.16 80.08,355.29 58.62,378.10" fill="rgb(70, 107, 134)" stroke="#293941" stroke-width="0.35"/><polygon points="541.54,301.13 579.17,80.72 541.54,64.85" fill="rgb(46, 71, 89)" stroke="#293941" stroke-width="0.35"/><polygon points="639.17,356.66 611.95,335.65 573.60,390.11" fill="rgb(70, 107, 134)" stroke="#293941" stroke-width="0.35"/><polygon points="579.17,317.00 611.95,335.65 611.95,99.37" fill="rgb(42, 64, 81)" stroke="#293941" stroke-width="0.35"/><polygon points="178.67,300.24 220.53,51.41 178.67,63.96" fill="rgb(63, 96, 120)" stroke="#293941" stroke-width="0.35"/><polygon points="258.73,93.10 379.51,318.10 258.73,329.38" fill="rgb(62, 95, 119)" stroke="#293941" stroke-width="0.35"/><polygon points="379.51,81.82 494.76,340.33 379.51,318.10" fill="rgb(54, 83, 104)" stroke="#293941" stroke-width="0.35"/><polygon points="611.95,335.65 494.76,340.33 573.60,390.11" fill="rgb(70, 107, 134)" stroke="#293941" stroke-width="0.35"/><polygon points="499.90,288.38 541.54,64.85 499.90,52.10" fill="rgb(50, 77, 96)" stroke="#293941" stroke-width="0.35"/><polygon points="164.78,371.16 107.66,334.41 80.08,355.29" fill="rgb(70, 107, 134)" stroke="#293941" stroke-width="0.35"/><polygon points="107.66,334.41 140.77,315.93 140.77,79.65" fill="rgb(60, 92, 116)" stroke="#293941" stroke-width="0.35"/><polygon points="499.90,288.38 499.90,52.10 455.16,42.75" fill="rgb(54, 82, 103)" stroke="#293941" stroke-width="0.35"/><polygon points="220.53,287.69 265.43,42.28 220.53,51.41" fill="rgb(63, 96, 121)" stroke="#293941" stroke-width="0.35"/><polygon points="541.54,301.13 579.17,317.00 579.17,80.72" fill="rgb(46, 71, 89)" stroke="#293941" stroke-width="0.35"/><polygon points="164.78,371.16 140.77,315.93 107.66,334.41" fill="rgb(70, 107, 134)" stroke="#293941" stroke-width="0.35"/><polygon points="258.73,329.38 140.77,315.93 164.78,371.16" fill="rgb(70, 107, 134)" stroke="#293941" stroke-width="0.35"/><polygon points="455.16,279.03 455.16,42.75 408.31,37.01" fill="rgb(57, 87, 109)" stroke="#293941" stroke-width="0.35"/><polygon points="265.43,278.56 312.39,36.77 265.43,42.28" fill="rgb(62, 95, 120)" stroke="#293941" stroke-width="0.35"/><polygon points="140.77,315.93 178.67,300.24 178.67,63.96" fill="rgb(62, 95, 119)" stroke="#293941" stroke-width="0.35"/><polygon points="360.36,271.28 408.31,37.01 360.36,35.00" fill="rgb(59, 91, 114)" stroke="#293941" stroke-width="0.35"/><polygon points="360.36,271.28 360.36,35.00 312.39,36.77" fill="rgb(61, 94, 117)" stroke="#293941" stroke-width="0.35"/><polygon points="611.95,335.65 579.17,317.00 494.76,340.33" fill="rgb(70, 107, 134)" stroke="#293941" stroke-width="0.35"/><polygon points="499.90,288.38 541.54,301.13 541.54,64.85" fill="rgb(50, 77, 96)" stroke="#293941" stroke-width="0.35"/><polygon points="178.67,300.24 220.53,287.69 220.53,51.41" fill="rgb(63, 96, 120)" stroke="#293941" stroke-width="0.35"/><polygon points="579.17,317.00 541.54,301.13 494.76,340.33" fill="rgb(70, 107, 134)" stroke="#293941" stroke-width="0.35"/><polygon points="258.73,329.38 178.67,300.24 140.77,315.93" fill="rgb(70, 107, 134)" stroke="#293941" stroke-width="0.35"/><polygon points="455.16,279.03 499.90,288.38 455.16,42.75" fill="rgb(54, 82, 103)" stroke="#293941" stroke-width="0.35"/><polygon points="494.76,340.33 455.16,279.03 379.51,318.10" fill="rgb(70, 107, 134)" stroke="#293941" stroke-width="0.35"/><polygon points="220.53,287.69 265.43,278.56 265.43,42.28" fill="rgb(63, 96, 121)" stroke="#293941" stroke-width="0.35"/><polygon points="541.54,301.13 499.90,288.38 494.76,340.33" fill="rgb(70, 107, 134)" stroke="#293941" stroke-width="0.35"/><polygon points="379.51,318.10 312.39,273.05 258.73,329.38" fill="rgb(70, 107, 134)" stroke="#293941" stroke-width="0.35"/><polygon points="408.31,273.29 455.16,279.03 408.31,37.01" fill="rgb(57, 87, 109)" stroke="#293941" stroke-width="0.35"/><polygon points="258.73,329.38 220.53,287.69 178.67,300.24" fill="rgb(70, 107, 134)" stroke="#293941" stroke-width="0.35"/><polygon points="265.43,278.56 312.39,273.05 312.39,36.77" fill="rgb(62, 95, 120)" stroke="#293941" stroke-width="0.35"/><polygon points="360.36,271.28 408.31,273.29 408.31,37.01" fill="rgb(59, 91, 114)" stroke="#293941" stroke-width="0.35"/><polygon points="312.39,273.05 360.36,271.28 312.39,36.77" fill="rgb(61, 94, 117)" stroke="#293941" stroke-width="0.35"/><polygon points="499.90,288.38 455.16,279.03 494.76,340.33" fill="rgb(70, 107, 134)" stroke="#293941" stroke-width="0.35"/><polygon points="265.43,278.56 220.53,287.69 258.73,329.38" fill="rgb(70, 107, 134)" stroke="#293941" stroke-width="0.35"/><polygon points="312.39,273.05 265.43,278.56 258.73,329.38" fill="rgb(70, 107, 134)" stroke="#293941" stroke-width="0.35"/><polygon points="455.16,279.03 408.31,273.29 379.51,318.10" fill="rgb(70, 107, 134)" stroke="#293941" stroke-width="0.35"/><polygon points="408.31,273.29 360.36,271.28 379.51,318.10" fill="rgb(70, 107, 134)" stroke="#293941" stroke-width="0.35"/><polygon points="379.51,318.10 360.36,271.28 312.39,273.05" fill="rgb(70, 107, 134)" stroke="#293941" stroke-width="0.35"/>
</svg>
