solid 
 facet normal  8.715574e-02  2.981157e-19  9.961947e-01
   outer loop
     vertex  1.057293e+02  6.300000e+01  6.836193e+00
     vertex  1.050000e+02  6.300000e+01  6.900000e+00
     vertex  1.050000e+02  5.880000e+01  6.900000e+00
   endloop
 endfacet
 facet normal  8.715574e-02  0.000000e+00  9.961947e-01
   outer loop
     vertex  1.057293e+02  6.300000e+01  6.836193e+00
     vertex  1.050000e+02  5.880000e+01  6.900000e+00
     vertex  1.057293e+02  5.880000e+01  6.836193e+00
   endloop
 endfacet
 facet normal  2.588190e-01  0.000000e+00  9.659258e-01
   outer loop
     vertex  1.064365e+02  6.300000e+01  6.646709e+00
     vertex  1.057293e+02  5.880000e+01  6.836193e+00
     vertex  1.064365e+02  5.880000e+01  6.646709e+00
   endloop
 endfacet
 facet normal  2.588190e-01  3.979009e-18  9.659258e-01
   outer loop
     vertex  1.064365e+02  6.300000e+01  6.646709e+00
     vertex  1.057293e+02  6.300000e+01  6.836193e+00
     vertex  1.057293e+02  5.880000e+01  6.836193e+00
   endloop
 endfacet
 facet normal  4.226183e-01  0.000000e+00  9.063078e-01
   outer loop
     vertex  1.071000e+02  6.300000e+01  6.337307e+00
     vertex  1.064365e+02  5.880000e+01  6.646709e+00
     vertex  1.071000e+02  5.880000e+01  6.337307e+00
   endloop
 endfacet
 facet normal  4.226183e-01 -1.095936e-18  9.063078e-01
   outer loop
     vertex  1.071000e+02  6.300000e+01  6.337307e+00
     vertex  1.064365e+02  6.300000e+01  6.646709e+00
     vertex  1.064365e+02  5.880000e+01  6.646709e+00
   endloop
 endfacet
 facet normal  5.735764e-01  0.000000e+00  8.191520e-01
   outer loop
     vertex  1.076997e+02  6.300000e+01  5.917387e+00
     vertex  1.071000e+02  5.880000e+01  6.337307e+00
     vertex  1.076997e+02  5.880000e+01  5.917387e+00
   endloop
 endfacet
 facet normal  5.735764e-01 -8.376316e-18  8.191520e-01
   outer loop
     vertex  1.076997e+02  6.300000e+01  5.917387e+00
     vertex  1.071000e+02  6.300000e+01  6.337307e+00
     vertex  1.071000e+02  5.880000e+01  6.337307e+00
   endloop
 endfacet
 facet normal  7.071068e-01  0.000000e+00  7.071068e-01
   outer loop
     vertex  1.082174e+02  6.300000e+01  5.399708e+00
     vertex  1.076997e+02  5.880000e+01  5.917387e+00
     vertex  1.082174e+02  5.880000e+01  5.399708e+00
   endloop
 endfacet
 facet normal  7.071068e-01  3.776734e-18  7.071068e-01
   outer loop
     vertex  1.082174e+02  6.300000e+01  5.399708e+00
     vertex  1.076997e+02  6.300000e+01  5.917387e+00
     vertex  1.076997e+02  5.880000e+01  5.917387e+00
   endloop
 endfacet
 facet normal  8.191520e-01  0.000000e+00  5.735764e-01
   outer loop
     vertex  1.086373e+02  6.300000e+01  4.800000e+00
     vertex  1.082174e+02  5.880000e+01  5.399708e+00
     vertex  1.086373e+02  5.880000e+01  4.800000e+00
   endloop
 endfacet
 facet normal  8.191520e-01 -8.690569e-18  5.735764e-01
   outer loop
     vertex  1.086373e+02  6.300000e+01  4.800000e+00
     vertex  1.082174e+02  6.300000e+01  5.399708e+00
     vertex  1.082174e+02  5.880000e+01  5.399708e+00
   endloop
 endfacet
 facet normal  9.063078e-01 -5.102395e-19  4.226183e-01
   outer loop
     vertex  1.089467e+02  6.300000e+01  4.136485e+00
     vertex  1.086373e+02  6.300000e+01  4.800000e+00
     vertex  1.086373e+02  5.880000e+01  4.800000e+00
   endloop
 endfacet
 facet normal  9.063078e-01  0.000000e+00  4.226183e-01
   outer loop
     vertex  1.089467e+02  6.300000e+01  4.136485e+00
     vertex  1.086373e+02  5.880000e+01  4.800000e+00
     vertex  1.089467e+02  5.880000e+01  4.136485e+00
   endloop
 endfacet
 facet normal  9.659258e-01  0.000000e+00  2.588190e-01
   outer loop
     vertex  1.089467e+02  6.300000e+01  4.136485e+00
     vertex  1.089467e+02  5.880000e+01  4.136485e+00
     vertex  1.091362e+02  5.880000e+01  3.429322e+00
   endloop
 endfacet
 facet normal  9.659258e-01  0.000000e+00  2.588190e-01
   outer loop
     vertex  1.091362e+02  6.300000e+01  3.429322e+00
     vertex  1.089467e+02  6.300000e+01  4.136485e+00
     vertex  1.091362e+02  5.880000e+01  3.429322e+00
   endloop
 endfacet
 facet normal  9.961947e-01  7.622910e-19  8.715574e-02
   outer loop
     vertex  1.092000e+02  6.300000e+01  2.700000e+00
     vertex  1.091362e+02  6.300000e+01  3.429322e+00
     vertex  1.091362e+02  5.880000e+01  3.429322e+00
   endloop
 endfacet
 facet normal  9.961947e-01  0.000000e+00  8.715574e-02
   outer loop
     vertex  1.092000e+02  6.300000e+01  2.700000e+00
     vertex  1.091362e+02  5.880000e+01  3.429322e+00
     vertex  1.092000e+02  5.880000e+01  2.700000e+00
   endloop
 endfacet
 facet normal  9.961947e-01 -5.734630e-19 -8.715574e-02
   outer loop
     vertex  1.091362e+02  6.300000e+01  1.970678e+00
     vertex  1.092000e+02  6.300000e+01  2.700000e+00
     vertex  1.092000e+02  5.880000e+01  2.700000e+00
   endloop
 endfacet
 facet normal  9.961947e-01  0.000000e+00 -8.715574e-02
   outer loop
     vertex  1.091362e+02  6.300000e+01  1.970678e+00
     vertex  1.092000e+02  5.880000e+01  2.700000e+00
     vertex  1.091362e+02  5.880000e+01  1.970678e+00
   endloop
 endfacet
 facet normal  9.659258e-01  0.000000e+00 -2.588190e-01
   outer loop
     vertex  1.091362e+02  6.300000e+01  1.970678e+00
     vertex  1.091362e+02  5.880000e+01  1.970678e+00
     vertex  1.089467e+02  5.880000e+01  1.263515e+00
   endloop
 endfacet
 facet normal  9.659258e-01  0.000000e+00 -2.588190e-01
   outer loop
     vertex  1.089467e+02  6.300000e+01  1.263515e+00
     vertex  1.091362e+02  6.300000e+01  1.970678e+00
     vertex  1.089467e+02  5.880000e+01  1.263515e+00
   endloop
 endfacet
 facet normal  9.063078e-01 -2.884608e-18 -4.226183e-01
   outer loop
     vertex  1.086373e+02  6.300000e+01  6.000000e-01
     vertex  1.089467e+02  6.300000e+01  1.263515e+00
     vertex  1.089467e+02  5.880000e+01  1.263515e+00
   endloop
 endfacet
 facet normal  9.063078e-01  0.000000e+00 -4.226183e-01
   outer loop
     vertex  1.086373e+02  6.300000e+01  6.000000e-01
     vertex  1.089467e+02  5.880000e+01  1.263515e+00
     vertex  1.086373e+02  5.880000e+01  6.000000e-01
   endloop
 endfacet
 facet normal  8.191520e-01  3.612557e-18 -5.735764e-01
   outer loop
     vertex  1.082174e+02  6.300000e+01  2.920393e-04
     vertex  1.086373e+02  6.300000e+01  6.000000e-01
     vertex  1.086373e+02  5.880000e+01  6.000000e-01
   endloop
 endfacet
 facet normal  8.191520e-01  0.000000e+00 -5.735764e-01
   outer loop
     vertex  1.082174e+02  6.300000e+01  2.920393e-04
     vertex  1.086373e+02  5.880000e+01  6.000000e-01
     vertex  1.082174e+02  5.880000e+01  2.920393e-04
   endloop
 endfacet
 facet normal  7.071068e-01 -8.883265e-18 -7.071068e-01
   outer loop
     vertex  1.076997e+02  6.300000e+01 -5.173867e-01
     vertex  1.082174e+02  6.300000e+01  2.920393e-04
     vertex  1.082174e+02  5.880000e+01  2.920393e-04
   endloop
 endfacet
 facet normal  7.071068e-01  0.000000e+00 -7.071068e-01
   outer loop
     vertex  1.076997e+02  6.300000e+01 -5.173867e-01
     vertex  1.082174e+02  5.880000e+01  2.920393e-04
     vertex  1.076997e+02  5.880000e+01 -5.173867e-01
   endloop
 endfacet
 facet normal  5.735764e-01 -6.418098e-19 -8.191520e-01
   outer loop
     vertex  1.071000e+02  6.300000e+01 -9.373067e-01
     vertex  1.076997e+02  6.300000e+01 -5.173867e-01
     vertex  1.076997e+02  5.880000e+01 -5.173867e-01
   endloop
 endfacet
 facet normal  5.735764e-01  0.000000e+00 -8.191520e-01
   outer loop
     vertex  1.071000e+02  6.300000e+01 -9.373067e-01
     vertex  1.076997e+02  5.880000e+01 -5.173867e-01
     vertex  1.071000e+02  5.880000e+01 -9.373067e-01
   endloop
 endfacet
 facet normal  4.226183e-01  2.734185e-18 -9.063078e-01
   outer loop
     vertex  1.064365e+02  6.300000e+01 -1.246709e+00
     vertex  1.071000e+02  6.300000e+01 -9.373067e-01
     vertex  1.071000e+02  5.880000e+01 -9.373067e-01
   endloop
 endfacet
 facet normal  4.226183e-01  0.000000e+00 -9.063078e-01
   outer loop
     vertex  1.064365e+02  6.300000e+01 -1.246709e+00
     vertex  1.071000e+02  5.880000e+01 -9.373067e-01
     vertex  1.064365e+02  5.880000e+01 -1.246709e+00
   endloop
 endfacet
 facet normal  2.588190e-01 -1.787306e-18 -9.659258e-01
   outer loop
     vertex  1.057293e+02  6.300000e+01 -1.436193e+00
     vertex  1.064365e+02  6.300000e+01 -1.246709e+00
     vertex  1.064365e+02  5.880000e+01 -1.246709e+00
   endloop
 endfacet
 facet normal  2.588190e-01  0.000000e+00 -9.659258e-01
   outer loop
     vertex  1.057293e+02  6.300000e+01 -1.436193e+00
     vertex  1.064365e+02  5.880000e+01 -1.246709e+00
     vertex  1.057293e+02  5.880000e+01 -1.436193e+00
   endloop
 endfacet
 facet normal  8.715574e-02  0.000000e+00 -9.961947e-01
   outer loop
     vertex  1.057293e+02  6.300000e+01 -1.436193e+00
     vertex  1.057293e+02  5.880000e+01 -1.436193e+00
     vertex  1.050000e+02  5.880000e+01 -1.500000e+00
   endloop
 endfacet
 facet normal  8.715574e-02  0.000000e+00 -9.961947e-01
   outer loop
     vertex  1.050000e+02  6.300000e+01 -1.500000e+00
     vertex  1.057293e+02  6.300000e+01 -1.436193e+00
     vertex  1.050000e+02  5.880000e+01 -1.500000e+00
   endloop
 endfacet
 facet normal -8.715574e-02 -0.000000e+00 -9.961947e-01
   outer loop
     vertex  1.042707e+02  6.300000e+01 -1.436193e+00
     vertex  1.050000e+02  5.880000e+01 -1.500000e+00
     vertex  1.042707e+02  5.880000e+01 -1.436193e+00
   endloop
 endfacet
 facet normal -8.715574e-02 -3.641667e-19 -9.961947e-01
   outer loop
     vertex  1.042707e+02  6.300000e+01 -1.436193e+00
     vertex  1.050000e+02  6.300000e+01 -1.500000e+00
     vertex  1.050000e+02  5.880000e+01 -1.500000e+00
   endloop
 endfacet
 facet normal -2.588190e-01 -0.000000e+00 -9.659258e-01
   outer loop
     vertex  1.035635e+02  6.300000e+01 -1.246709e+00
     vertex  1.042707e+02  5.880000e+01 -1.436193e+00
     vertex  1.035635e+02  5.880000e+01 -1.246709e+00
   endloop
 endfacet
 facet normal -2.588190e-01  3.979009e-18 -9.659258e-01
   outer loop
     vertex  1.035635e+02  6.300000e+01 -1.246709e+00
     vertex  1.042707e+02  6.300000e+01 -1.436193e+00
     vertex  1.042707e+02  5.880000e+01 -1.436193e+00
   endloop
 endfacet
 facet normal -4.226183e-01 -0.000000e+00 -9.063078e-01
   outer loop
     vertex  1.029000e+02  6.300000e+01 -9.373067e-01
     vertex  1.035635e+02  5.880000e+01 -1.246709e+00
     vertex  1.029000e+02  5.880000e+01 -9.373067e-01
   endloop
 endfacet
 facet normal -4.226183e-01 -3.626859e-19 -9.063078e-01
   outer loop
     vertex  1.029000e+02  6.300000e+01 -9.373067e-01
     vertex  1.035635e+02  6.300000e+01 -1.246709e+00
     vertex  1.035635e+02  5.880000e+01 -1.246709e+00
   endloop
 endfacet
 facet normal -5.735764e-01 -0.000000e+00 -8.191520e-01
   outer loop
     vertex  1.023003e+02  6.300000e+01 -5.173867e-01
     vertex  1.029000e+02  5.880000e+01 -9.373067e-01
     vertex  1.023003e+02  5.880000e+01 -5.173867e-01
   endloop
 endfacet
 facet normal -5.735764e-01  4.309193e-19 -8.191520e-01
   outer loop
     vertex  1.023003e+02  6.300000e+01 -5.173867e-01
     vertex  1.029000e+02  6.300000e+01 -9.373067e-01
     vertex  1.029000e+02  5.880000e+01 -9.373067e-01
   endloop
 endfacet
 facet normal -7.071068e-01 -0.000000e+00 -7.071068e-01
   outer loop
     vertex  1.017826e+02  6.300000e+01  2.920393e-04
     vertex  1.023003e+02  5.880000e+01 -5.173867e-01
     vertex  1.017826e+02  5.880000e+01  2.920393e-04
   endloop
 endfacet
 facet normal -8.191520e-01 -0.000000e+00 -5.735764e-01
   outer loop
     vertex  1.017826e+02  6.300000e+01  2.920393e-04
     vertex  1.017826e+02  5.880000e+01  2.920393e-04
     vertex  1.013627e+02  5.880000e+01  6.000000e-01
   endloop
 endfacet
 facet normal -7.071068e-01  8.883265e-18 -7.071068e-01
   outer loop
     vertex  1.017826e+02  6.300000e+01  2.920393e-04
     vertex  1.023003e+02  6.300000e+01 -5.173867e-01
     vertex  1.023003e+02  5.880000e+01 -5.173867e-01
   endloop
 endfacet
 facet normal -9.063078e-01 -0.000000e+00 -4.226183e-01
   outer loop
     vertex  1.013627e+02  6.300000e+01  6.000000e-01
     vertex  1.013627e+02  5.880000e+01  6.000000e-01
     vertex  1.010533e+02  5.880000e+01  1.263515e+00
   endloop
 endfacet
 facet normal -8.191520e-01 -0.000000e+00 -5.735764e-01
   outer loop
     vertex  1.013627e+02  6.300000e+01  6.000000e-01
     vertex  1.017826e+02  6.300000e+01  2.920393e-04
     vertex  1.013627e+02  5.880000e+01  6.000000e-01
   endloop
 endfacet
 facet normal -9.659258e-01 -0.000000e+00 -2.588190e-01
   outer loop
     vertex  1.010533e+02  6.300000e+01  1.263515e+00
     vertex  1.010533e+02  5.880000e+01  1.263515e+00
     vertex  1.008638e+02  5.880000e+01  1.970678e+00
   endloop
 endfacet
 facet normal -9.063078e-01 -0.000000e+00 -4.226183e-01
   outer loop
     vertex  1.010533e+02  6.300000e+01  1.263515e+00
     vertex  1.013627e+02  6.300000e+01  6.000000e-01
     vertex  1.010533e+02  5.880000e+01  1.263515e+00
   endloop
 endfacet
 facet normal -9.659258e-01 -0.000000e+00 -2.588190e-01
   outer loop
     vertex  1.008638e+02  6.300000e+01  1.970678e+00
     vertex  1.010533e+02  6.300000e+01  1.263515e+00
     vertex  1.008638e+02  5.880000e+01  1.970678e+00
   endloop
 endfacet
 facet normal -9.961947e-01 -0.000000e+00 -8.715574e-02
   outer loop
     vertex  1.008000e+02  6.300000e+01  2.700000e+00
     vertex  1.008638e+02  5.880000e+01  1.970678e+00
     vertex  1.008000e+02  5.880000e+01  2.700000e+00
   endloop
 endfacet
 facet normal -9.961947e-01  0.000000e+00  8.715574e-02
   outer loop
     vertex  1.008000e+02  6.300000e+01  2.700000e+00
     vertex  1.008000e+02  5.880000e+01  2.700000e+00
     vertex  1.008638e+02  5.880000e+01  3.429322e+00
   endloop
 endfacet
 facet normal -9.961947e-01 -1.116710e-18 -8.715574e-02
   outer loop
     vertex  1.008000e+02  6.300000e+01  2.700000e+00
     vertex  1.008638e+02  6.300000e+01  1.970678e+00
     vertex  1.008638e+02  5.880000e+01  1.970678e+00
   endloop
 endfacet
 facet normal -9.659258e-01  0.000000e+00  2.588190e-01
   outer loop
     vertex  1.008638e+02  6.300000e+01  3.429322e+00
     vertex  1.008638e+02  5.880000e+01  3.429322e+00
     vertex  1.010533e+02  5.880000e+01  4.136485e+00
   endloop
 endfacet
 facet normal -9.961947e-01  0.000000e+00  8.715574e-02
   outer loop
     vertex  1.008638e+02  6.300000e+01  3.429322e+00
     vertex  1.008000e+02  6.300000e+01  2.700000e+00
     vertex  1.008638e+02  5.880000e+01  3.429322e+00
   endloop
 endfacet
 facet normal -9.659258e-01  0.000000e+00  2.588190e-01
   outer loop
     vertex  1.010533e+02  6.300000e+01  4.136485e+00
     vertex  1.008638e+02  6.300000e+01  3.429322e+00
     vertex  1.010533e+02  5.880000e+01  4.136485e+00
   endloop
 endfacet
 facet normal -9.063078e-01  0.000000e+00  4.226183e-01
   outer loop
     vertex  1.013627e+02  6.300000e+01  4.800000e+00
     vertex  1.010533e+02  5.880000e+01  4.136485e+00
     vertex  1.013627e+02  5.880000e+01  4.800000e+00
   endloop
 endfacet
 facet normal -8.191520e-01  0.000000e+00  5.735764e-01
   outer loop
     vertex  1.013627e+02  6.300000e+01  4.800000e+00
     vertex  1.013627e+02  5.880000e+01  4.800000e+00
     vertex  1.017826e+02  5.880000e+01  5.399708e+00
   endloop
 endfacet
 facet normal -9.063078e-01  5.102395e-19  4.226183e-01
   outer loop
     vertex  1.013627e+02  6.300000e+01  4.800000e+00
     vertex  1.010533e+02  6.300000e+01  4.136485e+00
     vertex  1.010533e+02  5.880000e+01  4.136485e+00
   endloop
 endfacet
 facet normal -8.191520e-01  0.000000e+00  5.735764e-01
   outer loop
     vertex  1.017826e+02  6.300000e+01  5.399708e+00
     vertex  1.013627e+02  6.300000e+01  4.800000e+00
     vertex  1.017826e+02  5.880000e+01  5.399708e+00
   endloop
 endfacet
 facet normal -7.071068e-01  0.000000e+00  7.071068e-01
   outer loop
     vertex  1.023003e+02  6.300000e+01  5.917387e+00
     vertex  1.017826e+02  5.880000e+01  5.399708e+00
     vertex  1.023003e+02  5.880000e+01  5.917387e+00
   endloop
 endfacet
 facet normal -7.071068e-01  6.436328e-18  7.071068e-01
   outer loop
     vertex  1.023003e+02  6.300000e+01  5.917387e+00
     vertex  1.017826e+02  6.300000e+01  5.399708e+00
     vertex  1.017826e+02  5.880000e+01  5.399708e+00
   endloop
 endfacet
 facet normal -5.735764e-01  1.070655e-18  8.191520e-01
   outer loop
     vertex  1.029000e+02  6.300000e+01  6.337307e+00
     vertex  1.023003e+02  6.300000e+01  5.917387e+00
     vertex  1.023003e+02  5.880000e+01  5.917387e+00
   endloop
 endfacet
 facet normal -5.735764e-01  0.000000e+00  8.191520e-01
   outer loop
     vertex  1.029000e+02  6.300000e+01  6.337307e+00
     vertex  1.023003e+02  5.880000e+01  5.917387e+00
     vertex  1.029000e+02  5.880000e+01  6.337307e+00
   endloop
 endfacet
 facet normal -4.226183e-01 -3.733443e-18  9.063078e-01
   outer loop
     vertex  1.035635e+02  6.300000e+01  6.646709e+00
     vertex  1.029000e+02  6.300000e+01  6.337307e+00
     vertex  1.029000e+02  5.880000e+01  6.337307e+00
   endloop
 endfacet
 facet normal -4.226183e-01  0.000000e+00  9.063078e-01
   outer loop
     vertex  1.035635e+02  6.300000e+01  6.646709e+00
     vertex  1.029000e+02  5.880000e+01  6.337307e+00
     vertex  1.035635e+02  5.880000e+01  6.646709e+00
   endloop
 endfacet
 facet normal -2.588190e-01  0.000000e+00  9.659258e-01
   outer loop
     vertex  1.035635e+02  6.300000e+01  6.646709e+00
     vertex  1.035635e+02  5.880000e+01  6.646709e+00
     vertex  1.042707e+02  5.880000e+01  6.836193e+00
   endloop
 endfacet
 facet normal -2.588190e-01  0.000000e+00  9.659258e-01
   outer loop
     vertex  1.042707e+02  6.300000e+01  6.836193e+00
     vertex  1.035635e+02  6.300000e+01  6.646709e+00
     vertex  1.042707e+02  5.880000e+01  6.836193e+00
   endloop
 endfacet
 facet normal -8.715574e-02  6.384972e-19  9.961947e-01
   outer loop
     vertex  1.050000e+02  6.300000e+01  6.900000e+00
     vertex  1.042707e+02  6.300000e+01  6.836193e+00
     vertex  1.042707e+02  5.880000e+01  6.836193e+00
   endloop
 endfacet
 facet normal -8.715574e-02  0.000000e+00  9.961947e-01
   outer loop
     vertex  1.050000e+02  6.300000e+01  6.900000e+00
     vertex  1.042707e+02  5.880000e+01  6.836193e+00
     vertex  1.050000e+02  5.880000e+01  6.900000e+00
   endloop
 endfacet
 facet normal  0.000000e+00  1.000000e+00  0.000000e+00
   outer loop
     vertex  1.025487e+02  6.300000e+01  6.430796e-01
     vertex  1.023003e+02  6.300000e+01 -5.173867e-01
     vertex  1.017826e+02  6.300000e+01  2.920393e-04
   endloop
 endfacet
 facet normal  0.000000e+00  1.000000e+00  0.000000e+00
   outer loop
     vertex  1.029431e+02  6.300000e+01  2.486578e-01
     vertex  1.029000e+02  6.300000e+01 -9.373067e-01
     vertex  1.023003e+02  6.300000e+01 -5.173867e-01
   endloop
 endfacet
 facet normal  0.000000e+00  1.000000e+00  0.000000e+00
   outer loop
     vertex  1.029431e+02  6.300000e+01  2.486578e-01
     vertex  1.023003e+02  6.300000e+01 -5.173867e-01
     vertex  1.025487e+02  6.300000e+01  6.430796e-01
   endloop
 endfacet
 facet normal  0.000000e+00  1.000000e+00  0.000000e+00
   outer loop
     vertex  1.022287e+02  6.300000e+01  1.100000e+00
     vertex  1.017826e+02  6.300000e+01  2.920393e-04
     vertex  1.013627e+02  6.300000e+01  6.000000e-01
   endloop
 endfacet
 facet normal  0.000000e+00  1.000000e+00  0.000000e+00
   outer loop
     vertex  1.022287e+02  6.300000e+01  1.100000e+00
     vertex  1.025487e+02  6.300000e+01  6.430796e-01
     vertex  1.017826e+02  6.300000e+01  2.920393e-04
   endloop
 endfacet
 facet normal  0.000000e+00  1.000000e+00  0.000000e+00
   outer loop
     vertex  1.034000e+02  6.300000e+01 -7.128129e-02
     vertex  1.035635e+02  6.300000e+01 -1.246709e+00
     vertex  1.029000e+02  6.300000e+01 -9.373067e-01
   endloop
 endfacet
 facet normal  0.000000e+00  1.000000e+00  0.000000e+00
   outer loop
     vertex  1.034000e+02  6.300000e+01 -7.128129e-02
     vertex  1.029000e+02  6.300000e+01 -9.373067e-01
     vertex  1.029431e+02  6.300000e+01  2.486578e-01
   endloop
 endfacet
 facet normal  0.000000e+00  1.000000e+00  0.000000e+00
   outer loop
     vertex  1.019930e+02  6.300000e+01  1.605536e+00
     vertex  1.013627e+02  6.300000e+01  6.000000e-01
     vertex  1.010533e+02  6.300000e+01  1.263515e+00
   endloop
 endfacet
 facet normal  0.000000e+00  1.000000e+00  0.000000e+00
   outer loop
     vertex  1.019930e+02  6.300000e+01  1.605536e+00
     vertex  1.022287e+02  6.300000e+01  1.100000e+00
     vertex  1.013627e+02  6.300000e+01  6.000000e-01
   endloop
 endfacet
 facet normal  0.000000e+00  1.000000e+00  0.000000e+00
   outer loop
     vertex  1.039055e+02  6.300000e+01 -3.070164e-01
     vertex  1.035635e+02  6.300000e+01 -1.246709e+00
     vertex  1.034000e+02  6.300000e+01 -7.128129e-02
   endloop
 endfacet
 facet normal  0.000000e+00  1.000000e+00  0.000000e+00
   outer loop
     vertex  1.018486e+02  6.300000e+01  2.144326e+00
     vertex  1.010533e+02  6.300000e+01  1.263515e+00
     vertex  1.008638e+02  6.300000e+01  1.970678e+00
   endloop
 endfacet
 facet normal  0.000000e+00  1.000000e+00  0.000000e+00
   outer loop
     vertex  1.018486e+02  6.300000e+01  2.144326e+00
     vertex  1.019930e+02  6.300000e+01  1.605536e+00
     vertex  1.010533e+02  6.300000e+01  1.263515e+00
   endloop
 endfacet
 facet normal  0.000000e+00  1.000000e+00  0.000000e+00
   outer loop
     vertex  1.044443e+02  6.300000e+01 -4.513848e-01
     vertex  1.035635e+02  6.300000e+01 -1.246709e+00
     vertex  1.039055e+02  6.300000e+01 -3.070164e-01
   endloop
 endfacet
 facet normal  0.000000e+00  1.000000e+00  0.000000e+00
   outer loop
     vertex  1.044443e+02  6.300000e+01 -4.513848e-01
     vertex  1.042707e+02  6.300000e+01 -1.436193e+00
     vertex  1.035635e+02  6.300000e+01 -1.246709e+00
   endloop
 endfacet
 facet normal  0.000000e+00  1.000000e+00  0.000000e+00
   outer loop
     vertex  1.018000e+02  6.300000e+01  2.700000e+00
     vertex  1.008638e+02  6.300000e+01  1.970678e+00
     vertex  1.008000e+02  6.300000e+01  2.700000e+00
   endloop
 endfacet
 facet normal  0.000000e+00  1.000000e+00  0.000000e+00
   outer loop
     vertex  1.018000e+02  6.300000e+01  2.700000e+00
     vertex  1.018486e+02  6.300000e+01  2.144326e+00
     vertex  1.008638e+02  6.300000e+01  1.970678e+00
   endloop
 endfacet
 facet normal  0.000000e+00  1.000000e+00  0.000000e+00
   outer loop
     vertex  1.050000e+02  6.300000e+01 -5.000000e-01
     vertex  1.042707e+02  6.300000e+01 -1.436193e+00
     vertex  1.044443e+02  6.300000e+01 -4.513848e-01
   endloop
 endfacet
 facet normal  0.000000e+00  1.000000e+00  0.000000e+00
   outer loop
     vertex  1.050000e+02  6.300000e+01 -5.000000e-01
     vertex  1.050000e+02  6.300000e+01 -1.500000e+00
     vertex  1.042707e+02  6.300000e+01 -1.436193e+00
   endloop
 endfacet
 facet normal  0.000000e+00  1.000000e+00  0.000000e+00
   outer loop
     vertex  1.018486e+02  6.300000e+01  3.255674e+00
     vertex  1.008000e+02  6.300000e+01  2.700000e+00
     vertex  1.008638e+02  6.300000e+01  3.429322e+00
   endloop
 endfacet
 facet normal  0.000000e+00  1.000000e+00  0.000000e+00
   outer loop
     vertex  1.018486e+02  6.300000e+01  3.255674e+00
     vertex  1.018000e+02  6.300000e+01  2.700000e+00
     vertex  1.008000e+02  6.300000e+01  2.700000e+00
   endloop
 endfacet
 facet normal  0.000000e+00  1.000000e+00  0.000000e+00
   outer loop
     vertex  1.055557e+02  6.300000e+01 -4.513848e-01
     vertex  1.057293e+02  6.300000e+01 -1.436193e+00
     vertex  1.050000e+02  6.300000e+01 -1.500000e+00
   endloop
 endfacet
 facet normal  0.000000e+00  1.000000e+00  0.000000e+00
   outer loop
     vertex  1.055557e+02  6.300000e+01 -4.513848e-01
     vertex  1.050000e+02  6.300000e+01 -1.500000e+00
     vertex  1.050000e+02  6.300000e+01 -5.000000e-01
   endloop
 endfacet
 facet normal  0.000000e+00  1.000000e+00  0.000000e+00
   outer loop
     vertex  1.010533e+02  6.300000e+01  4.136485e+00
     vertex  1.018486e+02  6.300000e+01  3.255674e+00
     vertex  1.008638e+02  6.300000e+01  3.429322e+00
   endloop
 endfacet
 facet normal  0.000000e+00  1.000000e+00  0.000000e+00
   outer loop
     vertex  1.019930e+02  6.300000e+01  3.794464e+00
     vertex  1.018486e+02  6.300000e+01  3.255674e+00
     vertex  1.010533e+02  6.300000e+01  4.136485e+00
   endloop
 endfacet
 facet normal  0.000000e+00  1.000000e+00  0.000000e+00
   outer loop
     vertex  1.060945e+02  6.300000e+01 -3.070164e-01
     vertex  1.064365e+02  6.300000e+01 -1.246709e+00
     vertex  1.057293e+02  6.300000e+01 -1.436193e+00
   endloop
 endfacet
 facet normal  0.000000e+00  1.000000e+00  0.000000e+00
   outer loop
     vertex  1.060945e+02  6.300000e+01 -3.070164e-01
     vertex  1.057293e+02  6.300000e+01 -1.436193e+00
     vertex  1.055557e+02  6.300000e+01 -4.513848e-01
   endloop
 endfacet
 facet normal  0.000000e+00  1.000000e+00  0.000000e+00
   outer loop
     vertex  1.022287e+02  6.300000e+01  4.300000e+00
     vertex  1.019930e+02  6.300000e+01  3.794464e+00
     vertex  1.010533e+02  6.300000e+01  4.136485e+00
   endloop
 endfacet
 facet normal  0.000000e+00  1.000000e+00  0.000000e+00
   outer loop
     vertex  1.022287e+02  6.300000e+01  4.300000e+00
     vertex  1.010533e+02  6.300000e+01  4.136485e+00
     vertex  1.013627e+02  6.300000e+01  4.800000e+00
   endloop
 endfacet
 facet normal  0.000000e+00  1.000000e+00  0.000000e+00
   outer loop
     vertex  1.066000e+02  6.300000e+01 -7.128129e-02
     vertex  1.064365e+02  6.300000e+01 -1.246709e+00
     vertex  1.060945e+02  6.300000e+01 -3.070164e-01
   endloop
 endfacet
 facet normal  0.000000e+00  1.000000e+00  0.000000e+00
   outer loop
     vertex  1.066000e+02  6.300000e+01 -7.128129e-02
     vertex  1.071000e+02  6.300000e+01 -9.373067e-01
     vertex  1.064365e+02  6.300000e+01 -1.246709e+00
   endloop
 endfacet
 facet normal  0.000000e+00  1.000000e+00  0.000000e+00
   outer loop
     vertex  1.025487e+02  6.300000e+01  4.756920e+00
     vertex  1.013627e+02  6.300000e+01  4.800000e+00
     vertex  1.017826e+02  6.300000e+01  5.399708e+00
   endloop
 endfacet
 facet normal  0.000000e+00  1.000000e+00  0.000000e+00
   outer loop
     vertex  1.025487e+02  6.300000e+01  4.756920e+00
     vertex  1.022287e+02  6.300000e+01  4.300000e+00
     vertex  1.013627e+02  6.300000e+01  4.800000e+00
   endloop
 endfacet
 facet normal  0.000000e+00  1.000000e+00  0.000000e+00
   outer loop
     vertex  1.070569e+02  6.300000e+01  2.486578e-01
     vertex  1.076997e+02  6.300000e+01 -5.173867e-01
     vertex  1.071000e+02  6.300000e+01 -9.373067e-01
   endloop
 endfacet
 facet normal  0.000000e+00  1.000000e+00  0.000000e+00
   outer loop
     vertex  1.070569e+02  6.300000e+01  2.486578e-01
     vertex  1.071000e+02  6.300000e+01 -9.373067e-01
     vertex  1.066000e+02  6.300000e+01 -7.128129e-02
   endloop
 endfacet
 facet normal  0.000000e+00  1.000000e+00  0.000000e+00
   outer loop
     vertex  1.074513e+02  6.300000e+01  6.430796e-01
     vertex  1.076997e+02  6.300000e+01 -5.173867e-01
     vertex  1.070569e+02  6.300000e+01  2.486578e-01
   endloop
 endfacet
 facet normal  0.000000e+00  1.000000e+00  0.000000e+00
   outer loop
     vertex  1.023003e+02  6.300000e+01  5.917387e+00
     vertex  1.025487e+02  6.300000e+01  4.756920e+00
     vertex  1.017826e+02  6.300000e+01  5.399708e+00
   endloop
 endfacet
 facet normal  0.000000e+00  1.000000e+00  0.000000e+00
   outer loop
     vertex  1.023003e+02  6.300000e+01  5.917387e+00
     vertex  1.029431e+02  6.300000e+01  5.151342e+00
     vertex  1.025487e+02  6.300000e+01  4.756920e+00
   endloop
 endfacet
 facet normal  0.000000e+00  1.000000e+00  0.000000e+00
   outer loop
     vertex  1.082174e+02  6.300000e+01  2.920393e-04
     vertex  1.076997e+02  6.300000e+01 -5.173867e-01
     vertex  1.074513e+02  6.300000e+01  6.430796e-01
   endloop
 endfacet
 facet normal  0.000000e+00  1.000000e+00  0.000000e+00
   outer loop
     vertex  1.029000e+02  6.300000e+01  6.337307e+00
     vertex  1.029431e+02  6.300000e+01  5.151342e+00
     vertex  1.023003e+02  6.300000e+01  5.917387e+00
   endloop
 endfacet
 facet normal  0.000000e+00  1.000000e+00  0.000000e+00
   outer loop
     vertex  1.029000e+02  6.300000e+01  6.337307e+00
     vertex  1.034000e+02  6.300000e+01  5.471281e+00
     vertex  1.029431e+02  6.300000e+01  5.151342e+00
   endloop
 endfacet
 facet normal  0.000000e+00  1.000000e+00  0.000000e+00
   outer loop
     vertex  1.086373e+02  6.300000e+01  6.000000e-01
     vertex  1.074513e+02  6.300000e+01  6.430796e-01
     vertex  1.077713e+02  6.300000e+01  1.100000e+00
   endloop
 endfacet
 facet normal  0.000000e+00  1.000000e+00  0.000000e+00
   outer loop
     vertex  1.086373e+02  6.300000e+01  6.000000e-01
     vertex  1.082174e+02  6.300000e+01  2.920393e-04
     vertex  1.074513e+02  6.300000e+01  6.430796e-01
   endloop
 endfacet
 facet normal  0.000000e+00  1.000000e+00  0.000000e+00
   outer loop
     vertex  1.080070e+02  6.300000e+01  1.605536e+00
     vertex  1.086373e+02  6.300000e+01  6.000000e-01
     vertex  1.077713e+02  6.300000e+01  1.100000e+00
   endloop
 endfacet
 facet normal  0.000000e+00  1.000000e+00  0.000000e+00
   outer loop
     vertex  1.035635e+02  6.300000e+01  6.646709e+00
     vertex  1.034000e+02  6.300000e+01  5.471281e+00
     vertex  1.029000e+02  6.300000e+01  6.337307e+00
   endloop
 endfacet
 facet normal  0.000000e+00  1.000000e+00  0.000000e+00
   outer loop
     vertex  1.035635e+02  6.300000e+01  6.646709e+00
     vertex  1.039055e+02  6.300000e+01  5.707016e+00
     vertex  1.034000e+02  6.300000e+01  5.471281e+00
   endloop
 endfacet
 facet normal  0.000000e+00  1.000000e+00  0.000000e+00
   outer loop
     vertex  1.089467e+02  6.300000e+01  1.263515e+00
     vertex  1.086373e+02  6.300000e+01  6.000000e-01
     vertex  1.080070e+02  6.300000e+01  1.605536e+00
   endloop
 endfacet
 facet normal  0.000000e+00  1.000000e+00  0.000000e+00
   outer loop
     vertex  1.081514e+02  6.300000e+01  2.144326e+00
     vertex  1.089467e+02  6.300000e+01  1.263515e+00
     vertex  1.080070e+02  6.300000e+01  1.605536e+00
   endloop
 endfacet
 facet normal  0.000000e+00  1.000000e+00  0.000000e+00
   outer loop
     vertex  1.042707e+02  6.300000e+01  6.836193e+00
     vertex  1.039055e+02  6.300000e+01  5.707016e+00
     vertex  1.035635e+02  6.300000e+01  6.646709e+00
   endloop
 endfacet
 facet normal  0.000000e+00  1.000000e+00  0.000000e+00
   outer loop
     vertex  1.042707e+02  6.300000e+01  6.836193e+00
     vertex  1.044443e+02  6.300000e+01  5.851385e+00
     vertex  1.039055e+02  6.300000e+01  5.707016e+00
   endloop
 endfacet
 facet normal  0.000000e+00  1.000000e+00  0.000000e+00
   outer loop
     vertex  1.091362e+02  6.300000e+01  1.970678e+00
     vertex  1.089467e+02  6.300000e+01  1.263515e+00
     vertex  1.081514e+02  6.300000e+01  2.144326e+00
   endloop
 endfacet
 facet normal  0.000000e+00  1.000000e+00  0.000000e+00
   outer loop
     vertex  1.050000e+02  6.300000e+01  6.900000e+00
     vertex  1.044443e+02  6.300000e+01  5.851385e+00
     vertex  1.042707e+02  6.300000e+01  6.836193e+00
   endloop
 endfacet
 facet normal  0.000000e+00  1.000000e+00  0.000000e+00
   outer loop
     vertex  1.050000e+02  6.300000e+01  6.900000e+00
     vertex  1.050000e+02  6.300000e+01  5.900000e+00
     vertex  1.044443e+02  6.300000e+01  5.851385e+00
   endloop
 endfacet
 facet normal  0.000000e+00  1.000000e+00  0.000000e+00
   outer loop
     vertex  1.092000e+02  6.300000e+01  2.700000e+00
     vertex  1.081514e+02  6.300000e+01  2.144326e+00
     vertex  1.082000e+02  6.300000e+01  2.700000e+00
   endloop
 endfacet
 facet normal  0.000000e+00  1.000000e+00  0.000000e+00
   outer loop
     vertex  1.092000e+02  6.300000e+01  2.700000e+00
     vertex  1.091362e+02  6.300000e+01  1.970678e+00
     vertex  1.081514e+02  6.300000e+01  2.144326e+00
   endloop
 endfacet
 facet normal  0.000000e+00  1.000000e+00  0.000000e+00
   outer loop
     vertex  1.057293e+02  6.300000e+01  6.836193e+00
     vertex  1.055557e+02  6.300000e+01  5.851385e+00
     vertex  1.050000e+02  6.300000e+01  5.900000e+00
   endloop
 endfacet
 facet normal  0.000000e+00  1.000000e+00  0.000000e+00
   outer loop
     vertex  1.057293e+02  6.300000e+01  6.836193e+00
     vertex  1.060945e+02  6.300000e+01  5.707016e+00
     vertex  1.055557e+02  6.300000e+01  5.851385e+00
   endloop
 endfacet
 facet normal  0.000000e+00  1.000000e+00  0.000000e+00
   outer loop
     vertex  1.057293e+02  6.300000e+01  6.836193e+00
     vertex  1.050000e+02  6.300000e+01  5.900000e+00
     vertex  1.050000e+02  6.300000e+01  6.900000e+00
   endloop
 endfacet
 facet normal  0.000000e+00  1.000000e+00  0.000000e+00
   outer loop
     vertex  1.091362e+02  6.300000e+01  3.429322e+00
     vertex  1.082000e+02  6.300000e+01  2.700000e+00
     vertex  1.081514e+02  6.300000e+01  3.255674e+00
   endloop
 endfacet
 facet normal  0.000000e+00  1.000000e+00  0.000000e+00
   outer loop
     vertex  1.091362e+02  6.300000e+01  3.429322e+00
     vertex  1.092000e+02  6.300000e+01  2.700000e+00
     vertex  1.082000e+02  6.300000e+01  2.700000e+00
   endloop
 endfacet
 facet normal  0.000000e+00  1.000000e+00  0.000000e+00
   outer loop
     vertex  1.064365e+02  6.300000e+01  6.646709e+00
     vertex  1.066000e+02  6.300000e+01  5.471281e+00
     vertex  1.060945e+02  6.300000e+01  5.707016e+00
   endloop
 endfacet
 facet normal  0.000000e+00  1.000000e+00  0.000000e+00
   outer loop
     vertex  1.064365e+02  6.300000e+01  6.646709e+00
     vertex  1.060945e+02  6.300000e+01  5.707016e+00
     vertex  1.057293e+02  6.300000e+01  6.836193e+00
   endloop
 endfacet
 facet normal  0.000000e+00  1.000000e+00  0.000000e+00
   outer loop
     vertex  1.089467e+02  6.300000e+01  4.136485e+00
     vertex  1.091362e+02  6.300000e+01  3.429322e+00
     vertex  1.081514e+02  6.300000e+01  3.255674e+00
   endloop
 endfacet
 facet normal  0.000000e+00  1.000000e+00  0.000000e+00
   outer loop
     vertex  1.089467e+02  6.300000e+01  4.136485e+00
     vertex  1.081514e+02  6.300000e+01  3.255674e+00
     vertex  1.080070e+02  6.300000e+01  3.794464e+00
   endloop
 endfacet
 facet normal  0.000000e+00  1.000000e+00  0.000000e+00
   outer loop
     vertex  1.071000e+02  6.300000e+01  6.337307e+00
     vertex  1.066000e+02  6.300000e+01  5.471281e+00
     vertex  1.064365e+02  6.300000e+01  6.646709e+00
   endloop
 endfacet
 facet normal  0.000000e+00  1.000000e+00  0.000000e+00
   outer loop
     vertex  1.086373e+02  6.300000e+01  4.800000e+00
     vertex  1.089467e+02  6.300000e+01  4.136485e+00
     vertex  1.080070e+02  6.300000e+01  3.794464e+00
   endloop
 endfacet
 facet normal  0.000000e+00  1.000000e+00  0.000000e+00
   outer loop
     vertex  1.086373e+02  6.300000e+01  4.800000e+00
     vertex  1.080070e+02  6.300000e+01  3.794464e+00
     vertex  1.077713e+02  6.300000e+01  4.300000e+00
   endloop
 endfacet
 facet normal  0.000000e+00  1.000000e+00  0.000000e+00
   outer loop
     vertex  1.076997e+02  6.300000e+01  5.917387e+00
     vertex  1.066000e+02  6.300000e+01  5.471281e+00
     vertex  1.071000e+02  6.300000e+01  6.337307e+00
   endloop
 endfacet
 facet normal  0.000000e+00  1.000000e+00  0.000000e+00
   outer loop
     vertex  1.076997e+02  6.300000e+01  5.917387e+00
     vertex  1.070569e+02  6.300000e+01  5.151342e+00
     vertex  1.066000e+02  6.300000e+01  5.471281e+00
   endloop
 endfacet
 facet normal  0.000000e+00  1.000000e+00  0.000000e+00
   outer loop
     vertex  1.076997e+02  6.300000e+01  5.917387e+00
     vertex  1.074513e+02  6.300000e+01  4.756920e+00
     vertex  1.070569e+02  6.300000e+01  5.151342e+00
   endloop
 endfacet
 facet normal  0.000000e+00  1.000000e+00  0.000000e+00
   outer loop
     vertex  1.082174e+02  6.300000e+01  5.399708e+00
     vertex  1.086373e+02  6.300000e+01  4.800000e+00
     vertex  1.077713e+02  6.300000e+01  4.300000e+00
   endloop
 endfacet
 facet normal  0.000000e+00  1.000000e+00  0.000000e+00
   outer loop
     vertex  1.082174e+02  6.300000e+01  5.399708e+00
     vertex  1.074513e+02  6.300000e+01  4.756920e+00
     vertex  1.076997e+02  6.300000e+01  5.917387e+00
   endloop
 endfacet
 facet normal  0.000000e+00  1.000000e+00  0.000000e+00
   outer loop
     vertex  1.082174e+02  6.300000e+01  5.399708e+00
     vertex  1.077713e+02  6.300000e+01  4.300000e+00
     vertex  1.074513e+02  6.300000e+01  4.756920e+00
   endloop
 endfacet
 facet normal  0.000000e+00 -1.000000e+00  0.000000e+00
   outer loop
     vertex  1.025487e+02  5.880000e+01  6.430796e-01
     vertex  1.017826e+02  5.880000e+01  2.920393e-04
     vertex  1.023003e+02  5.880000e+01 -5.173867e-01
   endloop
 endfacet
 facet normal  0.000000e+00 -1.000000e+00  0.000000e+00
   outer loop
     vertex  1.029431e+02  5.880000e+01  2.486578e-01
     vertex  1.023003e+02  5.880000e+01 -5.173867e-01
     vertex  1.029000e+02  5.880000e+01 -9.373067e-01
   endloop
 endfacet
 facet normal -0.000000e+00 -1.000000e+00  0.000000e+00
   outer loop
     vertex  1.029431e+02  5.880000e+01  2.486578e-01
     vertex  1.025487e+02  5.880000e+01  6.430796e-01
     vertex  1.023003e+02  5.880000e+01 -5.173867e-01
   endloop
 endfacet
 facet normal  0.000000e+00 -1.000000e+00  0.000000e+00
   outer loop
     vertex  1.022287e+02  5.880000e+01  1.100000e+00
     vertex  1.013627e+02  5.880000e+01  6.000000e-01
     vertex  1.017826e+02  5.880000e+01  2.920393e-04
   endloop
 endfacet
 facet normal  0.000000e+00 -1.000000e+00 -0.000000e+00
   outer loop
     vertex  1.022287e+02  5.880000e+01  1.100000e+00
     vertex  1.017826e+02  5.880000e+01  2.920393e-04
     vertex  1.025487e+02  5.880000e+01  6.430796e-01
   endloop
 endfacet
 facet normal  0.000000e+00 -1.000000e+00 -0.000000e+00
   outer loop
     vertex  1.034000e+02  5.880000e+01 -7.128129e-02
     vertex  1.029000e+02  5.880000e+01 -9.373067e-01
     vertex  1.035635e+02  5.880000e+01 -1.246709e+00
   endloop
 endfacet
 facet normal -0.000000e+00 -1.000000e+00  0.000000e+00
   outer loop
     vertex  1.034000e+02  5.880000e+01 -7.128129e-02
     vertex  1.029431e+02  5.880000e+01  2.486578e-01
     vertex  1.029000e+02  5.880000e+01 -9.373067e-01
   endloop
 endfacet
 facet normal  0.000000e+00 -1.000000e+00  0.000000e+00
   outer loop
     vertex  1.019930e+02  5.880000e+01  1.605536e+00
     vertex  1.010533e+02  5.880000e+01  1.263515e+00
     vertex  1.013627e+02  5.880000e+01  6.000000e-01
   endloop
 endfacet
 facet normal  0.000000e+00 -1.000000e+00 -0.000000e+00
   outer loop
     vertex  1.019930e+02  5.880000e+01  1.605536e+00
     vertex  1.013627e+02  5.880000e+01  6.000000e-01
     vertex  1.022287e+02  5.880000e+01  1.100000e+00
   endloop
 endfacet
 facet normal -0.000000e+00 -1.000000e+00  0.000000e+00
   outer loop
     vertex  1.039055e+02  5.880000e+01 -3.070164e-01
     vertex  1.034000e+02  5.880000e+01 -7.128129e-02
     vertex  1.035635e+02  5.880000e+01 -1.246709e+00
   endloop
 endfacet
 facet normal  0.000000e+00 -1.000000e+00  0.000000e+00
   outer loop
     vertex  1.018486e+02  5.880000e+01  2.144326e+00
     vertex  1.008638e+02  5.880000e+01  1.970678e+00
     vertex  1.010533e+02  5.880000e+01  1.263515e+00
   endloop
 endfacet
 facet normal  0.000000e+00 -1.000000e+00 -0.000000e+00
   outer loop
     vertex  1.018486e+02  5.880000e+01  2.144326e+00
     vertex  1.010533e+02  5.880000e+01  1.263515e+00
     vertex  1.019930e+02  5.880000e+01  1.605536e+00
   endloop
 endfacet
 facet normal -0.000000e+00 -1.000000e+00  0.000000e+00
   outer loop
     vertex  1.044443e+02  5.880000e+01 -4.513848e-01
     vertex  1.039055e+02  5.880000e+01 -3.070164e-01
     vertex  1.035635e+02  5.880000e+01 -1.246709e+00
   endloop
 endfacet
 facet normal  0.000000e+00 -1.000000e+00  0.000000e+00
   outer loop
     vertex  1.044443e+02  5.880000e+01 -4.513848e-01
     vertex  1.035635e+02  5.880000e+01 -1.246709e+00
     vertex  1.042707e+02  5.880000e+01 -1.436193e+00
   endloop
 endfacet
 facet normal  0.000000e+00 -1.000000e+00  0.000000e+00
   outer loop
     vertex  1.018000e+02  5.880000e+01  2.700000e+00
     vertex  1.008000e+02  5.880000e+01  2.700000e+00
     vertex  1.008638e+02  5.880000e+01  1.970678e+00
   endloop
 endfacet
 facet normal  0.000000e+00 -1.000000e+00 -0.000000e+00
   outer loop
     vertex  1.018000e+02  5.880000e+01  2.700000e+00
     vertex  1.008638e+02  5.880000e+01  1.970678e+00
     vertex  1.018486e+02  5.880000e+01  2.144326e+00
   endloop
 endfacet
 facet normal -0.000000e+00 -1.000000e+00  0.000000e+00
   outer loop
     vertex  1.050000e+02  5.880000e+01 -5.000000e-01
     vertex  1.044443e+02  5.880000e+01 -4.513848e-01
     vertex  1.042707e+02  5.880000e+01 -1.436193e+00
   endloop
 endfacet
 facet normal  0.000000e+00 -1.000000e+00 -0.000000e+00
   outer loop
     vertex  1.050000e+02  5.880000e+01 -5.000000e-01
     vertex  1.042707e+02  5.880000e+01 -1.436193e+00
     vertex  1.050000e+02  5.880000e+01 -1.500000e+00
   endloop
 endfacet
 facet normal -0.000000e+00 -1.000000e+00  0.000000e+00
   outer loop
     vertex  1.018486e+02  5.880000e+01  3.255674e+00
     vertex  1.008638e+02  5.880000e+01  3.429322e+00
     vertex  1.008000e+02  5.880000e+01  2.700000e+00
   endloop
 endfacet
 facet normal  0.000000e+00 -1.000000e+00  0.000000e+00
   outer loop
     vertex  1.018486e+02  5.880000e+01  3.255674e+00
     vertex  1.008000e+02  5.880000e+01  2.700000e+00
     vertex  1.018000e+02  5.880000e+01  2.700000e+00
   endloop
 endfacet
 facet normal  0.000000e+00 -1.000000e+00 -0.000000e+00
   outer loop
     vertex  1.055557e+02  5.880000e+01 -4.513848e-01
     vertex  1.050000e+02  5.880000e+01 -1.500000e+00
     vertex  1.057293e+02  5.880000e+01 -1.436193e+00
   endloop
 endfacet
 facet normal  0.000000e+00 -1.000000e+00  0.000000e+00
   outer loop
     vertex  1.055557e+02  5.880000e+01 -4.513848e-01
     vertex  1.050000e+02  5.880000e+01 -5.000000e-01
     vertex  1.050000e+02  5.880000e+01 -1.500000e+00
   endloop
 endfacet
 facet normal  0.000000e+00 -1.000000e+00 -0.000000e+00
   outer loop
     vertex  1.010533e+02  5.880000e+01  4.136485e+00
     vertex  1.008638e+02  5.880000e+01  3.429322e+00
     vertex  1.018486e+02  5.880000e+01  3.255674e+00
   endloop
 endfacet
 facet normal -0.000000e+00 -1.000000e+00  0.000000e+00
   outer loop
     vertex  1.019930e+02  5.880000e+01  3.794464e+00
     vertex  1.010533e+02  5.880000e+01  4.136485e+00
     vertex  1.018486e+02  5.880000e+01  3.255674e+00
   endloop
 endfacet
 facet normal  0.000000e+00 -1.000000e+00 -0.000000e+00
   outer loop
     vertex  1.060945e+02  5.880000e+01 -3.070164e-01
     vertex  1.057293e+02  5.880000e+01 -1.436193e+00
     vertex  1.064365e+02  5.880000e+01 -1.246709e+00
   endloop
 endfacet
 facet normal  0.000000e+00 -1.000000e+00  0.000000e+00
   outer loop
     vertex  1.060945e+02  5.880000e+01 -3.070164e-01
     vertex  1.055557e+02  5.880000e+01 -4.513848e-01
     vertex  1.057293e+02  5.880000e+01 -1.436193e+00
   endloop
 endfacet
 facet normal  0.000000e+00 -1.000000e+00  0.000000e+00
   outer loop
     vertex  1.022287e+02  5.880000e+01  4.300000e+00
     vertex  1.010533e+02  5.880000e+01  4.136485e+00
     vertex  1.019930e+02  5.880000e+01  3.794464e+00
   endloop
 endfacet
 facet normal -0.000000e+00 -1.000000e+00  0.000000e+00
   outer loop
     vertex  1.022287e+02  5.880000e+01  4.300000e+00
     vertex  1.013627e+02  5.880000e+01  4.800000e+00
     vertex  1.010533e+02  5.880000e+01  4.136485e+00
   endloop
 endfacet
 facet normal  0.000000e+00 -1.000000e+00  0.000000e+00
   outer loop
     vertex  1.066000e+02  5.880000e+01 -7.128129e-02
     vertex  1.060945e+02  5.880000e+01 -3.070164e-01
     vertex  1.064365e+02  5.880000e+01 -1.246709e+00
   endloop
 endfacet
 facet normal  0.000000e+00 -1.000000e+00 -0.000000e+00
   outer loop
     vertex  1.066000e+02  5.880000e+01 -7.128129e-02
     vertex  1.064365e+02  5.880000e+01 -1.246709e+00
     vertex  1.071000e+02  5.880000e+01 -9.373067e-01
   endloop
 endfacet
 facet normal  0.000000e+00 -1.000000e+00  0.000000e+00
   outer loop
     vertex  1.025487e+02  5.880000e+01  4.756920e+00
     vertex  1.017826e+02  5.880000e+01  5.399708e+00
     vertex  1.013627e+02  5.880000e+01  4.800000e+00
   endloop
 endfacet
 facet normal -0.000000e+00 -1.000000e+00  0.000000e+00
   outer loop
     vertex  1.025487e+02  5.880000e+01  4.756920e+00
     vertex  1.013627e+02  5.880000e+01  4.800000e+00
     vertex  1.022287e+02  5.880000e+01  4.300000e+00
   endloop
 endfacet
 facet normal  0.000000e+00 -1.000000e+00  0.000000e+00
   outer loop
     vertex  1.070569e+02  5.880000e+01  2.486578e-01
     vertex  1.071000e+02  5.880000e+01 -9.373067e-01
     vertex  1.076997e+02  5.880000e+01 -5.173867e-01
   endloop
 endfacet
 facet normal  0.000000e+00 -1.000000e+00 -0.000000e+00
   outer loop
     vertex  1.070569e+02  5.880000e+01  2.486578e-01
     vertex  1.066000e+02  5.880000e+01 -7.128129e-02
     vertex  1.071000e+02  5.880000e+01 -9.373067e-01
   endloop
 endfacet
 facet normal  0.000000e+00 -1.000000e+00 -0.000000e+00
   outer loop
     vertex  1.074513e+02  5.880000e+01  6.430796e-01
     vertex  1.070569e+02  5.880000e+01  2.486578e-01
     vertex  1.076997e+02  5.880000e+01 -5.173867e-01
   endloop
 endfacet
 facet normal  0.000000e+00 -1.000000e+00 -0.000000e+00
   outer loop
     vertex  1.023003e+02  5.880000e+01  5.917387e+00
     vertex  1.017826e+02  5.880000e+01  5.399708e+00
     vertex  1.025487e+02  5.880000e+01  4.756920e+00
   endloop
 endfacet
 facet normal  0.000000e+00 -1.000000e+00  0.000000e+00
   outer loop
     vertex  1.023003e+02  5.880000e+01  5.917387e+00
     vertex  1.025487e+02  5.880000e+01  4.756920e+00
     vertex  1.029431e+02  5.880000e+01  5.151342e+00
   endloop
 endfacet
 facet normal -0.000000e+00 -1.000000e+00  0.000000e+00
   outer loop
     vertex  1.082174e+02  5.880000e+01  2.920393e-04
     vertex  1.074513e+02  5.880000e+01  6.430796e-01
     vertex  1.076997e+02  5.880000e+01 -5.173867e-01
   endloop
 endfacet
 facet normal  0.000000e+00 -1.000000e+00 -0.000000e+00
   outer loop
     vertex  1.029000e+02  5.880000e+01  6.337307e+00
     vertex  1.023003e+02  5.880000e+01  5.917387e+00
     vertex  1.029431e+02  5.880000e+01  5.151342e+00
   endloop
 endfacet
 facet normal  0.000000e+00 -1.000000e+00  0.000000e+00
   outer loop
     vertex  1.029000e+02  5.880000e+01  6.337307e+00
     vertex  1.029431e+02  5.880000e+01  5.151342e+00
     vertex  1.034000e+02  5.880000e+01  5.471281e+00
   endloop
 endfacet
 facet normal  0.000000e+00 -1.000000e+00  0.000000e+00
   outer loop
     vertex  1.086373e+02  5.880000e+01  6.000000e-01
     vertex  1.077713e+02  5.880000e+01  1.100000e+00
     vertex  1.074513e+02  5.880000e+01  6.430796e-01
   endloop
 endfacet
 facet normal -0.000000e+00 -1.000000e+00  0.000000e+00
   outer loop
     vertex  1.086373e+02  5.880000e+01  6.000000e-01
     vertex  1.074513e+02  5.880000e+01  6.430796e-01
     vertex  1.082174e+02  5.880000e+01  2.920393e-04
   endloop
 endfacet
 facet normal  0.000000e+00 -1.000000e+00 -0.000000e+00
   outer loop
     vertex  1.080070e+02  5.880000e+01  1.605536e+00
     vertex  1.077713e+02  5.880000e+01  1.100000e+00
     vertex  1.086373e+02  5.880000e+01  6.000000e-01
   endloop
 endfacet
 facet normal  0.000000e+00 -1.000000e+00  0.000000e+00
   outer loop
     vertex  1.035635e+02  5.880000e+01  6.646709e+00
     vertex  1.029000e+02  5.880000e+01  6.337307e+00
     vertex  1.034000e+02  5.880000e+01  5.471281e+00
   endloop
 endfacet
 facet normal  0.000000e+00 -1.000000e+00 -0.000000e+00
   outer loop
     vertex  1.035635e+02  5.880000e+01  6.646709e+00
     vertex  1.034000e+02  5.880000e+01  5.471281e+00
     vertex  1.039055e+02  5.880000e+01  5.707016e+00
   endloop
 endfacet
 facet normal -0.000000e+00 -1.000000e+00  0.000000e+00
   outer loop
     vertex  1.089467e+02  5.880000e+01  1.263515e+00
     vertex  1.080070e+02  5.880000e+01  1.605536e+00
     vertex  1.086373e+02  5.880000e+01  6.000000e-01
   endloop
 endfacet
 facet normal  0.000000e+00 -1.000000e+00 -0.000000e+00
   outer loop
     vertex  1.081514e+02  5.880000e+01  2.144326e+00
     vertex  1.080070e+02  5.880000e+01  1.605536e+00
     vertex  1.089467e+02  5.880000e+01  1.263515e+00
   endloop
 endfacet
 facet normal  0.000000e+00 -1.000000e+00  0.000000e+00
   outer loop
     vertex  1.042707e+02  5.880000e+01  6.836193e+00
     vertex  1.035635e+02  5.880000e+01  6.646709e+00
     vertex  1.039055e+02  5.880000e+01  5.707016e+00
   endloop
 endfacet
 facet normal  0.000000e+00 -1.000000e+00 -0.000000e+00
   outer loop
     vertex  1.042707e+02  5.880000e+01  6.836193e+00
     vertex  1.039055e+02  5.880000e+01  5.707016e+00
     vertex  1.044443e+02  5.880000e+01  5.851385e+00
   endloop
 endfacet
 facet normal -0.000000e+00 -1.000000e+00  0.000000e+00
   outer loop
     vertex  1.091362e+02  5.880000e+01  1.970678e+00
     vertex  1.081514e+02  5.880000e+01  2.144326e+00
     vertex  1.089467e+02  5.880000e+01  1.263515e+00
   endloop
 endfacet
 facet normal  0.000000e+00 -1.000000e+00  0.000000e+00
   outer loop
     vertex  1.050000e+02  5.880000e+01  6.900000e+00
     vertex  1.042707e+02  5.880000e+01  6.836193e+00
     vertex  1.044443e+02  5.880000e+01  5.851385e+00
   endloop
 endfacet
 facet normal  0.000000e+00 -1.000000e+00 -0.000000e+00
   outer loop
     vertex  1.050000e+02  5.880000e+01  6.900000e+00
     vertex  1.044443e+02  5.880000e+01  5.851385e+00
     vertex  1.050000e+02  5.880000e+01  5.900000e+00
   endloop
 endfacet
 facet normal  0.000000e+00 -1.000000e+00  0.000000e+00
   outer loop
     vertex  1.092000e+02  5.880000e+01  2.700000e+00
     vertex  1.082000e+02  5.880000e+01  2.700000e+00
     vertex  1.081514e+02  5.880000e+01  2.144326e+00
   endloop
 endfacet
 facet normal  0.000000e+00 -1.000000e+00  0.000000e+00
   outer loop
     vertex  1.092000e+02  5.880000e+01  2.700000e+00
     vertex  1.081514e+02  5.880000e+01  2.144326e+00
     vertex  1.091362e+02  5.880000e+01  1.970678e+00
   endloop
 endfacet
 facet normal  0.000000e+00 -1.000000e+00  0.000000e+00
   outer loop
     vertex  1.057293e+02  5.880000e+01  6.836193e+00
     vertex  1.050000e+02  5.880000e+01  5.900000e+00
     vertex  1.055557e+02  5.880000e+01  5.851385e+00
   endloop
 endfacet
 facet normal  0.000000e+00 -1.000000e+00 -0.000000e+00
   outer loop
     vertex  1.057293e+02  5.880000e+01  6.836193e+00
     vertex  1.055557e+02  5.880000e+01  5.851385e+00
     vertex  1.060945e+02  5.880000e+01  5.707016e+00
   endloop
 endfacet
 facet normal -0.000000e+00 -1.000000e+00  0.000000e+00
   outer loop
     vertex  1.057293e+02  5.880000e+01  6.836193e+00
     vertex  1.050000e+02  5.880000e+01  6.900000e+00
     vertex  1.050000e+02  5.880000e+01  5.900000e+00
   endloop
 endfacet
 facet normal  0.000000e+00 -1.000000e+00  0.000000e+00
   outer loop
     vertex  1.091362e+02  5.880000e+01  3.429322e+00
     vertex  1.081514e+02  5.880000e+01  3.255674e+00
     vertex  1.082000e+02  5.880000e+01  2.700000e+00
   endloop
 endfacet
 facet normal  0.000000e+00 -1.000000e+00 -0.000000e+00
   outer loop
     vertex  1.091362e+02  5.880000e+01  3.429322e+00
     vertex  1.082000e+02  5.880000e+01  2.700000e+00
     vertex  1.092000e+02  5.880000e+01  2.700000e+00
   endloop
 endfacet
 facet normal  0.000000e+00 -1.000000e+00 -0.000000e+00
   outer loop
     vertex  1.064365e+02  5.880000e+01  6.646709e+00
     vertex  1.060945e+02  5.880000e+01  5.707016e+00
     vertex  1.066000e+02  5.880000e+01  5.471281e+00
   endloop
 endfacet
 facet normal -0.000000e+00 -1.000000e+00  0.000000e+00
   outer loop
     vertex  1.064365e+02  5.880000e+01  6.646709e+00
     vertex  1.057293e+02  5.880000e+01  6.836193e+00
     vertex  1.060945e+02  5.880000e+01  5.707016e+00
   endloop
 endfacet
 facet normal  0.000000e+00 -1.000000e+00 -0.000000e+00
   outer loop
     vertex  1.089467e+02  5.880000e+01  4.136485e+00
     vertex  1.081514e+02  5.880000e+01  3.255674e+00
     vertex  1.091362e+02  5.880000e+01  3.429322e+00
   endloop
 endfacet
 facet normal  0.000000e+00 -1.000000e+00  0.000000e+00
   outer loop
     vertex  1.089467e+02  5.880000e+01  4.136485e+00
     vertex  1.080070e+02  5.880000e+01  3.794464e+00
     vertex  1.081514e+02  5.880000e+01  3.255674e+00
   endloop
 endfacet
 facet normal -0.000000e+00 -1.000000e+00  0.000000e+00
   outer loop
     vertex  1.071000e+02  5.880000e+01  6.337307e+00
     vertex  1.064365e+02  5.880000e+01  6.646709e+00
     vertex  1.066000e+02  5.880000e+01  5.471281e+00
   endloop
 endfacet
 facet normal  0.000000e+00 -1.000000e+00 -0.000000e+00
   outer loop
     vertex  1.086373e+02  5.880000e+01  4.800000e+00
     vertex  1.080070e+02  5.880000e+01  3.794464e+00
     vertex  1.089467e+02  5.880000e+01  4.136485e+00
   endloop
 endfacet
 facet normal  0.000000e+00 -1.000000e+00  0.000000e+00
   outer loop
     vertex  1.086373e+02  5.880000e+01  4.800000e+00
     vertex  1.077713e+02  5.880000e+01  4.300000e+00
     vertex  1.080070e+02  5.880000e+01  3.794464e+00
   endloop
 endfacet
 facet normal -0.000000e+00 -1.000000e+00  0.000000e+00
   outer loop
     vertex  1.076997e+02  5.880000e+01  5.917387e+00
     vertex  1.071000e+02  5.880000e+01  6.337307e+00
     vertex  1.066000e+02  5.880000e+01  5.471281e+00
   endloop
 endfacet
 facet normal  0.000000e+00 -1.000000e+00  0.000000e+00
   outer loop
     vertex  1.076997e+02  5.880000e+01  5.917387e+00
     vertex  1.066000e+02  5.880000e+01  5.471281e+00
     vertex  1.070569e+02  5.880000e+01  5.151342e+00
   endloop
 endfacet
 facet normal  0.000000e+00 -1.000000e+00  0.000000e+00
   outer loop
     vertex  1.076997e+02  5.880000e+01  5.917387e+00
     vertex  1.070569e+02  5.880000e+01  5.151342e+00
     vertex  1.074513e+02  5.880000e+01  4.756920e+00
   endloop
 endfacet
 facet normal  0.000000e+00 -1.000000e+00 -0.000000e+00
   outer loop
     vertex  1.082174e+02  5.880000e+01  5.399708e+00
     vertex  1.077713e+02  5.880000e+01  4.300000e+00
     vertex  1.086373e+02  5.880000e+01  4.800000e+00
   endloop
 endfacet
 facet normal -0.000000e+00 -1.000000e+00  0.000000e+00
   outer loop
     vertex  1.082174e+02  5.880000e+01  5.399708e+00
     vertex  1.076997e+02  5.880000e+01  5.917387e+00
     vertex  1.074513e+02  5.880000e+01  4.756920e+00
   endloop
 endfacet
 facet normal  0.000000e+00 -1.000000e+00  0.000000e+00
   outer loop
     vertex  1.082174e+02  5.880000e+01  5.399708e+00
     vertex  1.074513e+02  5.880000e+01  4.756920e+00
     vertex  1.077713e+02  5.880000e+01  4.300000e+00
   endloop
 endfacet
 facet normal -8.715574e-02  4.047782e-19 -9.961947e-01
   outer loop
     vertex  1.055557e+02  6.300000e+01  5.851385e+00
     vertex  1.050000e+02  5.880000e+01  5.900000e+00
     vertex  1.050000e+02  6.300000e+01  5.900000e+00
   endloop
 endfacet
 facet normal -8.715574e-02 -0.000000e+00 -9.961947e-01
   outer loop
     vertex  1.055557e+02  6.300000e+01  5.851385e+00
     vertex  1.055557e+02  5.880000e+01  5.851385e+00
     vertex  1.050000e+02  5.880000e+01  5.900000e+00
   endloop
 endfacet
 facet normal -2.588190e-01 -0.000000e+00 -9.659258e-01
   outer loop
     vertex  1.060945e+02  6.300000e+01  5.707016e+00
     vertex  1.060945e+02  5.880000e+01  5.707016e+00
     vertex  1.055557e+02  5.880000e+01  5.851385e+00
   endloop
 endfacet
 facet normal -2.588190e-01 -1.442847e-18 -9.659258e-01
   outer loop
     vertex  1.060945e+02  6.300000e+01  5.707016e+00
     vertex  1.055557e+02  5.880000e+01  5.851385e+00
     vertex  1.055557e+02  6.300000e+01  5.851385e+00
   endloop
 endfacet
 facet normal -4.226183e-01 -0.000000e+00 -9.063078e-01
   outer loop
     vertex  1.066000e+02  6.300000e+01  5.471281e+00
     vertex  1.066000e+02  5.880000e+01  5.471281e+00
     vertex  1.060945e+02  5.880000e+01  5.707016e+00
   endloop
 endfacet
 facet normal -5.735764e-01 -0.000000e+00 -8.191520e-01
   outer loop
     vertex  1.066000e+02  6.300000e+01  5.471281e+00
     vertex  1.070569e+02  5.880000e+01  5.151342e+00
     vertex  1.066000e+02  5.880000e+01  5.471281e+00
   endloop
 endfacet
 facet normal -4.226183e-01 -1.062864e-18 -9.063078e-01
   outer loop
     vertex  1.066000e+02  6.300000e+01  5.471281e+00
     vertex  1.060945e+02  5.880000e+01  5.707016e+00
     vertex  1.060945e+02  6.300000e+01  5.707016e+00
   endloop
 endfacet
 facet normal -5.735764e-01 -0.000000e+00 -8.191520e-01
   outer loop
     vertex  1.070569e+02  6.300000e+01  5.151342e+00
     vertex  1.070569e+02  5.880000e+01  5.151342e+00
     vertex  1.066000e+02  6.300000e+01  5.471281e+00
   endloop
 endfacet
 facet normal -7.071068e-01 -0.000000e+00 -7.071068e-01
   outer loop
     vertex  1.074513e+02  6.300000e+01  4.756920e+00
     vertex  1.074513e+02  5.880000e+01  4.756920e+00
     vertex  1.070569e+02  5.880000e+01  5.151342e+00
   endloop
 endfacet
 facet normal -7.071068e-01  1.546086e-18 -7.071068e-01
   outer loop
     vertex  1.074513e+02  6.300000e+01  4.756920e+00
     vertex  1.070569e+02  5.880000e+01  5.151342e+00
     vertex  1.070569e+02  6.300000e+01  5.151342e+00
   endloop
 endfacet
 facet normal -8.191520e-01 -0.000000e+00 -5.735764e-01
   outer loop
     vertex  1.077713e+02  6.300000e+01  4.300000e+00
     vertex  1.077713e+02  5.880000e+01  4.300000e+00
     vertex  1.074513e+02  5.880000e+01  4.756920e+00
   endloop
 endfacet
 facet normal -9.063078e-01 -0.000000e+00 -4.226183e-01
   outer loop
     vertex  1.077713e+02  6.300000e+01  4.300000e+00
     vertex  1.080070e+02  5.880000e+01  3.794464e+00
     vertex  1.077713e+02  5.880000e+01  4.300000e+00
   endloop
 endfacet
 facet normal -8.191520e-01  1.117953e-18 -5.735764e-01
   outer loop
     vertex  1.077713e+02  6.300000e+01  4.300000e+00
     vertex  1.074513e+02  5.880000e+01  4.756920e+00
     vertex  1.074513e+02  6.300000e+01  4.756920e+00
   endloop
 endfacet
 facet normal -9.063078e-01 -0.000000e+00 -4.226183e-01
   outer loop
     vertex  1.080070e+02  6.300000e+01  3.794464e+00
     vertex  1.080070e+02  5.880000e+01  3.794464e+00
     vertex  1.077713e+02  6.300000e+01  4.300000e+00
   endloop
 endfacet
 facet normal -9.659258e-01 -2.561804e-18 -2.588190e-01
   outer loop
     vertex  1.081514e+02  6.300000e+01  3.255674e+00
     vertex  1.080070e+02  5.880000e+01  3.794464e+00
     vertex  1.080070e+02  6.300000e+01  3.794464e+00
   endloop
 endfacet
 facet normal -9.659258e-01 -0.000000e+00 -2.588190e-01
   outer loop
     vertex  1.081514e+02  6.300000e+01  3.255674e+00
     vertex  1.081514e+02  5.880000e+01  3.255674e+00
     vertex  1.080070e+02  5.880000e+01  3.794464e+00
   endloop
 endfacet
 facet normal -9.961947e-01 -0.000000e+00 -8.715574e-02
   outer loop
     vertex  1.081514e+02  6.300000e+01  3.255674e+00
     vertex  1.082000e+02  5.880000e+01  2.700000e+00
     vertex  1.081514e+02  5.880000e+01  3.255674e+00
   endloop
 endfacet
 facet normal -9.961947e-01 -0.000000e+00 -8.715574e-02
   outer loop
     vertex  1.082000e+02  6.300000e+01  2.700000e+00
     vertex  1.082000e+02  5.880000e+01  2.700000e+00
     vertex  1.081514e+02  6.300000e+01  3.255674e+00
   endloop
 endfacet
 facet normal -9.961947e-01  0.000000e+00  8.715574e-02
   outer loop
     vertex  1.082000e+02  6.300000e+01  2.700000e+00
     vertex  1.081514e+02  5.880000e+01  2.144326e+00
     vertex  1.082000e+02  5.880000e+01  2.700000e+00
   endloop
 endfacet
 facet normal -9.961947e-01  0.000000e+00  8.715574e-02
   outer loop
     vertex  1.081514e+02  6.300000e+01  2.144326e+00
     vertex  1.081514e+02  5.880000e+01  2.144326e+00
     vertex  1.082000e+02  6.300000e+01  2.700000e+00
   endloop
 endfacet
 facet normal -9.659258e-01  2.561804e-18  2.588190e-01
   outer loop
     vertex  1.080070e+02  6.300000e+01  1.605536e+00
     vertex  1.081514e+02  5.880000e+01  2.144326e+00
     vertex  1.081514e+02  6.300000e+01  2.144326e+00
   endloop
 endfacet
 facet normal -9.659258e-01  0.000000e+00  2.588190e-01
   outer loop
     vertex  1.080070e+02  6.300000e+01  1.605536e+00
     vertex  1.080070e+02  5.880000e+01  1.605536e+00
     vertex  1.081514e+02  5.880000e+01  2.144326e+00
   endloop
 endfacet
 facet normal -9.063078e-01 -2.477566e-18  4.226183e-01
   outer loop
     vertex  1.077713e+02  6.300000e+01  1.100000e+00
     vertex  1.080070e+02  5.880000e+01  1.605536e+00
     vertex  1.080070e+02  6.300000e+01  1.605536e+00
   endloop
 endfacet
 facet normal -9.063078e-01  0.000000e+00  4.226183e-01
   outer loop
     vertex  1.077713e+02  6.300000e+01  1.100000e+00
     vertex  1.077713e+02  5.880000e+01  1.100000e+00
     vertex  1.080070e+02  5.880000e+01  1.605536e+00
   endloop
 endfacet
 facet normal -8.191520e-01  0.000000e+00  5.735764e-01
   outer loop
     vertex  1.077713e+02  6.300000e+01  1.100000e+00
     vertex  1.074513e+02  5.880000e+01  6.430796e-01
     vertex  1.077713e+02  5.880000e+01  1.100000e+00
   endloop
 endfacet
 facet normal -8.191520e-01  0.000000e+00  5.735764e-01
   outer loop
     vertex  1.074513e+02  6.300000e+01  6.430796e-01
     vertex  1.074513e+02  5.880000e+01  6.430796e-01
     vertex  1.077713e+02  6.300000e+01  1.100000e+00
   endloop
 endfacet
 facet normal -7.071068e-01  2.274672e-18  7.071068e-01
   outer loop
     vertex  1.070569e+02  6.300000e+01  2.486578e-01
     vertex  1.074513e+02  5.880000e+01  6.430796e-01
     vertex  1.074513e+02  6.300000e+01  6.430796e-01
   endloop
 endfacet
 facet normal -7.071068e-01  0.000000e+00  7.071068e-01
   outer loop
     vertex  1.070569e+02  6.300000e+01  2.486578e-01
     vertex  1.070569e+02  5.880000e+01  2.486578e-01
     vertex  1.074513e+02  5.880000e+01  6.430796e-01
   endloop
 endfacet
 facet normal -5.735764e-01  2.957190e-18  8.191520e-01
   outer loop
     vertex  1.066000e+02  6.300000e+01 -7.128129e-02
     vertex  1.070569e+02  5.880000e+01  2.486578e-01
     vertex  1.070569e+02  6.300000e+01  2.486578e-01
   endloop
 endfacet
 facet normal -5.735764e-01  0.000000e+00  8.191520e-01
   outer loop
     vertex  1.066000e+02  6.300000e+01 -7.128129e-02
     vertex  1.066000e+02  5.880000e+01 -7.128129e-02
     vertex  1.070569e+02  5.880000e+01  2.486578e-01
   endloop
 endfacet
 facet normal -4.226183e-01 -2.534398e-18  9.063078e-01
   outer loop
     vertex  1.060945e+02  6.300000e+01 -3.070164e-01
     vertex  1.066000e+02  5.880000e+01 -7.128129e-02
     vertex  1.066000e+02  6.300000e+01 -7.128129e-02
   endloop
 endfacet
 facet normal -4.226183e-01  0.000000e+00  9.063078e-01
   outer loop
     vertex  1.060945e+02  6.300000e+01 -3.070164e-01
     vertex  1.060945e+02  5.880000e+01 -3.070164e-01
     vertex  1.066000e+02  5.880000e+01 -7.128129e-02
   endloop
 endfacet
 facet normal -2.588190e-01 -1.622216e-18  9.659258e-01
   outer loop
     vertex  1.055557e+02  6.300000e+01 -4.513848e-01
     vertex  1.060945e+02  5.880000e+01 -3.070164e-01
     vertex  1.060945e+02  6.300000e+01 -3.070164e-01
   endloop
 endfacet
 facet normal -2.588190e-01  0.000000e+00  9.659258e-01
   outer loop
     vertex  1.055557e+02  6.300000e+01 -4.513848e-01
     vertex  1.055557e+02  5.880000e+01 -4.513848e-01
     vertex  1.060945e+02  5.880000e+01 -3.070164e-01
   endloop
 endfacet
 facet normal -8.715574e-02  0.000000e+00  9.961947e-01
   outer loop
     vertex  1.055557e+02  6.300000e+01 -4.513848e-01
     vertex  1.050000e+02  5.880000e+01 -5.000000e-01
     vertex  1.055557e+02  5.880000e+01 -4.513848e-01
   endloop
 endfacet
 facet normal -8.715574e-02  0.000000e+00  9.961947e-01
   outer loop
     vertex  1.050000e+02  6.300000e+01 -5.000000e-01
     vertex  1.050000e+02  5.880000e+01 -5.000000e-01
     vertex  1.055557e+02  6.300000e+01 -4.513848e-01
   endloop
 endfacet
 facet normal  8.715574e-02  0.000000e+00  9.961947e-01
   outer loop
     vertex  1.050000e+02  6.300000e+01 -5.000000e-01
     vertex  1.044443e+02  5.880000e+01 -4.513848e-01
     vertex  1.050000e+02  5.880000e+01 -5.000000e-01
   endloop
 endfacet
 facet normal  8.715574e-02  0.000000e+00  9.961947e-01
   outer loop
     vertex  1.044443e+02  6.300000e+01 -4.513848e-01
     vertex  1.044443e+02  5.880000e+01 -4.513848e-01
     vertex  1.050000e+02  6.300000e+01 -5.000000e-01
   endloop
 endfacet
 facet normal  2.588190e-01  2.403507e-18  9.659258e-01
   outer loop
     vertex  1.039055e+02  6.300000e+01 -3.070164e-01
     vertex  1.044443e+02  5.880000e+01 -4.513848e-01
     vertex  1.044443e+02  6.300000e+01 -4.513848e-01
   endloop
 endfacet
 facet normal  2.588190e-01  0.000000e+00  9.659258e-01
   outer loop
     vertex  1.039055e+02  6.300000e+01 -3.070164e-01
     vertex  1.039055e+02  5.880000e+01 -3.070164e-01
     vertex  1.044443e+02  5.880000e+01 -4.513848e-01
   endloop
 endfacet
 facet normal  4.226183e-01  0.000000e+00  9.063078e-01
   outer loop
     vertex  1.034000e+02  6.300000e+01 -7.128129e-02
     vertex  1.034000e+02  5.880000e+01 -7.128129e-02
     vertex  1.039055e+02  5.880000e+01 -3.070164e-01
   endloop
 endfacet
 facet normal  5.735764e-01  0.000000e+00  8.191520e-01
   outer loop
     vertex  1.034000e+02  6.300000e+01 -7.128129e-02
     vertex  1.029431e+02  5.880000e+01  2.486578e-01
     vertex  1.034000e+02  5.880000e+01 -7.128129e-02
   endloop
 endfacet
 facet normal  4.226183e-01  1.035762e-18  9.063078e-01
   outer loop
     vertex  1.034000e+02  6.300000e+01 -7.128129e-02
     vertex  1.039055e+02  5.880000e+01 -3.070164e-01
     vertex  1.039055e+02  6.300000e+01 -3.070164e-01
   endloop
 endfacet
 facet normal  5.735764e-01  0.000000e+00  8.191520e-01
   outer loop
     vertex  1.029431e+02  6.300000e+01  2.486578e-01
     vertex  1.029431e+02  5.880000e+01  2.486578e-01
     vertex  1.034000e+02  6.300000e+01 -7.128129e-02
   endloop
 endfacet
 facet normal  7.071068e-01 -2.274672e-18  7.071068e-01
   outer loop
     vertex  1.025487e+02  6.300000e+01  6.430796e-01
     vertex  1.029431e+02  5.880000e+01  2.486578e-01
     vertex  1.029431e+02  6.300000e+01  2.486578e-01
   endloop
 endfacet
 facet normal  7.071068e-01  0.000000e+00  7.071068e-01
   outer loop
     vertex  1.025487e+02  6.300000e+01  6.430796e-01
     vertex  1.025487e+02  5.880000e+01  6.430796e-01
     vertex  1.029431e+02  5.880000e+01  2.486578e-01
   endloop
 endfacet
 facet normal  8.191520e-01  0.000000e+00  5.735764e-01
   outer loop
     vertex  1.025487e+02  6.300000e+01  6.430796e-01
     vertex  1.022287e+02  5.880000e+01  1.100000e+00
     vertex  1.025487e+02  5.880000e+01  6.430796e-01
   endloop
 endfacet
 facet normal  9.063078e-01  0.000000e+00  4.226183e-01
   outer loop
     vertex  1.022287e+02  6.300000e+01  1.100000e+00
     vertex  1.019930e+02  5.880000e+01  1.605536e+00
     vertex  1.022287e+02  5.880000e+01  1.100000e+00
   endloop
 endfacet
 facet normal  8.191520e-01  0.000000e+00  5.735764e-01
   outer loop
     vertex  1.022287e+02  6.300000e+01  1.100000e+00
     vertex  1.022287e+02  5.880000e+01  1.100000e+00
     vertex  1.025487e+02  6.300000e+01  6.430796e-01
   endloop
 endfacet
 facet normal  9.659258e-01  0.000000e+00  2.588190e-01
   outer loop
     vertex  1.019930e+02  6.300000e+01  1.605536e+00
     vertex  1.018486e+02  5.880000e+01  2.144326e+00
     vertex  1.019930e+02  5.880000e+01  1.605536e+00
   endloop
 endfacet
 facet normal  9.063078e-01  0.000000e+00  4.226183e-01
   outer loop
     vertex  1.019930e+02  6.300000e+01  1.605536e+00
     vertex  1.019930e+02  5.880000e+01  1.605536e+00
     vertex  1.022287e+02  6.300000e+01  1.100000e+00
   endloop
 endfacet
 facet normal  9.659258e-01  0.000000e+00  2.588190e-01
   outer loop
     vertex  1.018486e+02  6.300000e+01  2.144326e+00
     vertex  1.018486e+02  5.880000e+01  2.144326e+00
     vertex  1.019930e+02  6.300000e+01  1.605536e+00
   endloop
 endfacet
 facet normal  9.961947e-01  0.000000e+00  8.715574e-02
   outer loop
     vertex  1.018000e+02  6.300000e+01  2.700000e+00
     vertex  1.018000e+02  5.880000e+01  2.700000e+00
     vertex  1.018486e+02  5.880000e+01  2.144326e+00
   endloop
 endfacet
 facet normal  9.961947e-01  0.000000e+00 -8.715574e-02
   outer loop
     vertex  1.018000e+02  6.300000e+01  2.700000e+00
     vertex  1.018486e+02  5.880000e+01  3.255674e+00
     vertex  1.018000e+02  5.880000e+01  2.700000e+00
   endloop
 endfacet
 facet normal  9.961947e-01  6.243469e-19  8.715574e-02
   outer loop
     vertex  1.018000e+02  6.300000e+01  2.700000e+00
     vertex  1.018486e+02  5.880000e+01  2.144326e+00
     vertex  1.018486e+02  6.300000e+01  2.144326e+00
   endloop
 endfacet
 facet normal  9.961947e-01  0.000000e+00 -8.715574e-02
   outer loop
     vertex  1.018486e+02  6.300000e+01  3.255674e+00
     vertex  1.018486e+02  5.880000e+01  3.255674e+00
     vertex  1.018000e+02  6.300000e+01  2.700000e+00
   endloop
 endfacet
 facet normal  9.659258e-01  0.000000e+00 -2.588190e-01
   outer loop
     vertex  1.019930e+02  6.300000e+01  3.794464e+00
     vertex  1.019930e+02  5.880000e+01  3.794464e+00
     vertex  1.018486e+02  5.880000e+01  3.255674e+00
   endloop
 endfacet
 facet normal  9.659258e-01  2.561804e-18 -2.588190e-01
   outer loop
     vertex  1.019930e+02  6.300000e+01  3.794464e+00
     vertex  1.018486e+02  5.880000e+01  3.255674e+00
     vertex  1.018486e+02  6.300000e+01  3.255674e+00
   endloop
 endfacet
 facet normal  9.063078e-01  0.000000e+00 -4.226183e-01
   outer loop
     vertex  1.022287e+02  6.300000e+01  4.300000e+00
     vertex  1.022287e+02  5.880000e+01  4.300000e+00
     vertex  1.019930e+02  5.880000e+01  3.794464e+00
   endloop
 endfacet
 facet normal  8.191520e-01  0.000000e+00 -5.735764e-01
   outer loop
     vertex  1.022287e+02  6.300000e+01  4.300000e+00
     vertex  1.025487e+02  5.880000e+01  4.756920e+00
     vertex  1.022287e+02  5.880000e+01  4.300000e+00
   endloop
 endfacet
 facet normal  9.063078e-01  2.094137e-18 -4.226183e-01
   outer loop
     vertex  1.022287e+02  6.300000e+01  4.300000e+00
     vertex  1.019930e+02  5.880000e+01  3.794464e+00
     vertex  1.019930e+02  6.300000e+01  3.794464e+00
   endloop
 endfacet
 facet normal  8.191520e-01  0.000000e+00 -5.735764e-01
   outer loop
     vertex  1.025487e+02  6.300000e+01  4.756920e+00
     vertex  1.025487e+02  5.880000e+01  4.756920e+00
     vertex  1.022287e+02  6.300000e+01  4.300000e+00
   endloop
 endfacet
 facet normal  7.071068e-01  0.000000e+00 -7.071068e-01
   outer loop
     vertex  1.029431e+02  6.300000e+01  5.151342e+00
     vertex  1.029431e+02  5.880000e+01  5.151342e+00
     vertex  1.025487e+02  5.880000e+01  4.756920e+00
   endloop
 endfacet
 facet normal  7.071068e-01  5.153596e-18 -7.071068e-01
   outer loop
     vertex  1.029431e+02  6.300000e+01  5.151342e+00
     vertex  1.025487e+02  5.880000e+01  4.756920e+00
     vertex  1.025487e+02  6.300000e+01  4.756920e+00
   endloop
 endfacet
 facet normal  5.735764e-01 -5.208956e-18 -8.191520e-01
   outer loop
     vertex  1.034000e+02  6.300000e+01  5.471281e+00
     vertex  1.029431e+02  5.880000e+01  5.151342e+00
     vertex  1.029431e+02  6.300000e+01  5.151342e+00
   endloop
 endfacet
 facet normal  5.735764e-01  0.000000e+00 -8.191520e-01
   outer loop
     vertex  1.034000e+02  6.300000e+01  5.471281e+00
     vertex  1.034000e+02  5.880000e+01  5.471281e+00
     vertex  1.029431e+02  5.880000e+01  5.151342e+00
   endloop
 endfacet
 facet normal  4.226183e-01 -6.636106e-19 -9.063078e-01
   outer loop
     vertex  1.039055e+02  6.300000e+01  5.707016e+00
     vertex  1.034000e+02  5.880000e+01  5.471281e+00
     vertex  1.034000e+02  6.300000e+01  5.471281e+00
   endloop
 endfacet
 facet normal  4.226183e-01  0.000000e+00 -9.063078e-01
   outer loop
     vertex  1.039055e+02  6.300000e+01  5.707016e+00
     vertex  1.039055e+02  5.880000e+01  5.707016e+00
     vertex  1.034000e+02  5.880000e+01  5.471281e+00
   endloop
 endfacet
 facet normal  2.588190e-01  0.000000e+00 -9.659258e-01
   outer loop
     vertex  1.039055e+02  6.300000e+01  5.707016e+00
     vertex  1.044443e+02  5.880000e+01  5.851385e+00
     vertex  1.039055e+02  5.880000e+01  5.707016e+00
   endloop
 endfacet
 facet normal  2.588190e-01  0.000000e+00 -9.659258e-01
   outer loop
     vertex  1.044443e+02  6.300000e+01  5.851385e+00
     vertex  1.044443e+02  5.880000e+01  5.851385e+00
     vertex  1.039055e+02  6.300000e+01  5.707016e+00
   endloop
 endfacet
 facet normal  8.715574e-02 -5.742247e-19 -9.961947e-01
   outer loop
     vertex  1.050000e+02  6.300000e+01  5.900000e+00
     vertex  1.044443e+02  5.880000e+01  5.851385e+00
     vertex  1.044443e+02  6.300000e+01  5.851385e+00
   endloop
 endfacet
 facet normal  8.715574e-02  0.000000e+00 -9.961947e-01
   outer loop
     vertex  1.050000e+02  6.300000e+01  5.900000e+00
     vertex  1.050000e+02  5.880000e+01  5.900000e+00
     vertex  1.044443e+02  5.880000e+01  5.851385e+00
   endloop
 endfacet
endsolid
