solid 
 facet normal -1.000000e+00  0.000000e+00 -0.000000e+00
   outer loop
     vertex  9.945000e+01  6.500000e+01  6.200000e+00
     vertex  9.945000e+01  6.500000e+01 -8.000000e-01
     vertex  9.945000e+01  6.020000e+01 -8.000000e-01
   endloop
 endfacet
 facet normal -1.000000e+00  0.000000e+00  0.000000e+00
   outer loop
     vertex  9.945000e+01  6.020000e+01  6.200000e+00
     vertex  9.945000e+01  6.500000e+01  6.200000e+00
     vertex  9.945000e+01  6.020000e+01 -8.000000e-01
   endloop
 endfacet
 facet normal  1.000000e+00  0.000000e+00  0.000000e+00
   outer loop
     vertex  1.014500e+02  6.500000e+01  6.200000e+00
     vertex  1.014500e+02  6.020000e+01 -8.000000e-01
     vertex  1.014500e+02  6.500000e+01 -8.000000e-01
   endloop
 endfacet
 facet normal  1.000000e+00 -0.000000e+00  0.000000e+00
   outer loop
     vertex  1.014500e+02  6.020000e+01  6.200000e+00
     vertex  1.014500e+02  6.020000e+01 -8.000000e-01
     vertex  1.014500e+02  6.500000e+01  6.200000e+00
   endloop
 endfacet
 facet normal  0.000000e+00 -1.000000e+00 -0.000000e+00
   outer loop
     vertex  1.014500e+02  6.020000e+01  6.200000e+00
     vertex  9.945000e+01  6.020000e+01 -8.000000e-01
     vertex  1.014500e+02  6.020000e+01 -8.000000e-01
   endloop
 endfacet
 facet normal -0.000000e+00 -1.000000e+00  0.000000e+00
   outer loop
     vertex  1.014500e+02  6.020000e+01  6.200000e+00
     vertex  9.945000e+01  6.020000e+01  6.200000e+00
     vertex  9.945000e+01  6.020000e+01 -8.000000e-01
   endloop
 endfacet
 facet normal  0.000000e+00  1.000000e+00  0.000000e+00
   outer loop
     vertex  1.014500e+02  6.500000e+01  6.200000e+00
     vertex  1.014500e+02  6.500000e+01 -8.000000e-01
     vertex  9.945000e+01  6.500000e+01 -8.000000e-01
   endloop
 endfacet
 facet normal  0.000000e+00  1.000000e+00  0.000000e+00
   outer loop
     vertex  1.014500e+02  6.500000e+01  6.200000e+00
     vertex  9.945000e+01  6.500000e+01 -8.000000e-01
     vertex  9.945000e+01  6.500000e+01  6.200000e+00
   endloop
 endfacet
 facet normal -0.000000e+00  0.000000e+00 -1.000000e+00
   outer loop
     vertex  1.014500e+02  6.500000e+01 -8.000000e-01
     vertex  9.945000e+01  6.020000e+01 -8.000000e-01
     vertex  9.945000e+01  6.500000e+01 -8.000000e-01
   endloop
 endfacet
 facet normal  0.000000e+00 -0.000000e+00 -1.000000e+00
   outer loop
     vertex  1.014500e+02  6.500000e+01 -8.000000e-01
     vertex  1.014500e+02  6.020000e+01 -8.000000e-01
     vertex  9.945000e+01  6.020000e+01 -8.000000e-01
   endloop
 endfacet
 facet normal  0.000000e+00  0.000000e+00  1.000000e+00
   outer loop
     vertex  1.014500e+02  6.500000e+01  6.200000e+00
     vertex  9.945000e+01  6.500000e+01  6.200000e+00
     vertex  9.945000e+01  6.020000e+01  6.200000e+00
   endloop
 endfacet
 facet normal  0.000000e+00  0.000000e+00  1.000000e+00
   outer loop
     vertex  1.014500e+02  6.500000e+01  6.200000e+00
     vertex  9.945000e+01  6.020000e+01  6.200000e+00
     vertex  1.014500e+02  6.020000e+01  6.200000e+00
   endloop
 endfacet
 facet normal -1.000000e+00  0.000000e+00 -0.000000e+00
   outer loop
     vertex  1.085500e+02  6.500000e+01  6.200000e+00
     vertex  1.085500e+02  6.500000e+01 -8.000000e-01
     vertex  1.085500e+02  6.020000e+01 -8.000000e-01
   endloop
 endfacet
 facet normal -1.000000e+00  0.000000e+00  0.000000e+00
   outer loop
     vertex  1.085500e+02  6.020000e+01  6.200000e+00
     vertex  1.085500e+02  6.500000e+01  6.200000e+00
     vertex  1.085500e+02  6.020000e+01 -8.000000e-01
   endloop
 endfacet
 facet normal  1.000000e+00  0.000000e+00  0.000000e+00
   outer loop
     vertex  1.105500e+02  6.500000e+01  6.200000e+00
     vertex  1.105500e+02  6.020000e+01 -8.000000e-01
     vertex  1.105500e+02  6.500000e+01 -8.000000e-01
   endloop
 endfacet
 facet normal  1.000000e+00 -0.000000e+00  0.000000e+00
   outer loop
     vertex  1.105500e+02  6.020000e+01  6.200000e+00
     vertex  1.105500e+02  6.020000e+01 -8.000000e-01
     vertex  1.105500e+02  6.500000e+01  6.200000e+00
   endloop
 endfacet
 facet normal  0.000000e+00 -1.000000e+00 -0.000000e+00
   outer loop
     vertex  1.105500e+02  6.020000e+01  6.200000e+00
     vertex  1.085500e+02  6.020000e+01 -8.000000e-01
     vertex  1.105500e+02  6.020000e+01 -8.000000e-01
   endloop
 endfacet
 facet normal -0.000000e+00 -1.000000e+00  0.000000e+00
   outer loop
     vertex  1.105500e+02  6.020000e+01  6.200000e+00
     vertex  1.085500e+02  6.020000e+01  6.200000e+00
     vertex  1.085500e+02  6.020000e+01 -8.000000e-01
   endloop
 endfacet
 facet normal  0.000000e+00  1.000000e+00  0.000000e+00
   outer loop
     vertex  1.105500e+02  6.500000e+01  6.200000e+00
     vertex  1.105500e+02  6.500000e+01 -8.000000e-01
     vertex  1.085500e+02  6.500000e+01 -8.000000e-01
   endloop
 endfacet
 facet normal  0.000000e+00  1.000000e+00  0.000000e+00
   outer loop
     vertex  1.105500e+02  6.500000e+01  6.200000e+00
     vertex  1.085500e+02  6.500000e+01 -8.000000e-01
     vertex  1.085500e+02  6.500000e+01  6.200000e+00
   endloop
 endfacet
 facet normal -0.000000e+00  0.000000e+00 -1.000000e+00
   outer loop
     vertex  1.105500e+02  6.500000e+01 -8.000000e-01
     vertex  1.085500e+02  6.020000e+01 -8.000000e-01
     vertex  1.085500e+02  6.500000e+01 -8.000000e-01
   endloop
 endfacet
 facet normal  0.000000e+00 -0.000000e+00 -1.000000e+00
   outer loop
     vertex  1.105500e+02  6.500000e+01 -8.000000e-01
     vertex  1.105500e+02  6.020000e+01 -8.000000e-01
     vertex  1.085500e+02  6.020000e+01 -8.000000e-01
   endloop
 endfacet
 facet normal  0.000000e+00  0.000000e+00  1.000000e+00
   outer loop
     vertex  1.105500e+02  6.500000e+01  6.200000e+00
     vertex  1.085500e+02  6.500000e+01  6.200000e+00
     vertex  1.085500e+02  6.020000e+01  6.200000e+00
   endloop
 endfacet
 facet normal  0.000000e+00  0.000000e+00  1.000000e+00
   outer loop
     vertex  1.105500e+02  6.500000e+01  6.200000e+00
     vertex  1.085500e+02  6.020000e+01  6.200000e+00
     vertex  1.105500e+02  6.020000e+01  6.200000e+00
   endloop
 endfacet
endsolid
